  0
SECTION
  2
HEADER
  9
$ACADVER
  1
AC1015
  9
$ACADMAINTVER
 70
     6
  9
$DWGCODEPAGE
  3
ANSI_1252
  9
$INSBASE
 10
0.0
 20
0.0
 30
0.0
  9
$EXTMIN
 10
7.9749523043
 20
-2.0132313567
 30
0.0
  9
$EXTMAX
 10
11.9014466862
 20
2.399013635
 30
0.0
  9
$LIMMIN
 10
0.0
 20
0.0
  9
$LIMMAX
 10
12.0
 20
9.0
  9
$ORTHOMODE
 70
     0
  9
$REGENMODE
 70
     1
  9
$FILLMODE
 70
     1
  9
$QTEXTMODE
 70
     0
  9
$MIRRTEXT
 70
     1
  9
$LTSCALE
 40
1.0
  9
$ATTMODE
 70
     1
  9
$TEXTSIZE
 40
0.125
  9
$TRACEWID
 40
0.05
  9
$TEXTSTYLE
  7
Standard
  9
$CLAYER
  8
0
  9
$CELTYPE
  6
ByLayer
  9
$CECOLOR
 62
   256
  9
$CELTSCALE
 40
1.0
  9
$DISPSILH
 70
     0
  9
$DIMSCALE
 40
1.0
  9
$DIMASZ
 40
0.13
  9
$DIMEXO
 40
0.05
  9
$DIMDLI
 40
0.38
  9
$DIMRND
 40
0.0
  9
$DIMDLE
 40
0.0
  9
$DIMEXE
 40
0.125
  9
$DIMTP
 40
0.0
  9
$DIMTM
 40
0.0
  9
$DIMTXT
 40
0.125
  9
$DIMCEN
 40
0.09
  9
$DIMTSZ
 40
0.0
  9
$DIMTOL
 70
     0
  9
$DIMLIM
 70
     0
  9
$DIMTIH
 70
     1
  9
$DIMTOH
 70
     1
  9
$DIMSE1
 70
     0
  9
$DIMSE2
 70
     0
  9
$DIMTAD
 70
     0
  9
$DIMZIN
 70
     1
  9
$DIMBLK
  1

  9
$DIMASO
 70
     1
  9
$DIMSHO
 70
     1
  9
$DIMPOST
  1

  9
$DIMAPOST
  1

  9
$DIMALT
 70
     0
  9
$DIMALTD
 70
     2
  9
$DIMALTF
 40
25.4
  9
$DIMLFAC
 40
1.0
  9
$DIMTOFL
 70
     0
  9
$DIMTVP
 40
0.0
  9
$DIMTIX
 70
     0
  9
$DIMSOXD
 70
     0
  9
$DIMSAH
 70
     0
  9
$DIMBLK1
  1

  9
$DIMBLK2
  1

  9
$DIMSTYLE
  2
Standard
  9
$DIMCLRD
 70
     0
  9
$DIMCLRE
 70
     0
  9
$DIMCLRT
 70
     0
  9
$DIMTFAC
 40
1.0
  9
$DIMGAP
 40
0.06
  9
$DIMJUST
 70
     0
  9
$DIMSD1
 70
     0
  9
$DIMSD2
 70
     0
  9
$DIMTOLJ
 70
     1
  9
$DIMTZIN
 70
     1
  9
$DIMALTZ
 70
     0
  9
$DIMALTTZ
 70
     0
  9
$DIMUPT
 70
     0
  9
$DIMDEC
 70
     2
  9
$DIMTDEC
 70
     2
  9
$DIMALTU
 70
     2
  9
$DIMALTTD
 70
     2
  9
$DIMTXSTY
  7
Standard
  9
$DIMAUNIT
 70
     0
  9
$DIMADEC
 70
     2
  9
$DIMALTRND
 40
0.0
  9
$DIMAZIN
 70
     0
  9
$DIMDSEP
 70
    46
  9
$DIMATFIT
 70
     3
  9
$DIMFRAC
 70
     0
  9
$DIMLDRBLK
  1

  9
$DIMLUNIT
 70
     2
  9
$DIMLWD
 70
    -2
  9
$DIMLWE
 70
    -2
  9
$DIMTMOVE
 70
     0
  9
$LUNITS
 70
     2
  9
$LUPREC
 70
     2
  9
$SKETCHINC
 40
0.1
  9
$FILLETRAD
 40
0.5
  9
$AUNITS
 70
     0
  9
$AUPREC
 70
     2
  9
$MENU
  1
.
  9
$ELEVATION
 40
0.0
  9
$PELEVATION
 40
0.0
  9
$THICKNESS
 40
0.0
  9
$LIMCHECK
 70
     0
  9
$CHAMFERA
 40
0.0
  9
$CHAMFERB
 40
0.0
  9
$CHAMFERC
 40
0.0
  9
$CHAMFERD
 40
0.0
  9
$SKPOLY
 70
     0
  9
$TDCREATE
 40
2458543.107919699
  9
$TDUCREATE
 40
2458543.441253033
  9
$TDUPDATE
 40
2458543.107945139
  9
$TDUUPDATE
 40
2458543.441278472
  9
$TDINDWG
 40
0.0000000116
  9
$TDUSRTIMER
 40
0.0000000116
  9
$USRTIMER
 70
     1
  9
$ANGBASE
 50
0.0
  9
$ANGDIR
 70
     0
  9
$PDMODE
 70
     0
  9
$PDSIZE
 40
-1.0
  9
$PLINEWID
 40
0.0
  9
$SPLFRAME
 70
     0
  9
$SPLINETYPE
 70
     6
  9
$SPLINESEGS
 70
     8
  9
$HANDSEED
  5
E3
  9
$SURFTAB1
 70
     6
  9
$SURFTAB2
 70
     6
  9
$SURFTYPE
 70
     6
  9
$SURFU
 70
     6
  9
$SURFV
 70
     6
  9
$UCSBASE
  2

  9
$UCSNAME
  2

  9
$UCSORG
 10
0.0
 20
0.0
 30
0.0
  9
$UCSXDIR
 10
1.0
 20
0.0
 30
0.0
  9
$UCSYDIR
 10
0.0
 20
1.0
 30
0.0
  9
$UCSORTHOREF
  2

  9
$UCSORTHOVIEW
 70
     0
  9
$UCSORGTOP
 10
0.0
 20
0.0
 30
0.0
  9
$UCSORGBOTTOM
 10
0.0
 20
0.0
 30
0.0
  9
$UCSORGLEFT
 10
0.0
 20
0.0
 30
0.0
  9
$UCSORGRIGHT
 10
0.0
 20
0.0
 30
0.0
  9
$UCSORGFRONT
 10
0.0
 20
0.0
 30
0.0
  9
$UCSORGBACK
 10
0.0
 20
0.0
 30
0.0
  9
$PUCSBASE
  2

  9
$PUCSNAME
  2

  9
$PUCSORG
 10
0.0
 20
0.0
 30
0.0
  9
$PUCSXDIR
 10
1.0
 20
0.0
 30
0.0
  9
$PUCSYDIR
 10
0.0
 20
1.0
 30
0.0
  9
$PUCSORTHOREF
  2

  9
$PUCSORTHOVIEW
 70
     0
  9
$PUCSORGTOP
 10
0.0
 20
0.0
 30
0.0
  9
$PUCSORGBOTTOM
 10
0.0
 20
0.0
 30
0.0
  9
$PUCSORGLEFT
 10
0.0
 20
0.0
 30
0.0
  9
$PUCSORGRIGHT
 10
0.0
 20
0.0
 30
0.0
  9
$PUCSORGFRONT
 10
0.0
 20
0.0
 30
0.0
  9
$PUCSORGBACK
 10
0.0
 20
0.0
 30
0.0
  9
$USERI1
 70
     0
  9
$USERI2
 70
     0
  9
$USERI3
 70
     0
  9
$USERI4
 70
     0
  9
$USERI5
 70
     0
  9
$USERR1
 40
0.0
  9
$USERR2
 40
0.0
  9
$USERR3
 40
0.0
  9
$USERR4
 40
0.0
  9
$USERR5
 40
0.0
  9
$WORLDVIEW
 70
     1
  9
$SHADEDGE
 70
     3
  9
$SHADEDIF
 70
    70
  9
$TILEMODE
 70
     1
  9
$MAXACTVP
 70
    64
  9
$PINSBASE
 10
0.0
 20
0.0
 30
0.0
  9
$PLIMCHECK
 70
     0
  9
$PEXTMIN
 10
1.0000000000E+20
 20
1.0000000000E+20
 30
1.0000000000E+20
  9
$PEXTMAX
 10
-1.0000000000E+20
 20
-1.0000000000E+20
 30
-1.0000000000E+20
  9
$PLIMMIN
 10
0.0
 20
0.0
  9
$PLIMMAX
 10
12.0
 20
9.0
  9
$UNITMODE
 70
     0
  9
$VISRETAIN
 70
     1
  9
$PLINEGEN
 70
     0
  9
$PSLTSCALE
 70
     1
  9
$TREEDEPTH
 70
  3020
  9
$CMLSTYLE
  2
Standard
  9
$CMLJUST
 70
     0
  9
$CMLSCALE
 40
1.0
  9
$PROXYGRAPHICS
 70
     1
  9
$MEASUREMENT
 70
     0
  9
$CELWEIGHT
370
    -1
  9
$ENDCAPS
280
     0
  9
$JOINSTYLE
280
     0
  9
$LWDISPLAY
290
     1
  9
$INSUNITS
 70
     1
  9
$HYPERLINKBASE
  1

  9
$STYLESHEET
  1

  9
$XEDIT
290
     1
  9
$CEPSNTYPE
380
     0
  9
$PSTYLEMODE
290
     1
  9
$FINGERPRINTGUID
  2
{FFBFBD87-4126-4E92-A22C-FC6116CCCA81}
  9
$VERSIONGUID
  2
{FAEB1C32-E019-11D5-929B-00C0DF256EC4}
  9
$EXTNAMES
290
     1
  9
$PSVPSCALE
 40
0.0
  9
$OLESTARTUP
290
     0
  0
ENDSEC
  0
SECTION
  2
CLASSES
  0
CLASS
  1
ACDBDICTIONARYWDFLT
  2
AcDbDictionaryWithDefault
  3
ObjectDBX Classes
 90
        0
280
     0
281
     0
  0
CLASS
  1
VISUALSTYLE
  2
AcDbVisualStyle
  3
ObjectDBX Classes
 90
     4095
280
     0
281
     0
  0
CLASS
  1
MATERIAL
  2
AcDbMaterial
  3
ObjectDBX Classes
 90
     1153
280
     0
281
     0
  0
CLASS
  1
SCALE
  2
AcDbScale
  3
ObjectDBX Classes
 90
     1153
280
     0
281
     0
  0
CLASS
  1
TABLESTYLE
  2
AcDbTableStyle
  3
ObjectDBX Classes
 90
     4095
280
     0
281
     0
  0
CLASS
  1
MLEADERSTYLE
  2
AcDbMLeaderStyle
  3
ACDB_MLEADERSTYLE_CLASS
 90
     4095
280
     0
281
     0
  0
CLASS
  1
SUN
  2
AcDbSun
  3
SCENEOE
 90
     1153
280
     0
281
     0
  0
CLASS
  1
ACDBPLACEHOLDER
  2
AcDbPlaceHolder
  3
ObjectDBX Classes
 90
        0
280
     0
281
     0
  0
CLASS
  1
LAYOUT
  2
AcDbLayout
  3
ObjectDBX Classes
 90
        0
280
     0
281
     0
  0
ENDSEC
  0
SECTION
  2
TABLES
  0
TABLE
  2
VPORT
  5
8
330
0
100
AcDbSymbolTable
 70
     1
  0
VPORT
  5
29
330
8
100
AcDbSymbolTableRecord
100
AcDbViewportTableRecord
  2
*Active
 70
     0
 10
0.0
 20
0.0
 11
1.0
 21
1.0
 12
9.9381994952
 22
0.1928911391
 13
0.0
 23
0.0
 14
0.5
 24
0.5
 15
0.5
 25
0.5
 16
0.0
 26
0.0
 36
1.0
 17
0.0
 27
0.0
 37
0.0
 40
4.5004898915
 41
0.8899085135
 42
50.0
 43
0.0
 44
0.0
 50
0.0
 51
0.0
 71
     0
 72
   100
 73
     1
 74
     3
 75
     0
 76
     0
 77
     0
 78
     0
281
     0
 65
     1
110
0.0
120
0.0
130
0.0
111
1.0
121
0.0
131
0.0
112
0.0
122
1.0
132
0.0
 79
     0
146
0.0
  0
ENDTAB
  0
TABLE
  2
LTYPE
  5
5
330
0
100
AcDbSymbolTable
 70
     6
  0
LTYPE
  5
14
330
5
100
AcDbSymbolTableRecord
100
AcDbLinetypeTableRecord
  2
ByBlock
 70
     0
  3

 72
    65
 73
     0
 40
0.0
  0
LTYPE
  5
15
330
5
100
AcDbSymbolTableRecord
100
AcDbLinetypeTableRecord
  2
ByLayer
 70
     0
  3

 72
    65
 73
     0
 40
0.0
  0
LTYPE
  5
16
330
5
100
AcDbSymbolTableRecord
100
AcDbLinetypeTableRecord
  2
Continuous
 70
     0
  3
Solid line
 72
    65
 73
     0
 40
0.0
  0
LTYPE
  5
6E
330
5
100
AcDbSymbolTableRecord
100
AcDbLinetypeTableRecord
  2
HIDDEN
 70
     0
  3
Hidden __ __ __ __ __ __ __ __ __ __ __ __ __ __
 72
    65
 73
     2
 40
0.075
 49
0.05
 74
     0
 49
-0.025
 74
     0
  0
LTYPE
  5
6F
330
5
100
AcDbSymbolTableRecord
100
AcDbLinetypeTableRecord
  2
PHANTOM
 70
     0
  3
Phantom ______  __  __  ______  __  __  ______
 72
    65
 73
     6
 40
0.5
 49
0.25
 74
     0
 49
-0.05
 74
     0
 49
0.05
 74
     0
 49
-0.05
 74
     0
 49
0.05
 74
     0
 49
-0.05
 74
     0
  0
LTYPE
  5
70
330
5
100
AcDbSymbolTableRecord
100
AcDbLinetypeTableRecord
  2
CENTER
 70
     0
  3
Center ____ _ ____ _ ____ _ ____ _ ____ _ ____
 72
    65
 73
     4
 40
0.4
 49
0.25
 74
     0
 49
-0.05
 74
     0
 49
0.05
 74
     0
 49
-0.05
 74
     0
  0
LTYPE
  5
71
330
5
100
AcDbSymbolTableRecord
100
AcDbLinetypeTableRecord
  2
CENTERX2
 70
     0
  3
Center (2x) ________  __  ________  __  _____
 72
    65
 73
     4
 40
0.8
 49
0.5
 74
     0
 49
-0.1
 74
     0
 49
0.1
 74
     0
 49
-0.1
 74
     0
  0
LTYPE
  5
72
330
5
100
AcDbSymbolTableRecord
100
AcDbLinetypeTableRecord
  2
DOT2
 70
     0
  3
Dot (.5x) ........................................
 72
    65
 73
     2
 40
0.025
 49
0.0
 74
     0
 49
-0.025
 74
     0
  0
ENDTAB
  0
TABLE
  2
LAYER
  5
2
330
0
100
AcDbSymbolTable
 70
     1
  0
LAYER
  5
10
330
2
100
AcDbSymbolTableRecord
100
AcDbLayerTableRecord
  2
0
 70
     0
 62
     7
  6
Continuous
370
    -3
390
F
  0
ENDTAB
  0
TABLE
  2
STYLE
  5
3
330
0
100
AcDbSymbolTable
 70
     2
  0
STYLE
  5
11
330
3
100
AcDbSymbolTableRecord
100
AcDbTextStyleTableRecord
  2
Standard
 70
     0
 40
0.0
 41
1.0
 50
0.0
 71
     0
 42
0.125
  3
txt
  4

  0
STYLE
  5
E0
330
3
100
AcDbSymbolTableRecord
100
AcDbTextStyleTableRecord
  2
SLDTEXTSTYLE0
 70
     0
 40
0.0
 41
0.7
 50
0.0
 71
     0
 42
0.125
  3
TXT
  4

  0
ENDTAB
  0
TABLE
  2
VIEW
  5
6
330
0
100
AcDbSymbolTable
 70
     0
  0
ENDTAB
  0
TABLE
  2
UCS
  5
7
330
0
100
AcDbSymbolTable
 70
     0
  0
ENDTAB
  0
TABLE
  2
APPID
  5
9
330
0
100
AcDbSymbolTable
 70
     1
  0
APPID
  5
12
330
9
100
AcDbSymbolTableRecord
100
AcDbRegAppTableRecord
  2
ACAD
 70
     0
  0
ENDTAB
  0
TABLE
  2
DIMSTYLE
  5
A
330
0
100
AcDbSymbolTable
 70
     1
100
AcDbDimStyleTable
  0
DIMSTYLE
105
27
330
A
100
AcDbSymbolTableRecord
100
AcDbDimStyleTableRecord
  2
Standard
 70
     0
178
     0
340
11
  0
ENDTAB
  0
TABLE
  2
BLOCK_RECORD
  5
1
330
0
100
AcDbSymbolTable
 70
     1
  0
BLOCK_RECORD
  5
1F
330
1
100
AcDbSymbolTableRecord
100
AcDbBlockTableRecord
  2
*Model_Space
340
22
  0
BLOCK_RECORD
  5
1B
330
1
100
AcDbSymbolTableRecord
100
AcDbBlockTableRecord
  2
*Paper_Space
340
1E
  0
BLOCK_RECORD
  5
23
330
1
100
AcDbSymbolTableRecord
100
AcDbBlockTableRecord
  2
*Paper_Space0
340
26
  0
ENDTAB
  0
ENDSEC
  0
SECTION
  2
BLOCKS
  0
BLOCK
  5
20
330
1F
100
AcDbEntity
  8
0
100
AcDbBlockBegin
  2
*Model_Space
 70
     0
 10
0.0
 20
0.0
 30
0.0
  3
*Model_Space
  1

  0
ENDBLK
  5
21
330
1F
100
AcDbEntity
  8
0
100
AcDbBlockEnd
  0
BLOCK
  5
1C
330
1B
100
AcDbEntity
 67
     1
  8
0
100
AcDbBlockBegin
  2
*Paper_Space
 70
     0
 10
0.0
 20
0.0
 30
0.0
  3
*Paper_Space
  1

  0
ENDBLK
  5
1D
330
1B
100
AcDbEntity
 67
     1
  8
0
100
AcDbBlockEnd
  0
BLOCK
  5
24
330
23
100
AcDbEntity
  8
0
100
AcDbBlockBegin
  2
*Paper_Space0
 70
     0
 10
0.0
 20
0.0
 30
0.0
  3
*Paper_Space0
  1

  0
ENDBLK
  5
25
330
23
100
AcDbEntity
  8
0
100
AcDbBlockEnd
  0
ENDSEC
  0
SECTION
  2
ENTITIES
  0
LINE
  5
73
330
1F
100
AcDbEntity
  8
0
  6
Continuous
 62
     7
100
AcDbLine
 10
11.0574486389
 20
1.3263211389
 30
0.0
 11
11.3387813239
 21
1.1475390562
 31
0.0
  0
LINE
  5
74
330
1F
100
AcDbEntity
  8
0
  6
Continuous
 62
     7
100
AcDbLine
 10
11.0574486389
 20
1.3263211389
 30
0.0
 11
10.9274486389
 21
1.1217522688
 31
0.0
  0
LINE
  5
75
330
1F
100
AcDbEntity
  8
0
  6
Continuous
 62
     7
100
AcDbLine
 10
10.9274486389
 20
1.1217522688
 30
0.0
 11
10.6461159578
 21
1.3005343515
 31
0.0
  0
LINE
  5
76
330
1F
100
AcDbEntity
  8
0
  6
Continuous
 62
     7
100
AcDbLine
 10
10.7761159578
 20
1.5051032216
 30
0.0
 11
10.6461159578
 21
1.3005343515
 31
0.0
  0
LINE
  5
77
330
1F
100
AcDbEntity
  8
0
  6
Continuous
 62
     7
100
AcDbLine
 10
10.4947832767
 20
1.6838853043
 30
0.0
 11
10.7761159578
 21
1.5051032216
 31
0.0
  0
LINE
  5
78
330
1F
100
AcDbEntity
  8
0
  6
Continuous
 62
     7
100
AcDbLine
 10
10.4947832767
 20
1.6838853043
 30
0.0
 11
10.3647832767
 21
1.4793164342
 31
0.0
  0
LINE
  5
79
330
1F
100
AcDbEntity
  8
0
  6
Continuous
 62
     7
100
AcDbLine
 10
10.3647832767
 20
1.4793164342
 30
0.0
 11
10.0834505917
 21
1.6580985169
 31
0.0
  0
LINE
  5
7A
330
1F
100
AcDbEntity
  8
0
  6
Continuous
 62
     7
100
AcDbLine
 10
10.2134505917
 20
1.8626673869
 30
0.0
 11
10.0834505917
 21
1.6580985169
 31
0.0
  0
LINE
  5
7B
330
1F
100
AcDbEntity
  8
0
  6
Continuous
 62
     7
100
AcDbLine
 10
9.9321179106
 20
2.0414494696
 30
0.0
 11
10.2134505917
 21
1.8626673869
 31
0.0
  0
LINE
  5
7C
330
1F
100
AcDbEntity
  8
0
  6
Continuous
 62
     7
100
AcDbLine
 10
9.9321179106
 20
2.0414494696
 30
0.0
 11
9.8021179106
 21
1.8368805995
 31
0.0
  0
LINE
  5
7D
330
1F
100
AcDbEntity
  8
0
  6
Continuous
 62
     7
100
AcDbLine
 10
9.8021179106
 20
1.8368805995
 30
0.0
 11
9.5207852295
 21
2.0156626822
 31
0.0
  0
LINE
  5
7E
330
1F
100
AcDbEntity
  8
0
  6
Continuous
 62
     7
100
AcDbLine
 10
9.6507852295
 20
2.2202315523
 30
0.0
 11
9.5207852295
 21
2.0156626822
 31
0.0
  0
LINE
  5
7F
330
1F
100
AcDbEntity
  8
0
  6
Continuous
 62
     7
100
AcDbLine
 10
9.3694525484
 20
2.399013635
 30
0.0
 11
9.6507852295
 21
2.2202315523
 31
0.0
  0
LINE
  5
80
330
1F
100
AcDbEntity
  8
0
  6
Continuous
 62
     7
100
AcDbLine
 10
9.1954523318
 20
2.1252057255
 30
0.0
 11
9.3694525484
 21
2.399013635
 31
0.0
  0
LINE
  5
81
330
1F
100
AcDbEntity
  8
0
  6
Continuous
 62
     7
100
AcDbLine
 10
9.3051720759
 20
2.0554807137
 30
0.0
 11
9.1954523318
 21
2.1252057255
 31
0.0
  0
LINE
  5
82
330
1F
100
AcDbEntity
  8
0
  6
Continuous
 62
     7
100
AcDbLine
 10
9.1556721035
 20
1.8202265562
 30
0.0
 11
9.3051720759
 21
2.0554807137
 31
0.0
  0
LINE
  5
83
330
1F
100
AcDbEntity
  8
0
  6
Continuous
 62
     7
100
AcDbLine
 10
9.1556721035
 20
1.8202265562
 30
0.0
 11
9.0459523554
 21
1.889951568
 31
0.0
  0
LINE
  5
84
330
1F
100
AcDbEntity
  8
0
  6
Continuous
 62
     7
100
AcDbLine
 10
8.896452383
 20
1.6546974106
 30
0.0
 11
9.0459523554
 21
1.889951568
 31
0.0
  0
LINE
  5
85
330
1F
100
AcDbEntity
  8
0
  6
Continuous
 62
     7
100
AcDbLine
 10
9.006172131
 20
1.5849723987
 30
0.0
 11
8.896452383
 21
1.6546974106
 31
0.0
  0
LINE
  5
86
330
1F
100
AcDbEntity
  8
0
  6
Continuous
 62
     7
100
AcDbLine
 10
8.8566721586
 20
1.3497182413
 30
0.0
 11
9.006172131
 21
1.5849723987
 31
0.0
  0
LINE
  5
87
330
1F
100
AcDbEntity
  8
0
  6
Continuous
 62
     7
100
AcDbLine
 10
8.8566721586
 20
1.3497182413
 30
0.0
 11
8.7469524106
 21
1.4194432531
 31
0.0
  0
LINE
  5
88
330
1F
100
AcDbEntity
  8
0
  6
Continuous
 62
     7
100
AcDbLine
 10
8.5974524381
 20
1.1841890956
 30
0.0
 11
8.7469524106
 21
1.4194432531
 31
0.0
  0
LINE
  5
89
330
1F
100
AcDbEntity
  8
0
  6
Continuous
 62
     7
100
AcDbLine
 10
8.7071721862
 20
1.1144640838
 30
0.0
 11
8.5974524381
 21
1.1841890956
 31
0.0
  0
LINE
  5
8A
330
1F
100
AcDbEntity
  8
0
  6
Continuous
 62
     7
100
AcDbLine
 10
8.5576722098
 20
0.8792099224
 30
0.0
 11
8.7071721862
 21
1.1144640838
 31
0.0
  0
LINE
  5
8B
330
1F
100
AcDbEntity
  8
0
  6
Continuous
 62
     7
100
AcDbLine
 10
8.5576722098
 20
0.8792099224
 30
0.0
 11
8.4479524657
 21
0.9489349342
 31
0.0
  0
LINE
  5
8C
330
1F
100
AcDbEntity
  8
0
  6
Continuous
 62
     7
100
AcDbLine
 10
8.2984524932
 20
0.7136807767
 30
0.0
 11
8.4479524657
 21
0.9489349342
 31
0.0
  0
LINE
  5
8D
330
1F
100
AcDbEntity
  8
0
  6
Continuous
 62
     7
100
AcDbLine
 10
8.4081722373
 20
0.6439557649
 30
0.0
 11
8.2984524932
 21
0.7136807767
 31
0.0
  0
LINE
  5
8E
330
1F
100
AcDbEntity
  8
0
  6
Continuous
 62
     7
100
AcDbLine
 10
8.2586722649
 20
0.4087016074
 30
0.0
 11
8.4081722373
 21
0.6439557649
 31
0.0
  0
LINE
  5
8F
330
1F
100
AcDbEntity
  8
0
  6
Continuous
 62
     7
100
AcDbLine
 10
8.2586722649
 20
0.4087016074
 30
0.0
 11
8.1489525208
 21
0.4784266192
 31
0.0
  0
LINE
  5
90
330
1F
100
AcDbEntity
  8
0
  6
Continuous
 62
     7
100
AcDbLine
 10
7.9749523043
 20
0.2046187137
 30
0.0
 11
8.1489525208
 21
0.4784266192
 31
0.0
  0
LINE
  5
91
330
1F
100
AcDbEntity
  8
0
  6
Continuous
 62
     7
100
AcDbLine
 10
10.401446685
 20
-1.3373767486
 30
0.0
 11
7.9749523043
 21
0.2046187137
 31
0.0
  0
LINE
  5
92
330
1F
100
AcDbEntity
  8
0
  6
Continuous
 62
     7
100
AcDbLine
 10
11.9014466862
 20
0.7899748909
 30
0.0
 11
11.7512430976
 21
0.5536135183
 31
0.0
  0
LINE
  5
93
330
1F
100
AcDbEntity
  8
0
  6
Continuous
 62
     7
100
AcDbLine
 10
11.6201140051
 20
0.9687569735
 30
0.0
 11
11.9014466862
 21
0.7899748909
 31
0.0
  0
LINE
  5
94
330
1F
100
AcDbEntity
  8
0
  6
Continuous
 62
     7
100
AcDbLine
 10
11.6201140051
 20
0.9687569735
 30
0.0
 11
11.4901140051
 21
0.7641881035
 31
0.0
  0
LINE
  5
95
330
1F
100
AcDbEntity
  8
0
  6
Continuous
 62
     7
100
AcDbLine
 10
11.4901140051
 20
0.7641881035
 30
0.0
 11
11.2087813239
 21
0.9429701861
 31
0.0
  0
LINE
  5
96
330
1F
100
AcDbEntity
  8
0
  6
Continuous
 62
     7
100
AcDbLine
 10
11.3387813239
 20
1.1475390562
 30
0.0
 11
11.2087813239
 21
0.9429701861
 31
0.0
  0
LINE
  5
97
330
1F
100
AcDbEntity
  8
0
  6
Continuous
 62
     7
100
AcDbLine
 10
10.401446685
 20
-1.3373767486
 30
0.0
 11
11.6457433418
 21
0.6206567992
 31
0.0
  0
LINE
  5
98
330
1F
100
AcDbEntity
  8
0
  6
Continuous
 62
     7
100
AcDbLine
 10
11.6457433418
 20
0.6206567992
 30
0.0
 11
11.7512430976
 21
0.5536135183
 31
0.0
  0
LWPOLYLINE
  5
99
330
1F
100
AcDbEntity
  8
0
  6
Continuous
 62
     7
100
AcDbPolyline
 90
       85
 70
   128
 43
0.0
 10
8.0818172515
 20
-1.4717031174
 10
8.1040823666
 20
-1.5032143026
 10
8.1040823666
 20
-1.5032143026
 10
8.104372458
 20
-1.5043021456
 10
8.1044449809
 20
-1.5055350343
 10
8.1044449809
 20
-1.5055350343
 10
8.104372458
 20
-1.5063690473
 10
8.1040823666
 20
-1.5073118445
 10
8.1040823666
 20
-1.5073118445
 10
8.1036834908
 20
-1.508689779
 10
8.1029945236
 20
-1.5097413605
 10
8.1020154649
 20
-1.5105028506
 10
8.1007825762
 20
-1.5109017264
 10
8.1007825762
 20
-1.5109017264
 10
8.099005766
 20
-1.5101039749
 10
8.0976640929
 20
-1.5087623019
 10
8.0976640929
 20
-1.5087623019
 10
8.0778653506
 20
-1.479463064
 10
8.0778653506
 20
-1.479463064
 10
8.038449173
 20
-1.479463064
 10
8.038449173
 20
-1.479463064
 10
8.0212249923
 20
-1.5041933613
 10
8.0212249923
 20
-1.5041933613
 10
8.1039010594
 20
-1.6224418941
 10
8.1039010594
 20
-1.6224418941
 10
8.1042999352
 20
-1.6234209528
 10
8.1044449809
 20
-1.6247988872
 10
8.1044449809
 20
-1.6247988872
 10
8.1044449809
 20
-1.6253065473
 10
8.1044449809
 20
-1.6258504688
 10
8.1044449809
 20
-1.6258504688
 10
8.1050614253
 20
-1.6262130831
 10
8.1052789938
 20
-1.6264669131
 10
8.1050614253
 20
-1.6267207432
 10
8.1044449809
 20
-1.6268657889
 10
8.1044449809
 20
-1.6268657889
 10
8.1035384451
 20
-1.6284612919
 10
8.1035384451
 20
-1.6284612919
 10
8.0812376638
 20
-1.6602263072
 10
8.0812376638
 20
-1.6602263072
 10
8.0793883307
 20
-1.6604801372
 10
8.0793883307
 20
-1.6604801372
 10
8.0353669512
 20
-1.6604801372
 10
8.0353669512
 20
-1.6604801372
 10
8.0342791082
 20
-1.6595010785
 10
8.0342791082
 20
-1.6595010785
 10
8.0119783269
 20
-1.6295128735
 10
8.0119783269
 20
-1.6295128735
 10
8.0117244969
 20
-1.628134939
 10
8.0116157126
 20
-1.6270470961
 10
8.0116157126
 20
-1.6270470961
 10
8.011651974
 20
-1.6260317759
 10
8.0117970198
 20
-1.6253428087
 10
8.0117970198
 20
-1.6253428087
 10
8.0123772027
 20
-1.6240373971
 10
8.0131749542
 20
-1.623022077
 10
8.0141540129
 20
-1.6223331098
 10
8.0153869016
 20
-1.621934234
 10
8.0153869016
 20
-1.621934234
 10
8.0171274504
 20
-1.6224418941
 10
8.0185779077
 20
-1.6239648743
 10
8.0185779077
 20
-1.6239648743
 10
8.0389205716
 20
-1.6511972104
 10
8.0389205716
 20
-1.6511972104
 10
8.0793883307
 20
-1.6511972104
 10
8.0793883307
 20
-1.6511972104
 10
8.09708391
 20
-1.6264669131
 10
8.09708391
 20
-1.6264669131
 10
8.0119783269
 20
-1.5084722104
 10
8.0119783269
 20
-1.5084722104
 10
8.0117244969
 20
-1.5074206288
 10
8.0116157126
 20
-1.5058613872
 10
8.0116157126
 20
-1.5058613872
 10
8.011651974
 20
-1.5048823285
 10
8.0117970198
 20
-1.5040483156
 10
8.0117970198
 20
-1.5040483156
 10
8.0125222484
 20
-1.5021989825
 10
8.0125222484
 20
-1.5021989825
 10
8.0349680754
 20
-1.4706877973
 10
8.0349680754
 20
-1.4706877973
 10
8.0360559184
 20
-1.4701801372
 10
8.0360559184
 20
-1.4701801372
 10
8.0805486966
 20
-1.4704339672
 10
8.0805486966
 20
-1.4704339672
 10
8.0818178467
 20
-1.4717031174
  0
LWPOLYLINE
  5
9A
330
1F
100
AcDbEntity
  8
0
  6
Continuous
 62
     7
100
AcDbPolyline
 90
       30
 70
   128
 43
0.0
 10
8.2342596505
 20
-1.4704339672
 10
8.2351311852
 20
-1.470832843
 10
8.2358201524
 20
-1.4714492874
 10
8.2363640739
 20
-1.4723920846
 10
8.2367266882
 20
-1.4735524505
 10
8.2367266882
 20
-1.4735524505
 10
8.2367266882
 20
-1.4779400839
 10
8.2367266882
 20
-1.4779400839
 10
8.2367266882
 20
-1.6563463339
 10
8.2367266882
 20
-1.6563463339
 10
8.236037721
 20
-1.6585945427
 10
8.2346597865
 20
-1.6602263072
 10
8.2346597865
 20
-1.6602263072
 10
8.2333181135
 20
-1.6604801372
 10
8.2333181135
 20
-1.6604801372
 10
8.1440424656
 20
-1.6604801372
 10
8.1440424656
 20
-1.6604801372
 10
8.142483224
 20
-1.6591022028
 10
8.1415766882
 20
-1.657107824
 10
8.1415766882
 20
-1.657107824
 10
8.1415766882
 20
-1.6519587005
 10
8.1415766882
 20
-1.6519587005
 10
8.1415766882
 20
-1.4738062805
 10
8.1415766882
 20
-1.4738062805
 10
8.1420118254
 20
-1.4726096532
 10
8.1426645312
 20
-1.4715943331
 10
8.1436073285
 20
-1.4707965816
 10
8.1448039557
 20
-1.4701801372
 10
8.1448039557
 20
-1.4701801372
 10
8.2342609108
 20
-1.4704339672
  0
LWPOLYLINE
  5
9B
330
1F
100
AcDbEntity
  8
0
  6
Continuous
 62
     7
100
AcDbPolyline
 90
        8
 70
   128
 43
0.0
 10
8.2297634891
 20
-1.6511972104
 10
8.2297644931
 20
-1.479463064
 10
8.2297644931
 20
-1.479463064
 10
8.1485388833
 20
-1.479463064
 10
8.1485388833
 20
-1.479463064
 10
8.1485388833
 20
-1.6511972104
 10
8.1485388833
 20
-1.6511972104
 10
8.2297644931
 20
-1.6511972104
  0
LWPOLYLINE
  5
9C
330
1F
100
AcDbEntity
  8
0
  6
Continuous
 62
     7
100
AcDbPolyline
 90
       41
 70
   128
 43
0.0
 10
8.2774096587
 20
-1.4716305945
 10
8.2778834146
 20
-1.4725733918
 10
8.2782460289
 20
-1.4739150648
 10
8.2784273361
 20
-1.4757643979
 10
8.2784998589
 20
-1.4780126067
 10
8.2784998589
 20
-1.4780126067
 10
8.2784998589
 20
-1.6511972104
 10
8.2784998589
 20
-1.6511972104
 10
8.3633878734
 20
-1.6511972104
 10
8.3633878734
 20
-1.6511972104
 10
8.3642581478
 20
-1.651414779
 10
8.3649833765
 20
-1.651922439
 10
8.3655998208
 20
-1.6526476677
 10
8.366034958
 20
-1.6536267264
 10
8.366034958
 20
-1.6536267264
 10
8.3664700952
 20
-1.6547508308
 10
8.366615141
 20
-1.6558386738
 10
8.366615141
 20
-1.6558386738
 10
8.3663975724
 20
-1.6573979154
 10
8.3657448666
 20
-1.658957157
 10
8.3652009451
 20
-1.6596098628
 10
8.3644757164
 20
-1.6600812615
 10
8.3634603963
 20
-1.6603713529
 10
8.362263769
 20
-1.6604801372
 10
8.362263769
 20
-1.6604801372
 10
8.2740034413
 20
-1.6604801372
 10
8.2740034413
 20
-1.6604801372
 10
8.2724441996
 20
-1.6591022028
 10
8.2715376638
 20
-1.657107824
 10
8.2715376638
 20
-1.657107824
 10
8.2715376638
 20
-1.6519587005
 10
8.2715376638
 20
-1.6519587005
 10
8.2715376638
 20
-1.4738062805
 10
8.2715376638
 20
-1.4738062805
 10
8.271972801
 20
-1.4723920846
 10
8.2725892454
 20
-1.4713405031
 10
8.2733869969
 20
-1.470579013
 10
8.2743660556
 20
-1.4701801372
 10
8.2743660556
 20
-1.4701801372
 10
8.2761428658
 20
-1.4705427515
 10
8.277412016
 20
-1.4716305945
  0
LWPOLYLINE
  5
9D
330
1F
100
AcDbEntity
  8
0
  6
Continuous
 62
     7
100
AcDbPolyline
 90
       63
 70
   128
 43
0.0
 10
8.4502302756
 20
-1.4703977058
 10
8.4512493254
 20
-1.4707965816
 10
8.4520470769
 20
-1.4714855488
 10
8.4525909984
 20
-1.4725733918
 10
8.4528810899
 20
-1.4739513262
 10
8.4528810899
 20
-1.4739513262
 10
8.4526635213
 20
-1.4761632737
 10
8.4520470769
 20
-1.4779038224
 10
8.4520470769
 20
-1.4779038224
 10
8.4511768025
 20
-1.4785927897
 10
8.4500164367
 20
-1.4790641883
 10
8.4485297179
 20
-1.4793542797
 10
8.4467529077
 20
-1.479463064
 10
8.4467529077
 20
-1.479463064
 10
8.4293474199
 20
-1.479463064
 10
8.4293474199
 20
-1.479463064
 10
8.4293474199
 20
-1.6511972104
 10
8.4293474199
 20
-1.6511972104
 10
8.4500164367
 20
-1.6511972104
 10
8.4500164367
 20
-1.6511972104
 10
8.4511042797
 20
-1.6517773933
 10
8.4519745541
 20
-1.6526114063
 10
8.452554737
 20
-1.6536992493
 10
8.4528810899
 20
-1.6550409223
 10
8.4528810899
 20
-1.6550409223
 10
8.4526635213
 20
-1.6572891311
 10
8.4520108155
 20
-1.6590296799
 10
8.451466894
 20
-1.6596461243
 10
8.4507416653
 20
-1.6601175229
 10
8.4497626067
 20
-1.6603713529
 10
8.4485659794
 20
-1.6604801372
 10
8.4485659794
 20
-1.6604801372
 10
8.404145724
 20
-1.6604801372
 10
8.404145724
 20
-1.6604801372
 10
8.4031304039
 20
-1.6598999543
 10
8.4023326524
 20
-1.6591022028
 10
8.4017887309
 20
-1.6580143598
 10
8.4014986394
 20
-1.6567089482
 10
8.4014986394
 20
-1.6567089482
 10
8.4017524695
 20
-1.6543519551
 10
8.4024776981
 20
-1.6526476677
 10
8.4031304039
 20
-1.6519949619
 10
8.4041094626
 20
-1.6515598247
 10
8.4053786128
 20
-1.6512697333
 10
8.4069378544
 20
-1.6511972104
 10
8.4069378544
 20
-1.6511972104
 10
8.4223852248
 20
-1.6511972104
 10
8.4223852248
 20
-1.6511972104
 10
8.4223852248
 20
-1.479463064
 10
8.4223852248
 20
-1.479463064
 10
8.4041819855
 20
-1.479463064
 10
8.4041819855
 20
-1.479463064
 10
8.4031304039
 20
-1.478955404
 10
8.4023689138
 20
-1.4781576525
 10
8.4017887309
 20
-1.477033548
 10
8.4014986394
 20
-1.4756193522
 10
8.4014986394
 20
-1.4756193522
 10
8.4017524695
 20
-1.4732986205
 10
8.4024414367
 20
-1.4717756403
 10
8.4034930182
 20
-1.4707965816
 10
8.4046896455
 20
-1.4701801372
 10
8.4046896455
 20
-1.4701801372
 10
8.4502340053
 20
-1.4703977058
  0
LWPOLYLINE
  5
9E
330
1F
100
AcDbEntity
  8
0
  6
Continuous
 62
     7
100
AcDbPolyline
 90
       49
 70
   128
 43
0.0
 10
8.5616628016
 20
-1.4717393788
 10
8.58447383
 20
-1.5032143026
 10
8.58447383
 20
-1.5032143026
 10
8.5848364443
 20
-1.5055712958
 10
8.5848364443
 20
-1.5055712958
 10
8.5840749542
 20
-1.628715122
 10
8.5840749542
 20
-1.628715122
 10
8.5609038986
 20
-1.6602263072
 10
8.5609038986
 20
-1.6602263072
 10
8.5590183041
 20
-1.6604801372
 10
8.5590183041
 20
-1.6604801372
 10
8.4921522217
 20
-1.6604801372
 10
8.4921522217
 20
-1.6604801372
 10
8.4910643788
 20
-1.65979117
 10
8.4903028887
 20
-1.6587758499
 10
8.48983149
 20
-1.6574704383
 10
8.4896864443
 20
-1.6558386738
 10
8.4896864443
 20
-1.6558386738
 10
8.4899765358
 20
-1.6538805564
 10
8.4908468102
 20
-1.6524300991
 10
8.4915720388
 20
-1.6518861776
 10
8.4925148361
 20
-1.6514873019
 10
8.4937114634
 20
-1.6512697333
 10
8.4951256592
 20
-1.6511972104
 10
8.4951256592
 20
-1.6511972104
 10
8.5105730297
 20
-1.6511972104
 10
8.5105730297
 20
-1.6511972104
 10
8.5105730297
 20
-1.479463064
 10
8.5105730297
 20
-1.479463064
 10
8.4923697903
 20
-1.479463064
 10
8.4923697903
 20
-1.479463064
 10
8.4913182088
 20
-1.478955404
 10
8.4905567187
 20
-1.4781576525
 10
8.4899765358
 20
-1.477033548
 10
8.4896864443
 20
-1.4756193522
 10
8.4896864443
 20
-1.4756193522
 10
8.4899040129
 20
-1.4733711433
 10
8.4905204573
 20
-1.471666856
 10
8.4910643788
 20
-1.4710141502
 10
8.4918258688
 20
-1.4705427515
 10
8.492841189
 20
-1.4702889215
 10
8.4940378163
 20
-1.4701801372
 10
8.4940378163
 20
-1.4701801372
 10
8.4961047179
 20
-1.4701801372
 10
8.4961047179
 20
-1.4701801372
 10
8.5586556897
 20
-1.4701801372
 10
8.5586556897
 20
-1.4701801372
 10
8.5604324999
 20
-1.470579013
 10
8.5616653887
 20
-1.4717393788
  0
LWPOLYLINE
  5
9F
330
1F
100
AcDbEntity
  8
0
  6
Continuous
 62
     7
100
AcDbPolyline
 90
       12
 70
   128
 43
0.0
 10
8.5778733877
 20
-1.5065866159
 10
8.5574953239
 20
-1.479463064
 10
8.5574953239
 20
-1.479463064
 10
8.5175352248
 20
-1.479463064
 10
8.5175352248
 20
-1.479463064
 10
8.5175352248
 20
-1.6511972104
 10
8.5175352248
 20
-1.6511972104
 10
8.5574953239
 20
-1.6511972104
 10
8.5574953239
 20
-1.6511972104
 10
8.5778742492
 20
-1.6238198285
 10
8.5778742492
 20
-1.6238198285
 10
8.5778742492
 20
-1.5065866159
  0
LWPOLYLINE
  5
A0
330
1F
100
AcDbEntity
  8
0
  6
Continuous
 62
     7
100
AcDbPolyline
 90
       69
 70
   128
 43
0.0
 10
8.6270073267
 20
-1.4725371304
 10
8.6672586813
 20
-1.6404275648
 10
8.6672586813
 20
-1.6404275648
 10
8.6857882736
 20
-1.5635170656
 10
8.6857882736
 20
-1.5635170656
 10
8.6864047179
 20
-1.5623566997
 10
8.6872024695
 20
-1.5615226868
 10
8.6881090053
 20
-1.5610512881
 10
8.6891605868
 20
-1.560869981
 10
8.6891605868
 20
-1.560869981
 10
8.6903209527
 20
-1.5610512881
 10
8.6913000114
 20
-1.5615952096
 10
8.6920977629
 20
-1.5625017455
 10
8.6927504687
 20
-1.5637708956
 10
8.6927504687
 20
-1.5637708956
 10
8.7110987538
 20
-1.6404275648
 10
8.7110987538
 20
-1.6404275648
 10
8.7207442949
 20
-1.6007575572
 10
8.7207442949
 20
-1.6007575572
 10
8.7515302515
 20
-1.4722833003
 10
8.7515302515
 20
-1.4722833003
 10
8.7526180945
 20
-1.4709416273
 10
8.7539960289
 20
-1.4701801372
 10
8.7539960289
 20
-1.4701801372
 10
8.7559178849
 20
-1.4704702287
 10
8.7573683422
 20
-1.4714130259
 10
8.7583836623
 20
-1.4729360061
 10
8.7588913224
 20
-1.4750754307
 10
8.7588913224
 20
-1.4750754307
 10
8.7581298323
 20
-1.4784477439
 10
8.7581298323
 20
-1.4784477439
 10
8.7146886356
 20
-1.6576517455
 10
8.7146886356
 20
-1.6576517455
 10
8.7135282698
 20
-1.6595010785
 10
8.7118602438
 20
-1.6604801372
 10
8.7118602438
 20
-1.6604801372
 10
8.7101559565
 20
-1.6602988301
 10
8.7088142835
 20
-1.6597186471
 10
8.7088142835
 20
-1.6597186471
 10
8.7073275647
 20
-1.6574341769
 10
8.7073275647
 20
-1.6574341769
 10
8.6893781554
 20
-1.5841135595
 10
8.6893781554
 20
-1.5841135595
 10
8.6889792797
 20
-1.5846212195
 10
8.6889792797
 20
-1.5846212195
 10
8.6708485632
 20
-1.6576880069
 10
8.6708485632
 20
-1.6576880069
 10
8.6697244588
 20
-1.65953734
 10
8.6682014786
 20
-1.6604801372
 10
8.6682014786
 20
-1.6604801372
 10
8.6663521455
 20
-1.6602988301
 10
8.6649742111
 20
-1.6597186471
 10
8.6649742111
 20
-1.6597186471
 10
8.6636687995
 20
-1.657361654
 10
8.6636687995
 20
-1.657361654
 10
8.6196474199
 20
-1.4756193522
 10
8.6196474199
 20
-1.4756193522
 10
8.6197562042
 20
-1.4740601105
 10
8.6201188185
 20
-1.472754699
 10
8.6206990015
 20
-1.4717393788
 10
8.6215330144
 20
-1.4709416273
 10
8.6215330144
 20
-1.4709416273
 10
8.6226208574
 20
-1.4703614444
 10
8.6235999161
 20
-1.4701801372
 10
8.6235999161
 20
-1.4701801372
 10
8.6246877591
 20
-1.470325183
 10
8.6255942949
 20
-1.4707603201
 10
8.6263920464
 20
-1.4715218102
 10
8.6270084908
 20
-1.4725371304
  0
LWPOLYLINE
  5
A1
330
1F
100
AcDbEntity
  8
0
  6
Continuous
 62
     7
100
AcDbPolyline
 90
       30
 70
   128
 43
0.0
 10
8.8863860904
 20
-1.4704339672
 10
8.8872567949
 20
-1.470832843
 10
8.8879457621
 20
-1.4714492874
 10
8.8884896836
 20
-1.4723920846
 10
8.888852298
 20
-1.4735524505
 10
8.888852298
 20
-1.4735524505
 10
8.888852298
 20
-1.4779400839
 10
8.888852298
 20
-1.4779400839
 10
8.888852298
 20
-1.6563463339
 10
8.888852298
 20
-1.6563463339
 10
8.8881633307
 20
-1.6585945427
 10
8.8867853963
 20
-1.6602263072
 10
8.8867853963
 20
-1.6602263072
 10
8.8854437233
 20
-1.6604801372
 10
8.8854437233
 20
-1.6604801372
 10
8.7961680754
 20
-1.6604801372
 10
8.7961680754
 20
-1.6604801372
 10
8.7946088338
 20
-1.6591022028
 10
8.793702298
 20
-1.657107824
 10
8.793702298
 20
-1.657107824
 10
8.793702298
 20
-1.6519587005
 10
8.793702298
 20
-1.6519587005
 10
8.793702298
 20
-1.4738062805
 10
8.793702298
 20
-1.4738062805
 10
8.7941374352
 20
-1.4726096532
 10
8.794790141
 20
-1.4715943331
 10
8.7957329382
 20
-1.4707965816
 10
8.7969295655
 20
-1.4701801372
 10
8.7969295655
 20
-1.4701801372
 10
8.8863865205
 20
-1.4704339672
  0
LWPOLYLINE
  5
A2
330
1F
100
AcDbEntity
  8
0
  6
Continuous
 62
     7
100
AcDbPolyline
 90
        8
 70
   128
 43
0.0
 10
8.881889929
 20
-1.6511972104
 10
8.8818901028
 20
-1.479463064
 10
8.8818901028
 20
-1.479463064
 10
8.8006644931
 20
-1.479463064
 10
8.8006644931
 20
-1.479463064
 10
8.8006644931
 20
-1.6511972104
 10
8.8006644931
 20
-1.6511972104
 10
8.8818901028
 20
-1.6511972104
  0
LWPOLYLINE
  5
A3
330
1F
100
AcDbEntity
  8
0
  6
Continuous
 62
     7
100
AcDbPolyline
 90
       70
 70
   128
 43
0.0
 10
8.9956409349
 20
-1.4717393788
 10
9.0184506592
 20
-1.5036857012
 10
9.0184506592
 20
-1.5036857012
 10
9.0188132736
 20
-1.5060426944
 10
9.0188132736
 20
-1.5060426944
 10
9.0188132736
 20
-1.5377351868
 10
9.0188132736
 20
-1.5377351868
 10
9.0184506592
 20
-1.5395482584
 10
9.0184506592
 20
-1.5395482584
 10
8.9949895121
 20
-1.5714945808
 10
8.9949895121
 20
-1.5714945808
 10
8.9932852248
 20
-1.5722923323
 10
8.9932852248
 20
-1.5722923323
 10
8.9590544321
 20
-1.5722923323
 10
8.9590544321
 20
-1.5722923323
 10
9.0182330906
 20
-1.653010282
 10
9.0182330906
 20
-1.653010282
 10
9.0186682278
 20
-1.6548596151
 10
9.0188132736
 20
-1.6558386738
 10
9.0188132736
 20
-1.6558386738
 10
9.0188132736
 20
-1.6561287653
 10
9.0188132736
 20
-1.656527641
 10
9.0188132736
 20
-1.656527641
 10
9.0194297179
 20
-1.6567452096
 10
9.0196472865
 20
-1.6569265168
 10
9.0194297179
 20
-1.657107824
 10
9.0188132736
 20
-1.6572166083
 10
9.0188132736
 20
-1.6572166083
 10
9.0183781364
 20
-1.6583769741
 10
9.0178342149
 20
-1.6593197714
 10
9.0171452477
 20
-1.6600087386
 10
9.0163474961
 20
-1.6604801372
 10
9.0163474961
 20
-1.6604801372
 10
9.0150420845
 20
-1.6604438758
 10
9.0140267644
 20
-1.6602988301
 10
9.0132290129
 20
-1.660045
 10
9.0127213528
 20
-1.6597186471
 10
9.0127213528
 20
-1.6597186471
 10
8.9470518978
 20
-1.5722923323
 10
8.9470518978
 20
-1.5722923323
 10
8.9306254687
 20
-1.5722923323
 10
8.9306254687
 20
-1.5722923323
 10
8.9306254687
 20
-1.6564188567
 10
8.9306254687
 20
-1.6564188567
 10
8.9300815472
 20
-1.6583044512
 10
8.928812397
 20
-1.6599724772
 10
8.928812397
 20
-1.6599724772
 10
8.9281596913
 20
-1.6603350915
 10
8.9271443711
 20
-1.6604801372
 10
8.9271443711
 20
-1.6604801372
 10
8.9256576524
 20
-1.6601900458
 10
8.9245698094
 20
-1.6593197714
 10
8.9241709336
 20
-1.6585945427
 10
8.9238808422
 20
-1.657615484
 10
8.9237357964
 20
-1.6563463339
 10
8.9236632736
 20
-1.6547870922
 10
8.9236632736
 20
-1.6547870922
 10
8.9236632736
 20
-1.4740601105
 10
8.9236632736
 20
-1.4740601105
 10
8.9240258879
 20
-1.4728997447
 10
8.9245698094
 20
-1.471920686
 10
8.9252587766
 20
-1.4711954573
 10
8.926129051
 20
-1.4706877973
 10
8.926129051
 20
-1.4706877973
 10
8.9300815472
 20
-1.4704339672
 10
8.9300815472
 20
-1.4704339672
 10
8.992632519
 20
-1.4701801372
 10
8.992632519
 20
-1.4701801372
 10
8.9944093292
 20
-1.470579013
 10
8.9956422179
 20
-1.4717393788
  0
LWPOLYLINE
  5
A4
330
1F
100
AcDbEntity
  8
0
  6
Continuous
 62
     7
100
AcDbPolyline
 90
       12
 70
   128
 43
0.0
 10
9.0118468277
 20
-1.5076744589
 10
8.9919798132
 20
-1.479463064
 10
8.9919798132
 20
-1.479463064
 10
8.9306254687
 20
-1.479463064
 10
8.9306254687
 20
-1.479463064
 10
8.9306254687
 20
-1.5630094055
 10
8.9306254687
 20
-1.5630094055
 10
8.991798506
 20
-1.5630094055
 10
8.991798506
 20
-1.5630094055
 10
9.0118510785
 20
-1.5345079192
 10
9.0118510785
 20
-1.5345079192
 10
9.0118510785
 20
-1.5076744589
  0
LWPOLYLINE
  5
A5
330
1F
100
AcDbEntity
  8
0
  6
Continuous
 62
     7
100
AcDbPolyline
 90
       72
 70
   128
 43
0.0
 10
9.1473558756
 20
-1.4717393788
 10
9.1479402362
 20
-1.4726459147
 10
9.1483753734
 20
-1.4737337576
 10
9.1486292035
 20
-1.4751116921
 10
9.1487017263
 20
-1.4766709337
 10
9.1487017263
 20
-1.4766709337
 10
9.1481215434
 20
-1.4787378354
 10
9.1481215434
 20
-1.4787378354
 10
9.0850629115
 20
-1.565729013
 10
9.0850629115
 20
-1.565729013
 10
9.1481215434
 20
-1.6529740206
 10
9.1481215434
 20
-1.6529740206
 10
9.1485566806
 20
-1.6548596151
 10
9.1487017263
 20
-1.6558386738
 10
9.1487017263
 20
-1.6558386738
 10
9.1486654649
 20
-1.6566364253
 10
9.1485204192
 20
-1.6572166083
 10
9.1485204192
 20
-1.6572166083
 10
9.148085282
 20
-1.6583769741
 10
9.1475413605
 20
-1.6593197714
 10
9.1468523932
 20
-1.6600087386
 10
9.1460546417
 20
-1.6604801372
 10
9.1460546417
 20
-1.6604801372
 10
9.1447492301
 20
-1.6604438758
 10
9.14373391
 20
-1.6602988301
 10
9.1429361585
 20
-1.660045
 10
9.1424284984
 20
-1.6597186471
 10
9.1424284984
 20
-1.6597186471
 10
9.0769403506
 20
-1.5722923323
 10
9.0769403506
 20
-1.5722923323
 10
9.0605864443
 20
-1.5722923323
 10
9.0605864443
 20
-1.5722923323
 10
9.0605864443
 20
-1.6564188567
 10
9.0605864443
 20
-1.6564188567
 10
9.0600425228
 20
-1.6583044512
 10
9.0587733727
 20
-1.6599724772
 10
9.0587733727
 20
-1.6599724772
 10
9.0581206669
 20
-1.6603350915
 10
9.0571053467
 20
-1.6604801372
 10
9.0571053467
 20
-1.6604801372
 10
9.055618628
 20
-1.6601900458
 10
9.054530785
 20
-1.6593197714
 10
9.0541319092
 20
-1.6585945427
 10
9.0538418178
 20
-1.657615484
 10
9.053696772
 20
-1.6563463339
 10
9.0536242492
 20
-1.6547870922
 10
9.0536242492
 20
-1.6547870922
 10
9.0536242492
 20
-1.4738062805
 10
9.0536242492
 20
-1.4738062805
 10
9.0539868635
 20
-1.4723920846
 10
9.0546395693
 20
-1.4713405031
 10
9.0554735823
 20
-1.470579013
 10
9.0565976867
 20
-1.4701801372
 10
9.0565976867
 20
-1.4701801372
 10
9.0582657126
 20
-1.4705427515
 10
9.0594986013
 20
-1.471666856
 10
9.0599699999
 20
-1.4726096532
 10
9.0603326143
 20
-1.4740238491
 10
9.0605139214
 20
-1.4758731822
 10
9.0605864443
 20
-1.4781939139
 10
9.0605864443
 20
-1.4781939139
 10
9.0605864443
 20
-1.5630094055
 10
9.0605864443
 20
-1.5630094055
 10
9.0769403506
 20
-1.5630094055
 10
9.0769403506
 20
-1.5630094055
 10
9.1427911128
 20
-1.4709778887
 10
9.1427911128
 20
-1.4709778887
 10
9.1436251257
 20
-1.4703614444
 10
9.1445316615
 20
-1.4701801372
 10
9.1445316615
 20
-1.4701801372
 10
9.1460183803
 20
-1.470579013
 10
9.1473600533
 20
-1.4717393788
  0
LWPOLYLINE
  5
A6
330
1F
100
AcDbEntity
  8
0
  6
Continuous
 62
     7
100
AcDbPolyline
 90
       85
 70
   128
 43
0.0
 10
9.2537853661
 20
-1.4717031174
 10
9.2760518788
 20
-1.5032143026
 10
9.2760518788
 20
-1.5032143026
 10
9.2763419702
 20
-1.5043021456
 10
9.2764144931
 20
-1.5055350343
 10
9.2764144931
 20
-1.5055350343
 10
9.2763419702
 20
-1.5063690473
 10
9.2760518788
 20
-1.5073118445
 10
9.2760518788
 20
-1.5073118445
 10
9.275653003
 20
-1.508689779
 10
9.2749640358
 20
-1.5097413605
 10
9.2739849771
 20
-1.5105028506
 10
9.2727520884
 20
-1.5109017264
 10
9.2727520884
 20
-1.5109017264
 10
9.2709752781
 20
-1.5101039749
 10
9.2696336051
 20
-1.5087623019
 10
9.2696336051
 20
-1.5087623019
 10
9.2498348628
 20
-1.479463064
 10
9.2498348628
 20
-1.479463064
 10
9.2104186852
 20
-1.479463064
 10
9.2104186852
 20
-1.479463064
 10
9.1931945045
 20
-1.5041933613
 10
9.1931945045
 20
-1.5041933613
 10
9.2758705716
 20
-1.6224418941
 10
9.2758705716
 20
-1.6224418941
 10
9.2762694474
 20
-1.6234209528
 10
9.2764144931
 20
-1.6247988872
 10
9.2764144931
 20
-1.6247988872
 10
9.2764144931
 20
-1.6253065473
 10
9.2764144931
 20
-1.6258504688
 10
9.2764144931
 20
-1.6258504688
 10
9.2770309374
 20
-1.6262130831
 10
9.277248506
 20
-1.6264669131
 10
9.2770309374
 20
-1.6267207432
 10
9.2764144931
 20
-1.6268657889
 10
9.2764144931
 20
-1.6268657889
 10
9.2755079573
 20
-1.6284612919
 10
9.2755079573
 20
-1.6284612919
 10
9.253207176
 20
-1.6602263072
 10
9.253207176
 20
-1.6602263072
 10
9.2513578429
 20
-1.6604801372
 10
9.2513578429
 20
-1.6604801372
 10
9.2073364634
 20
-1.6604801372
 10
9.2073364634
 20
-1.6604801372
 10
9.2062486204
 20
-1.6595010785
 10
9.2062486204
 20
-1.6595010785
 10
9.1839478391
 20
-1.6295128735
 10
9.1839478391
 20
-1.6295128735
 10
9.1836940091
 20
-1.628134939
 10
9.1835852248
 20
-1.6270470961
 10
9.1835852248
 20
-1.6270470961
 10
9.1836214862
 20
-1.6260317759
 10
9.183766532
 20
-1.6253428087
 10
9.183766532
 20
-1.6253428087
 10
9.1843467149
 20
-1.6240373971
 10
9.1851444664
 20
-1.623022077
 10
9.1861235251
 20
-1.6223331098
 10
9.1873564138
 20
-1.621934234
 10
9.1873564138
 20
-1.621934234
 10
9.1890969626
 20
-1.6224418941
 10
9.1905474199
 20
-1.6239648743
 10
9.1905474199
 20
-1.6239648743
 10
9.2108900838
 20
-1.6511972104
 10
9.2108900838
 20
-1.6511972104
 10
9.2513578429
 20
-1.6511972104
 10
9.2513578429
 20
-1.6511972104
 10
9.2690534222
 20
-1.6264669131
 10
9.2690534222
 20
-1.6264669131
 10
9.1839478391
 20
-1.5084722104
 10
9.1839478391
 20
-1.5084722104
 10
9.1836940091
 20
-1.5074206288
 10
9.1835852248
 20
-1.5058613872
 10
9.1835852248
 20
-1.5058613872
 10
9.1836214862
 20
-1.5048823285
 10
9.183766532
 20
-1.5040483156
 10
9.183766532
 20
-1.5040483156
 10
9.1844917606
 20
-1.5021989825
 10
9.1844917606
 20
-1.5021989825
 10
9.2069375876
 20
-1.4706877973
 10
9.2069375876
 20
-1.4706877973
 10
9.2080254306
 20
-1.4701801372
 10
9.2080254306
 20
-1.4701801372
 10
9.2525182088
 20
-1.4704339672
 10
9.2525182088
 20
-1.4704339672
 10
9.2537873589
 20
-1.4717031174
  0
LWPOLYLINE
  5
A7
330
1F
100
AcDbEntity
  8
0
  6
Continuous
 62
     7
100
AcDbPolyline
 90
       64
 70
   128
 43
0.0
 10
9.5359359201
 20
-1.4703977058
 10
9.5369528887
 20
-1.4707965816
 10
9.5377506402
 20
-1.4714855488
 10
9.5382945617
 20
-1.4725733918
 10
9.5385846531
 20
-1.4739513262
 10
9.5385846531
 20
-1.4739513262
 10
9.5383308231
 20
-1.4763083194
 10
9.5375330716
 20
-1.4780488682
 10
9.5368441044
 20
-1.4786653125
 10
9.5358650457
 20
-1.4791004497
 10
9.5345233727
 20
-1.4793905412
 10
9.5328916082
 20
-1.479463064
 10
9.5328916082
 20
-1.479463064
 10
9.4504693711
 20
-1.479463064
 10
9.4504693711
 20
-1.479463064
 10
9.4504693711
 20
-1.5630094055
 10
9.4504693711
 20
-1.5630094055
 10
9.4918074047
 20
-1.5630094055
 10
9.4918074047
 20
-1.5630094055
 10
9.4931490777
 20
-1.5636983727
 10
9.4941281364
 20
-1.56464117
 10
9.4947083193
 20
-1.5659103201
 10
9.4948896265
 20
-1.5674333003
 10
9.4948896265
 20
-1.5674333003
 10
9.4947083193
 20
-1.5691013262
 10
9.4942006592
 20
-1.5705517836
 10
9.4937292606
 20
-1.5711319665
 10
9.493004032
 20
-1.5716396265
 10
9.4919524504
 20
-1.5720022409
 10
9.4906470388
 20
-1.5722923323
 10
9.4906470388
 20
-1.5722923323
 10
9.4504693711
 20
-1.5722923323
 10
9.4504693711
 20
-1.5722923323
 10
9.4504693711
 20
-1.6511972104
 10
9.4504693711
 20
-1.6511972104
 10
9.5353573856
 20
-1.6511972104
 10
9.5353573856
 20
-1.6511972104
 10
9.5367715815
 20
-1.6517411319
 10
9.5377869016
 20
-1.6526839291
 10
9.5383670845
 20
-1.6540618636
 10
9.5385846531
 20
-1.6558386738
 10
9.5385846531
 20
-1.6558386738
 10
9.5383670845
 20
-1.6573979154
 10
9.5377143788
 20
-1.658957157
 10
9.5371704573
 20
-1.6596098628
 10
9.5364452286
 20
-1.6600812615
 10
9.5354299085
 20
-1.6603713529
 10
9.5342332812
 20
-1.6604801372
 10
9.5342332812
 20
-1.6604801372
 10
9.4459729535
 20
-1.6604801372
 10
9.4459729535
 20
-1.6604801372
 10
9.4444137118
 20
-1.6591022028
 10
9.443507176
 20
-1.657107824
 10
9.443507176
 20
-1.657107824
 10
9.443507176
 20
-1.6519587005
 10
9.443507176
 20
-1.6519587005
 10
9.443507176
 20
-1.4738062805
 10
9.443507176
 20
-1.4738062805
 10
9.4439423132
 20
-1.4726096532
 10
9.444595019
 20
-1.4715943331
 10
9.4455378163
 20
-1.4707965816
 10
9.4466981821
 20
-1.4701801372
 10
9.4466981821
 20
-1.4701801372
 10
9.5359375685
 20
-1.4703977058
  0
LWPOLYLINE
  5
A8
330
1F
100
AcDbEntity
  8
0
  6
Continuous
 62
     7
100
AcDbPolyline
 90
       55
 70
   128
 43
0.0
 10
9.6676011724
 20
-1.4715943331
 10
9.6680379687
 20
-1.4725371304
 10
9.6683643216
 20
-1.4738788034
 10
9.6685456288
 20
-1.475691875
 10
9.6686181516
 20
-1.4779400839
 10
9.6686181516
 20
-1.4779400839
 10
9.6686181516
 20
-1.6563463339
 10
9.6686181516
 20
-1.6563463339
 10
9.6682192759
 20
-1.6581594055
 10
9.6674940472
 20
-1.6594285557
 10
9.6664787271
 20
-1.6602263072
 10
9.6651370541
 20
-1.6604801372
 10
9.6651370541
 20
-1.6604801372
 10
9.6637591196
 20
-1.6601537843
 10
9.6626350152
 20
-1.6592472485
 10
9.6619097865
 20
-1.6575792226
 10
9.6616559565
 20
-1.6550046608
 10
9.6616559565
 20
-1.6550046608
 10
9.6616559565
 20
-1.6105844055
 10
9.6616559565
 20
-1.6105844055
 10
9.6233638833
 20
-1.6602263072
 10
9.6233638833
 20
-1.6602263072
 10
9.6220222103
 20
-1.6604801372
 10
9.6220222103
 20
-1.6604801372
 10
9.5980534031
 20
-1.6604801372
 10
9.5980534031
 20
-1.6604801372
 10
9.5968930373
 20
-1.6594648171
 10
9.5968930373
 20
-1.6594648171
 10
9.5736494588
 20
-1.6278085862
 10
9.5736494588
 20
-1.6278085862
 10
9.5734681516
 20
-1.6252340244
 10
9.5734681516
 20
-1.6252340244
 10
9.5734681516
 20
-1.5639884642
 10
9.5734681516
 20
-1.5639884642
 10
9.5742296417
 20
-1.5621753926
 10
9.5742296417
 20
-1.5621753926
 10
9.5976545274
 20
-1.5310268217
 10
9.5976545274
 20
-1.5310268217
 10
9.5995763833
 20
-1.5305191616
 10
9.5995763833
 20
-1.5305191616
 10
9.6224210861
 20
-1.5307729916
 10
9.6224210861
 20
-1.5307729916
 10
9.6239440663
 20
-1.5315707432
 10
9.6239440663
 20
-1.5315707432
 10
9.6616559565
 20
-1.5833520694
 10
9.6616559565
 20
-1.5833520694
 10
9.6616559565
 20
-1.4735887119
 10
9.6616559565
 20
-1.4735887119
 10
9.6621273551
 20
-1.4722833003
 10
9.6627075381
 20
-1.4712679802
 10
9.6633965053
 20
-1.470579013
 10
9.6641942568
 20
-1.4701801372
 10
9.6641942568
 20
-1.4701801372
 10
9.6662611585
 20
-1.4705427515
 10
9.6676028315
 20
-1.4715943331
  0
LWPOLYLINE
  5
A9
330
1F
100
AcDbEntity
  8
0
  6
Continuous
 62
     7
100
AcDbPolyline
 90
       14
 70
   128
 43
0.0
 10
9.6587543412
 20
-1.5954996494
 10
9.6189399885
 20
-1.5398020884
 10
9.6189399885
 20
-1.5398020884
 10
9.600047782
 20
-1.5398020884
 10
9.600047782
 20
-1.5398020884
 10
9.5804303467
 20
-1.5668531174
 10
9.5804303467
 20
-1.5668531174
 10
9.5804303467
 20
-1.6238923514
 10
9.5804303467
 20
-1.6238923514
 10
9.600047782
 20
-1.6511972104
 10
9.600047782
 20
-1.6511972104
 10
9.6187224199
 20
-1.6511972104
 10
9.6187224199
 20
-1.6511972104
 10
9.6587550419
 20
-1.5954996494
  0
LWPOLYLINE
  5
AA
330
1F
100
AcDbEntity
  8
0
  6
Continuous
 62
     7
100
AcDbPolyline
 90
       64
 70
   128
 43
0.0
 10
9.7092634111
 20
-1.5319696189
 10
9.709774878
 20
-1.5329124162
 10
9.7101012309
 20
-1.5342540892
 10
9.7103187995
 20
-1.5361034223
 10
9.7103913224
 20
-1.5383516311
 10
9.7103913224
 20
-1.5383516311
 10
9.7103913224
 20
-1.62436375
 10
9.7103913224
 20
-1.62436375
 10
9.7302625876
 20
-1.6511972104
 10
9.7302625876
 20
-1.6511972104
 10
9.7493723628
 20
-1.6511972104
 10
9.7493723628
 20
-1.6511972104
 10
9.7916169321
 20
-1.5938678849
 10
9.7916169321
 20
-1.5938678849
 10
9.7916169321
 20
-1.5344353964
 10
9.7916169321
 20
-1.5344353964
 10
9.7919795464
 20
-1.5331299848
 10
9.7925959908
 20
-1.5320058804
 10
9.7933937423
 20
-1.5311718674
 10
9.7944453239
 20
-1.5305191616
 10
9.7944453239
 20
-1.5305191616
 10
9.7959683041
 20
-1.5308455145
 10
9.7976000685
 20
-1.5317883118
 10
9.7976000685
 20
-1.5317883118
 10
9.7980352057
 20
-1.5327673705
 10
9.7983252972
 20
-1.5341815663
 10
9.7985066044
 20
-1.535994638
 10
9.7985791272
 20
-1.5382428468
 10
9.7985791272
 20
-1.5382428468
 10
9.7985791272
 20
-1.6563463339
 10
9.7985791272
 20
-1.6563463339
 10
9.7981802515
 20
-1.6581594055
 10
9.7974550228
 20
-1.6594285557
 10
9.7964397027
 20
-1.6602263072
 10
9.7950980297
 20
-1.6604801372
 10
9.7950980297
 20
-1.6604801372
 10
9.7937200952
 20
-1.6601537843
 10
9.7925959908
 20
-1.6592472485
 10
9.7918707621
 20
-1.6575792226
 10
9.7916169321
 20
-1.6550046608
 10
9.7916169321
 20
-1.6550046608
 10
9.7916169321
 20
-1.6105844055
 10
9.7916169321
 20
-1.6105844055
 10
9.7533248589
 20
-1.6602263072
 10
9.7533248589
 20
-1.6602263072
 10
9.7519831859
 20
-1.6604801372
 10
9.7519831859
 20
-1.6604801372
 10
9.7280143788
 20
-1.6604801372
 10
9.7280143788
 20
-1.6604801372
 10
9.7268540129
 20
-1.6594648171
 10
9.7268540129
 20
-1.6594648171
 10
9.703828003
 20
-1.6278085862
 10
9.703828003
 20
-1.6278085862
 10
9.7034291272
 20
-1.6252340244
 10
9.7034291272
 20
-1.6252340244
 10
9.7034291272
 20
-1.5338552134
 10
9.7034291272
 20
-1.5338552134
 10
9.7037917416
 20
-1.5327673705
 10
9.7043719245
 20
-1.5318608346
 10
9.7051334146
 20
-1.5310993445
 10
9.7061487347
 20
-1.5305191616
 10
9.7061487347
 20
-1.5305191616
 10
9.7079618063
 20
-1.5308817759
 10
9.7092672179
 20
-1.5319696189
  0
LWPOLYLINE
  5
AB
330
1F
100
AcDbEntity
  8
0
  6
Continuous
 62
     7
100
AcDbPolyline
 90
       54
 70
   128
 43
0.0
 10
9.9259943474
 20
-1.5307367302
 10
9.9274159984
 20
-1.5317157889
 10
9.9282500114
 20
-1.5333838148
 10
9.9282500114
 20
-1.5333838148
 10
9.9281049656
 20
-1.5361034223
 10
9.9276698285
 20
-1.5380252782
 10
9.9276698285
 20
-1.5380252782
 10
9.9269445998
 20
-1.5387867683
 10
9.926038064
 20
-1.5393669512
 10
9.924950221
 20
-1.5396933041
 10
9.9236810708
 20
-1.5398020884
 10
9.9236810708
 20
-1.5398020884
 10
9.8599334717
 20
-1.5398020884
 10
9.8599334717
 20
-1.5398020884
 10
9.840352298
 20
-1.567070686
 10
9.840352298
 20
-1.567070686
 10
9.840352298
 20
-1.6239286128
 10
9.840352298
 20
-1.6239286128
 10
9.8599697332
 20
-1.6511972104
 10
9.8599697332
 20
-1.6511972104
 10
9.9252403124
 20
-1.6511972104
 10
9.9252403124
 20
-1.6511972104
 10
9.9261105868
 20
-1.651414779
 10
9.9268358155
 20
-1.651922439
 10
9.9274522599
 20
-1.6526476677
 10
9.927887397
 20
-1.6536267264
 10
9.927887397
 20
-1.6536267264
 10
9.9283225342
 20
-1.6547508308
 10
9.92846758
 20
-1.6558386738
 10
9.92846758
 20
-1.6558386738
 10
9.9282500114
 20
-1.6573979154
 10
9.9275973056
 20
-1.658957157
 10
9.9270533841
 20
-1.6596098628
 10
9.9263281554
 20
-1.6600812615
 10
9.9253128353
 20
-1.6603713529
 10
9.924116208
 20
-1.6604801372
 10
9.924116208
 20
-1.6604801372
 10
9.8575402172
 20
-1.6604801372
 10
9.8575402172
 20
-1.6604801372
 10
9.8564161128
 20
-1.6594648171
 10
9.8564161128
 20
-1.6594648171
 10
9.8333901028
 20
-1.6278085862
 10
9.8333901028
 20
-1.6278085862
 10
9.8333901028
 20
-1.6252340244
 10
9.8333901028
 20
-1.6252340244
 10
9.83357141
 20
-1.5639884642
 10
9.83357141
 20
-1.5639884642
 10
9.8343329001
 20
-1.5621753926
 10
9.8343329001
 20
-1.5621753926
 10
9.8572863871
 20
-1.5310268217
 10
9.8572863871
 20
-1.5310268217
 10
9.8584104916
 20
-1.5305191616
 10
9.8584104916
 20
-1.5305191616
 10
9.9260018025
 20
-1.5307367302
  0
LWPOLYLINE
  5
AC
330
1F
100
AcDbEntity
  8
0
  6
Continuous
 62
     7
100
AcDbPolyline
 90
       50
 70
   128
 43
0.0
 10
10.0123694563
 20
-1.5315344817
 10
10.034931147
 20
-1.5631907127
 10
10.034931147
 20
-1.5631907127
 10
10.0352937614
 20
-1.5647499543
 10
10.0352937614
 20
-1.5647499543
 10
10.0352937614
 20
-1.6229132927
 10
10.0352937614
 20
-1.6229132927
 10
10.0578483727
 20
-1.652502622
 10
10.0578483727
 20
-1.652502622
 10
10.0582835099
 20
-1.6543519551
 10
10.0584285556
 20
-1.6553310137
 10
10.0584285556
 20
-1.6553310137
 10
10.0583922942
 20
-1.6562375496
 10
10.0582472484
 20
-1.6568902554
 10
10.0582472484
 20
-1.6568902554
 10
10.0578121112
 20
-1.6581594055
 10
10.0572681897
 20
-1.6592109871
 10
10.0565792225
 20
-1.6599724772
 10
10.055781471
 20
-1.6604801372
 10
10.055781471
 20
-1.6604801372
 10
10.0545123208
 20
-1.6604438758
 10
10.0534970007
 20
-1.6603713529
 10
10.0527355106
 20
-1.6602263072
 10
10.0522278506
 20
-1.6600087386
 10
10.0522278506
 20
-1.6600087386
 10
10.0326466768
 20
-1.6356773171
 10
10.0326466768
 20
-1.6356773171
 10
10.0126666272
 20
-1.6602625686
 10
10.0126666272
 20
-1.6602625686
 10
10.0113612156
 20
-1.6604801372
 10
10.0113612156
 20
-1.6604801372
 10
9.9876462385
 20
-1.6604801372
 10
9.9876462385
 20
-1.6604801372
 10
9.9865221341
 20
-1.6594648171
 10
9.9865221341
 20
-1.6594648171
 10
9.9635323856
 20
-1.6278085862
 10
9.9635323856
 20
-1.6278085862
 10
9.9633510785
 20
-1.6252340244
 10
9.9633510785
 20
-1.6252340244
 10
9.9633510785
 20
-1.5639884642
 10
9.9633510785
 20
-1.5639884642
 10
9.9640763071
 20
-1.5621753926
 10
9.9640763071
 20
-1.5621753926
 10
9.986848487
 20
-1.5310268217
 10
9.986848487
 20
-1.5310268217
 10
9.98793633
 20
-1.5305191616
 10
9.98793633
 20
-1.5305191616
 10
10.010889817
 20
-1.5307729916
 10
10.010889817
 20
-1.5307729916
 10
10.0123765358
 20
-1.5315344817
  0
LWPOLYLINE
  5
AD
330
1F
100
AcDbEntity
  8
0
  6
Continuous
 62
     7
100
AcDbPolyline
 90
       16
 70
   128
 43
0.0
 10
10.0283266052
 20
-1.5671069474
 10
10.0087503925
 20
-1.5398020884
 10
10.0087503925
 20
-1.5398020884
 10
9.9898944474
 20
-1.5398020884
 10
9.9898944474
 20
-1.5398020884
 10
9.9703132736
 20
-1.5668531174
 10
9.9703132736
 20
-1.5668531174
 10
9.9703132736
 20
-1.6238923514
 10
9.9703132736
 20
-1.6238923514
 10
9.9898944474
 20
-1.6511972104
 10
9.9898944474
 20
-1.6511972104
 10
10.0087503925
 20
-1.6511972104
 10
10.0087503925
 20
-1.6511972104
 10
10.0283315663
 20
-1.6236022599
 10
10.0283315663
 20
-1.6236022599
 10
10.0283315663
 20
-1.5671069474
  0
LWPOLYLINE
  5
AE
330
1F
100
AcDbEntity
  8
0
  6
Continuous
 62
     7
100
AcDbPolyline
 90
       83
 70
   128
 43
0.0
 10
10.1433494898
 20
-1.471666856
 10
10.1437879687
 20
-1.4726459147
 10
10.1441143216
 20
-1.4740601105
 10
10.1442956288
 20
-1.4759457051
 10
10.1443681516
 20
-1.4783026982
 10
10.1443681516
 20
-1.4783026982
 10
10.1443681516
 20
-1.5328398933
 10
10.1443681516
 20
-1.5328398933
 10
10.1857424466
 20
-1.5328398933
 10
10.1857424466
 20
-1.5328398933
 10
10.1867577667
 20
-1.5334200762
 10
10.1875555182
 20
-1.5342540892
 10
10.1880994397
 20
-1.5353419322
 10
10.1883895312
 20
-1.5366836052
 10
10.1883895312
 20
-1.5366836052
 10
10.1880994397
 20
-1.5386417226
 10
10.1872291653
 20
-1.5404185328
 10
10.1865039367
 20
-1.5411800229
 10
10.1854886166
 20
-1.541687683
 10
10.1841469435
 20
-1.5420140358
 10
10.1824789176
 20
-1.5421228201
 10
10.1824789176
 20
-1.5421228201
 10
10.1443681516
 20
-1.5421228201
 10
10.1443681516
 20
-1.5421228201
 10
10.1443681516
 20
-1.6255603773
 10
10.1443681516
 20
-1.6255603773
 10
10.1623900838
 20
-1.6505082432
 10
10.1623900838
 20
-1.6505082432
 10
10.1825151791
 20
-1.6227319855
 10
10.1825151791
 20
-1.6227319855
 10
10.1833854535
 20
-1.6221155412
 10
10.1844007736
 20
-1.621934234
 10
10.1844007736
 20
-1.621934234
 10
10.1857424466
 20
-1.6222968483
 10
10.1870478582
 20
-1.6234209528
 10
10.1880631783
 20
-1.6251252401
 10
10.1883895312
 20
-1.6273009261
 10
10.1883895312
 20
-1.6273009261
 10
10.1880269169
 20
-1.6297304421
 10
10.1880269169
 20
-1.6297304421
 10
10.1648558612
 20
-1.6600087386
 10
10.1648558612
 20
-1.6600087386
 10
10.1640581097
 20
-1.6603713529
 10
10.1627889595
 20
-1.6604801372
 10
10.1627889595
 20
-1.6604801372
 10
10.1613022408
 20
-1.6604801372
 10
10.1613022408
 20
-1.6604801372
 10
10.1599968292
 20
-1.658957157
 10
10.1599968292
 20
-1.658957157
 10
10.1375872637
 20
-1.6280261547
 10
10.1375872637
 20
-1.6280261547
 10
10.1374059565
 20
-1.625451593
 10
10.1374059565
 20
-1.625451593
 10
10.1374059565
 20
-1.5421228201
 10
10.1374059565
 20
-1.5421228201
 10
10.0965393216
 20
-1.5421228201
 10
10.0965393216
 20
-1.5421228201
 10
10.0957415701
 20
-1.541941513
 10
10.0950163414
 20
-1.5414338529
 10
10.094399897
 20
-1.5405635785
 10
10.093892237
 20
-1.5393669512
 10
10.093892237
 20
-1.5393669512
 10
10.0934570998
 20
-1.5377714482
 10
10.0933120541
 20
-1.5363209909
 10
10.0933120541
 20
-1.5363209909
 10
10.0935658841
 20
-1.5342178278
 10
10.0943636356
 20
-1.5323322333
 10
10.0950888643
 20
-1.5315344817
 10
10.0962492301
 20
-1.5309542988
 10
10.0978084717
 20
-1.5306279459
 10
10.0997665891
 20
-1.5305191616
 10
10.0997665891
 20
-1.5305191616
 10
10.1374059565
 20
-1.5305191616
 10
10.1374059565
 20
-1.5305191616
 10
10.1374059565
 20
-1.4738425419
 10
10.1374059565
 20
-1.4738425419
 10
10.1377685708
 20
-1.4724283461
 10
10.1383487538
 20
-1.4713405031
 10
10.1391102438
 20
-1.4706152744
 10
10.140125564
 20
-1.4701801372
 10
10.140125564
 20
-1.4701801372
 10
10.1420474199
 20
-1.4705427515
 10
10.1433528315
 20
-1.471666856
  0
LWPOLYLINE
  5
AF
330
1F
100
AcDbEntity
  8
0
  6
Continuous
 62
     7
100
AcDbPolyline
 90
       27
 70
   128
 43
0.0
 10
10.2292177245
 20
-1.4715943331
 10
10.2296550419
 20
-1.4725008689
 10
10.2299813948
 20
-1.4738788034
 10
10.2301627019
 20
-1.4756556136
 10
10.2302352248
 20
-1.4779038224
 10
10.2302352248
 20
-1.4779038224
 10
10.2302352248
 20
-1.506514093
 10
10.2302352248
 20
-1.506514093
 10
10.229582519
 20
-1.5086535176
 10
10.2285671989
 20
-1.5098864063
 10
10.2275518788
 20
-1.5104665892
 10
10.2267541272
 20
-1.5106478964
 10
10.2267541272
 20
-1.5106478964
 10
10.225231147
 20
-1.5103578049
 10
10.2241433041
 20
-1.5095600534
 10
10.2234905983
 20
-1.5081821189
 10
10.2232730297
 20
-1.506260263
 10
10.2232730297
 20
-1.506260263
 10
10.2232730297
 20
-1.4738062805
 10
10.2232730297
 20
-1.4738062805
 10
10.2237081669
 20
-1.4723920846
 10
10.2243246112
 20
-1.4713405031
 10
10.2251223628
 20
-1.470579013
 10
10.2261014214
 20
-1.4701801372
 10
10.2261014214
 20
-1.4701801372
 10
10.2279507545
 20
-1.4705427515
 10
10.2292199047
 20
-1.4715943331
  0
LWPOLYLINE
  5
B0
330
1F
100
AcDbEntity
  8
0
  6
Continuous
 62
     7
100
AcDbPolyline
 90
       30
 70
   128
 43
0.0
 10
10.2291426321
 20
-1.5319333575
 10
10.2296187804
 20
-1.5328398933
 10
10.2299813948
 20
-1.5342178278
 10
10.2301627019
 20
-1.535994638
 10
10.2302352248
 20
-1.5382428468
 10
10.2302352248
 20
-1.5382428468
 10
10.2302352248
 20
-1.6563463339
 10
10.2302352248
 20
-1.6563463339
 10
10.2296913033
 20
-1.6582681898
 10
10.2284221531
 20
-1.6599724772
 10
10.2284221531
 20
-1.6599724772
 10
10.2277694474
 20
-1.6603350915
 10
10.2267541272
 20
-1.6604801372
 10
10.2267541272
 20
-1.6604801372
 10
10.2252674085
 20
-1.6601900458
 10
10.2241795655
 20
-1.6593197714
 10
10.2237806897
 20
-1.6585945427
 10
10.2234905983
 20
-1.657615484
 10
10.2233455525
 20
-1.6563463339
 10
10.2232730297
 20
-1.6548233537
 10
10.2232730297
 20
-1.6548233537
 10
10.2232730297
 20
-1.5343628735
 10
10.2232730297
 20
-1.5343628735
 10
10.223635644
 20
-1.5330574619
 10
10.2242520884
 20
-1.5319696189
 10
10.2250498399
 20
-1.531135606
 10
10.2261014214
 20
-1.5305191616
 10
10.2261014214
 20
-1.5305191616
 10
10.2278782317
 20
-1.5308817759
 10
10.2291473818
 20
-1.5319333575
  0
LWPOLYLINE
  5
B1
330
1F
100
AcDbEntity
  8
0
  6
Continuous
 62
     7
100
AcDbPolyline
 90
       32
 70
   128
 43
0.0
 10
10.3393408257
 20
-1.5317883118
 10
10.3621543178
 20
-1.5634445427
 10
10.3621543178
 20
-1.5634445427
 10
10.3625169321
 20
-1.5657652744
 10
10.3625169321
 20
-1.5657652744
 10
10.3625169321
 20
-1.6267570046
 10
10.3625169321
 20
-1.6267570046
 10
10.361755442
 20
-1.6288239063
 10
10.361755442
 20
-1.6288239063
 10
10.3385843864
 20
-1.6602263072
 10
10.3385843864
 20
-1.6602263072
 10
10.3366987919
 20
-1.6604801372
 10
10.3366987919
 20
-1.6604801372
 10
10.2916620922
 20
-1.6604801372
 10
10.2916620922
 20
-1.6604801372
 10
10.2905379878
 20
-1.6594648171
 10
10.2905379878
 20
-1.6594648171
 10
10.2675482393
 20
-1.6278085862
 10
10.2675482393
 20
-1.6278085862
 10
10.2673669321
 20
-1.6252340244
 10
10.2673669321
 20
-1.6252340244
 10
10.2673669321
 20
-1.5639884642
 10
10.2673669321
 20
-1.5639884642
 10
10.2681284222
 20
-1.5621753926
 10
10.2681284222
 20
-1.5621753926
 10
10.2912994778
 20
-1.5310268217
 10
10.2912994778
 20
-1.5310268217
 10
10.2924235823
 20
-1.5305191616
 10
10.2924235823
 20
-1.5305191616
 10
10.3380404649
 20
-1.5307729916
 10
10.3380404649
 20
-1.5307729916
 10
10.3393458765
 20
-1.5317883118
  0
LWPOLYLINE
  5
B2
330
1F
100
AcDbEntity
  8
0
  6
Continuous
 62
     7
100
AcDbPolyline
 90
       16
 70
   128
 43
0.0
 10
10.3555514118
 20
-1.5671069474
 10
10.3356834717
 20
-1.5398020884
 10
10.3356834717
 20
-1.5398020884
 10
10.2942003925
 20
-1.5398020884
 10
10.2942003925
 20
-1.5398020884
 10
10.2743291272
 20
-1.5668531174
 10
10.2743291272
 20
-1.5668531174
 10
10.2743291272
 20
-1.6238923514
 10
10.2743291272
 20
-1.6238923514
 10
10.2942003925
 20
-1.6511972104
 10
10.2942003925
 20
-1.6511972104
 10
10.3356834717
 20
-1.6511972104
 10
10.3356834717
 20
-1.6511972104
 10
10.355554737
 20
-1.6236022599
 10
10.355554737
 20
-1.6236022599
 10
10.355554737
 20
-1.5671069474
  0
LWPOLYLINE
  5
B3
330
1F
100
AcDbEntity
  8
0
  6
Continuous
 62
     7
100
AcDbPolyline
 90
       61
 70
   128
 43
0.0
 10
10.4690442874
 20
-1.5317883118
 10
10.492079032
 20
-1.5634445427
 10
10.492079032
 20
-1.5634445427
 10
10.4924779077
 20
-1.5657652744
 10
10.4924779077
 20
-1.5657652744
 10
10.4924779077
 20
-1.6563463339
 10
10.4924779077
 20
-1.6563463339
 10
10.492079032
 20
-1.6581594055
 10
10.4913538033
 20
-1.6594285557
 10
10.4903384832
 20
-1.6602263072
 10
10.4889968102
 20
-1.6604801372
 10
10.4889968102
 20
-1.6604801372
 10
10.4876188757
 20
-1.6601537843
 10
10.4864947713
 20
-1.6591747256
 10
10.4857695426
 20
-1.6573979154
 10
10.4855157126
 20
-1.6547508308
 10
10.4855157126
 20
-1.6547508308
 10
10.4855157126
 20
-1.5669256403
 10
10.4855157126
 20
-1.5669256403
 10
10.4656444474
 20
-1.5398020884
 10
10.4656444474
 20
-1.5398020884
 10
10.4465346722
 20
-1.5398020884
 10
10.4465346722
 20
-1.5398020884
 10
10.4042901028
 20
-1.5968775839
 10
10.4042901028
 20
-1.5968775839
 10
10.4042901028
 20
-1.6563100724
 10
10.4042901028
 20
-1.6563100724
 10
10.4037461813
 20
-1.6582681898
 10
10.4024770312
 20
-1.6599724772
 10
10.4024770312
 20
-1.6599724772
 10
10.4018243254
 20
-1.6603350915
 10
10.4008090053
 20
-1.6604801372
 10
10.4008090053
 20
-1.6604801372
 10
10.3993222865
 20
-1.6601900458
 10
10.3982344435
 20
-1.6593197714
 10
10.3978355678
 20
-1.6585945427
 10
10.3975454763
 20
-1.657615484
 10
10.3974004306
 20
-1.6563463339
 10
10.3973279077
 20
-1.6548233537
 10
10.3973279077
 20
-1.6548233537
 10
10.3973279077
 20
-1.5341453049
 10
10.3973279077
 20
-1.5341453049
 10
10.397690522
 20
-1.532731109
 10
10.3983432278
 20
-1.5316795275
 10
10.3991772408
 20
-1.5309180374
 10
10.4003013452
 20
-1.5305191616
 10
10.4003013452
 20
-1.5305191616
 10
10.4018605868
 20
-1.5308455145
 10
10.403129737
 20
-1.5318608346
 10
10.403637397
 20
-1.532731109
 10
10.4040000114
 20
-1.534072782
 10
10.40421758
 20
-1.5358858537
 10
10.4042901028
 20
-1.538170324
 10
10.4042901028
 20
-1.538170324
 10
10.4042901028
 20
-1.5830619779
 10
10.4042901028
 20
-1.5830619779
 10
10.4437062804
 20
-1.5305191616
 10
10.4437062804
 20
-1.5305191616
 10
10.467711349
 20
-1.5307729916
 10
10.467711349
 20
-1.5307729916
 10
10.469053022
 20
-1.5317883118
  0
LWPOLYLINE
  5
B4
330
1F
100
AcDbEntity
  8
0
  6
Continuous
 62
     7
100
AcDbPolyline
 90
       50
 70
   128
 43
0.0
 10
10.5763138749
 20
-1.5315344817
 10
10.5988689519
 20
-1.5631907127
 10
10.5988689519
 20
-1.5631907127
 10
10.5992315663
 20
-1.5647499543
 10
10.5992315663
 20
-1.5647499543
 10
10.5992315663
 20
-1.6229132927
 10
10.5992315663
 20
-1.6229132927
 10
10.6217861775
 20
-1.652502622
 10
10.6217861775
 20
-1.652502622
 10
10.6222213147
 20
-1.6543519551
 10
10.6223663605
 20
-1.6553310137
 10
10.6223663605
 20
-1.6553310137
 10
10.622330099
 20
-1.6562375496
 10
10.6221850533
 20
-1.6568902554
 10
10.6221850533
 20
-1.6568902554
 10
10.6217499161
 20
-1.6581594055
 10
10.6212059946
 20
-1.6592109871
 10
10.6205170274
 20
-1.6599724772
 10
10.6197192759
 20
-1.6604801372
 10
10.6197192759
 20
-1.6604801372
 10
10.6184501257
 20
-1.6604438758
 10
10.6174348056
 20
-1.6603713529
 10
10.6166733155
 20
-1.6602263072
 10
10.6161656554
 20
-1.6600087386
 10
10.6161656554
 20
-1.6600087386
 10
10.5965844817
 20
-1.6356773171
 10
10.5965844817
 20
-1.6356773171
 10
10.5766044321
 20
-1.6602625686
 10
10.5766044321
 20
-1.6602625686
 10
10.5752990205
 20
-1.6604801372
 10
10.5752990205
 20
-1.6604801372
 10
10.5515840434
 20
-1.6604801372
 10
10.5515840434
 20
-1.6604801372
 10
10.550459939
 20
-1.6594648171
 10
10.550459939
 20
-1.6594648171
 10
10.5274701905
 20
-1.6278085862
 10
10.5274701905
 20
-1.6278085862
 10
10.5272888833
 20
-1.6252340244
 10
10.5272888833
 20
-1.6252340244
 10
10.5272888833
 20
-1.5639884642
 10
10.5272888833
 20
-1.5639884642
 10
10.528014112
 20
-1.5621753926
 10
10.528014112
 20
-1.5621753926
 10
10.5507862919
 20
-1.5310268217
 10
10.5507862919
 20
-1.5310268217
 10
10.5518741349
 20
-1.5305191616
 10
10.5518741349
 20
-1.5305191616
 10
10.5748276219
 20
-1.5307729916
 10
10.5748276219
 20
-1.5307729916
 10
10.5763143406
 20
-1.5315344817
  0
LWPOLYLINE
  5
B5
330
1F
100
AcDbEntity
  8
0
  6
Continuous
 62
     7
100
AcDbPolyline
 90
       16
 70
   128
 43
0.0
 10
10.5922616373
 20
-1.5671069474
 10
10.5726881974
 20
-1.5398020884
 10
10.5726881974
 20
-1.5398020884
 10
10.5538322522
 20
-1.5398020884
 10
10.5538322522
 20
-1.5398020884
 10
10.5342510785
 20
-1.5668531174
 10
10.5342510785
 20
-1.5668531174
 10
10.5342510785
 20
-1.6238923514
 10
10.5342510785
 20
-1.6238923514
 10
10.5538322522
 20
-1.6511972104
 10
10.5538322522
 20
-1.6511972104
 10
10.5726881974
 20
-1.6511972104
 10
10.5726881974
 20
-1.6511972104
 10
10.5922693711
 20
-1.6236022599
 10
10.5922693711
 20
-1.6236022599
 10
10.5922693711
 20
-1.5671069474
  0
LWPOLYLINE
  5
B6
330
1F
100
AcDbEntity
  8
0
  6
Continuous
 62
     7
100
AcDbPolyline
 90
       33
 70
   128
 43
0.0
 10
10.6631958579
 20
-1.4715943331
 10
10.6636318711
 20
-1.4725371304
 10
10.663958224
 20
-1.4738788034
 10
10.6641395312
 20
-1.475691875
 10
10.6642120541
 20
-1.4779400839
 10
10.6642120541
 20
-1.4779400839
 10
10.6642120541
 20
-1.6229858156
 10
10.6642120541
 20
-1.6229858156
 10
10.686404051
 20
-1.6524663605
 10
10.686404051
 20
-1.6524663605
 10
10.6868391882
 20
-1.6537717721
 10
10.6869842339
 20
-1.6550409223
 10
10.6869842339
 20
-1.6550409223
 10
10.6867304039
 20
-1.6569990397
 10
10.6859326524
 20
-1.6588121113
 10
10.6846635022
 20
-1.660045
 10
10.6828504306
 20
-1.6604801372
 10
10.6828504306
 20
-1.6604801372
 10
10.6811461432
 20
-1.6602263072
 10
10.6811461432
 20
-1.6602263072
 10
10.6578300419
 20
-1.6281712005
 10
10.6578300419
 20
-1.6281712005
 10
10.6572498589
 20
-1.6261042988
 10
10.6572498589
 20
-1.6261042988
 10
10.6572498589
 20
-1.4738062805
 10
10.6572498589
 20
-1.4738062805
 10
10.6576849961
 20
-1.4723920846
 10
10.6583014405
 20
-1.4713405031
 10
10.659099192
 20
-1.470579013
 10
10.6600782507
 20
-1.4701801372
 10
10.6600782507
 20
-1.4701801372
 10
10.6619275838
 20
-1.4705427515
 10
10.6631967339
 20
-1.4715943331
  0
LWPOLYLINE
  5
B7
330
1F
100
AcDbEntity
  8
0
  6
Continuous
 62
     7
100
AcDbPolyline
 90
       43
 70
   128
 43
0.0
 10
10.9241609498
 20
-1.4717393788
 10
10.946978708
 20
-1.5036857012
 10
10.946978708
 20
-1.5036857012
 10
10.9473413224
 20
-1.5060426944
 10
10.9473413224
 20
-1.5060426944
 10
10.9473413224
 20
-1.5377351868
 10
10.9473413224
 20
-1.5377351868
 10
10.9469424466
 20
-1.5395482584
 10
10.9469424466
 20
-1.5395482584
 10
10.9232999923
 20
-1.5714945808
 10
10.9232999923
 20
-1.5714945808
 10
10.9215594435
 20
-1.5722923323
 10
10.9215594435
 20
-1.5722923323
 10
10.8591535175
 20
-1.5722923323
 10
10.8591535175
 20
-1.5722923323
 10
10.8591535175
 20
-1.6561650267
 10
10.8591535175
 20
-1.6561650267
 10
10.8585370731
 20
-1.6582681898
 10
10.8573404458
 20
-1.6599724772
 10
10.8573404458
 20
-1.6599724772
 10
10.85668774
 20
-1.6603350915
 10
10.8556724199
 20
-1.6604801372
 10
10.8556724199
 20
-1.6604801372
 10
10.8541857012
 20
-1.6601900458
 10
10.8530978582
 20
-1.6593197714
 10
10.8526989824
 20
-1.6585945427
 10
10.852408891
 20
-1.657615484
 10
10.8522638452
 20
-1.6563463339
 10
10.8521913224
 20
-1.6547870922
 10
10.8521913224
 20
-1.6547870922
 10
10.8521913224
 20
-1.4740601105
 10
10.8521913224
 20
-1.4740601105
 10
10.8525539367
 20
-1.4728997447
 10
10.8530978582
 20
-1.471920686
 10
10.8537868254
 20
-1.4711954573
 10
10.8546570998
 20
-1.4706877973
 10
10.8546570998
 20
-1.4706877973
 10
10.858609596
 20
-1.4704339672
 10
10.858609596
 20
-1.4704339672
 10
10.9211605678
 20
-1.4701801372
 10
10.9211605678
 20
-1.4701801372
 10
10.922937378
 20
-1.470579013
 10
10.9241702667
 20
-1.4717393788
  0
LWPOLYLINE
  5
B8
330
1F
100
AcDbEntity
  8
0
  6
Continuous
 62
     7
100
AcDbPolyline
 90
       12
 70
   128
 43
0.0
 10
10.9403715359
 20
-1.5077832432
 10
10.920507862
 20
-1.479463064
 10
10.920507862
 20
-1.479463064
 10
10.8591535175
 20
-1.479463064
 10
10.8591535175
 20
-1.479463064
 10
10.8591535175
 20
-1.5630094055
 10
10.8591535175
 20
-1.5630094055
 10
10.9203265548
 20
-1.5630094055
 10
10.9203265548
 20
-1.5630094055
 10
10.9403791272
 20
-1.5346892264
 10
10.9403791272
 20
-1.5346892264
 10
10.9403791272
 20
-1.5077832432
  0
LWPOLYLINE
  5
B9
330
1F
100
AcDbEntity
  8
0
  6
Continuous
 62
     7
100
AcDbPolyline
 90
       59
 70
   128
 43
0.0
 10
11.0537987056
 20
-1.5318245732
 10
11.0768671608
 20
-1.5640972485
 10
11.0768671608
 20
-1.5640972485
 10
11.0771572522
 20
-1.565475183
 10
11.0772297751
 20
-1.5664542416
 10
11.0772297751
 20
-1.5664542416
 10
11.0771935137
 20
-1.5675783461
 10
11.0770484679
 20
-1.5683035747
 10
11.0770484679
 20
-1.5683035747
 10
11.076468285
 20
-1.5697177706
 10
11.0756705335
 20
-1.5708056136
 10
11.0746552134
 20
-1.5715308422
 10
11.0734223246
 20
-1.5719659794
 10
11.0734223246
 20
-1.5719659794
 10
11.0716817759
 20
-1.5714583194
 10
11.0701950571
 20
-1.5700078621
 10
11.0701950571
 20
-1.5700078621
 10
11.0496348246
 20
-1.5398020884
 10
11.0496348246
 20
-1.5398020884
 10
11.0307788795
 20
-1.5398020884
 10
11.0307788795
 20
-1.5398020884
 10
10.9891144931
 20
-1.5968775839
 10
10.9891144931
 20
-1.5968775839
 10
10.9891144931
 20
-1.6563100724
 10
10.9891144931
 20
-1.6563100724
 10
10.9885705716
 20
-1.6582681898
 10
10.9873014214
 20
-1.6599724772
 10
10.9873014214
 20
-1.6599724772
 10
10.9866487156
 20
-1.6603350915
 10
10.9856333955
 20
-1.6604801372
 10
10.9856333955
 20
-1.6604801372
 10
10.9841466768
 20
-1.6601900458
 10
10.9830588338
 20
-1.6593197714
 10
10.982659958
 20
-1.6585945427
 10
10.9823698666
 20
-1.657615484
 10
10.9822248208
 20
-1.6563463339
 10
10.982152298
 20
-1.6548233537
 10
10.982152298
 20
-1.6548233537
 10
10.982152298
 20
-1.5341453049
 10
10.982152298
 20
-1.5341453049
 10
10.9825149123
 20
-1.532731109
 10
10.9831676181
 20
-1.5316795275
 10
10.984001631
 20
-1.5309180374
 10
10.9851257355
 20
-1.5305191616
 10
10.9851257355
 20
-1.5305191616
 10
10.9866849771
 20
-1.5308455145
 10
10.9879541272
 20
-1.5318608346
 10
10.9884617873
 20
-1.532731109
 10
10.9888244016
 20
-1.534072782
 10
10.9890419702
 20
-1.5358858537
 10
10.9891144931
 20
-1.538170324
 10
10.9891144931
 20
-1.538170324
 10
10.9891144931
 20
-1.5830619779
 10
10.9891144931
 20
-1.5830619779
 10
11.0284944092
 20
-1.5305191616
 10
11.0284944092
 20
-1.5305191616
 10
11.0524994778
 20
-1.5307729916
 10
11.0524994778
 20
-1.5307729916
 10
11.0538048894
 20
-1.5318245732
  0
LWPOLYLINE
  5
BA
330
1F
100
AcDbEntity
  8
0
  6
Continuous
 62
     7
100
AcDbPolyline
 90
       32
 70
   128
 43
0.0
 10
11.1840841338
 20
-1.5317883118
 10
11.2069006592
 20
-1.5634445427
 10
11.2069006592
 20
-1.5634445427
 10
11.2072632736
 20
-1.5657652744
 10
11.2072632736
 20
-1.5657652744
 10
11.2072632736
 20
-1.6267570046
 10
11.2072632736
 20
-1.6267570046
 10
11.2065017835
 20
-1.6288239063
 10
11.2065017835
 20
-1.6288239063
 10
11.1833307278
 20
-1.6602263072
 10
11.1833307278
 20
-1.6602263072
 10
11.1814451333
 20
-1.6604801372
 10
11.1814451333
 20
-1.6604801372
 10
11.1364084336
 20
-1.6604801372
 10
11.1364084336
 20
-1.6604801372
 10
11.1352843292
 20
-1.6594648171
 10
11.1352843292
 20
-1.6594648171
 10
11.1122945807
 20
-1.6278085862
 10
11.1122945807
 20
-1.6278085862
 10
11.1121132736
 20
-1.6252340244
 10
11.1121132736
 20
-1.6252340244
 10
11.1121132736
 20
-1.5639884642
 10
11.1121132736
 20
-1.5639884642
 10
11.1128747637
 20
-1.5621753926
 10
11.1128747637
 20
-1.5621753926
 10
11.1360458193
 20
-1.5310268217
 10
11.1360458193
 20
-1.5310268217
 10
11.1371699237
 20
-1.5305191616
 10
11.1371699237
 20
-1.5305191616
 10
11.1827868063
 20
-1.5307729916
 10
11.1827868063
 20
-1.5307729916
 10
11.1840922179
 20
-1.5317883118
  0
LWPOLYLINE
  5
BB
330
1F
100
AcDbEntity
  8
0
  6
Continuous
 62
     7
100
AcDbPolyline
 90
       16
 70
   128
 43
0.0
 10
11.2002947199
 20
-1.5671069474
 10
11.1804298132
 20
-1.5398020884
 10
11.1804298132
 20
-1.5398020884
 10
11.1389467339
 20
-1.5398020884
 10
11.1389467339
 20
-1.5398020884
 10
11.1190754687
 20
-1.5668531174
 10
11.1190754687
 20
-1.5668531174
 10
11.1190754687
 20
-1.6238923514
 10
11.1190754687
 20
-1.6238923514
 10
11.1389467339
 20
-1.6511972104
 10
11.1389467339
 20
-1.6511972104
 10
11.1804298132
 20
-1.6511972104
 10
11.1804298132
 20
-1.6511972104
 10
11.2003010785
 20
-1.6236022599
 10
11.2003010785
 20
-1.6236022599
 10
11.2003010785
 20
-1.5671069474
  0
LWPOLYLINE
  5
BC
330
1F
100
AcDbEntity
  8
0
  6
Continuous
 62
     7
100
AcDbPolyline
 90
       55
 70
   128
 43
0.0
 10
11.3362026966
 20
-1.4715943331
 10
11.3366440663
 20
-1.4725371304
 10
11.3369704192
 20
-1.4738788034
 10
11.3371517263
 20
-1.475691875
 10
11.3372242492
 20
-1.4779400839
 10
11.3372242492
 20
-1.4779400839
 10
11.3372242492
 20
-1.6563463339
 10
11.3372242492
 20
-1.6563463339
 10
11.3368253734
 20
-1.6581594055
 10
11.3361001448
 20
-1.6594285557
 10
11.3350848246
 20
-1.6602263072
 10
11.3337431516
 20
-1.6604801372
 10
11.3337431516
 20
-1.6604801372
 10
11.3323652172
 20
-1.6601537843
 10
11.3312411128
 20
-1.6592472485
 10
11.3305158841
 20
-1.6575792226
 10
11.3302620541
 20
-1.6550046608
 10
11.3302620541
 20
-1.6550046608
 10
11.3302620541
 20
-1.6105844055
 10
11.3302620541
 20
-1.6105844055
 10
11.2919699809
 20
-1.6602263072
 10
11.2919699809
 20
-1.6602263072
 10
11.2906283079
 20
-1.6604801372
 10
11.2906283079
 20
-1.6604801372
 10
11.2666595007
 20
-1.6604801372
 10
11.2666595007
 20
-1.6604801372
 10
11.2654991349
 20
-1.6594648171
 10
11.2654991349
 20
-1.6594648171
 10
11.2422555563
 20
-1.6278085862
 10
11.2422555563
 20
-1.6278085862
 10
11.2420742492
 20
-1.6252340244
 10
11.2420742492
 20
-1.6252340244
 10
11.2420742492
 20
-1.5639884642
 10
11.2420742492
 20
-1.5639884642
 10
11.2428357393
 20
-1.5621753926
 10
11.2428357393
 20
-1.5621753926
 10
11.2662606249
 20
-1.5310268217
 10
11.2662606249
 20
-1.5310268217
 10
11.2681824809
 20
-1.5305191616
 10
11.2681824809
 20
-1.5305191616
 10
11.2910271836
 20
-1.5307729916
 10
11.2910271836
 20
-1.5307729916
 10
11.2925501638
 20
-1.5315707432
 10
11.2925501638
 20
-1.5315707432
 10
11.3302620541
 20
-1.5833520694
 10
11.3302620541
 20
-1.5833520694
 10
11.3302620541
 20
-1.4735887119
 10
11.3302620541
 20
-1.4735887119
 10
11.3307334527
 20
-1.4722833003
 10
11.3313136356
 20
-1.4712679802
 10
11.3320026028
 20
-1.470579013
 10
11.3328003544
 20
-1.4701801372
 10
11.3328003544
 20
-1.4701801372
 10
11.334867256
 20
-1.4705427515
 10
11.3362089291
 20
-1.4715943331
  0
LWPOLYLINE
  5
BD
330
1F
100
AcDbEntity
  8
0
  6
Continuous
 62
     7
100
AcDbPolyline
 90
       14
 70
   128
 43
0.0
 10
11.3273605587
 20
-1.5954996494
 10
11.2875460861
 20
-1.5398020884
 10
11.2875460861
 20
-1.5398020884
 10
11.2686538795
 20
-1.5398020884
 10
11.2686538795
 20
-1.5398020884
 10
11.2490364443
 20
-1.5668531174
 10
11.2490364443
 20
-1.5668531174
 10
11.2490364443
 20
-1.6238923514
 10
11.2490364443
 20
-1.6238923514
 10
11.2686538795
 20
-1.6511972104
 10
11.2686538795
 20
-1.6511972104
 10
11.2873285175
 20
-1.6511972104
 10
11.2873285175
 20
-1.6511972104
 10
11.3273611394
 20
-1.5954996494
  0
LWPOLYLINE
  5
BE
330
1F
100
AcDbEntity
  8
0
  6
Continuous
 62
     7
100
AcDbPolyline
 90
       64
 70
   128
 43
0.0
 10
11.3778696285
 20
-1.5319696189
 10
11.3783809756
 20
-1.5329124162
 10
11.3787073285
 20
-1.5342540892
 10
11.378924897
 20
-1.5361034223
 10
11.3789974199
 20
-1.5383516311
 10
11.3789974199
 20
-1.5383516311
 10
11.3789974199
 20
-1.62436375
 10
11.3789974199
 20
-1.62436375
 10
11.3988686852
 20
-1.6511972104
 10
11.3988686852
 20
-1.6511972104
 10
11.4179784603
 20
-1.6511972104
 10
11.4179784603
 20
-1.6511972104
 10
11.4602230297
 20
-1.5938678849
 10
11.4602230297
 20
-1.5938678849
 10
11.4602230297
 20
-1.5344353964
 10
11.4602230297
 20
-1.5344353964
 10
11.460585644
 20
-1.5331299848
 10
11.4612020884
 20
-1.5320058804
 10
11.4619998399
 20
-1.5311718674
 10
11.4630514214
 20
-1.5305191616
 10
11.4630514214
 20
-1.5305191616
 10
11.4645744016
 20
-1.5308455145
 10
11.4662061661
 20
-1.5317883118
 10
11.4662061661
 20
-1.5317883118
 10
11.4666413033
 20
-1.5327673705
 10
11.4669313948
 20
-1.5341815663
 10
11.4671127019
 20
-1.535994638
 10
11.4671852248
 20
-1.5382428468
 10
11.4671852248
 20
-1.5382428468
 10
11.4671852248
 20
-1.6563463339
 10
11.4671852248
 20
-1.6563463339
 10
11.466786349
 20
-1.6581594055
 10
11.4660611204
 20
-1.6594285557
 10
11.4650458003
 20
-1.6602263072
 10
11.4637041272
 20
-1.6604801372
 10
11.4637041272
 20
-1.6604801372
 10
11.4623261928
 20
-1.6601537843
 10
11.4612020884
 20
-1.6592472485
 10
11.4604768597
 20
-1.6575792226
 10
11.4602230297
 20
-1.6550046608
 10
11.4602230297
 20
-1.6550046608
 10
11.4602230297
 20
-1.6105844055
 10
11.4602230297
 20
-1.6105844055
 10
11.4219309565
 20
-1.6602263072
 10
11.4219309565
 20
-1.6602263072
 10
11.4205892835
 20
-1.6604801372
 10
11.4205892835
 20
-1.6604801372
 10
11.3966204763
 20
-1.6604801372
 10
11.3966204763
 20
-1.6604801372
 10
11.3954601105
 20
-1.6594648171
 10
11.3954601105
 20
-1.6594648171
 10
11.3724341006
 20
-1.6278085862
 10
11.3724341006
 20
-1.6278085862
 10
11.3720352248
 20
-1.6252340244
 10
11.3720352248
 20
-1.6252340244
 10
11.3720352248
 20
-1.5338552134
 10
11.3720352248
 20
-1.5338552134
 10
11.3723978391
 20
-1.5327673705
 10
11.372978022
 20
-1.5318608346
 10
11.3737395121
 20
-1.5310993445
 10
11.3747548323
 20
-1.5305191616
 10
11.3747548323
 20
-1.5305191616
 10
11.3765679039
 20
-1.5308817759
 10
11.3778733155
 20
-1.5319696189
  0
LWPOLYLINE
  5
BF
330
1F
100
AcDbEntity
  8
0
  6
Continuous
 62
     7
100
AcDbPolyline
 90
       54
 70
   128
 43
0.0
 10
11.5946052581
 20
-1.5307367302
 10
11.596022096
 20
-1.5317157889
 10
11.5968561089
 20
-1.5333838148
 10
11.5968561089
 20
-1.5333838148
 10
11.5967110632
 20
-1.5361034223
 10
11.596275926
 20
-1.5380252782
 10
11.596275926
 20
-1.5380252782
 10
11.5955506974
 20
-1.5387867683
 10
11.5946441615
 20
-1.5393669512
 10
11.5935563185
 20
-1.5396933041
 10
11.5922871684
 20
-1.5398020884
 10
11.5922871684
 20
-1.5398020884
 10
11.5285395693
 20
-1.5398020884
 10
11.5285395693
 20
-1.5398020884
 10
11.5089583955
 20
-1.567070686
 10
11.5089583955
 20
-1.567070686
 10
11.5089583955
 20
-1.6239286128
 10
11.5089583955
 20
-1.6239286128
 10
11.5285758307
 20
-1.6511972104
 10
11.5285758307
 20
-1.6511972104
 10
11.59384641
 20
-1.6511972104
 10
11.59384641
 20
-1.6511972104
 10
11.5947166844
 20
-1.651414779
 10
11.5954419131
 20
-1.651922439
 10
11.5960583574
 20
-1.6526476677
 10
11.5964934946
 20
-1.6536267264
 10
11.5964934946
 20
-1.6536267264
 10
11.5969286318
 20
-1.6547508308
 10
11.5970736775
 20
-1.6558386738
 10
11.5970736775
 20
-1.6558386738
 10
11.5968561089
 20
-1.6573979154
 10
11.5962034031
 20
-1.658957157
 10
11.5956594817
 20
-1.6596098628
 10
11.594934253
 20
-1.6600812615
 10
11.5939189329
 20
-1.6603713529
 10
11.5927223056
 20
-1.6604801372
 10
11.5927223056
 20
-1.6604801372
 10
11.5261463147
 20
-1.6604801372
 10
11.5261463147
 20
-1.6604801372
 10
11.5250222103
 20
-1.6594648171
 10
11.5250222103
 20
-1.6594648171
 10
11.5019962004
 20
-1.6278085862
 10
11.5019962004
 20
-1.6278085862
 10
11.5019962004
 20
-1.6252340244
 10
11.5019962004
 20
-1.6252340244
 10
11.5021775076
 20
-1.5639884642
 10
11.5021775076
 20
-1.5639884642
 10
11.5029389977
 20
-1.5621753926
 10
11.5029389977
 20
-1.5621753926
 10
11.5258924847
 20
-1.5310268217
 10
11.5258924847
 20
-1.5310268217
 10
11.5270165891
 20
-1.5305191616
 10
11.5270165891
 20
-1.5305191616
 10
11.5946079001
 20
-1.5307367302
  0
LWPOLYLINE
  5
C0
330
1F
100
AcDbEntity
  8
0
  6
Continuous
 62
     7
100
AcDbPolyline
 90
       83
 70
   128
 43
0.0
 10
11.6819941153
 20
-1.471666856
 10
11.6824330906
 20
-1.4726459147
 10
11.6827594435
 20
-1.4740601105
 10
11.6829407507
 20
-1.4759457051
 10
11.6830132736
 20
-1.4783026982
 10
11.6830132736
 20
-1.4783026982
 10
11.6830132736
 20
-1.5328398933
 10
11.6830132736
 20
-1.5328398933
 10
11.7243875685
 20
-1.5328398933
 10
11.7243875685
 20
-1.5328398933
 10
11.7254028887
 20
-1.5334200762
 10
11.7262006402
 20
-1.5342540892
 10
11.7267445617
 20
-1.5353419322
 10
11.7270346531
 20
-1.5366836052
 10
11.7270346531
 20
-1.5366836052
 10
11.7267445617
 20
-1.5386417226
 10
11.7258742873
 20
-1.5404185328
 10
11.7251490586
 20
-1.5411800229
 10
11.7241337385
 20
-1.541687683
 10
11.7227920655
 20
-1.5420140358
 10
11.7211240396
 20
-1.5421228201
 10
11.7211240396
 20
-1.5421228201
 10
11.6830132736
 20
-1.5421228201
 10
11.6830132736
 20
-1.5421228201
 10
11.6830132736
 20
-1.6255603773
 10
11.6830132736
 20
-1.6255603773
 10
11.7010352057
 20
-1.6505082432
 10
11.7010352057
 20
-1.6505082432
 10
11.721160301
 20
-1.6227319855
 10
11.721160301
 20
-1.6227319855
 10
11.7220305754
 20
-1.6221155412
 10
11.7230458955
 20
-1.621934234
 10
11.7230458955
 20
-1.621934234
 10
11.7243875685
 20
-1.6222968483
 10
11.7256929801
 20
-1.6234209528
 10
11.7267083003
 20
-1.6251252401
 10
11.7270346531
 20
-1.6273009261
 10
11.7270346531
 20
-1.6273009261
 10
11.7266720388
 20
-1.6297304421
 10
11.7266720388
 20
-1.6297304421
 10
11.7035009832
 20
-1.6600087386
 10
11.7035009832
 20
-1.6600087386
 10
11.7027032317
 20
-1.6603713529
 10
11.7014340815
 20
-1.6604801372
 10
11.7014340815
 20
-1.6604801372
 10
11.6999473628
 20
-1.6604801372
 10
11.6999473628
 20
-1.6604801372
 10
11.6986419512
 20
-1.658957157
 10
11.6986419512
 20
-1.658957157
 10
11.6762323856
 20
-1.6280261547
 10
11.6762323856
 20
-1.6280261547
 10
11.6760510785
 20
-1.625451593
 10
11.6760510785
 20
-1.625451593
 10
11.6760510785
 20
-1.5421228201
 10
11.6760510785
 20
-1.5421228201
 10
11.6351844435
 20
-1.5421228201
 10
11.6351844435
 20
-1.5421228201
 10
11.634386692
 20
-1.541941513
 10
11.6336614634
 20
-1.5414338529
 10
11.633045019
 20
-1.5405635785
 10
11.6325373589
 20
-1.5393669512
 10
11.6325373589
 20
-1.5393669512
 10
11.6321022217
 20
-1.5377714482
 10
11.631957176
 20
-1.5363209909
 10
11.631957176
 20
-1.5363209909
 10
11.632211006
 20
-1.5342178278
 10
11.6330087576
 20
-1.5323322333
 10
11.6337339862
 20
-1.5315344817
 10
11.6348943521
 20
-1.5309542988
 10
11.6364535937
 20
-1.5306279459
 10
11.6384117111
 20
-1.5305191616
 10
11.6384117111
 20
-1.5305191616
 10
11.6760510785
 20
-1.5305191616
 10
11.6760510785
 20
-1.5305191616
 10
11.6760510785
 20
-1.4738425419
 10
11.6760510785
 20
-1.4738425419
 10
11.6764136928
 20
-1.4724283461
 10
11.6769938757
 20
-1.4713405031
 10
11.6777553658
 20
-1.4706152744
 10
11.6787706859
 20
-1.4701801372
 10
11.6787706859
 20
-1.4701801372
 10
11.6806925419
 20
-1.4705427515
 10
11.6819979535
 20
-1.471666856
  0
LWPOLYLINE
  5
C1
330
1F
100
AcDbEntity
  8
0
  6
Continuous
 62
     7
100
AcDbPolyline
 90
       30
 70
   128
 43
0.0
 10
11.76786235
 20
-1.6224056326
 10
11.7683001638
 20
-1.6233121685
 10
11.7686265167
 20
-1.6246175801
 10
11.7688078239
 20
-1.6263943903
 10
11.7688803467
 20
-1.6285700762
 10
11.7688803467
 20
-1.6285700762
 10
11.7688803467
 20
-1.6564551182
 10
11.7688803467
 20
-1.6564551182
 10
11.7683364253
 20
-1.6583407127
 10
11.7670672751
 20
-1.6599724772
 10
11.7670672751
 20
-1.6599724772
 10
11.7664145693
 20
-1.6603350915
 10
11.7653992492
 20
-1.6604801372
 10
11.7653992492
 20
-1.6604801372
 10
11.7639125304
 20
-1.6601900458
 10
11.7628246874
 20
-1.6593560328
 10
11.7624258117
 20
-1.6586670656
 10
11.7621357202
 20
-1.6576880069
 10
11.7619906745
 20
-1.6564551182
 10
11.7619181516
 20
-1.6549683994
 10
11.7619181516
 20
-1.6549683994
 10
11.7619181516
 20
-1.6245450572
 10
11.7619181516
 20
-1.6245450572
 10
11.7623532888
 20
-1.623022077
 10
11.7630059946
 20
-1.6218979726
 10
11.7638400076
 20
-1.6212452668
 10
11.7648915891
 20
-1.6210276982
 10
11.7648915891
 20
-1.6210276982
 10
11.7666321379
 20
-1.6213540511
 10
11.7678650266
 20
-1.6224056326
  0
LWPOLYLINE
  5
C2
330
1F
100
AcDbEntity
  8
0
  6
Continuous
 62
     7
100
AcDbPolyline
 90
       56
 70
   128
 43
0.0
 10
8.1040446214
 20
-1.7558477058
 10
8.1050614253
 20
-1.7562465816
 10
8.1058591768
 20
-1.7569355488
 10
8.1064030983
 20
-1.7580233918
 10
8.1066931897
 20
-1.7594013262
 10
8.1066931897
 20
-1.7594013262
 10
8.1064393597
 20
-1.7617583194
 10
8.1056416082
 20
-1.7634988682
 10
8.104952641
 20
-1.7641153125
 10
8.1039735823
 20
-1.7645504497
 10
8.1026319092
 20
-1.7648405412
 10
8.1010001448
 20
-1.764913064
 10
8.1010001448
 20
-1.764913064
 10
8.0185779077
 20
-1.764913064
 10
8.0185779077
 20
-1.764913064
 10
8.0185779077
 20
-1.8484594055
 10
8.0185779077
 20
-1.8484594055
 10
8.0599159413
 20
-1.8484594055
 10
8.0599159413
 20
-1.8484594055
 10
8.0612576143
 20
-1.8491483727
 10
8.062236673
 20
-1.85009117
 10
8.0628168559
 20
-1.8513603201
 10
8.0629981631
 20
-1.8528833003
 10
8.0629981631
 20
-1.8528833003
 10
8.0628168559
 20
-1.8545513262
 10
8.0623091958
 20
-1.8560017836
 10
8.0618377972
 20
-1.8565819665
 10
8.0611125685
 20
-1.8570896265
 10
8.060060987
 20
-1.8574522409
 10
8.0587555754
 20
-1.8577423323
 10
8.0587555754
 20
-1.8577423323
 10
8.0185779077
 20
-1.8577423323
 10
8.0185779077
 20
-1.8577423323
 10
8.0185779077
 20
-1.9418688567
 10
8.0185779077
 20
-1.9418688567
 10
8.0180339862
 20
-1.9437544512
 10
8.0167648361
 20
-1.9454224772
 10
8.0167648361
 20
-1.9454224772
 10
8.0161121303
 20
-1.9457850915
 10
8.0150968102
 20
-1.9459301372
 10
8.0150968102
 20
-1.9459301372
 10
8.0136100914
 20
-1.9456400458
 10
8.0125222484
 20
-1.9447697714
 10
8.0121233727
 20
-1.9440445427
 10
8.0118332812
 20
-1.943065484
 10
8.0116882355
 20
-1.9417963339
 10
8.0116157126
 20
-1.9402370922
 10
8.0116157126
 20
-1.9402370922
 10
8.0116157126
 20
-1.7592562805
 10
8.0116157126
 20
-1.7592562805
 10
8.0120508498
 20
-1.7580596532
 10
8.0127035556
 20
-1.7570443331
 10
8.0136463528
 20
-1.7562465816
 10
8.0148067187
 20
-1.7556301372
 10
8.0148067187
 20
-1.7556301372
 10
8.1040461051
 20
-1.7558477058
  0
LWPOLYLINE
  5
C3
330
1F
100
AcDbEntity
  8
0
  6
Continuous
 62
     7
100
AcDbPolyline
 90
       32
 70
   128
 43
0.0
 10
8.213552903
 20
-1.8172383118
 10
8.2363640739
 20
-1.8488945427
 10
8.2363640739
 20
-1.8488945427
 10
8.2367266882
 20
-1.8512152744
 10
8.2367266882
 20
-1.8512152744
 10
8.2367266882
 20
-1.9122070046
 10
8.2367266882
 20
-1.9122070046
 10
8.2359651981
 20
-1.9142739063
 10
8.2359651981
 20
-1.9142739063
 10
8.2127941425
 20
-1.9456763072
 10
8.2127941425
 20
-1.9456763072
 10
8.210908548
 20
-1.9459301372
 10
8.210908548
 20
-1.9459301372
 10
8.1658718483
 20
-1.9459301372
 10
8.1658718483
 20
-1.9459301372
 10
8.1647477438
 20
-1.9449148171
 10
8.1647477438
 20
-1.9449148171
 10
8.1417579954
 20
-1.9132585862
 10
8.1417579954
 20
-1.9132585862
 10
8.1415766882
 20
-1.9106840244
 10
8.1415766882
 20
-1.9106840244
 10
8.1415766882
 20
-1.8494384642
 10
8.1415766882
 20
-1.8494384642
 10
8.1423381783
 20
-1.8476253926
 10
8.1423381783
 20
-1.8476253926
 10
8.1655092339
 20
-1.8164768217
 10
8.1655092339
 20
-1.8164768217
 10
8.1666333384
 20
-1.8159691616
 10
8.1666333384
 20
-1.8159691616
 10
8.212250221
 20
-1.8162229916
 10
8.212250221
 20
-1.8162229916
 10
8.2135556326
 20
-1.8172383118
  0
LWPOLYLINE
  5
C4
330
1F
100
AcDbEntity
  8
0
  6
Continuous
 62
     7
100
AcDbPolyline
 90
       16
 70
   128
 43
0.0
 10
8.2297634891
 20
-1.8525569474
 10
8.2098932278
 20
-1.8252520884
 10
8.2098932278
 20
-1.8252520884
 10
8.1684101486
 20
-1.8252520884
 10
8.1684101486
 20
-1.8252520884
 10
8.1485388833
 20
-1.8523031174
 10
8.1485388833
 20
-1.8523031174
 10
8.1485388833
 20
-1.9093423514
 10
8.1485388833
 20
-1.9093423514
 10
8.1684101486
 20
-1.9366472104
 10
8.1684101486
 20
-1.9366472104
 10
8.2098932278
 20
-1.9366472104
 10
8.2098932278
 20
-1.9366472104
 10
8.2297644931
 20
-1.9090522599
 10
8.2297644931
 20
-1.9090522599
 10
8.2297644931
 20
-1.8525569474
  0
LWPOLYLINE
  5
C5
330
1F
100
AcDbEntity
  8
0
  6
Continuous
 62
     7
100
AcDbPolyline
 90
       59
 70
   128
 43
0.0
 10
8.3431859655
 20
-1.8172745732
 10
8.3662525266
 20
-1.8495472485
 10
8.3662525266
 20
-1.8495472485
 10
8.3665426181
 20
-1.850925183
 10
8.366615141
 20
-1.8519042416
 10
8.366615141
 20
-1.8519042416
 10
8.3665788795
 20
-1.8530283461
 10
8.3664338338
 20
-1.8537535747
 10
8.3664338338
 20
-1.8537535747
 10
8.3658536509
 20
-1.8551677706
 10
8.3650558993
 20
-1.8562556136
 10
8.3640405792
 20
-1.8569808422
 10
8.3628076905
 20
-1.8574159794
 10
8.3628076905
 20
-1.8574159794
 10
8.3610671417
 20
-1.8569083194
 10
8.359580423
 20
-1.8554578621
 10
8.359580423
 20
-1.8554578621
 10
8.3390201905
 20
-1.8252520884
 10
8.3390201905
 20
-1.8252520884
 10
8.3201642454
 20
-1.8252520884
 10
8.3201642454
 20
-1.8252520884
 10
8.2784998589
 20
-1.8823275839
 10
8.2784998589
 20
-1.8823275839
 10
8.2784998589
 20
-1.9417600724
 10
8.2784998589
 20
-1.9417600724
 10
8.2779559374
 20
-1.9437181898
 10
8.2766867873
 20
-1.9454224772
 10
8.2766867873
 20
-1.9454224772
 10
8.2760340815
 20
-1.9457850915
 10
8.2750187614
 20
-1.9459301372
 10
8.2750187614
 20
-1.9459301372
 10
8.2735320426
 20
-1.9456400458
 10
8.2724441996
 20
-1.9447697714
 10
8.2720453239
 20
-1.9440445427
 10
8.2717552324
 20
-1.943065484
 10
8.2716101867
 20
-1.9417963339
 10
8.2715376638
 20
-1.9402733537
 10
8.2715376638
 20
-1.9402733537
 10
8.2715376638
 20
-1.8195953049
 10
8.2715376638
 20
-1.8195953049
 10
8.2719002781
 20
-1.818181109
 10
8.2725529839
 20
-1.8171295275
 10
8.2733869969
 20
-1.8163680374
 10
8.2745111013
 20
-1.8159691616
 10
8.2745111013
 20
-1.8159691616
 10
8.2760703429
 20
-1.8162955145
 10
8.2773394931
 20
-1.8173108346
 10
8.2778471531
 20
-1.818181109
 10
8.2782097675
 20
-1.819522782
 10
8.2784273361
 20
-1.8213358537
 10
8.2784998589
 20
-1.823620324
 10
8.2784998589
 20
-1.823620324
 10
8.2784998589
 20
-1.8685119779
 10
8.2784998589
 20
-1.8685119779
 10
8.3178797751
 20
-1.8159691616
 10
8.3178797751
 20
-1.8159691616
 10
8.3418848437
 20
-1.8162229916
 10
8.3418848437
 20
-1.8162229916
 10
8.3431902553
 20
-1.8172745732
  0
LWPOLYLINE
  5
C6
330
1F
100
AcDbEntity
  8
0
  6
Continuous
 62
     7
100
AcDbPolyline
 90
       63
 70
   128
 43
0.0
 10
8.5801918676
 20
-1.7558477058
 10
8.581210301
 20
-1.7562465816
 10
8.5820080525
 20
-1.7569355488
 10
8.582551974
 20
-1.7580233918
 10
8.5828420655
 20
-1.7594013262
 10
8.5828420655
 20
-1.7594013262
 10
8.5826244969
 20
-1.7616132737
 10
8.5820080525
 20
-1.7633538224
 10
8.5820080525
 20
-1.7633538224
 10
8.5811377781
 20
-1.7640427897
 10
8.5799774123
 20
-1.7645141883
 10
8.5784906935
 20
-1.7648042797
 10
8.5767138833
 20
-1.764913064
 10
8.5767138833
 20
-1.764913064
 10
8.5593083955
 20
-1.764913064
 10
8.5593083955
 20
-1.764913064
 10
8.5593083955
 20
-1.9366472104
 10
8.5593083955
 20
-1.9366472104
 10
8.5799774123
 20
-1.9366472104
 10
8.5799774123
 20
-1.9366472104
 10
8.5810652553
 20
-1.9372273933
 10
8.5819355297
 20
-1.9380614063
 10
8.5825157126
 20
-1.9391492493
 10
8.5828420655
 20
-1.9404909223
 10
8.5828420655
 20
-1.9404909223
 10
8.5826244969
 20
-1.9427391311
 10
8.5819717911
 20
-1.9444796799
 10
8.5814278696
 20
-1.9450961243
 10
8.580702641
 20
-1.9455675229
 10
8.5797235823
 20
-1.9458213529
 10
8.578526955
 20
-1.9459301372
 10
8.578526955
 20
-1.9459301372
 10
8.5341066996
 20
-1.9459301372
 10
8.5341066996
 20
-1.9459301372
 10
8.5330913795
 20
-1.9453499543
 10
8.532293628
 20
-1.9445522028
 10
8.5317497065
 20
-1.9434643598
 10
8.531459615
 20
-1.9421589482
 10
8.531459615
 20
-1.9421589482
 10
8.5317134451
 20
-1.9398019551
 10
8.5324386737
 20
-1.9380976677
 10
8.5330913795
 20
-1.9374449619
 10
8.5340704382
 20
-1.9370098247
 10
8.5353395884
 20
-1.9367197333
 10
8.53689883
 20
-1.9366472104
 10
8.53689883
 20
-1.9366472104
 10
8.5523462004
 20
-1.9366472104
 10
8.5523462004
 20
-1.9366472104
 10
8.5523462004
 20
-1.764913064
 10
8.5523462004
 20
-1.764913064
 10
8.5341429611
 20
-1.764913064
 10
8.5341429611
 20
-1.764913064
 10
8.5330913795
 20
-1.764405404
 10
8.5323298894
 20
-1.7636076525
 10
8.5317497065
 20
-1.762483548
 10
8.531459615
 20
-1.7610693522
 10
8.531459615
 20
-1.7610693522
 10
8.5317134451
 20
-1.7587486205
 10
8.5324024123
 20
-1.7572256403
 10
8.5334539938
 20
-1.7562465816
 10
8.5346506211
 20
-1.7556301372
 10
8.5346506211
 20
-1.7556301372
 10
8.5801949809
 20
-1.7558477058
  0
LWPOLYLINE
  5
C7
330
1F
100
AcDbEntity
  8
0
  6
Continuous
 62
     7
100
AcDbPolyline
 90
       61
 70
   128
 43
0.0
 10
8.6913709565
 20
-1.8172383118
 10
8.7143985442
 20
-1.8488945427
 10
8.7143985442
 20
-1.8488945427
 10
8.7147974199
 20
-1.8512152744
 10
8.7147974199
 20
-1.8512152744
 10
8.7147974199
 20
-1.9417963339
 10
8.7147974199
 20
-1.9417963339
 10
8.7143985442
 20
-1.9436094055
 10
8.7136733155
 20
-1.9448785557
 10
8.7126579954
 20
-1.9456763072
 10
8.7113163224
 20
-1.9459301372
 10
8.7113163224
 20
-1.9459301372
 10
8.7099383879
 20
-1.9456037843
 10
8.7088142835
 20
-1.9446247256
 10
8.7080890548
 20
-1.9428479154
 10
8.7078352248
 20
-1.9402008308
 10
8.7078352248
 20
-1.9402008308
 10
8.7078352248
 20
-1.8523756403
 10
8.7078352248
 20
-1.8523756403
 10
8.6879639595
 20
-1.8252520884
 10
8.6879639595
 20
-1.8252520884
 10
8.6688541844
 20
-1.8252520884
 10
8.6688541844
 20
-1.8252520884
 10
8.626609615
 20
-1.8823275839
 10
8.626609615
 20
-1.8823275839
 10
8.626609615
 20
-1.9417600724
 10
8.626609615
 20
-1.9417600724
 10
8.6260656935
 20
-1.9437181898
 10
8.6247965434
 20
-1.9454224772
 10
8.6247965434
 20
-1.9454224772
 10
8.6241438376
 20
-1.9457850915
 10
8.6231285175
 20
-1.9459301372
 10
8.6231285175
 20
-1.9459301372
 10
8.6216417987
 20
-1.9456400458
 10
8.6205539557
 20
-1.9447697714
 10
8.62015508
 20
-1.9440445427
 10
8.6198649885
 20
-1.943065484
 10
8.6197199428
 20
-1.9417963339
 10
8.6196474199
 20
-1.9402733537
 10
8.6196474199
 20
-1.9402733537
 10
8.6196474199
 20
-1.8195953049
 10
8.6196474199
 20
-1.8195953049
 10
8.6200100342
 20
-1.818181109
 10
8.62066274
 20
-1.8171295275
 10
8.621496753
 20
-1.8163680374
 10
8.6226208574
 20
-1.8159691616
 10
8.6226208574
 20
-1.8159691616
 10
8.624180099
 20
-1.8162955145
 10
8.6254492492
 20
-1.8173108346
 10
8.6259569092
 20
-1.818181109
 10
8.6263195236
 20
-1.819522782
 10
8.6265370922
 20
-1.8213358537
 10
8.626609615
 20
-1.823620324
 10
8.626609615
 20
-1.823620324
 10
8.626609615
 20
-1.8685119779
 10
8.626609615
 20
-1.8685119779
 10
8.6660257926
 20
-1.8159691616
 10
8.6660257926
 20
-1.8159691616
 10
8.6900308612
 20
-1.8162229916
 10
8.6900308612
 20
-1.8162229916
 10
8.6913725342
 20
-1.8172383118
  0
LWPOLYLINE
  5
C8
330
1F
100
AcDbEntity
  8
0
  6
Continuous
 62
     7
100
AcDbPolyline
 90
       80
 70
   128
 43
0.0
 10
8.8404060349
 20
-1.8161867302
 10
8.8415673894
 20
-1.8171657889
 10
8.8424376638
 20
-1.8188338148
 10
8.8424376638
 20
-1.8188338148
 10
8.8424014024
 20
-1.8204655793
 10
8.8422926181
 20
-1.8217709909
 10
8.8421475724
 20
-1.822786311
 10
8.8418937423
 20
-1.8234752782
 10
8.8418937423
 20
-1.8234752782
 10
8.8413135594
 20
-1.8242367683
 10
8.8405158079
 20
-1.8248169512
 10
8.8394642263
 20
-1.8251433041
 10
8.8381950762
 20
-1.8252520884
 10
8.8381950762
 20
-1.8252520884
 10
8.7765143788
 20
-1.8252520884
 10
8.7765143788
 20
-1.8252520884
 10
8.7592176753
 20
-1.8519405031
 10
8.7592176753
 20
-1.8519405031
 10
8.7766231631
 20
-1.8786289177
 10
8.7766231631
 20
-1.8786289177
 10
8.8186139024
 20
-1.8786289177
 10
8.8186139024
 20
-1.8786289177
 10
8.8198830525
 20
-1.8796079764
 10
8.8198830525
 20
-1.8796079764
 10
8.8420750495
 20
-1.9099225343
 10
8.8420750495
 20
-1.9099225343
 10
8.842365141
 20
-1.9112642073
 10
8.8424376638
 20
-1.9123883118
 10
8.8424376638
 20
-1.9123883118
 10
8.842365141
 20
-1.9131498019
 10
8.8420750495
 20
-1.9143826906
 10
8.8420750495
 20
-1.9143826906
 10
8.8411322522
 20
-1.9160869779
 10
8.8411322522
 20
-1.9160869779
 10
8.8190490396
 20
-1.9456763072
 10
8.8190490396
 20
-1.9456763072
 10
8.8171997065
 20
-1.9459301372
 10
8.8171997065
 20
-1.9459301372
 10
8.7518203429
 20
-1.9459301372
 10
8.7518203429
 20
-1.9459301372
 10
8.7505149313
 20
-1.9448785557
 10
8.7496083955
 20
-1.943065484
 10
8.7496083955
 20
-1.943065484
 10
8.7500797942
 20
-1.9426303468
 10
8.7502611013
 20
-1.9421589482
 10
8.7500797942
 20
-1.941723811
 10
8.7496083955
 20
-1.9412886738
 10
8.7496083955
 20
-1.9412886738
 10
8.749898487
 20
-1.9391855107
 10
8.7507324999
 20
-1.9377713148
 10
8.7514214672
 20
-1.9372636547
 10
8.7524367873
 20
-1.9369373019
 10
8.7537059374
 20
-1.9367197333
 10
8.7552651791
 20
-1.9366472104
 10
8.7552651791
 20
-1.9366472104
 10
8.8173447522
 20
-1.9366472104
 10
8.8173447522
 20
-1.9366472104
 10
8.8350765929
 20
-1.9121344817
 10
8.8350765929
 20
-1.9121344817
 10
8.8173810137
 20
-1.8879118445
 10
8.8173810137
 20
-1.8879118445
 10
8.7742661699
 20
-1.8879118445
 10
8.7742661699
 20
-1.8879118445
 10
8.7729607583
 20
-1.886860263
 10
8.7729607583
 20
-1.886860263
 10
8.7499710099
 20
-1.8542974962
 10
8.7499710099
 20
-1.8542974962
 10
8.7497171798
 20
-1.8532459147
 10
8.7496083955
 20
-1.851686673
 10
8.7496083955
 20
-1.851686673
 10
8.749644657
 20
-1.8505625686
 10
8.7497897027
 20
-1.84983734
 10
8.7497897027
 20
-1.84983734
 10
8.7509138071
 20
-1.8479880069
 10
8.7509138071
 20
-1.8479880069
 10
8.7730332812
 20
-1.8164768217
 10
8.7730332812
 20
-1.8164768217
 10
8.7741573856
 20
-1.8159691616
 10
8.7741573856
 20
-1.8159691616
 10
8.8404070236
 20
-1.8161867302
  0
LWPOLYLINE
  5
C9
330
1F
100
AcDbEntity
  8
0
  6
Continuous
 62
     7
100
AcDbPolyline
 90
       83
 70
   128
 43
0.0
 10
8.9296064978
 20
-1.757116856
 10
8.9300452858
 20
-1.7580959147
 10
8.9303716387
 20
-1.7595101105
 10
8.9305529458
 20
-1.7613957051
 10
8.9306254687
 20
-1.7637526982
 10
8.9306254687
 20
-1.7637526982
 10
8.9306254687
 20
-1.8182898933
 10
8.9306254687
 20
-1.8182898933
 10
8.9719997637
 20
-1.8182898933
 10
8.9719997637
 20
-1.8182898933
 10
8.9730150838
 20
-1.8188700762
 10
8.9738128353
 20
-1.8197040892
 10
8.9743567568
 20
-1.8207919322
 10
8.9746468483
 20
-1.8221336052
 10
8.9746468483
 20
-1.8221336052
 10
8.9743567568
 20
-1.8240917226
 10
8.9734864824
 20
-1.8258685328
 10
8.9727612538
 20
-1.8266300229
 10
8.9717459336
 20
-1.827137683
 10
8.9704042606
 20
-1.8274640358
 10
8.9687362347
 20
-1.8275728201
 10
8.9687362347
 20
-1.8275728201
 10
8.9306254687
 20
-1.8275728201
 10
8.9306254687
 20
-1.8275728201
 10
8.9306254687
 20
-1.9110103773
 10
8.9306254687
 20
-1.9110103773
 10
8.9486474009
 20
-1.9359582432
 10
8.9486474009
 20
-1.9359582432
 10
8.9687724961
 20
-1.9081819855
 10
8.9687724961
 20
-1.9081819855
 10
8.9696427705
 20
-1.9075655412
 10
8.9706580906
 20
-1.907384234
 10
8.9706580906
 20
-1.907384234
 10
8.9719997637
 20
-1.9077468483
 10
8.9733051753
 20
-1.9088709528
 10
8.9743204954
 20
-1.9105752401
 10
8.9746468483
 20
-1.9127509261
 10
8.9746468483
 20
-1.9127509261
 10
8.9742842339
 20
-1.9151804421
 10
8.9742842339
 20
-1.9151804421
 10
8.9511131783
 20
-1.9454587386
 10
8.9511131783
 20
-1.9454587386
 10
8.9503154268
 20
-1.9458213529
 10
8.9490462766
 20
-1.9459301372
 10
8.9490462766
 20
-1.9459301372
 10
8.9475595579
 20
-1.9459301372
 10
8.9475595579
 20
-1.9459301372
 10
8.9462541463
 20
-1.944407157
 10
8.9462541463
 20
-1.944407157
 10
8.9238445807
 20
-1.9134761547
 10
8.9238445807
 20
-1.9134761547
 10
8.9236632736
 20
-1.910901593
 10
8.9236632736
 20
-1.910901593
 10
8.9236632736
 20
-1.8275728201
 10
8.9236632736
 20
-1.8275728201
 10
8.8827966387
 20
-1.8275728201
 10
8.8827966387
 20
-1.8275728201
 10
8.8819988871
 20
-1.827391513
 10
8.8812736585
 20
-1.8268838529
 10
8.8806572141
 20
-1.8260135785
 10
8.8801495541
 20
-1.8248169512
 10
8.8801495541
 20
-1.8248169512
 10
8.8797144169
 20
-1.8232214482
 10
8.8795693711
 20
-1.8217709909
 10
8.8795693711
 20
-1.8217709909
 10
8.8798232012
 20
-1.8196678278
 10
8.8806209527
 20
-1.8177822333
 10
8.8813461813
 20
-1.8169844817
 10
8.8825065472
 20
-1.8164042988
 10
8.8840657888
 20
-1.8160779459
 10
8.8860239062
 20
-1.8159691616
 10
8.8860239062
 20
-1.8159691616
 10
8.9236632736
 20
-1.8159691616
 10
8.9236632736
 20
-1.8159691616
 10
8.9236632736
 20
-1.7592925419
 10
8.9236632736
 20
-1.7592925419
 10
8.9240258879
 20
-1.7578783461
 10
8.9246060708
 20
-1.7567905031
 10
8.9253675609
 20
-1.7560652744
 10
8.926382881
 20
-1.7556301372
 10
8.926382881
 20
-1.7556301372
 10
8.928304737
 20
-1.7559927515
 10
8.9296101486
 20
-1.757116856
  0
LWPOLYLINE
  5
CA
330
1F
100
AcDbEntity
  8
0
  6
Continuous
 62
     7
100
AcDbPolyline
 90
       59
 70
   128
 43
0.0
 10
9.0811806401
 20
-1.8172745732
 10
9.1042452095
 20
-1.8495472485
 10
9.1042452095
 20
-1.8495472485
 10
9.104535301
 20
-1.850925183
 10
9.1046078239
 20
-1.8519042416
 10
9.1046078239
 20
-1.8519042416
 10
9.1045715624
 20
-1.8530283461
 10
9.1044265167
 20
-1.8537535747
 10
9.1044265167
 20
-1.8537535747
 10
9.1038463338
 20
-1.8551677706
 10
9.1030485823
 20
-1.8562556136
 10
9.1020332621
 20
-1.8569808422
 10
9.1008003734
 20
-1.8574159794
 10
9.1008003734
 20
-1.8574159794
 10
9.0990598246
 20
-1.8569083194
 10
9.0975731059
 20
-1.8554578621
 10
9.0975731059
 20
-1.8554578621
 10
9.0770128734
 20
-1.8252520884
 10
9.0770128734
 20
-1.8252520884
 10
9.0581569283
 20
-1.8252520884
 10
9.0581569283
 20
-1.8252520884
 10
9.0164925419
 20
-1.8823275839
 10
9.0164925419
 20
-1.8823275839
 10
9.0164925419
 20
-1.9417600724
 10
9.0164925419
 20
-1.9417600724
 10
9.0159486204
 20
-1.9437181898
 10
9.0146794702
 20
-1.9454224772
 10
9.0146794702
 20
-1.9454224772
 10
9.0140267644
 20
-1.9457850915
 10
9.0130114443
 20
-1.9459301372
 10
9.0130114443
 20
-1.9459301372
 10
9.0115247256
 20
-1.9456400458
 10
9.0104368826
 20
-1.9447697714
 10
9.0100380068
 20
-1.9440445427
 10
9.0097479153
 20
-1.943065484
 10
9.0096028696
 20
-1.9417963339
 10
9.0095303467
 20
-1.9402733537
 10
9.0095303467
 20
-1.9402733537
 10
9.0095303467
 20
-1.8195953049
 10
9.0095303467
 20
-1.8195953049
 10
9.0098929611
 20
-1.818181109
 10
9.0105456669
 20
-1.8171295275
 10
9.0113796798
 20
-1.8163680374
 10
9.0125037842
 20
-1.8159691616
 10
9.0125037842
 20
-1.8159691616
 10
9.0140630259
 20
-1.8162955145
 10
9.015332176
 20
-1.8173108346
 10
9.0158398361
 20
-1.818181109
 10
9.0162024504
 20
-1.819522782
 10
9.016420019
 20
-1.8213358537
 10
9.0164925419
 20
-1.823620324
 10
9.0164925419
 20
-1.823620324
 10
9.0164925419
 20
-1.8685119779
 10
9.0164925419
 20
-1.8685119779
 10
9.055872458
 20
-1.8159691616
 10
9.055872458
 20
-1.8159691616
 10
9.0798775266
 20
-1.8162229916
 10
9.0798775266
 20
-1.8162229916
 10
9.0811829382
 20
-1.8172745732
  0
LWPOLYLINE
  5
CB
330
1F
100
AcDbEntity
  8
0
  6
Continuous
 62
     7
100
AcDbPolyline
 90
       64
 70
   128
 43
0.0
 10
9.1453283791
 20
-1.8174196189
 10
9.1458370731
 20
-1.8183624162
 10
9.146163426
 20
-1.8197040892
 10
9.1463809946
 20
-1.8215534223
 10
9.1464535175
 20
-1.8238016311
 10
9.1464535175
 20
-1.8238016311
 10
9.1464535175
 20
-1.90981375
 10
9.1464535175
 20
-1.90981375
 10
9.1663247827
 20
-1.9366472104
 10
9.1663247827
 20
-1.9366472104
 10
9.1854345579
 20
-1.9366472104
 10
9.1854345579
 20
-1.9366472104
 10
9.2276791272
 20
-1.8793178849
 10
9.2276791272
 20
-1.8793178849
 10
9.2276791272
 20
-1.8198853964
 10
9.2276791272
 20
-1.8198853964
 10
9.2280417416
 20
-1.8185799848
 10
9.2286581859
 20
-1.8174558804
 10
9.2294559374
 20
-1.8166218674
 10
9.230507519
 20
-1.8159691616
 10
9.230507519
 20
-1.8159691616
 10
9.2320304992
 20
-1.8162955145
 10
9.2336622637
 20
-1.8172383118
 10
9.2336622637
 20
-1.8172383118
 10
9.2340974009
 20
-1.8182173705
 10
9.2343874923
 20
-1.8196315663
 10
9.2345687995
 20
-1.821444638
 10
9.2346413224
 20
-1.8236928468
 10
9.2346413224
 20
-1.8236928468
 10
9.2346413224
 20
-1.9417963339
 10
9.2346413224
 20
-1.9417963339
 10
9.2342424466
 20
-1.9436094055
 10
9.2335172179
 20
-1.9448785557
 10
9.2325018978
 20
-1.9456763072
 10
9.2311602248
 20
-1.9459301372
 10
9.2311602248
 20
-1.9459301372
 10
9.2297822903
 20
-1.9456037843
 10
9.2286581859
 20
-1.9446972485
 10
9.2279329573
 20
-1.9430292226
 10
9.2276791272
 20
-1.9404546608
 10
9.2276791272
 20
-1.9404546608
 10
9.2276791272
 20
-1.8960344055
 10
9.2276791272
 20
-1.8960344055
 10
9.1893870541
 20
-1.9456763072
 10
9.1893870541
 20
-1.9456763072
 10
9.188045381
 20
-1.9459301372
 10
9.188045381
 20
-1.9459301372
 10
9.1640765739
 20
-1.9459301372
 10
9.1640765739
 20
-1.9459301372
 10
9.162916208
 20
-1.9449148171
 10
9.162916208
 20
-1.9449148171
 10
9.1398901981
 20
-1.9132585862
 10
9.1398901981
 20
-1.9132585862
 10
9.1394913224
 20
-1.9106840244
 10
9.1394913224
 20
-1.9106840244
 10
9.1394913224
 20
-1.8193052134
 10
9.1394913224
 20
-1.8193052134
 10
9.1398539367
 20
-1.8182173705
 10
9.1404341196
 20
-1.8173108346
 10
9.1411956097
 20
-1.8165493445
 10
9.1422109298
 20
-1.8159691616
 10
9.1422109298
 20
-1.8159691616
 10
9.1440240015
 20
-1.8163317759
 10
9.1453294131
 20
-1.8174196189
  0
LWPOLYLINE
  5
CC
330
1F
100
AcDbEntity
  8
0
  6
Continuous
 62
     7
100
AcDbPolyline
 90
       54
 70
   128
 43
0.0
 10
9.3620593154
 20
-1.8161867302
 10
9.3634781935
 20
-1.8171657889
 10
9.3643122065
 20
-1.8188338148
 10
9.3643122065
 20
-1.8188338148
 10
9.3641671608
 20
-1.8215534223
 10
9.3637320236
 20
-1.8234752782
 10
9.3637320236
 20
-1.8234752782
 10
9.3630067949
 20
-1.8242367683
 10
9.3621002591
 20
-1.8248169512
 10
9.3610124161
 20
-1.8251433041
 10
9.359743266
 20
-1.8252520884
 10
9.359743266
 20
-1.8252520884
 10
9.2959956669
 20
-1.8252520884
 10
9.2959956669
 20
-1.8252520884
 10
9.2764144931
 20
-1.852520686
 10
9.2764144931
 20
-1.852520686
 10
9.2764144931
 20
-1.9093786128
 10
9.2764144931
 20
-1.9093786128
 10
9.2960319283
 20
-1.9366472104
 10
9.2960319283
 20
-1.9366472104
 10
9.3613025076
 20
-1.9366472104
 10
9.3613025076
 20
-1.9366472104
 10
9.362172782
 20
-1.936864779
 10
9.3628980106
 20
-1.937372439
 10
9.363514455
 20
-1.9380976677
 10
9.3639495922
 20
-1.9390767264
 10
9.3639495922
 20
-1.9390767264
 10
9.3643847294
 20
-1.9402008308
 10
9.3645297751
 20
-1.9412886738
 10
9.3645297751
 20
-1.9412886738
 10
9.3643122065
 20
-1.9428479154
 10
9.3636595007
 20
-1.944407157
 10
9.3631155792
 20
-1.9450598628
 10
9.3623903506
 20
-1.9455312615
 10
9.3613750304
 20
-1.9458213529
 10
9.3601784031
 20
-1.9459301372
 10
9.3601784031
 20
-1.9459301372
 10
9.2936024123
 20
-1.9459301372
 10
9.2936024123
 20
-1.9459301372
 10
9.2924783079
 20
-1.9449148171
 10
9.2924783079
 20
-1.9449148171
 10
9.269452298
 20
-1.9132585862
 10
9.269452298
 20
-1.9132585862
 10
9.269452298
 20
-1.9106840244
 10
9.269452298
 20
-1.9106840244
 10
9.2696336051
 20
-1.8494384642
 10
9.2696336051
 20
-1.8494384642
 10
9.2703950952
 20
-1.8476253926
 10
9.2703950952
 20
-1.8476253926
 10
9.2933485823
 20
-1.8164768217
 10
9.2933485823
 20
-1.8164768217
 10
9.2944726867
 20
-1.8159691616
 10
9.2944726867
 20
-1.8159691616
 10
9.3620639977
 20
-1.8161867302
  0
LWPOLYLINE
  5
CD
330
1F
100
AcDbEntity
  8
0
  6
Continuous
 62
     7
100
AcDbPolyline
 90
       83
 70
   128
 43
0.0
 10
9.4494528658
 20
-1.757116856
 10
9.4498891882
 20
-1.7580959147
 10
9.4502155411
 20
-1.7595101105
 10
9.4503968483
 20
-1.7613957051
 10
9.4504693711
 20
-1.7637526982
 10
9.4504693711
 20
-1.7637526982
 10
9.4504693711
 20
-1.8182898933
 10
9.4504693711
 20
-1.8182898933
 10
9.4918436661
 20
-1.8182898933
 10
9.4918436661
 20
-1.8182898933
 10
9.4928589862
 20
-1.8188700762
 10
9.4936567378
 20
-1.8197040892
 10
9.4942006592
 20
-1.8207919322
 10
9.4944907507
 20
-1.8221336052
 10
9.4944907507
 20
-1.8221336052
 10
9.4942006592
 20
-1.8240917226
 10
9.4933303849
 20
-1.8258685328
 10
9.4926051562
 20
-1.8266300229
 10
9.4915898361
 20
-1.827137683
 10
9.4902481631
 20
-1.8274640358
 10
9.4885801371
 20
-1.8275728201
 10
9.4885801371
 20
-1.8275728201
 10
9.4504693711
 20
-1.8275728201
 10
9.4504693711
 20
-1.8275728201
 10
9.4504693711
 20
-1.9110103773
 10
9.4504693711
 20
-1.9110103773
 10
9.4684913033
 20
-1.9359582432
 10
9.4684913033
 20
-1.9359582432
 10
9.4886163986
 20
-1.9081819855
 10
9.4886163986
 20
-1.9081819855
 10
9.489486673
 20
-1.9075655412
 10
9.4905019931
 20
-1.907384234
 10
9.4905019931
 20
-1.907384234
 10
9.4918436661
 20
-1.9077468483
 10
9.4931490777
 20
-1.9088709528
 10
9.4941643978
 20
-1.9105752401
 10
9.4944907507
 20
-1.9127509261
 10
9.4944907507
 20
-1.9127509261
 10
9.4941281364
 20
-1.9151804421
 10
9.4941281364
 20
-1.9151804421
 10
9.4709570807
 20
-1.9454587386
 10
9.4709570807
 20
-1.9454587386
 10
9.4701593292
 20
-1.9458213529
 10
9.4688901791
 20
-1.9459301372
 10
9.4688901791
 20
-1.9459301372
 10
9.4674034603
 20
-1.9459301372
 10
9.4674034603
 20
-1.9459301372
 10
9.4660980487
 20
-1.944407157
 10
9.4660980487
 20
-1.944407157
 10
9.4436884832
 20
-1.9134761547
 10
9.4436884832
 20
-1.9134761547
 10
9.443507176
 20
-1.910901593
 10
9.443507176
 20
-1.910901593
 10
9.443507176
 20
-1.8275728201
 10
9.443507176
 20
-1.8275728201
 10
9.4026405411
 20
-1.8275728201
 10
9.4026405411
 20
-1.8275728201
 10
9.4018427896
 20
-1.827391513
 10
9.4011175609
 20
-1.8268838529
 10
9.4005011166
 20
-1.8260135785
 10
9.3999934565
 20
-1.8248169512
 10
9.3999934565
 20
-1.8248169512
 10
9.3995583193
 20
-1.8232214482
 10
9.3994132736
 20
-1.8217709909
 10
9.3994132736
 20
-1.8217709909
 10
9.3996671036
 20
-1.8196678278
 10
9.4004648551
 20
-1.8177822333
 10
9.4011900838
 20
-1.8169844817
 10
9.4023504496
 20
-1.8164042988
 10
9.4039096913
 20
-1.8160779459
 10
9.4058678086
 20
-1.8159691616
 10
9.4058678086
 20
-1.8159691616
 10
9.443507176
 20
-1.8159691616
 10
9.443507176
 20
-1.8159691616
 10
9.443507176
 20
-1.7592925419
 10
9.443507176
 20
-1.7592925419
 10
9.4438697903
 20
-1.7578783461
 10
9.4444499733
 20
-1.7567905031
 10
9.4452114634
 20
-1.7560652744
 10
9.4462267835
 20
-1.7556301372
 10
9.4462267835
 20
-1.7556301372
 10
9.4481486394
 20
-1.7559927515
 10
9.449454051
 20
-1.757116856
  0
LWPOLYLINE
  5
CE
330
1F
100
AcDbEntity
  8
0
  6
Continuous
 62
     7
100
AcDbPolyline
 90
       27
 70
   128
 43
0.0
 10
9.5353211005
 20
-1.7570443331
 10
9.5357562614
 20
-1.7579508689
 10
9.5360826143
 20
-1.7593288034
 10
9.5362639214
 20
-1.7611056136
 10
9.5363364443
 20
-1.7633538224
 10
9.5363364443
 20
-1.7633538224
 10
9.5363364443
 20
-1.791964093
 10
9.5363364443
 20
-1.791964093
 10
9.5356837385
 20
-1.7941035176
 10
9.5346684184
 20
-1.7953364063
 10
9.5336530983
 20
-1.7959165892
 10
9.5328553467
 20
-1.7960978964
 10
9.5328553467
 20
-1.7960978964
 10
9.5313323666
 20
-1.7958078049
 10
9.5302445236
 20
-1.7950100534
 10
9.5295918178
 20
-1.7936321189
 10
9.5293742492
 20
-1.791710263
 10
9.5293742492
 20
-1.791710263
 10
9.5293742492
 20
-1.7592562805
 10
9.5293742492
 20
-1.7592562805
 10
9.5298093864
 20
-1.7578420846
 10
9.5304258307
 20
-1.7567905031
 10
9.5312235823
 20
-1.756029013
 10
9.532202641
 20
-1.7556301372
 10
9.532202641
 20
-1.7556301372
 10
9.534051974
 20
-1.7559927515
 10
9.5353211242
 20
-1.7570443331
  0
LWPOLYLINE
  5
CF
330
1F
100
AcDbEntity
  8
0
  6
Continuous
 62
     7
100
AcDbPolyline
 90
       30
 70
   128
 43
0.0
 10
9.535246008
 20
-1.8173833575
 10
9.5357199999
 20
-1.8182898933
 10
9.5360826143
 20
-1.8196678278
 10
9.5362639214
 20
-1.821444638
 10
9.5363364443
 20
-1.8236928468
 10
9.5363364443
 20
-1.8236928468
 10
9.5363364443
 20
-1.9417963339
 10
9.5363364443
 20
-1.9417963339
 10
9.5357925228
 20
-1.9437181898
 10
9.5345233727
 20
-1.9454224772
 10
9.5345233727
 20
-1.9454224772
 10
9.5338706669
 20
-1.9457850915
 10
9.5328553467
 20
-1.9459301372
 10
9.5328553467
 20
-1.9459301372
 10
9.531368628
 20
-1.9456400458
 10
9.530280785
 20
-1.9447697714
 10
9.5298819092
 20
-1.9440445427
 10
9.5295918178
 20
-1.943065484
 10
9.529446772
 20
-1.9417963339
 10
9.5293742492
 20
-1.9402733537
 10
9.5293742492
 20
-1.9402733537
 10
9.5293742492
 20
-1.8198128735
 10
9.5293742492
 20
-1.8198128735
 10
9.5297368635
 20
-1.8185074619
 10
9.5303533079
 20
-1.8174196189
 10
9.5311510594
 20
-1.816585606
 10
9.532202641
 20
-1.8159691616
 10
9.532202641
 20
-1.8159691616
 10
9.5339794512
 20
-1.8163317759
 10
9.5352486013
 20
-1.8173833575
  0
LWPOLYLINE
  5
D0
330
1F
100
AcDbEntity
  8
0
  6
Continuous
 62
     7
100
AcDbPolyline
 90
       32
 70
   128
 43
0.0
 10
9.6454442017
 20
-1.8172383118
 10
9.6682555373
 20
-1.8488945427
 10
9.6682555373
 20
-1.8488945427
 10
9.6686181516
 20
-1.8512152744
 10
9.6686181516
 20
-1.8512152744
 10
9.6686181516
 20
-1.9122070046
 10
9.6686181516
 20
-1.9122070046
 10
9.6678566615
 20
-1.9142739063
 10
9.6678566615
 20
-1.9142739063
 10
9.6446856059
 20
-1.9456763072
 10
9.6446856059
 20
-1.9456763072
 10
9.6428000114
 20
-1.9459301372
 10
9.6428000114
 20
-1.9459301372
 10
9.5977633117
 20
-1.9459301372
 10
9.5977633117
 20
-1.9459301372
 10
9.5966392073
 20
-1.9449148171
 10
9.5966392073
 20
-1.9449148171
 10
9.5736494588
 20
-1.9132585862
 10
9.5736494588
 20
-1.9132585862
 10
9.5734681516
 20
-1.9106840244
 10
9.5734681516
 20
-1.9106840244
 10
9.5734681516
 20
-1.8494384642
 10
9.5734681516
 20
-1.8494384642
 10
9.5742296417
 20
-1.8476253926
 10
9.5742296417
 20
-1.8476253926
 10
9.5974006974
 20
-1.8164768217
 10
9.5974006974
 20
-1.8164768217
 10
9.5985248018
 20
-1.8159691616
 10
9.5985248018
 20
-1.8159691616
 10
9.6441416844
 20
-1.8162229916
 10
9.6441416844
 20
-1.8162229916
 10
9.645447096
 20
-1.8172383118
  0
LWPOLYLINE
  5
D1
330
1F
100
AcDbEntity
  8
0
  6
Continuous
 62
     7
100
AcDbPolyline
 90
       16
 70
   128
 43
0.0
 10
9.6616547877
 20
-1.8525569474
 10
9.6417846913
 20
-1.8252520884
 10
9.6417846913
 20
-1.8252520884
 10
9.600301612
 20
-1.8252520884
 10
9.600301612
 20
-1.8252520884
 10
9.5804303467
 20
-1.8523031174
 10
9.5804303467
 20
-1.8523031174
 10
9.5804303467
 20
-1.9093423514
 10
9.5804303467
 20
-1.9093423514
 10
9.600301612
 20
-1.9366472104
 10
9.600301612
 20
-1.9366472104
 10
9.6417846913
 20
-1.9366472104
 10
9.6417846913
 20
-1.9366472104
 10
9.6616559565
 20
-1.9090522599
 10
9.6616559565
 20
-1.9090522599
 10
9.6616559565
 20
-1.8525569474
  0
LWPOLYLINE
  5
D2
330
1F
100
AcDbEntity
  8
0
  6
Continuous
 62
     7
100
AcDbPolyline
 90
       61
 70
   128
 43
0.0
 10
9.7751523566
 20
-1.8172383118
 10
9.7981802515
 20
-1.8488945427
 10
9.7981802515
 20
-1.8488945427
 10
9.7985791272
 20
-1.8512152744
 10
9.7985791272
 20
-1.8512152744
 10
9.7985791272
 20
-1.9417963339
 10
9.7985791272
 20
-1.9417963339
 10
9.7981802515
 20
-1.9436094055
 10
9.7974550228
 20
-1.9448785557
 10
9.7964397027
 20
-1.9456763072
 10
9.7950980297
 20
-1.9459301372
 10
9.7950980297
 20
-1.9459301372
 10
9.7937200952
 20
-1.9456037843
 10
9.7925959908
 20
-1.9446247256
 10
9.7918707621
 20
-1.9428479154
 10
9.7916169321
 20
-1.9402008308
 10
9.7916169321
 20
-1.9402008308
 10
9.7916169321
 20
-1.8523756403
 10
9.7916169321
 20
-1.8523756403
 10
9.7717456669
 20
-1.8252520884
 10
9.7717456669
 20
-1.8252520884
 10
9.7526358917
 20
-1.8252520884
 10
9.7526358917
 20
-1.8252520884
 10
9.7103913224
 20
-1.8823275839
 10
9.7103913224
 20
-1.8823275839
 10
9.7103913224
 20
-1.9417600724
 10
9.7103913224
 20
-1.9417600724
 10
9.7098474009
 20
-1.9437181898
 10
9.7085782507
 20
-1.9454224772
 10
9.7085782507
 20
-1.9454224772
 10
9.7079255449
 20
-1.9457850915
 10
9.7069102248
 20
-1.9459301372
 10
9.7069102248
 20
-1.9459301372
 10
9.705423506
 20
-1.9456400458
 10
9.7043356631
 20
-1.9447697714
 10
9.7039367873
 20
-1.9440445427
 10
9.7036466958
 20
-1.943065484
 10
9.7035016501
 20
-1.9417963339
 10
9.7034291272
 20
-1.9402733537
 10
9.7034291272
 20
-1.9402733537
 10
9.7034291272
 20
-1.8195953049
 10
9.7034291272
 20
-1.8195953049
 10
9.7037917416
 20
-1.818181109
 10
9.7044444474
 20
-1.8171295275
 10
9.7052784603
 20
-1.8163680374
 10
9.7064025647
 20
-1.8159691616
 10
9.7064025647
 20
-1.8159691616
 10
9.7079618063
 20
-1.8162955145
 10
9.7092309565
 20
-1.8173108346
 10
9.7097386166
 20
-1.818181109
 10
9.7101012309
 20
-1.819522782
 10
9.7103187995
 20
-1.8213358537
 10
9.7103913224
 20
-1.823620324
 10
9.7103913224
 20
-1.823620324
 10
9.7103913224
 20
-1.8685119779
 10
9.7103913224
 20
-1.8685119779
 10
9.7498074999
 20
-1.8159691616
 10
9.7498074999
 20
-1.8159691616
 10
9.7738125685
 20
-1.8162229916
 10
9.7738125685
 20
-1.8162229916
 10
9.7751542416
 20
-1.8172383118
  0
LWPOLYLINE
  5
D3
330
1F
100
AcDbEntity
  8
0
  6
Continuous
 62
     7
100
AcDbPolyline
 90
       50
 70
   128
 43
0.0
 10
9.8824125575
 20
-1.8169844817
 10
9.9049701714
 20
-1.8486407127
 10
9.9049701714
 20
-1.8486407127
 10
9.9053327858
 20
-1.8501999543
 10
9.9053327858
 20
-1.8501999543
 10
9.9053327858
 20
-1.9083632927
 10
9.9053327858
 20
-1.9083632927
 10
9.927887397
 20
-1.937952622
 10
9.927887397
 20
-1.937952622
 10
9.9283225342
 20
-1.9398019551
 10
9.92846758
 20
-1.9407810137
 10
9.92846758
 20
-1.9407810137
 10
9.9284313185
 20
-1.9416875496
 10
9.9282862728
 20
-1.9423402554
 10
9.9282862728
 20
-1.9423402554
 10
9.9278511356
 20
-1.9436094055
 10
9.9273072141
 20
-1.9446609871
 10
9.9266182469
 20
-1.9454224772
 10
9.9258204954
 20
-1.9459301372
 10
9.9258204954
 20
-1.9459301372
 10
9.9245513452
 20
-1.9458938758
 10
9.9235360251
 20
-1.9458213529
 10
9.922774535
 20
-1.9456763072
 10
9.9222668749
 20
-1.9454587386
 10
9.9222668749
 20
-1.9454587386
 10
9.9026857012
 20
-1.9211273171
 10
9.9026857012
 20
-1.9211273171
 10
9.8827056516
 20
-1.9457125686
 10
9.8827056516
 20
-1.9457125686
 10
9.88140024
 20
-1.9459301372
 10
9.88140024
 20
-1.9459301372
 10
9.8576852629
 20
-1.9459301372
 10
9.8576852629
 20
-1.9459301372
 10
9.8565611585
 20
-1.9449148171
 10
9.8565611585
 20
-1.9449148171
 10
9.83357141
 20
-1.9132585862
 10
9.83357141
 20
-1.9132585862
 10
9.8333901028
 20
-1.9106840244
 10
9.8333901028
 20
-1.9106840244
 10
9.8333901028
 20
-1.8494384642
 10
9.8333901028
 20
-1.8494384642
 10
9.8341153315
 20
-1.8476253926
 10
9.8341153315
 20
-1.8476253926
 10
9.8568875114
 20
-1.8164768217
 10
9.8568875114
 20
-1.8164768217
 10
9.8579753544
 20
-1.8159691616
 10
9.8579753544
 20
-1.8159691616
 10
9.8809288414
 20
-1.8162229916
 10
9.8809288414
 20
-1.8162229916
 10
9.8824155602
 20
-1.8169844817
  0
LWPOLYLINE
  5
D4
330
1F
100
AcDbEntity
  8
0
  6
Continuous
 62
     7
100
AcDbPolyline
 90
       16
 70
   128
 43
0.0
 10
9.8983697065
 20
-1.8525569474
 10
9.8787894169
 20
-1.8252520884
 10
9.8787894169
 20
-1.8252520884
 10
9.8599334717
 20
-1.8252520884
 10
9.8599334717
 20
-1.8252520884
 10
9.840352298
 20
-1.8523031174
 10
9.840352298
 20
-1.8523031174
 10
9.840352298
 20
-1.9093423514
 10
9.840352298
 20
-1.9093423514
 10
9.8599334717
 20
-1.9366472104
 10
9.8599334717
 20
-1.9366472104
 10
9.8787894169
 20
-1.9366472104
 10
9.8787894169
 20
-1.9366472104
 10
9.8983705906
 20
-1.9090522599
 10
9.8983705906
 20
-1.9090522599
 10
9.8983705906
 20
-1.8525569474
  0
LWPOLYLINE
  5
D5
330
1F
100
AcDbEntity
  8
0
  6
Continuous
 62
     7
100
AcDbPolyline
 90
       33
 70
   128
 43
0.0
 10
9.9692945405
 20
-1.7570443331
 10
9.9697330906
 20
-1.7579871304
 10
9.9700594435
 20
-1.7593288034
 10
9.9702407507
 20
-1.761141875
 10
9.9703132736
 20
-1.7633900839
 10
9.9703132736
 20
-1.7633900839
 10
9.9703132736
 20
-1.9084358156
 10
9.9703132736
 20
-1.9084358156
 10
9.9925052705
 20
-1.9379163605
 10
9.9925052705
 20
-1.9379163605
 10
9.9929404077
 20
-1.9392217721
 10
9.9930854535
 20
-1.9404909223
 10
9.9930854535
 20
-1.9404909223
 10
9.9928316234
 20
-1.9424490397
 10
9.9920338719
 20
-1.9442621113
 10
9.9907647217
 20
-1.945495
 10
9.9889516501
 20
-1.9459301372
 10
9.9889516501
 20
-1.9459301372
 10
9.9872473628
 20
-1.9456763072
 10
9.9872473628
 20
-1.9456763072
 10
9.9639312614
 20
-1.9136212005
 10
9.9639312614
 20
-1.9136212005
 10
9.9633510785
 20
-1.9115542988
 10
9.9633510785
 20
-1.9115542988
 10
9.9633510785
 20
-1.7592562805
 10
9.9633510785
 20
-1.7592562805
 10
9.9637862156
 20
-1.7578420846
 10
9.96440266
 20
-1.7567905031
 10
9.9652004115
 20
-1.756029013
 10
9.9661794702
 20
-1.7556301372
 10
9.9661794702
 20
-1.7556301372
 10
9.9680288033
 20
-1.7559927515
 10
9.9692979535
 20
-1.7570443331
  0
LWPOLYLINE
  5
D6
330
1F
100
AcDbEntity
  8
0
  6
Continuous
 62
     7
100
AcDbPolyline
 90
       51
 70
   128
 43
0.0
 10
10.1642345819
 20
-1.7570805945
 10
10.1646745541
 20
-1.7580233918
 10
10.165000907
 20
-1.7593650648
 10
10.1651822141
 20
-1.7612143979
 10
10.165254737
 20
-1.7634626067
 10
10.165254737
 20
-1.7634626067
 10
10.165254737
 20
-1.9097774886
 10
10.165254737
 20
-1.9097774886
 10
10.1851260022
 20
-1.9366472104
 10
10.1851260022
 20
-1.9366472104
 10
10.2266090815
 20
-1.9366472104
 10
10.2266090815
 20
-1.9366472104
 10
10.2464803467
 20
-1.9095236586
 10
10.2464803467
 20
-1.9095236586
 10
10.2464803467
 20
-1.7592925419
 10
10.2464803467
 20
-1.7592925419
 10
10.2469880068
 20
-1.7578783461
 10
10.2476044512
 20
-1.7567905031
 10
10.2484022027
 20
-1.7560652744
 10
10.2493087385
 20
-1.7556301372
 10
10.2493087385
 20
-1.7556301372
 10
10.2509767644
 20
-1.7559927515
 10
10.252282176
 20
-1.7570443331
 10
10.2527898361
 20
-1.7579871304
 10
10.2531524504
 20
-1.7593288034
 10
10.253370019
 20
-1.761141875
 10
10.2534425419
 20
-1.7633900839
 10
10.2534425419
 20
-1.7633900839
 10
10.2526810518
 20
-1.9141288605
 10
10.2526810518
 20
-1.9141288605
 10
10.2295099961
 20
-1.9456763072
 10
10.2295099961
 20
-1.9456763072
 10
10.2276244016
 20
-1.9459301372
 10
10.2276244016
 20
-1.9459301372
 10
10.1825877019
 20
-1.9459301372
 10
10.1825877019
 20
-1.9459301372
 10
10.1814635975
 20
-1.9448785557
 10
10.1814635975
 20
-1.9448785557
 10
10.1586551562
 20
-1.913077279
 10
10.1586551562
 20
-1.913077279
 10
10.1582925419
 20
-1.9105027172
 10
10.1582925419
 20
-1.9105027172
 10
10.1582925419
 20
-1.7592562805
 10
10.1582925419
 20
-1.7592562805
 10
10.1587276791
 20
-1.7578420846
 10
10.1593441234
 20
-1.7567905031
 10
10.1601418749
 20
-1.756029013
 10
10.1611209336
 20
-1.7556301372
 10
10.1611209336
 20
-1.7556301372
 10
10.1629702667
 20
-1.7559927515
 10
10.1642394169
 20
-1.7570805945
  0
LWPOLYLINE
  5
D7
330
1F
100
AcDbEntity
  8
0
  6
Continuous
 62
     7
100
AcDbPolyline
 90
       80
 70
   128
 43
0.0
 10
10.379045967
 20
-1.8161867302
 10
10.3802125114
 20
-1.8171657889
 10
10.3810827858
 20
-1.8188338148
 10
10.3810827858
 20
-1.8188338148
 10
10.3810465243
 20
-1.8204655793
 10
10.38093774
 20
-1.8217709909
 10
10.3807926943
 20
-1.822786311
 10
10.3805388643
 20
-1.8234752782
 10
10.3805388643
 20
-1.8234752782
 10
10.3799586813
 20
-1.8242367683
 10
10.3791609298
 20
-1.8248169512
 10
10.3781093483
 20
-1.8251433041
 10
10.3768401981
 20
-1.8252520884
 10
10.3768401981
 20
-1.8252520884
 10
10.3151595007
 20
-1.8252520884
 10
10.3151595007
 20
-1.8252520884
 10
10.2978627972
 20
-1.8519405031
 10
10.2978627972
 20
-1.8519405031
 10
10.315268285
 20
-1.8786289177
 10
10.315268285
 20
-1.8786289177
 10
10.3572590243
 20
-1.8786289177
 10
10.3572590243
 20
-1.8786289177
 10
10.3585281745
 20
-1.8796079764
 10
10.3585281745
 20
-1.8796079764
 10
10.3807201714
 20
-1.9099225343
 10
10.3807201714
 20
-1.9099225343
 10
10.3810102629
 20
-1.9112642073
 10
10.3810827858
 20
-1.9123883118
 10
10.3810827858
 20
-1.9123883118
 10
10.3810102629
 20
-1.9131498019
 10
10.3807201714
 20
-1.9143826906
 10
10.3807201714
 20
-1.9143826906
 10
10.3797773742
 20
-1.9160869779
 10
10.3797773742
 20
-1.9160869779
 10
10.3576941615
 20
-1.9456763072
 10
10.3576941615
 20
-1.9456763072
 10
10.3558448285
 20
-1.9459301372
 10
10.3558448285
 20
-1.9459301372
 10
10.2904654649
 20
-1.9459301372
 10
10.2904654649
 20
-1.9459301372
 10
10.2891600533
 20
-1.9448785557
 10
10.2882535175
 20
-1.943065484
 10
10.2882535175
 20
-1.943065484
 10
10.2887249161
 20
-1.9426303468
 10
10.2889062233
 20
-1.9421589482
 10
10.2887249161
 20
-1.941723811
 10
10.2882535175
 20
-1.9412886738
 10
10.2882535175
 20
-1.9412886738
 10
10.2885436089
 20
-1.9391855107
 10
10.2893776219
 20
-1.9377713148
 10
10.2900665891
 20
-1.9372636547
 10
10.2910819092
 20
-1.9369373019
 10
10.2923510594
 20
-1.9367197333
 10
10.293910301
 20
-1.9366472104
 10
10.293910301
 20
-1.9366472104
 10
10.3559898742
 20
-1.9366472104
 10
10.3559898742
 20
-1.9366472104
 10
10.3737217149
 20
-1.9121344817
 10
10.3737217149
 20
-1.9121344817
 10
10.3560261356
 20
-1.8879118445
 10
10.3560261356
 20
-1.8879118445
 10
10.3129112919
 20
-1.8879118445
 10
10.3129112919
 20
-1.8879118445
 10
10.3116058803
 20
-1.886860263
 10
10.3116058803
 20
-1.886860263
 10
10.2886161318
 20
-1.8542974962
 10
10.2886161318
 20
-1.8542974962
 10
10.2883623018
 20
-1.8532459147
 10
10.2882535175
 20
-1.851686673
 10
10.2882535175
 20
-1.851686673
 10
10.2882897789
 20
-1.8505625686
 10
10.2884348246
 20
-1.84983734
 10
10.2884348246
 20
-1.84983734
 10
10.2895589291
 20
-1.8479880069
 10
10.2895589291
 20
-1.8479880069
 10
10.3116784031
 20
-1.8164768217
 10
10.3116784031
 20
-1.8164768217
 10
10.3128025076
 20
-1.8159691616
 10
10.3128025076
 20
-1.8159691616
 10
10.3790521455
 20
-1.8161867302
  0
LWPOLYLINE
  5
D8
330
1F
100
AcDbEntity
  8
0
  6
Continuous
 62
     7
100
AcDbPolyline
 90
       52
 70
   128
 43
0.0
 10
10.4901171106
 20
-1.8172745732
 10
10.5129293559
 20
-1.8495835099
 10
10.5129293559
 20
-1.8495835099
 10
10.5132194474
 20
-1.8504175229
 10
10.5132919702
 20
-1.8519405031
 10
10.5132919702
 20
-1.8519405031
 10
10.5132557088
 20
-1.8532459147
 10
10.5131106631
 20
-1.8540436662
 10
10.5131106631
 20
-1.8540436662
 10
10.5121678658
 20
-1.8558929993
 10
10.5121678658
 20
-1.8558929993
 10
10.4889242873
 20
-1.8874041845
 10
10.4889242873
 20
-1.8874041845
 10
10.4870386928
 20
-1.8879118445
 10
10.4870386928
 20
-1.8879118445
 10
10.4251766882
 20
-1.8879118445
 10
10.4251766882
 20
-1.8879118445
 10
10.4251766882
 20
-1.9101038415
 10
10.4251766882
 20
-1.9101038415
 10
10.4448303849
 20
-1.9366472104
 10
10.4448303849
 20
-1.9366472104
 10
10.4883803658
 20
-1.9366472104
 10
10.4883803658
 20
-1.9366472104
 10
10.4900846531
 20
-1.9376625305
 10
10.4909549275
 20
-1.9389679421
 10
10.4913175419
 20
-1.9402733537
 10
10.4914263262
 20
-1.9412886738
 10
10.4914263262
 20
-1.9412886738
 10
10.491245019
 20
-1.943319314
 10
10.4906648361
 20
-1.9447697714
 10
10.4897220388
 20
-1.9456400458
 10
10.4884166272
 20
-1.9459301372
 10
10.4884166272
 20
-1.9459301372
 10
10.4425096531
 20
-1.9459301372
 10
10.4425096531
 20
-1.9459301372
 10
10.4413492873
 20
-1.9449148171
 10
10.4413492873
 20
-1.9449148171
 10
10.4183958003
 20
-1.9132585862
 10
10.4183958003
 20
-1.9132585862
 10
10.4182144931
 20
-1.9106840244
 10
10.4182144931
 20
-1.9106840244
 10
10.4182144931
 20
-1.8494384642
 10
10.4182144931
 20
-1.8494384642
 10
10.4189759832
 20
-1.8476253926
 10
10.4189759832
 20
-1.8476253926
 10
10.4421107774
 20
-1.8164768217
 10
10.4421107774
 20
-1.8164768217
 10
10.4432711432
 20
-1.8159691616
 10
10.4432711432
 20
-1.8159691616
 10
10.488815503
 20
-1.8162229916
 10
10.488815503
 20
-1.8162229916
 10
10.4901209146
 20
-1.8172745732
  0
LWPOLYLINE
  5
D9
330
1F
100
AcDbEntity
  8
0
  6
Continuous
 62
     7
100
AcDbPolyline
 90
       12
 70
   128
 43
0.0
 10
10.5036806873
 20
-1.8517954573
 10
10.4857695426
 20
-1.8252520884
 10
10.4857695426
 20
-1.8252520884
 10
10.4447941234
 20
-1.8252520884
 10
10.4447941234
 20
-1.8252520884
 10
10.4251766882
 20
-1.8540436662
 10
10.4251766882
 20
-1.8540436662
 10
10.4251766882
 20
-1.8786289177
 10
10.4251766882
 20
-1.8786289177
 10
10.4855882355
 20
-1.8786289177
 10
10.4855882355
 20
-1.8786289177
 10
10.5036826905
 20
-1.8517954573
  0
LWPOLYLINE
  5
DA
330
1F
100
AcDbEntity
  8
0
  6
Continuous
 62
     7
100
AcDbPolyline
 90
       30
 70
   128
 43
0.0
 10
10.770812748
 20
-1.7558839672
 10
10.7716909413
 20
-1.756282843
 10
10.7723799085
 20
-1.7568992874
 10
10.77292383
 20
-1.7578420846
 10
10.7732864443
 20
-1.7590024505
 10
10.7732864443
 20
-1.7590024505
 10
10.7732864443
 20
-1.7633900839
 10
10.7732864443
 20
-1.7633900839
 10
10.7732864443
 20
-1.9417963339
 10
10.7732864443
 20
-1.9417963339
 10
10.7725974771
 20
-1.9440445427
 10
10.7712195426
 20
-1.9456763072
 10
10.7712195426
 20
-1.9456763072
 10
10.7698778696
 20
-1.9459301372
 10
10.7698778696
 20
-1.9459301372
 10
10.6806022217
 20
-1.9459301372
 10
10.6806022217
 20
-1.9459301372
 10
10.6790429801
 20
-1.9445522028
 10
10.6781364443
 20
-1.942557824
 10
10.6781364443
 20
-1.942557824
 10
10.6781364443
 20
-1.9374087005
 10
10.6781364443
 20
-1.9374087005
 10
10.6781364443
 20
-1.7592562805
 10
10.6781364443
 20
-1.7592562805
 10
10.6785715815
 20
-1.7580596532
 10
10.6792242873
 20
-1.7570443331
 10
10.6801670845
 20
-1.7562465816
 10
10.6813637118
 20
-1.7556301372
 10
10.6813637118
 20
-1.7556301372
 10
10.7708206669
 20
-1.7558839672
  0
LWPOLYLINE
  5
DB
330
1F
100
AcDbEntity
  8
0
  6
Continuous
 62
     7
100
AcDbPolyline
 90
        8
 70
   128
 43
0.0
 10
10.7663165866
 20
-1.9366472104
 10
10.7663242492
 20
-1.764913064
 10
10.7663242492
 20
-1.764913064
 10
10.6850986394
 20
-1.764913064
 10
10.6850986394
 20
-1.764913064
 10
10.6850986394
 20
-1.9366472104
 10
10.6850986394
 20
-1.9366472104
 10
10.7663242492
 20
-1.9366472104
  0
LWPOLYLINE
  5
DC
330
1F
100
AcDbEntity
  8
0
  6
Continuous
 62
     7
100
AcDbPolyline
 90
       61
 70
   128
 43
0.0
 10
10.8798188487
 20
-1.8172383118
 10
10.9028485442
 20
-1.8488945427
 10
10.9028485442
 20
-1.8488945427
 10
10.9032474199
 20
-1.8512152744
 10
10.9032474199
 20
-1.8512152744
 10
10.9032474199
 20
-1.9417963339
 10
10.9032474199
 20
-1.9417963339
 10
10.9028485442
 20
-1.9436094055
 10
10.9021233155
 20
-1.9448785557
 10
10.9011079954
 20
-1.9456763072
 10
10.8997663224
 20
-1.9459301372
 10
10.8997663224
 20
-1.9459301372
 10
10.8983883879
 20
-1.9456037843
 10
10.8972642835
 20
-1.9446247256
 10
10.8965390548
 20
-1.9428479154
 10
10.8962852248
 20
-1.9402008308
 10
10.8962852248
 20
-1.9402008308
 10
10.8962852248
 20
-1.8523756403
 10
10.8962852248
 20
-1.8523756403
 10
10.8764139595
 20
-1.8252520884
 10
10.8764139595
 20
-1.8252520884
 10
10.8573041844
 20
-1.8252520884
 10
10.8573041844
 20
-1.8252520884
 10
10.815059615
 20
-1.8823275839
 10
10.815059615
 20
-1.8823275839
 10
10.815059615
 20
-1.9417600724
 10
10.815059615
 20
-1.9417600724
 10
10.8145156935
 20
-1.9437181898
 10
10.8132465434
 20
-1.9454224772
 10
10.8132465434
 20
-1.9454224772
 10
10.8125938376
 20
-1.9457850915
 10
10.8115785175
 20
-1.9459301372
 10
10.8115785175
 20
-1.9459301372
 10
10.8100917987
 20
-1.9456400458
 10
10.8090039557
 20
-1.9447697714
 10
10.80860508
 20
-1.9440445427
 10
10.8083149885
 20
-1.943065484
 10
10.8081699428
 20
-1.9417963339
 10
10.8080974199
 20
-1.9402733537
 10
10.8080974199
 20
-1.9402733537
 10
10.8080974199
 20
-1.8195953049
 10
10.8080974199
 20
-1.8195953049
 10
10.8084600342
 20
-1.818181109
 10
10.80911274
 20
-1.8171295275
 10
10.809946753
 20
-1.8163680374
 10
10.8110708574
 20
-1.8159691616
 10
10.8110708574
 20
-1.8159691616
 10
10.812630099
 20
-1.8162955145
 10
10.8138992492
 20
-1.8173108346
 10
10.8144069092
 20
-1.818181109
 10
10.8147695236
 20
-1.819522782
 10
10.8149870922
 20
-1.8213358537
 10
10.815059615
 20
-1.823620324
 10
10.815059615
 20
-1.823620324
 10
10.815059615
 20
-1.8685119779
 10
10.815059615
 20
-1.8685119779
 10
10.8544757926
 20
-1.8159691616
 10
10.8544757926
 20
-1.8159691616
 10
10.8784808612
 20
-1.8162229916
 10
10.8784808612
 20
-1.8162229916
 10
10.8798225342
 20
-1.8172383118
  0
LWPOLYLINE
  5
DD
330
1F
100
AcDbEntity
  8
0
  6
Continuous
 62
     7
100
AcDbPolyline
 90
       33
 70
   128
 43
0.0
 10
10.9440041339
 20
-1.7570443331
 10
10.9444404077
 20
-1.7579871304
 10
10.9447667606
 20
-1.7593288034
 10
10.9449480678
 20
-1.761141875
 10
10.9450205906
 20
-1.7633900839
 10
10.9450205906
 20
-1.7633900839
 10
10.9450205906
 20
-1.9084358156
 10
10.9450205906
 20
-1.9084358156
 10
10.9672125876
 20
-1.9379163605
 10
10.9672125876
 20
-1.9379163605
 10
10.9676477248
 20
-1.9392217721
 10
10.9677927705
 20
-1.9404909223
 10
10.9677927705
 20
-1.9404909223
 10
10.9675389405
 20
-1.9424490397
 10
10.966741189
 20
-1.9442621113
 10
10.9654720388
 20
-1.945495
 10
10.9636589672
 20
-1.9459301372
 10
10.9636589672
 20
-1.9459301372
 10
10.9619546798
 20
-1.9456763072
 10
10.9619546798
 20
-1.9456763072
 10
10.9386385785
 20
-1.9136212005
 10
10.9386385785
 20
-1.9136212005
 10
10.9380583955
 20
-1.9115542988
 10
10.9380583955
 20
-1.9115542988
 10
10.9380583955
 20
-1.7592562805
 10
10.9380583955
 20
-1.7592562805
 10
10.9384935327
 20
-1.7578420846
 10
10.9391099771
 20
-1.7567905031
 10
10.9399077286
 20
-1.756029013
 10
10.9408867873
 20
-1.7556301372
 10
10.9408867873
 20
-1.7556301372
 10
10.9427361204
 20
-1.7559927515
 10
10.9440052705
 20
-1.7570443331
  0
LWPOLYLINE
  5
DE
330
1F
100
AcDbEntity
  8
0
  6
Continuous
 62
     7
100
AcDbPolyline
 90
       61
 70
   128
 43
0.0
 10
11.0094847642
 20
-1.8172745732
 10
11.0105812614
 20
-1.8196678278
 10
11.0105812614
 20
-1.8196678278
 10
11.0496348246
 20
-1.931171734
 10
11.0496348246
 20
-1.931171734
 10
11.0890510022
 20
-1.8183261547
 10
11.0890510022
 20
-1.8183261547
 10
11.0902113681
 20
-1.816839436
 10
11.0918068711
 20
-1.8159691616
 10
11.0918068711
 20
-1.8159691616
 10
11.0932573285
 20
-1.8161867302
 10
11.0944176943
 20
-1.8169119589
 10
11.0952879687
 20
-1.8180723247
 10
11.0958681516
 20
-1.8197040892
 10
11.0958681516
 20
-1.8197040892
 10
11.096484596
 20
-1.8198853964
 10
11.0967021646
 20
-1.820102965
 10
11.096484596
 20
-1.8204293179
 10
11.0958681516
 20
-1.8207919322
 10
11.0958681516
 20
-1.8207919322
 10
11.0958681516
 20
-1.8212633308
 10
11.0958681516
 20
-1.8215896837
 10
11.0958681516
 20
-1.8215896837
 10
11.0957956288
 20
-1.8223874352
 10
11.0956143216
 20
-1.8234027554
 10
11.0952517073
 20
-1.8246356441
 10
11.0947803086
 20
-1.8261223628
 10
11.0947803086
 20
-1.8261223628
 10
11.0311777553
 20
-2.0113457622
 10
11.0311777553
 20
-2.0113457622
 10
11.0300173894
 20
-2.0124698666
 10
11.0284218864
 20
-2.0132313567
 10
11.0284218864
 20
-2.0132313567
 10
11.0054321379
 20
-2.010910625
 10
11.0054321379
 20
-2.010910625
 10
11.0040542035
 20
-2.009822782
 10
11.0032201905
 20
-2.0082635404
 10
11.0032201905
 20
-2.0082635404
 10
11.0030751448
 20
-2.0075020503
 10
11.0030388833
 20
-2.0064867302
 10
11.0030388833
 20
-2.0064867302
 10
11.0033289748
 20
-2.0043473057
 10
11.0042355106
 20
-2.0028605869
 10
11.0049607393
 20
-2.0023166654
 10
11.0059760594
 20
-2.0019177897
 10
11.0072089481
 20
-2.0017002211
 10
11.0086956669
 20
-2.0016276982
 10
11.0086956669
 20
-2.0016276982
 10
11.0263912461
 20
-2.0016276982
 10
11.0263912461
 20
-2.0016276982
 10
11.0461537271
 20
-1.9454587386
 10
11.0461537271
 20
-1.9454587386
 10
11.0030388833
 20
-1.8229313567
 10
11.0030388833
 20
-1.8229313567
 10
11.0033289748
 20
-1.8200304421
 10
11.0041267263
 20
-1.8178547561
 10
11.0054321379
 20
-1.8164405602
 10
11.0071001638
 20
-1.8159691616
 10
11.0071001638
 20
-1.8159691616
 10
11.0082605297
 20
-1.8162955145
 10
11.0094934184
 20
-1.8172745732
  0
LWPOLYLINE
  5
DF
330
1F
100
AcDbEntity
  8
0
  6
Continuous
 62
     7
100
AcDbPolyline
 90
       30
 70
   128
 43
0.0
 10
11.1389441753
 20
-1.9078556326
 10
11.1393818711
 20
-1.9087621685
 10
11.139708224
 20
-1.9100675801
 10
11.1398895312
 20
-1.9118443903
 10
11.1399620541
 20
-1.9140200762
 10
11.1399620541
 20
-1.9140200762
 10
11.1399620541
 20
-1.9419051182
 10
11.1399620541
 20
-1.9419051182
 10
11.1394181326
 20
-1.9437907127
 10
11.1381489824
 20
-1.9454224772
 10
11.1381489824
 20
-1.9454224772
 10
11.1374962766
 20
-1.9457850915
 10
11.1364809565
 20
-1.9459301372
 10
11.1364809565
 20
-1.9459301372
 10
11.1349942378
 20
-1.9456400458
 10
11.1339063948
 20
-1.9448060328
 10
11.133507519
 20
-1.9441170656
 10
11.1332174275
 20
-1.9431380069
 10
11.1330723818
 20
-1.9419051182
 10
11.1329998589
 20
-1.9404183994
 10
11.1329998589
 20
-1.9404183994
 10
11.1329998589
 20
-1.9099950572
 10
11.1329998589
 20
-1.9099950572
 10
11.1334349961
 20
-1.908472077
 10
11.1340877019
 20
-1.9073479726
 10
11.1349217149
 20
-1.9066952668
 10
11.1359732964
 20
-1.9064776982
 10
11.1359732964
 20
-1.9064776982
 10
11.1377138452
 20
-1.9068040511
 10
11.1389467339
 20
-1.9078556326
  0
MTEXT
  5
E1
330
1F
100
AcDbEntity
  8
0
  6
Continuous
 62
     7
100
AcDbMText
 10
7.9749523043
 20
-2.0533717659
 30
0.0
 40
0.1903
 41
0.0
 71
     1
 72
     1
  1
SOLIDWORKS Educational Product.
  7
SLDTEXTSTYLE0
 73
     1
 44
1.0
  0
MTEXT
  5
E2
330
1F
100
AcDbEntity
  8
0
  6
Continuous
 62
     7
100
AcDbMText
 10
7.9749523043
 20
-2.3388217659
 30
0.0
 40
0.1903
 41
0.0
 71
     1
 72
     1
  1
For Instructional Use Only.
  7
SLDTEXTSTYLE0
 73
     1
 44
1.0
  0
ENDSEC
  0
SECTION
  2
OBJECTS
  0
DICTIONARY
  5
C
330
0
100
AcDbDictionary
281
     1
  3
ACAD_GROUP
350
D
  3
ACAD_LAYOUT
350
1A
  3
ACAD_MLINESTYLE
350
17
  3
ACAD_PLOTSETTINGS
350
19
  3
ACAD_PLOTSTYLENAME
350
E
  3
ACAD_SCALELIST
350
47
  0
DICTIONARY
  5
D
102
{ACAD_REACTORS
330
C
102
}
330
C
100
AcDbDictionary
281
     1
  0
DICTIONARY
  5
1A
102
{ACAD_REACTORS
330
C
102
}
330
C
100
AcDbDictionary
281
     1
  3
Layout1
350
1E
  3
Layout2
350
26
  3
Model
350
22
  0
DICTIONARY
  5
17
102
{ACAD_REACTORS
330
C
102
}
330
C
100
AcDbDictionary
281
     1
  3
Standard
350
18
  0
DICTIONARY
  5
19
102
{ACAD_REACTORS
330
C
102
}
330
C
100
AcDbDictionary
281
     1
  0
ACDBDICTIONARYWDFLT
  5
E
102
{ACAD_REACTORS
330
C
102
}
330
C
100
AcDbDictionary
281
     1
  3
Normal
350
F
100
AcDbDictionaryWithDefault
340
F
  0
DICTIONARY
  5
47
102
{ACAD_REACTORS
330
C
102
}
330
C
100
AcDbDictionary
281
     1
  3
A0
350
48
  3
A1
350
49
  3
A2
350
4A
  3
A3
350
4B
  3
A4
350
4C
  3
A5
350
4D
  3
A6
350
4E
  3
A7
350
4F
  3
A8
350
50
  3
A9
350
51
  3
B0
350
52
  3
B1
350
53
  3
B2
350
54
  3
B3
350
55
  3
B4
350
56
  3
B5
350
57
  3
B6
350
58
  3
B7
350
59
  3
B8
350
5A
  3
B9
350
5B
  3
C0
350
5C
  3
C1
350
5D
  3
C2
350
5E
  3
C3
350
5F
  3
C4
350
60
  3
C5
350
61
  3
C6
350
62
  3
C7
350
63
  3
C8
350
64
  3
C9
350
65
  3
D0
350
66
  3
D1
350
67
  3
D2
350
68
  0
LAYOUT
  5
1E
102
{ACAD_REACTORS
330
1A
102
}
330
1A
100
AcDbPlotSettings
  1

  2
none_device
  4

  6

 40
0.0
 41
0.0
 42
0.0
 43
0.0
 44
0.0
 45
0.0
 46
0.0
 47
0.0
 48
0.0
 49
0.0
140
0.0
141
0.0
142
1.0
143
1.0
 70
   688
 72
     0
 73
     0
 74
     5
  7

 75
    16
147
1.0
148
0.0
149
0.0
100
AcDbLayout
  1
Layout1
 70
     1
 71
     1
 10
0.0
 20
0.0
 11
12.0
 21
9.0
 12
0.0
 22
0.0
 32
0.0
 14
1.0000000000E+20
 24
1.0000000000E+20
 34
1.0000000000E+20
 15
-1.0000000000E+20
 25
-1.0000000000E+20
 35
-1.0000000000E+20
146
0.0
 13
0.0
 23
0.0
 33
0.0
 16
1.0
 26
0.0
 36
0.0
 17
0.0
 27
1.0
 37
0.0
 76
     0
330
1B
  0
LAYOUT
  5
26
102
{ACAD_REACTORS
330
1A
102
}
330
1A
100
AcDbPlotSettings
  1

  2
none_device
  4

  6

 40
0.0
 41
0.0
 42
0.0
 43
0.0
 44
0.0
 45
0.0
 46
0.0
 47
0.0
 48
0.0
 49
0.0
140
0.0
141
0.0
142
1.0
143
1.0
 70
   688
 72
     0
 73
     0
 74
     5
  7

 75
    16
147
1.0
148
0.0
149
0.0
100
AcDbLayout
  1
Layout2
 70
     1
 71
     2
 10
0.0
 20
0.0
 11
0.0
 21
0.0
 12
0.0
 22
0.0
 32
0.0
 14
0.0
 24
0.0
 34
0.0
 15
0.0
 25
0.0
 35
0.0
146
0.0
 13
0.0
 23
0.0
 33
0.0
 16
1.0
 26
0.0
 36
0.0
 17
0.0
 27
1.0
 37
0.0
 76
     0
330
23
  0
LAYOUT
  5
22
102
{ACAD_REACTORS
330
1A
102
}
330
1A
100
AcDbPlotSettings
  1

  2
none_device
  4
ANSI_A_(11.00_x_8.50_Inches)
  6

 40
6.35
 41
19.05
 42
6.35000508
 43
19.05000254
 44
279.4
 45
215.9
 46
-348.0830830475
 47
79.5558337882
 48
0.0
 49
0.0
140
0.0
141
0.0
142
1.9071923739
143
1.0
 70
  1696
 72
     0
 73
     0
 74
     0
  7

 75
     0
147
0.5913241897
148
-39.4088153714
149
0.0
100
AcDbLayout
  1
Model
 70
     1
 71
     0
 10
0.0
 20
0.0
 11
12.0
 21
9.0
 12
0.0
 22
0.0
 32
0.0
 14
7.9749523043
 24
-2.0132313567
 34
0.0
 15
11.9014466862
 25
2.399013635
 35
0.0
146
0.0
 13
0.0
 23
0.0
 33
0.0
 16
1.0
 26
0.0
 36
0.0
 17
0.0
 27
1.0
 37
0.0
 76
     0
330
1F
331
29
  0
MLINESTYLE
  5
18
102
{ACAD_REACTORS
330
17
102
}
330
17
100
AcDbMlineStyle
  2
Standard
 70
     0
  3

 62
   256
 51
90.0
 52
90.0
 71
     2
 49
0.5
 62
   256
  6
BYLAYER
 49
-0.5
 62
   256
  6
BYLAYER
  0
ACDBPLACEHOLDER
  5
F
102
{ACAD_REACTORS
330
E
102
}
330
E
  0
SCALE
  5
48
102
{ACAD_REACTORS
330
47
102
}
330
47
100
AcDbScale
 70
     0
300
1:1
140
1.0
141
1.0
290
     1
  0
SCALE
  5
49
102
{ACAD_REACTORS
330
47
102
}
330
47
100
AcDbScale
 70
     0
300
1:2
140
1.0
141
2.0
290
     0
  0
SCALE
  5
4A
102
{ACAD_REACTORS
330
47
102
}
330
47
100
AcDbScale
 70
     0
300
1:4
140
1.0
141
4.0
290
     0
  0
SCALE
  5
4B
102
{ACAD_REACTORS
330
47
102
}
330
47
100
AcDbScale
 70
     0
300
1:5
140
1.0
141
5.0
290
     0
  0
SCALE
  5
4C
102
{ACAD_REACTORS
330
47
102
}
330
47
100
AcDbScale
 70
     0
300
1:8
140
1.0
141
8.0
290
     0
  0
SCALE
  5
4D
102
{ACAD_REACTORS
330
47
102
}
330
47
100
AcDbScale
 70
     0
300
1:10
140
1.0
141
10.0
290
     0
  0
SCALE
  5
4E
102
{ACAD_REACTORS
330
47
102
}
330
47
100
AcDbScale
 70
     0
300
1:16
140
1.0
141
16.0
290
     0
  0
SCALE
  5
4F
102
{ACAD_REACTORS
330
47
102
}
330
47
100
AcDbScale
 70
     0
300
1:20
140
1.0
141
20.0
290
     0
  0
SCALE
  5
50
102
{ACAD_REACTORS
330
47
102
}
330
47
100
AcDbScale
 70
     0
300
1:30
140
1.0
141
30.0
290
     0
  0
SCALE
  5
51
102
{ACAD_REACTORS
330
47
102
}
330
47
100
AcDbScale
 70
     0
300
1:40
140
1.0
141
40.0
290
     0
  0
SCALE
  5
52
102
{ACAD_REACTORS
330
47
102
}
330
47
100
AcDbScale
 70
     0
300
1:50
140
1.0
141
50.0
290
     0
  0
SCALE
  5
53
102
{ACAD_REACTORS
330
47
102
}
330
47
100
AcDbScale
 70
     0
300
1:100
140
1.0
141
100.0
290
     0
  0
SCALE
  5
54
102
{ACAD_REACTORS
330
47
102
}
330
47
100
AcDbScale
 70
     0
300
2:1
140
2.0
141
1.0
290
     0
  0
SCALE
  5
55
102
{ACAD_REACTORS
330
47
102
}
330
47
100
AcDbScale
 70
     0
300
4:1
140
4.0
141
1.0
290
     0
  0
SCALE
  5
56
102
{ACAD_REACTORS
330
47
102
}
330
47
100
AcDbScale
 70
     0
300
8:1
140
8.0
141
1.0
290
     0
  0
SCALE
  5
57
102
{ACAD_REACTORS
330
47
102
}
330
47
100
AcDbScale
 70
     0
300
10:1
140
10.0
141
1.0
290
     0
  0
SCALE
  5
58
102
{ACAD_REACTORS
330
47
102
}
330
47
100
AcDbScale
 70
     0
300
100:1
140
100.0
141
1.0
290
     0
  0
SCALE
  5
59
102
{ACAD_REACTORS
330
47
102
}
330
47
100
AcDbScale
 70
     0
300
1/128" = 1'-0"
140
0.0078125
141
12.0
290
     0
  0
SCALE
  5
5A
102
{ACAD_REACTORS
330
47
102
}
330
47
100
AcDbScale
 70
     0
300
1/64" = 1'-0"
140
0.015625
141
12.0
290
     0
  0
SCALE
  5
5B
102
{ACAD_REACTORS
330
47
102
}
330
47
100
AcDbScale
 70
     0
300
1/32" = 1'-0"
140
0.03125
141
12.0
290
     0
  0
SCALE
  5
5C
102
{ACAD_REACTORS
330
47
102
}
330
47
100
AcDbScale
 70
     0
300
1/16" = 1'-0"
140
0.0625
141
12.0
290
     0
  0
SCALE
  5
5D
102
{ACAD_REACTORS
330
47
102
}
330
47
100
AcDbScale
 70
     0
300
3/32" = 1'-0"
140
0.09375
141
12.0
290
     0
  0
SCALE
  5
5E
102
{ACAD_REACTORS
330
47
102
}
330
47
100
AcDbScale
 70
     0
300
1/8" = 1'-0"
140
0.125
141
12.0
290
     0
  0
SCALE
  5
5F
102
{ACAD_REACTORS
330
47
102
}
330
47
100
AcDbScale
 70
     0
300
3/16" = 1'-0"
140
0.1875
141
12.0
290
     0
  0
SCALE
  5
60
102
{ACAD_REACTORS
330
47
102
}
330
47
100
AcDbScale
 70
     0
300
1/4" = 1'-0"
140
0.25
141
12.0
290
     0
  0
SCALE
  5
61
102
{ACAD_REACTORS
330
47
102
}
330
47
100
AcDbScale
 70
     0
300
3/8" = 1'-0"
140
0.375
141
12.0
290
     0
  0
SCALE
  5
62
102
{ACAD_REACTORS
330
47
102
}
330
47
100
AcDbScale
 70
     0
300
1/2" = 1'-0"
140
0.5
141
12.0
290
     0
  0
SCALE
  5
63
102
{ACAD_REACTORS
330
47
102
}
330
47
100
AcDbScale
 70
     0
300
3/4" = 1'-0"
140
0.75
141
12.0
290
     0
  0
SCALE
  5
64
102
{ACAD_REACTORS
330
47
102
}
330
47
100
AcDbScale
 70
     0
300
1" = 1'-0"
140
1.0
141
12.0
290
     0
  0
SCALE
  5
65
102
{ACAD_REACTORS
330
47
102
}
330
47
100
AcDbScale
 70
     0
300
1-1/2" = 1'-0"
140
1.5
141
12.0
290
     0
  0
SCALE
  5
66
102
{ACAD_REACTORS
330
47
102
}
330
47
100
AcDbScale
 70
     0
300
3" = 1'-0"
140
3.0
141
12.0
290
     0
  0
SCALE
  5
67
102
{ACAD_REACTORS
330
47
102
}
330
47
100
AcDbScale
 70
     0
300
6" = 1'-0"
140
6.0
141
12.0
290
     0
  0
SCALE
  5
68
102
{ACAD_REACTORS
330
47
102
}
330
47
100
AcDbScale
 70
     0
300
1'-0" = 1'-0"
140
12.0
141
12.0
290
     0
  0
ENDSEC
  0
EOF
