  0
SECTION
  2
HEADER
  9
$ACADVER
  1
AC1027
  9
$ACADMAINTVER
 70
     8
  9
$DWGCODEPAGE
  3
ANSI_1252
  9
$REQUIREDVERSIONS
160
                 0
  9
$INSBASE
 10
0.0
 20
0.0
 30
0.0
  9
$EXTMIN
 10
1.000000000000000E+20
 20
1.000000000000000E+20
 30
1.000000000000000E+20
  9
$EXTMAX
 10
-1.000000000000000E+20
 20
-1.000000000000000E+20
 30
-1.000000000000000E+20
  9
$LIMMIN
 10
0.0
 20
0.0
  9
$LIMMAX
 10
9.5
 20
7.5
  9
$ORTHOMODE
 70
     0
  9
$REGENMODE
 70
     1
  9
$FILLMODE
 70
     1
  9
$QTEXTMODE
 70
     0
  9
$MIRRTEXT
 70
     1
  9
$LTSCALE
 40
1.0
  9
$ATTMODE
 70
     1
  9
$TEXTSIZE
 40
2.5
  9
$TRACEWID
 40
1.0
  9
$TEXTSTYLE
  7
Standard
  9
$CLAYER
  8
0
  9
$CELTYPE
  6
ByLayer
  9
$CECOLOR
 62
   256
  9
$CELTSCALE
 40
1.0
  9
$DISPSILH
 70
     0
  9
$DIMSCALE
 40
1.0
  9
$DIMASZ
 40
2.5
  9
$DIMEXO
 40
0.625
  9
$DIMDLI
 40
3.75
  9
$DIMRND
 40
0.0
  9
$DIMDLE
 40
0.0
  9
$DIMEXE
 40
1.25
  9
$DIMTP
 40
0.0
  9
$DIMTM
 40
0.0
  9
$DIMTXT
 40
2.5
  9
$DIMCEN
 40
2.5
  9
$DIMTSZ
 40
0.0
  9
$DIMTOL
 70
     0
  9
$DIMLIM
 70
     0
  9
$DIMTIH
 70
     0
  9
$DIMTOH
 70
     0
  9
$DIMSE1
 70
     0
  9
$DIMSE2
 70
     0
  9
$DIMTAD
 70
     1
  9
$DIMZIN
 70
     8
  9
$DIMBLK
  1

  9
$DIMASO
 70
     1
  9
$DIMSHO
 70
     1
  9
$DIMPOST
  1

  9
$DIMAPOST
  1

  9
$DIMALT
 70
     0
  9
$DIMALTD
 70
     3
  9
$DIMALTF
 40
0.03937007874016
  9
$DIMLFAC
 40
1.0
  9
$DIMTOFL
 70
     1
  9
$DIMTVP
 40
0.0
  9
$DIMTIX
 70
     0
  9
$DIMSOXD
 70
     0
  9
$DIMSAH
 70
     0
  9
$DIMBLK1
  1

  9
$DIMBLK2
  1

  9
$DIMSTYLE
  2
ISO-25
  9
$DIMCLRD
 70
     0
  9
$DIMCLRE
 70
     0
  9
$DIMCLRT
 70
     0
  9
$DIMTFAC
 40
1.0
  9
$DIMGAP
 40
0.625
  9
$DIMJUST
 70
     0
  9
$DIMSD1
 70
     0
  9
$DIMSD2
 70
     0
  9
$DIMTOLJ
 70
     0
  9
$DIMTZIN
 70
     8
  9
$DIMALTZ
 70
     0
  9
$DIMALTTZ
 70
     0
  9
$DIMUPT
 70
     0
  9
$DIMDEC
 70
     2
  9
$DIMTDEC
 70
     2
  9
$DIMALTU
 70
     2
  9
$DIMALTTD
 70
     3
  9
$DIMTXSTY
  7
Standard
  9
$DIMAUNIT
 70
     0
  9
$DIMADEC
 70
     0
  9
$DIMALTRND
 40
0.0
  9
$DIMAZIN
 70
     0
  9
$DIMDSEP
 70
    44
  9
$DIMATFIT
 70
     3
  9
$DIMFRAC
 70
     0
  9
$DIMLDRBLK
  1

  9
$DIMLUNIT
 70
     2
  9
$DIMLWD
 70
    -2
  9
$DIMLWE
 70
    -2
  9
$DIMTMOVE
 70
     0
  9
$DIMFXL
 40
1.0
  9
$DIMFXLON
 70
     0
  9
$DIMJOGANG
 40
0.7853981633974483
  9
$DIMTFILL
 70
     0
  9
$DIMTFILLCLR
 70
     0
  9
$DIMARCSYM
 70
     0
  9
$DIMLTYPE
  6

  9
$DIMLTEX1
  6

  9
$DIMLTEX2
  6

  9
$DIMTXTDIRECTION
 70
     0
  9
$LUNITS
 70
     2
  9
$LUPREC
 70
     4
  9
$SKETCHINC
 40
1.0
  9
$FILLETRAD
 40
10.0
  9
$AUNITS
 70
     0
  9
$AUPREC
 70
     0
  9
$MENU
  1
.
  9
$ELEVATION
 40
0.0
  9
$PELEVATION
 40
0.0
  9
$THICKNESS
 40
0.0
  9
$LIMCHECK
 70
     0
  9
$CHAMFERA
 40
0.0
  9
$CHAMFERB
 40
0.0
  9
$CHAMFERC
 40
0.0
  9
$CHAMFERD
 40
0.0
  9
$SKPOLY
 70
     0
  9
$TDCREATE
 40
2458541.025717905
  9
$TDUCREATE
 40
2458541.359051238
  9
$TDUPDATE
 40
2458541.025720683
  9
$TDUUPDATE
 40
2458541.359054016
  9
$TDINDWG
 40
0.0000000116
  9
$TDUSRTIMER
 40
0.0000000116
  9
$USRTIMER
 70
     1
  9
$ANGBASE
 50
0.0
  9
$ANGDIR
 70
     0
  9
$PDMODE
 70
     0
  9
$PDSIZE
 40
0.0
  9
$PLINEWID
 40
0.0
  9
$SPLFRAME
 70
     0
  9
$SPLINETYPE
 70
     6
  9
$SPLINESEGS
 70
     8
  9
$HANDSEED
  5
2F7
  9
$SURFTAB1
 70
     6
  9
$SURFTAB2
 70
     6
  9
$SURFTYPE
 70
     6
  9
$SURFU
 70
     6
  9
$SURFV
 70
     6
  9
$UCSBASE
  2

  9
$UCSNAME
  2

  9
$UCSORG
 10
0.0
 20
0.0
 30
0.0
  9
$UCSXDIR
 10
1.0
 20
0.0
 30
0.0
  9
$UCSYDIR
 10
0.0
 20
1.0
 30
0.0
  9
$UCSORTHOREF
  2

  9
$UCSORTHOVIEW
 70
     0
  9
$UCSORGTOP
 10
0.0
 20
0.0
 30
0.0
  9
$UCSORGBOTTOM
 10
0.0
 20
0.0
 30
0.0
  9
$UCSORGLEFT
 10
0.0
 20
0.0
 30
0.0
  9
$UCSORGRIGHT
 10
0.0
 20
0.0
 30
0.0
  9
$UCSORGFRONT
 10
0.0
 20
0.0
 30
0.0
  9
$UCSORGBACK
 10
0.0
 20
0.0
 30
0.0
  9
$PUCSBASE
  2

  9
$PUCSNAME
  2

  9
$PUCSORG
 10
0.0
 20
0.0
 30
0.0
  9
$PUCSXDIR
 10
1.0
 20
0.0
 30
0.0
  9
$PUCSYDIR
 10
0.0
 20
1.0
 30
0.0
  9
$PUCSORTHOREF
  2

  9
$PUCSORTHOVIEW
 70
     0
  9
$PUCSORGTOP
 10
0.0
 20
0.0
 30
0.0
  9
$PUCSORGBOTTOM
 10
0.0
 20
0.0
 30
0.0
  9
$PUCSORGLEFT
 10
0.0
 20
0.0
 30
0.0
  9
$PUCSORGRIGHT
 10
0.0
 20
0.0
 30
0.0
  9
$PUCSORGFRONT
 10
0.0
 20
0.0
 30
0.0
  9
$PUCSORGBACK
 10
0.0
 20
0.0
 30
0.0
  9
$USERI1
 70
     0
  9
$USERI2
 70
     0
  9
$USERI3
 70
     0
  9
$USERI4
 70
     0
  9
$USERI5
 70
     0
  9
$USERR1
 40
0.0
  9
$USERR2
 40
0.0
  9
$USERR3
 40
0.0
  9
$USERR4
 40
0.0
  9
$USERR5
 40
0.0
  9
$WORLDVIEW
 70
     1
  9
$SHADEDGE
 70
     3
  9
$SHADEDIF
 70
    70
  9
$TILEMODE
 70
     1
  9
$MAXACTVP
 70
    64
  9
$PINSBASE
 10
0.0
 20
0.0
 30
0.0
  9
$PLIMCHECK
 70
     0
  9
$PEXTMIN
 10
1.000000000000000E+20
 20
1.000000000000000E+20
 30
1.000000000000000E+20
  9
$PEXTMAX
 10
-1.000000000000000E+20
 20
-1.000000000000000E+20
 30
-1.000000000000000E+20
  9
$PLIMMIN
 10
0.0
 20
0.0
  9
$PLIMMAX
 10
420.0
 20
297.0
  9
$UNITMODE
 70
     0
  9
$VISRETAIN
 70
     1
  9
$PLINEGEN
 70
     0
  9
$PSLTSCALE
 70
     1
  9
$TREEDEPTH
 70
  3020
  9
$CMLSTYLE
  2
Standard
  9
$CMLJUST
 70
     0
  9
$CMLSCALE
 40
20.0
  9
$PROXYGRAPHICS
 70
     1
  9
$MEASUREMENT
 70
     0
  9
$CELWEIGHT
370
    -1
  9
$ENDCAPS
280
     0
  9
$JOINSTYLE
280
     0
  9
$LWDISPLAY
290
     0
  9
$INSUNITS
 70
     4
  9
$HYPERLINKBASE
  1

  9
$STYLESHEET
  1

  9
$XEDIT
290
     1
  9
$CEPSNTYPE
380
     0
  9
$PSTYLEMODE
290
     1
  9
$FINGERPRINTGUID
  2
{76AEA6BE-6FA9-4662-A1A2-D95C56317D76}
  9
$VERSIONGUID
  2
{FAEB1C32-E019-11D5-929B-00C0DF256EC4}
  9
$EXTNAMES
290
     1
  9
$PSVPSCALE
 40
0.0
  9
$OLESTARTUP
290
     0
  9
$SORTENTS
280
   127
  9
$INDEXCTL
280
     0
  9
$HIDETEXT
280
     1
  9
$XCLIPFRAME
280
     2
  9
$HALOGAP
280
     0
  9
$OBSCOLOR
 70
   257
  9
$OBSLTYPE
280
     0
  9
$INTERSECTIONDISPLAY
280
     0
  9
$INTERSECTIONCOLOR
 70
   257
  9
$DIMASSOC
280
     2
  9
$PROJECTNAME
  1

  9
$CAMERADISPLAY
290
     0
  9
$LENSLENGTH
 40
50.0
  9
$CAMERAHEIGHT
 40
0.0
  9
$STEPSPERSEC
 40
2.0
  9
$STEPSIZE
 40
6.0
  9
$3DDWFPREC
 40
2.0
  9
$PSOLWIDTH
 40
5.0
  9
$PSOLHEIGHT
 40
80.0
  9
$LOFTANG1
 40
1.570796326794897
  9
$LOFTANG2
 40
1.570796326794897
  9
$LOFTMAG1
 40
0.0
  9
$LOFTMAG2
 40
0.0
  9
$LOFTPARAM
 70
     7
  9
$LOFTNORMALS
280
     1
  9
$LATITUDE
 40
37.795
  9
$LONGITUDE
 40
-122.394
  9
$NORTHDIRECTION
 40
0.0
  9
$TIMEZONE
 70
 -8000
  9
$LIGHTGLYPHDISPLAY
280
     1
  9
$TILEMODELIGHTSYNCH
280
     1
  9
$CMATERIAL
347
44
  9
$SOLIDHIST
280
     0
  9
$SHOWHIST
280
     1
  9
$DWFFRAME
280
     2
  9
$DGNFRAME
280
     2
  9
$REALWORLDSCALE
290
     1
  9
$INTERFERECOLOR
 62
   256
  9
$CSHADOW
280
     0
  9
$SHADOWPLANELOCATION
 40
0.0
  0
ENDSEC
  0
SECTION
  2
CLASSES
  0
CLASS
  1
ACDBDICTIONARYWDFLT
  2
AcDbDictionaryWithDefault
  3
ObjectDBX Classes
 90
        0
 91
        4
280
     0
281
     0
  0
CLASS
  1
VISUALSTYLE
  2
AcDbVisualStyle
  3
ObjectDBX Classes
 90
     4095
 91
        4
280
     0
281
     0
  0
CLASS
  1
MATERIAL
  2
AcDbMaterial
  3
ObjectDBX Classes
 90
     1153
 91
        4
280
     0
281
     0
  0
CLASS
  1
SCALE
  2
AcDbScale
  3
ObjectDBX Classes
 90
     1153
 91
        4
280
     0
281
     0
  0
CLASS
  1
TABLESTYLE
  2
AcDbTableStyle
  3
ObjectDBX Classes
 90
     4095
 91
        4
280
     0
281
     0
  0
CLASS
  1
MLEADERSTYLE
  2
AcDbMLeaderStyle
  3
ACDB_MLEADERSTYLE_CLASS
 90
     4095
 91
        4
280
     0
281
     0
  0
CLASS
  1
SUN
  2
AcDbSun
  3
SCENEOE
 90
     1153
 91
        4
280
     0
281
     0
  0
CLASS
  1
DICTIONARYVAR
  2
AcDbDictionaryVar
  3
ObjectDBX Classes
 90
        0
 91
        4
280
     0
281
     0
  0
CLASS
  1
CELLSTYLEMAP
  2
AcDbCellStyleMap
  3
ObjectDBX Classes
 90
     1152
 91
        4
280
     0
281
     0
  0
ENDSEC
  0
SECTION
  2
TABLES
  0
TABLE
  2
VPORT
  5
8
330
0
100
AcDbSymbolTable
 70
     1
  0
VPORT
  5
29
330
8
100
AcDbSymbolTableRecord
100
AcDbViewportTableRecord
  2
*Active
 70
     0
 10
0.0
 20
0.0
 11
1.0
 21
1.0
 12
344.1869158878504
 22
148.5
 13
0.0
 23
0.0
 14
10.0
 24
10.0
 15
10.0
 25
10.0
 16
0.0
 26
0.0
 36
1.0
 17
0.0
 27
0.0
 37
0.0
 40
297.0
 41
1.972972972850329
 42
50.0
 43
0.0
 44
0.0
 50
0.0
 51
0.0
 71
     0
 72
   100
 73
     1
 74
     3
 75
     0
 76
     0
 77
     0
 78
     0
281
     0
 65
     1
110
0.0
120
0.0
130
0.0
111
1.0
121
0.0
131
0.0
112
0.0
122
1.0
132
0.0
 79
     0
146
0.0
 60
     3
 61
     5
292
     1
282
     1
141
0.0
142
0.0
 63
   250
361
6D
  0
ENDTAB
  0
TABLE
  2
LTYPE
  5
5
330
0
100
AcDbSymbolTable
 70
     1
  0
LTYPE
  5
14
330
5
100
AcDbSymbolTableRecord
100
AcDbLinetypeTableRecord
  2
ByBlock
 70
     0
  3

 72
    65
 73
     0
 40
0.0
  0
LTYPE
  5
15
330
5
100
AcDbSymbolTableRecord
100
AcDbLinetypeTableRecord
  2
ByLayer
 70
     0
  3

 72
    65
 73
     0
 40
0.0
  0
LTYPE
  5
16
330
5
100
AcDbSymbolTableRecord
100
AcDbLinetypeTableRecord
  2
Continuous
 70
     0
  3
Solid line
 72
    65
 73
     0
 40
0.0
  0
ENDTAB
  0
TABLE
  2
LAYER
  5
2
330
0
100
AcDbSymbolTable
 70
     2
  0
LAYER
  5
10
330
2
100
AcDbSymbolTableRecord
100
AcDbLayerTableRecord
  2
0
 70
     0
 62
     7
  6
Continuous
370
    -3
390
F
347
46
348
0
  0
LAYER
  5
6E
330
2
100
AcDbSymbolTableRecord
100
AcDbLayerTableRecord
  2
Sheet
 70
     0
 62
   255
  6
Continuous
370
    -3
390
F
347
46
348
0
  0
ENDTAB
  0
TABLE
  2
STYLE
  5
3
330
0
100
AcDbSymbolTable
 70
     1
  0
STYLE
  5
11
330
3
100
AcDbSymbolTableRecord
100
AcDbTextStyleTableRecord
  2
Standard
 70
     0
 40
0.0
 41
1.0
 50
0.0
 71
     0
 42
2.5
  3
txt
  4

  0
ENDTAB
  0
TABLE
  2
VIEW
  5
6
330
0
100
AcDbSymbolTable
 70
     0
  0
ENDTAB
  0
TABLE
  2
UCS
  5
7
330
0
100
AcDbSymbolTable
 70
     0
  0
ENDTAB
  0
TABLE
  2
APPID
  5
9
330
0
100
AcDbSymbolTable
 70
     1
  0
APPID
  5
12
330
9
100
AcDbSymbolTableRecord
100
AcDbRegAppTableRecord
  2
ACAD
 70
     0
  0
ENDTAB
  0
TABLE
  2
DIMSTYLE
  5
A
330
0
100
AcDbSymbolTable
 70
     1
100
AcDbDimStyleTable
  0
DIMSTYLE
105
27
330
A
100
AcDbSymbolTableRecord
100
AcDbDimStyleTableRecord
  2
ISO-25
 70
     0
 41
2.5
 42
0.625
 43
3.75
 44
1.25
 73
     0
 74
     0
 77
     1
 78
     8
140
2.5
141
2.5
143
0.03937007874016
147
0.625
171
     3
172
     1
178
     0
271
     2
272
     2
274
     3
278
    44
283
     0
284
     8
340
11
  0
ENDTAB
  0
TABLE
  2
BLOCK_RECORD
  5
1
330
0
100
AcDbSymbolTable
 70
     1
  0
BLOCK_RECORD
  5
1F
330
1
100
AcDbSymbolTableRecord
100
AcDbBlockTableRecord
  2
*Model_Space
340
22
 70
     0
280
     1
281
     0
  0
BLOCK_RECORD
  5
1B
330
1
100
AcDbSymbolTableRecord
100
AcDbBlockTableRecord
  2
*Paper_Space
340
1E
 70
     0
280
     1
281
     0
  0
BLOCK_RECORD
  5
23
330
1
100
AcDbSymbolTableRecord
100
AcDbBlockTableRecord
  2
*Paper_Space0
340
26
 70
     0
280
     1
281
     0
  0
ENDTAB
  0
ENDSEC
  0
SECTION
  2
BLOCKS
  0
BLOCK
  5
20
330
1F
100
AcDbEntity
  8
0
100
AcDbBlockBegin
  2
*Model_Space
 70
     0
 10
0.0
 20
0.0
 30
0.0
  3
*Model_Space
  1

  0
ENDBLK
  5
21
330
1F
100
AcDbEntity
  8
0
100
AcDbBlockEnd
  0
BLOCK
  5
1C
330
1B
100
AcDbEntity
 67
     1
  8
0
100
AcDbBlockBegin
  2
*Paper_Space
 70
     0
 10
0.0
 20
0.0
 30
0.0
  3
*Paper_Space
  1

  0
ENDBLK
  5
1D
330
1B
100
AcDbEntity
 67
     1
  8
0
100
AcDbBlockEnd
  0
BLOCK
  5
24
330
23
100
AcDbEntity
  8
0
100
AcDbBlockBegin
  2
*Paper_Space0
 70
     0
 10
0.0
 20
0.0
 30
0.0
  3
*Paper_Space0
  1

  0
ENDBLK
  5
25
330
23
100
AcDbEntity
  8
0
100
AcDbBlockEnd
  0
ENDSEC
  0
SECTION
  2
ENTITIES
  0
LWPOLYLINE
  5
6F
330
1F
100
AcDbEntity
  8
Sheet
100
AcDbPolyline
 90
        2
 70
     1
 43
0.02
 10
1.39
 20
5.8
 42
1.0
 10
1.41
 20
5.8
 42
1.0
  0
LWPOLYLINE
  5
70
330
1F
100
AcDbEntity
  8
Sheet
100
AcDbPolyline
 90
        2
 70
     1
 43
0.02
 10
2.19
 20
2.6
 42
1.0
 10
2.21
 20
2.6
 42
1.0
  0
LWPOLYLINE
  5
71
330
1F
100
AcDbEntity
  8
Sheet
100
AcDbPolyline
 90
        2
 70
     1
 43
0.02
 10
2.49
 20
5.9
 42
1.0
 10
2.51
 20
5.9
 42
1.0
  0
LWPOLYLINE
  5
72
330
1F
100
AcDbEntity
  8
Sheet
100
AcDbPolyline
 90
        2
 70
     1
 43
0.02
 10
2.59
 20
2.1
 42
1.0
 10
2.61
 20
2.1
 42
1.0
  0
LWPOLYLINE
  5
73
330
1F
100
AcDbEntity
  8
Sheet
100
AcDbPolyline
 90
        2
 70
     1
 43
0.02
 10
2.59
 20
2.9
 42
1.0
 10
2.61
 20
2.9
 42
1.0
  0
LWPOLYLINE
  5
74
330
1F
100
AcDbEntity
  8
Sheet
100
AcDbPolyline
 90
        2
 70
     1
 43
0.02
 10
3.19
 20
2.5
 42
1.0
 10
3.21
 20
2.5
 42
1.0
  0
LWPOLYLINE
  5
75
330
1F
100
AcDbEntity
  8
Sheet
100
AcDbPolyline
 90
        2
 70
     1
 43
0.02
 10
3.99
 20
5.1
 42
1.0
 10
4.01
 20
5.1
 42
1.0
  0
LWPOLYLINE
  5
76
330
1F
100
AcDbEntity
  8
Sheet
100
AcDbPolyline
 90
        2
 70
     1
 43
0.02
 10
4.39
 20
4.6
 42
1.0
 10
4.41
 20
4.6
 42
1.0
  0
LWPOLYLINE
  5
77
330
1F
100
AcDbEntity
  8
Sheet
100
AcDbPolyline
 90
        2
 70
     1
 43
0.02
 10
4.39
 20
5.4
 42
1.0
 10
4.41
 20
5.4
 42
1.0
  0
LWPOLYLINE
  5
78
330
1F
100
AcDbEntity
  8
Sheet
100
AcDbPolyline
 90
        2
 70
     1
 43
0.02
 10
4.79
 20
1.8
 42
1.0
 10
4.81
 20
1.8
 42
1.0
  0
LWPOLYLINE
  5
79
330
1F
100
AcDbEntity
  8
Sheet
100
AcDbPolyline
 90
        2
 70
     1
 43
0.02
 10
4.79
 20
2.8
 42
1.0
 10
4.81
 20
2.8
 42
1.0
  0
LWPOLYLINE
  5
7A
330
1F
100
AcDbEntity
  8
Sheet
100
AcDbPolyline
 90
        2
 70
     1
 43
0.02
 10
5.09
 20
5.0
 42
1.0
 10
5.11
 20
5.0
 42
1.0
  0
LWPOLYLINE
  5
7B
330
1F
100
AcDbEntity
  8
Sheet
100
AcDbPolyline
 90
        2
 70
     1
 43
0.02
 10
5.29
 20
4.3
 42
1.0
 10
5.31
 20
4.3
 42
1.0
  0
LWPOLYLINE
  5
7C
330
1F
100
AcDbEntity
  8
Sheet
100
AcDbPolyline
 90
        2
 70
     1
 43
0.02
 10
5.39
 20
2.4
 42
1.0
 10
5.41
 20
2.4
 42
1.0
  0
LWPOLYLINE
  5
7D
330
1F
100
AcDbEntity
  8
Sheet
100
AcDbPolyline
 90
        2
 70
     1
 43
0.02
 10
6.69
 20
4.3
 42
1.0
 10
6.71
 20
4.3
 42
1.0
  0
LWPOLYLINE
  5
7E
330
1F
100
AcDbEntity
  8
Sheet
100
AcDbPolyline
 90
        2
 70
     1
 43
0.02
 10
6.69
 20
5.3
 42
1.0
 10
6.71
 20
5.3
 42
1.0
  0
LWPOLYLINE
  5
7F
330
1F
100
AcDbEntity
  8
Sheet
100
AcDbPolyline
 90
        2
 70
     1
 43
0.02
 10
7.29
 20
4.9
 42
1.0
 10
7.31
 20
4.9
 42
1.0
  0
SOLID
  5
80
330
1F
100
AcDbEntity
  8
Sheet
100
AcDbTrace
 10
6.43805
 20
4.97729
 30
0.0
 11
6.50617
 21
5.0
 31
0.0
 12
6.43805
 22
5.02271
 32
0.0
 13
6.43805
 23
5.02271
 33
0.0
  0
SOLID
  5
81
330
1F
100
AcDbEntity
  8
Sheet
100
AcDbTrace
 10
6.43805
 20
4.77729
 30
0.0
 11
6.50617
 21
4.8
 31
0.0
 12
6.43805
 22
4.82271
 32
0.0
 13
6.43805
 23
4.82271
 33
0.0
  0
SOLID
  5
82
330
1F
100
AcDbEntity
  8
Sheet
100
AcDbTrace
 10
4.13805
 20
5.07729
 30
0.0
 11
4.20617
 21
5.1
 31
0.0
 12
4.13805
 22
5.12271
 32
0.0
 13
4.13805
 23
5.12271
 33
0.0
  0
SOLID
  5
83
330
1F
100
AcDbEntity
  8
Sheet
100
AcDbTrace
 10
4.13805
 20
4.87729
 30
0.0
 11
4.20617
 21
4.9
 31
0.0
 12
4.13805
 22
4.92271
 32
0.0
 13
4.13805
 23
4.92271
 33
0.0
  0
SOLID
  5
84
330
1F
100
AcDbEntity
  8
Sheet
100
AcDbTrace
 10
4.59805
 20
4.97729
 30
0.0
 11
4.66617
 21
5.0
 31
0.0
 12
4.59805
 22
5.02271
 32
0.0
 13
4.59805
 23
5.02271
 33
0.0
  0
SOLID
  5
85
330
1F
100
AcDbEntity
  8
Sheet
100
AcDbTrace
 10
1.83805
 20
5.97729
 30
0.0
 11
1.90617
 21
6.0
 31
0.0
 12
1.83805
 22
6.02271
 32
0.0
 13
1.83805
 23
6.02271
 33
0.0
  0
SOLID
  5
86
330
1F
100
AcDbEntity
  8
Sheet
100
AcDbTrace
 10
1.83805
 20
5.77729
 30
0.0
 11
1.90617
 21
5.8
 31
0.0
 12
1.83805
 22
5.82271
 32
0.0
 13
1.83805
 23
5.82271
 33
0.0
  0
SOLID
  5
87
330
1F
100
AcDbEntity
  8
Sheet
100
AcDbTrace
 10
2.29805
 20
5.87729
 30
0.0
 11
2.36617
 21
5.9
 31
0.0
 12
2.29805
 22
5.92271
 32
0.0
 13
2.29805
 23
5.92271
 33
0.0
  0
SOLID
  5
88
330
1F
100
AcDbEntity
  8
Sheet
100
AcDbTrace
 10
4.53805
 20
2.47729
 30
0.0
 11
4.60617
 21
2.5
 31
0.0
 12
4.53805
 22
2.52271
 32
0.0
 13
4.53805
 23
2.52271
 33
0.0
  0
SOLID
  5
89
330
1F
100
AcDbEntity
  8
Sheet
100
AcDbTrace
 10
4.53805
 20
2.27729
 30
0.0
 11
4.60617
 21
2.3
 31
0.0
 12
4.53805
 22
2.32271
 32
0.0
 13
4.53805
 23
2.32271
 33
0.0
  0
SOLID
  5
8A
330
1F
100
AcDbEntity
  8
Sheet
100
AcDbTrace
 10
2.33805
 20
2.37729
 30
0.0
 11
2.40617
 21
2.4
 31
0.0
 12
2.33805
 22
2.42271
 32
0.0
 13
2.33805
 23
2.42271
 33
0.0
  0
SOLID
  5
8B
330
1F
100
AcDbEntity
  8
Sheet
100
AcDbTrace
 10
2.33805
 20
2.57729
 30
0.0
 11
2.40617
 21
2.6
 31
0.0
 12
2.33805
 22
2.62271
 32
0.0
 13
2.33805
 23
2.62271
 33
0.0
  0
SOLID
  5
8C
330
1F
100
AcDbEntity
  8
Sheet
100
AcDbTrace
 10
2.79805
 20
2.47729
 30
0.0
 11
2.86617
 21
2.5
 31
0.0
 12
2.79805
 22
2.52271
 32
0.0
 13
2.79805
 23
2.52271
 33
0.0
  0
LWPOLYLINE
  5
8D
330
1F
100
AcDbEntity
  8
Sheet
100
AcDbPolyline
 90
        5
 70
     0
 43
0.0039
 10
0.0
 20
7.5
 10
9.4983312
 20
7.5
 10
9.4983312
 20
0.0016696
 10
0.0
 20
0.0016696
 10
0.0
 20
7.5
  0
LWPOLYLINE
  5
8E
330
1F
100
AcDbEntity
  8
Sheet
100
AcDbPolyline
 90
        5
 70
     0
 43
0.0039
 10
0.2000033
 20
7.2999569
 10
9.298328
 20
7.2999569
 10
9.298328
 20
0.2017128
 10
0.2000033
 20
0.2017128
 10
0.2000033
 20
7.2999569
  0
LWPOLYLINE
  5
8F
330
1F
100
AcDbEntity
  8
Sheet
100
AcDbPolyline
 90
        2
 70
     0
 43
0.0039
 10
2.375
 20
0.2
 10
2.375
 20
0.0
  0
LWPOLYLINE
  5
90
330
1F
100
AcDbEntity
  8
Sheet
100
AcDbPolyline
 90
        2
 70
     0
 43
0.0039
 10
2.375
 20
7.3
 10
2.375
 20
7.5
  0
TEXT
  5
91
330
1F
100
AcDbEntity
  8
Sheet
100
AcDbText
 10
1.1716417
 20
0.070089
 30
0.0
 40
0.06
  1
1
100
AcDbText
  0
TEXT
  5
92
330
1F
100
AcDbEntity
  8
Sheet
100
AcDbText
 10
1.1716417
 20
7.3700888
 30
0.0
 40
0.06
  1
1
100
AcDbText
  0
LWPOLYLINE
  5
93
330
1F
100
AcDbEntity
  8
Sheet
100
AcDbPolyline
 90
        2
 70
     0
 43
0.0039
 10
4.75
 20
0.2
 10
4.75
 20
0.0
  0
LWPOLYLINE
  5
94
330
1F
100
AcDbEntity
  8
Sheet
100
AcDbPolyline
 90
        2
 70
     0
 43
0.0039
 10
4.75
 20
7.3
 10
4.75
 20
7.5
  0
TEXT
  5
95
330
1F
100
AcDbEntity
  8
Sheet
100
AcDbText
 10
3.5424684
 20
0.070089
 30
0.0
 40
0.06
  1
2
100
AcDbText
  0
TEXT
  5
96
330
1F
100
AcDbEntity
  8
Sheet
100
AcDbText
 10
3.5424684
 20
7.3700888
 30
0.0
 40
0.06
  1
2
100
AcDbText
  0
LWPOLYLINE
  5
97
330
1F
100
AcDbEntity
  8
Sheet
100
AcDbPolyline
 90
        2
 70
     0
 43
0.0039
 10
7.125
 20
0.2
 10
7.125
 20
0.0
  0
LWPOLYLINE
  5
98
330
1F
100
AcDbEntity
  8
Sheet
100
AcDbPolyline
 90
        2
 70
     0
 43
0.0039
 10
7.125
 20
7.3
 10
7.125
 20
7.5
  0
TEXT
  5
99
330
1F
100
AcDbEntity
  8
Sheet
100
AcDbText
 10
5.9199723
 20
0.070089
 30
0.0
 40
0.06
  1
3
100
AcDbText
  0
TEXT
  5
9A
330
1F
100
AcDbEntity
  8
Sheet
100
AcDbText
 10
5.9199723
 20
7.3700888
 30
0.0
 40
0.06
  1
3
100
AcDbText
  0
TEXT
  5
9B
330
1F
100
AcDbEntity
  8
Sheet
100
AcDbText
 10
8.2924684
 20
0.070089
 30
0.0
 40
0.06
  1
4
100
AcDbText
  0
TEXT
  5
9C
330
1F
100
AcDbEntity
  8
Sheet
100
AcDbText
 10
8.2924684
 20
7.3700888
 30
0.0
 40
0.06
  1
4
100
AcDbText
  0
LWPOLYLINE
  5
9D
330
1F
100
AcDbEntity
  8
Sheet
100
AcDbPolyline
 90
        2
 70
     0
 43
0.0039
 10
0.2
 20
1.875
 10
0.0
 20
1.875
  0
LWPOLYLINE
  5
9E
330
1F
100
AcDbEntity
  8
Sheet
100
AcDbPolyline
 90
        2
 70
     0
 43
0.0039
 10
9.3
 20
1.875
 10
9.5
 20
1.875
  0
TEXT
  5
9F
330
1F
100
AcDbEntity
  8
Sheet
100
AcDbText
 10
0.0699526
 20
0.8575
 30
0.0
 40
0.06
  1
D
100
AcDbText
  0
TEXT
  5
A0
330
1F
100
AcDbEntity
  8
Sheet
100
AcDbText
 10
9.3699526
 20
0.8575
 30
0.0
 40
0.06
  1
D
100
AcDbText
  0
LWPOLYLINE
  5
A1
330
1F
100
AcDbEntity
  8
Sheet
100
AcDbPolyline
 90
        2
 70
     0
 43
0.0039
 10
0.2
 20
3.75
 10
0.0
 20
3.75
  0
LWPOLYLINE
  5
A2
330
1F
100
AcDbEntity
  8
Sheet
100
AcDbPolyline
 90
        2
 70
     0
 43
0.0039
 10
9.3
 20
3.75
 10
9.5
 20
3.75
  0
TEXT
  5
A3
330
1F
100
AcDbEntity
  8
Sheet
100
AcDbText
 10
0.0724565
 20
2.7325
 30
0.0
 40
0.06
  1
C
100
AcDbText
  0
TEXT
  5
A4
330
1F
100
AcDbEntity
  8
Sheet
100
AcDbText
 10
9.3724565
 20
2.7325
 30
0.0
 40
0.06
  1
C
100
AcDbText
  0
LWPOLYLINE
  5
A5
330
1F
100
AcDbEntity
  8
Sheet
100
AcDbPolyline
 90
        2
 70
     0
 43
0.0039
 10
0.2
 20
5.625
 10
0.0
 20
5.625
  0
LWPOLYLINE
  5
A6
330
1F
100
AcDbEntity
  8
Sheet
100
AcDbPolyline
 90
        2
 70
     0
 43
0.0039
 10
9.3
 20
5.625
 10
9.5
 20
5.625
  0
TEXT
  5
A7
330
1F
100
AcDbEntity
  8
Sheet
100
AcDbText
 10
0.0732912
 20
4.6075
 30
0.0
 40
0.06
  1
B
100
AcDbText
  0
TEXT
  5
A8
330
1F
100
AcDbEntity
  8
Sheet
100
AcDbText
 10
9.3732912
 20
4.6075
 30
0.0
 40
0.06
  1
B
100
AcDbText
  0
TEXT
  5
A9
330
1F
100
AcDbEntity
  8
Sheet
100
AcDbText
 10
0.0691179
 20
6.4825
 30
0.0
 40
0.06
  1
A
100
AcDbText
  0
TEXT
  5
AA
330
1F
100
AcDbEntity
  8
Sheet
100
AcDbText
 10
9.3691179
 20
6.4825
 30
0.0
 40
0.06
  1
A
100
AcDbText
  0
LWPOLYLINE
  5
AB
330
1F
100
AcDbEntity
  8
Sheet
100
AcDbPolyline
 90
        2
 70
     0
 43
0.0039
 10
5.8
 20
1.0
 10
9.3
 20
1.0
  0
LWPOLYLINE
  5
AC
330
1F
100
AcDbEntity
  8
Sheet
100
AcDbPolyline
 90
        2
 70
     0
 43
0.0039
 10
5.8
 20
0.7
 10
9.3
 20
0.7
  0
LWPOLYLINE
  5
AD
330
1F
100
AcDbEntity
  8
Sheet
100
AcDbPolyline
 90
        2
 70
     0
 43
0.0039
 10
5.8
 20
0.4
 10
9.3
 20
0.4
  0
LWPOLYLINE
  5
AE
330
1F
100
AcDbEntity
  8
Sheet
100
AcDbPolyline
 90
        2
 70
     0
 43
0.0039
 10
5.8
 20
0.3
 10
9.3
 20
0.3
  0
LWPOLYLINE
  5
AF
330
1F
100
AcDbEntity
  8
Sheet
100
AcDbPolyline
 90
        2
 70
     0
 43
0.0039
 10
5.8
 20
0.2
 10
5.8
 20
1.0
  0
LWPOLYLINE
  5
B0
330
1F
100
AcDbEntity
  8
Sheet
100
AcDbPolyline
 90
        2
 70
     0
 43
0.0039
 10
8.3
 20
0.4
 10
8.3
 20
0.7
  0
LWPOLYLINE
  5
B1
330
1F
100
AcDbEntity
  8
Sheet
100
AcDbPolyline
 90
        2
 70
     0
 43
0.0039
 10
6.3
 20
0.4
 10
6.3
 20
0.7
  0
LWPOLYLINE
  5
B2
330
1F
100
AcDbEntity
  8
Sheet
100
AcDbPolyline
 90
        2
 70
     0
 43
0.0039
 10
7.8
 20
0.2
 10
7.8
 20
0.4
  0
TEXT
  5
B3
330
1F
100
AcDbEntity
  8
Sheet
100
AcDbText
 10
5.85
 20
0.92
 30
0.0
 40
0.06
  1
Title
100
AcDbText
  0
TEXT
  5
B4
330
1F
100
AcDbEntity
  8
Sheet
100
AcDbText
 10
6.35
 20
0.62
 30
0.0
 40
0.06
  1
Number
100
AcDbText
  0
TEXT
  5
B5
330
1F
100
AcDbEntity
  8
Sheet
100
AcDbText
 10
8.35
 20
0.62
 30
0.0
 40
0.06
  1
Revision
100
AcDbText
  0
TEXT
  5
B6
330
1F
100
AcDbEntity
  8
Sheet
100
AcDbText
 10
5.85
 20
0.62
 30
0.0
 40
0.06
  1
Size
100
AcDbText
  0
TEXT
  5
B7
330
1F
100
AcDbEntity
  8
Sheet
100
AcDbText
 10
5.9
 20
0.47
 30
0.0
 40
0.06
  1
A
100
AcDbText
  0
TEXT
  5
B8
330
1F
100
AcDbEntity
  8
Sheet
100
AcDbText
 10
5.85
 20
0.32
 30
0.0
 40
0.06
  1
Date:
100
AcDbText
  0
TEXT
  5
B9
330
1F
100
AcDbEntity
  8
Sheet
100
AcDbText
 10
6.3
 20
0.32
 30
0.0
 40
0.06
  1
2/26/2019
100
AcDbText
  0
TEXT
  5
BA
330
1F
100
AcDbEntity
  8
Sheet
100
AcDbText
 10
7.85
 20
0.32
 30
0.0
 40
0.06
  1
Sheet            of
100
AcDbText
  0
TEXT
  5
BB
330
1F
100
AcDbEntity
  8
Sheet
100
AcDbText
 10
5.85
 20
0.22
 30
0.0
 40
0.06
  1
File:
100
AcDbText
  0
TEXT
  5
BC
330
1F
100
AcDbEntity
  8
Sheet
100
AcDbText
 10
6.3
 20
0.22
 30
0.0
 40
0.06
  1
U:\hjlee22\..\TapeSensing.SchDoc
100
AcDbText
  0
TEXT
  5
BD
330
1F
100
AcDbEntity
  8
Sheet
100
AcDbText
 10
7.85
 20
0.22
 30
0.0
 40
0.06
  1
Drawn By:
100
AcDbText
  0
LWPOLYLINE
  5
BE
330
1F
100
AcDbEntity
  8
Sheet
100
AcDbPolyline
 90
        2
 70
     0
 43
0.0118
 10
3.9
 20
5.9
 10
3.9
 20
6.1
  0
LWPOLYLINE
  5
BF
330
1F
100
AcDbEntity
  8
Sheet
100
AcDbPolyline
 90
        2
 70
     0
 43
0.0118
 10
3.9
 20
5.5
 10
3.9
 20
5.3
  0
LWPOLYLINE
  5
C0
330
1F
100
AcDbEntity
  8
Sheet
100
AcDbPolyline
 90
        2
 70
     0
 43
0.0118
 10
3.55
 20
5.9
 10
3.58
 20
5.87
  0
LWPOLYLINE
  5
C1
330
1F
100
AcDbEntity
  8
Sheet
100
AcDbPolyline
 90
        2
 70
     0
 43
0.0118
 10
3.53
 20
5.85
 10
3.56
 20
5.82
  0
LWPOLYLINE
  5
C2
330
1F
100
AcDbEntity
  8
Sheet
100
AcDbPolyline
 90
        5
 70
     1
 43
0.0118
 10
3.75
 20
5.57
 10
3.73
 20
5.57
 10
3.73
 20
5.83
 10
3.75
 20
5.83
 10
3.75
 20
5.57
  0
LWPOLYLINE
  5
C3
330
1F
100
AcDbEntity
  8
Sheet
100
AcDbPolyline
 90
        5
 70
     1
 43
0.0118
 10
3.73
 20
5.83
 10
3.75
 20
5.83
 10
3.75
 20
5.57
 10
3.73
 20
5.57
 10
3.73
 20
5.83
  0
LWPOLYLINE
  5
C4
330
1F
100
AcDbEntity
  8
Sheet
100
AcDbPolyline
 90
        3
 70
     0
 43
0.0118
 10
3.9
 20
5.9
 10
3.9
 20
5.87
 10
3.75
 20
5.72
  0
LWPOLYLINE
  5
C5
330
1F
100
AcDbEntity
  8
Sheet
100
AcDbPolyline
 90
        3
 70
     0
 43
0.0118
 10
3.9
 20
5.49
 10
3.9
 20
5.52
 10
3.75
 20
5.66
  0
LWPOLYLINE
  5
C6
330
1F
100
AcDbEntity
  8
Sheet
100
AcDbPolyline
 90
        4
 70
     1
 43
0.0118
 10
3.9
 20
5.52
 10
3.82
 20
5.55
 10
3.86
 20
5.59
 10
3.9
 20
5.52
  0
LWPOLYLINE
  5
C7
330
1F
100
AcDbEntity
  8
Sheet
100
AcDbPolyline
 90
        4
 70
     1
 43
0.0118
 10
3.86
 20
5.59
 10
3.82
 20
5.55
 10
3.9
 20
5.52
 10
3.86
 20
5.59
  0
ELLIPSE
  5
C8
330
1F
100
AcDbEntity
  8
Sheet
100
AcDbEllipse
 10
3.7991238
 20
5.7008118
 30
0.0
 11
0.1991686
 21
0.0
 31
0.0
210
0.0
220
0.0
230
1.0
 40
0.9999377411901273
 41
0.0
 42
6.283185307179586
  0
LWPOLYLINE
  5
C9
330
1F
100
AcDbEntity
  8
Sheet
100
AcDbPolyline
 90
        4
 70
     1
 43
0.0118
 10
3.6
 20
5.85
 10
3.57
 20
5.85
 10
3.6
 20
5.88
 10
3.6
 20
5.85
  0
LWPOLYLINE
  5
CA
330
1F
100
AcDbEntity
  8
Sheet
100
AcDbPolyline
 90
        4
 70
     1
 43
0.0118
 10
3.6
 20
5.88
 10
3.57
 20
5.85
 10
3.6
 20
5.85
 10
3.6
 20
5.88
  0
LWPOLYLINE
  5
CB
330
1F
100
AcDbEntity
  8
Sheet
100
AcDbPolyline
 90
        4
 70
     1
 43
0.0118
 10
3.58
 20
5.8
 10
3.55
 20
5.8
 10
3.58
 20
5.83
 10
3.58
 20
5.8
  0
LWPOLYLINE
  5
CC
330
1F
100
AcDbEntity
  8
Sheet
100
AcDbPolyline
 90
        4
 70
     1
 43
0.0118
 10
3.58
 20
5.83
 10
3.55
 20
5.8
 10
3.58
 20
5.8
 10
3.58
 20
5.83
  0
TEXT
  5
CD
330
1F
100
AcDbEntity
  8
Sheet
100
AcDbText
 10
4.0
 20
5.8301781
 30
0.0
 40
0.06
  1
Q1
100
AcDbText
  0
TEXT
  5
CE
330
1F
100
AcDbEntity
  8
Sheet
100
AcDbText
 10
4.0
 20
5.7301781
 30
0.0
 40
0.06
  1
Photo NPN
100
AcDbText
  0
LWPOLYLINE
  5
CF
330
1F
100
AcDbEntity
  8
Sheet
100
AcDbPolyline
 90
        2
 70
     0
 43
0.0118
 10
3.85
 20
6.6
 10
3.95
 20
6.6
  0
TEXT
  5
D0
330
1F
100
AcDbEntity
  8
Sheet
100
AcDbText
 10
3.8240468
 20
6.6201781
 30
0.0
 40
0.06
  1
+5V
100
AcDbText
  0
LWPOLYLINE
  5
D1
330
1F
100
AcDbEntity
  8
Sheet
100
AcDbPolyline
 90
        2
 70
     0
 43
0.0118
 10
3.9
 20
6.5
 10
3.9
 20
6.6
  0
LWPOLYLINE
  5
D2
330
1F
100
AcDbEntity
  8
Sheet
100
AcDbPolyline
 90
        2
 70
     0
 43
0.0118
 10
6.9
 20
4.9
 10
7.1
 20
4.9
  0
TEXT
  5
D3
330
1F
100
AcDbEntity
  8
Sheet
100
AcDbText
 10
6.98
 20
4.9201781
 30
0.0
 40
0.06
  1
2
100
AcDbText
  0
LWPOLYLINE
  5
D4
330
1F
100
AcDbEntity
  8
Sheet
100
AcDbPolyline
 90
        2
 70
     0
 43
0.0118
 10
6.5
 20
5.0
 10
6.3
 20
5.0
  0
LWPOLYLINE
  5
D5
330
1F
100
AcDbEntity
  8
Sheet
100
AcDbPolyline
 90
        4
 70
     1
 43
0.0118
 10
6.5
 20
5.0
 10
6.44
 20
4.98
 10
6.44
 20
5.02
 10
6.5
 20
5.0
  0
LWPOLYLINE
  5
D6
330
1F
100
AcDbEntity
  8
Sheet
100
AcDbPolyline
 90
        4
 70
     1
 43
0.0039
 10
6.44
 20
5.02
 10
6.5
 20
5.0
 10
6.44
 20
4.98
 10
6.44
 20
5.02
  0
TEXT
  5
D7
330
1F
100
AcDbEntity
  8
Sheet
100
AcDbText
 10
6.3799367
 20
5.0201781
 30
0.0
 40
0.06
  1
4
100
AcDbText
  0
LWPOLYLINE
  5
D8
330
1F
100
AcDbEntity
  8
Sheet
100
AcDbPolyline
 90
        2
 70
     0
 43
0.0118
 10
6.5
 20
4.8
 10
6.3
 20
4.8
  0
LWPOLYLINE
  5
D9
330
1F
100
AcDbEntity
  8
Sheet
100
AcDbPolyline
 90
        4
 70
     1
 43
0.0118
 10
6.5
 20
4.8
 10
6.44
 20
4.78
 10
6.44
 20
4.82
 10
6.5
 20
4.8
  0
LWPOLYLINE
  5
DA
330
1F
100
AcDbEntity
  8
Sheet
100
AcDbPolyline
 90
        4
 70
     1
 43
0.0039
 10
6.44
 20
4.82
 10
6.5
 20
4.8
 10
6.44
 20
4.78
 10
6.44
 20
4.82
  0
TEXT
  5
DB
330
1F
100
AcDbEntity
  8
Sheet
100
AcDbText
 10
6.3832753
 20
4.8201781
 30
0.0
 40
0.06
  1
5
100
AcDbText
  0
LWPOLYLINE
  5
DC
330
1F
100
AcDbEntity
  8
Sheet
100
AcDbPolyline
 90
        2
 70
     0
 43
0.0118
 10
6.7
 20
5.1
 10
6.7
 20
5.3
  0
TEXT
  5
DD
330
1F
100
AcDbEntity
  8
Sheet
100
AcDbText
 10
6.6748339
 20
5.18
 30
0.0
 40
0.06
  1
3
 50
90.0
100
AcDbText
  0
ELLIPSE
  5
DE
330
1F
100
AcDbEntity
  8
Sheet
100
AcDbEllipse
 10
6.699172
 20
5.3008299
 30
0.0
 11
0.0
 21
0.0191487
 31
0.0
210
0.0
220
0.0
230
1.0
 40
0.9997963308214136
 41
0.0
 42
6.283185307179586
  0
LWPOLYLINE
  5
DF
330
1F
100
AcDbEntity
  8
Sheet
100
AcDbPolyline
 90
        2
 70
     0
 43
0.0118
 10
6.7
 20
4.7
 10
6.7
 20
4.5
  0
TEXT
  5
E0
330
1F
100
AcDbEntity
  8
Sheet
100
AcDbText
 10
6.6748339
 20
4.5331783
 30
0.0
 40
0.06
  1
12
 50
90.0
100
AcDbText
  0
LWPOLYLINE
  5
E1
330
1F
100
AcDbEntity
  8
Sheet
100
AcDbPolyline
 90
        2
 70
     0
 43
0.0118
 10
6.5
 20
4.7
 10
6.9
 20
4.9
  0
LWPOLYLINE
  5
E2
330
1F
100
AcDbEntity
  8
Sheet
100
AcDbPolyline
 90
        2
 70
     0
 43
0.0118
 10
6.5
 20
5.1
 10
6.9
 20
4.9
  0
LWPOLYLINE
  5
E3
330
1F
100
AcDbEntity
  8
Sheet
100
AcDbPolyline
 90
        2
 70
     0
 43
0.0118
 10
6.5
 20
4.7
 10
6.5
 20
5.1
  0
LWPOLYLINE
  5
E4
330
1F
100
AcDbEntity
  8
Sheet
100
AcDbPolyline
 90
        2
 70
     0
 43
0.0118
 10
6.54
 20
5.0
 10
6.6
 20
5.0
  0
LWPOLYLINE
  5
E5
330
1F
100
AcDbEntity
  8
Sheet
100
AcDbPolyline
 90
        2
 70
     0
 43
0.0118
 10
6.54
 20
4.8
 10
6.6
 20
4.8
  0
LWPOLYLINE
  5
E6
330
1F
100
AcDbEntity
  8
Sheet
100
AcDbPolyline
 90
        2
 70
     0
 43
0.0118
 10
6.57
 20
4.83
 10
6.57
 20
4.77
  0
LWPOLYLINE
  5
E7
330
1F
100
AcDbEntity
  8
Sheet
100
AcDbPolyline
 90
        2
 70
     0
 43
0.0118
 10
6.7
 20
4.7
 10
6.7
 20
4.8
  0
LWPOLYLINE
  5
E8
330
1F
100
AcDbEntity
  8
Sheet
100
AcDbPolyline
 90
        2
 70
     0
 43
0.0118
 10
6.7
 20
5.0
 10
6.7
 20
5.1
  0
TEXT
  5
E9
330
1F
100
AcDbEntity
  8
Sheet
100
AcDbText
 10
6.7
 20
5.1201781
 30
0.0
 40
0.06
  1
U3A
100
AcDbText
  0
TEXT
  5
EA
330
1F
100
AcDbEntity
  8
Sheet
100
AcDbText
 10
6.7
 20
5.0201781
 30
0.0
 40
0.06
  1
LM339AN
100
AcDbText
  0
ELLIPSE
  5
EB
330
1F
100
AcDbEntity
  8
Sheet
100
AcDbEllipse
 10
6.699172
 20
5.3008299
 30
0.0
 11
0.0
 21
0.0191487
 31
0.0
210
0.0
220
0.0
230
1.0
 40
0.9997963308214136
 41
0.0
 42
6.283185307179586
  0
ELLIPSE
  5
EC
330
1F
100
AcDbEntity
  8
Sheet
100
AcDbEllipse
 10
6.699172
 20
5.3008299
 30
0.0
 11
0.0
 21
0.0191487
 31
0.0
210
0.0
220
0.0
230
1.0
 40
0.9997963308214136
 41
0.0
 42
6.283185307179586
  0
LWPOLYLINE
  5
ED
330
1F
100
AcDbEntity
  8
Sheet
100
AcDbPolyline
 90
        2
 70
     0
 43
0.0118
 10
4.2
 20
5.1
 10
4.0
 20
5.1
  0
LWPOLYLINE
  5
EE
330
1F
100
AcDbEntity
  8
Sheet
100
AcDbPolyline
 90
        4
 70
     1
 43
0.0118
 10
4.2
 20
5.1
 10
4.14
 20
5.08
 10
4.14
 20
5.12
 10
4.2
 20
5.1
  0
LWPOLYLINE
  5
EF
330
1F
100
AcDbEntity
  8
Sheet
100
AcDbPolyline
 90
        4
 70
     1
 43
0.0039
 10
4.14
 20
5.12
 10
4.2
 20
5.1
 10
4.14
 20
5.08
 10
4.14
 20
5.12
  0
TEXT
  5
F0
330
1F
100
AcDbEntity
  8
Sheet
100
AcDbText
 10
4.0799367
 20
5.1201781
 30
0.0
 40
0.06
  1
2
100
AcDbText
  0
ELLIPSE
  5
F1
330
1F
100
AcDbEntity
  8
Sheet
100
AcDbEllipse
 10
3.9991794
 20
5.100839
 30
0.0
 11
0.0
 21
0.0192008
 31
0.0
210
0.0
220
0.0
230
1.0
 40
0.9970938710887045
 41
0.0
 42
6.283185307179586
  0
LWPOLYLINE
  5
F2
330
1F
100
AcDbEntity
  8
Sheet
100
AcDbPolyline
 90
        2
 70
     0
 43
0.0118
 10
4.2
 20
4.9
 10
4.0
 20
4.9
  0
LWPOLYLINE
  5
F3
330
1F
100
AcDbEntity
  8
Sheet
100
AcDbPolyline
 90
        4
 70
     1
 43
0.0118
 10
4.2
 20
4.9
 10
4.14
 20
4.88
 10
4.14
 20
4.92
 10
4.2
 20
4.9
  0
LWPOLYLINE
  5
F4
330
1F
100
AcDbEntity
  8
Sheet
100
AcDbPolyline
 90
        4
 70
     1
 43
0.0039
 10
4.14
 20
4.92
 10
4.2
 20
4.9
 10
4.14
 20
4.88
 10
4.14
 20
4.92
  0
TEXT
  5
F5
330
1F
100
AcDbEntity
  8
Sheet
100
AcDbText
 10
4.0849446
 20
4.9201781
 30
0.0
 40
0.06
  1
3
100
AcDbText
  0
LWPOLYLINE
  5
F6
330
1F
100
AcDbEntity
  8
Sheet
100
AcDbPolyline
 90
        2
 70
     0
 43
0.0118
 10
4.6
 20
5.0
 10
4.8
 20
5.0
  0
LWPOLYLINE
  5
F7
330
1F
100
AcDbEntity
  8
Sheet
100
AcDbPolyline
 90
        4
 70
     1
 43
0.0118
 10
4.66
 20
5.0
 10
4.6
 20
4.98
 10
4.6
 20
5.02
 10
4.66
 20
5.0
  0
LWPOLYLINE
  5
F8
330
1F
100
AcDbEntity
  8
Sheet
100
AcDbPolyline
 90
        4
 70
     1
 43
0.0039
 10
4.66
 20
5.0
 10
4.6
 20
5.02
 10
4.6
 20
4.98
 10
4.66
 20
5.0
  0
TEXT
  5
F9
330
1F
100
AcDbEntity
  8
Sheet
100
AcDbText
 10
4.68
 20
5.0201781
 30
0.0
 40
0.06
  1
1
100
AcDbText
  0
LWPOLYLINE
  5
FA
330
1F
100
AcDbEntity
  8
Sheet
100
AcDbPolyline
 90
        2
 70
     0
 43
0.0118
 10
4.4
 20
5.2
 10
4.4
 20
5.4
  0
TEXT
  5
FB
330
1F
100
AcDbEntity
  8
Sheet
100
AcDbText
 10
4.3748339
 20
5.28
 30
0.0
 40
0.06
  1
4
 50
90.0
100
AcDbText
  0
ELLIPSE
  5
FC
330
1F
100
AcDbEntity
  8
Sheet
100
AcDbEllipse
 10
4.399186
 20
5.4008514
 30
0.0
 11
0.0
 21
0.0192008
 31
0.0
210
0.0
220
0.0
230
1.0
 40
0.9970834548560477
 41
0.0
 42
6.283185307179586
  0
LWPOLYLINE
  5
FD
330
1F
100
AcDbEntity
  8
Sheet
100
AcDbPolyline
 90
        2
 70
     0
 43
0.0118
 10
4.4
 20
4.8
 10
4.4
 20
4.6
  0
TEXT
  5
FE
330
1F
100
AcDbEntity
  8
Sheet
100
AcDbText
 10
4.3748339
 20
4.6381862
 30
0.0
 40
0.06
  1
11
 50
90.0
100
AcDbText
  0
ELLIPSE
  5
FF
330
1F
100
AcDbEntity
  8
Sheet
100
AcDbEllipse
 10
4.399186
 20
4.6008354
 30
0.0
 11
0.0
 21
0.0191486
 31
0.0
210
0.0
220
0.0
230
1.0
 40
0.999801552071692
 41
0.0
 42
6.283185307179586
  0
LWPOLYLINE
  5
100
330
1F
100
AcDbEntity
  8
Sheet
100
AcDbPolyline
 90
        2
 70
     0
 43
0.0118
 10
4.2
 20
5.2
 10
4.6
 20
5.0
  0
LWPOLYLINE
  5
101
330
1F
100
AcDbEntity
  8
Sheet
100
AcDbPolyline
 90
        2
 70
     0
 43
0.0118
 10
4.2
 20
4.8
 10
4.6
 20
5.0
  0
LWPOLYLINE
  5
102
330
1F
100
AcDbEntity
  8
Sheet
100
AcDbPolyline
 90
        2
 70
     0
 43
0.0118
 10
4.2
 20
5.2
 10
4.2
 20
4.8
  0
LWPOLYLINE
  5
103
330
1F
100
AcDbEntity
  8
Sheet
100
AcDbPolyline
 90
        2
 70
     0
 43
0.0118
 10
4.24
 20
5.1
 10
4.3
 20
5.1
  0
LWPOLYLINE
  5
104
330
1F
100
AcDbEntity
  8
Sheet
100
AcDbPolyline
 90
        2
 70
     0
 43
0.0118
 10
4.24
 20
4.9
 10
4.3
 20
4.9
  0
LWPOLYLINE
  5
105
330
1F
100
AcDbEntity
  8
Sheet
100
AcDbPolyline
 90
        2
 70
     0
 43
0.0118
 10
4.27
 20
4.93
 10
4.27
 20
4.87
  0
LWPOLYLINE
  5
106
330
1F
100
AcDbEntity
  8
Sheet
100
AcDbPolyline
 90
        2
 70
     0
 43
0.0118
 10
4.4
 20
5.2
 10
4.4
 20
5.1
  0
LWPOLYLINE
  5
107
330
1F
100
AcDbEntity
  8
Sheet
100
AcDbPolyline
 90
        2
 70
     0
 43
0.0118
 10
4.4
 20
4.9
 10
4.4
 20
4.8
  0
TEXT
  5
108
330
1F
100
AcDbEntity
  8
Sheet
100
AcDbText
 10
4.33
 20
4.9701781
 30
0.0
 40
0.06
  1
1
100
AcDbText
  0
TEXT
  5
109
330
1F
100
AcDbEntity
  8
Sheet
100
AcDbText
 10
4.5
 20
5.2201781
 30
0.0
 40
0.06
  1
U2A
100
AcDbText
  0
TEXT
  5
10A
330
1F
100
AcDbEntity
  8
Sheet
100
AcDbText
 10
4.5
 20
5.1201781
 30
0.0
 40
0.06
  1
MCP6294
100
AcDbText
  0
ELLIPSE
  5
10B
330
1F
100
AcDbEntity
  8
Sheet
100
AcDbEllipse
 10
3.9991794
 20
5.100839
 30
0.0
 11
0.0
 21
0.0192008
 31
0.0
210
0.0
220
0.0
230
1.0
 40
0.9970938710887045
 41
0.0
 42
6.283185307179586
  0
ELLIPSE
  5
10C
330
1F
100
AcDbEntity
  8
Sheet
100
AcDbEllipse
 10
4.399186
 20
5.4008514
 30
0.0
 11
0.0
 21
0.0192008
 31
0.0
210
0.0
220
0.0
230
1.0
 40
0.9970834548560477
 41
0.0
 42
6.283185307179586
  0
ELLIPSE
  5
10D
330
1F
100
AcDbEntity
  8
Sheet
100
AcDbEllipse
 10
4.399186
 20
4.6008354
 30
0.0
 11
0.0
 21
0.0191486
 31
0.0
210
0.0
220
0.0
230
1.0
 40
0.999801552071692
 41
0.0
 42
6.283185307179586
  0
ELLIPSE
  5
10E
330
1F
100
AcDbEntity
  8
Sheet
100
AcDbEllipse
 10
3.9991794
 20
5.100839
 30
0.0
 11
0.0
 21
0.0192008
 31
0.0
210
0.0
220
0.0
230
1.0
 40
0.9970938710887045
 41
0.0
 42
6.283185307179586
  0
ELLIPSE
  5
10F
330
1F
100
AcDbEntity
  8
Sheet
100
AcDbEllipse
 10
4.399186
 20
5.4008514
 30
0.0
 11
0.0
 21
0.0192008
 31
0.0
210
0.0
220
0.0
230
1.0
 40
0.9970834548560477
 41
0.0
 42
6.283185307179586
  0
ELLIPSE
  5
110
330
1F
100
AcDbEntity
  8
Sheet
100
AcDbEllipse
 10
4.399186
 20
4.6008354
 30
0.0
 11
0.0
 21
0.0191486
 31
0.0
210
0.0
220
0.0
230
1.0
 40
0.999801552071692
 41
0.0
 42
6.283185307179586
  0
LWPOLYLINE
  5
111
330
1F
100
AcDbEntity
  8
Sheet
100
AcDbPolyline
 90
        2
 70
     0
 43
0.0118
 10
5.0
 20
5.6
 10
5.1
 20
5.6
  0
LWPOLYLINE
  5
112
330
1F
100
AcDbEntity
  8
Sheet
100
AcDbPolyline
 90
        2
 70
     0
 43
0.0118
 10
4.8
 20
5.6
 10
4.7
 20
5.6
  0
LWPOLYLINE
  5
113
330
1F
100
AcDbEntity
  8
Sheet
100
AcDbPolyline
 90
       10
 70
     0
 43
0.0118
 10
5.0
 20
5.6
 10
4.96
 20
5.6
 10
4.95
 20
5.58
 10
4.93
 20
5.62
 10
4.91
 20
5.58
 10
4.89
 20
5.62
 10
4.87
 20
5.58
 10
4.85
 20
5.62
 10
4.84
 20
5.6
 10
4.8
 20
5.6
  0
TEXT
  5
114
330
1F
100
AcDbEntity
  8
Sheet
100
AcDbText
 10
4.79
 20
5.3901781
 30
0.0
 40
0.06
  1
3.3K
100
AcDbText
  0
TEXT
  5
115
330
1F
100
AcDbEntity
  8
Sheet
100
AcDbText
 10
4.79
 20
5.6501781
 30
0.0
 40
0.06
  1
R10
100
AcDbText
  0
LWPOLYLINE
  5
116
330
1F
100
AcDbEntity
  8
Sheet
100
AcDbPolyline
 90
        2
 70
     0
 43
0.0118
 10
3.7
 20
4.95
 10
3.7
 20
4.85
  0
TEXT
  5
117
330
1F
100
AcDbEntity
  8
Sheet
100
AcDbText
 10
3.514739
 20
4.8701781
 30
0.0
 40
0.06
  1
Vref
100
AcDbText
  0
LWPOLYLINE
  5
118
330
1F
100
AcDbEntity
  8
Sheet
100
AcDbPolyline
 90
        2
 70
     0
 43
0.0118
 10
3.8
 20
4.9
 10
3.7
 20
4.9
  0
LWPOLYLINE
  5
119
330
1F
100
AcDbEntity
  8
Sheet
100
AcDbPolyline
 90
        2
 70
     0
 43
0.0118
 10
4.35
 20
5.5
 10
4.45
 20
5.5
  0
TEXT
  5
11A
330
1F
100
AcDbEntity
  8
Sheet
100
AcDbText
 10
4.3240468
 20
5.5201781
 30
0.0
 40
0.06
  1
+5V
100
AcDbText
  0
LWPOLYLINE
  5
11B
330
1F
100
AcDbEntity
  8
Sheet
100
AcDbPolyline
 90
        2
 70
     0
 43
0.0118
 10
4.4
 20
5.4
 10
4.4
 20
5.5
  0
ELLIPSE
  5
11C
330
1F
100
AcDbEntity
  8
Sheet
100
AcDbEllipse
 10
4.399186
 20
5.4008514
 30
0.0
 11
0.0
 21
0.0192008
 31
0.0
210
0.0
220
0.0
230
1.0
 40
0.9970834548560477
 41
0.0
 42
6.283185307179586
  0
ELLIPSE
  5
11D
330
1F
100
AcDbEntity
  8
Sheet
100
AcDbEllipse
 10
4.399186
 20
5.4008514
 30
0.0
 11
0.0
 21
0.0192008
 31
0.0
210
0.0
220
0.0
230
1.0
 40
0.9970834548560477
 41
0.0
 42
6.283185307179586
  0
LWPOLYLINE
  5
11E
330
1F
100
AcDbEntity
  8
Sheet
100
AcDbPolyline
 90
        2
 70
     0
 43
0.0118
 10
6.65
 20
5.4
 10
6.75
 20
5.4
  0
TEXT
  5
11F
330
1F
100
AcDbEntity
  8
Sheet
100
AcDbText
 10
6.6240468
 20
5.4201781
 30
0.0
 40
0.06
  1
+5V
100
AcDbText
  0
LWPOLYLINE
  5
120
330
1F
100
AcDbEntity
  8
Sheet
100
AcDbPolyline
 90
        2
 70
     0
 43
0.0118
 10
6.7
 20
5.3
 10
6.7
 20
5.4
  0
ELLIPSE
  5
121
330
1F
100
AcDbEntity
  8
Sheet
100
AcDbEllipse
 10
6.699172
 20
5.3008299
 30
0.0
 11
0.0
 21
0.0191487
 31
0.0
210
0.0
220
0.0
230
1.0
 40
0.9997963308214136
 41
0.0
 42
6.283185307179586
  0
ELLIPSE
  5
122
330
1F
100
AcDbEntity
  8
Sheet
100
AcDbEllipse
 10
6.699172
 20
5.3008299
 30
0.0
 11
0.0
 21
0.0191487
 31
0.0
210
0.0
220
0.0
230
1.0
 40
0.9997963308214136
 41
0.0
 42
6.283185307179586
  0
LWPOLYLINE
  5
123
330
1F
100
AcDbEntity
  8
Sheet
100
AcDbPolyline
 90
        2
 70
     0
 43
0.0118
 10
4.3
 20
4.5
 10
4.5
 20
4.5
  0
LWPOLYLINE
  5
124
330
1F
100
AcDbEntity
  8
Sheet
100
AcDbPolyline
 90
        2
 70
     0
 43
0.0118
 10
4.33
 20
4.47
 10
4.47
 20
4.47
  0
LWPOLYLINE
  5
125
330
1F
100
AcDbEntity
  8
Sheet
100
AcDbPolyline
 90
        2
 70
     0
 43
0.0118
 10
4.36
 20
4.44
 10
4.44
 20
4.44
  0
LWPOLYLINE
  5
126
330
1F
100
AcDbEntity
  8
Sheet
100
AcDbPolyline
 90
        2
 70
     0
 43
0.0118
 10
4.39
 20
4.41
 10
4.41
 20
4.41
  0
TEXT
  5
127
330
1F
100
AcDbEntity
  8
Sheet
100
AcDbText
 10
4.3065191
 20
4.32
 30
0.0
 40
0.06
  1
GND
100
AcDbText
  0
LWPOLYLINE
  5
128
330
1F
100
AcDbEntity
  8
Sheet
100
AcDbPolyline
 90
        2
 70
     0
 43
0.0118
 10
4.4
 20
4.6
 10
4.4
 20
4.5
  0
ELLIPSE
  5
129
330
1F
100
AcDbEntity
  8
Sheet
100
AcDbEllipse
 10
4.399186
 20
4.6008354
 30
0.0
 11
0.0
 21
0.0191486
 31
0.0
210
0.0
220
0.0
230
1.0
 40
0.999801552071692
 41
0.0
 42
6.283185307179586
  0
ELLIPSE
  5
12A
330
1F
100
AcDbEntity
  8
Sheet
100
AcDbEllipse
 10
4.399186
 20
4.6008354
 30
0.0
 11
0.0
 21
0.0191486
 31
0.0
210
0.0
220
0.0
230
1.0
 40
0.999801552071692
 41
0.0
 42
6.283185307179586
  0
LWPOLYLINE
  5
12B
330
1F
100
AcDbEntity
  8
Sheet
100
AcDbPolyline
 90
        2
 70
     0
 43
0.0118
 10
6.6
 20
4.1
 10
6.8
 20
4.1
  0
LWPOLYLINE
  5
12C
330
1F
100
AcDbEntity
  8
Sheet
100
AcDbPolyline
 90
        2
 70
     0
 43
0.0118
 10
6.63
 20
4.07
 10
6.77
 20
4.07
  0
LWPOLYLINE
  5
12D
330
1F
100
AcDbEntity
  8
Sheet
100
AcDbPolyline
 90
        2
 70
     0
 43
0.0118
 10
6.66
 20
4.04
 10
6.74
 20
4.04
  0
LWPOLYLINE
  5
12E
330
1F
100
AcDbEntity
  8
Sheet
100
AcDbPolyline
 90
        2
 70
     0
 43
0.0118
 10
6.69
 20
4.01
 10
6.71
 20
4.01
  0
TEXT
  5
12F
330
1F
100
AcDbEntity
  8
Sheet
100
AcDbText
 10
6.6065191
 20
3.92
 30
0.0
 40
0.06
  1
GND
100
AcDbText
  0
LWPOLYLINE
  5
130
330
1F
100
AcDbEntity
  8
Sheet
100
AcDbPolyline
 90
        2
 70
     0
 43
0.0118
 10
6.7
 20
4.2
 10
6.7
 20
4.1
  0
LWPOLYLINE
  5
131
330
1F
100
AcDbEntity
  8
Sheet
100
AcDbPolyline
 90
        2
 70
     0
 43
0.0118
 10
1.9
 20
6.0
 10
1.7
 20
6.0
  0
LWPOLYLINE
  5
132
330
1F
100
AcDbEntity
  8
Sheet
100
AcDbPolyline
 90
        4
 70
     1
 43
0.0118
 10
1.9
 20
6.0
 10
1.84
 20
5.98
 10
1.84
 20
6.02
 10
1.9
 20
6.0
  0
LWPOLYLINE
  5
133
330
1F
100
AcDbEntity
  8
Sheet
100
AcDbPolyline
 90
        4
 70
     1
 43
0.0039
 10
1.84
 20
6.02
 10
1.9
 20
6.0
 10
1.84
 20
5.98
 10
1.84
 20
6.02
  0
TEXT
  5
134
330
1F
100
AcDbEntity
  8
Sheet
100
AcDbText
 10
1.7799367
 20
6.0201781
 30
0.0
 40
0.06
  1
2
100
AcDbText
  0
LWPOLYLINE
  5
135
330
1F
100
AcDbEntity
  8
Sheet
100
AcDbPolyline
 90
        2
 70
     0
 43
0.0118
 10
1.9
 20
5.8
 10
1.7
 20
5.8
  0
LWPOLYLINE
  5
136
330
1F
100
AcDbEntity
  8
Sheet
100
AcDbPolyline
 90
        4
 70
     1
 43
0.0118
 10
1.9
 20
5.8
 10
1.84
 20
5.78
 10
1.84
 20
5.82
 10
1.9
 20
5.8
  0
LWPOLYLINE
  5
137
330
1F
100
AcDbEntity
  8
Sheet
100
AcDbPolyline
 90
        4
 70
     1
 43
0.0039
 10
1.84
 20
5.82
 10
1.9
 20
5.8
 10
1.84
 20
5.78
 10
1.84
 20
5.82
  0
TEXT
  5
138
330
1F
100
AcDbEntity
  8
Sheet
100
AcDbText
 10
1.7849446
 20
5.8201781
 30
0.0
 40
0.06
  1
3
100
AcDbText
  0
LWPOLYLINE
  5
139
330
1F
100
AcDbEntity
  8
Sheet
100
AcDbPolyline
 90
        2
 70
     0
 43
0.0118
 10
2.3
 20
5.9
 10
2.5
 20
5.9
  0
LWPOLYLINE
  5
13A
330
1F
100
AcDbEntity
  8
Sheet
100
AcDbPolyline
 90
        4
 70
     1
 43
0.0118
 10
2.36
 20
5.9
 10
2.3
 20
5.88
 10
2.3
 20
5.92
 10
2.36
 20
5.9
  0
LWPOLYLINE
  5
13B
330
1F
100
AcDbEntity
  8
Sheet
100
AcDbPolyline
 90
        4
 70
     1
 43
0.0039
 10
2.36
 20
5.9
 10
2.3
 20
5.92
 10
2.3
 20
5.88
 10
2.36
 20
5.9
  0
TEXT
  5
13C
330
1F
100
AcDbEntity
  8
Sheet
100
AcDbText
 10
2.38
 20
5.9201781
 30
0.0
 40
0.06
  1
1
100
AcDbText
  0
ELLIPSE
  5
13D
330
1F
100
AcDbEntity
  8
Sheet
100
AcDbEllipse
 10
2.4991546
 20
5.900855
 30
0.0
 11
0.019197
 21
0.0
 31
0.0
210
0.0
220
0.0
230
1.0
 40
0.9974787727249049
 41
0.0
 42
6.283185307179586
  0
LWPOLYLINE
  5
13E
330
1F
100
AcDbEntity
  8
Sheet
100
AcDbPolyline
 90
        2
 70
     0
 43
0.0118
 10
2.1
 20
6.1
 10
2.1
 20
6.3
  0
TEXT
  5
13F
330
1F
100
AcDbEntity
  8
Sheet
100
AcDbText
 10
2.0748339
 20
6.18
 30
0.0
 40
0.06
  1
4
 50
90.0
100
AcDbText
  0
LWPOLYLINE
  5
140
330
1F
100
AcDbEntity
  8
Sheet
100
AcDbPolyline
 90
        2
 70
     0
 43
0.0118
 10
2.1
 20
5.7
 10
2.1
 20
5.5
  0
TEXT
  5
141
330
1F
100
AcDbEntity
  8
Sheet
100
AcDbText
 10
2.0748339
 20
5.5381862
 30
0.0
 40
0.06
  1
11
 50
90.0
100
AcDbText
  0
LWPOLYLINE
  5
142
330
1F
100
AcDbEntity
  8
Sheet
100
AcDbPolyline
 90
        2
 70
     0
 43
0.0118
 10
1.9
 20
6.1
 10
2.3
 20
5.9
  0
LWPOLYLINE
  5
143
330
1F
100
AcDbEntity
  8
Sheet
100
AcDbPolyline
 90
        2
 70
     0
 43
0.0118
 10
1.9
 20
5.7
 10
2.3
 20
5.9
  0
LWPOLYLINE
  5
144
330
1F
100
AcDbEntity
  8
Sheet
100
AcDbPolyline
 90
        2
 70
     0
 43
0.0118
 10
1.9
 20
6.1
 10
1.9
 20
5.7
  0
LWPOLYLINE
  5
145
330
1F
100
AcDbEntity
  8
Sheet
100
AcDbPolyline
 90
        2
 70
     0
 43
0.0118
 10
1.94
 20
6.0
 10
2.0
 20
6.0
  0
LWPOLYLINE
  5
146
330
1F
100
AcDbEntity
  8
Sheet
100
AcDbPolyline
 90
        2
 70
     0
 43
0.0118
 10
1.94
 20
5.8
 10
2.0
 20
5.8
  0
LWPOLYLINE
  5
147
330
1F
100
AcDbEntity
  8
Sheet
100
AcDbPolyline
 90
        2
 70
     0
 43
0.0118
 10
1.97
 20
5.83
 10
1.97
 20
5.77
  0
LWPOLYLINE
  5
148
330
1F
100
AcDbEntity
  8
Sheet
100
AcDbPolyline
 90
        2
 70
     0
 43
0.0118
 10
2.1
 20
6.1
 10
2.1
 20
6.0
  0
LWPOLYLINE
  5
149
330
1F
100
AcDbEntity
  8
Sheet
100
AcDbPolyline
 90
        2
 70
     0
 43
0.0118
 10
2.1
 20
5.8
 10
2.1
 20
5.7
  0
TEXT
  5
14A
330
1F
100
AcDbEntity
  8
Sheet
100
AcDbText
 10
2.03
 20
5.8701781
 30
0.0
 40
0.06
  1
1
100
AcDbText
  0
TEXT
  5
14B
330
1F
100
AcDbEntity
  8
Sheet
100
AcDbText
 10
2.52
 20
6.1301781
 30
0.0
 40
0.06
  1
U1A
100
AcDbText
  0
TEXT
  5
14C
330
1F
100
AcDbEntity
  8
Sheet
100
AcDbText
 10
2.52
 20
6.0301781
 30
0.0
 40
0.06
  1
MCP6924
100
AcDbText
  0
ELLIPSE
  5
14D
330
1F
100
AcDbEntity
  8
Sheet
100
AcDbEllipse
 10
2.4991546
 20
5.900855
 30
0.0
 11
0.019197
 21
0.0
 31
0.0
210
0.0
220
0.0
230
1.0
 40
0.9974787727249049
 41
0.0
 42
6.283185307179586
  0
ELLIPSE
  5
14E
330
1F
100
AcDbEntity
  8
Sheet
100
AcDbEllipse
 10
2.4991546
 20
5.900855
 30
0.0
 11
0.019197
 21
0.0
 31
0.0
210
0.0
220
0.0
230
1.0
 40
0.9974787727249049
 41
0.0
 42
6.283185307179586
  0
LWPOLYLINE
  5
14F
330
1F
100
AcDbEntity
  8
Sheet
100
AcDbPolyline
 90
        2
 70
     0
 43
0.0118
 10
7.3
 20
5.5
 10
7.3
 20
5.6
  0
LWPOLYLINE
  5
150
330
1F
100
AcDbEntity
  8
Sheet
100
AcDbPolyline
 90
        2
 70
     0
 43
0.0118
 10
7.3
 20
5.3
 10
7.3
 20
5.2
  0
LWPOLYLINE
  5
151
330
1F
100
AcDbEntity
  8
Sheet
100
AcDbPolyline
 90
       10
 70
     0
 43
0.0118
 10
7.3
 20
5.5
 10
7.3
 20
5.46
 10
7.32
 20
5.45
 10
7.28
 20
5.43
 10
7.32
 20
5.41
 10
7.28
 20
5.39
 10
7.32
 20
5.37
 10
7.28
 20
5.35
 10
7.3
 20
5.34
 10
7.3
 20
5.3
  0
TEXT
  5
152
330
1F
100
AcDbEntity
  8
Sheet
100
AcDbText
 10
7.33
 20
5.2301781
 30
0.0
 40
0.06
  1
3.3K
100
AcDbText
  0
TEXT
  5
153
330
1F
100
AcDbEntity
  8
Sheet
100
AcDbText
 10
7.33
 20
5.4301781
 30
0.0
 40
0.06
  1
R12
100
AcDbText
  0
LWPOLYLINE
  5
154
330
1F
100
AcDbEntity
  8
Sheet
100
AcDbPolyline
 90
        2
 70
     0
 43
0.0118
 10
1.4
 20
6.1
 10
1.4
 20
6.2
  0
LWPOLYLINE
  5
155
330
1F
100
AcDbEntity
  8
Sheet
100
AcDbPolyline
 90
        2
 70
     0
 43
0.0118
 10
1.4
 20
5.9
 10
1.4
 20
5.8
  0
ELLIPSE
  5
156
330
1F
100
AcDbEntity
  8
Sheet
100
AcDbEllipse
 10
1.3991364
 20
5.8008334
 30
0.0
 11
0.0
 21
0.0192008
 31
0.0
210
0.0
220
0.0
230
1.0
 40
0.9970834548560477
 41
0.0
 42
6.283185307179586
  0
LWPOLYLINE
  5
157
330
1F
100
AcDbEntity
  8
Sheet
100
AcDbPolyline
 90
       10
 70
     0
 43
0.0118
 10
1.4
 20
6.1
 10
1.4
 20
6.06
 10
1.42
 20
6.05
 10
1.38
 20
6.03
 10
1.42
 20
6.01
 10
1.38
 20
5.99
 10
1.42
 20
5.97
 10
1.38
 20
5.95
 10
1.4
 20
5.94
 10
1.4
 20
5.9
  0
TEXT
  5
158
330
1F
100
AcDbEntity
  8
Sheet
100
AcDbText
 10
1.43
 20
5.8301781
 30
0.0
 40
0.06
  1
10K
100
AcDbText
  0
TEXT
  5
159
330
1F
100
AcDbEntity
  8
Sheet
100
AcDbText
 10
1.43
 20
6.0301781
 30
0.0
 40
0.06
  1
R9
100
AcDbText
  0
ELLIPSE
  5
15A
330
1F
100
AcDbEntity
  8
Sheet
100
AcDbEllipse
 10
1.3991364
 20
5.8008334
 30
0.0
 11
0.0
 21
0.0192008
 31
0.0
210
0.0
220
0.0
230
1.0
 40
0.9970834548560477
 41
0.0
 42
6.283185307179586
  0
ELLIPSE
  5
15B
330
1F
100
AcDbEntity
  8
Sheet
100
AcDbEllipse
 10
1.3991364
 20
5.8008334
 30
0.0
 11
0.0
 21
0.0192008
 31
0.0
210
0.0
220
0.0
230
1.0
 40
0.9970834548560477
 41
0.0
 42
6.283185307179586
  0
LWPOLYLINE
  5
15C
330
1F
100
AcDbEntity
  8
Sheet
100
AcDbPolyline
 90
        2
 70
     0
 43
0.0118
 10
1.4
 20
5.7
 10
1.4
 20
5.8
  0
ELLIPSE
  5
15D
330
1F
100
AcDbEntity
  8
Sheet
100
AcDbEllipse
 10
1.3991364
 20
5.8008334
 30
0.0
 11
0.0
 21
0.0192008
 31
0.0
210
0.0
220
0.0
230
1.0
 40
0.9970834548560477
 41
0.0
 42
6.283185307179586
  0
LWPOLYLINE
  5
15E
330
1F
100
AcDbEntity
  8
Sheet
100
AcDbPolyline
 90
        2
 70
     0
 43
0.0118
 10
1.4
 20
5.5
 10
1.4
 20
5.4
  0
LWPOLYLINE
  5
15F
330
1F
100
AcDbEntity
  8
Sheet
100
AcDbPolyline
 90
       10
 70
     0
 43
0.0118
 10
1.4
 20
5.7
 10
1.4
 20
5.66
 10
1.42
 20
5.65
 10
1.38
 20
5.63
 10
1.42
 20
5.61
 10
1.38
 20
5.59
 10
1.42
 20
5.57
 10
1.38
 20
5.55
 10
1.4
 20
5.54
 10
1.4
 20
5.5
  0
TEXT
  5
160
330
1F
100
AcDbEntity
  8
Sheet
100
AcDbText
 10
1.43
 20
5.4301781
 30
0.0
 40
0.06
  1
10K
100
AcDbText
  0
TEXT
  5
161
330
1F
100
AcDbEntity
  8
Sheet
100
AcDbText
 10
1.43
 20
5.6301781
 30
0.0
 40
0.06
  1
R11
100
AcDbText
  0
ELLIPSE
  5
162
330
1F
100
AcDbEntity
  8
Sheet
100
AcDbEllipse
 10
1.3991364
 20
5.8008334
 30
0.0
 11
0.0
 21
0.0192008
 31
0.0
210
0.0
220
0.0
230
1.0
 40
0.9970834548560477
 41
0.0
 42
6.283185307179586
  0
ELLIPSE
  5
163
330
1F
100
AcDbEntity
  8
Sheet
100
AcDbEllipse
 10
1.3991364
 20
5.8008334
 30
0.0
 11
0.0
 21
0.0192008
 31
0.0
210
0.0
220
0.0
230
1.0
 40
0.9970834548560477
 41
0.0
 42
6.283185307179586
  0
LWPOLYLINE
  5
164
330
1F
100
AcDbEntity
  8
Sheet
100
AcDbPolyline
 90
        2
 70
     0
 43
0.0118
 10
2.0
 20
5.4
 10
2.2
 20
5.4
  0
LWPOLYLINE
  5
165
330
1F
100
AcDbEntity
  8
Sheet
100
AcDbPolyline
 90
        2
 70
     0
 43
0.0118
 10
2.03
 20
5.37
 10
2.17
 20
5.37
  0
LWPOLYLINE
  5
166
330
1F
100
AcDbEntity
  8
Sheet
100
AcDbPolyline
 90
        2
 70
     0
 43
0.0118
 10
2.06
 20
5.34
 10
2.14
 20
5.34
  0
LWPOLYLINE
  5
167
330
1F
100
AcDbEntity
  8
Sheet
100
AcDbPolyline
 90
        2
 70
     0
 43
0.0118
 10
2.09
 20
5.31
 10
2.11
 20
5.31
  0
TEXT
  5
168
330
1F
100
AcDbEntity
  8
Sheet
100
AcDbText
 10
2.0065191
 20
5.22
 30
0.0
 40
0.06
  1
GND
100
AcDbText
  0
LWPOLYLINE
  5
169
330
1F
100
AcDbEntity
  8
Sheet
100
AcDbPolyline
 90
        2
 70
     0
 43
0.0118
 10
2.1
 20
5.5
 10
2.1
 20
5.4
  0
LWPOLYLINE
  5
16A
330
1F
100
AcDbEntity
  8
Sheet
100
AcDbPolyline
 90
        2
 70
     0
 43
0.0118
 10
2.05
 20
6.4
 10
2.15
 20
6.4
  0
TEXT
  5
16B
330
1F
100
AcDbEntity
  8
Sheet
100
AcDbText
 10
2.0240468
 20
6.4201781
 30
0.0
 40
0.06
  1
+5V
100
AcDbText
  0
LWPOLYLINE
  5
16C
330
1F
100
AcDbEntity
  8
Sheet
100
AcDbPolyline
 90
        2
 70
     0
 43
0.0118
 10
2.1
 20
6.3
 10
2.1
 20
6.4
  0
LWPOLYLINE
  5
16D
330
1F
100
AcDbEntity
  8
Sheet
100
AcDbPolyline
 90
        2
 70
     0
 43
0.0118
 10
2.6
 20
5.95
 10
2.6
 20
5.85
  0
TEXT
  5
16E
330
1F
100
AcDbEntity
  8
Sheet
100
AcDbText
 10
2.62
 20
5.8701781
 30
0.0
 40
0.06
  1
Vref
100
AcDbText
  0
LWPOLYLINE
  5
16F
330
1F
100
AcDbEntity
  8
Sheet
100
AcDbPolyline
 90
        2
 70
     0
 43
0.0118
 10
2.5
 20
5.9
 10
2.6
 20
5.9
  0
ELLIPSE
  5
170
330
1F
100
AcDbEntity
  8
Sheet
100
AcDbEllipse
 10
2.4991546
 20
5.900855
 30
0.0
 11
0.019197
 21
0.0
 31
0.0
210
0.0
220
0.0
230
1.0
 40
0.9974787727249049
 41
0.0
 42
6.283185307179586
  0
ELLIPSE
  5
171
330
1F
100
AcDbEntity
  8
Sheet
100
AcDbEllipse
 10
2.4991546
 20
5.900855
 30
0.0
 11
0.019197
 21
0.0
 31
0.0
210
0.0
220
0.0
230
1.0
 40
0.9974787727249049
 41
0.0
 42
6.283185307179586
  0
LWPOLYLINE
  5
172
330
1F
100
AcDbEntity
  8
Sheet
100
AcDbPolyline
 90
        2
 70
     0
 43
0.0118
 10
1.35
 20
6.3
 10
1.45
 20
6.3
  0
TEXT
  5
173
330
1F
100
AcDbEntity
  8
Sheet
100
AcDbText
 10
1.3240468
 20
6.3201781
 30
0.0
 40
0.06
  1
+5V
100
AcDbText
  0
LWPOLYLINE
  5
174
330
1F
100
AcDbEntity
  8
Sheet
100
AcDbPolyline
 90
        2
 70
     0
 43
0.0118
 10
1.4
 20
6.2
 10
1.4
 20
6.3
  0
LWPOLYLINE
  5
175
330
1F
100
AcDbEntity
  8
Sheet
100
AcDbPolyline
 90
        2
 70
     0
 43
0.0118
 10
1.3
 20
5.3
 10
1.5
 20
5.3
  0
LWPOLYLINE
  5
176
330
1F
100
AcDbEntity
  8
Sheet
100
AcDbPolyline
 90
        2
 70
     0
 43
0.0118
 10
1.33
 20
5.27
 10
1.47
 20
5.27
  0
LWPOLYLINE
  5
177
330
1F
100
AcDbEntity
  8
Sheet
100
AcDbPolyline
 90
        2
 70
     0
 43
0.0118
 10
1.36
 20
5.24
 10
1.44
 20
5.24
  0
LWPOLYLINE
  5
178
330
1F
100
AcDbEntity
  8
Sheet
100
AcDbPolyline
 90
        2
 70
     0
 43
0.0118
 10
1.39
 20
5.21
 10
1.41
 20
5.21
  0
TEXT
  5
179
330
1F
100
AcDbEntity
  8
Sheet
100
AcDbText
 10
1.3065191
 20
5.12
 30
0.0
 40
0.06
  1
GND
100
AcDbText
  0
LWPOLYLINE
  5
17A
330
1F
100
AcDbEntity
  8
Sheet
100
AcDbPolyline
 90
        2
 70
     0
 43
0.0118
 10
1.4
 20
5.4
 10
1.4
 20
5.3
  0
LWPOLYLINE
  5
17B
330
1F
100
AcDbEntity
  8
Sheet
100
AcDbPolyline
 90
        2
 70
     0
 43
0.0118
 10
1.2
 20
5.8
 10
1.1
 20
5.8
  0
LWPOLYLINE
  5
17C
330
1F
100
AcDbEntity
  8
Sheet
100
AcDbPolyline
 90
        2
 70
     0
 43
0.0118
 10
1.3
 20
5.8
 10
1.4
 20
5.8
  0
ELLIPSE
  5
17D
330
1F
100
AcDbEntity
  8
Sheet
100
AcDbEllipse
 10
1.3991364
 20
5.8008334
 30
0.0
 11
0.0
 21
0.0192008
 31
0.0
210
0.0
220
0.0
230
1.0
 40
0.9970834548560477
 41
0.0
 42
6.283185307179586
  0
LWPOLYLINE
  5
17E
330
1F
100
AcDbEntity
  8
Sheet
100
AcDbPolyline
 90
        2
 70
     0
 43
0.0118
 10
1.27
 20
5.88
 10
1.27
 20
5.72
  0
LWPOLYLINE
  5
17F
330
1F
100
AcDbEntity
  8
Sheet
100
AcDbPolyline
 90
        2
 70
     0
 43
0.0118
 10
1.23
 20
5.72
 10
1.23
 20
5.88
  0
LWPOLYLINE
  5
180
330
1F
100
AcDbEntity
  8
Sheet
100
AcDbPolyline
 90
        2
 70
     0
 43
0.0118
 10
1.2
 20
5.8
 10
1.23
 20
5.8
  0
LWPOLYLINE
  5
181
330
1F
100
AcDbEntity
  8
Sheet
100
AcDbPolyline
 90
        2
 70
     0
 43
0.0118
 10
1.3
 20
5.8
 10
1.27
 20
5.8
  0
TEXT
  5
182
330
1F
100
AcDbEntity
  8
Sheet
100
AcDbText
 10
1.1
 20
5.5201781
 30
0.0
 40
0.06
  1
10uF
100
AcDbText
  0
TEXT
  5
183
330
1F
100
AcDbEntity
  8
Sheet
100
AcDbText
 10
1.19
 20
5.9101781
 30
0.0
 40
0.06
  1
C1
100
AcDbText
  0
TEXT
  5
184
330
1F
100
AcDbEntity
  8
Sheet
100
AcDbText
 10
1.1
 20
5.6201781
 30
0.0
 40
0.06
  1
Cap
100
AcDbText
  0
ELLIPSE
  5
185
330
1F
100
AcDbEntity
  8
Sheet
100
AcDbEllipse
 10
1.3991364
 20
5.8008334
 30
0.0
 11
0.0
 21
0.0192008
 31
0.0
210
0.0
220
0.0
230
1.0
 40
0.9970834548560477
 41
0.0
 42
6.283185307179586
  0
ELLIPSE
  5
186
330
1F
100
AcDbEntity
  8
Sheet
100
AcDbEllipse
 10
1.3991364
 20
5.8008334
 30
0.0
 11
0.0
 21
0.0192008
 31
0.0
210
0.0
220
0.0
230
1.0
 40
0.9970834548560477
 41
0.0
 42
6.283185307179586
  0
LWPOLYLINE
  5
187
330
1F
100
AcDbEntity
  8
Sheet
100
AcDbPolyline
 90
        2
 70
     0
 43
0.0118
 10
1.0
 20
5.2
 10
1.2
 20
5.2
  0
LWPOLYLINE
  5
188
330
1F
100
AcDbEntity
  8
Sheet
100
AcDbPolyline
 90
        2
 70
     0
 43
0.0118
 10
1.03
 20
5.17
 10
1.17
 20
5.17
  0
LWPOLYLINE
  5
189
330
1F
100
AcDbEntity
  8
Sheet
100
AcDbPolyline
 90
        2
 70
     0
 43
0.0118
 10
1.06
 20
5.14
 10
1.14
 20
5.14
  0
LWPOLYLINE
  5
18A
330
1F
100
AcDbEntity
  8
Sheet
100
AcDbPolyline
 90
        2
 70
     0
 43
0.0118
 10
1.09
 20
5.11
 10
1.11
 20
5.11
  0
TEXT
  5
18B
330
1F
100
AcDbEntity
  8
Sheet
100
AcDbText
 10
1.0065191
 20
5.02
 30
0.0
 40
0.06
  1
GND
100
AcDbText
  0
LWPOLYLINE
  5
18C
330
1F
100
AcDbEntity
  8
Sheet
100
AcDbPolyline
 90
        2
 70
     0
 43
0.0118
 10
1.1
 20
5.3
 10
1.1
 20
5.2
  0
LWPOLYLINE
  5
18D
330
1F
100
AcDbEntity
  8
Sheet
100
AcDbPolyline
 90
        2
 70
     0
 43
0.0118
 10
7.25
 20
5.9
 10
7.35
 20
5.9
  0
TEXT
  5
18E
330
1F
100
AcDbEntity
  8
Sheet
100
AcDbText
 10
7.2240468
 20
5.9201781
 30
0.0
 40
0.06
  1
+5V
100
AcDbText
  0
LWPOLYLINE
  5
18F
330
1F
100
AcDbEntity
  8
Sheet
100
AcDbPolyline
 90
        2
 70
     0
 43
0.0118
 10
7.3
 20
5.8
 10
7.3
 20
5.9
  0
LWPOLYLINE
  5
190
330
1F
100
AcDbEntity
  8
Sheet
100
AcDbPolyline
 90
        2
 70
     0
 43
0.0118
 10
4.6
 20
4.9
 10
4.6
 20
5.0
  0
LWPOLYLINE
  5
191
330
1F
100
AcDbEntity
  8
Sheet
100
AcDbPolyline
 90
        2
 70
     0
 43
0.0118
 10
4.6
 20
4.8
 10
4.6
 20
4.7
  0
LWPOLYLINE
  5
192
330
1F
100
AcDbEntity
  8
Sheet
100
AcDbPolyline
 90
        2
 70
     0
 43
0.0118
 10
4.68
 20
4.83
 10
4.52
 20
4.83
  0
LWPOLYLINE
  5
193
330
1F
100
AcDbEntity
  8
Sheet
100
AcDbPolyline
 90
        2
 70
     0
 43
0.0118
 10
4.52
 20
4.87
 10
4.68
 20
4.87
  0
LWPOLYLINE
  5
194
330
1F
100
AcDbEntity
  8
Sheet
100
AcDbPolyline
 90
        2
 70
     0
 43
0.0118
 10
4.6
 20
4.9
 10
4.6
 20
4.87
  0
LWPOLYLINE
  5
195
330
1F
100
AcDbEntity
  8
Sheet
100
AcDbPolyline
 90
        2
 70
     0
 43
0.0118
 10
4.6
 20
4.8
 10
4.6
 20
4.83
  0
TEXT
  5
196
330
1F
100
AcDbEntity
  8
Sheet
100
AcDbText
 10
4.69
 20
4.6301781
 30
0.0
 40
0.06
  1
0.1uF
100
AcDbText
  0
TEXT
  5
197
330
1F
100
AcDbEntity
  8
Sheet
100
AcDbText
 10
4.69
 20
4.8301781
 30
0.0
 40
0.06
  1
C3
100
AcDbText
  0
LWPOLYLINE
  5
198
330
1F
100
AcDbEntity
  8
Sheet
100
AcDbPolyline
 90
        2
 70
     0
 43
0.0118
 10
7.0
 20
4.6
 10
7.0
 20
4.7
  0
LWPOLYLINE
  5
199
330
1F
100
AcDbEntity
  8
Sheet
100
AcDbPolyline
 90
        2
 70
     0
 43
0.0118
 10
7.0
 20
4.5
 10
7.0
 20
4.4
  0
LWPOLYLINE
  5
19A
330
1F
100
AcDbEntity
  8
Sheet
100
AcDbPolyline
 90
        2
 70
     0
 43
0.0118
 10
7.08
 20
4.53
 10
6.92
 20
4.53
  0
LWPOLYLINE
  5
19B
330
1F
100
AcDbEntity
  8
Sheet
100
AcDbPolyline
 90
        2
 70
     0
 43
0.0118
 10
6.92
 20
4.57
 10
7.08
 20
4.57
  0
LWPOLYLINE
  5
19C
330
1F
100
AcDbEntity
  8
Sheet
100
AcDbPolyline
 90
        2
 70
     0
 43
0.0118
 10
7.0
 20
4.6
 10
7.0
 20
4.57
  0
LWPOLYLINE
  5
19D
330
1F
100
AcDbEntity
  8
Sheet
100
AcDbPolyline
 90
        2
 70
     0
 43
0.0118
 10
7.0
 20
4.5
 10
7.0
 20
4.53
  0
TEXT
  5
19E
330
1F
100
AcDbEntity
  8
Sheet
100
AcDbText
 10
7.09
 20
4.3301781
 30
0.0
 40
0.06
  1
0.1uF
100
AcDbText
  0
TEXT
  5
19F
330
1F
100
AcDbEntity
  8
Sheet
100
AcDbText
 10
7.09
 20
4.5301781
 30
0.0
 40
0.06
  1
C4
100
AcDbText
  0
LWPOLYLINE
  5
1A0
330
1F
100
AcDbEntity
  8
Sheet
100
AcDbPolyline
 90
        2
 70
     0
 43
0.0118
 10
5.25
 20
4.8
 10
5.35
 20
4.8
  0
TEXT
  5
1A1
330
1F
100
AcDbEntity
  8
Sheet
100
AcDbText
 10
5.2482516
 20
4.8201781
 30
0.0
 40
0.06
  1
5V
100
AcDbText
  0
LWPOLYLINE
  5
1A2
330
1F
100
AcDbEntity
  8
Sheet
100
AcDbPolyline
 90
        2
 70
     0
 43
0.0118
 10
5.3
 20
4.7
 10
5.3
 20
4.8
  0
LWPOLYLINE
  5
1A3
330
1F
100
AcDbEntity
  8
Sheet
100
AcDbPolyline
 90
        2
 70
     0
 43
0.0118
 10
3.05
 20
6.6
 10
3.15
 20
6.6
  0
TEXT
  5
1A4
330
1F
100
AcDbEntity
  8
Sheet
100
AcDbText
 10
3.0240468
 20
6.6201781
 30
0.0
 40
0.06
  1
+5V
100
AcDbText
  0
LWPOLYLINE
  5
1A5
330
1F
100
AcDbEntity
  8
Sheet
100
AcDbPolyline
 90
        2
 70
     0
 43
0.0118
 10
3.1
 20
6.5
 10
3.1
 20
6.6
  0
LWPOLYLINE
  5
1A6
330
1F
100
AcDbEntity
  8
Sheet
100
AcDbPolyline
 90
        2
 70
     0
 43
0.0118
 10
3.1
 20
6.4
 10
3.1
 20
6.5
  0
LWPOLYLINE
  5
1A7
330
1F
100
AcDbEntity
  8
Sheet
100
AcDbPolyline
 90
        2
 70
     0
 43
0.0118
 10
3.1
 20
6.2
 10
3.1
 20
6.1
  0
LWPOLYLINE
  5
1A8
330
1F
100
AcDbEntity
  8
Sheet
100
AcDbPolyline
 90
       10
 70
     0
 43
0.0118
 10
3.1
 20
6.4
 10
3.1
 20
6.36
 10
3.12
 20
6.35
 10
3.08
 20
6.33
 10
3.12
 20
6.31
 10
3.08
 20
6.29
 10
3.12
 20
6.27
 10
3.08
 20
6.25
 10
3.1
 20
6.24
 10
3.1
 20
6.2
  0
TEXT
  5
1A9
330
1F
100
AcDbEntity
  8
Sheet
100
AcDbText
 10
3.13
 20
6.1301781
 30
0.0
 40
0.06
  1
100
100
AcDbText
  0
TEXT
  5
1AA
330
1F
100
AcDbEntity
  8
Sheet
100
AcDbText
 10
3.13
 20
6.3301781
 30
0.0
 40
0.06
  1
R8
100
AcDbText
  0
LWPOLYLINE
  5
1AB
330
1F
100
AcDbEntity
  8
Sheet
100
AcDbPolyline
 90
        2
 70
     0
 43
0.0118
 10
3.1
 20
5.9
 10
3.1
 20
6.1
  0
TEXT
  5
1AC
330
1F
100
AcDbEntity
  8
Sheet
100
AcDbText
 10
3.0748339
 20
5.98
 30
0.0
 40
0.06
  1
1
 50
90.0
100
AcDbText
  0
LWPOLYLINE
  5
1AD
330
1F
100
AcDbEntity
  8
Sheet
100
AcDbPolyline
 90
        2
 70
     0
 43
0.0118
 10
3.1
 20
5.8
 10
3.1
 20
5.6
  0
TEXT
  5
1AE
330
1F
100
AcDbEntity
  8
Sheet
100
AcDbText
 10
3.0748339
 20
5.6782584
 30
0.0
 40
0.06
  1
2
 50
90.0
100
AcDbText
  0
LWPOLYLINE
  5
1AF
330
1F
100
AcDbEntity
  8
Sheet
100
AcDbPolyline
 90
        4
 70
     1
 43
0.0118
 10
3.1
 20
5.8
 10
3.0
 20
5.9
 10
3.2
 20
5.9
 10
3.1
 20
5.8
  0
LWPOLYLINE
  5
1B0
330
1F
100
AcDbEntity
  8
Sheet
100
AcDbPolyline
 90
        4
 70
     1
 43
0.0118
 10
3.0
 20
5.9
 10
3.1
 20
5.8
 10
3.2
 20
5.9
 10
3.0
 20
5.9
  0
LWPOLYLINE
  5
1B1
330
1F
100
AcDbEntity
  8
Sheet
100
AcDbPolyline
 90
        2
 70
     0
 43
0.0118
 10
3.2
 20
5.76
 10
3.27
 20
5.69
  0
LWPOLYLINE
  5
1B2
330
1F
100
AcDbEntity
  8
Sheet
100
AcDbPolyline
 90
        2
 70
     0
 43
0.0118
 10
3.24
 20
5.8
 10
3.31
 20
5.73
  0
LWPOLYLINE
  5
1B3
330
1F
100
AcDbEntity
  8
Sheet
100
AcDbPolyline
 90
        4
 70
     1
 43
0.0118
 10
3.27
 20
5.69
 10
3.23
 20
5.71
 10
3.25
 20
5.73
 10
3.27
 20
5.69
  0
LWPOLYLINE
  5
1B4
330
1F
100
AcDbEntity
  8
Sheet
100
AcDbPolyline
 90
        4
 70
     1
 43
0.0118
 10
3.27
 20
5.69
 10
3.25
 20
5.73
 10
3.23
 20
5.71
 10
3.27
 20
5.69
  0
LWPOLYLINE
  5
1B5
330
1F
100
AcDbEntity
  8
Sheet
100
AcDbPolyline
 90
        4
 70
     1
 43
0.0118
 10
3.31
 20
5.73
 10
3.27
 20
5.75
 10
3.29
 20
5.77
 10
3.31
 20
5.73
  0
LWPOLYLINE
  5
1B6
330
1F
100
AcDbEntity
  8
Sheet
100
AcDbPolyline
 90
        4
 70
     1
 43
0.0118
 10
3.31
 20
5.73
 10
3.29
 20
5.77
 10
3.27
 20
5.75
 10
3.31
 20
5.73
  0
LWPOLYLINE
  5
1B7
330
1F
100
AcDbEntity
  8
Sheet
100
AcDbPolyline
 90
        2
 70
     0
 43
0.0118
 10
3.2
 20
5.8
 10
3.0
 20
5.8
  0
TEXT
  5
1B8
330
1F
100
AcDbEntity
  8
Sheet
100
AcDbText
 10
3.32
 20
5.8301781
 30
0.0
 40
0.06
  1
DS1
100
AcDbText
  0
TEXT
  5
1B9
330
1F
100
AcDbEntity
  8
Sheet
100
AcDbText
 10
3.32
 20
5.7301781
 30
0.0
 40
0.06
  1
LED0
100
AcDbText
  0
LWPOLYLINE
  5
1BA
330
1F
100
AcDbEntity
  8
Sheet
100
AcDbPolyline
 90
        2
 70
     0
 43
0.0118
 10
3.0
 20
4.6
 10
3.2
 20
4.6
  0
LWPOLYLINE
  5
1BB
330
1F
100
AcDbEntity
  8
Sheet
100
AcDbPolyline
 90
        2
 70
     0
 43
0.0118
 10
3.03
 20
4.57
 10
3.17
 20
4.57
  0
LWPOLYLINE
  5
1BC
330
1F
100
AcDbEntity
  8
Sheet
100
AcDbPolyline
 90
        2
 70
     0
 43
0.0118
 10
3.06
 20
4.54
 10
3.14
 20
4.54
  0
LWPOLYLINE
  5
1BD
330
1F
100
AcDbEntity
  8
Sheet
100
AcDbPolyline
 90
        2
 70
     0
 43
0.0118
 10
3.09
 20
4.51
 10
3.11
 20
4.51
  0
TEXT
  5
1BE
330
1F
100
AcDbEntity
  8
Sheet
100
AcDbText
 10
3.0065191
 20
4.42
 30
0.0
 40
0.06
  1
GND
100
AcDbText
  0
LWPOLYLINE
  5
1BF
330
1F
100
AcDbEntity
  8
Sheet
100
AcDbPolyline
 90
        2
 70
     0
 43
0.0118
 10
3.1
 20
4.7
 10
3.1
 20
4.6
  0
LWPOLYLINE
  5
1C0
330
1F
100
AcDbEntity
  8
Sheet
100
AcDbPolyline
 90
        5
 70
     1
 43
0.0039
 10
7.8
 20
4.85
 10
7.8
 20
4.95
 10
8.2
 20
4.95
 10
8.2
 20
4.85
 10
7.8
 20
4.85
  0
TEXT
  5
1C1
330
1F
100
AcDbEntity
  8
Sheet
100
AcDbText
 10
7.9
 20
4.87
 30
0.0
 40
0.06
  1
PE1
100
AcDbText
  0
LWPOLYLINE
  5
1C2
330
1F
100
AcDbEntity
  8
Sheet
100
AcDbPolyline
 90
        2
 70
     0
 43
0.0118
 10
1.15
 20
4.0
 10
1.25
 20
4.0
  0
TEXT
  5
1C3
330
1F
100
AcDbEntity
  8
Sheet
100
AcDbText
 10
1.1240468
 20
4.0201781
 30
0.0
 40
0.06
  1
+5V
100
AcDbText
  0
LWPOLYLINE
  5
1C4
330
1F
100
AcDbEntity
  8
Sheet
100
AcDbPolyline
 90
        2
 70
     0
 43
0.0118
 10
1.2
 20
3.9
 10
1.2
 20
4.0
  0
LWPOLYLINE
  5
1C5
330
1F
100
AcDbEntity
  8
Sheet
100
AcDbPolyline
 90
        2
 70
     0
 43
0.0118
 10
1.2
 20
3.8
 10
1.2
 20
3.9
  0
LWPOLYLINE
  5
1C6
330
1F
100
AcDbEntity
  8
Sheet
100
AcDbPolyline
 90
        2
 70
     0
 43
0.0118
 10
1.2
 20
3.6
 10
1.2
 20
3.5
  0
LWPOLYLINE
  5
1C7
330
1F
100
AcDbEntity
  8
Sheet
100
AcDbPolyline
 90
       10
 70
     0
 43
0.0118
 10
1.2
 20
3.8
 10
1.2
 20
3.76
 10
1.22
 20
3.75
 10
1.18
 20
3.73
 10
1.22
 20
3.71
 10
1.18
 20
3.69
 10
1.22
 20
3.67
 10
1.18
 20
3.65
 10
1.2
 20
3.64
 10
1.2
 20
3.6
  0
TEXT
  5
1C8
330
1F
100
AcDbEntity
  8
Sheet
100
AcDbText
 10
1.23
 20
3.5301781
 30
0.0
 40
0.06
  1
100
100
AcDbText
  0
TEXT
  5
1C9
330
1F
100
AcDbEntity
  8
Sheet
100
AcDbText
 10
1.23
 20
3.7301781
 30
0.0
 40
0.06
  1
R14
100
AcDbText
  0
LWPOLYLINE
  5
1CA
330
1F
100
AcDbEntity
  8
Sheet
100
AcDbPolyline
 90
        2
 70
     0
 43
0.0118
 10
1.2
 20
3.3
 10
1.2
 20
3.5
  0
TEXT
  5
1CB
330
1F
100
AcDbEntity
  8
Sheet
100
AcDbText
 10
1.1748339
 20
3.38
 30
0.0
 40
0.06
  1
1
 50
90.0
100
AcDbText
  0
LWPOLYLINE
  5
1CC
330
1F
100
AcDbEntity
  8
Sheet
100
AcDbPolyline
 90
        2
 70
     0
 43
0.0118
 10
1.2
 20
3.2
 10
1.2
 20
3.0
  0
TEXT
  5
1CD
330
1F
100
AcDbEntity
  8
Sheet
100
AcDbText
 10
1.1748339
 20
3.0782584
 30
0.0
 40
0.06
  1
2
 50
90.0
100
AcDbText
  0
LWPOLYLINE
  5
1CE
330
1F
100
AcDbEntity
  8
Sheet
100
AcDbPolyline
 90
        4
 70
     1
 43
0.0118
 10
1.2
 20
3.2
 10
1.1
 20
3.3
 10
1.3
 20
3.3
 10
1.2
 20
3.2
  0
LWPOLYLINE
  5
1CF
330
1F
100
AcDbEntity
  8
Sheet
100
AcDbPolyline
 90
        4
 70
     1
 43
0.0118
 10
1.1
 20
3.3
 10
1.2
 20
3.2
 10
1.3
 20
3.3
 10
1.1
 20
3.3
  0
LWPOLYLINE
  5
1D0
330
1F
100
AcDbEntity
  8
Sheet
100
AcDbPolyline
 90
        2
 70
     0
 43
0.0118
 10
1.3
 20
3.16
 10
1.37
 20
3.09
  0
LWPOLYLINE
  5
1D1
330
1F
100
AcDbEntity
  8
Sheet
100
AcDbPolyline
 90
        2
 70
     0
 43
0.0118
 10
1.34
 20
3.2
 10
1.41
 20
3.13
  0
LWPOLYLINE
  5
1D2
330
1F
100
AcDbEntity
  8
Sheet
100
AcDbPolyline
 90
        4
 70
     1
 43
0.0118
 10
1.37
 20
3.09
 10
1.33
 20
3.11
 10
1.35
 20
3.13
 10
1.37
 20
3.09
  0
LWPOLYLINE
  5
1D3
330
1F
100
AcDbEntity
  8
Sheet
100
AcDbPolyline
 90
        4
 70
     1
 43
0.0118
 10
1.37
 20
3.09
 10
1.35
 20
3.13
 10
1.33
 20
3.11
 10
1.37
 20
3.09
  0
LWPOLYLINE
  5
1D4
330
1F
100
AcDbEntity
  8
Sheet
100
AcDbPolyline
 90
        4
 70
     1
 43
0.0118
 10
1.41
 20
3.13
 10
1.37
 20
3.15
 10
1.39
 20
3.17
 10
1.41
 20
3.13
  0
LWPOLYLINE
  5
1D5
330
1F
100
AcDbEntity
  8
Sheet
100
AcDbPolyline
 90
        4
 70
     1
 43
0.0118
 10
1.41
 20
3.13
 10
1.39
 20
3.17
 10
1.37
 20
3.15
 10
1.41
 20
3.13
  0
LWPOLYLINE
  5
1D6
330
1F
100
AcDbEntity
  8
Sheet
100
AcDbPolyline
 90
        2
 70
     0
 43
0.0118
 10
1.3
 20
3.2
 10
1.1
 20
3.2
  0
TEXT
  5
1D7
330
1F
100
AcDbEntity
  8
Sheet
100
AcDbText
 10
1.42
 20
3.2301781
 30
0.0
 40
0.06
  1
DS2
100
AcDbText
  0
TEXT
  5
1D8
330
1F
100
AcDbEntity
  8
Sheet
100
AcDbText
 10
1.42
 20
3.1301781
 30
0.0
 40
0.06
  1
LED0
100
AcDbText
  0
LWPOLYLINE
  5
1D9
330
1F
100
AcDbEntity
  8
Sheet
100
AcDbPolyline
 90
        2
 70
     0
 43
0.0118
 10
1.1
 20
2.0
 10
1.3
 20
2.0
  0
LWPOLYLINE
  5
1DA
330
1F
100
AcDbEntity
  8
Sheet
100
AcDbPolyline
 90
        2
 70
     0
 43
0.0118
 10
1.13
 20
1.97
 10
1.27
 20
1.97
  0
LWPOLYLINE
  5
1DB
330
1F
100
AcDbEntity
  8
Sheet
100
AcDbPolyline
 90
        2
 70
     0
 43
0.0118
 10
1.16
 20
1.94
 10
1.24
 20
1.94
  0
LWPOLYLINE
  5
1DC
330
1F
100
AcDbEntity
  8
Sheet
100
AcDbPolyline
 90
        2
 70
     0
 43
0.0118
 10
1.19
 20
1.91
 10
1.21
 20
1.91
  0
TEXT
  5
1DD
330
1F
100
AcDbEntity
  8
Sheet
100
AcDbText
 10
1.1065191
 20
1.82
 30
0.0
 40
0.06
  1
GND
100
AcDbText
  0
LWPOLYLINE
  5
1DE
330
1F
100
AcDbEntity
  8
Sheet
100
AcDbPolyline
 90
        2
 70
     0
 43
0.0118
 10
1.2
 20
2.1
 10
1.2
 20
2.0
  0
LWPOLYLINE
  5
1DF
330
1F
100
AcDbEntity
  8
Sheet
100
AcDbPolyline
 90
        2
 70
     0
 43
0.0118
 10
5.3
 20
4.4
 10
5.3
 20
4.3
  0
ELLIPSE
  5
1E0
330
1F
100
AcDbEntity
  8
Sheet
100
AcDbEllipse
 10
5.2991488
 20
4.3008229
 30
0.0
 11
0.0
 21
0.0191487
 31
0.0
210
0.0
220
0.0
230
1.0
 40
0.9997963308214136
 41
0.0
 42
6.283185307179586
  0
LWPOLYLINE
  5
1E1
330
1F
100
AcDbEntity
  8
Sheet
100
AcDbPolyline
 90
        2
 70
     0
 43
0.0118
 10
5.3
 20
4.6
 10
5.3
 20
4.7
  0
LWPOLYLINE
  5
1E2
330
1F
100
AcDbEntity
  8
Sheet
100
AcDbPolyline
 90
       10
 70
     0
 43
0.0118
 10
5.3
 20
4.4
 10
5.3
 20
4.44
 10
5.28
 20
4.45
 10
5.32
 20
4.47
 10
5.28
 20
4.49
 10
5.32
 20
4.51
 10
5.28
 20
4.53
 10
5.32
 20
4.55
 10
5.3
 20
4.56
 10
5.3
 20
4.6
  0
TEXT
  5
1E3
330
1F
100
AcDbEntity
  8
Sheet
100
AcDbText
 10
5.33
 20
4.4301781
 30
0.0
 40
0.06
  1
10K
100
AcDbText
  0
TEXT
  5
1E4
330
1F
100
AcDbEntity
  8
Sheet
100
AcDbText
 10
5.33
 20
4.5301781
 30
0.0
 40
0.06
  1
R1
100
AcDbText
  0
ELLIPSE
  5
1E5
330
1F
100
AcDbEntity
  8
Sheet
100
AcDbEllipse
 10
5.2991488
 20
4.3008229
 30
0.0
 11
0.0
 21
0.0191487
 31
0.0
210
0.0
220
0.0
230
1.0
 40
0.9997963308214136
 41
0.0
 42
6.283185307179586
  0
ELLIPSE
  5
1E6
330
1F
100
AcDbEntity
  8
Sheet
100
AcDbEllipse
 10
5.2991488
 20
4.3008229
 30
0.0
 11
0.0
 21
0.0191487
 31
0.0
210
0.0
220
0.0
230
1.0
 40
0.9997963308214136
 41
0.0
 42
6.283185307179586
  0
LWPOLYLINE
  5
1E7
330
1F
100
AcDbEntity
  8
Sheet
100
AcDbPolyline
 90
        2
 70
     0
 43
0.0118
 10
5.3
 20
4.0
 10
5.3
 20
3.9
  0
LWPOLYLINE
  5
1E8
330
1F
100
AcDbEntity
  8
Sheet
100
AcDbPolyline
 90
        2
 70
     0
 43
0.0118
 10
5.3
 20
4.2
 10
5.3
 20
4.3
  0
ELLIPSE
  5
1E9
330
1F
100
AcDbEntity
  8
Sheet
100
AcDbEllipse
 10
5.2991488
 20
4.3008229
 30
0.0
 11
0.0
 21
0.0191487
 31
0.0
210
0.0
220
0.0
230
1.0
 40
0.9997963308214136
 41
0.0
 42
6.283185307179586
  0
LWPOLYLINE
  5
1EA
330
1F
100
AcDbEntity
  8
Sheet
100
AcDbPolyline
 90
       10
 70
     0
 43
0.0118
 10
5.3
 20
4.0
 10
5.3
 20
4.04
 10
5.28
 20
4.05
 10
5.32
 20
4.07
 10
5.28
 20
4.09
 10
5.32
 20
4.11
 10
5.28
 20
4.13
 10
5.32
 20
4.15
 10
5.3
 20
4.16
 10
5.3
 20
4.2
  0
TEXT
  5
1EB
330
1F
100
AcDbEntity
  8
Sheet
100
AcDbText
 10
5.33
 20
4.0301781
 30
0.0
 40
0.06
  1
2.2K
100
AcDbText
  0
TEXT
  5
1EC
330
1F
100
AcDbEntity
  8
Sheet
100
AcDbText
 10
5.33
 20
4.1301781
 30
0.0
 40
0.06
  1
R2
100
AcDbText
  0
ELLIPSE
  5
1ED
330
1F
100
AcDbEntity
  8
Sheet
100
AcDbEllipse
 10
5.2991488
 20
4.3008229
 30
0.0
 11
0.0
 21
0.0191487
 31
0.0
210
0.0
220
0.0
230
1.0
 40
0.9997963308214136
 41
0.0
 42
6.283185307179586
  0
ELLIPSE
  5
1EE
330
1F
100
AcDbEntity
  8
Sheet
100
AcDbEllipse
 10
5.2991488
 20
4.3008229
 30
0.0
 11
0.0
 21
0.0191487
 31
0.0
210
0.0
220
0.0
230
1.0
 40
0.9997963308214136
 41
0.0
 42
6.283185307179586
  0
LWPOLYLINE
  5
1EF
330
1F
100
AcDbEntity
  8
Sheet
100
AcDbPolyline
 90
        2
 70
     0
 43
0.0118
 10
5.2
 20
3.8
 10
5.4
 20
3.8
  0
LWPOLYLINE
  5
1F0
330
1F
100
AcDbEntity
  8
Sheet
100
AcDbPolyline
 90
        2
 70
     0
 43
0.0118
 10
5.23
 20
3.77
 10
5.37
 20
3.77
  0
LWPOLYLINE
  5
1F1
330
1F
100
AcDbEntity
  8
Sheet
100
AcDbPolyline
 90
        2
 70
     0
 43
0.0118
 10
5.26
 20
3.74
 10
5.34
 20
3.74
  0
LWPOLYLINE
  5
1F2
330
1F
100
AcDbEntity
  8
Sheet
100
AcDbPolyline
 90
        2
 70
     0
 43
0.0118
 10
5.29
 20
3.71
 10
5.31
 20
3.71
  0
TEXT
  5
1F3
330
1F
100
AcDbEntity
  8
Sheet
100
AcDbText
 10
5.2065191
 20
3.62
 30
0.0
 40
0.06
  1
GND
100
AcDbText
  0
LWPOLYLINE
  5
1F4
330
1F
100
AcDbEntity
  8
Sheet
100
AcDbPolyline
 90
        2
 70
     0
 43
0.0118
 10
5.3
 20
3.9
 10
5.3
 20
3.8
  0
LWPOLYLINE
  5
1F5
330
1F
100
AcDbEntity
  8
Sheet
100
AcDbPolyline
 90
        2
 70
     0
 43
0.0118
 10
2.0
 20
3.4
 10
2.0
 20
3.6
  0
LWPOLYLINE
  5
1F6
330
1F
100
AcDbEntity
  8
Sheet
100
AcDbPolyline
 90
        2
 70
     0
 43
0.0118
 10
2.0
 20
3.0
 10
2.0
 20
2.8
  0
LWPOLYLINE
  5
1F7
330
1F
100
AcDbEntity
  8
Sheet
100
AcDbPolyline
 90
        2
 70
     0
 43
0.0118
 10
1.65
 20
3.4
 10
1.68
 20
3.37
  0
LWPOLYLINE
  5
1F8
330
1F
100
AcDbEntity
  8
Sheet
100
AcDbPolyline
 90
        2
 70
     0
 43
0.0118
 10
1.63
 20
3.35
 10
1.66
 20
3.32
  0
LWPOLYLINE
  5
1F9
330
1F
100
AcDbEntity
  8
Sheet
100
AcDbPolyline
 90
        5
 70
     1
 43
0.0118
 10
1.85
 20
3.07
 10
1.83
 20
3.07
 10
1.83
 20
3.33
 10
1.85
 20
3.33
 10
1.85
 20
3.07
  0
LWPOLYLINE
  5
1FA
330
1F
100
AcDbEntity
  8
Sheet
100
AcDbPolyline
 90
        5
 70
     1
 43
0.0118
 10
1.83
 20
3.33
 10
1.85
 20
3.33
 10
1.85
 20
3.07
 10
1.83
 20
3.07
 10
1.83
 20
3.33
  0
LWPOLYLINE
  5
1FB
330
1F
100
AcDbEntity
  8
Sheet
100
AcDbPolyline
 90
        3
 70
     0
 43
0.0118
 10
2.0
 20
3.4
 10
2.0
 20
3.37
 10
1.85
 20
3.22
  0
LWPOLYLINE
  5
1FC
330
1F
100
AcDbEntity
  8
Sheet
100
AcDbPolyline
 90
        3
 70
     0
 43
0.0118
 10
2.0
 20
2.99
 10
2.0
 20
3.02
 10
1.85
 20
3.16
  0
LWPOLYLINE
  5
1FD
330
1F
100
AcDbEntity
  8
Sheet
100
AcDbPolyline
 90
        4
 70
     1
 43
0.0118
 10
2.0
 20
3.02
 10
1.92
 20
3.05
 10
1.96
 20
3.09
 10
2.0
 20
3.02
  0
LWPOLYLINE
  5
1FE
330
1F
100
AcDbEntity
  8
Sheet
100
AcDbPolyline
 90
        4
 70
     1
 43
0.0118
 10
1.96
 20
3.09
 10
1.92
 20
3.05
 10
2.0
 20
3.02
 10
1.96
 20
3.09
  0
ELLIPSE
  5
1FF
330
1F
100
AcDbEntity
  8
Sheet
100
AcDbEllipse
 10
1.8991446
 20
3.2008466
 30
0.0
 11
0.1991686
 21
0.0
 31
0.0
210
0.0
220
0.0
230
1.0
 40
0.9999377411901273
 41
0.0
 42
6.283185307179586
  0
LWPOLYLINE
  5
200
330
1F
100
AcDbEntity
  8
Sheet
100
AcDbPolyline
 90
        4
 70
     1
 43
0.0118
 10
1.7
 20
3.35
 10
1.67
 20
3.35
 10
1.7
 20
3.38
 10
1.7
 20
3.35
  0
LWPOLYLINE
  5
201
330
1F
100
AcDbEntity
  8
Sheet
100
AcDbPolyline
 90
        4
 70
     1
 43
0.0118
 10
1.7
 20
3.38
 10
1.67
 20
3.35
 10
1.7
 20
3.35
 10
1.7
 20
3.38
  0
LWPOLYLINE
  5
202
330
1F
100
AcDbEntity
  8
Sheet
100
AcDbPolyline
 90
        4
 70
     1
 43
0.0118
 10
1.68
 20
3.3
 10
1.65
 20
3.3
 10
1.68
 20
3.33
 10
1.68
 20
3.3
  0
LWPOLYLINE
  5
203
330
1F
100
AcDbEntity
  8
Sheet
100
AcDbPolyline
 90
        4
 70
     1
 43
0.0118
 10
1.68
 20
3.33
 10
1.65
 20
3.3
 10
1.68
 20
3.3
 10
1.68
 20
3.33
  0
TEXT
  5
204
330
1F
100
AcDbEntity
  8
Sheet
100
AcDbText
 10
2.1
 20
3.3301781
 30
0.0
 40
0.06
  1
Q2
100
AcDbText
  0
TEXT
  5
205
330
1F
100
AcDbEntity
  8
Sheet
100
AcDbText
 10
2.1
 20
3.2301781
 30
0.0
 40
0.06
  1
Photo NPN
100
AcDbText
  0
LWPOLYLINE
  5
206
330
1F
100
AcDbEntity
  8
Sheet
100
AcDbPolyline
 90
        2
 70
     0
 43
0.0118
 10
1.95
 20
4.1
 10
2.05
 20
4.1
  0
TEXT
  5
207
330
1F
100
AcDbEntity
  8
Sheet
100
AcDbText
 10
1.9240468
 20
4.1201781
 30
0.0
 40
0.06
  1
+5V
100
AcDbText
  0
LWPOLYLINE
  5
208
330
1F
100
AcDbEntity
  8
Sheet
100
AcDbPolyline
 90
        2
 70
     0
 43
0.0118
 10
2.0
 20
4.0
 10
2.0
 20
4.1
  0
LWPOLYLINE
  5
209
330
1F
100
AcDbEntity
  8
Sheet
100
AcDbPolyline
 90
        2
 70
     0
 43
0.0118
 10
5.0
 20
2.4
 10
5.2
 20
2.4
  0
TEXT
  5
20A
330
1F
100
AcDbEntity
  8
Sheet
100
AcDbText
 10
5.08
 20
2.4201781
 30
0.0
 40
0.06
  1
2
100
AcDbText
  0
LWPOLYLINE
  5
20B
330
1F
100
AcDbEntity
  8
Sheet
100
AcDbPolyline
 90
        2
 70
     0
 43
0.0118
 10
4.6
 20
2.5
 10
4.4
 20
2.5
  0
LWPOLYLINE
  5
20C
330
1F
100
AcDbEntity
  8
Sheet
100
AcDbPolyline
 90
        4
 70
     1
 43
0.0118
 10
4.6
 20
2.5
 10
4.54
 20
2.48
 10
4.54
 20
2.52
 10
4.6
 20
2.5
  0
LWPOLYLINE
  5
20D
330
1F
100
AcDbEntity
  8
Sheet
100
AcDbPolyline
 90
        4
 70
     1
 43
0.0039
 10
4.54
 20
2.52
 10
4.6
 20
2.5
 10
4.54
 20
2.48
 10
4.54
 20
2.52
  0
TEXT
  5
20E
330
1F
100
AcDbEntity
  8
Sheet
100
AcDbText
 10
4.4799367
 20
2.5201781
 30
0.0
 40
0.06
  1
4
100
AcDbText
  0
LWPOLYLINE
  5
20F
330
1F
100
AcDbEntity
  8
Sheet
100
AcDbPolyline
 90
        2
 70
     0
 43
0.0118
 10
4.6
 20
2.3
 10
4.4
 20
2.3
  0
LWPOLYLINE
  5
210
330
1F
100
AcDbEntity
  8
Sheet
100
AcDbPolyline
 90
        4
 70
     1
 43
0.0118
 10
4.6
 20
2.3
 10
4.54
 20
2.28
 10
4.54
 20
2.32
 10
4.6
 20
2.3
  0
LWPOLYLINE
  5
211
330
1F
100
AcDbEntity
  8
Sheet
100
AcDbPolyline
 90
        4
 70
     1
 43
0.0039
 10
4.54
 20
2.32
 10
4.6
 20
2.3
 10
4.54
 20
2.28
 10
4.54
 20
2.32
  0
TEXT
  5
212
330
1F
100
AcDbEntity
  8
Sheet
100
AcDbText
 10
4.4832753
 20
2.3201781
 30
0.0
 40
0.06
  1
5
100
AcDbText
  0
LWPOLYLINE
  5
213
330
1F
100
AcDbEntity
  8
Sheet
100
AcDbPolyline
 90
        2
 70
     0
 43
0.0118
 10
4.8
 20
2.6
 10
4.8
 20
2.8
  0
TEXT
  5
214
330
1F
100
AcDbEntity
  8
Sheet
100
AcDbText
 10
4.7748339
 20
2.68
 30
0.0
 40
0.06
  1
3
 50
90.0
100
AcDbText
  0
ELLIPSE
  5
215
330
1F
100
AcDbEntity
  8
Sheet
100
AcDbEllipse
 10
4.7991928
 20
2.8008646
 30
0.0
 11
0.0
 21
0.0191486
 31
0.0
210
0.0
220
0.0
230
1.0
 40
0.999801552071692
 41
0.0
 42
6.283185307179586
  0
LWPOLYLINE
  5
216
330
1F
100
AcDbEntity
  8
Sheet
100
AcDbPolyline
 90
        2
 70
     0
 43
0.0118
 10
4.8
 20
2.2
 10
4.8
 20
2.0
  0
TEXT
  5
217
330
1F
100
AcDbEntity
  8
Sheet
100
AcDbText
 10
4.7748339
 20
2.0331783
 30
0.0
 40
0.06
  1
12
 50
90.0
100
AcDbText
  0
LWPOLYLINE
  5
218
330
1F
100
AcDbEntity
  8
Sheet
100
AcDbPolyline
 90
        2
 70
     0
 43
0.0118
 10
4.6
 20
2.2
 10
5.0
 20
2.4
  0
LWPOLYLINE
  5
219
330
1F
100
AcDbEntity
  8
Sheet
100
AcDbPolyline
 90
        2
 70
     0
 43
0.0118
 10
4.6
 20
2.6
 10
5.0
 20
2.4
  0
LWPOLYLINE
  5
21A
330
1F
100
AcDbEntity
  8
Sheet
100
AcDbPolyline
 90
        2
 70
     0
 43
0.0118
 10
4.6
 20
2.2
 10
4.6
 20
2.6
  0
LWPOLYLINE
  5
21B
330
1F
100
AcDbEntity
  8
Sheet
100
AcDbPolyline
 90
        2
 70
     0
 43
0.0118
 10
4.64
 20
2.5
 10
4.7
 20
2.5
  0
LWPOLYLINE
  5
21C
330
1F
100
AcDbEntity
  8
Sheet
100
AcDbPolyline
 90
        2
 70
     0
 43
0.0118
 10
4.64
 20
2.3
 10
4.7
 20
2.3
  0
LWPOLYLINE
  5
21D
330
1F
100
AcDbEntity
  8
Sheet
100
AcDbPolyline
 90
        2
 70
     0
 43
0.0118
 10
4.67
 20
2.33
 10
4.67
 20
2.27
  0
LWPOLYLINE
  5
21E
330
1F
100
AcDbEntity
  8
Sheet
100
AcDbPolyline
 90
        2
 70
     0
 43
0.0118
 10
4.8
 20
2.2
 10
4.8
 20
2.3
  0
LWPOLYLINE
  5
21F
330
1F
100
AcDbEntity
  8
Sheet
100
AcDbPolyline
 90
        2
 70
     0
 43
0.0118
 10
4.8
 20
2.5
 10
4.8
 20
2.6
  0
TEXT
  5
220
330
1F
100
AcDbEntity
  8
Sheet
100
AcDbText
 10
4.8
 20
2.6201781
 30
0.0
 40
0.06
  1
U5A
100
AcDbText
  0
TEXT
  5
221
330
1F
100
AcDbEntity
  8
Sheet
100
AcDbText
 10
4.8
 20
2.5201781
 30
0.0
 40
0.06
  1
LM339AN
100
AcDbText
  0
ELLIPSE
  5
222
330
1F
100
AcDbEntity
  8
Sheet
100
AcDbEllipse
 10
4.7991928
 20
2.8008646
 30
0.0
 11
0.0
 21
0.0191486
 31
0.0
210
0.0
220
0.0
230
1.0
 40
0.999801552071692
 41
0.0
 42
6.283185307179586
  0
ELLIPSE
  5
223
330
1F
100
AcDbEntity
  8
Sheet
100
AcDbEllipse
 10
4.7991928
 20
2.8008646
 30
0.0
 11
0.0
 21
0.0191486
 31
0.0
210
0.0
220
0.0
230
1.0
 40
0.999801552071692
 41
0.0
 42
6.283185307179586
  0
LWPOLYLINE
  5
224
330
1F
100
AcDbEntity
  8
Sheet
100
AcDbPolyline
 90
        2
 70
     0
 43
0.0118
 10
2.4
 20
2.4
 10
2.2
 20
2.4
  0
LWPOLYLINE
  5
225
330
1F
100
AcDbEntity
  8
Sheet
100
AcDbPolyline
 90
        4
 70
     1
 43
0.0118
 10
2.4
 20
2.4
 10
2.34
 20
2.38
 10
2.34
 20
2.42
 10
2.4
 20
2.4
  0
LWPOLYLINE
  5
226
330
1F
100
AcDbEntity
  8
Sheet
100
AcDbPolyline
 90
        4
 70
     1
 43
0.0039
 10
2.34
 20
2.42
 10
2.4
 20
2.4
 10
2.34
 20
2.38
 10
2.34
 20
2.42
  0
TEXT
  5
227
330
1F
100
AcDbEntity
  8
Sheet
100
AcDbText
 10
2.2832753
 20
2.4201781
 30
0.0
 40
0.06
  1
5
100
AcDbText
  0
LWPOLYLINE
  5
228
330
1F
100
AcDbEntity
  8
Sheet
100
AcDbPolyline
 90
        2
 70
     0
 43
0.0118
 10
2.4
 20
2.6
 10
2.2
 20
2.6
  0
LWPOLYLINE
  5
229
330
1F
100
AcDbEntity
  8
Sheet
100
AcDbPolyline
 90
        4
 70
     1
 43
0.0118
 10
2.4
 20
2.6
 10
2.34
 20
2.58
 10
2.34
 20
2.62
 10
2.4
 20
2.6
  0
LWPOLYLINE
  5
22A
330
1F
100
AcDbEntity
  8
Sheet
100
AcDbPolyline
 90
        4
 70
     1
 43
0.0039
 10
2.34
 20
2.62
 10
2.4
 20
2.6
 10
2.34
 20
2.58
 10
2.34
 20
2.62
  0
TEXT
  5
22B
330
1F
100
AcDbEntity
  8
Sheet
100
AcDbText
 10
2.2799367
 20
2.6201781
 30
0.0
 40
0.06
  1
6
100
AcDbText
  0
ELLIPSE
  5
22C
330
1F
100
AcDbEntity
  8
Sheet
100
AcDbEllipse
 10
2.1991496
 20
2.6008214
 30
0.0
 11
0.0
 21
0.0191486
 31
0.0
210
0.0
220
0.0
230
1.0
 40
0.999801552071692
 41
0.0
 42
6.283185307179586
  0
LWPOLYLINE
  5
22D
330
1F
100
AcDbEntity
  8
Sheet
100
AcDbPolyline
 90
        2
 70
     0
 43
0.0118
 10
2.8
 20
2.5
 10
3.0
 20
2.5
  0
LWPOLYLINE
  5
22E
330
1F
100
AcDbEntity
  8
Sheet
100
AcDbPolyline
 90
        4
 70
     1
 43
0.0118
 10
2.86
 20
2.5
 10
2.8
 20
2.48
 10
2.8
 20
2.52
 10
2.86
 20
2.5
  0
LWPOLYLINE
  5
22F
330
1F
100
AcDbEntity
  8
Sheet
100
AcDbPolyline
 90
        4
 70
     1
 43
0.0039
 10
2.86
 20
2.5
 10
2.8
 20
2.52
 10
2.8
 20
2.48
 10
2.86
 20
2.5
  0
TEXT
  5
230
330
1F
100
AcDbEntity
  8
Sheet
100
AcDbText
 10
2.88
 20
2.5201781
 30
0.0
 40
0.06
  1
7
100
AcDbText
  0
LWPOLYLINE
  5
231
330
1F
100
AcDbEntity
  8
Sheet
100
AcDbPolyline
 90
        2
 70
     0
 43
0.0118
 10
2.4
 20
2.7
 10
2.8
 20
2.5
  0
LWPOLYLINE
  5
232
330
1F
100
AcDbEntity
  8
Sheet
100
AcDbPolyline
 90
        2
 70
     0
 43
0.0118
 10
2.4
 20
2.3
 10
2.8
 20
2.5
  0
LWPOLYLINE
  5
233
330
1F
100
AcDbEntity
  8
Sheet
100
AcDbPolyline
 90
        2
 70
     0
 43
0.0118
 10
2.4
 20
2.7
 10
2.4
 20
2.3
  0
LWPOLYLINE
  5
234
330
1F
100
AcDbEntity
  8
Sheet
100
AcDbPolyline
 90
        2
 70
     0
 43
0.0118
 10
2.44
 20
2.6
 10
2.5
 20
2.6
  0
LWPOLYLINE
  5
235
330
1F
100
AcDbEntity
  8
Sheet
100
AcDbPolyline
 90
        2
 70
     0
 43
0.0118
 10
2.44
 20
2.4
 10
2.5
 20
2.4
  0
LWPOLYLINE
  5
236
330
1F
100
AcDbEntity
  8
Sheet
100
AcDbPolyline
 90
        2
 70
     0
 43
0.0118
 10
2.47
 20
2.43
 10
2.47
 20
2.37
  0
LWPOLYLINE
  5
237
330
1F
100
AcDbEntity
  8
Sheet
100
AcDbPolyline
 90
        2
 70
     0
 43
0.0118
 10
2.6
 20
2.7
 10
2.6
 20
2.6
  0
LWPOLYLINE
  5
238
330
1F
100
AcDbEntity
  8
Sheet
100
AcDbPolyline
 90
        2
 70
     0
 43
0.0118
 10
2.6
 20
2.4
 10
2.6
 20
2.3
  0
TEXT
  5
239
330
1F
100
AcDbEntity
  8
Sheet
100
AcDbText
 10
2.53
 20
2.4701781
 30
0.0
 40
0.06
  1
2
100
AcDbText
  0
LWPOLYLINE
  5
23A
330
1F
100
AcDbEntity
  8
Sheet
100
AcDbPolyline
 90
        2
 70
     0
 43
0.0118
 10
2.6
 20
2.7
 10
2.6
 20
2.9
  0
TEXT
  5
23B
330
1F
100
AcDbEntity
  8
Sheet
100
AcDbText
 10
2.5748339
 20
2.78
 30
0.0
 40
0.06
  1
4
 50
90.0
100
AcDbText
  0
ELLIPSE
  5
23C
330
1F
100
AcDbEntity
  8
Sheet
100
AcDbEllipse
 10
2.5991562
 20
2.9008338
 30
0.0
 11
0.0
 21
0.0191486
 31
0.0
210
0.0
220
0.0
230
1.0
 40
0.999801552071692
 41
0.0
 42
6.283185307179586
  0
LWPOLYLINE
  5
23D
330
1F
100
AcDbEntity
  8
Sheet
100
AcDbPolyline
 90
        2
 70
     0
 43
0.0118
 10
2.6
 20
2.3
 10
2.6
 20
2.1
  0
TEXT
  5
23E
330
1F
100
AcDbEntity
  8
Sheet
100
AcDbText
 10
2.5748339
 20
2.1381862
 30
0.0
 40
0.06
  1
11
 50
90.0
100
AcDbText
  0
ELLIPSE
  5
23F
330
1F
100
AcDbEntity
  8
Sheet
100
AcDbEllipse
 10
2.5991562
 20
2.1008702
 30
0.0
 11
0.0
 21
0.0191486
 31
0.0
210
0.0
220
0.0
230
1.0
 40
0.999801552071692
 41
0.0
 42
6.283185307179586
  0
TEXT
  5
240
330
1F
100
AcDbEntity
  8
Sheet
100
AcDbText
 10
2.7
 20
2.7201781
 30
0.0
 40
0.06
  1
U1B
100
AcDbText
  0
TEXT
  5
241
330
1F
100
AcDbEntity
  8
Sheet
100
AcDbText
 10
2.7
 20
2.6201781
 30
0.0
 40
0.06
  1
MCP6294
100
AcDbText
  0
ELLIPSE
  5
242
330
1F
100
AcDbEntity
  8
Sheet
100
AcDbEllipse
 10
2.1991496
 20
2.6008214
 30
0.0
 11
0.0
 21
0.0191486
 31
0.0
210
0.0
220
0.0
230
1.0
 40
0.999801552071692
 41
0.0
 42
6.283185307179586
  0
ELLIPSE
  5
243
330
1F
100
AcDbEntity
  8
Sheet
100
AcDbEllipse
 10
2.5991562
 20
2.9008338
 30
0.0
 11
0.0
 21
0.0191486
 31
0.0
210
0.0
220
0.0
230
1.0
 40
0.999801552071692
 41
0.0
 42
6.283185307179586
  0
ELLIPSE
  5
244
330
1F
100
AcDbEntity
  8
Sheet
100
AcDbEllipse
 10
2.5991562
 20
2.1008702
 30
0.0
 11
0.0
 21
0.0191486
 31
0.0
210
0.0
220
0.0
230
1.0
 40
0.999801552071692
 41
0.0
 42
6.283185307179586
  0
ELLIPSE
  5
245
330
1F
100
AcDbEntity
  8
Sheet
100
AcDbEllipse
 10
2.1991496
 20
2.6008214
 30
0.0
 11
0.0
 21
0.0191486
 31
0.0
210
0.0
220
0.0
230
1.0
 40
0.999801552071692
 41
0.0
 42
6.283185307179586
  0
ELLIPSE
  5
246
330
1F
100
AcDbEntity
  8
Sheet
100
AcDbEllipse
 10
2.5991562
 20
2.9008338
 30
0.0
 11
0.0
 21
0.0191486
 31
0.0
210
0.0
220
0.0
230
1.0
 40
0.999801552071692
 41
0.0
 42
6.283185307179586
  0
ELLIPSE
  5
247
330
1F
100
AcDbEntity
  8
Sheet
100
AcDbEllipse
 10
2.5991562
 20
2.1008702
 30
0.0
 11
0.0
 21
0.0191486
 31
0.0
210
0.0
220
0.0
230
1.0
 40
0.999801552071692
 41
0.0
 42
6.283185307179586
  0
LWPOLYLINE
  5
248
330
1F
100
AcDbEntity
  8
Sheet
100
AcDbPolyline
 90
        2
 70
     0
 43
0.0118
 10
3.1
 20
3.1
 10
3.2
 20
3.1
  0
LWPOLYLINE
  5
249
330
1F
100
AcDbEntity
  8
Sheet
100
AcDbPolyline
 90
        2
 70
     0
 43
0.0118
 10
2.9
 20
3.1
 10
2.8
 20
3.1
  0
LWPOLYLINE
  5
24A
330
1F
100
AcDbEntity
  8
Sheet
100
AcDbPolyline
 90
       10
 70
     0
 43
0.0118
 10
3.1
 20
3.1
 10
3.06
 20
3.1
 10
3.05
 20
3.08
 10
3.03
 20
3.12
 10
3.01
 20
3.08
 10
2.99
 20
3.12
 10
2.97
 20
3.08
 10
2.95
 20
3.12
 10
2.94
 20
3.1
 10
2.9
 20
3.1
  0
TEXT
  5
24B
330
1F
100
AcDbEntity
  8
Sheet
100
AcDbText
 10
2.89
 20
2.8901781
 30
0.0
 40
0.06
  1
3.3K
100
AcDbText
  0
TEXT
  5
24C
330
1F
100
AcDbEntity
  8
Sheet
100
AcDbText
 10
2.89
 20
3.1501781
 30
0.0
 40
0.06
  1
R3
100
AcDbText
  0
LWPOLYLINE
  5
24D
330
1F
100
AcDbEntity
  8
Sheet
100
AcDbPolyline
 90
        2
 70
     0
 43
0.0118
 10
1.8
 20
2.45
 10
1.8
 20
2.35
  0
TEXT
  5
24E
330
1F
100
AcDbEntity
  8
Sheet
100
AcDbText
 10
1.614739
 20
2.3701781
 30
0.0
 40
0.06
  1
Vref
100
AcDbText
  0
LWPOLYLINE
  5
24F
330
1F
100
AcDbEntity
  8
Sheet
100
AcDbPolyline
 90
        2
 70
     0
 43
0.0118
 10
1.9
 20
2.4
 10
1.8
 20
2.4
  0
LWPOLYLINE
  5
250
330
1F
100
AcDbEntity
  8
Sheet
100
AcDbPolyline
 90
        2
 70
     0
 43
0.0118
 10
2.55
 20
3.0
 10
2.65
 20
3.0
  0
TEXT
  5
251
330
1F
100
AcDbEntity
  8
Sheet
100
AcDbText
 10
2.5240468
 20
3.0201781
 30
0.0
 40
0.06
  1
+5V
100
AcDbText
  0
LWPOLYLINE
  5
252
330
1F
100
AcDbEntity
  8
Sheet
100
AcDbPolyline
 90
        2
 70
     0
 43
0.0118
 10
2.6
 20
2.9
 10
2.6
 20
3.0
  0
ELLIPSE
  5
253
330
1F
100
AcDbEntity
  8
Sheet
100
AcDbEllipse
 10
2.5991562
 20
2.9008338
 30
0.0
 11
0.0
 21
0.0191486
 31
0.0
210
0.0
220
0.0
230
1.0
 40
0.999801552071692
 41
0.0
 42
6.283185307179586
  0
ELLIPSE
  5
254
330
1F
100
AcDbEntity
  8
Sheet
100
AcDbEllipse
 10
2.5991562
 20
2.9008338
 30
0.0
 11
0.0
 21
0.0191486
 31
0.0
210
0.0
220
0.0
230
1.0
 40
0.999801552071692
 41
0.0
 42
6.283185307179586
  0
LWPOLYLINE
  5
255
330
1F
100
AcDbEntity
  8
Sheet
100
AcDbPolyline
 90
        2
 70
     0
 43
0.0118
 10
4.75
 20
2.9
 10
4.85
 20
2.9
  0
TEXT
  5
256
330
1F
100
AcDbEntity
  8
Sheet
100
AcDbText
 10
4.7240468
 20
2.9201781
 30
0.0
 40
0.06
  1
+5V
100
AcDbText
  0
LWPOLYLINE
  5
257
330
1F
100
AcDbEntity
  8
Sheet
100
AcDbPolyline
 90
        2
 70
     0
 43
0.0118
 10
4.8
 20
2.8
 10
4.8
 20
2.9
  0
ELLIPSE
  5
258
330
1F
100
AcDbEntity
  8
Sheet
100
AcDbEllipse
 10
4.7991928
 20
2.8008646
 30
0.0
 11
0.0
 21
0.0191486
 31
0.0
210
0.0
220
0.0
230
1.0
 40
0.999801552071692
 41
0.0
 42
6.283185307179586
  0
ELLIPSE
  5
259
330
1F
100
AcDbEntity
  8
Sheet
100
AcDbEllipse
 10
4.7991928
 20
2.8008646
 30
0.0
 11
0.0
 21
0.0191486
 31
0.0
210
0.0
220
0.0
230
1.0
 40
0.999801552071692
 41
0.0
 42
6.283185307179586
  0
LWPOLYLINE
  5
25A
330
1F
100
AcDbEntity
  8
Sheet
100
AcDbPolyline
 90
        2
 70
     0
 43
0.0118
 10
2.5
 20
2.0
 10
2.7
 20
2.0
  0
LWPOLYLINE
  5
25B
330
1F
100
AcDbEntity
  8
Sheet
100
AcDbPolyline
 90
        2
 70
     0
 43
0.0118
 10
2.53
 20
1.97
 10
2.67
 20
1.97
  0
LWPOLYLINE
  5
25C
330
1F
100
AcDbEntity
  8
Sheet
100
AcDbPolyline
 90
        2
 70
     0
 43
0.0118
 10
2.56
 20
1.94
 10
2.64
 20
1.94
  0
LWPOLYLINE
  5
25D
330
1F
100
AcDbEntity
  8
Sheet
100
AcDbPolyline
 90
        2
 70
     0
 43
0.0118
 10
2.59
 20
1.91
 10
2.61
 20
1.91
  0
TEXT
  5
25E
330
1F
100
AcDbEntity
  8
Sheet
100
AcDbText
 10
2.5065191
 20
1.82
 30
0.0
 40
0.06
  1
GND
100
AcDbText
  0
LWPOLYLINE
  5
25F
330
1F
100
AcDbEntity
  8
Sheet
100
AcDbPolyline
 90
        2
 70
     0
 43
0.0118
 10
2.6
 20
2.1
 10
2.6
 20
2.0
  0
ELLIPSE
  5
260
330
1F
100
AcDbEntity
  8
Sheet
100
AcDbEllipse
 10
2.5991562
 20
2.1008702
 30
0.0
 11
0.0
 21
0.0191486
 31
0.0
210
0.0
220
0.0
230
1.0
 40
0.999801552071692
 41
0.0
 42
6.283185307179586
  0
ELLIPSE
  5
261
330
1F
100
AcDbEntity
  8
Sheet
100
AcDbEllipse
 10
2.5991562
 20
2.1008702
 30
0.0
 11
0.0
 21
0.0191486
 31
0.0
210
0.0
220
0.0
230
1.0
 40
0.999801552071692
 41
0.0
 42
6.283185307179586
  0
LWPOLYLINE
  5
262
330
1F
100
AcDbEntity
  8
Sheet
100
AcDbPolyline
 90
        2
 70
     0
 43
0.0118
 10
4.7
 20
1.6
 10
4.9
 20
1.6
  0
LWPOLYLINE
  5
263
330
1F
100
AcDbEntity
  8
Sheet
100
AcDbPolyline
 90
        2
 70
     0
 43
0.0118
 10
4.73
 20
1.57
 10
4.87
 20
1.57
  0
LWPOLYLINE
  5
264
330
1F
100
AcDbEntity
  8
Sheet
100
AcDbPolyline
 90
        2
 70
     0
 43
0.0118
 10
4.76
 20
1.54
 10
4.84
 20
1.54
  0
LWPOLYLINE
  5
265
330
1F
100
AcDbEntity
  8
Sheet
100
AcDbPolyline
 90
        2
 70
     0
 43
0.0118
 10
4.79
 20
1.51
 10
4.81
 20
1.51
  0
TEXT
  5
266
330
1F
100
AcDbEntity
  8
Sheet
100
AcDbText
 10
4.7065191
 20
1.42
 30
0.0
 40
0.06
  1
GND
100
AcDbText
  0
LWPOLYLINE
  5
267
330
1F
100
AcDbEntity
  8
Sheet
100
AcDbPolyline
 90
        2
 70
     0
 43
0.0118
 10
4.8
 20
1.7
 10
4.8
 20
1.6
  0
LWPOLYLINE
  5
268
330
1F
100
AcDbEntity
  8
Sheet
100
AcDbPolyline
 90
        2
 70
     0
 43
0.0118
 10
5.4
 20
3.0
 10
5.4
 20
3.1
  0
LWPOLYLINE
  5
269
330
1F
100
AcDbEntity
  8
Sheet
100
AcDbPolyline
 90
        2
 70
     0
 43
0.0118
 10
5.4
 20
2.8
 10
5.4
 20
2.7
  0
LWPOLYLINE
  5
26A
330
1F
100
AcDbEntity
  8
Sheet
100
AcDbPolyline
 90
       10
 70
     0
 43
0.0118
 10
5.4
 20
3.0
 10
5.4
 20
2.96
 10
5.42
 20
2.95
 10
5.38
 20
2.93
 10
5.42
 20
2.91
 10
5.38
 20
2.89
 10
5.42
 20
2.87
 10
5.38
 20
2.85
 10
5.4
 20
2.84
 10
5.4
 20
2.8
  0
TEXT
  5
26B
330
1F
100
AcDbEntity
  8
Sheet
100
AcDbText
 10
5.43
 20
2.7301781
 30
0.0
 40
0.06
  1
3.3K
100
AcDbText
  0
TEXT
  5
26C
330
1F
100
AcDbEntity
  8
Sheet
100
AcDbText
 10
5.43
 20
2.9301781
 30
0.0
 40
0.06
  1
R4
100
AcDbText
  0
LWPOLYLINE
  5
26D
330
1F
100
AcDbEntity
  8
Sheet
100
AcDbPolyline
 90
        2
 70
     0
 43
0.0118
 10
5.35
 20
3.4
 10
5.45
 20
3.4
  0
TEXT
  5
26E
330
1F
100
AcDbEntity
  8
Sheet
100
AcDbText
 10
5.3240468
 20
3.4201781
 30
0.0
 40
0.06
  1
+5V
100
AcDbText
  0
LWPOLYLINE
  5
26F
330
1F
100
AcDbEntity
  8
Sheet
100
AcDbPolyline
 90
        2
 70
     0
 43
0.0118
 10
5.4
 20
3.3
 10
5.4
 20
3.4
  0
LWPOLYLINE
  5
270
330
1F
100
AcDbEntity
  8
Sheet
100
AcDbPolyline
 90
        2
 70
     0
 43
0.0118
 10
2.7
 20
2.4
 10
2.7
 20
2.5
  0
LWPOLYLINE
  5
271
330
1F
100
AcDbEntity
  8
Sheet
100
AcDbPolyline
 90
        2
 70
     0
 43
0.0118
 10
2.7
 20
2.3
 10
2.7
 20
2.2
  0
LWPOLYLINE
  5
272
330
1F
100
AcDbEntity
  8
Sheet
100
AcDbPolyline
 90
        2
 70
     0
 43
0.0118
 10
2.78
 20
2.33
 10
2.62
 20
2.33
  0
LWPOLYLINE
  5
273
330
1F
100
AcDbEntity
  8
Sheet
100
AcDbPolyline
 90
        2
 70
     0
 43
0.0118
 10
2.62
 20
2.37
 10
2.78
 20
2.37
  0
LWPOLYLINE
  5
274
330
1F
100
AcDbEntity
  8
Sheet
100
AcDbPolyline
 90
        2
 70
     0
 43
0.0118
 10
2.7
 20
2.4
 10
2.7
 20
2.37
  0
LWPOLYLINE
  5
275
330
1F
100
AcDbEntity
  8
Sheet
100
AcDbPolyline
 90
        2
 70
     0
 43
0.0118
 10
2.7
 20
2.3
 10
2.7
 20
2.33
  0
TEXT
  5
276
330
1F
100
AcDbEntity
  8
Sheet
100
AcDbText
 10
2.79
 20
2.1301781
 30
0.0
 40
0.06
  1
0.1uF
100
AcDbText
  0
TEXT
  5
277
330
1F
100
AcDbEntity
  8
Sheet
100
AcDbText
 10
2.79
 20
2.3301781
 30
0.0
 40
0.06
  1
C2
100
AcDbText
  0
LWPOLYLINE
  5
278
330
1F
100
AcDbEntity
  8
Sheet
100
AcDbPolyline
 90
        2
 70
     0
 43
0.0118
 10
5.1
 20
2.1
 10
5.1
 20
2.2
  0
LWPOLYLINE
  5
279
330
1F
100
AcDbEntity
  8
Sheet
100
AcDbPolyline
 90
        2
 70
     0
 43
0.0118
 10
5.1
 20
2.0
 10
5.1
 20
1.9
  0
LWPOLYLINE
  5
27A
330
1F
100
AcDbEntity
  8
Sheet
100
AcDbPolyline
 90
        2
 70
     0
 43
0.0118
 10
5.18
 20
2.03
 10
5.02
 20
2.03
  0
LWPOLYLINE
  5
27B
330
1F
100
AcDbEntity
  8
Sheet
100
AcDbPolyline
 90
        2
 70
     0
 43
0.0118
 10
5.02
 20
2.07
 10
5.18
 20
2.07
  0
LWPOLYLINE
  5
27C
330
1F
100
AcDbEntity
  8
Sheet
100
AcDbPolyline
 90
        2
 70
     0
 43
0.0118
 10
5.1
 20
2.1
 10
5.1
 20
2.07
  0
LWPOLYLINE
  5
27D
330
1F
100
AcDbEntity
  8
Sheet
100
AcDbPolyline
 90
        2
 70
     0
 43
0.0118
 10
5.1
 20
2.0
 10
5.1
 20
2.03
  0
TEXT
  5
27E
330
1F
100
AcDbEntity
  8
Sheet
100
AcDbText
 10
5.19
 20
1.8301781
 30
0.0
 40
0.06
  1
0.1uF
100
AcDbText
  0
TEXT
  5
27F
330
1F
100
AcDbEntity
  8
Sheet
100
AcDbText
 10
5.19
 20
2.0301781
 30
0.0
 40
0.06
  1
C5
100
AcDbText
  0
LWPOLYLINE
  5
280
330
1F
100
AcDbEntity
  8
Sheet
100
AcDbPolyline
 90
        5
 70
     1
 43
0.0039
 10
5.9
 20
2.35
 10
5.9
 20
2.45
 10
6.3
 20
2.45
 10
6.3
 20
2.35
 10
5.9
 20
2.35
  0
TEXT
  5
281
330
1F
100
AcDbEntity
  8
Sheet
100
AcDbText
 10
6.0
 20
2.37
 30
0.0
 40
0.06
  1
PE2
100
AcDbText
  0
LWPOLYLINE
  5
282
330
1F
100
AcDbEntity
  8
Sheet
100
AcDbPolyline
 90
        2
 70
     0
 43
0.0118
 10
3.8
 20
4.9
 10
4.0
 20
4.9
  0
LWPOLYLINE
  5
283
330
1F
100
AcDbEntity
  8
Sheet
100
AcDbPolyline
 90
        5
 70
     0
 43
0.0118
 10
3.9
 20
5.3
 10
3.9
 20
5.1
 10
4.0
 20
5.1
 10
4.0
 20
5.6
 10
4.7
 20
5.6
  0
ELLIPSE
  5
284
330
1F
100
AcDbEntity
  8
Sheet
100
AcDbEllipse
 10
3.9991794
 20
5.100839
 30
0.0
 11
0.0
 21
0.0192008
 31
0.0
210
0.0
220
0.0
230
1.0
 40
0.9970938710887045
 41
0.0
 42
6.283185307179586
  0
ELLIPSE
  5
285
330
1F
100
AcDbEntity
  8
Sheet
100
AcDbEllipse
 10
3.9991794
 20
5.100839
 30
0.0
 11
0.0
 21
0.0192008
 31
0.0
210
0.0
220
0.0
230
1.0
 40
0.9970938710887045
 41
0.0
 42
6.283185307179586
  0
LWPOLYLINE
  5
286
330
1F
100
AcDbEntity
  8
Sheet
100
AcDbPolyline
 90
        4
 70
     0
 43
0.0118
 10
1.7
 20
6.0
 10
1.7
 20
6.6
 10
2.5
 20
6.6
 10
2.5
 20
5.9
  0
ELLIPSE
  5
287
330
1F
100
AcDbEntity
  8
Sheet
100
AcDbEllipse
 10
2.4991546
 20
5.900855
 30
0.0
 11
0.019197
 21
0.0
 31
0.0
210
0.0
220
0.0
230
1.0
 40
0.9974787727249049
 41
0.0
 42
6.283185307179586
  0
ELLIPSE
  5
288
330
1F
100
AcDbEntity
  8
Sheet
100
AcDbEllipse
 10
2.4991546
 20
5.900855
 30
0.0
 11
0.019197
 21
0.0
 31
0.0
210
0.0
220
0.0
230
1.0
 40
0.9974787727249049
 41
0.0
 42
6.283185307179586
  0
LWPOLYLINE
  5
289
330
1F
100
AcDbEntity
  8
Sheet
100
AcDbPolyline
 90
        2
 70
     0
 43
0.0118
 10
1.7
 20
5.8
 10
1.4
 20
5.8
  0
ELLIPSE
  5
28A
330
1F
100
AcDbEntity
  8
Sheet
100
AcDbEllipse
 10
1.3991364
 20
5.8008334
 30
0.0
 11
0.0
 21
0.0192008
 31
0.0
210
0.0
220
0.0
230
1.0
 40
0.9970834548560477
 41
0.0
 42
6.283185307179586
  0
ELLIPSE
  5
28B
330
1F
100
AcDbEntity
  8
Sheet
100
AcDbEllipse
 10
1.3991364
 20
5.8008334
 30
0.0
 11
0.0
 21
0.0192008
 31
0.0
210
0.0
220
0.0
230
1.0
 40
0.9970834548560477
 41
0.0
 42
6.283185307179586
  0
LWPOLYLINE
  5
28C
330
1F
100
AcDbEntity
  8
Sheet
100
AcDbPolyline
 90
        2
 70
     0
 43
0.0118
 10
1.1
 20
5.8
 10
1.1
 20
5.3
  0
LWPOLYLINE
  5
28D
330
1F
100
AcDbEntity
  8
Sheet
100
AcDbPolyline
 90
        2
 70
     0
 43
0.0118
 10
7.3
 20
5.8
 10
7.3
 20
5.6
  0
LWPOLYLINE
  5
28E
330
1F
100
AcDbEntity
  8
Sheet
100
AcDbPolyline
 90
        3
 70
     0
 43
0.0118
 10
6.7
 20
4.2
 10
6.7
 20
4.3
 10
6.7
 20
4.5
  0
ELLIPSE
  5
28F
330
1F
100
AcDbEntity
  8
Sheet
100
AcDbEllipse
 10
6.699172
 20
4.3008229
 30
0.0
 11
0.0
 21
0.0191487
 31
0.0
210
0.0
220
0.0
230
1.0
 40
0.9997963308214136
 41
0.0
 42
6.283185307179586
  0
ELLIPSE
  5
290
330
1F
100
AcDbEntity
  8
Sheet
100
AcDbEllipse
 10
6.699172
 20
4.3008229
 30
0.0
 11
0.0
 21
0.0191487
 31
0.0
210
0.0
220
0.0
230
1.0
 40
0.9997963308214136
 41
0.0
 42
6.283185307179586
  0
LWPOLYLINE
  5
291
330
1F
100
AcDbEntity
  8
Sheet
100
AcDbPolyline
 90
        3
 70
     0
 43
0.0118
 10
7.3
 20
5.2
 10
7.3
 20
4.9
 10
7.1
 20
4.9
  0
ELLIPSE
  5
292
330
1F
100
AcDbEntity
  8
Sheet
100
AcDbEllipse
 10
7.2991816
 20
4.900848
 30
0.0
 11
0.0
 21
0.0191486
 31
0.0
210
0.0
220
0.0
230
1.0
 40
0.999801552071692
 41
0.0
 42
6.283185307179586
  0
ELLIPSE
  5
293
330
1F
100
AcDbEntity
  8
Sheet
100
AcDbEllipse
 10
7.2991816
 20
4.900848
 30
0.0
 11
0.0
 21
0.0191486
 31
0.0
210
0.0
220
0.0
230
1.0
 40
0.999801552071692
 41
0.0
 42
6.283185307179586
  0
LWPOLYLINE
  5
294
330
1F
100
AcDbEntity
  8
Sheet
100
AcDbPolyline
 90
        2
 70
     0
 43
0.0118
 10
7.3
 20
4.9
 10
7.8
 20
4.9
  0
ELLIPSE
  5
295
330
1F
100
AcDbEntity
  8
Sheet
100
AcDbEllipse
 10
7.2991816
 20
4.900848
 30
0.0
 11
0.0
 21
0.0191486
 31
0.0
210
0.0
220
0.0
230
1.0
 40
0.999801552071692
 41
0.0
 42
6.283185307179586
  0
ELLIPSE
  5
296
330
1F
100
AcDbEntity
  8
Sheet
100
AcDbEllipse
 10
7.2991816
 20
4.900848
 30
0.0
 11
0.0
 21
0.0191486
 31
0.0
210
0.0
220
0.0
230
1.0
 40
0.999801552071692
 41
0.0
 42
6.283185307179586
  0
LWPOLYLINE
  5
297
330
1F
100
AcDbEntity
  8
Sheet
100
AcDbPolyline
 90
        3
 70
     0
 43
0.0118
 10
4.4
 20
5.4
 10
4.6
 20
5.4
 10
4.6
 20
5.0
  0
ELLIPSE
  5
298
330
1F
100
AcDbEntity
  8
Sheet
100
AcDbEllipse
 10
4.399186
 20
5.4008514
 30
0.0
 11
0.0
 21
0.0192008
 31
0.0
210
0.0
220
0.0
230
1.0
 40
0.9970834548560477
 41
0.0
 42
6.283185307179586
  0
ELLIPSE
  5
299
330
1F
100
AcDbEntity
  8
Sheet
100
AcDbEllipse
 10
4.399186
 20
5.4008514
 30
0.0
 11
0.0
 21
0.0192008
 31
0.0
210
0.0
220
0.0
230
1.0
 40
0.9970834548560477
 41
0.0
 42
6.283185307179586
  0
LWPOLYLINE
  5
29A
330
1F
100
AcDbEntity
  8
Sheet
100
AcDbPolyline
 90
        3
 70
     0
 43
0.0118
 10
4.6
 20
4.7
 10
4.4
 20
4.7
 10
4.4
 20
4.6
  0
ELLIPSE
  5
29B
330
1F
100
AcDbEntity
  8
Sheet
100
AcDbEllipse
 10
4.399186
 20
4.6008354
 30
0.0
 11
0.0
 21
0.0191486
 31
0.0
210
0.0
220
0.0
230
1.0
 40
0.999801552071692
 41
0.0
 42
6.283185307179586
  0
ELLIPSE
  5
29C
330
1F
100
AcDbEntity
  8
Sheet
100
AcDbEllipse
 10
4.399186
 20
4.6008354
 30
0.0
 11
0.0
 21
0.0191486
 31
0.0
210
0.0
220
0.0
230
1.0
 40
0.999801552071692
 41
0.0
 42
6.283185307179586
  0
LWPOLYLINE
  5
29D
330
1F
100
AcDbEntity
  8
Sheet
100
AcDbPolyline
 90
        2
 70
     0
 43
0.0118
 10
5.1
 20
5.6
 10
5.1
 20
5.0
  0
ELLIPSE
  5
29E
330
1F
100
AcDbEntity
  8
Sheet
100
AcDbEllipse
 10
5.0991456
 20
5.0008174
 30
0.0
 11
0.0
 21
0.0191486
 31
0.0
210
0.0
220
0.0
230
1.0
 40
0.999801552071692
 41
0.0
 42
6.283185307179586
  0
ELLIPSE
  5
29F
330
1F
100
AcDbEntity
  8
Sheet
100
AcDbEllipse
 10
5.0991456
 20
5.0008174
 30
0.0
 11
0.0
 21
0.0191486
 31
0.0
210
0.0
220
0.0
230
1.0
 40
0.999801552071692
 41
0.0
 42
6.283185307179586
  0
LWPOLYLINE
  5
2A0
330
1F
100
AcDbEntity
  8
Sheet
100
AcDbPolyline
 90
        3
 70
     0
 43
0.0118
 10
6.7
 20
5.3
 10
7.0
 20
5.3
 10
7.0
 20
4.7
  0
ELLIPSE
  5
2A1
330
1F
100
AcDbEntity
  8
Sheet
100
AcDbEllipse
 10
6.699172
 20
5.3008299
 30
0.0
 11
0.0
 21
0.0191487
 31
0.0
210
0.0
220
0.0
230
1.0
 40
0.9997963308214136
 41
0.0
 42
6.283185307179586
  0
ELLIPSE
  5
2A2
330
1F
100
AcDbEntity
  8
Sheet
100
AcDbEllipse
 10
6.699172
 20
5.3008299
 30
0.0
 11
0.0
 21
0.0191487
 31
0.0
210
0.0
220
0.0
230
1.0
 40
0.9997963308214136
 41
0.0
 42
6.283185307179586
  0
LWPOLYLINE
  5
2A3
330
1F
100
AcDbEntity
  8
Sheet
100
AcDbPolyline
 90
        3
 70
     0
 43
0.0118
 10
7.0
 20
4.4
 10
7.0
 20
4.3
 10
6.7
 20
4.3
  0
ELLIPSE
  5
2A4
330
1F
100
AcDbEntity
  8
Sheet
100
AcDbEllipse
 10
6.699172
 20
4.3008229
 30
0.0
 11
0.0
 21
0.0191487
 31
0.0
210
0.0
220
0.0
230
1.0
 40
0.9997963308214136
 41
0.0
 42
6.283185307179586
  0
ELLIPSE
  5
2A5
330
1F
100
AcDbEntity
  8
Sheet
100
AcDbEllipse
 10
6.699172
 20
4.3008229
 30
0.0
 11
0.0
 21
0.0191487
 31
0.0
210
0.0
220
0.0
230
1.0
 40
0.9997963308214136
 41
0.0
 42
6.283185307179586
  0
LWPOLYLINE
  5
2A6
330
1F
100
AcDbEntity
  8
Sheet
100
AcDbPolyline
 90
        2
 70
     0
 43
0.0118
 10
3.1
 20
5.6
 10
3.1
 20
4.7
  0
LWPOLYLINE
  5
2A7
330
1F
100
AcDbEntity
  8
Sheet
100
AcDbPolyline
 90
        2
 70
     0
 43
0.0118
 10
3.9
 20
6.5
 10
3.9
 20
6.1
  0
LWPOLYLINE
  5
2A8
330
1F
100
AcDbEntity
  8
Sheet
100
AcDbPolyline
 90
        2
 70
     0
 43
0.0118
 10
1.2
 20
3.0
 10
1.2
 20
2.1
  0
LWPOLYLINE
  5
2A9
330
1F
100
AcDbEntity
  8
Sheet
100
AcDbPolyline
 90
        3
 70
     0
 43
0.0118
 10
4.8
 20
5.0
 10
5.1
 20
5.0
 10
6.3
 20
5.0
  0
ELLIPSE
  5
2AA
330
1F
100
AcDbEntity
  8
Sheet
100
AcDbEllipse
 10
5.0991456
 20
5.0008174
 30
0.0
 11
0.0
 21
0.0191486
 31
0.0
210
0.0
220
0.0
230
1.0
 40
0.999801552071692
 41
0.0
 42
6.283185307179586
  0
ELLIPSE
  5
2AB
330
1F
100
AcDbEntity
  8
Sheet
100
AcDbEllipse
 10
5.0991456
 20
5.0008174
 30
0.0
 11
0.0
 21
0.0191486
 31
0.0
210
0.0
220
0.0
230
1.0
 40
0.999801552071692
 41
0.0
 42
6.283185307179586
  0
LWPOLYLINE
  5
2AC
330
1F
100
AcDbEntity
  8
Sheet
100
AcDbPolyline
 90
        2
 70
     0
 43
0.0118
 10
1.9
 20
2.4
 10
2.2
 20
2.4
  0
LWPOLYLINE
  5
2AD
330
1F
100
AcDbEntity
  8
Sheet
100
AcDbPolyline
 90
        5
 70
     0
 43
0.0118
 10
2.0
 20
2.8
 10
2.0
 20
2.6
 10
2.2
 20
2.6
 10
2.2
 20
3.1
 10
2.8
 20
3.1
  0
ELLIPSE
  5
2AE
330
1F
100
AcDbEntity
  8
Sheet
100
AcDbEllipse
 10
2.1991496
 20
2.6008214
 30
0.0
 11
0.0
 21
0.0191486
 31
0.0
210
0.0
220
0.0
230
1.0
 40
0.999801552071692
 41
0.0
 42
6.283185307179586
  0
ELLIPSE
  5
2AF
330
1F
100
AcDbEntity
  8
Sheet
100
AcDbEllipse
 10
2.1991496
 20
2.6008214
 30
0.0
 11
0.0
 21
0.0191486
 31
0.0
210
0.0
220
0.0
230
1.0
 40
0.999801552071692
 41
0.0
 42
6.283185307179586
  0
LWPOLYLINE
  5
2B0
330
1F
100
AcDbEntity
  8
Sheet
100
AcDbPolyline
 90
        2
 70
     0
 43
0.0118
 10
5.4
 20
3.3
 10
5.4
 20
3.1
  0
LWPOLYLINE
  5
2B1
330
1F
100
AcDbEntity
  8
Sheet
100
AcDbPolyline
 90
        3
 70
     0
 43
0.0118
 10
4.8
 20
1.7
 10
4.8
 20
1.8
 10
4.8
 20
2.0
  0
ELLIPSE
  5
2B2
330
1F
100
AcDbEntity
  8
Sheet
100
AcDbEllipse
 10
4.7991928
 20
1.8008576
 30
0.0
 11
0.0
 21
0.0191488
 31
0.0
210
0.0
220
0.0
230
1.0
 40
0.9997911096256684
 41
0.0
 42
6.283185307179586
  0
ELLIPSE
  5
2B3
330
1F
100
AcDbEntity
  8
Sheet
100
AcDbEllipse
 10
4.7991928
 20
1.8008576
 30
0.0
 11
0.0
 21
0.0191488
 31
0.0
210
0.0
220
0.0
230
1.0
 40
0.9997911096256684
 41
0.0
 42
6.283185307179586
  0
LWPOLYLINE
  5
2B4
330
1F
100
AcDbEntity
  8
Sheet
100
AcDbPolyline
 90
        3
 70
     0
 43
0.0118
 10
5.4
 20
2.7
 10
5.4
 20
2.4
 10
5.2
 20
2.4
  0
ELLIPSE
  5
2B5
330
1F
100
AcDbEntity
  8
Sheet
100
AcDbEllipse
 10
5.3991504
 20
2.4008304
 30
0.0
 11
0.0
 21
0.0192008
 31
0.0
210
0.0
220
0.0
230
1.0
 40
0.9997916753468605
 41
0.0
 42
6.283185307179586
  0
ELLIPSE
  5
2B6
330
1F
100
AcDbEntity
  8
Sheet
100
AcDbEllipse
 10
5.3991504
 20
2.4008304
 30
0.0
 11
0.0
 21
0.0192008
 31
0.0
210
0.0
220
0.0
230
1.0
 40
0.9997916753468605
 41
0.0
 42
6.283185307179586
  0
LWPOLYLINE
  5
2B7
330
1F
100
AcDbEntity
  8
Sheet
100
AcDbPolyline
 90
        2
 70
     0
 43
0.0118
 10
5.4
 20
2.4
 10
5.9
 20
2.4
  0
ELLIPSE
  5
2B8
330
1F
100
AcDbEntity
  8
Sheet
100
AcDbEllipse
 10
5.3991504
 20
2.4008304
 30
0.0
 11
0.0
 21
0.0192008
 31
0.0
210
0.0
220
0.0
230
1.0
 40
0.9997916753468605
 41
0.0
 42
6.283185307179586
  0
ELLIPSE
  5
2B9
330
1F
100
AcDbEntity
  8
Sheet
100
AcDbEllipse
 10
5.3991504
 20
2.4008304
 30
0.0
 11
0.0
 21
0.0192008
 31
0.0
210
0.0
220
0.0
230
1.0
 40
0.9997916753468605
 41
0.0
 42
6.283185307179586
  0
LWPOLYLINE
  5
2BA
330
1F
100
AcDbEntity
  8
Sheet
100
AcDbPolyline
 90
        3
 70
     0
 43
0.0118
 10
2.6
 20
2.9
 10
2.7
 20
2.9
 10
2.7
 20
2.5
  0
ELLIPSE
  5
2BB
330
1F
100
AcDbEntity
  8
Sheet
100
AcDbEllipse
 10
2.5991562
 20
2.9008338
 30
0.0
 11
0.0
 21
0.0191486
 31
0.0
210
0.0
220
0.0
230
1.0
 40
0.999801552071692
 41
0.0
 42
6.283185307179586
  0
ELLIPSE
  5
2BC
330
1F
100
AcDbEntity
  8
Sheet
100
AcDbEllipse
 10
2.5991562
 20
2.9008338
 30
0.0
 11
0.0
 21
0.0191486
 31
0.0
210
0.0
220
0.0
230
1.0
 40
0.999801552071692
 41
0.0
 42
6.283185307179586
  0
LWPOLYLINE
  5
2BD
330
1F
100
AcDbEntity
  8
Sheet
100
AcDbPolyline
 90
        3
 70
     0
 43
0.0118
 10
2.7
 20
2.2
 10
2.6
 20
2.2
 10
2.6
 20
2.1
  0
ELLIPSE
  5
2BE
330
1F
100
AcDbEntity
  8
Sheet
100
AcDbEllipse
 10
2.5991562
 20
2.1008702
 30
0.0
 11
0.0
 21
0.0191486
 31
0.0
210
0.0
220
0.0
230
1.0
 40
0.999801552071692
 41
0.0
 42
6.283185307179586
  0
ELLIPSE
  5
2BF
330
1F
100
AcDbEntity
  8
Sheet
100
AcDbEllipse
 10
2.5991562
 20
2.1008702
 30
0.0
 11
0.0
 21
0.0191486
 31
0.0
210
0.0
220
0.0
230
1.0
 40
0.999801552071692
 41
0.0
 42
6.283185307179586
  0
LWPOLYLINE
  5
2C0
330
1F
100
AcDbEntity
  8
Sheet
100
AcDbPolyline
 90
        2
 70
     0
 43
0.0118
 10
3.2
 20
3.1
 10
3.2
 20
2.5
  0
ELLIPSE
  5
2C1
330
1F
100
AcDbEntity
  8
Sheet
100
AcDbEllipse
 10
3.1991662
 20
2.5008522
 30
0.0
 11
0.0
 21
0.0191486
 31
0.0
210
0.0
220
0.0
230
1.0
 40
0.999801552071692
 41
0.0
 42
6.283185307179586
  0
ELLIPSE
  5
2C2
330
1F
100
AcDbEntity
  8
Sheet
100
AcDbEllipse
 10
3.1991662
 20
2.5008522
 30
0.0
 11
0.0
 21
0.0191486
 31
0.0
210
0.0
220
0.0
230
1.0
 40
0.999801552071692
 41
0.0
 42
6.283185307179586
  0
LWPOLYLINE
  5
2C3
330
1F
100
AcDbEntity
  8
Sheet
100
AcDbPolyline
 90
        3
 70
     0
 43
0.0118
 10
4.8
 20
2.8
 10
5.1
 20
2.8
 10
5.1
 20
2.2
  0
ELLIPSE
  5
2C4
330
1F
100
AcDbEntity
  8
Sheet
100
AcDbEllipse
 10
4.7991928
 20
2.8008646
 30
0.0
 11
0.0
 21
0.0191486
 31
0.0
210
0.0
220
0.0
230
1.0
 40
0.999801552071692
 41
0.0
 42
6.283185307179586
  0
ELLIPSE
  5
2C5
330
1F
100
AcDbEntity
  8
Sheet
100
AcDbEllipse
 10
4.7991928
 20
2.8008646
 30
0.0
 11
0.0
 21
0.0191486
 31
0.0
210
0.0
220
0.0
230
1.0
 40
0.999801552071692
 41
0.0
 42
6.283185307179586
  0
LWPOLYLINE
  5
2C6
330
1F
100
AcDbEntity
  8
Sheet
100
AcDbPolyline
 90
        3
 70
     0
 43
0.0118
 10
5.1
 20
1.9
 10
5.1
 20
1.8
 10
4.8
 20
1.8
  0
ELLIPSE
  5
2C7
330
1F
100
AcDbEntity
  8
Sheet
100
AcDbEllipse
 10
4.7991928
 20
1.8008576
 30
0.0
 11
0.0
 21
0.0191488
 31
0.0
210
0.0
220
0.0
230
1.0
 40
0.9997911096256684
 41
0.0
 42
6.283185307179586
  0
ELLIPSE
  5
2C8
330
1F
100
AcDbEntity
  8
Sheet
100
AcDbEllipse
 10
4.7991928
 20
1.8008576
 30
0.0
 11
0.0
 21
0.0191488
 31
0.0
210
0.0
220
0.0
230
1.0
 40
0.9997911096256684
 41
0.0
 42
6.283185307179586
  0
LWPOLYLINE
  5
2C9
330
1F
100
AcDbEntity
  8
Sheet
100
AcDbPolyline
 90
        2
 70
     0
 43
0.0118
 10
2.0
 20
4.0
 10
2.0
 20
3.6
  0
LWPOLYLINE
  5
2CA
330
1F
100
AcDbEntity
  8
Sheet
100
AcDbPolyline
 90
        3
 70
     0
 43
0.0118
 10
3.0
 20
2.5
 10
3.2
 20
2.5
 10
4.4
 20
2.5
  0
ELLIPSE
  5
2CB
330
1F
100
AcDbEntity
  8
Sheet
100
AcDbEllipse
 10
3.1991662
 20
2.5008522
 30
0.0
 11
0.0
 21
0.0191486
 31
0.0
210
0.0
220
0.0
230
1.0
 40
0.999801552071692
 41
0.0
 42
6.283185307179586
  0
ELLIPSE
  5
2CC
330
1F
100
AcDbEntity
  8
Sheet
100
AcDbEllipse
 10
3.1991662
 20
2.5008522
 30
0.0
 11
0.0
 21
0.0191486
 31
0.0
210
0.0
220
0.0
230
1.0
 40
0.999801552071692
 41
0.0
 42
6.283185307179586
  0
LWPOLYLINE
  5
2CD
330
1F
100
AcDbEntity
  8
Sheet
100
AcDbPolyline
 90
        7
 70
     0
 43
0.0118
 10
6.3
 20
4.8
 10
6.0
 20
4.8
 10
6.0
 20
4.3
 10
5.3
 20
4.3
 10
3.9
 20
4.3
 10
3.9
 20
2.3
 10
4.4
 20
2.3
  0
ELLIPSE
  5
2CE
330
1F
100
AcDbEntity
  8
Sheet
100
AcDbEllipse
 10
5.2991488
 20
4.3008229
 30
0.0
 11
0.0
 21
0.0191487
 31
0.0
210
0.0
220
0.0
230
1.0
 40
0.9997963308214136
 41
0.0
 42
6.283185307179586
  0
ELLIPSE
  5
2CF
330
1F
100
AcDbEntity
  8
Sheet
100
AcDbEllipse
 10
5.2991488
 20
4.3008229
 30
0.0
 11
0.0
 21
0.0191487
 31
0.0
210
0.0
220
0.0
230
1.0
 40
0.9997963308214136
 41
0.0
 42
6.283185307179586
  0
LWPOLYLINE
  5
2D0
330
1F
100
AcDbEntity
  8
Sheet
100
AcDbPolyline
 90
        2
 70
     0
 43
0.0118
 10
0.55
 20
4.0
 10
0.65
 20
4.0
  0
TEXT
  5
2D1
330
1F
100
AcDbEntity
  8
Sheet
100
AcDbText
 10
0.5240468
 20
4.0201781
 30
0.0
 40
0.06
  1
+5V
100
AcDbText
  0
LWPOLYLINE
  5
2D2
330
1F
100
AcDbEntity
  8
Sheet
100
AcDbPolyline
 90
        2
 70
     0
 43
0.0118
 10
0.6
 20
3.9
 10
0.6
 20
4.0
  0
LWPOLYLINE
  5
2D3
330
1F
100
AcDbEntity
  8
Sheet
100
AcDbPolyline
 90
        2
 70
     0
 43
0.0118
 10
0.6
 20
3.8
 10
0.6
 20
3.9
  0
LWPOLYLINE
  5
2D4
330
1F
100
AcDbEntity
  8
Sheet
100
AcDbPolyline
 90
        2
 70
     0
 43
0.0118
 10
0.6
 20
3.6
 10
0.6
 20
3.5
  0
LWPOLYLINE
  5
2D5
330
1F
100
AcDbEntity
  8
Sheet
100
AcDbPolyline
 90
       10
 70
     0
 43
0.0118
 10
0.6
 20
3.8
 10
0.6
 20
3.76
 10
0.62
 20
3.75
 10
0.58
 20
3.73
 10
0.62
 20
3.71
 10
0.58
 20
3.69
 10
0.62
 20
3.67
 10
0.58
 20
3.65
 10
0.6
 20
3.64
 10
0.6
 20
3.6
  0
TEXT
  5
2D6
330
1F
100
AcDbEntity
  8
Sheet
100
AcDbText
 10
0.63
 20
3.5301781
 30
0.0
 40
0.06
  1
220
100
AcDbText
  0
TEXT
  5
2D7
330
1F
100
AcDbEntity
  8
Sheet
100
AcDbText
 10
0.63
 20
3.7301781
 30
0.0
 40
0.06
  1
R5
100
AcDbText
  0
LWPOLYLINE
  5
2D8
330
1F
100
AcDbEntity
  8
Sheet
100
AcDbPolyline
 90
        2
 70
     0
 43
0.0118
 10
0.6
 20
3.3
 10
0.6
 20
3.5
  0
TEXT
  5
2D9
330
1F
100
AcDbEntity
  8
Sheet
100
AcDbText
 10
0.5748339
 20
3.38
 30
0.0
 40
0.06
  1
1
 50
90.0
100
AcDbText
  0
LWPOLYLINE
  5
2DA
330
1F
100
AcDbEntity
  8
Sheet
100
AcDbPolyline
 90
        2
 70
     0
 43
0.0118
 10
0.6
 20
3.2
 10
0.6
 20
3.0
  0
TEXT
  5
2DB
330
1F
100
AcDbEntity
  8
Sheet
100
AcDbText
 10
0.5748339
 20
3.0782584
 30
0.0
 40
0.06
  1
2
 50
90.0
100
AcDbText
  0
LWPOLYLINE
  5
2DC
330
1F
100
AcDbEntity
  8
Sheet
100
AcDbPolyline
 90
        4
 70
     1
 43
0.0118
 10
0.6
 20
3.2
 10
0.5
 20
3.3
 10
0.7
 20
3.3
 10
0.6
 20
3.2
  0
LWPOLYLINE
  5
2DD
330
1F
100
AcDbEntity
  8
Sheet
100
AcDbPolyline
 90
        4
 70
     1
 43
0.0118
 10
0.5
 20
3.3
 10
0.6
 20
3.2
 10
0.7
 20
3.3
 10
0.5
 20
3.3
  0
LWPOLYLINE
  5
2DE
330
1F
100
AcDbEntity
  8
Sheet
100
AcDbPolyline
 90
        2
 70
     0
 43
0.0118
 10
0.7
 20
3.16
 10
0.77
 20
3.09
  0
LWPOLYLINE
  5
2DF
330
1F
100
AcDbEntity
  8
Sheet
100
AcDbPolyline
 90
        2
 70
     0
 43
0.0118
 10
0.74
 20
3.2
 10
0.81
 20
3.13
  0
LWPOLYLINE
  5
2E0
330
1F
100
AcDbEntity
  8
Sheet
100
AcDbPolyline
 90
        4
 70
     1
 43
0.0118
 10
0.77
 20
3.09
 10
0.73
 20
3.11
 10
0.75
 20
3.13
 10
0.77
 20
3.09
  0
LWPOLYLINE
  5
2E1
330
1F
100
AcDbEntity
  8
Sheet
100
AcDbPolyline
 90
        4
 70
     1
 43
0.0118
 10
0.77
 20
3.09
 10
0.75
 20
3.13
 10
0.73
 20
3.11
 10
0.77
 20
3.09
  0
LWPOLYLINE
  5
2E2
330
1F
100
AcDbEntity
  8
Sheet
100
AcDbPolyline
 90
        4
 70
     1
 43
0.0118
 10
0.81
 20
3.13
 10
0.77
 20
3.15
 10
0.79
 20
3.17
 10
0.81
 20
3.13
  0
LWPOLYLINE
  5
2E3
330
1F
100
AcDbEntity
  8
Sheet
100
AcDbPolyline
 90
        4
 70
     1
 43
0.0118
 10
0.81
 20
3.13
 10
0.79
 20
3.17
 10
0.77
 20
3.15
 10
0.81
 20
3.13
  0
LWPOLYLINE
  5
2E4
330
1F
100
AcDbEntity
  8
Sheet
100
AcDbPolyline
 90
        2
 70
     0
 43
0.0118
 10
0.7
 20
3.2
 10
0.5
 20
3.2
  0
TEXT
  5
2E5
330
1F
100
AcDbEntity
  8
Sheet
100
AcDbText
 10
0.82
 20
3.2301781
 30
0.0
 40
0.06
  1
DS3
100
AcDbText
  0
TEXT
  5
2E6
330
1F
100
AcDbEntity
  8
Sheet
100
AcDbText
 10
0.82
 20
3.1301781
 30
0.0
 40
0.06
  1
LED1
100
AcDbText
  0
LWPOLYLINE
  5
2E7
330
1F
100
AcDbEntity
  8
Sheet
100
AcDbPolyline
 90
        2
 70
     0
 43
0.0118
 10
0.5
 20
2.0
 10
0.7
 20
2.0
  0
LWPOLYLINE
  5
2E8
330
1F
100
AcDbEntity
  8
Sheet
100
AcDbPolyline
 90
        2
 70
     0
 43
0.0118
 10
0.53
 20
1.97
 10
0.67
 20
1.97
  0
LWPOLYLINE
  5
2E9
330
1F
100
AcDbEntity
  8
Sheet
100
AcDbPolyline
 90
        2
 70
     0
 43
0.0118
 10
0.56
 20
1.94
 10
0.64
 20
1.94
  0
LWPOLYLINE
  5
2EA
330
1F
100
AcDbEntity
  8
Sheet
100
AcDbPolyline
 90
        2
 70
     0
 43
0.0118
 10
0.59
 20
1.91
 10
0.61
 20
1.91
  0
TEXT
  5
2EB
330
1F
100
AcDbEntity
  8
Sheet
100
AcDbText
 10
0.5065191
 20
1.82
 30
0.0
 40
0.06
  1
GND
100
AcDbText
  0
LWPOLYLINE
  5
2EC
330
1F
100
AcDbEntity
  8
Sheet
100
AcDbPolyline
 90
        2
 70
     0
 43
0.0118
 10
0.6
 20
2.1
 10
0.6
 20
2.0
  0
LWPOLYLINE
  5
2ED
330
1F
100
AcDbEntity
  8
Sheet
100
AcDbPolyline
 90
        2
 70
     0
 43
0.0118
 10
0.6
 20
3.0
 10
0.6
 20
2.1
  0
ENDSEC
  0
SECTION
  2
OBJECTS
  0
DICTIONARY
  5
C
330
0
100
AcDbDictionary
281
     1
  3
ACAD_DETAILVIEWSTYLE
350
2F5
  3
ACAD_GROUP
350
D
  3
ACAD_LAYOUT
350
1A
  3
ACAD_MATERIAL
350
43
  3
ACAD_MLEADERSTYLE
350
6B
  3
ACAD_MLINESTYLE
350
17
  3
ACAD_PLOTSETTINGS
350
19
  3
ACAD_PLOTSTYLENAME
350
E
  3
ACAD_SCALELIST
350
47
  3
ACAD_SECTIONVIEWSTYLE
350
2F6
  3
ACAD_TABLESTYLE
350
69
  3
ACAD_VISUALSTYLE
350
2A
  3
ACDB_RECOMPOSE_DATA
350
2F2
  3
AcDbVariableDictionary
350
2EE
  0
SUN
  5
6D
330
29
100
AcDbSun
 90
        1
290
     0
 63
     7
421
 16777215
 40
1.0
291
     1
 91
  2455826
 92
 54000000
292
     0
 70
     2
 71
   256
280
     1
  0
DICTIONARY
  5
2F5
102
{ACAD_REACTORS
330
C
102
}
330
C
100
AcDbDictionary
281
     1
  0
DICTIONARY
  5
D
102
{ACAD_REACTORS
330
C
102
}
330
C
100
AcDbDictionary
281
     1
  0
DICTIONARY
  5
1A
102
{ACAD_REACTORS
330
C
102
}
330
C
100
AcDbDictionary
281
     1
  3
Layout1
350
1E
  3
Layout2
350
26
  3
Model
350
22
  0
DICTIONARY
  5
43
102
{ACAD_REACTORS
330
C
102
}
330
C
100
AcDbDictionary
281
     1
  3
ByBlock
350
45
  3
ByLayer
350
44
  3
Global
350
46
  0
DICTIONARY
  5
6B
102
{ACAD_REACTORS
330
C
102
}
330
C
100
AcDbDictionary
281
     1
  3
Standard
350
6C
  0
DICTIONARY
  5
17
102
{ACAD_REACTORS
330
C
102
}
330
C
100
AcDbDictionary
281
     1
  3
Standard
350
18
  0
DICTIONARY
  5
19
102
{ACAD_REACTORS
330
C
102
}
330
C
100
AcDbDictionary
281
     1
  0
ACDBDICTIONARYWDFLT
  5
E
102
{ACAD_REACTORS
330
C
102
}
330
C
100
AcDbDictionary
281
     1
  3
Normal
350
F
100
AcDbDictionaryWithDefault
340
F
  0
DICTIONARY
  5
47
102
{ACAD_REACTORS
330
C
102
}
330
C
100
AcDbDictionary
281
     1
  3
A0
350
48
  3
A1
350
49
  3
A2
350
4A
  3
A3
350
4B
  3
A4
350
4C
  3
A5
350
4D
  3
A6
350
4E
  3
A7
350
4F
  3
A8
350
50
  3
A9
350
51
  3
B0
350
52
  3
B1
350
53
  3
B2
350
54
  3
B3
350
55
  3
B4
350
56
  3
B5
350
57
  3
B6
350
58
  3
B7
350
59
  3
B8
350
5A
  3
B9
350
5B
  3
C0
350
5C
  3
C1
350
5D
  3
C2
350
5E
  3
C3
350
5F
  3
C4
350
60
  3
C5
350
61
  3
C6
350
62
  3
C7
350
63
  3
C8
350
64
  3
C9
350
65
  3
D0
350
66
  3
D1
350
67
  3
D2
350
68
  0
DICTIONARY
  5
2F6
102
{ACAD_REACTORS
330
C
102
}
330
C
100
AcDbDictionary
281
     1
  0
DICTIONARY
  5
69
102
{ACAD_REACTORS
330
C
102
}
330
C
100
AcDbDictionary
281
     1
  3
Standard
350
6A
  0
DICTIONARY
  5
2A
102
{ACAD_REACTORS
330
C
102
}
330
C
100
AcDbDictionary
281
     1
  3
2dWireframe
350
2F
  3
Basic
350
32
  3
Brighten
350
36
  3
ColorChange
350
3A
  3
Conceptual
350
34
  3
Dim
350
35
  3
EdgeColorOff
350
3D
  3
Facepattern
350
39
  3
Flat
350
2B
  3
FlatWithEdges
350
2C
  3
Gouraud
350
2D
  3
GouraudWithEdges
350
2E
  3
Hidden
350
31
  3
JitterOff
350
3B
  3
Linepattern
350
38
  3
OverhangOff
350
3C
  3
Realistic
350
33
  3
Shaded
350
42
  3
Shaded with edges
350
41
  3
Shades of Gray
350
3E
  3
Sketchy
350
3F
  3
Thicken
350
37
  3
Wireframe
350
30
  3
X-Ray
350
40
  0
XRECORD
  5
2F2
102
{ACAD_REACTORS
330
C
102
}
330
C
100
AcDbXrecord
280
     1
 90
        1
330
6A
  0
DICTIONARY
  5
2EE
102
{ACAD_REACTORS
330
C
102
}
330
C
100
AcDbDictionary
281
     1
  3
CANNOSCALE
350
2EF
  3
CMLEADERSTYLE
350
2F4
  3
CTABLESTYLE
350
2F3
  0
LAYOUT
  5
1E
102
{ACAD_REACTORS
330
1A
102
}
330
1A
100
AcDbPlotSettings
  1

  2
none_device
  4

  6

 40
0.0
 41
0.0
 42
0.0
 43
0.0
 44
0.0
 45
0.0
 46
0.0
 47
0.0
 48
0.0
 49
0.0
140
0.0
141
0.0
142
1.0
143
1.0
 70
   688
 72
     1
 73
     0
 74
     5
  7

 75
    16
 76
     0
 77
     2
 78
   300
147
1.0
148
0.0
149
0.0
100
AcDbLayout
  1
Layout1
 70
     1
 71
     1
 10
0.0
 20
0.0
 11
420.0
 21
297.0
 12
0.0
 22
0.0
 32
0.0
 14
1.000000000000000E+20
 24
1.000000000000000E+20
 34
1.000000000000000E+20
 15
-1.000000000000000E+20
 25
-1.000000000000000E+20
 35
-1.000000000000000E+20
146
0.0
 13
0.0
 23
0.0
 33
0.0
 16
1.0
 26
0.0
 36
0.0
 17
0.0
 27
1.0
 37
0.0
 76
     0
330
1B
  0
LAYOUT
  5
26
102
{ACAD_REACTORS
330
1A
102
}
330
1A
100
AcDbPlotSettings
  1

  2
none_device
  4

  6

 40
0.0
 41
0.0
 42
0.0
 43
0.0
 44
0.0
 45
0.0
 46
0.0
 47
0.0
 48
0.0
 49
0.0
140
0.0
141
0.0
142
1.0
143
1.0
 70
   688
 72
     1
 73
     0
 74
     5
  7

 75
    16
 76
     0
 77
     2
 78
   300
147
1.0
148
0.0
149
0.0
100
AcDbLayout
  1
Layout2
 70
     1
 71
     2
 10
0.0
 20
0.0
 11
0.0
 21
0.0
 12
0.0
 22
0.0
 32
0.0
 14
0.0
 24
0.0
 34
0.0
 15
0.0
 25
0.0
 35
0.0
146
0.0
 13
0.0
 23
0.0
 33
0.0
 16
1.0
 26
0.0
 36
0.0
 17
0.0
 27
1.0
 37
0.0
 76
     0
330
23
  0
LAYOUT
  5
22
102
{ACAD_REACTORS
330
1A
102
}
330
1A
100
AcDbPlotSettings
  1

  2
none_device
  4
Letter_(8.50_x_11.00_Inches)
  6

 40
6.35
 41
6.35
 42
6.35000508
 43
6.35000508
 44
215.9
 45
279.4
 46
0.0
 47
0.0
 48
0.0
 49
0.0
140
0.0
141
0.0
142
1.0
143
1.0
 70
  1712
 72
     1
 73
     0
 74
     0
  7

 75
     0
 76
     0
 77
     2
 78
   300
147
1.0
148
0.0
149
0.0
100
AcDbLayout
  1
Model
 70
     1
 71
     0
 10
0.0
 20
0.0
 11
9.5
 21
7.5
 12
0.0
 22
0.0
 32
0.0
 14
1.000000000000000E+20
 24
1.000000000000000E+20
 34
1.000000000000000E+20
 15
-1.000000000000000E+20
 25
-1.000000000000000E+20
 35
-1.000000000000000E+20
146
0.0
 13
0.0
 23
0.0
 33
0.0
 16
1.0
 26
0.0
 36
0.0
 17
0.0
 27
1.0
 37
0.0
 76
     0
330
1F
331
29
  0
MATERIAL
  5
45
102
{ACAD_REACTORS
330
43
102
}
330
43
100
AcDbMaterial
  1
ByBlock
 72
     1
 94
      127
  0
MATERIAL
  5
44
102
{ACAD_REACTORS
330
43
102
}
330
43
100
AcDbMaterial
  1
ByLayer
 72
     1
 94
      127
  0
MATERIAL
  5
46
102
{ACAD_REACTORS
330
43
102
}
330
43
100
AcDbMaterial
  1
Global
 72
     1
 94
      127
  0
MLEADERSTYLE
  5
6C
102
{ACAD_REACTORS
330
6B
102
}
330
6B
100
AcDbMLeaderStyle
179
     2
170
     2
171
     1
172
     0
 90
        2
 40
0.0
 41
0.0
173
     1
 91
-1056964608
340
14
 92
       -2
290
     1
 42
2.0
291
     1
 43
8.0
  3
Standard
341
0
 44
4.0
300

342
11
174
     1
178
     6
175
     1
176
     0
 93
-1056964608
 45
4.0
292
     0
297
     0
 46
4.0
343
0
 94
-1056964608
 47
1.0
 49
1.0
140
1.0
293
     1
141
0.0
294
     1
177
     0
142
1.0
295
     0
296
     0
143
3.75
271
     0
272
     9
273
     9
298
     0
  0
MLINESTYLE
  5
18
102
{ACAD_REACTORS
330
17
102
}
330
17
100
AcDbMlineStyle
  2
Standard
 70
     0
  3

 62
   256
 51
90.0
 52
90.0
 71
     2
 49
0.5
 62
   256
  6
BYLAYER
 49
-0.5
 62
   256
  6
BYLAYER
  0
ACDBPLACEHOLDER
  5
F
102
{ACAD_REACTORS
330
E
102
}
330
E
  0
SCALE
  5
48
102
{ACAD_REACTORS
330
47
102
}
330
47
100
AcDbScale
 70
     0
300
1:1
140
1.0
141
1.0
290
     1
  0
SCALE
  5
49
102
{ACAD_REACTORS
330
47
102
}
330
47
100
AcDbScale
 70
     0
300
1:2
140
1.0
141
2.0
290
     0
  0
SCALE
  5
4A
102
{ACAD_REACTORS
330
47
102
}
330
47
100
AcDbScale
 70
     0
300
1:4
140
1.0
141
4.0
290
     0
  0
SCALE
  5
4B
102
{ACAD_REACTORS
330
47
102
}
330
47
100
AcDbScale
 70
     0
300
1:5
140
1.0
141
5.0
290
     0
  0
SCALE
  5
4C
102
{ACAD_REACTORS
330
47
102
}
330
47
100
AcDbScale
 70
     0
300
1:8
140
1.0
141
8.0
290
     0
  0
SCALE
  5
4D
102
{ACAD_REACTORS
330
47
102
}
330
47
100
AcDbScale
 70
     0
300
1:10
140
1.0
141
10.0
290
     0
  0
SCALE
  5
4E
102
{ACAD_REACTORS
330
47
102
}
330
47
100
AcDbScale
 70
     0
300
1:16
140
1.0
141
16.0
290
     0
  0
SCALE
  5
4F
102
{ACAD_REACTORS
330
47
102
}
330
47
100
AcDbScale
 70
     0
300
1:20
140
1.0
141
20.0
290
     0
  0
SCALE
  5
50
102
{ACAD_REACTORS
330
47
102
}
330
47
100
AcDbScale
 70
     0
300
1:30
140
1.0
141
30.0
290
     0
  0
SCALE
  5
51
102
{ACAD_REACTORS
330
47
102
}
330
47
100
AcDbScale
 70
     0
300
1:40
140
1.0
141
40.0
290
     0
  0
SCALE
  5
52
102
{ACAD_REACTORS
330
47
102
}
330
47
100
AcDbScale
 70
     0
300
1:50
140
1.0
141
50.0
290
     0
  0
SCALE
  5
53
102
{ACAD_REACTORS
330
47
102
}
330
47
100
AcDbScale
 70
     0
300
1:100
140
1.0
141
100.0
290
     0
  0
SCALE
  5
54
102
{ACAD_REACTORS
330
47
102
}
330
47
100
AcDbScale
 70
     0
300
2:1
140
2.0
141
1.0
290
     0
  0
SCALE
  5
55
102
{ACAD_REACTORS
330
47
102
}
330
47
100
AcDbScale
 70
     0
300
4:1
140
4.0
141
1.0
290
     0
  0
SCALE
  5
56
102
{ACAD_REACTORS
330
47
102
}
330
47
100
AcDbScale
 70
     0
300
8:1
140
8.0
141
1.0
290
     0
  0
SCALE
  5
57
102
{ACAD_REACTORS
330
47
102
}
330
47
100
AcDbScale
 70
     0
300
10:1
140
10.0
141
1.0
290
     0
  0
SCALE
  5
58
102
{ACAD_REACTORS
330
47
102
}
330
47
100
AcDbScale
 70
     0
300
100:1
140
100.0
141
1.0
290
     0
  0
SCALE
  5
59
102
{ACAD_REACTORS
330
47
102
}
330
47
100
AcDbScale
 70
     0
300
1/128" = 1'-0"
140
0.0078125
141
12.0
290
     0
  0
SCALE
  5
5A
102
{ACAD_REACTORS
330
47
102
}
330
47
100
AcDbScale
 70
     0
300
1/64" = 1'-0"
140
0.015625
141
12.0
290
     0
  0
SCALE
  5
5B
102
{ACAD_REACTORS
330
47
102
}
330
47
100
AcDbScale
 70
     0
300
1/32" = 1'-0"
140
0.03125
141
12.0
290
     0
  0
SCALE
  5
5C
102
{ACAD_REACTORS
330
47
102
}
330
47
100
AcDbScale
 70
     0
300
1/16" = 1'-0"
140
0.0625
141
12.0
290
     0
  0
SCALE
  5
5D
102
{ACAD_REACTORS
330
47
102
}
330
47
100
AcDbScale
 70
     0
300
3/32" = 1'-0"
140
0.09375
141
12.0
290
     0
  0
SCALE
  5
5E
102
{ACAD_REACTORS
330
47
102
}
330
47
100
AcDbScale
 70
     0
300
1/8" = 1'-0"
140
0.125
141
12.0
290
     0
  0
SCALE
  5
5F
102
{ACAD_REACTORS
330
47
102
}
330
47
100
AcDbScale
 70
     0
300
3/16" = 1'-0"
140
0.1875
141
12.0
290
     0
  0
SCALE
  5
60
102
{ACAD_REACTORS
330
47
102
}
330
47
100
AcDbScale
 70
     0
300
1/4" = 1'-0"
140
0.25
141
12.0
290
     0
  0
SCALE
  5
61
102
{ACAD_REACTORS
330
47
102
}
330
47
100
AcDbScale
 70
     0
300
3/8" = 1'-0"
140
0.375
141
12.0
290
     0
  0
SCALE
  5
62
102
{ACAD_REACTORS
330
47
102
}
330
47
100
AcDbScale
 70
     0
300
1/2" = 1'-0"
140
0.5
141
12.0
290
     0
  0
SCALE
  5
63
102
{ACAD_REACTORS
330
47
102
}
330
47
100
AcDbScale
 70
     0
300
3/4" = 1'-0"
140
0.75
141
12.0
290
     0
  0
SCALE
  5
64
102
{ACAD_REACTORS
330
47
102
}
330
47
100
AcDbScale
 70
     0
300
1" = 1'-0"
140
1.0
141
12.0
290
     0
  0
SCALE
  5
65
102
{ACAD_REACTORS
330
47
102
}
330
47
100
AcDbScale
 70
     0
300
1-1/2" = 1'-0"
140
1.5
141
12.0
290
     0
  0
SCALE
  5
66
102
{ACAD_REACTORS
330
47
102
}
330
47
100
AcDbScale
 70
     0
300
3" = 1'-0"
140
3.0
141
12.0
290
     0
  0
SCALE
  5
67
102
{ACAD_REACTORS
330
47
102
}
330
47
100
AcDbScale
 70
     0
300
6" = 1'-0"
140
6.0
141
12.0
290
     0
  0
SCALE
  5
68
102
{ACAD_REACTORS
330
47
102
}
330
47
100
AcDbScale
 70
     0
300
1'-0" = 1'-0"
140
12.0
141
12.0
290
     0
  0
TABLESTYLE
  5
6A
102
{ACAD_REACTORS
330
69
102
}
102
{ACAD_XDICTIONARY
360
2F0
102
}
330
69
100
AcDbTableStyle
  3
Standard
 70
     0
 71
     0
 40
0.06
 41
0.06
280
     0
281
     0
  7
Standard
140
4.5
170
     2
 62
     0
 63
   257
283
     0
 90
        4
 91
        0
  1

274
    -2
284
     1
 64
     0
275
    -2
285
     1
 65
     0
276
    -2
286
     1
 66
     0
277
    -2
287
     1
 67
     0
278
    -2
288
     1
 68
     0
279
    -2
289
     1
 69
     0
  7
Standard
140
6.0
170
     5
 62
     0
 63
   257
283
     0
 90
        4
 91
        0
  1

274
    -2
284
     1
 64
     0
275
    -2
285
     1
 65
     0
276
    -2
286
     1
 66
     0
277
    -2
287
     1
 67
     0
278
    -2
288
     1
 68
     0
279
    -2
289
     1
 69
     0
  7
Standard
140
4.5
170
     5
 62
     0
 63
   257
283
     0
 90
        4
 91
        0
  1

274
    -2
284
     1
 64
     0
275
    -2
285
     1
 65
     0
276
    -2
286
     1
 66
     0
277
    -2
287
     1
 67
     0
278
    -2
288
     1
 68
     0
279
    -2
289
     1
 69
     0
  0
VISUALSTYLE
  5
2F
102
{ACAD_REACTORS
330
2A
102
}
330
2A
100
AcDbVisualStyle
  2
2dWireframe
 70
     4
177
     3
291
     0
 70
    58
 90
        0
176
     1
 90
        2
176
     1
 90
        0
176
     1
 90
        0
176
     1
 40
0.6
176
     1
 40
30.0
176
     1
 62
     7
420
 16777215
176
     1
 90
        1
176
     1
 90
        4
176
     1
 62
     7
176
     1
 62
   257
176
     1
 90
        1
176
     1
 90
        1
176
     1
 40
1.0
176
     1
 90
        0
176
     1
 62
   257
176
     1
 40
1.0
176
     1
 90
        1
176
     1
 90
        6
176
     1
 90
        2
176
     1
 62
     7
176
     1
 90
        5
176
     1
 90
        0
176
     1
 90
        0
176
     1
290
     0
176
     1
 90
        1
176
     1
 40
0.0
176
     1
 90
        0
176
     1
290
     1
176
     1
290
     1
176
     1
290
     0
176
     1
290
     0
176
     1
290
     0
176
     1
290
     0
176
     1
290
     0
176
     1
290
     0
176
     1
290
     0
176
     1
 90
       50
176
     1
 40
0.0
176
     1
 40
1.0
176
     1
 90
        0
176
     1
 62
    18
420
        0
176
     1
 90
       50
176
     1
 90
        3
176
     1
 62
     5
420
      255
176
     1
290
     0
176
     1
 90
       50
176
     1
 90
       50
176
     1
 90
       50
176
     1
290
     0
176
     1
 90
       50
176
     1
 62
   256
176
     0
 40
1.0
176
     0
 90
        2
176
     1
  1
strokes_ogs.tif
176
     1
290
     0
176
     1
 40
1.0
176
     1
 40
1.0
176
     1
  0
VISUALSTYLE
  5
32
102
{ACAD_REACTORS
330
2A
102
}
330
2A
100
AcDbVisualStyle
  2
Basic
 70
     7
177
     3
291
     1
 70
    58
 90
        1
176
     1
 90
        0
176
     1
 90
        1
176
     1
 90
        0
176
     1
 40
0.6
176
     1
 40
30.0
176
     1
 62
     7
420
 16777215
176
     1
 90
        0
176
     1
 90
        4
176
     1
 62
     7
176
     1
 62
   257
176
     1
 90
        1
176
     1
 90
        1
176
     1
 40
1.0
176
     1
 90
        8
176
     1
 62
     7
176
     1
 40
1.0
176
     1
 90
        1
176
     1
 90
        6
176
     1
 90
        2
176
     1
 62
     7
176
     1
 90
        5
176
     1
 90
        0
176
     1
 90
        0
176
     1
290
     0
176
     1
 90
        1
176
     1
 40
0.0
176
     1
 90
        0
176
     1
290
     0
176
     1
290
     1
176
     1
290
     1
176
     1
290
     0
176
     1
290
     0
176
     1
290
     0
176
     1
290
     0
176
     1
290
     0
176
     1
290
     0
176
     1
 90
       50
176
     1
 40
0.0
176
     1
 40
1.0
176
     1
 90
        0
176
     1
 62
    18
420
        0
176
     1
 90
       50
176
     1
 90
        3
176
     1
 62
     5
420
      255
176
     1
290
     0
176
     1
 90
       50
176
     1
 90
       50
176
     1
 90
       50
176
     1
290
     0
176
     1
 90
       50
176
     1
 62
   256
176
     0
 40
1.0
176
     0
 90
        2
176
     1
  1
strokes_ogs.tif
176
     1
290
     0
176
     1
 40
1.0
176
     1
 40
1.0
176
     1
  0
VISUALSTYLE
  5
36
102
{ACAD_REACTORS
330
2A
102
}
330
2A
100
AcDbVisualStyle
  2
Brighten
 70
    12
177
     3
291
     1
 70
    58
 90
        2
176
     1
 90
        2
176
     1
 90
        0
176
     1
 90
        0
176
     1
 40
0.6
176
     1
 40
30.0
176
     1
 62
     7
420
 16777215
176
     1
 90
        1
176
     1
 90
        4
176
     1
 62
     7
176
     1
 62
   257
176
     1
 90
        1
176
     1
 90
        1
176
     1
 40
1.0
176
     1
 90
        8
176
     1
 62
     7
176
     1
 40
1.0
176
     1
 90
        1
176
     1
 90
        6
176
     1
 90
        2
176
     1
 62
     7
176
     1
 90
        5
176
     1
 90
        0
176
     1
 90
        0
176
     1
290
     0
176
     1
 90
        1
176
     1
 40
50.0
176
     1
 90
        0
176
     1
290
     0
176
     1
290
     1
176
     1
290
     1
176
     1
290
     0
176
     1
290
     0
176
     1
290
     0
176
     1
290
     0
176
     1
290
     0
176
     1
290
     0
176
     1
 90
       50
176
     1
 40
0.0
176
     1
 40
1.0
176
     1
 90
        0
176
     1
 62
    18
420
        0
176
     1
 90
       50
176
     1
 90
        3
176
     1
 62
     5
420
      255
176
     1
290
     0
176
     1
 90
       50
176
     1
 90
       50
176
     1
 90
       50
176
     1
290
     0
176
     1
 90
       50
176
     1
 62
   256
176
     0
 40
1.0
176
     0
 90
        2
176
     1
  1
strokes_ogs.tif
176
     1
290
     0
176
     1
 40
1.0
176
     1
 40
1.0
176
     1
  0
VISUALSTYLE
  5
3A
102
{ACAD_REACTORS
330
2A
102
}
330
2A
100
AcDbVisualStyle
  2
ColorChange
 70
    16
177
     3
291
     1
 70
    58
 90
        2
176
     1
 90
        2
176
     1
 90
        3
176
     1
 90
        0
176
     1
 40
0.6
176
     1
 40
30.0
176
     1
 62
     8
420
  8421504
176
     1
 90
        1
176
     1
 90
        4
176
     1
 62
     7
176
     1
 62
   257
176
     1
 90
        1
176
     1
 90
        1
176
     1
 40
1.0
176
     1
 90
        8
176
     1
 62
     8
420
  8421504
176
     1
 40
1.0
176
     1
 90
        1
176
     1
 90
        6
176
     1
 90
        2
176
     1
 62
     7
176
     1
 90
        5
176
     1
 90
        0
176
     1
 90
        0
176
     1
290
     0
176
     1
 90
        1
176
     1
 40
0.0
176
     1
 90
        0
176
     1
290
     0
176
     1
290
     1
176
     1
290
     1
176
     1
290
     0
176
     1
290
     0
176
     1
290
     0
176
     1
290
     0
176
     1
290
     0
176
     1
290
     0
176
     1
 90
       50
176
     1
 40
0.0
176
     1
 40
1.0
176
     1
 90
        0
176
     1
 62
    18
420
        0
176
     1
 90
       50
176
     1
 90
        3
176
     1
 62
     5
420
      255
176
     1
290
     0
176
     1
 90
       50
176
     1
 90
       50
176
     1
 90
       50
176
     1
290
     0
176
     1
 90
       50
176
     1
 62
   256
176
     0
 40
1.0
176
     0
 90
        2
176
     1
  1
strokes_ogs.tif
176
     1
290
     0
176
     1
 40
1.0
176
     1
 40
1.0
176
     1
  0
VISUALSTYLE
  5
34
102
{ACAD_REACTORS
330
2A
102
}
330
2A
100
AcDbVisualStyle
  2
Conceptual
 70
     9
177
     3
291
     0
 70
    58
 90
        3
176
     1
 90
        2
176
     1
 90
        0
176
     1
 90
        0
176
     1
 40
0.6
176
     1
 40
30.0
176
     1
 62
     7
420
 16777215
176
     1
 90
        2
176
     1
 90
        2
176
     1
 62
     7
176
     1
 62
   257
176
     1
 90
        1
176
     1
 90
        1
176
     1
 40
179.0
176
     1
 90
        8
176
     1
 62
     7
176
     1
 40
1.0
176
     1
 90
        1
176
     1
 90
        6
176
     1
 90
        2
176
     1
 62
     7
176
     1
 90
        3
176
     1
 90
        0
176
     1
 90
        0
176
     1
290
     0
176
     1
 90
        1
176
     1
 40
0.0
176
     1
 90
        0
176
     1
290
     0
176
     1
290
     1
176
     1
290
     1
176
     1
290
     0
176
     1
290
     0
176
     1
290
     0
176
     1
290
     0
176
     1
290
     0
176
     1
290
     0
176
     1
 90
       50
176
     1
 40
0.0
176
     1
 40
1.0
176
     1
 90
        0
176
     1
 62
    18
420
        0
176
     1
 90
       50
176
     1
 90
        3
176
     1
 62
     5
420
      255
176
     1
290
     0
176
     1
 90
       50
176
     1
 90
       50
176
     1
 90
       50
176
     1
290
     0
176
     1
 90
       50
176
     1
 62
   256
176
     0
 40
1.0
176
     0
 90
        2
176
     1
  1
strokes_ogs.tif
176
     1
290
     0
176
     1
 40
1.0
176
     1
 40
1.0
176
     1
  0
VISUALSTYLE
  5
35
102
{ACAD_REACTORS
330
2A
102
}
330
2A
100
AcDbVisualStyle
  2
Dim
 70
    11
177
     3
291
     1
 70
    58
 90
        2
176
     1
 90
        2
176
     1
 90
        0
176
     1
 90
        0
176
     1
 40
0.6
176
     1
 40
30.0
176
     1
 62
     7
420
 16777215
176
     1
 90
        1
176
     1
 90
        4
176
     1
 62
     7
176
     1
 62
   257
176
     1
 90
        1
176
     1
 90
        1
176
     1
 40
1.0
176
     1
 90
        8
176
     1
 62
     7
176
     1
 40
1.0
176
     1
 90
        1
176
     1
 90
        6
176
     1
 90
        2
176
     1
 62
     7
176
     1
 90
        5
176
     1
 90
        0
176
     1
 90
        0
176
     1
290
     0
176
     1
 90
        1
176
     1
 40
-50.0
176
     1
 90
        0
176
     1
290
     0
176
     1
290
     1
176
     1
290
     1
176
     1
290
     0
176
     1
290
     0
176
     1
290
     0
176
     1
290
     0
176
     1
290
     0
176
     1
290
     0
176
     1
 90
       50
176
     1
 40
0.0
176
     1
 40
1.0
176
     1
 90
        0
176
     1
 62
    18
420
        0
176
     1
 90
       50
176
     1
 90
        3
176
     1
 62
     5
420
      255
176
     1
290
     0
176
     1
 90
       50
176
     1
 90
       50
176
     1
 90
       50
176
     1
290
     0
176
     1
 90
       50
176
     1
 62
   256
176
     0
 40
1.0
176
     0
 90
        2
176
     1
  1
strokes_ogs.tif
176
     1
290
     0
176
     1
 40
1.0
176
     1
 40
1.0
176
     1
  0
VISUALSTYLE
  5
3D
102
{ACAD_REACTORS
330
2A
102
}
330
2A
100
AcDbVisualStyle
  2
EdgeColorOff
 70
    22
177
     3
291
     1
 70
    58
 90
        2
176
     0
 90
        2
176
     0
 90
        0
176
     0
 90
        0
176
     0
 40
0.6
176
     0
 40
30.0
176
     0
 62
     7
420
 16777215
176
     0
 90
        1
176
     0
 90
        4
176
     0
 62
     7
176
     0
 62
   257
176
     0
 90
        1
176
     0
 90
        1
176
     0
 40
1.0
176
     0
 90
        8
176
     2
 62
     7
176
     0
 40
1.0
176
     0
 90
        1
176
     0
 90
        6
176
     0
 90
        2
176
     0
 62
     7
176
     0
 90
        5
176
     0
 90
        0
176
     0
 90
        0
176
     0
290
     0
176
     0
 90
        1
176
     0
 40
0.0
176
     0
 90
        0
176
     0
290
     0
176
     0
290
     1
176
     0
290
     1
176
     0
290
     0
176
     0
290
     0
176
     0
290
     0
176
     0
290
     0
176
     0
290
     0
176
     0
290
     0
176
     0
 90
       50
176
     0
 40
0.0
176
     0
 40
1.0
176
     0
 90
        0
176
     0
 62
    18
420
        0
176
     0
 90
       50
176
     0
 90
        3
176
     0
 62
     5
420
      255
176
     0
290
     0
176
     0
 90
       50
176
     0
 90
       50
176
     0
 90
       50
176
     0
290
     0
176
     0
 90
       50
176
     0
 62
   256
176
     0
 40
1.0
176
     0
 90
        2
176
     0
  1
strokes_ogs.tif
176
     0
290
     0
176
     0
 40
1.0
176
     0
 40
1.0
176
     0
  0
VISUALSTYLE
  5
39
102
{ACAD_REACTORS
330
2A
102
}
330
2A
100
AcDbVisualStyle
  2
Facepattern
 70
    15
177
     3
291
     1
 70
    58
 90
        2
176
     1
 90
        2
176
     1
 90
        0
176
     1
 90
        0
176
     1
 40
0.6
176
     1
 40
30.0
176
     1
 62
     7
420
 16777215
176
     1
 90
        1
176
     1
 90
        4
176
     1
 62
     7
176
     1
 62
   257
176
     1
 90
        1
176
     1
 90
        1
176
     1
 40
1.0
176
     1
 90
        8
176
     1
 62
     7
176
     1
 40
1.0
176
     1
 90
        1
176
     1
 90
        6
176
     1
 90
        2
176
     1
 62
     7
176
     1
 90
        5
176
     1
 90
        0
176
     1
 90
        0
176
     1
290
     0
176
     1
 90
        1
176
     1
 40
0.0
176
     1
 90
        0
176
     1
290
     0
176
     1
290
     1
176
     1
290
     1
176
     1
290
     0
176
     1
290
     0
176
     1
290
     0
176
     1
290
     0
176
     1
290
     0
176
     1
290
     0
176
     1
 90
       50
176
     1
 40
0.0
176
     1
 40
1.0
176
     1
 90
        0
176
     1
 62
    18
420
        0
176
     1
 90
       50
176
     1
 90
        3
176
     1
 62
     5
420
      255
176
     1
290
     0
176
     1
 90
       50
176
     1
 90
       50
176
     1
 90
       50
176
     1
290
     0
176
     1
 90
       50
176
     1
 62
   256
176
     0
 40
1.0
176
     0
 90
        2
176
     1
  1
strokes_ogs.tif
176
     1
290
     0
176
     1
 40
1.0
176
     1
 40
1.0
176
     1
  0
VISUALSTYLE
  5
2B
102
{ACAD_REACTORS
330
2A
102
}
330
2A
100
AcDbVisualStyle
  2
Flat
 70
     0
177
     3
291
     1
 70
    58
 90
        2
176
     1
 90
        1
176
     1
 90
        1
176
     1
 90
        2
176
     1
 40
0.6
176
     1
 40
30.0
176
     1
 62
     7
420
 16777215
176
     1
 90
        0
176
     1
 90
        0
176
     1
 62
     7
176
     1
 62
   257
176
     1
 90
        1
176
     1
 90
        1
176
     1
 40
1.0
176
     1
 90
        8
176
     1
 62
     7
176
     1
 40
1.0
176
     1
 90
        1
176
     1
 90
        6
176
     1
 90
        2
176
     1
 62
     7
176
     1
 90
        5
176
     1
 90
        0
176
     1
 90
        0
176
     1
290
     0
176
     1
 90
       13
176
     1
 40
0.0
176
     1
 90
        0
176
     1
290
     0
176
     1
290
     1
176
     1
290
     1
176
     1
290
     0
176
     1
290
     0
176
     1
290
     0
176
     1
290
     0
176
     1
290
     0
176
     1
290
     0
176
     1
 90
       50
176
     1
 40
0.0
176
     1
 40
1.0
176
     1
 90
        0
176
     1
 62
    18
420
        0
176
     1
 90
       50
176
     1
 90
        3
176
     1
 62
     5
420
      255
176
     1
290
     0
176
     1
 90
       50
176
     1
 90
       50
176
     1
 90
       50
176
     1
290
     0
176
     1
 90
       50
176
     1
 62
   256
176
     0
 40
1.0
176
     0
 90
        2
176
     1
  1
strokes_ogs.tif
176
     1
290
     0
176
     1
 40
1.0
176
     1
 40
1.0
176
     1
  0
VISUALSTYLE
  5
2C
102
{ACAD_REACTORS
330
2A
102
}
330
2A
100
AcDbVisualStyle
  2
FlatWithEdges
 70
     1
177
     3
291
     1
 70
    58
 90
        2
176
     1
 90
        1
176
     1
 90
        1
176
     1
 90
        2
176
     1
 40
0.6
176
     1
 40
30.0
176
     1
 62
     7
420
 16777215
176
     1
 90
        1
176
     1
 90
        0
176
     1
 62
     7
176
     1
 62
   257
176
     1
 90
        1
176
     1
 90
        1
176
     1
 40
1.0
176
     1
 90
        0
176
     1
 62
   257
176
     1
 40
1.0
176
     1
 90
        1
176
     1
 90
        6
176
     1
 90
        2
176
     1
 62
     7
176
     1
 90
        5
176
     1
 90
        0
176
     1
 90
        0
176
     1
290
     0
176
     1
 90
       13
176
     1
 40
0.0
176
     1
 90
        0
176
     1
290
     0
176
     1
290
     1
176
     1
290
     1
176
     1
290
     0
176
     1
290
     0
176
     1
290
     0
176
     1
290
     0
176
     1
290
     0
176
     1
290
     0
176
     1
 90
       50
176
     1
 40
0.0
176
     1
 40
1.0
176
     1
 90
        0
176
     1
 62
    18
420
        0
176
     1
 90
       50
176
     1
 90
        3
176
     1
 62
     5
420
      255
176
     1
290
     0
176
     1
 90
       50
176
     1
 90
       50
176
     1
 90
       50
176
     1
290
     0
176
     1
 90
       50
176
     1
 62
   256
176
     0
 40
1.0
176
     0
 90
        2
176
     1
  1
strokes_ogs.tif
176
     1
290
     0
176
     1
 40
1.0
176
     1
 40
1.0
176
     1
  0
VISUALSTYLE
  5
2D
102
{ACAD_REACTORS
330
2A
102
}
330
2A
100
AcDbVisualStyle
  2
Gouraud
 70
     2
177
     3
291
     1
 70
    58
 90
        2
176
     1
 90
        2
176
     1
 90
        1
176
     1
 90
        2
176
     1
 40
0.6
176
     1
 40
30.0
176
     1
 62
     7
420
 16777215
176
     1
 90
        0
176
     1
 90
        0
176
     1
 62
     7
176
     1
 62
   257
176
     1
 90
        1
176
     1
 90
        1
176
     1
 40
1.0
176
     1
 90
        0
176
     1
 62
     7
176
     1
 40
1.0
176
     1
 90
        1
176
     1
 90
        6
176
     1
 90
        2
176
     1
 62
     7
176
     1
 90
        5
176
     1
 90
        0
176
     1
 90
        0
176
     1
290
     0
176
     1
 90
       13
176
     1
 40
0.0
176
     1
 90
        0
176
     1
290
     0
176
     1
290
     1
176
     1
290
     1
176
     1
290
     0
176
     1
290
     0
176
     1
290
     0
176
     1
290
     0
176
     1
290
     0
176
     1
290
     0
176
     1
 90
       50
176
     1
 40
0.0
176
     1
 40
1.0
176
     1
 90
        0
176
     1
 62
    18
420
        0
176
     1
 90
       50
176
     1
 90
        3
176
     1
 62
     5
420
      255
176
     1
290
     0
176
     1
 90
       50
176
     1
 90
       50
176
     1
 90
       50
176
     1
290
     0
176
     1
 90
       50
176
     1
 62
   256
176
     0
 40
1.0
176
     0
 90
        2
176
     1
  1
strokes_ogs.tif
176
     1
290
     0
176
     1
 40
1.0
176
     1
 40
1.0
176
     1
  0
VISUALSTYLE
  5
2E
102
{ACAD_REACTORS
330
2A
102
}
330
2A
100
AcDbVisualStyle
  2
GouraudWithEdges
 70
     3
177
     3
291
     1
 70
    58
 90
        2
176
     1
 90
        2
176
     1
 90
        1
176
     1
 90
        2
176
     1
 40
0.6
176
     1
 40
30.0
176
     1
 62
     7
420
 16777215
176
     1
 90
        1
176
     1
 90
        0
176
     1
 62
     7
176
     1
 62
   257
176
     1
 90
        1
176
     1
 90
        1
176
     1
 40
1.0
176
     1
 90
        0
176
     1
 62
   257
176
     1
 40
1.0
176
     1
 90
        1
176
     1
 90
        6
176
     1
 90
        2
176
     1
 62
     7
176
     1
 90
        5
176
     1
 90
        0
176
     1
 90
        0
176
     1
290
     0
176
     1
 90
       13
176
     1
 40
0.0
176
     1
 90
        0
176
     1
290
     0
176
     1
290
     1
176
     1
290
     1
176
     1
290
     0
176
     1
290
     0
176
     1
290
     0
176
     1
290
     0
176
     1
290
     0
176
     1
290
     0
176
     1
 90
       50
176
     1
 40
0.0
176
     1
 40
1.0
176
     1
 90
        0
176
     1
 62
    18
420
        0
176
     1
 90
       50
176
     1
 90
        3
176
     1
 62
     5
420
      255
176
     1
290
     0
176
     1
 90
       50
176
     1
 90
       50
176
     1
 90
       50
176
     1
290
     0
176
     1
 90
       50
176
     1
 62
   256
176
     0
 40
1.0
176
     0
 90
        2
176
     1
  1
strokes_ogs.tif
176
     1
290
     0
176
     1
 40
1.0
176
     1
 40
1.0
176
     1
  0
VISUALSTYLE
  5
31
102
{ACAD_REACTORS
330
2A
102
}
330
2A
100
AcDbVisualStyle
  2
Hidden
 70
     6
177
     3
291
     0
 70
    58
 90
        1
176
     1
 90
        2
176
     1
 90
        2
176
     1
 90
        0
176
     1
 40
0.6
176
     1
 40
30.0
176
     1
 62
     7
420
 16777215
176
     1
 90
        2
176
     1
 90
        2
176
     1
 62
     7
176
     1
 62
   257
176
     1
 90
        2
176
     1
 90
        1
176
     1
 40
40.0
176
     1
 90
        0
176
     1
 62
   257
176
     1
 40
1.0
176
     1
 90
        1
176
     1
 90
        6
176
     1
 90
        2
176
     1
 62
     7
176
     1
 90
        3
176
     1
 90
        0
176
     1
 90
        0
176
     1
290
     0
176
     1
 90
        1
176
     1
 40
0.0
176
     1
 90
        0
176
     1
290
     0
176
     1
290
     1
176
     1
290
     1
176
     1
290
     0
176
     1
290
     0
176
     1
290
     0
176
     1
290
     0
176
     1
290
     0
176
     1
290
     0
176
     1
 90
       50
176
     1
 40
0.0
176
     1
 40
1.0
176
     1
 90
        0
176
     1
 62
    18
420
        0
176
     1
 90
       50
176
     1
 90
        3
176
     1
 62
     5
420
      255
176
     1
290
     0
176
     1
 90
       50
176
     1
 90
       50
176
     1
 90
       50
176
     1
290
     0
176
     1
 90
       50
176
     1
 62
   256
176
     0
 40
1.0
176
     0
 90
        2
176
     1
  1
strokes_ogs.tif
176
     1
290
     0
176
     1
 40
1.0
176
     1
 40
1.0
176
     1
  0
VISUALSTYLE
  5
3B
102
{ACAD_REACTORS
330
2A
102
}
330
2A
100
AcDbVisualStyle
  2
JitterOff
 70
    20
177
     3
291
     1
 70
    58
 90
        2
176
     0
 90
        2
176
     0
 90
        0
176
     0
 90
        0
176
     0
 40
0.6
176
     0
 40
30.0
176
     0
 62
     7
420
 16777215
176
     0
 90
        1
176
     0
 90
        4
176
     0
 62
     7
176
     0
 62
   257
176
     0
 90
        1
176
     0
 90
        1
176
     0
 40
1.0
176
     0
 90
       10
176
     2
 62
     7
176
     0
 40
1.0
176
     0
 90
        1
176
     0
 90
        6
176
     0
 90
        2
176
     0
 62
     7
176
     0
 90
        5
176
     0
 90
        0
176
     0
 90
        0
176
     0
290
     0
176
     0
 90
        1
176
     0
 40
0.0
176
     0
 90
        0
176
     0
290
     0
176
     0
290
     1
176
     0
290
     1
176
     0
290
     0
176
     0
290
     0
176
     0
290
     0
176
     0
290
     0
176
     0
290
     0
176
     0
290
     0
176
     0
 90
       50
176
     0
 40
0.0
176
     0
 40
1.0
176
     0
 90
        0
176
     0
 62
    18
420
        0
176
     0
 90
       50
176
     0
 90
        3
176
     0
 62
     5
420
      255
176
     0
290
     0
176
     0
 90
       50
176
     0
 90
       50
176
     0
 90
       50
176
     0
290
     0
176
     0
 90
       50
176
     0
 62
   256
176
     0
 40
1.0
176
     0
 90
        2
176
     0
  1
strokes_ogs.tif
176
     0
290
     0
176
     0
 40
1.0
176
     0
 40
1.0
176
     0
  0
VISUALSTYLE
  5
38
102
{ACAD_REACTORS
330
2A
102
}
330
2A
100
AcDbVisualStyle
  2
Linepattern
 70
    14
177
     3
291
     1
 70
    58
 90
        2
176
     1
 90
        2
176
     1
 90
        0
176
     1
 90
        0
176
     1
 40
0.6
176
     1
 40
30.0
176
     1
 62
     7
420
 16777215
176
     1
 90
        1
176
     1
 90
        4
176
     1
 62
     7
176
     1
 62
   257
176
     1
 90
        7
176
     1
 90
        7
176
     1
 40
1.0
176
     1
 90
        8
176
     1
 62
     7
176
     1
 40
1.0
176
     1
 90
        1
176
     1
 90
        6
176
     1
 90
        2
176
     1
 62
     7
176
     1
 90
        5
176
     1
 90
        0
176
     1
 90
        0
176
     1
290
     0
176
     1
 90
        1
176
     1
 40
0.0
176
     1
 90
        0
176
     1
290
     0
176
     1
290
     1
176
     1
290
     1
176
     1
290
     0
176
     1
290
     0
176
     1
290
     0
176
     1
290
     0
176
     1
290
     0
176
     1
290
     0
176
     1
 90
       50
176
     1
 40
0.0
176
     1
 40
1.0
176
     1
 90
        0
176
     1
 62
    18
420
        0
176
     1
 90
       50
176
     1
 90
        3
176
     1
 62
     5
420
      255
176
     1
290
     0
176
     1
 90
       50
176
     1
 90
       50
176
     1
 90
       50
176
     1
290
     0
176
     1
 90
       50
176
     1
 62
   256
176
     0
 40
1.0
176
     0
 90
        2
176
     1
  1
strokes_ogs.tif
176
     1
290
     0
176
     1
 40
1.0
176
     1
 40
1.0
176
     1
  0
VISUALSTYLE
  5
3C
102
{ACAD_REACTORS
330
2A
102
}
330
2A
100
AcDbVisualStyle
  2
OverhangOff
 70
    21
177
     3
291
     1
 70
    58
 90
        2
176
     0
 90
        2
176
     0
 90
        0
176
     0
 90
        0
176
     0
 40
0.6
176
     0
 40
30.0
176
     0
 62
     7
420
 16777215
176
     0
 90
        1
176
     0
 90
        4
176
     0
 62
     7
176
     0
 62
   257
176
     0
 90
        1
176
     0
 90
        1
176
     0
 40
1.0
176
     0
 90
        9
176
     2
 62
     7
176
     0
 40
1.0
176
     0
 90
        1
176
     0
 90
        6
176
     0
 90
        2
176
     0
 62
     7
176
     0
 90
        5
176
     0
 90
        0
176
     0
 90
        0
176
     0
290
     0
176
     0
 90
        1
176
     0
 40
0.0
176
     0
 90
        0
176
     0
290
     0
176
     0
290
     1
176
     0
290
     1
176
     0
290
     0
176
     0
290
     0
176
     0
290
     0
176
     0
290
     0
176
     0
290
     0
176
     0
290
     0
176
     0
 90
       50
176
     0
 40
0.0
176
     0
 40
1.0
176
     0
 90
        0
176
     0
 62
    18
420
        0
176
     0
 90
       50
176
     0
 90
        3
176
     0
 62
     5
420
      255
176
     0
290
     0
176
     0
 90
       50
176
     0
 90
       50
176
     0
 90
       50
176
     0
290
     0
176
     0
 90
       50
176
     0
 62
   256
176
     0
 40
1.0
176
     0
 90
        2
176
     0
  1
strokes_ogs.tif
176
     0
290
     0
176
     0
 40
1.0
176
     0
 40
1.0
176
     0
  0
VISUALSTYLE
  5
33
102
{ACAD_REACTORS
330
2A
102
}
330
2A
100
AcDbVisualStyle
  2
Realistic
 70
     8
177
     3
291
     0
 70
    58
 90
        2
176
     1
 90
        3
176
     1
 90
        0
176
     1
 90
        2
176
     1
 40
0.6
176
     1
 40
30.0
176
     1
 62
     7
420
 16777215
176
     1
 90
        0
176
     1
 90
        0
176
     1
 62
     7
176
     1
 62
   257
176
     1
 90
        1
176
     1
 90
        1
176
     1
 40
1.0
176
     1
 90
        8
176
     1
 62
   257
176
     1
 40
1.0
176
     1
 90
        1
176
     1
 90
        6
176
     1
 90
        2
176
     1
 62
     7
176
     1
 90
        3
176
     1
 90
        0
176
     1
 90
        0
176
     1
290
     0
176
     1
 90
       13
176
     1
 40
0.0
176
     1
 90
        0
176
     1
290
     0
176
     1
290
     1
176
     1
290
     1
176
     1
290
     0
176
     1
290
     0
176
     1
290
     0
176
     1
290
     0
176
     1
290
     0
176
     1
290
     0
176
     1
 90
       50
176
     1
 40
0.0
176
     1
 40
1.0
176
     1
 90
        0
176
     1
 62
    18
420
        0
176
     1
 90
       50
176
     1
 90
        3
176
     1
 62
     5
420
      255
176
     1
290
     0
176
     1
 90
       50
176
     1
 90
       50
176
     1
 90
       50
176
     1
290
     0
176
     1
 90
       50
176
     1
 62
   256
176
     0
 40
1.0
176
     0
 90
        2
176
     1
  1
strokes_ogs.tif
176
     1
290
     0
176
     1
 40
1.0
176
     1
 40
1.0
176
     1
  0
VISUALSTYLE
  5
42
102
{ACAD_REACTORS
330
2A
102
}
330
2A
100
AcDbVisualStyle
  2
Shaded
 70
    27
177
     3
291
     0
 70
    58
 90
        2
176
     1
 90
        2
176
     1
 90
        1
176
     1
 90
        2
176
     1
 40
0.6
176
     1
 40
30.0
176
     1
 62
     7
420
 16777215
176
     1
 90
        0
176
     1
 90
        4
176
     1
 62
     7
176
     1
 62
   257
176
     1
 90
        1
176
     1
 90
        1
176
     1
 40
1.0
176
     1
 90
        8
176
     1
 62
   257
176
     1
 40
1.0
176
     1
 90
        1
176
     1
 90
        6
176
     1
 90
        2
176
     1
 62
     8
420
  7895160
176
     1
 90
        3
176
     1
 90
        0
176
     1
 90
        0
176
     1
290
     0
176
     1
 90
        5
176
     1
 40
0.0
176
     1
 90
        0
176
     1
290
     0
176
     1
290
     1
176
     1
290
     1
176
     1
290
     0
176
     1
290
     0
176
     1
290
     0
176
     1
290
     0
176
     1
290
     0
176
     1
290
     0
176
     1
 90
       50
176
     1
 40
0.0
176
     1
 40
1.0
176
     1
 90
        0
176
     1
 62
    18
420
        0
176
     1
 90
       50
176
     1
 90
        3
176
     1
 62
     5
420
      255
176
     1
290
     0
176
     1
 90
       50
176
     1
 90
       50
176
     1
 90
       50
176
     1
290
     0
176
     1
 90
       50
176
     1
 62
   256
176
     0
 40
1.0
176
     0
 90
        2
176
     1
  1
strokes_ogs.tif
176
     1
290
     0
176
     1
 40
1.0
176
     1
 40
1.0
176
     1
  0
VISUALSTYLE
  5
41
102
{ACAD_REACTORS
330
2A
102
}
330
2A
100
AcDbVisualStyle
  2
Shaded with edges
 70
    26
177
     3
291
     0
 70
    58
 90
        2
176
     1
 90
        2
176
     1
 90
        1
176
     1
 90
        2
176
     1
 40
0.6
176
     1
 40
30.0
176
     1
 62
     7
420
 16777215
176
     1
 90
        1
176
     1
 90
       10
176
     1
 62
     7
176
     1
 62
   257
176
     1
 90
        2
176
     1
 90
        1
176
     1
 40
1.0
176
     1
 90
        8
176
     1
 62
   257
176
     1
 40
1.0
176
     1
 90
        1
176
     1
 90
        6
176
     1
 90
        2
176
     1
 62
     7
176
     1
 90
        3
176
     1
 90
        0
176
     1
 90
        0
176
     1
290
     0
176
     1
 90
        5
176
     1
 40
0.0
176
     1
 90
        0
176
     1
290
     0
176
     1
290
     1
176
     1
290
     1
176
     1
290
     0
176
     1
290
     0
176
     1
290
     0
176
     1
290
     0
176
     1
290
     0
176
     1
290
     0
176
     1
 90
       50
176
     1
 40
0.0
176
     1
 40
1.0
176
     1
 90
        0
176
     1
 62
    18
420
        0
176
     1
 90
       50
176
     1
 90
        3
176
     1
 62
     5
420
      255
176
     1
290
     0
176
     1
 90
       50
176
     1
 90
       50
176
     1
 90
       50
176
     1
290
     0
176
     1
 90
       50
176
     1
 62
   256
176
     0
 40
1.0
176
     0
 90
        2
176
     1
  1
strokes_ogs.tif
176
     1
290
     0
176
     1
 40
1.0
176
     1
 40
1.0
176
     1
  0
VISUALSTYLE
  5
3E
102
{ACAD_REACTORS
330
2A
102
}
330
2A
100
AcDbVisualStyle
  2
Shades of Gray
 70
    23
177
     3
291
     0
 70
    58
 90
        2
176
     1
 90
        2
176
     1
 90
        3
176
     1
 90
        0
176
     1
 40
0.6
176
     1
 40
30.0
176
     1
 62
     7
420
 16777215
176
     1
 90
        2
176
     1
 90
        2
176
     1
 62
     7
176
     1
 62
     7
176
     1
 90
        1
176
     1
 90
        1
176
     1
 40
40.0
176
     1
 90
        8
176
     1
 62
     7
176
     1
 40
1.0
176
     1
 90
        1
176
     1
 90
        6
176
     1
 90
        2
176
     1
 62
     7
176
     1
 90
        3
176
     1
 90
        0
176
     1
 90
        0
176
     1
290
     0
176
     1
 90
        1
176
     1
 40
0.0
176
     1
 90
        0
176
     1
290
     0
176
     1
290
     1
176
     1
290
     1
176
     1
290
     0
176
     1
290
     0
176
     1
290
     0
176
     1
290
     0
176
     1
290
     0
176
     1
290
     0
176
     1
 90
       50
176
     1
 40
0.0
176
     1
 40
1.0
176
     1
 90
        0
176
     1
 62
    18
420
        0
176
     1
 90
       50
176
     1
 90
        3
176
     1
 62
     5
420
      255
176
     1
290
     0
176
     1
 90
       50
176
     1
 90
       50
176
     1
 90
       50
176
     1
290
     0
176
     1
 90
       50
176
     1
 62
   256
176
     0
 40
1.0
176
     0
 90
        2
176
     1
  1
strokes_ogs.tif
176
     1
290
     0
176
     1
 40
1.0
176
     1
 40
1.0
176
     1
  0
VISUALSTYLE
  5
3F
102
{ACAD_REACTORS
330
2A
102
}
330
2A
100
AcDbVisualStyle
  2
Sketchy
 70
    24
177
     3
291
     0
 70
    58
 90
        1
176
     1
 90
        2
176
     1
 90
        2
176
     1
 90
        0
176
     1
 40
0.6
176
     1
 40
30.0
176
     1
 62
     7
420
 16777215
176
     1
 90
        2
176
     1
 90
        2
176
     1
 62
     7
176
     1
 62
     7
176
     1
 90
        1
176
     1
 90
        1
176
     1
 40
40.0
176
     1
 90
       11
176
     1
 62
     7
176
     1
 40
1.0
176
     1
 90
        1
176
     1
 90
        6
176
     1
 90
        2
176
     1
 62
     7
176
     1
 90
        6
176
     1
 90
        0
176
     1
 90
        0
176
     1
290
     0
176
     1
 90
        1
176
     1
 40
0.0
176
     1
 90
        0
176
     1
290
     0
176
     1
290
     1
176
     1
290
     1
176
     1
290
     0
176
     1
290
     0
176
     1
290
     0
176
     1
290
     0
176
     1
290
     0
176
     1
290
     0
176
     1
 90
       50
176
     1
 40
0.0
176
     1
 40
1.0
176
     1
 90
        0
176
     1
 62
    18
420
        0
176
     1
 90
       50
176
     1
 90
        3
176
     1
 62
     5
420
      255
176
     1
290
     0
176
     1
 90
       50
176
     1
 90
       50
176
     1
 90
       50
176
     1
290
     0
176
     1
 90
       50
176
     1
 62
   256
176
     0
 40
1.0
176
     0
 90
        2
176
     1
  1
strokes_ogs.tif
176
     1
290
     0
176
     1
 40
1.0
176
     1
 40
1.0
176
     1
  0
VISUALSTYLE
  5
37
102
{ACAD_REACTORS
330
2A
102
}
330
2A
100
AcDbVisualStyle
  2
Thicken
 70
    13
177
     3
291
     1
 70
    58
 90
        2
176
     1
 90
        2
176
     1
 90
        0
176
     1
 90
        0
176
     1
 40
0.6
176
     1
 40
30.0
176
     1
 62
     7
420
 16777215
176
     1
 90
        1
176
     1
 90
        4
176
     1
 62
     7
176
     1
 62
   257
176
     1
 90
        1
176
     1
 90
        1
176
     1
 40
1.0
176
     1
 90
       12
176
     1
 62
     7
176
     1
 40
1.0
176
     1
 90
        1
176
     1
 90
        6
176
     1
 90
        2
176
     1
 62
     7
176
     1
 90
        5
176
     1
 90
        0
176
     1
 90
        0
176
     1
290
     0
176
     1
 90
        1
176
     1
 40
0.0
176
     1
 90
        0
176
     1
290
     0
176
     1
290
     1
176
     1
290
     1
176
     1
290
     0
176
     1
290
     0
176
     1
290
     0
176
     1
290
     0
176
     1
290
     0
176
     1
290
     0
176
     1
 90
       50
176
     1
 40
0.0
176
     1
 40
1.0
176
     1
 90
        0
176
     1
 62
    18
420
        0
176
     1
 90
       50
176
     1
 90
        3
176
     1
 62
     5
420
      255
176
     1
290
     0
176
     1
 90
       50
176
     1
 90
       50
176
     1
 90
       50
176
     1
290
     0
176
     1
 90
       50
176
     1
 62
   256
176
     0
 40
1.0
176
     0
 90
        2
176
     1
  1
strokes_ogs.tif
176
     1
290
     0
176
     1
 40
1.0
176
     1
 40
1.0
176
     1
  0
VISUALSTYLE
  5
30
102
{ACAD_REACTORS
330
2A
102
}
330
2A
100
AcDbVisualStyle
  2
Wireframe
 70
     5
177
     3
291
     0
 70
    58
 90
        0
176
     1
 90
        2
176
     1
 90
        0
176
     1
 90
        0
176
     1
 40
0.6
176
     1
 40
30.0
176
     1
 62
     7
420
 16777215
176
     1
 90
        1
176
     1
 90
        4
176
     1
 62
     7
176
     1
 62
   257
176
     1
 90
        1
176
     1
 90
        1
176
     1
 40
1.0
176
     1
 90
        0
176
     1
 62
   257
176
     1
 40
1.0
176
     1
 90
        1
176
     1
 90
        6
176
     1
 90
        2
176
     1
 62
     7
176
     1
 90
        3
176
     1
 90
        0
176
     1
 90
        0
176
     1
290
     0
176
     1
 90
        1
176
     1
 40
0.0
176
     1
 90
        0
176
     1
290
     0
176
     1
290
     1
176
     1
290
     1
176
     1
290
     0
176
     1
290
     0
176
     1
290
     0
176
     1
290
     0
176
     1
290
     0
176
     1
290
     0
176
     1
 90
       50
176
     1
 40
0.0
176
     1
 40
1.0
176
     1
 90
        0
176
     1
 62
    18
420
        0
176
     1
 90
       50
176
     1
 90
        3
176
     1
 62
     5
420
      255
176
     1
290
     0
176
     1
 90
       50
176
     1
 90
       50
176
     1
 90
       50
176
     1
290
     0
176
     1
 90
       50
176
     1
 62
   256
176
     0
 40
1.0
176
     0
 90
        2
176
     1
  1
strokes_ogs.tif
176
     1
290
     0
176
     1
 40
1.0
176
     1
 40
1.0
176
     1
  0
VISUALSTYLE
  5
40
102
{ACAD_REACTORS
330
2A
102
}
330
2A
100
AcDbVisualStyle
  2
X-Ray
 70
    25
177
     3
291
     0
 70
    58
 90
        2
176
     1
 90
        2
176
     1
 90
        1
176
     1
 90
        1
176
     1
 40
0.5
176
     1
 40
30.0
176
     1
 62
     7
420
 16777215
176
     1
 90
        1
176
     1
 90
        0
176
     1
 62
     7
176
     1
 62
   257
176
     1
 90
        1
176
     1
 90
        1
176
     1
 40
1.0
176
     1
 90
        8
176
     1
 62
     7
176
     1
 40
1.0
176
     1
 90
        1
176
     1
 90
        6
176
     1
 90
        2
176
     1
 62
     7
176
     1
 90
        3
176
     1
 90
        0
176
     1
 90
        0
176
     1
290
     0
176
     1
 90
       13
176
     1
 40
0.0
176
     1
 90
        0
176
     1
290
     0
176
     1
290
     1
176
     1
290
     1
176
     1
290
     0
176
     1
290
     0
176
     1
290
     0
176
     1
290
     0
176
     1
290
     0
176
     1
290
     0
176
     1
 90
       50
176
     1
 40
0.0
176
     1
 40
1.0
176
     1
 90
        0
176
     1
 62
    18
420
        0
176
     1
 90
       50
176
     1
 90
        3
176
     1
 62
     5
420
      255
176
     1
290
     0
176
     1
 90
       50
176
     1
 90
       50
176
     1
 90
       50
176
     1
290
     0
176
     1
 90
       50
176
     1
 62
   256
176
     0
 40
1.0
176
     0
 90
        2
176
     1
  1
strokes_ogs.tif
176
     1
290
     0
176
     1
 40
1.0
176
     1
 40
1.0
176
     1
  0
DICTIONARYVAR
  5
2EF
102
{ACAD_REACTORS
330
2EE
102
}
330
2EE
100
DictionaryVariables
280
     0
  1
1:1
  0
DICTIONARYVAR
  5
2F4
102
{ACAD_REACTORS
330
2EE
102
}
330
2EE
100
DictionaryVariables
280
     0
  1
Standard
  0
DICTIONARYVAR
  5
2F3
102
{ACAD_REACTORS
330
2EE
102
}
330
2EE
100
DictionaryVariables
280
     0
  1
Standard
  0
DICTIONARY
  5
2F0
330
6A
100
AcDbDictionary
280
     1
281
     1
  3
ACAD_ROUNDTRIP_2008_TABLESTYLE_CELLSTYLEMAP
360
2F1
  0
CELLSTYLEMAP
  5
2F1
102
{ACAD_REACTORS
330
2F0
102
}
330
2F0
100
AcDbCellStyleMap
 90
        3
300
CELLSTYLE
  1
TABLEFORMAT_BEGIN
 90
        5
170
     1
 91
        0
 92
    32768
 62
   257
 93
        1
300
CONTENTFORMAT
  1
CONTENTFORMAT_BEGIN
 90
        0
 91
        0
 92
        4
 93
        0
300

 40
0.0
140
1.0
 94
        5
 62
     0
340
11
144
6.0
309
CONTENTFORMAT_END
171
     1
301
MARGIN
  1
CELLMARGIN_BEGIN
 40
1.5
 40
1.5
 40
1.5
 40
1.5
 40
1.5
 40
1.5
309
CELLMARGIN_END
 94
        6
 95
        1
302
GRIDFORMAT
  1
GRIDFORMAT_BEGIN
 90
        0
 91
        1
 62
     0
 92
       -2
340
14
 93
        0
 40
0.045
309
GRIDFORMAT_END
 95
        2
302
GRIDFORMAT
  1
GRIDFORMAT_BEGIN
 90
        0
 91
        1
 62
     0
 92
       -2
340
14
 93
        0
 40
0.045
309
GRIDFORMAT_END
 95
        4
302
GRIDFORMAT
  1
GRIDFORMAT_BEGIN
 90
        0
 91
        1
 62
     0
 92
       -2
340
14
 93
        0
 40
0.045
309
GRIDFORMAT_END
 95
        8
302
GRIDFORMAT
  1
GRIDFORMAT_BEGIN
 90
        0
 91
        1
 62
     0
 92
       -2
340
14
 93
        0
 40
0.045
309
GRIDFORMAT_END
 95
       16
302
GRIDFORMAT
  1
GRIDFORMAT_BEGIN
 90
        0
 91
        1
 62
     0
 92
       -2
340
14
 93
        0
 40
0.045
309
GRIDFORMAT_END
 95
       32
302
GRIDFORMAT
  1
GRIDFORMAT_BEGIN
 90
        0
 91
        1
 62
     0
 92
       -2
340
14
 93
        0
 40
0.045
309
GRIDFORMAT_END
309
TABLEFORMAT_END
  1
CELLSTYLE_BEGIN
 90
        1
 91
        1
300
_TITLE
309
CELLSTYLE_END
300
CELLSTYLE
  1
TABLEFORMAT_BEGIN
 90
        5
170
     1
 91
        0
 92
        0
 62
   257
 93
        1
300
CONTENTFORMAT
  1
CONTENTFORMAT_BEGIN
 90
        0
 91
        0
 92
        4
 93
        0
300

 40
0.0
140
1.0
 94
        5
 62
     0
340
11
144
4.5
309
CONTENTFORMAT_END
171
     1
301
MARGIN
  1
CELLMARGIN_BEGIN
 40
1.5
 40
1.5
 40
1.5
 40
1.5
 40
1.5
 40
1.5
309
CELLMARGIN_END
 94
        6
 95
        1
302
GRIDFORMAT
  1
GRIDFORMAT_BEGIN
 90
        0
 91
        1
 62
     0
 92
       -2
340
14
 93
        0
 40
0.045
309
GRIDFORMAT_END
 95
        2
302
GRIDFORMAT
  1
GRIDFORMAT_BEGIN
 90
        0
 91
        1
 62
     0
 92
       -2
340
14
 93
        0
 40
0.045
309
GRIDFORMAT_END
 95
        4
302
GRIDFORMAT
  1
GRIDFORMAT_BEGIN
 90
        0
 91
        1
 62
     0
 92
       -2
340
14
 93
        0
 40
0.045
309
GRIDFORMAT_END
 95
        8
302
GRIDFORMAT
  1
GRIDFORMAT_BEGIN
 90
        0
 91
        1
 62
     0
 92
       -2
340
14
 93
        0
 40
0.045
309
GRIDFORMAT_END
 95
       16
302
GRIDFORMAT
  1
GRIDFORMAT_BEGIN
 90
        0
 91
        1
 62
     0
 92
       -2
340
14
 93
        0
 40
0.045
309
GRIDFORMAT_END
 95
       32
302
GRIDFORMAT
  1
GRIDFORMAT_BEGIN
 90
        0
 91
        1
 62
     0
 92
       -2
340
14
 93
        0
 40
0.045
309
GRIDFORMAT_END
309
TABLEFORMAT_END
  1
CELLSTYLE_BEGIN
 90
        2
 91
        1
300
_HEADER
309
CELLSTYLE_END
300
CELLSTYLE
  1
TABLEFORMAT_BEGIN
 90
        5
170
     1
 91
        0
 92
        0
 62
   257
 93
        1
300
CONTENTFORMAT
  1
CONTENTFORMAT_BEGIN
 90
        0
 91
        0
 92
        4
 93
        0
300

 40
0.0
140
1.0
 94
        2
 62
     0
340
11
144
4.5
309
CONTENTFORMAT_END
171
     1
301
MARGIN
  1
CELLMARGIN_BEGIN
 40
1.5
 40
1.5
 40
1.5
 40
1.5
 40
1.5
 40
1.5
309
CELLMARGIN_END
 94
        6
 95
        1
302
GRIDFORMAT
  1
GRIDFORMAT_BEGIN
 90
        0
 91
        1
 62
     0
 92
       -2
340
14
 93
        0
 40
0.045
309
GRIDFORMAT_END
 95
        2
302
GRIDFORMAT
  1
GRIDFORMAT_BEGIN
 90
        0
 91
        1
 62
     0
 92
       -2
340
14
 93
        0
 40
0.045
309
GRIDFORMAT_END
 95
        4
302
GRIDFORMAT
  1
GRIDFORMAT_BEGIN
 90
        0
 91
        1
 62
     0
 92
       -2
340
14
 93
        0
 40
0.045
309
GRIDFORMAT_END
 95
        8
302
GRIDFORMAT
  1
GRIDFORMAT_BEGIN
 90
        0
 91
        1
 62
     0
 92
       -2
340
14
 93
        0
 40
0.045
309
GRIDFORMAT_END
 95
       16
302
GRIDFORMAT
  1
GRIDFORMAT_BEGIN
 90
        0
 91
        1
 62
     0
 92
       -2
340
14
 93
        0
 40
0.045
309
GRIDFORMAT_END
 95
       32
302
GRIDFORMAT
  1
GRIDFORMAT_BEGIN
 90
        0
 91
        1
 62
     0
 92
       -2
340
14
 93
        0
 40
0.045
309
GRIDFORMAT_END
309
TABLEFORMAT_END
  1
CELLSTYLE_BEGIN
 90
        3
 91
        2
300
_DATA
309
CELLSTYLE_END
  0
ENDSEC
  0
EOF
