  0
SECTION
  2
HEADER
  9
$ACADVER
  1
AC1015
  9
$ACADMAINTVER
 70
     6
  9
$DWGCODEPAGE
  3
ANSI_1252
  9
$INSBASE
 10
0.0
 20
0.0
 30
0.0
  9
$EXTMIN
 10
8.0116157111
 20
-2.0132313563
 30
0.0
  9
$EXTMAX
 10
11.9381100948
 20
2.3757146682
 30
0.0
  9
$LIMMIN
 10
0.0
 20
0.0
  9
$LIMMAX
 10
12.0
 20
9.0
  9
$ORTHOMODE
 70
     0
  9
$REGENMODE
 70
     1
  9
$FILLMODE
 70
     1
  9
$QTEXTMODE
 70
     0
  9
$MIRRTEXT
 70
     1
  9
$LTSCALE
 40
1.0
  9
$ATTMODE
 70
     1
  9
$TEXTSIZE
 40
0.125
  9
$TRACEWID
 40
0.05
  9
$TEXTSTYLE
  7
Standard
  9
$CLAYER
  8
0
  9
$CELTYPE
  6
ByLayer
  9
$CECOLOR
 62
   256
  9
$CELTSCALE
 40
1.0
  9
$DISPSILH
 70
     0
  9
$DIMSCALE
 40
1.0
  9
$DIMASZ
 40
0.13
  9
$DIMEXO
 40
0.05
  9
$DIMDLI
 40
0.38
  9
$DIMRND
 40
0.0
  9
$DIMDLE
 40
0.0
  9
$DIMEXE
 40
0.125
  9
$DIMTP
 40
0.0
  9
$DIMTM
 40
0.0
  9
$DIMTXT
 40
0.125
  9
$DIMCEN
 40
0.09
  9
$DIMTSZ
 40
0.0
  9
$DIMTOL
 70
     0
  9
$DIMLIM
 70
     0
  9
$DIMTIH
 70
     1
  9
$DIMTOH
 70
     1
  9
$DIMSE1
 70
     0
  9
$DIMSE2
 70
     0
  9
$DIMTAD
 70
     0
  9
$DIMZIN
 70
     1
  9
$DIMBLK
  1

  9
$DIMASO
 70
     1
  9
$DIMSHO
 70
     1
  9
$DIMPOST
  1

  9
$DIMAPOST
  1

  9
$DIMALT
 70
     0
  9
$DIMALTD
 70
     2
  9
$DIMALTF
 40
25.4
  9
$DIMLFAC
 40
1.0
  9
$DIMTOFL
 70
     0
  9
$DIMTVP
 40
0.0
  9
$DIMTIX
 70
     0
  9
$DIMSOXD
 70
     0
  9
$DIMSAH
 70
     0
  9
$DIMBLK1
  1

  9
$DIMBLK2
  1

  9
$DIMSTYLE
  2
Standard
  9
$DIMCLRD
 70
     0
  9
$DIMCLRE
 70
     0
  9
$DIMCLRT
 70
     0
  9
$DIMTFAC
 40
1.0
  9
$DIMGAP
 40
0.06
  9
$DIMJUST
 70
     0
  9
$DIMSD1
 70
     0
  9
$DIMSD2
 70
     0
  9
$DIMTOLJ
 70
     1
  9
$DIMTZIN
 70
     1
  9
$DIMALTZ
 70
     0
  9
$DIMALTTZ
 70
     0
  9
$DIMUPT
 70
     0
  9
$DIMDEC
 70
     2
  9
$DIMTDEC
 70
     2
  9
$DIMALTU
 70
     2
  9
$DIMALTTD
 70
     2
  9
$DIMTXSTY
  7
Standard
  9
$DIMAUNIT
 70
     0
  9
$DIMADEC
 70
     2
  9
$DIMALTRND
 40
0.0
  9
$DIMAZIN
 70
     0
  9
$DIMDSEP
 70
    46
  9
$DIMATFIT
 70
     3
  9
$DIMFRAC
 70
     0
  9
$DIMLDRBLK
  1

  9
$DIMLUNIT
 70
     2
  9
$DIMLWD
 70
    -2
  9
$DIMLWE
 70
    -2
  9
$DIMTMOVE
 70
     0
  9
$LUNITS
 70
     2
  9
$LUPREC
 70
     2
  9
$SKETCHINC
 40
0.1
  9
$FILLETRAD
 40
0.5
  9
$AUNITS
 70
     0
  9
$AUPREC
 70
     2
  9
$MENU
  1
.
  9
$ELEVATION
 40
0.0
  9
$PELEVATION
 40
0.0
  9
$THICKNESS
 40
0.0
  9
$LIMCHECK
 70
     0
  9
$CHAMFERA
 40
0.0
  9
$CHAMFERB
 40
0.0
  9
$CHAMFERC
 40
0.0
  9
$CHAMFERD
 40
0.0
  9
$SKPOLY
 70
     0
  9
$TDCREATE
 40
2458543.140236065
  9
$TDUCREATE
 40
2458543.473569398
  9
$TDUPDATE
 40
2458543.14026125
  9
$TDUUPDATE
 40
2458543.473594583
  9
$TDINDWG
 40
0.0000000116
  9
$TDUSRTIMER
 40
0.0000000116
  9
$USRTIMER
 70
     1
  9
$ANGBASE
 50
0.0
  9
$ANGDIR
 70
     0
  9
$PDMODE
 70
     0
  9
$PDSIZE
 40
-1.0
  9
$PLINEWID
 40
0.0
  9
$SPLFRAME
 70
     0
  9
$SPLINETYPE
 70
     6
  9
$SPLINESEGS
 70
     8
  9
$HANDSEED
  5
E3
  9
$SURFTAB1
 70
     6
  9
$SURFTAB2
 70
     6
  9
$SURFTYPE
 70
     6
  9
$SURFU
 70
     6
  9
$SURFV
 70
     6
  9
$UCSBASE
  2

  9
$UCSNAME
  2

  9
$UCSORG
 10
0.0
 20
0.0
 30
0.0
  9
$UCSXDIR
 10
1.0
 20
0.0
 30
0.0
  9
$UCSYDIR
 10
0.0
 20
1.0
 30
0.0
  9
$UCSORTHOREF
  2

  9
$UCSORTHOVIEW
 70
     0
  9
$UCSORGTOP
 10
0.0
 20
0.0
 30
0.0
  9
$UCSORGBOTTOM
 10
0.0
 20
0.0
 30
0.0
  9
$UCSORGLEFT
 10
0.0
 20
0.0
 30
0.0
  9
$UCSORGRIGHT
 10
0.0
 20
0.0
 30
0.0
  9
$UCSORGFRONT
 10
0.0
 20
0.0
 30
0.0
  9
$UCSORGBACK
 10
0.0
 20
0.0
 30
0.0
  9
$PUCSBASE
  2

  9
$PUCSNAME
  2

  9
$PUCSORG
 10
0.0
 20
0.0
 30
0.0
  9
$PUCSXDIR
 10
1.0
 20
0.0
 30
0.0
  9
$PUCSYDIR
 10
0.0
 20
1.0
 30
0.0
  9
$PUCSORTHOREF
  2

  9
$PUCSORTHOVIEW
 70
     0
  9
$PUCSORGTOP
 10
0.0
 20
0.0
 30
0.0
  9
$PUCSORGBOTTOM
 10
0.0
 20
0.0
 30
0.0
  9
$PUCSORGLEFT
 10
0.0
 20
0.0
 30
0.0
  9
$PUCSORGRIGHT
 10
0.0
 20
0.0
 30
0.0
  9
$PUCSORGFRONT
 10
0.0
 20
0.0
 30
0.0
  9
$PUCSORGBACK
 10
0.0
 20
0.0
 30
0.0
  9
$USERI1
 70
     0
  9
$USERI2
 70
     0
  9
$USERI3
 70
     0
  9
$USERI4
 70
     0
  9
$USERI5
 70
     0
  9
$USERR1
 40
0.0
  9
$USERR2
 40
0.0
  9
$USERR3
 40
0.0
  9
$USERR4
 40
0.0
  9
$USERR5
 40
0.0
  9
$WORLDVIEW
 70
     1
  9
$SHADEDGE
 70
     3
  9
$SHADEDIF
 70
    70
  9
$TILEMODE
 70
     1
  9
$MAXACTVP
 70
    64
  9
$PINSBASE
 10
0.0
 20
0.0
 30
0.0
  9
$PLIMCHECK
 70
     0
  9
$PEXTMIN
 10
1.0000000000E+20
 20
1.0000000000E+20
 30
1.0000000000E+20
  9
$PEXTMAX
 10
-1.0000000000E+20
 20
-1.0000000000E+20
 30
-1.0000000000E+20
  9
$PLIMMIN
 10
0.0
 20
0.0
  9
$PLIMMAX
 10
12.0
 20
9.0
  9
$UNITMODE
 70
     0
  9
$VISRETAIN
 70
     1
  9
$PLINEGEN
 70
     0
  9
$PSLTSCALE
 70
     1
  9
$TREEDEPTH
 70
  3020
  9
$CMLSTYLE
  2
Standard
  9
$CMLJUST
 70
     0
  9
$CMLSCALE
 40
1.0
  9
$PROXYGRAPHICS
 70
     1
  9
$MEASUREMENT
 70
     0
  9
$CELWEIGHT
370
    -1
  9
$ENDCAPS
280
     0
  9
$JOINSTYLE
280
     0
  9
$LWDISPLAY
290
     1
  9
$INSUNITS
 70
     1
  9
$HYPERLINKBASE
  1

  9
$STYLESHEET
  1

  9
$XEDIT
290
     1
  9
$CEPSNTYPE
380
     0
  9
$PSTYLEMODE
290
     1
  9
$FINGERPRINTGUID
  2
{BFEC659D-74F0-456A-B740-132A1867F307}
  9
$VERSIONGUID
  2
{FAEB1C32-E019-11D5-929B-00C0DF256EC4}
  9
$EXTNAMES
290
     1
  9
$PSVPSCALE
 40
0.0
  9
$OLESTARTUP
290
     0
  0
ENDSEC
  0
SECTION
  2
CLASSES
  0
CLASS
  1
ACDBDICTIONARYWDFLT
  2
AcDbDictionaryWithDefault
  3
ObjectDBX Classes
 90
        0
280
     0
281
     0
  0
CLASS
  1
VISUALSTYLE
  2
AcDbVisualStyle
  3
ObjectDBX Classes
 90
     4095
280
     0
281
     0
  0
CLASS
  1
MATERIAL
  2
AcDbMaterial
  3
ObjectDBX Classes
 90
     1153
280
     0
281
     0
  0
CLASS
  1
SCALE
  2
AcDbScale
  3
ObjectDBX Classes
 90
     1153
280
     0
281
     0
  0
CLASS
  1
TABLESTYLE
  2
AcDbTableStyle
  3
ObjectDBX Classes
 90
     4095
280
     0
281
     0
  0
CLASS
  1
MLEADERSTYLE
  2
AcDbMLeaderStyle
  3
ACDB_MLEADERSTYLE_CLASS
 90
     4095
280
     0
281
     0
  0
CLASS
  1
SUN
  2
AcDbSun
  3
SCENEOE
 90
     1153
280
     0
281
     0
  0
CLASS
  1
ACDBPLACEHOLDER
  2
AcDbPlaceHolder
  3
ObjectDBX Classes
 90
        0
280
     0
281
     0
  0
CLASS
  1
LAYOUT
  2
AcDbLayout
  3
ObjectDBX Classes
 90
        0
280
     0
281
     0
  0
ENDSEC
  0
SECTION
  2
TABLES
  0
TABLE
  2
VPORT
  5
8
330
0
100
AcDbSymbolTable
 70
     1
  0
VPORT
  5
29
330
8
100
AcDbSymbolTableRecord
100
AcDbViewportTableRecord
  2
*Active
 70
     0
 10
0.0
 20
0.0
 11
1.0
 21
1.0
 12
9.974862903
 22
0.1812416559
 13
0.0
 23
0.0
 14
0.5
 24
0.5
 15
0.5
 25
0.5
 16
0.0
 26
0.0
 36
1.0
 17
0.0
 27
0.0
 37
0.0
 40
4.476724945
 41
0.8946326434
 42
50.0
 43
0.0
 44
0.0
 50
0.0
 51
0.0
 71
     0
 72
   100
 73
     1
 74
     3
 75
     0
 76
     0
 77
     0
 78
     0
281
     0
 65
     1
110
0.0
120
0.0
130
0.0
111
1.0
121
0.0
131
0.0
112
0.0
122
1.0
132
0.0
 79
     0
146
0.0
  0
ENDTAB
  0
TABLE
  2
LTYPE
  5
5
330
0
100
AcDbSymbolTable
 70
     6
  0
LTYPE
  5
14
330
5
100
AcDbSymbolTableRecord
100
AcDbLinetypeTableRecord
  2
ByBlock
 70
     0
  3

 72
    65
 73
     0
 40
0.0
  0
LTYPE
  5
15
330
5
100
AcDbSymbolTableRecord
100
AcDbLinetypeTableRecord
  2
ByLayer
 70
     0
  3

 72
    65
 73
     0
 40
0.0
  0
LTYPE
  5
16
330
5
100
AcDbSymbolTableRecord
100
AcDbLinetypeTableRecord
  2
Continuous
 70
     0
  3
Solid line
 72
    65
 73
     0
 40
0.0
  0
LTYPE
  5
6E
330
5
100
AcDbSymbolTableRecord
100
AcDbLinetypeTableRecord
  2
HIDDEN
 70
     0
  3
Hidden __ __ __ __ __ __ __ __ __ __ __ __ __ __
 72
    65
 73
     2
 40
0.075
 49
0.05
 74
     0
 49
-0.025
 74
     0
  0
LTYPE
  5
6F
330
5
100
AcDbSymbolTableRecord
100
AcDbLinetypeTableRecord
  2
PHANTOM
 70
     0
  3
Phantom ______  __  __  ______  __  __  ______
 72
    65
 73
     6
 40
0.5
 49
0.25
 74
     0
 49
-0.05
 74
     0
 49
0.05
 74
     0
 49
-0.05
 74
     0
 49
0.05
 74
     0
 49
-0.05
 74
     0
  0
LTYPE
  5
70
330
5
100
AcDbSymbolTableRecord
100
AcDbLinetypeTableRecord
  2
CENTER
 70
     0
  3
Center ____ _ ____ _ ____ _ ____ _ ____ _ ____
 72
    65
 73
     4
 40
0.4
 49
0.25
 74
     0
 49
-0.05
 74
     0
 49
0.05
 74
     0
 49
-0.05
 74
     0
  0
LTYPE
  5
71
330
5
100
AcDbSymbolTableRecord
100
AcDbLinetypeTableRecord
  2
CENTERX2
 70
     0
  3
Center (2x) ________  __  ________  __  _____
 72
    65
 73
     4
 40
0.8
 49
0.5
 74
     0
 49
-0.1
 74
     0
 49
0.1
 74
     0
 49
-0.1
 74
     0
  0
LTYPE
  5
72
330
5
100
AcDbSymbolTableRecord
100
AcDbLinetypeTableRecord
  2
DOT2
 70
     0
  3
Dot (.5x) ........................................
 72
    65
 73
     2
 40
0.025
 49
0.0
 74
     0
 49
-0.025
 74
     0
  0
ENDTAB
  0
TABLE
  2
LAYER
  5
2
330
0
100
AcDbSymbolTable
 70
     1
  0
LAYER
  5
10
330
2
100
AcDbSymbolTableRecord
100
AcDbLayerTableRecord
  2
0
 70
     0
 62
     7
  6
Continuous
370
    -3
390
F
  0
ENDTAB
  0
TABLE
  2
STYLE
  5
3
330
0
100
AcDbSymbolTable
 70
     2
  0
STYLE
  5
11
330
3
100
AcDbSymbolTableRecord
100
AcDbTextStyleTableRecord
  2
Standard
 70
     0
 40
0.0
 41
1.0
 50
0.0
 71
     0
 42
0.125
  3
txt
  4

  0
STYLE
  5
E0
330
3
100
AcDbSymbolTableRecord
100
AcDbTextStyleTableRecord
  2
SLDTEXTSTYLE0
 70
     0
 40
0.0
 41
0.7
 50
0.0
 71
     0
 42
0.125
  3
TXT
  4

  0
ENDTAB
  0
TABLE
  2
VIEW
  5
6
330
0
100
AcDbSymbolTable
 70
     0
  0
ENDTAB
  0
TABLE
  2
UCS
  5
7
330
0
100
AcDbSymbolTable
 70
     0
  0
ENDTAB
  0
TABLE
  2
APPID
  5
9
330
0
100
AcDbSymbolTable
 70
     1
  0
APPID
  5
12
330
9
100
AcDbSymbolTableRecord
100
AcDbRegAppTableRecord
  2
ACAD
 70
     0
  0
ENDTAB
  0
TABLE
  2
DIMSTYLE
  5
A
330
0
100
AcDbSymbolTable
 70
     1
100
AcDbDimStyleTable
  0
DIMSTYLE
105
27
330
A
100
AcDbSymbolTableRecord
100
AcDbDimStyleTableRecord
  2
Standard
 70
     0
178
     0
340
11
  0
ENDTAB
  0
TABLE
  2
BLOCK_RECORD
  5
1
330
0
100
AcDbSymbolTable
 70
     1
  0
BLOCK_RECORD
  5
1F
330
1
100
AcDbSymbolTableRecord
100
AcDbBlockTableRecord
  2
*Model_Space
340
22
  0
BLOCK_RECORD
  5
1B
330
1
100
AcDbSymbolTableRecord
100
AcDbBlockTableRecord
  2
*Paper_Space
340
1E
  0
BLOCK_RECORD
  5
23
330
1
100
AcDbSymbolTableRecord
100
AcDbBlockTableRecord
  2
*Paper_Space0
340
26
  0
ENDTAB
  0
ENDSEC
  0
SECTION
  2
BLOCKS
  0
BLOCK
  5
20
330
1F
100
AcDbEntity
  8
0
100
AcDbBlockBegin
  2
*Model_Space
 70
     0
 10
0.0
 20
0.0
 30
0.0
  3
*Model_Space
  1

  0
ENDBLK
  5
21
330
1F
100
AcDbEntity
  8
0
100
AcDbBlockEnd
  0
BLOCK
  5
1C
330
1B
100
AcDbEntity
 67
     1
  8
0
100
AcDbBlockBegin
  2
*Paper_Space
 70
     0
 10
0.0
 20
0.0
 30
0.0
  3
*Paper_Space
  1

  0
ENDBLK
  5
1D
330
1B
100
AcDbEntity
 67
     1
  8
0
100
AcDbBlockEnd
  0
BLOCK
  5
24
330
23
100
AcDbEntity
  8
0
100
AcDbBlockBegin
  2
*Paper_Space0
 70
     0
 10
0.0
 20
0.0
 30
0.0
  3
*Paper_Space0
  1

  0
ENDBLK
  5
25
330
23
100
AcDbEntity
  8
0
100
AcDbBlockEnd
  0
ENDSEC
  0
SECTION
  2
ENTITIES
  0
LINE
  5
73
330
1F
100
AcDbEntity
  8
0
  6
Continuous
 62
     7
100
AcDbLine
 10
11.0941120483
 20
1.3030221727
 30
0.0
 11
11.3754447305
 21
1.1242400901
 31
0.0
  0
LINE
  5
74
330
1F
100
AcDbEntity
  8
0
  6
Continuous
 62
     7
100
AcDbLine
 10
11.0941120483
 20
1.3030221727
 30
0.0
 11
10.9641120483
 21
1.0984533023
 31
0.0
  0
LINE
  5
75
330
1F
100
AcDbEntity
  8
0
  6
Continuous
 62
     7
100
AcDbLine
 10
10.9641120483
 20
1.0984533023
 30
0.0
 11
10.6827793662
 21
1.2772353849
 31
0.0
  0
LINE
  5
76
330
1F
100
AcDbEntity
  8
0
  6
Continuous
 62
     7
100
AcDbLine
 10
10.8127793662
 20
1.4818042553
 30
0.0
 11
10.6827793662
 21
1.2772353849
 31
0.0
  0
LINE
  5
77
330
1F
100
AcDbEntity
  8
0
  6
Continuous
 62
     7
100
AcDbLine
 10
10.531446684
 20
1.6605863379
 30
0.0
 11
10.8127793662
 21
1.4818042553
 31
0.0
  0
LINE
  5
78
330
1F
100
AcDbEntity
  8
0
  6
Continuous
 62
     7
100
AcDbLine
 10
10.531446684
 20
1.6605863379
 30
0.0
 11
10.401446684
 21
1.4560174675
 31
0.0
  0
LINE
  5
79
330
1F
100
AcDbEntity
  8
0
  6
Continuous
 62
     7
100
AcDbLine
 10
10.401446684
 20
1.4560174675
 30
0.0
 11
10.1201140018
 21
1.6347995501
 31
0.0
  0
LINE
  5
7A
330
1F
100
AcDbEntity
  8
0
  6
Continuous
 62
     7
100
AcDbLine
 10
10.2501140018
 20
1.8393684204
 30
0.0
 11
10.1201140018
 21
1.6347995501
 31
0.0
  0
LINE
  5
7B
330
1F
100
AcDbEntity
  8
0
  6
Continuous
 62
     7
100
AcDbLine
 10
9.9687813196
 20
2.018150503
 30
0.0
 11
10.2501140018
 21
1.8393684204
 31
0.0
  0
LINE
  5
7C
330
1F
100
AcDbEntity
  8
0
  6
Continuous
 62
     7
100
AcDbLine
 10
9.9687813196
 20
2.018150503
 30
0.0
 11
9.8387813196
 21
1.8135816326
 31
0.0
  0
LINE
  5
7D
330
1F
100
AcDbEntity
  8
0
  6
Continuous
 62
     7
100
AcDbLine
 10
9.8387813196
 20
1.8135816326
 30
0.0
 11
9.5574486375
 21
1.9923637152
 31
0.0
  0
LINE
  5
7E
330
1F
100
AcDbEntity
  8
0
  6
Continuous
 62
     7
100
AcDbLine
 10
9.6874486375
 20
2.1969325856
 30
0.0
 11
9.5574486375
 21
1.9923637152
 31
0.0
  0
LINE
  5
7F
330
1F
100
AcDbEntity
  8
0
  6
Continuous
 62
     7
100
AcDbLine
 10
9.4061159553
 20
2.3757146682
 30
0.0
 11
9.6874486375
 21
2.1969325856
 31
0.0
  0
LINE
  5
80
330
1F
100
AcDbEntity
  8
0
  6
Continuous
 62
     7
100
AcDbLine
 10
9.2321157383
 20
2.1019067617
 30
0.0
 11
9.4061159553
 21
2.3757146682
 31
0.0
  0
LINE
  5
81
330
1F
100
AcDbEntity
  8
0
  6
Continuous
 62
     7
100
AcDbLine
 10
9.3418354843
 20
2.0321817495
 30
0.0
 11
9.2321157383
 21
2.1019067617
 31
0.0
  0
LINE
  5
82
330
1F
100
AcDbEntity
  8
0
  6
Continuous
 62
     7
100
AcDbLine
 10
9.1923355114
 20
1.7969275912
 30
0.0
 11
9.3418354843
 21
2.0321817495
 31
0.0
  0
LINE
  5
83
330
1F
100
AcDbEntity
  8
0
  6
Continuous
 62
     7
100
AcDbLine
 10
9.1923355114
 20
1.7969275912
 30
0.0
 11
9.0826157654
 21
1.8666526034
 31
0.0
  0
LINE
  5
84
330
1F
100
AcDbEntity
  8
0
  6
Continuous
 62
     7
100
AcDbLine
 10
8.9331157925
 20
1.6313984451
 30
0.0
 11
9.0826157654
 21
1.8666526034
 31
0.0
  0
LINE
  5
85
330
1F
100
AcDbEntity
  8
0
  6
Continuous
 62
     7
100
AcDbLine
 10
9.0428355386
 20
1.5616734329
 30
0.0
 11
8.9331157925
 21
1.6313984451
 31
0.0
  0
LINE
  5
86
330
1F
100
AcDbEntity
  8
0
  6
Continuous
 62
     7
100
AcDbLine
 10
8.8933355657
 20
1.3264192747
 30
0.0
 11
9.0428355386
 21
1.5616734329
 31
0.0
  0
LINE
  5
87
330
1F
100
AcDbEntity
  8
0
  6
Continuous
 62
     7
100
AcDbLine
 10
8.8933355657
 20
1.3264192747
 30
0.0
 11
8.7836158196
 21
1.3961442869
 31
0.0
  0
LINE
  5
88
330
1F
100
AcDbEntity
  8
0
  6
Continuous
 62
     7
100
AcDbLine
 10
8.6341158468
 20
1.1608901286
 30
0.0
 11
8.7836158196
 21
1.3961442869
 31
0.0
  0
LINE
  5
89
330
1F
100
AcDbEntity
  8
0
  6
Continuous
 62
     7
100
AcDbLine
 10
8.7438355928
 20
1.0911651164
 30
0.0
 11
8.6341158468
 21
1.1608901286
 31
0.0
  0
LINE
  5
8A
330
1F
100
AcDbEntity
  8
0
  6
Continuous
 62
     7
100
AcDbLine
 10
8.59433562
 20
0.8559109582
 30
0.0
 11
8.7438355928
 21
1.0911651164
 31
0.0
  0
LINE
  5
8B
330
1F
100
AcDbEntity
  8
0
  6
Continuous
 62
     7
100
AcDbLine
 10
8.59433562
 20
0.8559109582
 30
0.0
 11
8.4846158739
 21
0.9256359704
 31
0.0
  0
LINE
  5
8C
330
1F
100
AcDbEntity
  8
0
  6
Continuous
 62
     7
100
AcDbLine
 10
8.335115901
 20
0.6903818121
 30
0.0
 11
8.4846158739
 21
0.9256359704
 31
0.0
  0
LINE
  5
8D
330
1F
100
AcDbEntity
  8
0
  6
Continuous
 62
     7
100
AcDbLine
 10
8.4448356471
 20
0.6206567999
 30
0.0
 11
8.335115901
 21
0.6903818121
 31
0.0
  0
LINE
  5
8E
330
1F
100
AcDbEntity
  8
0
  6
Continuous
 62
     7
100
AcDbLine
 10
8.2953356742
 20
0.3854026416
 30
0.0
 11
8.4448356471
 21
0.6206567999
 31
0.0
  0
LINE
  5
8F
330
1F
100
AcDbEntity
  8
0
  6
Continuous
 62
     7
100
AcDbLine
 10
8.2953356742
 20
0.3854026416
 30
0.0
 11
8.1856159282
 21
0.4551276538
 31
0.0
  0
LINE
  5
90
330
1F
100
AcDbEntity
  8
0
  6
Continuous
 62
     7
100
AcDbLine
 10
8.0116157111
 20
0.1813197473
 30
0.0
 11
8.1856159282
 21
0.4551276538
 31
0.0
  0
LINE
  5
91
330
1F
100
AcDbEntity
  8
0
  6
Continuous
 62
     7
100
AcDbLine
 10
10.3459175924
 20
-1.3020889648
 30
0.0
 11
8.0116157111
 21
0.1813197473
 31
0.0
  0
LINE
  5
92
330
1F
100
AcDbEntity
  8
0
  6
Continuous
 62
     7
100
AcDbLine
 10
11.9381100948
 20
0.7666759249
 30
0.0
 11
11.7244696709
 21
0.4304899235
 31
0.0
  0
LINE
  5
93
330
1F
100
AcDbEntity
  8
0
  6
Continuous
 62
     7
100
AcDbLine
 10
11.6567774127
 20
0.9454580075
 30
0.0
 11
11.9381100948
 21
0.7666759249
 31
0.0
  0
LINE
  5
94
330
1F
100
AcDbEntity
  8
0
  6
Continuous
 62
     7
100
AcDbLine
 10
11.6567774127
 20
0.9454580075
 30
0.0
 11
11.5267774127
 21
0.7408891371
 31
0.0
  0
LINE
  5
95
330
1F
100
AcDbEntity
  8
0
  6
Continuous
 62
     7
100
AcDbLine
 10
11.5267774127
 20
0.7408891371
 30
0.0
 11
11.2454447305
 21
0.9196712197
 31
0.0
  0
LINE
  5
96
330
1F
100
AcDbEntity
  8
0
  6
Continuous
 62
     7
100
AcDbLine
 10
11.3754447305
 20
1.1242400901
 30
0.0
 11
11.2454447305
 21
0.9196712197
 31
0.0
  0
LINE
  5
97
330
1F
100
AcDbEntity
  8
0
  6
Continuous
 62
     7
100
AcDbLine
 10
10.3459175924
 20
-1.3020889648
 30
0.0
 11
11.5267774127
 21
0.5561199546
 31
0.0
  0
LINE
  5
98
330
1F
100
AcDbEntity
  8
0
  6
Continuous
 62
     7
100
AcDbLine
 10
11.5267774127
 20
0.5561199546
 30
0.0
 11
11.7244696709
 21
0.4304899235
 31
0.0
  0
LWPOLYLINE
  5
99
330
1F
100
AcDbEntity
  8
0
  6
Continuous
 62
     7
100
AcDbPolyline
 90
       85
 70
   128
 43
0.0
 10
8.0818172515
 20
-1.471703117
 10
8.1040823651
 20
-1.5032143022
 10
8.1040823651
 20
-1.5032143022
 10
8.1043724565
 20
-1.5043021452
 10
8.1044449794
 20
-1.5055350339
 10
8.1044449794
 20
-1.5055350339
 10
8.1043724565
 20
-1.5063690469
 10
8.1040823651
 20
-1.5073118441
 10
8.1040823651
 20
-1.5073118441
 10
8.1036834893
 20
-1.5086897786
 10
8.1029945221
 20
-1.5097413601
 10
8.1020154634
 20
-1.5105028502
 10
8.1007825747
 20
-1.510901726
 10
8.1007825747
 20
-1.510901726
 10
8.0990057645
 20
-1.5101039745
 10
8.0976640914
 20
-1.5087623014
 10
8.0976640914
 20
-1.5087623014
 10
8.0778653491
 20
-1.4794630636
 10
8.0778653491
 20
-1.4794630636
 10
8.0384491715
 20
-1.4794630636
 10
8.0384491715
 20
-1.4794630636
 10
8.0212249908
 20
-1.5041933609
 10
8.0212249908
 20
-1.5041933609
 10
8.1039010579
 20
-1.6224418937
 10
8.1039010579
 20
-1.6224418937
 10
8.1042999337
 20
-1.6234209524
 10
8.1044449794
 20
-1.6247988868
 10
8.1044449794
 20
-1.6247988868
 10
8.1044449794
 20
-1.6253065469
 10
8.1044449794
 20
-1.6258504684
 10
8.1044449794
 20
-1.6258504684
 10
8.1050614238
 20
-1.6262130827
 10
8.1052789923
 20
-1.6264669127
 10
8.1050614238
 20
-1.6267207428
 10
8.1044449794
 20
-1.6268657885
 10
8.1044449794
 20
-1.6268657885
 10
8.1035384436
 20
-1.6284612915
 10
8.1035384436
 20
-1.6284612915
 10
8.0812376623
 20
-1.6602263068
 10
8.0812376623
 20
-1.6602263068
 10
8.0793883292
 20
-1.6604801368
 10
8.0793883292
 20
-1.6604801368
 10
8.0353669497
 20
-1.6604801368
 10
8.0353669497
 20
-1.6604801368
 10
8.0342791067
 20
-1.6595010781
 10
8.0342791067
 20
-1.6595010781
 10
8.0119783254
 20
-1.6295128731
 10
8.0119783254
 20
-1.6295128731
 10
8.0117244954
 20
-1.6281349386
 10
8.0116157111
 20
-1.6270470956
 10
8.0116157111
 20
-1.6270470956
 10
8.0116519725
 20
-1.6260317755
 10
8.0117970183
 20
-1.6253428083
 10
8.0117970183
 20
-1.6253428083
 10
8.0123772012
 20
-1.6240373967
 10
8.0131749527
 20
-1.6230220766
 10
8.0141540114
 20
-1.6223331094
 10
8.0153869001
 20
-1.6219342336
 10
8.0153869001
 20
-1.6219342336
 10
8.0171274489
 20
-1.6224418937
 10
8.0185779062
 20
-1.6239648738
 10
8.0185779062
 20
-1.6239648738
 10
8.0389205701
 20
-1.65119721
 10
8.0389205701
 20
-1.65119721
 10
8.0793883292
 20
-1.65119721
 10
8.0793883292
 20
-1.65119721
 10
8.0970839085
 20
-1.6264669127
 10
8.0970839085
 20
-1.6264669127
 10
8.0119783254
 20
-1.50847221
 10
8.0119783254
 20
-1.50847221
 10
8.0117244954
 20
-1.5074206284
 10
8.0116157111
 20
-1.5058613868
 10
8.0116157111
 20
-1.5058613868
 10
8.0116519725
 20
-1.5048823281
 10
8.0117970183
 20
-1.5040483152
 10
8.0117970183
 20
-1.5040483152
 10
8.0125222469
 20
-1.5021989821
 10
8.0125222469
 20
-1.5021989821
 10
8.0349680739
 20
-1.4706877969
 10
8.0349680739
 20
-1.4706877969
 10
8.0360559169
 20
-1.4701801368
 10
8.0360559169
 20
-1.4701801368
 10
8.0805486951
 20
-1.4704339668
 10
8.0805486951
 20
-1.4704339668
 10
8.0818178452
 20
-1.471703117
  0
LWPOLYLINE
  5
9A
330
1F
100
AcDbEntity
  8
0
  6
Continuous
 62
     7
100
AcDbPolyline
 90
       30
 70
   128
 43
0.0
 10
8.2342596505
 20
-1.4704339668
 10
8.2351311837
 20
-1.4708328426
 10
8.2358201509
 20
-1.471449287
 10
8.2363640724
 20
-1.4723920842
 10
8.2367266867
 20
-1.4735524501
 10
8.2367266867
 20
-1.4735524501
 10
8.2367266867
 20
-1.4779400835
 10
8.2367266867
 20
-1.4779400835
 10
8.2367266867
 20
-1.6563463335
 10
8.2367266867
 20
-1.6563463335
 10
8.2360377195
 20
-1.6585945423
 10
8.234659785
 20
-1.6602263068
 10
8.234659785
 20
-1.6602263068
 10
8.233318112
 20
-1.6604801368
 10
8.233318112
 20
-1.6604801368
 10
8.1440424641
 20
-1.6604801368
 10
8.1440424641
 20
-1.6604801368
 10
8.1424832225
 20
-1.6591022024
 10
8.1415766867
 20
-1.6571078235
 10
8.1415766867
 20
-1.6571078235
 10
8.1415766867
 20
-1.6519587001
 10
8.1415766867
 20
-1.6519587001
 10
8.1415766867
 20
-1.4738062801
 10
8.1415766867
 20
-1.4738062801
 10
8.1420118239
 20
-1.4726096528
 10
8.1426645297
 20
-1.4715943327
 10
8.143607327
 20
-1.4707965812
 10
8.1448039542
 20
-1.4701801368
 10
8.1448039542
 20
-1.4701801368
 10
8.2342609093
 20
-1.4704339668
  0
LWPOLYLINE
  5
9B
330
1F
100
AcDbEntity
  8
0
  6
Continuous
 62
     7
100
AcDbPolyline
 90
        8
 70
   128
 43
0.0
 10
8.2297634891
 20
-1.65119721
 10
8.2297644916
 20
-1.4794630636
 10
8.2297644916
 20
-1.4794630636
 10
8.1485388818
 20
-1.4794630636
 10
8.1485388818
 20
-1.4794630636
 10
8.1485388818
 20
-1.65119721
 10
8.1485388818
 20
-1.65119721
 10
8.2297644916
 20
-1.65119721
  0
LWPOLYLINE
  5
9C
330
1F
100
AcDbEntity
  8
0
  6
Continuous
 62
     7
100
AcDbPolyline
 90
       41
 70
   128
 43
0.0
 10
8.2774096587
 20
-1.4716305941
 10
8.2778834131
 20
-1.4725733914
 10
8.2782460274
 20
-1.4739150644
 10
8.2784273346
 20
-1.4757643975
 10
8.2784998574
 20
-1.4780126063
 10
8.2784998574
 20
-1.4780126063
 10
8.2784998574
 20
-1.65119721
 10
8.2784998574
 20
-1.65119721
 10
8.3633878719
 20
-1.65119721
 10
8.3633878719
 20
-1.65119721
 10
8.3642581463
 20
-1.6514147786
 10
8.364983375
 20
-1.6519224386
 10
8.3655998193
 20
-1.6526476673
 10
8.3660349565
 20
-1.653626726
 10
8.3660349565
 20
-1.653626726
 10
8.3664700937
 20
-1.6547508304
 10
8.3666151395
 20
-1.6558386734
 10
8.3666151395
 20
-1.6558386734
 10
8.3663975709
 20
-1.657397915
 10
8.3657448651
 20
-1.6589571566
 10
8.3652009436
 20
-1.6596098624
 10
8.3644757149
 20
-1.660081261
 10
8.3634603948
 20
-1.6603713525
 10
8.3622637675
 20
-1.6604801368
 10
8.3622637675
 20
-1.6604801368
 10
8.2740034398
 20
-1.6604801368
 10
8.2740034398
 20
-1.6604801368
 10
8.2724441981
 20
-1.6591022024
 10
8.2715376623
 20
-1.6571078235
 10
8.2715376623
 20
-1.6571078235
 10
8.2715376623
 20
-1.6519587001
 10
8.2715376623
 20
-1.6519587001
 10
8.2715376623
 20
-1.4738062801
 10
8.2715376623
 20
-1.4738062801
 10
8.2719727995
 20
-1.4723920842
 10
8.2725892439
 20
-1.4713405027
 10
8.2733869954
 20
-1.4705790126
 10
8.2743660541
 20
-1.4701801368
 10
8.2743660541
 20
-1.4701801368
 10
8.2761428643
 20
-1.4705427511
 10
8.2774120145
 20
-1.4716305941
  0
LWPOLYLINE
  5
9D
330
1F
100
AcDbEntity
  8
0
  6
Continuous
 62
     7
100
AcDbPolyline
 90
       63
 70
   128
 43
0.0
 10
8.4502302756
 20
-1.4703977054
 10
8.4512493239
 20
-1.4707965812
 10
8.4520470754
 20
-1.4714855484
 10
8.4525909969
 20
-1.4725733914
 10
8.4528810884
 20
-1.4739513258
 10
8.4528810884
 20
-1.4739513258
 10
8.4526635198
 20
-1.4761632732
 10
8.4520470754
 20
-1.477903822
 10
8.4520470754
 20
-1.477903822
 10
8.451176801
 20
-1.4785927892
 10
8.4500164352
 20
-1.4790641879
 10
8.4485297164
 20
-1.4793542793
 10
8.4467529062
 20
-1.4794630636
 10
8.4467529062
 20
-1.4794630636
 10
8.4293474184
 20
-1.4794630636
 10
8.4293474184
 20
-1.4794630636
 10
8.4293474184
 20
-1.65119721
 10
8.4293474184
 20
-1.65119721
 10
8.4500164352
 20
-1.65119721
 10
8.4500164352
 20
-1.65119721
 10
8.4511042782
 20
-1.6517773929
 10
8.4519745526
 20
-1.6526114059
 10
8.4525547355
 20
-1.6536992488
 10
8.4528810884
 20
-1.6550409219
 10
8.4528810884
 20
-1.6550409219
 10
8.4526635198
 20
-1.6572891307
 10
8.452010814
 20
-1.6590296795
 10
8.4514668925
 20
-1.6596461238
 10
8.4507416638
 20
-1.6601175225
 10
8.4497626052
 20
-1.6603713525
 10
8.4485659779
 20
-1.6604801368
 10
8.4485659779
 20
-1.6604801368
 10
8.4041457225
 20
-1.6604801368
 10
8.4041457225
 20
-1.6604801368
 10
8.4031304024
 20
-1.6598999539
 10
8.4023326509
 20
-1.6591022024
 10
8.4017887294
 20
-1.6580143594
 10
8.4014986379
 20
-1.6567089478
 10
8.4014986379
 20
-1.6567089478
 10
8.401752468
 20
-1.6543519546
 10
8.4024776966
 20
-1.6526476673
 10
8.4031304024
 20
-1.6519949615
 10
8.4041094611
 20
-1.6515598243
 10
8.4053786113
 20
-1.6512697328
 10
8.4069378529
 20
-1.65119721
 10
8.4069378529
 20
-1.65119721
 10
8.4223852233
 20
-1.65119721
 10
8.4223852233
 20
-1.65119721
 10
8.4223852233
 20
-1.4794630636
 10
8.4223852233
 20
-1.4794630636
 10
8.404181984
 20
-1.4794630636
 10
8.404181984
 20
-1.4794630636
 10
8.4031304024
 20
-1.4789554036
 10
8.4023689123
 20
-1.4781576521
 10
8.4017887294
 20
-1.4770335476
 10
8.4014986379
 20
-1.4756193517
 10
8.4014986379
 20
-1.4756193517
 10
8.401752468
 20
-1.47329862
 10
8.4024414352
 20
-1.4717756399
 10
8.4034930167
 20
-1.4707965812
 10
8.404689644
 20
-1.4701801368
 10
8.404689644
 20
-1.4701801368
 10
8.4502340038
 20
-1.4703977054
  0
LWPOLYLINE
  5
9E
330
1F
100
AcDbEntity
  8
0
  6
Continuous
 62
     7
100
AcDbPolyline
 90
       49
 70
   128
 43
0.0
 10
8.5616628016
 20
-1.4717393784
 10
8.5844738285
 20
-1.5032143022
 10
8.5844738285
 20
-1.5032143022
 10
8.5848364428
 20
-1.5055712953
 10
8.5848364428
 20
-1.5055712953
 10
8.5840749527
 20
-1.6287151216
 10
8.5840749527
 20
-1.6287151216
 10
8.5609038971
 20
-1.6602263068
 10
8.5609038971
 20
-1.6602263068
 10
8.5590183026
 20
-1.6604801368
 10
8.5590183026
 20
-1.6604801368
 10
8.4921522202
 20
-1.6604801368
 10
8.4921522202
 20
-1.6604801368
 10
8.4910643773
 20
-1.6597911696
 10
8.4903028872
 20
-1.6587758495
 10
8.4898314885
 20
-1.6574704379
 10
8.4896864428
 20
-1.6558386734
 10
8.4896864428
 20
-1.6558386734
 10
8.4899765343
 20
-1.653880556
 10
8.4908468087
 20
-1.6524300987
 10
8.4915720373
 20
-1.6518861772
 10
8.4925148346
 20
-1.6514873014
 10
8.4937114619
 20
-1.6512697328
 10
8.4951256577
 20
-1.65119721
 10
8.4951256577
 20
-1.65119721
 10
8.5105730282
 20
-1.65119721
 10
8.5105730282
 20
-1.65119721
 10
8.5105730282
 20
-1.4794630636
 10
8.5105730282
 20
-1.4794630636
 10
8.4923697888
 20
-1.4794630636
 10
8.4923697888
 20
-1.4794630636
 10
8.4913182073
 20
-1.4789554036
 10
8.4905567172
 20
-1.4781576521
 10
8.4899765343
 20
-1.4770335476
 10
8.4896864428
 20
-1.4756193517
 10
8.4896864428
 20
-1.4756193517
 10
8.4899040114
 20
-1.4733711429
 10
8.4905204558
 20
-1.4716668556
 10
8.4910643773
 20
-1.4710141498
 10
8.4918258673
 20
-1.4705427511
 10
8.4928411875
 20
-1.4702889211
 10
8.4940378148
 20
-1.4701801368
 10
8.4940378148
 20
-1.4701801368
 10
8.4961047164
 20
-1.4701801368
 10
8.4961047164
 20
-1.4701801368
 10
8.5586556882
 20
-1.4701801368
 10
8.5586556882
 20
-1.4701801368
 10
8.5604324984
 20
-1.4705790126
 10
8.5616653872
 20
-1.4717393784
  0
LWPOLYLINE
  5
9F
330
1F
100
AcDbEntity
  8
0
  6
Continuous
 62
     7
100
AcDbPolyline
 90
       12
 70
   128
 43
0.0
 10
8.5778733877
 20
-1.5065866155
 10
8.5574953224
 20
-1.4794630636
 10
8.5574953224
 20
-1.4794630636
 10
8.5175352233
 20
-1.4794630636
 10
8.5175352233
 20
-1.4794630636
 10
8.5175352233
 20
-1.65119721
 10
8.5175352233
 20
-1.65119721
 10
8.5574953224
 20
-1.65119721
 10
8.5574953224
 20
-1.65119721
 10
8.5778742477
 20
-1.6238198281
 10
8.5778742477
 20
-1.6238198281
 10
8.5778742477
 20
-1.5065866155
  0
LWPOLYLINE
  5
A0
330
1F
100
AcDbEntity
  8
0
  6
Continuous
 62
     7
100
AcDbPolyline
 90
       69
 70
   128
 43
0.0
 10
8.6270073267
 20
-1.4725371299
 10
8.6672586798
 20
-1.6404275644
 10
8.6672586798
 20
-1.6404275644
 10
8.6857882721
 20
-1.5635170652
 10
8.6857882721
 20
-1.5635170652
 10
8.6864047164
 20
-1.5623566993
 10
8.687202468
 20
-1.5615226863
 10
8.6881090038
 20
-1.5610512877
 10
8.6891605853
 20
-1.5608699806
 10
8.6891605853
 20
-1.5608699806
 10
8.6903209512
 20
-1.5610512877
 10
8.6913000099
 20
-1.5615952092
 10
8.6920977614
 20
-1.562501745
 10
8.6927504672
 20
-1.5637708952
 10
8.6927504672
 20
-1.5637708952
 10
8.7110987523
 20
-1.6404275644
 10
8.7110987523
 20
-1.6404275644
 10
8.7207442934
 20
-1.6007575568
 10
8.7207442934
 20
-1.6007575568
 10
8.75153025
 20
-1.4722832999
 10
8.75153025
 20
-1.4722832999
 10
8.752618093
 20
-1.4709416269
 10
8.7539960274
 20
-1.4701801368
 10
8.7539960274
 20
-1.4701801368
 10
8.7559178834
 20
-1.4704702283
 10
8.7573683407
 20
-1.4714130255
 10
8.7583836608
 20
-1.4729360057
 10
8.7588913209
 20
-1.4750754303
 10
8.7588913209
 20
-1.4750754303
 10
8.7581298308
 20
-1.4784477435
 10
8.7581298308
 20
-1.4784477435
 10
8.7146886341
 20
-1.657651745
 10
8.7146886341
 20
-1.657651745
 10
8.7135282683
 20
-1.6595010781
 10
8.7118602423
 20
-1.6604801368
 10
8.7118602423
 20
-1.6604801368
 10
8.710155955
 20
-1.6602988296
 10
8.708814282
 20
-1.6597186467
 10
8.708814282
 20
-1.6597186467
 10
8.7073275632
 20
-1.6574341764
 10
8.7073275632
 20
-1.6574341764
 10
8.6893781539
 20
-1.5841135591
 10
8.6893781539
 20
-1.5841135591
 10
8.6889792782
 20
-1.5846212191
 10
8.6889792782
 20
-1.5846212191
 10
8.6708485617
 20
-1.6576880065
 10
8.6708485617
 20
-1.6576880065
 10
8.6697244573
 20
-1.6595373396
 10
8.6682014771
 20
-1.6604801368
 10
8.6682014771
 20
-1.6604801368
 10
8.666352144
 20
-1.6602988296
 10
8.6649742096
 20
-1.6597186467
 10
8.6649742096
 20
-1.6597186467
 10
8.663668798
 20
-1.6573616536
 10
8.663668798
 20
-1.6573616536
 10
8.6196474184
 20
-1.4756193517
 10
8.6196474184
 20
-1.4756193517
 10
8.6197562027
 20
-1.4740601101
 10
8.620118817
 20
-1.4727546985
 10
8.620699
 20
-1.4717393784
 10
8.6215330129
 20
-1.4709416269
 10
8.6215330129
 20
-1.4709416269
 10
8.6226208559
 20
-1.470361444
 10
8.6235999146
 20
-1.4701801368
 10
8.6235999146
 20
-1.4701801368
 10
8.6246877576
 20
-1.4703251825
 10
8.6255942934
 20
-1.4707603197
 10
8.6263920449
 20
-1.4715218098
 10
8.6270084893
 20
-1.4725371299
  0
LWPOLYLINE
  5
A1
330
1F
100
AcDbEntity
  8
0
  6
Continuous
 62
     7
100
AcDbPolyline
 90
       30
 70
   128
 43
0.0
 10
8.8863860904
 20
-1.4704339668
 10
8.8872567934
 20
-1.4708328426
 10
8.8879457606
 20
-1.471449287
 10
8.8884896821
 20
-1.4723920842
 10
8.8888522965
 20
-1.4735524501
 10
8.8888522965
 20
-1.4735524501
 10
8.8888522965
 20
-1.4779400835
 10
8.8888522965
 20
-1.4779400835
 10
8.8888522965
 20
-1.6563463335
 10
8.8888522965
 20
-1.6563463335
 10
8.8881633292
 20
-1.6585945423
 10
8.8867853948
 20
-1.6602263068
 10
8.8867853948
 20
-1.6602263068
 10
8.8854437218
 20
-1.6604801368
 10
8.8854437218
 20
-1.6604801368
 10
8.7961680739
 20
-1.6604801368
 10
8.7961680739
 20
-1.6604801368
 10
8.7946088323
 20
-1.6591022024
 10
8.7937022965
 20
-1.6571078235
 10
8.7937022965
 20
-1.6571078235
 10
8.7937022965
 20
-1.6519587001
 10
8.7937022965
 20
-1.6519587001
 10
8.7937022965
 20
-1.4738062801
 10
8.7937022965
 20
-1.4738062801
 10
8.7941374337
 20
-1.4726096528
 10
8.7947901395
 20
-1.4715943327
 10
8.7957329367
 20
-1.4707965812
 10
8.796929564
 20
-1.4701801368
 10
8.796929564
 20
-1.4701801368
 10
8.886386519
 20
-1.4704339668
  0
LWPOLYLINE
  5
A2
330
1F
100
AcDbEntity
  8
0
  6
Continuous
 62
     7
100
AcDbPolyline
 90
        8
 70
   128
 43
0.0
 10
8.881889929
 20
-1.65119721
 10
8.8818901013
 20
-1.4794630636
 10
8.8818901013
 20
-1.4794630636
 10
8.8006644916
 20
-1.4794630636
 10
8.8006644916
 20
-1.4794630636
 10
8.8006644916
 20
-1.65119721
 10
8.8006644916
 20
-1.65119721
 10
8.8818901013
 20
-1.65119721
  0
LWPOLYLINE
  5
A3
330
1F
100
AcDbEntity
  8
0
  6
Continuous
 62
     7
100
AcDbPolyline
 90
       70
 70
   128
 43
0.0
 10
8.9956409349
 20
-1.4717393784
 10
9.0184506577
 20
-1.5036857008
 10
9.0184506577
 20
-1.5036857008
 10
9.0188132721
 20
-1.506042694
 10
9.0188132721
 20
-1.506042694
 10
9.0188132721
 20
-1.5377351863
 10
9.0188132721
 20
-1.5377351863
 10
9.0184506577
 20
-1.539548258
 10
9.0184506577
 20
-1.539548258
 10
8.9949895106
 20
-1.5714945804
 10
8.9949895106
 20
-1.5714945804
 10
8.9932852233
 20
-1.5722923319
 10
8.9932852233
 20
-1.5722923319
 10
8.9590544306
 20
-1.5722923319
 10
8.9590544306
 20
-1.5722923319
 10
9.0182330891
 20
-1.6530102816
 10
9.0182330891
 20
-1.6530102816
 10
9.0186682263
 20
-1.6548596147
 10
9.0188132721
 20
-1.6558386734
 10
9.0188132721
 20
-1.6558386734
 10
9.0188132721
 20
-1.6561287649
 10
9.0188132721
 20
-1.6565276406
 10
9.0188132721
 20
-1.6565276406
 10
9.0194297164
 20
-1.6567452092
 10
9.019647285
 20
-1.6569265164
 10
9.0194297164
 20
-1.6571078235
 10
9.0188132721
 20
-1.6572166078
 10
9.0188132721
 20
-1.6572166078
 10
9.0183781349
 20
-1.6583769737
 10
9.0178342134
 20
-1.659319771
 10
9.0171452462
 20
-1.6600087382
 10
9.0163474946
 20
-1.6604801368
 10
9.0163474946
 20
-1.6604801368
 10
9.0150420831
 20
-1.6604438754
 10
9.0140267629
 20
-1.6602988296
 10
9.0132290114
 20
-1.6600449996
 10
9.0127213513
 20
-1.6597186467
 10
9.0127213513
 20
-1.6597186467
 10
8.9470518963
 20
-1.5722923319
 10
8.9470518963
 20
-1.5722923319
 10
8.9306254672
 20
-1.5722923319
 10
8.9306254672
 20
-1.5722923319
 10
8.9306254672
 20
-1.6564188563
 10
8.9306254672
 20
-1.6564188563
 10
8.9300815457
 20
-1.6583044508
 10
8.9288123956
 20
-1.6599724767
 10
8.9288123956
 20
-1.6599724767
 10
8.9281596898
 20
-1.6603350911
 10
8.9271443696
 20
-1.6604801368
 10
8.9271443696
 20
-1.6604801368
 10
8.9256576509
 20
-1.6601900453
 10
8.9245698079
 20
-1.659319771
 10
8.9241709321
 20
-1.6585945423
 10
8.9238808407
 20
-1.6576154836
 10
8.9237357949
 20
-1.6563463335
 10
8.9236632721
 20
-1.6547870918
 10
8.9236632721
 20
-1.6547870918
 10
8.9236632721
 20
-1.4740601101
 10
8.9236632721
 20
-1.4740601101
 10
8.9240258864
 20
-1.4728997443
 10
8.9245698079
 20
-1.4719206856
 10
8.9252587751
 20
-1.4711954569
 10
8.9261290495
 20
-1.4706877969
 10
8.9261290495
 20
-1.4706877969
 10
8.9300815457
 20
-1.4704339668
 10
8.9300815457
 20
-1.4704339668
 10
8.9926325175
 20
-1.4701801368
 10
8.9926325175
 20
-1.4701801368
 10
8.9944093277
 20
-1.4705790126
 10
8.9956422164
 20
-1.4717393784
  0
LWPOLYLINE
  5
A4
330
1F
100
AcDbEntity
  8
0
  6
Continuous
 62
     7
100
AcDbPolyline
 90
       12
 70
   128
 43
0.0
 10
9.0118468277
 20
-1.5076744585
 10
8.9919798117
 20
-1.4794630636
 10
8.9919798117
 20
-1.4794630636
 10
8.9306254672
 20
-1.4794630636
 10
8.9306254672
 20
-1.4794630636
 10
8.9306254672
 20
-1.5630094051
 10
8.9306254672
 20
-1.5630094051
 10
8.9917985045
 20
-1.5630094051
 10
8.9917985045
 20
-1.5630094051
 10
9.011851077
 20
-1.5345079188
 10
9.011851077
 20
-1.5345079188
 10
9.011851077
 20
-1.5076744585
  0
LWPOLYLINE
  5
A5
330
1F
100
AcDbEntity
  8
0
  6
Continuous
 62
     7
100
AcDbPolyline
 90
       72
 70
   128
 43
0.0
 10
9.1473558756
 20
-1.4717393784
 10
9.1479402347
 20
-1.4726459142
 10
9.1483753719
 20
-1.4737337572
 10
9.148629202
 20
-1.4751116917
 10
9.1487017248
 20
-1.4766709333
 10
9.1487017248
 20
-1.4766709333
 10
9.1481215419
 20
-1.478737835
 10
9.1481215419
 20
-1.478737835
 10
9.08506291
 20
-1.5657290126
 10
9.08506291
 20
-1.5657290126
 10
9.1481215419
 20
-1.6529740202
 10
9.1481215419
 20
-1.6529740202
 10
9.1485566791
 20
-1.6548596147
 10
9.1487017248
 20
-1.6558386734
 10
9.1487017248
 20
-1.6558386734
 10
9.1486654634
 20
-1.6566364249
 10
9.1485204177
 20
-1.6572166078
 10
9.1485204177
 20
-1.6572166078
 10
9.1480852805
 20
-1.6583769737
 10
9.147541359
 20
-1.659319771
 10
9.1468523917
 20
-1.6600087382
 10
9.1460546402
 20
-1.6604801368
 10
9.1460546402
 20
-1.6604801368
 10
9.1447492286
 20
-1.6604438754
 10
9.1437339085
 20
-1.6602988296
 10
9.142936157
 20
-1.6600449996
 10
9.1424284969
 20
-1.6597186467
 10
9.1424284969
 20
-1.6597186467
 10
9.0769403491
 20
-1.5722923319
 10
9.0769403491
 20
-1.5722923319
 10
9.0605864428
 20
-1.5722923319
 10
9.0605864428
 20
-1.5722923319
 10
9.0605864428
 20
-1.6564188563
 10
9.0605864428
 20
-1.6564188563
 10
9.0600425213
 20
-1.6583044508
 10
9.0587733712
 20
-1.6599724767
 10
9.0587733712
 20
-1.6599724767
 10
9.0581206654
 20
-1.6603350911
 10
9.0571053452
 20
-1.6604801368
 10
9.0571053452
 20
-1.6604801368
 10
9.0556186265
 20
-1.6601900453
 10
9.0545307835
 20
-1.659319771
 10
9.0541319077
 20
-1.6585945423
 10
9.0538418163
 20
-1.6576154836
 10
9.0536967706
 20
-1.6563463335
 10
9.0536242477
 20
-1.6547870918
 10
9.0536242477
 20
-1.6547870918
 10
9.0536242477
 20
-1.4738062801
 10
9.0536242477
 20
-1.4738062801
 10
9.053986862
 20
-1.4723920842
 10
9.0546395678
 20
-1.4713405027
 10
9.0554735808
 20
-1.4705790126
 10
9.0565976852
 20
-1.4701801368
 10
9.0565976852
 20
-1.4701801368
 10
9.0582657111
 20
-1.4705427511
 10
9.0594985998
 20
-1.4716668556
 10
9.0599699984
 20
-1.4726096528
 10
9.0603326128
 20
-1.4740238487
 10
9.0605139199
 20
-1.4758731818
 10
9.0605864428
 20
-1.4781939135
 10
9.0605864428
 20
-1.4781939135
 10
9.0605864428
 20
-1.5630094051
 10
9.0605864428
 20
-1.5630094051
 10
9.0769403491
 20
-1.5630094051
 10
9.0769403491
 20
-1.5630094051
 10
9.1427911113
 20
-1.4709778883
 10
9.1427911113
 20
-1.4709778883
 10
9.1436251242
 20
-1.470361444
 10
9.14453166
 20
-1.4701801368
 10
9.14453166
 20
-1.4701801368
 10
9.1460183788
 20
-1.4705790126
 10
9.1473600518
 20
-1.4717393784
  0
LWPOLYLINE
  5
A6
330
1F
100
AcDbEntity
  8
0
  6
Continuous
 62
     7
100
AcDbPolyline
 90
       85
 70
   128
 43
0.0
 10
9.2537853661
 20
-1.471703117
 10
9.2760518773
 20
-1.5032143022
 10
9.2760518773
 20
-1.5032143022
 10
9.2763419687
 20
-1.5043021452
 10
9.2764144916
 20
-1.5055350339
 10
9.2764144916
 20
-1.5055350339
 10
9.2763419687
 20
-1.5063690469
 10
9.2760518773
 20
-1.5073118441
 10
9.2760518773
 20
-1.5073118441
 10
9.2756530015
 20
-1.5086897786
 10
9.2749640343
 20
-1.5097413601
 10
9.2739849756
 20
-1.5105028502
 10
9.2727520869
 20
-1.510901726
 10
9.2727520869
 20
-1.510901726
 10
9.2709752766
 20
-1.5101039745
 10
9.2696336036
 20
-1.5087623014
 10
9.2696336036
 20
-1.5087623014
 10
9.2498348613
 20
-1.4794630636
 10
9.2498348613
 20
-1.4794630636
 10
9.2104186837
 20
-1.4794630636
 10
9.2104186837
 20
-1.4794630636
 10
9.193194503
 20
-1.5041933609
 10
9.193194503
 20
-1.5041933609
 10
9.2758705701
 20
-1.6224418937
 10
9.2758705701
 20
-1.6224418937
 10
9.2762694459
 20
-1.6234209524
 10
9.2764144916
 20
-1.6247988868
 10
9.2764144916
 20
-1.6247988868
 10
9.2764144916
 20
-1.6253065469
 10
9.2764144916
 20
-1.6258504684
 10
9.2764144916
 20
-1.6258504684
 10
9.2770309359
 20
-1.6262130827
 10
9.2772485045
 20
-1.6264669127
 10
9.2770309359
 20
-1.6267207428
 10
9.2764144916
 20
-1.6268657885
 10
9.2764144916
 20
-1.6268657885
 10
9.2755079558
 20
-1.6284612915
 10
9.2755079558
 20
-1.6284612915
 10
9.2532071745
 20
-1.6602263068
 10
9.2532071745
 20
-1.6602263068
 10
9.2513578414
 20
-1.6604801368
 10
9.2513578414
 20
-1.6604801368
 10
9.2073364619
 20
-1.6604801368
 10
9.2073364619
 20
-1.6604801368
 10
9.2062486189
 20
-1.6595010781
 10
9.2062486189
 20
-1.6595010781
 10
9.1839478376
 20
-1.6295128731
 10
9.1839478376
 20
-1.6295128731
 10
9.1836940076
 20
-1.6281349386
 10
9.1835852233
 20
-1.6270470956
 10
9.1835852233
 20
-1.6270470956
 10
9.1836214847
 20
-1.6260317755
 10
9.1837665305
 20
-1.6253428083
 10
9.1837665305
 20
-1.6253428083
 10
9.1843467134
 20
-1.6240373967
 10
9.1851444649
 20
-1.6230220766
 10
9.1861235236
 20
-1.6223331094
 10
9.1873564123
 20
-1.6219342336
 10
9.1873564123
 20
-1.6219342336
 10
9.1890969611
 20
-1.6224418937
 10
9.1905474184
 20
-1.6239648738
 10
9.1905474184
 20
-1.6239648738
 10
9.2108900823
 20
-1.65119721
 10
9.2108900823
 20
-1.65119721
 10
9.2513578414
 20
-1.65119721
 10
9.2513578414
 20
-1.65119721
 10
9.2690534207
 20
-1.6264669127
 10
9.2690534207
 20
-1.6264669127
 10
9.1839478376
 20
-1.50847221
 10
9.1839478376
 20
-1.50847221
 10
9.1836940076
 20
-1.5074206284
 10
9.1835852233
 20
-1.5058613868
 10
9.1835852233
 20
-1.5058613868
 10
9.1836214847
 20
-1.5048823281
 10
9.1837665305
 20
-1.5040483152
 10
9.1837665305
 20
-1.5040483152
 10
9.1844917591
 20
-1.5021989821
 10
9.1844917591
 20
-1.5021989821
 10
9.2069375861
 20
-1.4706877969
 10
9.2069375861
 20
-1.4706877969
 10
9.2080254291
 20
-1.4701801368
 10
9.2080254291
 20
-1.4701801368
 10
9.2525182073
 20
-1.4704339668
 10
9.2525182073
 20
-1.4704339668
 10
9.2537873574
 20
-1.471703117
  0
LWPOLYLINE
  5
A7
330
1F
100
AcDbEntity
  8
0
  6
Continuous
 62
     7
100
AcDbPolyline
 90
       64
 70
   128
 43
0.0
 10
9.5359359201
 20
-1.4703977054
 10
9.5369528872
 20
-1.4707965812
 10
9.5377506387
 20
-1.4714855484
 10
9.5382945602
 20
-1.4725733914
 10
9.5385846516
 20
-1.4739513258
 10
9.5385846516
 20
-1.4739513258
 10
9.5383308216
 20
-1.476308319
 10
9.5375330701
 20
-1.4780488678
 10
9.5368441029
 20
-1.4786653121
 10
9.5358650442
 20
-1.4791004493
 10
9.5345233712
 20
-1.4793905408
 10
9.5328916067
 20
-1.4794630636
 10
9.5328916067
 20
-1.4794630636
 10
9.4504693696
 20
-1.4794630636
 10
9.4504693696
 20
-1.4794630636
 10
9.4504693696
 20
-1.5630094051
 10
9.4504693696
 20
-1.5630094051
 10
9.4918074032
 20
-1.5630094051
 10
9.4918074032
 20
-1.5630094051
 10
9.4931490762
 20
-1.5636983723
 10
9.4941281349
 20
-1.5646411696
 10
9.4947083178
 20
-1.5659103197
 10
9.494889625
 20
-1.5674332999
 10
9.494889625
 20
-1.5674332999
 10
9.4947083178
 20
-1.5691013258
 10
9.4942006577
 20
-1.5705517831
 10
9.4937292591
 20
-1.5711319661
 10
9.4930040305
 20
-1.5716396261
 10
9.4919524489
 20
-1.5720022405
 10
9.4906470373
 20
-1.5722923319
 10
9.4906470373
 20
-1.5722923319
 10
9.4504693696
 20
-1.5722923319
 10
9.4504693696
 20
-1.5722923319
 10
9.4504693696
 20
-1.65119721
 10
9.4504693696
 20
-1.65119721
 10
9.5353573841
 20
-1.65119721
 10
9.5353573841
 20
-1.65119721
 10
9.53677158
 20
-1.6517411315
 10
9.5377869001
 20
-1.6526839287
 10
9.5383670831
 20
-1.6540618632
 10
9.5385846516
 20
-1.6558386734
 10
9.5385846516
 20
-1.6558386734
 10
9.5383670831
 20
-1.657397915
 10
9.5377143773
 20
-1.6589571566
 10
9.5371704558
 20
-1.6596098624
 10
9.5364452271
 20
-1.660081261
 10
9.535429907
 20
-1.6603713525
 10
9.5342332797
 20
-1.6604801368
 10
9.5342332797
 20
-1.6604801368
 10
9.445972952
 20
-1.6604801368
 10
9.445972952
 20
-1.6604801368
 10
9.4444137103
 20
-1.6591022024
 10
9.4435071745
 20
-1.6571078235
 10
9.4435071745
 20
-1.6571078235
 10
9.4435071745
 20
-1.6519587001
 10
9.4435071745
 20
-1.6519587001
 10
9.4435071745
 20
-1.4738062801
 10
9.4435071745
 20
-1.4738062801
 10
9.4439423117
 20
-1.4726096528
 10
9.4445950175
 20
-1.4715943327
 10
9.4455378148
 20
-1.4707965812
 10
9.4466981806
 20
-1.4701801368
 10
9.4466981806
 20
-1.4701801368
 10
9.535937567
 20
-1.4703977054
  0
LWPOLYLINE
  5
A8
330
1F
100
AcDbEntity
  8
0
  6
Continuous
 62
     7
100
AcDbPolyline
 90
       55
 70
   128
 43
0.0
 10
9.6676011724
 20
-1.4715943327
 10
9.6680379672
 20
-1.4725371299
 10
9.6683643201
 20
-1.473878803
 10
9.6685456273
 20
-1.4756918746
 10
9.6686181501
 20
-1.4779400835
 10
9.6686181501
 20
-1.4779400835
 10
9.6686181501
 20
-1.6563463335
 10
9.6686181501
 20
-1.6563463335
 10
9.6682192744
 20
-1.6581594051
 10
9.6674940457
 20
-1.6594285553
 10
9.6664787256
 20
-1.6602263068
 10
9.6651370526
 20
-1.6604801368
 10
9.6651370526
 20
-1.6604801368
 10
9.6637591181
 20
-1.6601537839
 10
9.6626350137
 20
-1.6592472481
 10
9.661909785
 20
-1.6575792222
 10
9.661655955
 20
-1.6550046604
 10
9.661655955
 20
-1.6550046604
 10
9.661655955
 20
-1.6105844051
 10
9.661655955
 20
-1.6105844051
 10
9.6233638818
 20
-1.6602263068
 10
9.6233638818
 20
-1.6602263068
 10
9.6220222088
 20
-1.6604801368
 10
9.6220222088
 20
-1.6604801368
 10
9.5980534016
 20
-1.6604801368
 10
9.5980534016
 20
-1.6604801368
 10
9.5968930358
 20
-1.6594648167
 10
9.5968930358
 20
-1.6594648167
 10
9.5736494573
 20
-1.6278085857
 10
9.5736494573
 20
-1.6278085857
 10
9.5734681501
 20
-1.625234024
 10
9.5734681501
 20
-1.625234024
 10
9.5734681501
 20
-1.5639884638
 10
9.5734681501
 20
-1.5639884638
 10
9.5742296402
 20
-1.5621753921
 10
9.5742296402
 20
-1.5621753921
 10
9.5976545259
 20
-1.5310268213
 10
9.5976545259
 20
-1.5310268213
 10
9.5995763818
 20
-1.5305191612
 10
9.5995763818
 20
-1.5305191612
 10
9.6224210846
 20
-1.5307729912
 10
9.6224210846
 20
-1.5307729912
 10
9.6239440648
 20
-1.5315707428
 10
9.6239440648
 20
-1.5315707428
 10
9.661655955
 20
-1.583352069
 10
9.661655955
 20
-1.583352069
 10
9.661655955
 20
-1.4735887115
 10
9.661655955
 20
-1.4735887115
 10
9.6621273536
 20
-1.4722832999
 10
9.6627075366
 20
-1.4712679798
 10
9.6633965038
 20
-1.4705790126
 10
9.6641942553
 20
-1.4701801368
 10
9.6641942553
 20
-1.4701801368
 10
9.666261157
 20
-1.4705427511
 10
9.66760283
 20
-1.4715943327
  0
LWPOLYLINE
  5
A9
330
1F
100
AcDbEntity
  8
0
  6
Continuous
 62
     7
100
AcDbPolyline
 90
       14
 70
   128
 43
0.0
 10
9.6587543412
 20
-1.595499649
 10
9.618939987
 20
-1.539802088
 10
9.618939987
 20
-1.539802088
 10
9.6000477805
 20
-1.539802088
 10
9.6000477805
 20
-1.539802088
 10
9.5804303452
 20
-1.566853117
 10
9.5804303452
 20
-1.566853117
 10
9.5804303452
 20
-1.623892351
 10
9.5804303452
 20
-1.623892351
 10
9.6000477805
 20
-1.65119721
 10
9.6000477805
 20
-1.65119721
 10
9.6187224184
 20
-1.65119721
 10
9.6187224184
 20
-1.65119721
 10
9.6587550404
 20
-1.595499649
  0
LWPOLYLINE
  5
AA
330
1F
100
AcDbEntity
  8
0
  6
Continuous
 62
     7
100
AcDbPolyline
 90
       64
 70
   128
 43
0.0
 10
9.7092634111
 20
-1.5319696185
 10
9.7097748765
 20
-1.5329124158
 10
9.7101012294
 20
-1.5342540888
 10
9.710318798
 20
-1.5361034219
 10
9.7103913209
 20
-1.5383516307
 10
9.7103913209
 20
-1.5383516307
 10
9.7103913209
 20
-1.6243637496
 10
9.7103913209
 20
-1.6243637496
 10
9.7302625861
 20
-1.65119721
 10
9.7302625861
 20
-1.65119721
 10
9.7493723613
 20
-1.65119721
 10
9.7493723613
 20
-1.65119721
 10
9.7916169306
 20
-1.5938678845
 10
9.7916169306
 20
-1.5938678845
 10
9.7916169306
 20
-1.534435396
 10
9.7916169306
 20
-1.534435396
 10
9.7919795449
 20
-1.5331299844
 10
9.7925959893
 20
-1.5320058799
 10
9.7933937408
 20
-1.531171867
 10
9.7944453224
 20
-1.5305191612
 10
9.7944453224
 20
-1.5305191612
 10
9.7959683026
 20
-1.5308455141
 10
9.797600067
 20
-1.5317883113
 10
9.797600067
 20
-1.5317883113
 10
9.7980352042
 20
-1.53276737
 10
9.7983252957
 20
-1.5341815659
 10
9.7985066029
 20
-1.5359946376
 10
9.7985791257
 20
-1.5382428464
 10
9.7985791257
 20
-1.5382428464
 10
9.7985791257
 20
-1.6563463335
 10
9.7985791257
 20
-1.6563463335
 10
9.79818025
 20
-1.6581594051
 10
9.7974550213
 20
-1.6594285553
 10
9.7964397012
 20
-1.6602263068
 10
9.7950980282
 20
-1.6604801368
 10
9.7950980282
 20
-1.6604801368
 10
9.7937200937
 20
-1.6601537839
 10
9.7925959893
 20
-1.6592472481
 10
9.7918707606
 20
-1.6575792222
 10
9.7916169306
 20
-1.6550046604
 10
9.7916169306
 20
-1.6550046604
 10
9.7916169306
 20
-1.6105844051
 10
9.7916169306
 20
-1.6105844051
 10
9.7533248574
 20
-1.6602263068
 10
9.7533248574
 20
-1.6602263068
 10
9.7519831844
 20
-1.6604801368
 10
9.7519831844
 20
-1.6604801368
 10
9.7280143773
 20
-1.6604801368
 10
9.7280143773
 20
-1.6604801368
 10
9.7268540114
 20
-1.6594648167
 10
9.7268540114
 20
-1.6594648167
 10
9.7038280015
 20
-1.6278085857
 10
9.7038280015
 20
-1.6278085857
 10
9.7034291257
 20
-1.625234024
 10
9.7034291257
 20
-1.625234024
 10
9.7034291257
 20
-1.533855213
 10
9.7034291257
 20
-1.533855213
 10
9.7037917401
 20
-1.53276737
 10
9.704371923
 20
-1.5318608342
 10
9.7051334131
 20
-1.5310993441
 10
9.7061487332
 20
-1.5305191612
 10
9.7061487332
 20
-1.5305191612
 10
9.7079618048
 20
-1.5308817755
 10
9.7092672164
 20
-1.5319696185
  0
LWPOLYLINE
  5
AB
330
1F
100
AcDbEntity
  8
0
  6
Continuous
 62
     7
100
AcDbPolyline
 90
       54
 70
   128
 43
0.0
 10
9.9259943474
 20
-1.5307367298
 10
9.9274159969
 20
-1.5317157885
 10
9.9282500099
 20
-1.5333838144
 10
9.9282500099
 20
-1.5333838144
 10
9.9281049641
 20
-1.5361034219
 10
9.927669827
 20
-1.5380252778
 10
9.927669827
 20
-1.5380252778
 10
9.9269445983
 20
-1.5387867679
 10
9.9260380625
 20
-1.5393669508
 10
9.9249502195
 20
-1.5396933037
 10
9.9236810693
 20
-1.539802088
 10
9.9236810693
 20
-1.539802088
 10
9.8599334702
 20
-1.539802088
 10
9.8599334702
 20
-1.539802088
 10
9.8403522965
 20
-1.5670706856
 10
9.8403522965
 20
-1.5670706856
 10
9.8403522965
 20
-1.6239286124
 10
9.8403522965
 20
-1.6239286124
 10
9.8599697317
 20
-1.65119721
 10
9.8599697317
 20
-1.65119721
 10
9.9252403109
 20
-1.65119721
 10
9.9252403109
 20
-1.65119721
 10
9.9261105853
 20
-1.6514147786
 10
9.926835814
 20
-1.6519224386
 10
9.9274522584
 20
-1.6526476673
 10
9.9278873956
 20
-1.653626726
 10
9.9278873956
 20
-1.653626726
 10
9.9283225327
 20
-1.6547508304
 10
9.9284675785
 20
-1.6558386734
 10
9.9284675785
 20
-1.6558386734
 10
9.9282500099
 20
-1.657397915
 10
9.9275973041
 20
-1.6589571566
 10
9.9270533826
 20
-1.6596098624
 10
9.9263281539
 20
-1.660081261
 10
9.9253128338
 20
-1.6603713525
 10
9.9241162065
 20
-1.6604801368
 10
9.9241162065
 20
-1.6604801368
 10
9.8575402157
 20
-1.6604801368
 10
9.8575402157
 20
-1.6604801368
 10
9.8564161113
 20
-1.6594648167
 10
9.8564161113
 20
-1.6594648167
 10
9.8333901013
 20
-1.6278085857
 10
9.8333901013
 20
-1.6278085857
 10
9.8333901013
 20
-1.625234024
 10
9.8333901013
 20
-1.625234024
 10
9.8335714085
 20
-1.5639884638
 10
9.8335714085
 20
-1.5639884638
 10
9.8343328986
 20
-1.5621753921
 10
9.8343328986
 20
-1.5621753921
 10
9.8572863856
 20
-1.5310268213
 10
9.8572863856
 20
-1.5310268213
 10
9.8584104901
 20
-1.5305191612
 10
9.8584104901
 20
-1.5305191612
 10
9.926001801
 20
-1.5307367298
  0
LWPOLYLINE
  5
AC
330
1F
100
AcDbEntity
  8
0
  6
Continuous
 62
     7
100
AcDbPolyline
 90
       50
 70
   128
 43
0.0
 10
10.0123694563
 20
-1.5315344813
 10
10.0349311456
 20
-1.5631907123
 10
10.0349311456
 20
-1.5631907123
 10
10.0352937599
 20
-1.5647499539
 10
10.0352937599
 20
-1.5647499539
 10
10.0352937599
 20
-1.6229132923
 10
10.0352937599
 20
-1.6229132923
 10
10.0578483712
 20
-1.6525026216
 10
10.0578483712
 20
-1.6525026216
 10
10.0582835084
 20
-1.6543519546
 10
10.0584285541
 20
-1.6553310133
 10
10.0584285541
 20
-1.6553310133
 10
10.0583922927
 20
-1.6562375492
 10
10.0582472469
 20
-1.6568902549
 10
10.0582472469
 20
-1.6568902549
 10
10.0578121097
 20
-1.6581594051
 10
10.0572681882
 20
-1.6592109867
 10
10.056579221
 20
-1.6599724767
 10
10.0557814695
 20
-1.6604801368
 10
10.0557814695
 20
-1.6604801368
 10
10.0545123193
 20
-1.6604438754
 10
10.0534969992
 20
-1.6603713525
 10
10.0527355091
 20
-1.6602263068
 10
10.0522278491
 20
-1.6600087382
 10
10.0522278491
 20
-1.6600087382
 10
10.0326466753
 20
-1.6356773167
 10
10.0326466753
 20
-1.6356773167
 10
10.0126666257
 20
-1.6602625682
 10
10.0126666257
 20
-1.6602625682
 10
10.0113612141
 20
-1.6604801368
 10
10.0113612141
 20
-1.6604801368
 10
9.987646237
 20
-1.6604801368
 10
9.987646237
 20
-1.6604801368
 10
9.9865221326
 20
-1.6594648167
 10
9.9865221326
 20
-1.6594648167
 10
9.9635323841
 20
-1.6278085857
 10
9.9635323841
 20
-1.6278085857
 10
9.963351077
 20
-1.625234024
 10
9.963351077
 20
-1.625234024
 10
9.963351077
 20
-1.5639884638
 10
9.963351077
 20
-1.5639884638
 10
9.9640763056
 20
-1.5621753921
 10
9.9640763056
 20
-1.5621753921
 10
9.9868484855
 20
-1.5310268213
 10
9.9868484855
 20
-1.5310268213
 10
9.9879363285
 20
-1.5305191612
 10
9.9879363285
 20
-1.5305191612
 10
10.0108898155
 20
-1.5307729912
 10
10.0108898155
 20
-1.5307729912
 10
10.0123765343
 20
-1.5315344813
  0
LWPOLYLINE
  5
AD
330
1F
100
AcDbEntity
  8
0
  6
Continuous
 62
     7
100
AcDbPolyline
 90
       16
 70
   128
 43
0.0
 10
10.0283266052
 20
-1.567106947
 10
10.008750391
 20
-1.539802088
 10
10.008750391
 20
-1.539802088
 10
9.9898944459
 20
-1.539802088
 10
9.9898944459
 20
-1.539802088
 10
9.9703132721
 20
-1.566853117
 10
9.9703132721
 20
-1.566853117
 10
9.9703132721
 20
-1.623892351
 10
9.9703132721
 20
-1.623892351
 10
9.9898944459
 20
-1.65119721
 10
9.9898944459
 20
-1.65119721
 10
10.008750391
 20
-1.65119721
 10
10.008750391
 20
-1.65119721
 10
10.0283315648
 20
-1.6236022595
 10
10.0283315648
 20
-1.6236022595
 10
10.0283315648
 20
-1.567106947
  0
LWPOLYLINE
  5
AE
330
1F
100
AcDbEntity
  8
0
  6
Continuous
 62
     7
100
AcDbPolyline
 90
       83
 70
   128
 43
0.0
 10
10.1433494898
 20
-1.4716668556
 10
10.1437879672
 20
-1.4726459142
 10
10.1441143201
 20
-1.4740601101
 10
10.1442956273
 20
-1.4759457046
 10
10.1443681501
 20
-1.4783026978
 10
10.1443681501
 20
-1.4783026978
 10
10.1443681501
 20
-1.5328398929
 10
10.1443681501
 20
-1.5328398929
 10
10.1857424451
 20
-1.5328398929
 10
10.1857424451
 20
-1.5328398929
 10
10.1867577652
 20
-1.5334200758
 10
10.1875555167
 20
-1.5342540888
 10
10.1880994382
 20
-1.5353419318
 10
10.1883895297
 20
-1.5366836048
 10
10.1883895297
 20
-1.5366836048
 10
10.1880994382
 20
-1.5386417222
 10
10.1872291638
 20
-1.5404185324
 10
10.1865039352
 20
-1.5411800225
 10
10.1854886151
 20
-1.5416876825
 10
10.184146942
 20
-1.5420140354
 10
10.1824789161
 20
-1.5421228197
 10
10.1824789161
 20
-1.5421228197
 10
10.1443681501
 20
-1.5421228197
 10
10.1443681501
 20
-1.5421228197
 10
10.1443681501
 20
-1.6255603769
 10
10.1443681501
 20
-1.6255603769
 10
10.1623900823
 20
-1.6505082428
 10
10.1623900823
 20
-1.6505082428
 10
10.1825151776
 20
-1.6227319851
 10
10.1825151776
 20
-1.6227319851
 10
10.183385452
 20
-1.6221155408
 10
10.1844007721
 20
-1.6219342336
 10
10.1844007721
 20
-1.6219342336
 10
10.1857424451
 20
-1.6222968479
 10
10.1870478567
 20
-1.6234209524
 10
10.1880631768
 20
-1.6251252397
 10
10.1883895297
 20
-1.6273009257
 10
10.1883895297
 20
-1.6273009257
 10
10.1880269154
 20
-1.6297304417
 10
10.1880269154
 20
-1.6297304417
 10
10.1648558597
 20
-1.6600087382
 10
10.1648558597
 20
-1.6600087382
 10
10.1640581082
 20
-1.6603713525
 10
10.1627889581
 20
-1.6604801368
 10
10.1627889581
 20
-1.6604801368
 10
10.1613022393
 20
-1.6604801368
 10
10.1613022393
 20
-1.6604801368
 10
10.1599968277
 20
-1.6589571566
 10
10.1599968277
 20
-1.6589571566
 10
10.1375872622
 20
-1.6280261543
 10
10.1375872622
 20
-1.6280261543
 10
10.137405955
 20
-1.6254515926
 10
10.137405955
 20
-1.6254515926
 10
10.137405955
 20
-1.5421228197
 10
10.137405955
 20
-1.5421228197
 10
10.0965393201
 20
-1.5421228197
 10
10.0965393201
 20
-1.5421228197
 10
10.0957415686
 20
-1.5419415126
 10
10.0950163399
 20
-1.5414338525
 10
10.0943998956
 20
-1.5405635781
 10
10.0938922355
 20
-1.5393669508
 10
10.0938922355
 20
-1.5393669508
 10
10.0934570983
 20
-1.5377714478
 10
10.0933120526
 20
-1.5363209905
 10
10.0933120526
 20
-1.5363209905
 10
10.0935658826
 20
-1.5342178274
 10
10.0943636341
 20
-1.5323322328
 10
10.0950888628
 20
-1.5315344813
 10
10.0962492286
 20
-1.5309542984
 10
10.0978084702
 20
-1.5306279455
 10
10.0997665876
 20
-1.5305191612
 10
10.0997665876
 20
-1.5305191612
 10
10.137405955
 20
-1.5305191612
 10
10.137405955
 20
-1.5305191612
 10
10.137405955
 20
-1.4738425415
 10
10.137405955
 20
-1.4738425415
 10
10.1377685693
 20
-1.4724283456
 10
10.1383487523
 20
-1.4713405027
 10
10.1391102424
 20
-1.470615274
 10
10.1401255625
 20
-1.4701801368
 10
10.1401255625
 20
-1.4701801368
 10
10.1420474184
 20
-1.4705427511
 10
10.14335283
 20
-1.4716668556
  0
LWPOLYLINE
  5
AF
330
1F
100
AcDbEntity
  8
0
  6
Continuous
 62
     7
100
AcDbPolyline
 90
       27
 70
   128
 43
0.0
 10
10.2292177245
 20
-1.4715943327
 10
10.2296550404
 20
-1.4725008685
 10
10.2299813933
 20
-1.473878803
 10
10.2301627004
 20
-1.4756556132
 10
10.2302352233
 20
-1.477903822
 10
10.2302352233
 20
-1.477903822
 10
10.2302352233
 20
-1.5065140926
 10
10.2302352233
 20
-1.5065140926
 10
10.2295825175
 20
-1.5086535171
 10
10.2285671974
 20
-1.5098864059
 10
10.2275518773
 20
-1.5104665888
 10
10.2267541257
 20
-1.510647896
 10
10.2267541257
 20
-1.510647896
 10
10.2252311456
 20
-1.5103578045
 10
10.2241433026
 20
-1.509560053
 10
10.2234905968
 20
-1.5081821185
 10
10.2232730282
 20
-1.5062602626
 10
10.2232730282
 20
-1.5062602626
 10
10.2232730282
 20
-1.4738062801
 10
10.2232730282
 20
-1.4738062801
 10
10.2237081654
 20
-1.4723920842
 10
10.2243246097
 20
-1.4713405027
 10
10.2251223613
 20
-1.4705790126
 10
10.2261014199
 20
-1.4701801368
 10
10.2261014199
 20
-1.4701801368
 10
10.227950753
 20
-1.4705427511
 10
10.2292199032
 20
-1.4715943327
  0
LWPOLYLINE
  5
B0
330
1F
100
AcDbEntity
  8
0
  6
Continuous
 62
     7
100
AcDbPolyline
 90
       30
 70
   128
 43
0.0
 10
10.2291426321
 20
-1.5319333571
 10
10.2296187789
 20
-1.5328398929
 10
10.2299813933
 20
-1.5342178274
 10
10.2301627004
 20
-1.5359946376
 10
10.2302352233
 20
-1.5382428464
 10
10.2302352233
 20
-1.5382428464
 10
10.2302352233
 20
-1.6563463335
 10
10.2302352233
 20
-1.6563463335
 10
10.2296913018
 20
-1.6582681894
 10
10.2284221516
 20
-1.6599724767
 10
10.2284221516
 20
-1.6599724767
 10
10.2277694459
 20
-1.6603350911
 10
10.2267541257
 20
-1.6604801368
 10
10.2267541257
 20
-1.6604801368
 10
10.225267407
 20
-1.6601900453
 10
10.224179564
 20
-1.659319771
 10
10.2237806882
 20
-1.6585945423
 10
10.2234905968
 20
-1.6576154836
 10
10.223345551
 20
-1.6563463335
 10
10.2232730282
 20
-1.6548233533
 10
10.2232730282
 20
-1.6548233533
 10
10.2232730282
 20
-1.5343628731
 10
10.2232730282
 20
-1.5343628731
 10
10.2236356425
 20
-1.5330574615
 10
10.2242520869
 20
-1.5319696185
 10
10.2250498384
 20
-1.5311356056
 10
10.2261014199
 20
-1.5305191612
 10
10.2261014199
 20
-1.5305191612
 10
10.2278782302
 20
-1.5308817755
 10
10.2291473803
 20
-1.5319333571
  0
LWPOLYLINE
  5
B1
330
1F
100
AcDbEntity
  8
0
  6
Continuous
 62
     7
100
AcDbPolyline
 90
       32
 70
   128
 43
0.0
 10
10.3393408257
 20
-1.5317883113
 10
10.3621543163
 20
-1.5634445423
 10
10.3621543163
 20
-1.5634445423
 10
10.3625169306
 20
-1.565765274
 10
10.3625169306
 20
-1.565765274
 10
10.3625169306
 20
-1.6267570042
 10
10.3625169306
 20
-1.6267570042
 10
10.3617554405
 20
-1.6288239059
 10
10.3617554405
 20
-1.6288239059
 10
10.3385843849
 20
-1.6602263068
 10
10.3385843849
 20
-1.6602263068
 10
10.3366987904
 20
-1.6604801368
 10
10.3366987904
 20
-1.6604801368
 10
10.2916620907
 20
-1.6604801368
 10
10.2916620907
 20
-1.6604801368
 10
10.2905379863
 20
-1.6594648167
 10
10.2905379863
 20
-1.6594648167
 10
10.2675482378
 20
-1.6278085857
 10
10.2675482378
 20
-1.6278085857
 10
10.2673669306
 20
-1.625234024
 10
10.2673669306
 20
-1.625234024
 10
10.2673669306
 20
-1.5639884638
 10
10.2673669306
 20
-1.5639884638
 10
10.2681284207
 20
-1.5621753921
 10
10.2681284207
 20
-1.5621753921
 10
10.2912994763
 20
-1.5310268213
 10
10.2912994763
 20
-1.5310268213
 10
10.2924235808
 20
-1.5305191612
 10
10.2924235808
 20
-1.5305191612
 10
10.3380404634
 20
-1.5307729912
 10
10.3380404634
 20
-1.5307729912
 10
10.339345875
 20
-1.5317883113
  0
LWPOLYLINE
  5
B2
330
1F
100
AcDbEntity
  8
0
  6
Continuous
 62
     7
100
AcDbPolyline
 90
       16
 70
   128
 43
0.0
 10
10.3555514118
 20
-1.567106947
 10
10.3356834702
 20
-1.539802088
 10
10.3356834702
 20
-1.539802088
 10
10.294200391
 20
-1.539802088
 10
10.294200391
 20
-1.539802088
 10
10.2743291257
 20
-1.566853117
 10
10.2743291257
 20
-1.566853117
 10
10.2743291257
 20
-1.623892351
 10
10.2743291257
 20
-1.623892351
 10
10.294200391
 20
-1.65119721
 10
10.294200391
 20
-1.65119721
 10
10.3356834702
 20
-1.65119721
 10
10.3356834702
 20
-1.65119721
 10
10.3555547355
 20
-1.6236022595
 10
10.3555547355
 20
-1.6236022595
 10
10.3555547355
 20
-1.567106947
  0
LWPOLYLINE
  5
B3
330
1F
100
AcDbEntity
  8
0
  6
Continuous
 62
     7
100
AcDbPolyline
 90
       61
 70
   128
 43
0.0
 10
10.4690442874
 20
-1.5317883113
 10
10.4920790305
 20
-1.5634445423
 10
10.4920790305
 20
-1.5634445423
 10
10.4924779062
 20
-1.565765274
 10
10.4924779062
 20
-1.565765274
 10
10.4924779062
 20
-1.6563463335
 10
10.4924779062
 20
-1.6563463335
 10
10.4920790305
 20
-1.6581594051
 10
10.4913538018
 20
-1.6594285553
 10
10.4903384817
 20
-1.6602263068
 10
10.4889968087
 20
-1.6604801368
 10
10.4889968087
 20
-1.6604801368
 10
10.4876188742
 20
-1.6601537839
 10
10.4864947698
 20
-1.6591747252
 10
10.4857695411
 20
-1.657397915
 10
10.4855157111
 20
-1.6547508304
 10
10.4855157111
 20
-1.6547508304
 10
10.4855157111
 20
-1.5669256399
 10
10.4855157111
 20
-1.5669256399
 10
10.4656444459
 20
-1.539802088
 10
10.4656444459
 20
-1.539802088
 10
10.4465346707
 20
-1.539802088
 10
10.4465346707
 20
-1.539802088
 10
10.4042901013
 20
-1.5968775835
 10
10.4042901013
 20
-1.5968775835
 10
10.4042901013
 20
-1.656310072
 10
10.4042901013
 20
-1.656310072
 10
10.4037461798
 20
-1.6582681894
 10
10.4024770297
 20
-1.6599724767
 10
10.4024770297
 20
-1.6599724767
 10
10.4018243239
 20
-1.6603350911
 10
10.4008090038
 20
-1.6604801368
 10
10.4008090038
 20
-1.6604801368
 10
10.399322285
 20
-1.6601900453
 10
10.398234442
 20
-1.659319771
 10
10.3978355663
 20
-1.6585945423
 10
10.3975454748
 20
-1.6576154836
 10
10.3974004291
 20
-1.6563463335
 10
10.3973279062
 20
-1.6548233533
 10
10.3973279062
 20
-1.6548233533
 10
10.3973279062
 20
-1.5341453045
 10
10.3973279062
 20
-1.5341453045
 10
10.3976905206
 20
-1.5327311086
 10
10.3983432263
 20
-1.5316795271
 10
10.3991772393
 20
-1.530918037
 10
10.4003013437
 20
-1.5305191612
 10
10.4003013437
 20
-1.5305191612
 10
10.4018605853
 20
-1.5308455141
 10
10.4031297355
 20
-1.5318608342
 10
10.4036373956
 20
-1.5327311086
 10
10.4040000099
 20
-1.5340727816
 10
10.4042175785
 20
-1.5358858533
 10
10.4042901013
 20
-1.5381703235
 10
10.4042901013
 20
-1.5381703235
 10
10.4042901013
 20
-1.5830619775
 10
10.4042901013
 20
-1.5830619775
 10
10.4437062789
 20
-1.5305191612
 10
10.4437062789
 20
-1.5305191612
 10
10.4677113475
 20
-1.5307729912
 10
10.4677113475
 20
-1.5307729912
 10
10.4690530206
 20
-1.5317883113
  0
LWPOLYLINE
  5
B4
330
1F
100
AcDbEntity
  8
0
  6
Continuous
 62
     7
100
AcDbPolyline
 90
       50
 70
   128
 43
0.0
 10
10.5763138749
 20
-1.5315344813
 10
10.5988689504
 20
-1.5631907123
 10
10.5988689504
 20
-1.5631907123
 10
10.5992315648
 20
-1.5647499539
 10
10.5992315648
 20
-1.5647499539
 10
10.5992315648
 20
-1.6229132923
 10
10.5992315648
 20
-1.6229132923
 10
10.621786176
 20
-1.6525026216
 10
10.621786176
 20
-1.6525026216
 10
10.6222213132
 20
-1.6543519546
 10
10.622366359
 20
-1.6553310133
 10
10.622366359
 20
-1.6553310133
 10
10.6223300975
 20
-1.6562375492
 10
10.6221850518
 20
-1.6568902549
 10
10.6221850518
 20
-1.6568902549
 10
10.6217499146
 20
-1.6581594051
 10
10.6212059931
 20
-1.6592109867
 10
10.6205170259
 20
-1.6599724767
 10
10.6197192744
 20
-1.6604801368
 10
10.6197192744
 20
-1.6604801368
 10
10.6184501242
 20
-1.6604438754
 10
10.6174348041
 20
-1.6603713525
 10
10.616673314
 20
-1.6602263068
 10
10.6161656539
 20
-1.6600087382
 10
10.6161656539
 20
-1.6600087382
 10
10.5965844802
 20
-1.6356773167
 10
10.5965844802
 20
-1.6356773167
 10
10.5766044306
 20
-1.6602625682
 10
10.5766044306
 20
-1.6602625682
 10
10.575299019
 20
-1.6604801368
 10
10.575299019
 20
-1.6604801368
 10
10.5515840419
 20
-1.6604801368
 10
10.5515840419
 20
-1.6604801368
 10
10.5504599375
 20
-1.6594648167
 10
10.5504599375
 20
-1.6594648167
 10
10.527470189
 20
-1.6278085857
 10
10.527470189
 20
-1.6278085857
 10
10.5272888818
 20
-1.625234024
 10
10.5272888818
 20
-1.625234024
 10
10.5272888818
 20
-1.5639884638
 10
10.5272888818
 20
-1.5639884638
 10
10.5280141105
 20
-1.5621753921
 10
10.5280141105
 20
-1.5621753921
 10
10.5507862904
 20
-1.5310268213
 10
10.5507862904
 20
-1.5310268213
 10
10.5518741334
 20
-1.5305191612
 10
10.5518741334
 20
-1.5305191612
 10
10.5748276204
 20
-1.5307729912
 10
10.5748276204
 20
-1.5307729912
 10
10.5763143391
 20
-1.5315344813
  0
LWPOLYLINE
  5
B5
330
1F
100
AcDbEntity
  8
0
  6
Continuous
 62
     7
100
AcDbPolyline
 90
       16
 70
   128
 43
0.0
 10
10.5922616373
 20
-1.567106947
 10
10.5726881959
 20
-1.539802088
 10
10.5726881959
 20
-1.539802088
 10
10.5538322507
 20
-1.539802088
 10
10.5538322507
 20
-1.539802088
 10
10.534251077
 20
-1.566853117
 10
10.534251077
 20
-1.566853117
 10
10.534251077
 20
-1.623892351
 10
10.534251077
 20
-1.623892351
 10
10.5538322507
 20
-1.65119721
 10
10.5538322507
 20
-1.65119721
 10
10.5726881959
 20
-1.65119721
 10
10.5726881959
 20
-1.65119721
 10
10.5922693696
 20
-1.6236022595
 10
10.5922693696
 20
-1.6236022595
 10
10.5922693696
 20
-1.567106947
  0
LWPOLYLINE
  5
B6
330
1F
100
AcDbEntity
  8
0
  6
Continuous
 62
     7
100
AcDbPolyline
 90
       33
 70
   128
 43
0.0
 10
10.6631958579
 20
-1.4715943327
 10
10.6636318696
 20
-1.4725371299
 10
10.6639582225
 20
-1.473878803
 10
10.6641395297
 20
-1.4756918746
 10
10.6642120526
 20
-1.4779400835
 10
10.6642120526
 20
-1.4779400835
 10
10.6642120526
 20
-1.6229858152
 10
10.6642120526
 20
-1.6229858152
 10
10.6864040495
 20
-1.6524663601
 10
10.6864040495
 20
-1.6524663601
 10
10.6868391867
 20
-1.6537717717
 10
10.6869842324
 20
-1.6550409219
 10
10.6869842324
 20
-1.6550409219
 10
10.6867304024
 20
-1.6569990392
 10
10.6859326509
 20
-1.6588121109
 10
10.6846635007
 20
-1.6600449996
 10
10.6828504291
 20
-1.6604801368
 10
10.6828504291
 20
-1.6604801368
 10
10.6811461417
 20
-1.6602263068
 10
10.6811461417
 20
-1.6602263068
 10
10.6578300404
 20
-1.6281712001
 10
10.6578300404
 20
-1.6281712001
 10
10.6572498574
 20
-1.6261042984
 10
10.6572498574
 20
-1.6261042984
 10
10.6572498574
 20
-1.4738062801
 10
10.6572498574
 20
-1.4738062801
 10
10.6576849946
 20
-1.4723920842
 10
10.658301439
 20
-1.4713405027
 10
10.6590991905
 20
-1.4705790126
 10
10.6600782492
 20
-1.4701801368
 10
10.6600782492
 20
-1.4701801368
 10
10.6619275823
 20
-1.4705427511
 10
10.6631967324
 20
-1.4715943327
  0
LWPOLYLINE
  5
B7
330
1F
100
AcDbEntity
  8
0
  6
Continuous
 62
     7
100
AcDbPolyline
 90
       43
 70
   128
 43
0.0
 10
10.9241609498
 20
-1.4717393784
 10
10.9469787065
 20
-1.5036857008
 10
10.9469787065
 20
-1.5036857008
 10
10.9473413209
 20
-1.506042694
 10
10.9473413209
 20
-1.506042694
 10
10.9473413209
 20
-1.5377351863
 10
10.9473413209
 20
-1.5377351863
 10
10.9469424451
 20
-1.539548258
 10
10.9469424451
 20
-1.539548258
 10
10.9232999908
 20
-1.5714945804
 10
10.9232999908
 20
-1.5714945804
 10
10.921559442
 20
-1.5722923319
 10
10.921559442
 20
-1.5722923319
 10
10.859153516
 20
-1.5722923319
 10
10.859153516
 20
-1.5722923319
 10
10.859153516
 20
-1.6561650263
 10
10.859153516
 20
-1.6561650263
 10
10.8585370716
 20
-1.6582681894
 10
10.8573404443
 20
-1.6599724767
 10
10.8573404443
 20
-1.6599724767
 10
10.8566877385
 20
-1.6603350911
 10
10.8556724184
 20
-1.6604801368
 10
10.8556724184
 20
-1.6604801368
 10
10.8541856997
 20
-1.6601900453
 10
10.8530978567
 20
-1.659319771
 10
10.8526989809
 20
-1.6585945423
 10
10.8524088895
 20
-1.6576154836
 10
10.8522638437
 20
-1.6563463335
 10
10.8521913209
 20
-1.6547870918
 10
10.8521913209
 20
-1.6547870918
 10
10.8521913209
 20
-1.4740601101
 10
10.8521913209
 20
-1.4740601101
 10
10.8525539352
 20
-1.4728997443
 10
10.8530978567
 20
-1.4719206856
 10
10.8537868239
 20
-1.4711954569
 10
10.8546570983
 20
-1.4706877969
 10
10.8546570983
 20
-1.4706877969
 10
10.8586095945
 20
-1.4704339668
 10
10.8586095945
 20
-1.4704339668
 10
10.9211605663
 20
-1.4701801368
 10
10.9211605663
 20
-1.4701801368
 10
10.9229373765
 20
-1.4705790126
 10
10.9241702652
 20
-1.4717393784
  0
LWPOLYLINE
  5
B8
330
1F
100
AcDbEntity
  8
0
  6
Continuous
 62
     7
100
AcDbPolyline
 90
       12
 70
   128
 43
0.0
 10
10.9403715359
 20
-1.5077832428
 10
10.9205078605
 20
-1.4794630636
 10
10.9205078605
 20
-1.4794630636
 10
10.859153516
 20
-1.4794630636
 10
10.859153516
 20
-1.4794630636
 10
10.859153516
 20
-1.5630094051
 10
10.859153516
 20
-1.5630094051
 10
10.9203265533
 20
-1.5630094051
 10
10.9203265533
 20
-1.5630094051
 10
10.9403791257
 20
-1.534689226
 10
10.9403791257
 20
-1.534689226
 10
10.9403791257
 20
-1.5077832428
  0
LWPOLYLINE
  5
B9
330
1F
100
AcDbEntity
  8
0
  6
Continuous
 62
     7
100
AcDbPolyline
 90
       59
 70
   128
 43
0.0
 10
11.0537987056
 20
-1.5318245728
 10
11.0768671593
 20
-1.5640972481
 10
11.0768671593
 20
-1.5640972481
 10
11.0771572507
 20
-1.5654751825
 10
11.0772297736
 20
-1.5664542412
 10
11.0772297736
 20
-1.5664542412
 10
11.0771935122
 20
-1.5675783456
 10
11.0770484664
 20
-1.5683035743
 10
11.0770484664
 20
-1.5683035743
 10
11.0764682835
 20
-1.5697177702
 10
11.075670532
 20
-1.5708056132
 10
11.0746552119
 20
-1.5715308418
 10
11.0734223231
 20
-1.571965979
 10
11.0734223231
 20
-1.571965979
 10
11.0716817744
 20
-1.571458319
 10
11.0701950556
 20
-1.5700078617
 10
11.0701950556
 20
-1.5700078617
 10
11.0496348231
 20
-1.539802088
 10
11.0496348231
 20
-1.539802088
 10
11.030778878
 20
-1.539802088
 10
11.030778878
 20
-1.539802088
 10
10.9891144916
 20
-1.5968775835
 10
10.9891144916
 20
-1.5968775835
 10
10.9891144916
 20
-1.656310072
 10
10.9891144916
 20
-1.656310072
 10
10.9885705701
 20
-1.6582681894
 10
10.9873014199
 20
-1.6599724767
 10
10.9873014199
 20
-1.6599724767
 10
10.9866487141
 20
-1.6603350911
 10
10.985633394
 20
-1.6604801368
 10
10.985633394
 20
-1.6604801368
 10
10.9841466753
 20
-1.6601900453
 10
10.9830588323
 20
-1.659319771
 10
10.9826599565
 20
-1.6585945423
 10
10.9823698651
 20
-1.6576154836
 10
10.9822248193
 20
-1.6563463335
 10
10.9821522965
 20
-1.6548233533
 10
10.9821522965
 20
-1.6548233533
 10
10.9821522965
 20
-1.5341453045
 10
10.9821522965
 20
-1.5341453045
 10
10.9825149108
 20
-1.5327311086
 10
10.9831676166
 20
-1.5316795271
 10
10.9840016295
 20
-1.530918037
 10
10.985125734
 20
-1.5305191612
 10
10.985125734
 20
-1.5305191612
 10
10.9866849756
 20
-1.5308455141
 10
10.9879541257
 20
-1.5318608342
 10
10.9884617858
 20
-1.5327311086
 10
10.9888244001
 20
-1.5340727816
 10
10.9890419687
 20
-1.5358858533
 10
10.9891144916
 20
-1.5381703235
 10
10.9891144916
 20
-1.5381703235
 10
10.9891144916
 20
-1.5830619775
 10
10.9891144916
 20
-1.5830619775
 10
11.0284944077
 20
-1.5305191612
 10
11.0284944077
 20
-1.5305191612
 10
11.0524994763
 20
-1.5307729912
 10
11.0524994763
 20
-1.5307729912
 10
11.0538048879
 20
-1.5318245728
  0
LWPOLYLINE
  5
BA
330
1F
100
AcDbEntity
  8
0
  6
Continuous
 62
     7
100
AcDbPolyline
 90
       32
 70
   128
 43
0.0
 10
11.1840841338
 20
-1.5317883113
 10
11.2069006577
 20
-1.5634445423
 10
11.2069006577
 20
-1.5634445423
 10
11.2072632721
 20
-1.565765274
 10
11.2072632721
 20
-1.565765274
 10
11.2072632721
 20
-1.6267570042
 10
11.2072632721
 20
-1.6267570042
 10
11.206501782
 20
-1.6288239059
 10
11.206501782
 20
-1.6288239059
 10
11.1833307263
 20
-1.6602263068
 10
11.1833307263
 20
-1.6602263068
 10
11.1814451318
 20
-1.6604801368
 10
11.1814451318
 20
-1.6604801368
 10
11.1364084321
 20
-1.6604801368
 10
11.1364084321
 20
-1.6604801368
 10
11.1352843277
 20
-1.6594648167
 10
11.1352843277
 20
-1.6594648167
 10
11.1122945792
 20
-1.6278085857
 10
11.1122945792
 20
-1.6278085857
 10
11.1121132721
 20
-1.625234024
 10
11.1121132721
 20
-1.625234024
 10
11.1121132721
 20
-1.5639884638
 10
11.1121132721
 20
-1.5639884638
 10
11.1128747622
 20
-1.5621753921
 10
11.1128747622
 20
-1.5621753921
 10
11.1360458178
 20
-1.5310268213
 10
11.1360458178
 20
-1.5310268213
 10
11.1371699222
 20
-1.5305191612
 10
11.1371699222
 20
-1.5305191612
 10
11.1827868048
 20
-1.5307729912
 10
11.1827868048
 20
-1.5307729912
 10
11.1840922164
 20
-1.5317883113
  0
LWPOLYLINE
  5
BB
330
1F
100
AcDbEntity
  8
0
  6
Continuous
 62
     7
100
AcDbPolyline
 90
       16
 70
   128
 43
0.0
 10
11.2002947199
 20
-1.567106947
 10
11.1804298117
 20
-1.539802088
 10
11.1804298117
 20
-1.539802088
 10
11.1389467324
 20
-1.539802088
 10
11.1389467324
 20
-1.539802088
 10
11.1190754672
 20
-1.566853117
 10
11.1190754672
 20
-1.566853117
 10
11.1190754672
 20
-1.623892351
 10
11.1190754672
 20
-1.623892351
 10
11.1389467324
 20
-1.65119721
 10
11.1389467324
 20
-1.65119721
 10
11.1804298117
 20
-1.65119721
 10
11.1804298117
 20
-1.65119721
 10
11.200301077
 20
-1.6236022595
 10
11.200301077
 20
-1.6236022595
 10
11.200301077
 20
-1.567106947
  0
LWPOLYLINE
  5
BC
330
1F
100
AcDbEntity
  8
0
  6
Continuous
 62
     7
100
AcDbPolyline
 90
       55
 70
   128
 43
0.0
 10
11.3362026966
 20
-1.4715943327
 10
11.3366440648
 20
-1.4725371299
 10
11.3369704177
 20
-1.473878803
 10
11.3371517248
 20
-1.4756918746
 10
11.3372242477
 20
-1.4779400835
 10
11.3372242477
 20
-1.4779400835
 10
11.3372242477
 20
-1.6563463335
 10
11.3372242477
 20
-1.6563463335
 10
11.3368253719
 20
-1.6581594051
 10
11.3361001433
 20
-1.6594285553
 10
11.3350848231
 20
-1.6602263068
 10
11.3337431501
 20
-1.6604801368
 10
11.3337431501
 20
-1.6604801368
 10
11.3323652157
 20
-1.6601537839
 10
11.3312411113
 20
-1.6592472481
 10
11.3305158826
 20
-1.6575792222
 10
11.3302620526
 20
-1.6550046604
 10
11.3302620526
 20
-1.6550046604
 10
11.3302620526
 20
-1.6105844051
 10
11.3302620526
 20
-1.6105844051
 10
11.2919699794
 20
-1.6602263068
 10
11.2919699794
 20
-1.6602263068
 10
11.2906283064
 20
-1.6604801368
 10
11.2906283064
 20
-1.6604801368
 10
11.2666594992
 20
-1.6604801368
 10
11.2666594992
 20
-1.6604801368
 10
11.2654991334
 20
-1.6594648167
 10
11.2654991334
 20
-1.6594648167
 10
11.2422555548
 20
-1.6278085857
 10
11.2422555548
 20
-1.6278085857
 10
11.2420742477
 20
-1.625234024
 10
11.2420742477
 20
-1.625234024
 10
11.2420742477
 20
-1.5639884638
 10
11.2420742477
 20
-1.5639884638
 10
11.2428357378
 20
-1.5621753921
 10
11.2428357378
 20
-1.5621753921
 10
11.2662606234
 20
-1.5310268213
 10
11.2662606234
 20
-1.5310268213
 10
11.2681824794
 20
-1.5305191612
 10
11.2681824794
 20
-1.5305191612
 10
11.2910271821
 20
-1.5307729912
 10
11.2910271821
 20
-1.5307729912
 10
11.2925501623
 20
-1.5315707428
 10
11.2925501623
 20
-1.5315707428
 10
11.3302620526
 20
-1.583352069
 10
11.3302620526
 20
-1.583352069
 10
11.3302620526
 20
-1.4735887115
 10
11.3302620526
 20
-1.4735887115
 10
11.3307334512
 20
-1.4722832999
 10
11.3313136341
 20
-1.4712679798
 10
11.3320026013
 20
-1.4705790126
 10
11.3328003529
 20
-1.4701801368
 10
11.3328003529
 20
-1.4701801368
 10
11.3348672545
 20
-1.4705427511
 10
11.3362089276
 20
-1.4715943327
  0
LWPOLYLINE
  5
BD
330
1F
100
AcDbEntity
  8
0
  6
Continuous
 62
     7
100
AcDbPolyline
 90
       14
 70
   128
 43
0.0
 10
11.3273605587
 20
-1.595499649
 10
11.2875460846
 20
-1.539802088
 10
11.2875460846
 20
-1.539802088
 10
11.268653878
 20
-1.539802088
 10
11.268653878
 20
-1.539802088
 10
11.2490364428
 20
-1.566853117
 10
11.2490364428
 20
-1.566853117
 10
11.2490364428
 20
-1.623892351
 10
11.2490364428
 20
-1.623892351
 10
11.268653878
 20
-1.65119721
 10
11.268653878
 20
-1.65119721
 10
11.287328516
 20
-1.65119721
 10
11.287328516
 20
-1.65119721
 10
11.3273611379
 20
-1.595499649
  0
LWPOLYLINE
  5
BE
330
1F
100
AcDbEntity
  8
0
  6
Continuous
 62
     7
100
AcDbPolyline
 90
       64
 70
   128
 43
0.0
 10
11.3778696285
 20
-1.5319696185
 10
11.3783809741
 20
-1.5329124158
 10
11.378707327
 20
-1.5342540888
 10
11.3789248956
 20
-1.5361034219
 10
11.3789974184
 20
-1.5383516307
 10
11.3789974184
 20
-1.5383516307
 10
11.3789974184
 20
-1.6243637496
 10
11.3789974184
 20
-1.6243637496
 10
11.3988686837
 20
-1.65119721
 10
11.3988686837
 20
-1.65119721
 10
11.4179784588
 20
-1.65119721
 10
11.4179784588
 20
-1.65119721
 10
11.4602230282
 20
-1.5938678845
 10
11.4602230282
 20
-1.5938678845
 10
11.4602230282
 20
-1.534435396
 10
11.4602230282
 20
-1.534435396
 10
11.4605856425
 20
-1.5331299844
 10
11.4612020869
 20
-1.5320058799
 10
11.4619998384
 20
-1.531171867
 10
11.4630514199
 20
-1.5305191612
 10
11.4630514199
 20
-1.5305191612
 10
11.4645744001
 20
-1.5308455141
 10
11.4662061646
 20
-1.5317883113
 10
11.4662061646
 20
-1.5317883113
 10
11.4666413018
 20
-1.53276737
 10
11.4669313933
 20
-1.5341815659
 10
11.4671127004
 20
-1.5359946376
 10
11.4671852233
 20
-1.5382428464
 10
11.4671852233
 20
-1.5382428464
 10
11.4671852233
 20
-1.6563463335
 10
11.4671852233
 20
-1.6563463335
 10
11.4667863475
 20
-1.6581594051
 10
11.4660611189
 20
-1.6594285553
 10
11.4650457988
 20
-1.6602263068
 10
11.4637041257
 20
-1.6604801368
 10
11.4637041257
 20
-1.6604801368
 10
11.4623261913
 20
-1.6601537839
 10
11.4612020869
 20
-1.6592472481
 10
11.4604768582
 20
-1.6575792222
 10
11.4602230282
 20
-1.6550046604
 10
11.4602230282
 20
-1.6550046604
 10
11.4602230282
 20
-1.6105844051
 10
11.4602230282
 20
-1.6105844051
 10
11.421930955
 20
-1.6602263068
 10
11.421930955
 20
-1.6602263068
 10
11.420589282
 20
-1.6604801368
 10
11.420589282
 20
-1.6604801368
 10
11.3966204748
 20
-1.6604801368
 10
11.3966204748
 20
-1.6604801368
 10
11.395460109
 20
-1.6594648167
 10
11.395460109
 20
-1.6594648167
 10
11.3724340991
 20
-1.6278085857
 10
11.3724340991
 20
-1.6278085857
 10
11.3720352233
 20
-1.625234024
 10
11.3720352233
 20
-1.625234024
 10
11.3720352233
 20
-1.533855213
 10
11.3720352233
 20
-1.533855213
 10
11.3723978376
 20
-1.53276737
 10
11.3729780206
 20
-1.5318608342
 10
11.3737395106
 20
-1.5310993441
 10
11.3747548308
 20
-1.5305191612
 10
11.3747548308
 20
-1.5305191612
 10
11.3765679024
 20
-1.5308817755
 10
11.377873314
 20
-1.5319696185
  0
LWPOLYLINE
  5
BF
330
1F
100
AcDbEntity
  8
0
  6
Continuous
 62
     7
100
AcDbPolyline
 90
       54
 70
   128
 43
0.0
 10
11.5946052581
 20
-1.5307367298
 10
11.5960220945
 20
-1.5317157885
 10
11.5968561074
 20
-1.5333838144
 10
11.5968561074
 20
-1.5333838144
 10
11.5967110617
 20
-1.5361034219
 10
11.5962759245
 20
-1.5380252778
 10
11.5962759245
 20
-1.5380252778
 10
11.5955506959
 20
-1.5387867679
 10
11.59464416
 20
-1.5393669508
 10
11.593556317
 20
-1.5396933037
 10
11.5922871669
 20
-1.539802088
 10
11.5922871669
 20
-1.539802088
 10
11.5285395678
 20
-1.539802088
 10
11.5285395678
 20
-1.539802088
 10
11.508958394
 20
-1.5670706856
 10
11.508958394
 20
-1.5670706856
 10
11.508958394
 20
-1.6239286124
 10
11.508958394
 20
-1.6239286124
 10
11.5285758292
 20
-1.65119721
 10
11.5285758292
 20
-1.65119721
 10
11.5938464085
 20
-1.65119721
 10
11.5938464085
 20
-1.65119721
 10
11.5947166829
 20
-1.6514147786
 10
11.5954419116
 20
-1.6519224386
 10
11.5960583559
 20
-1.6526476673
 10
11.5964934931
 20
-1.653626726
 10
11.5964934931
 20
-1.653626726
 10
11.5969286303
 20
-1.6547508304
 10
11.597073676
 20
-1.6558386734
 10
11.597073676
 20
-1.6558386734
 10
11.5968561074
 20
-1.657397915
 10
11.5962034016
 20
-1.6589571566
 10
11.5956594802
 20
-1.6596098624
 10
11.5949342515
 20
-1.660081261
 10
11.5939189314
 20
-1.6603713525
 10
11.5927223041
 20
-1.6604801368
 10
11.5927223041
 20
-1.6604801368
 10
11.5261463132
 20
-1.6604801368
 10
11.5261463132
 20
-1.6604801368
 10
11.5250222088
 20
-1.6594648167
 10
11.5250222088
 20
-1.6594648167
 10
11.5019961989
 20
-1.6278085857
 10
11.5019961989
 20
-1.6278085857
 10
11.5019961989
 20
-1.625234024
 10
11.5019961989
 20
-1.625234024
 10
11.5021775061
 20
-1.5639884638
 10
11.5021775061
 20
-1.5639884638
 10
11.5029389962
 20
-1.5621753921
 10
11.5029389962
 20
-1.5621753921
 10
11.5258924832
 20
-1.5310268213
 10
11.5258924832
 20
-1.5310268213
 10
11.5270165876
 20
-1.5305191612
 10
11.5270165876
 20
-1.5305191612
 10
11.5946078986
 20
-1.5307367298
  0
LWPOLYLINE
  5
C0
330
1F
100
AcDbEntity
  8
0
  6
Continuous
 62
     7
100
AcDbPolyline
 90
       83
 70
   128
 43
0.0
 10
11.6819941153
 20
-1.4716668556
 10
11.6824330891
 20
-1.4726459142
 10
11.682759442
 20
-1.4740601101
 10
11.6829407492
 20
-1.4759457046
 10
11.6830132721
 20
-1.4783026978
 10
11.6830132721
 20
-1.4783026978
 10
11.6830132721
 20
-1.5328398929
 10
11.6830132721
 20
-1.5328398929
 10
11.724387567
 20
-1.5328398929
 10
11.724387567
 20
-1.5328398929
 10
11.7254028872
 20
-1.5334200758
 10
11.7262006387
 20
-1.5342540888
 10
11.7267445602
 20
-1.5353419318
 10
11.7270346516
 20
-1.5366836048
 10
11.7270346516
 20
-1.5366836048
 10
11.7267445602
 20
-1.5386417222
 10
11.7258742858
 20
-1.5404185324
 10
11.7251490571
 20
-1.5411800225
 10
11.724133737
 20
-1.5416876825
 10
11.722792064
 20
-1.5420140354
 10
11.7211240381
 20
-1.5421228197
 10
11.7211240381
 20
-1.5421228197
 10
11.6830132721
 20
-1.5421228197
 10
11.6830132721
 20
-1.5421228197
 10
11.6830132721
 20
-1.6255603769
 10
11.6830132721
 20
-1.6255603769
 10
11.7010352042
 20
-1.6505082428
 10
11.7010352042
 20
-1.6505082428
 10
11.7211602995
 20
-1.6227319851
 10
11.7211602995
 20
-1.6227319851
 10
11.7220305739
 20
-1.6221155408
 10
11.723045894
 20
-1.6219342336
 10
11.723045894
 20
-1.6219342336
 10
11.724387567
 20
-1.6222968479
 10
11.7256929786
 20
-1.6234209524
 10
11.7267082988
 20
-1.6251252397
 10
11.7270346516
 20
-1.6273009257
 10
11.7270346516
 20
-1.6273009257
 10
11.7266720373
 20
-1.6297304417
 10
11.7266720373
 20
-1.6297304417
 10
11.7035009817
 20
-1.6600087382
 10
11.7035009817
 20
-1.6600087382
 10
11.7027032302
 20
-1.6603713525
 10
11.70143408
 20
-1.6604801368
 10
11.70143408
 20
-1.6604801368
 10
11.6999473613
 20
-1.6604801368
 10
11.6999473613
 20
-1.6604801368
 10
11.6986419497
 20
-1.6589571566
 10
11.6986419497
 20
-1.6589571566
 10
11.6762323841
 20
-1.6280261543
 10
11.6762323841
 20
-1.6280261543
 10
11.676051077
 20
-1.6254515926
 10
11.676051077
 20
-1.6254515926
 10
11.676051077
 20
-1.5421228197
 10
11.676051077
 20
-1.5421228197
 10
11.635184442
 20
-1.5421228197
 10
11.635184442
 20
-1.5421228197
 10
11.6343866905
 20
-1.5419415126
 10
11.6336614619
 20
-1.5414338525
 10
11.6330450175
 20
-1.5405635781
 10
11.6325373574
 20
-1.5393669508
 10
11.6325373574
 20
-1.5393669508
 10
11.6321022202
 20
-1.5377714478
 10
11.6319571745
 20
-1.5363209905
 10
11.6319571745
 20
-1.5363209905
 10
11.6322110045
 20
-1.5342178274
 10
11.6330087561
 20
-1.5323322328
 10
11.6337339847
 20
-1.5315344813
 10
11.6348943506
 20
-1.5309542984
 10
11.6364535922
 20
-1.5306279455
 10
11.6384117096
 20
-1.5305191612
 10
11.6384117096
 20
-1.5305191612
 10
11.676051077
 20
-1.5305191612
 10
11.676051077
 20
-1.5305191612
 10
11.676051077
 20
-1.4738425415
 10
11.676051077
 20
-1.4738425415
 10
11.6764136913
 20
-1.4724283456
 10
11.6769938742
 20
-1.4713405027
 10
11.6777553643
 20
-1.470615274
 10
11.6787706844
 20
-1.4701801368
 10
11.6787706844
 20
-1.4701801368
 10
11.6806925404
 20
-1.4705427511
 10
11.681997952
 20
-1.4716668556
  0
LWPOLYLINE
  5
C1
330
1F
100
AcDbEntity
  8
0
  6
Continuous
 62
     7
100
AcDbPolyline
 90
       30
 70
   128
 43
0.0
 10
11.76786235
 20
-1.6224056322
 10
11.7683001623
 20
-1.6233121681
 10
11.7686265152
 20
-1.6246175796
 10
11.7688078224
 20
-1.6263943899
 10
11.7688803452
 20
-1.6285700758
 10
11.7688803452
 20
-1.6285700758
 10
11.7688803452
 20
-1.6564551178
 10
11.7688803452
 20
-1.6564551178
 10
11.7683364238
 20
-1.6583407123
 10
11.7670672736
 20
-1.6599724767
 10
11.7670672736
 20
-1.6599724767
 10
11.7664145678
 20
-1.6603350911
 10
11.7653992477
 20
-1.6604801368
 10
11.7653992477
 20
-1.6604801368
 10
11.7639125289
 20
-1.6601900453
 10
11.7628246859
 20
-1.6593560324
 10
11.7624258102
 20
-1.6586670652
 10
11.7621357187
 20
-1.6576880065
 10
11.761990673
 20
-1.6564551178
 10
11.7619181501
 20
-1.654968399
 10
11.7619181501
 20
-1.654968399
 10
11.7619181501
 20
-1.6245450568
 10
11.7619181501
 20
-1.6245450568
 10
11.7623532873
 20
-1.6230220766
 10
11.7630059931
 20
-1.6218979722
 10
11.7638400061
 20
-1.6212452664
 10
11.7648915876
 20
-1.6210276978
 10
11.7648915876
 20
-1.6210276978
 10
11.7666321364
 20
-1.6213540507
 10
11.7678650251
 20
-1.6224056322
  0
LWPOLYLINE
  5
C2
330
1F
100
AcDbEntity
  8
0
  6
Continuous
 62
     7
100
AcDbPolyline
 90
       56
 70
   128
 43
0.0
 10
8.1040446214
 20
-1.7558477054
 10
8.1050614238
 20
-1.7562465812
 10
8.1058591753
 20
-1.7569355484
 10
8.1064030968
 20
-1.7580233914
 10
8.1066931882
 20
-1.7594013258
 10
8.1066931882
 20
-1.7594013258
 10
8.1064393582
 20
-1.761758319
 10
8.1056416067
 20
-1.7634988678
 10
8.1049526395
 20
-1.7641153121
 10
8.1039735808
 20
-1.7645504493
 10
8.1026319077
 20
-1.7648405408
 10
8.1010001433
 20
-1.7649130636
 10
8.1010001433
 20
-1.7649130636
 10
8.0185779062
 20
-1.7649130636
 10
8.0185779062
 20
-1.7649130636
 10
8.0185779062
 20
-1.8484594051
 10
8.0185779062
 20
-1.8484594051
 10
8.0599159398
 20
-1.8484594051
 10
8.0599159398
 20
-1.8484594051
 10
8.0612576128
 20
-1.8491483723
 10
8.0622366715
 20
-1.8500911696
 10
8.0628168544
 20
-1.8513603197
 10
8.0629981616
 20
-1.8528832999
 10
8.0629981616
 20
-1.8528832999
 10
8.0628168544
 20
-1.8545513258
 10
8.0623091943
 20
-1.8560017831
 10
8.0618377957
 20
-1.8565819661
 10
8.061112567
 20
-1.8570896261
 10
8.0600609855
 20
-1.8574522405
 10
8.0587555739
 20
-1.8577423319
 10
8.0587555739
 20
-1.8577423319
 10
8.0185779062
 20
-1.8577423319
 10
8.0185779062
 20
-1.8577423319
 10
8.0185779062
 20
-1.9418688563
 10
8.0185779062
 20
-1.9418688563
 10
8.0180339847
 20
-1.9437544508
 10
8.0167648346
 20
-1.9454224767
 10
8.0167648346
 20
-1.9454224767
 10
8.0161121288
 20
-1.9457850911
 10
8.0150968087
 20
-1.9459301368
 10
8.0150968087
 20
-1.9459301368
 10
8.0136100899
 20
-1.9456400453
 10
8.0125222469
 20
-1.944769771
 10
8.0121233712
 20
-1.9440445423
 10
8.0118332797
 20
-1.9430654836
 10
8.011688234
 20
-1.9417963335
 10
8.0116157111
 20
-1.9402370918
 10
8.0116157111
 20
-1.9402370918
 10
8.0116157111
 20
-1.7592562801
 10
8.0116157111
 20
-1.7592562801
 10
8.0120508483
 20
-1.7580596528
 10
8.0127035541
 20
-1.7570443327
 10
8.0136463513
 20
-1.7562465812
 10
8.0148067172
 20
-1.7556301368
 10
8.0148067172
 20
-1.7556301368
 10
8.1040461036
 20
-1.7558477054
  0
LWPOLYLINE
  5
C3
330
1F
100
AcDbEntity
  8
0
  6
Continuous
 62
     7
100
AcDbPolyline
 90
       32
 70
   128
 43
0.0
 10
8.213552903
 20
-1.8172383113
 10
8.2363640724
 20
-1.8488945423
 10
8.2363640724
 20
-1.8488945423
 10
8.2367266867
 20
-1.851215274
 10
8.2367266867
 20
-1.851215274
 10
8.2367266867
 20
-1.9122070042
 10
8.2367266867
 20
-1.9122070042
 10
8.2359651966
 20
-1.9142739059
 10
8.2359651966
 20
-1.9142739059
 10
8.212794141
 20
-1.9456763068
 10
8.212794141
 20
-1.9456763068
 10
8.2109085465
 20
-1.9459301368
 10
8.2109085465
 20
-1.9459301368
 10
8.1658718468
 20
-1.9459301368
 10
8.1658718468
 20
-1.9459301368
 10
8.1647477424
 20
-1.9449148167
 10
8.1647477424
 20
-1.9449148167
 10
8.1417579939
 20
-1.9132585857
 10
8.1417579939
 20
-1.9132585857
 10
8.1415766867
 20
-1.910684024
 10
8.1415766867
 20
-1.910684024
 10
8.1415766867
 20
-1.8494384638
 10
8.1415766867
 20
-1.8494384638
 10
8.1423381768
 20
-1.8476253921
 10
8.1423381768
 20
-1.8476253921
 10
8.1655092324
 20
-1.8164768213
 10
8.1655092324
 20
-1.8164768213
 10
8.1666333369
 20
-1.8159691612
 10
8.1666333369
 20
-1.8159691612
 10
8.2122502195
 20
-1.8162229912
 10
8.2122502195
 20
-1.8162229912
 10
8.2135556311
 20
-1.8172383113
  0
LWPOLYLINE
  5
C4
330
1F
100
AcDbEntity
  8
0
  6
Continuous
 62
     7
100
AcDbPolyline
 90
       16
 70
   128
 43
0.0
 10
8.2297634891
 20
-1.852556947
 10
8.2098932263
 20
-1.825252088
 10
8.2098932263
 20
-1.825252088
 10
8.1684101471
 20
-1.825252088
 10
8.1684101471
 20
-1.825252088
 10
8.1485388818
 20
-1.852303117
 10
8.1485388818
 20
-1.852303117
 10
8.1485388818
 20
-1.909342351
 10
8.1485388818
 20
-1.909342351
 10
8.1684101471
 20
-1.93664721
 10
8.1684101471
 20
-1.93664721
 10
8.2098932263
 20
-1.93664721
 10
8.2098932263
 20
-1.93664721
 10
8.2297644916
 20
-1.9090522595
 10
8.2297644916
 20
-1.9090522595
 10
8.2297644916
 20
-1.852556947
  0
LWPOLYLINE
  5
C5
330
1F
100
AcDbEntity
  8
0
  6
Continuous
 62
     7
100
AcDbPolyline
 90
       59
 70
   128
 43
0.0
 10
8.3431859655
 20
-1.8172745728
 10
8.3662525251
 20
-1.8495472481
 10
8.3662525251
 20
-1.8495472481
 10
8.3665426166
 20
-1.8509251825
 10
8.3666151395
 20
-1.8519042412
 10
8.3666151395
 20
-1.8519042412
 10
8.366578878
 20
-1.8530283456
 10
8.3664338323
 20
-1.8537535743
 10
8.3664338323
 20
-1.8537535743
 10
8.3658536494
 20
-1.8551677702
 10
8.3650558978
 20
-1.8562556132
 10
8.3640405777
 20
-1.8569808418
 10
8.362807689
 20
-1.857415979
 10
8.362807689
 20
-1.857415979
 10
8.3610671402
 20
-1.856908319
 10
8.3595804215
 20
-1.8554578617
 10
8.3595804215
 20
-1.8554578617
 10
8.339020189
 20
-1.825252088
 10
8.339020189
 20
-1.825252088
 10
8.3201642439
 20
-1.825252088
 10
8.3201642439
 20
-1.825252088
 10
8.2784998574
 20
-1.8823275835
 10
8.2784998574
 20
-1.8823275835
 10
8.2784998574
 20
-1.941760072
 10
8.2784998574
 20
-1.941760072
 10
8.2779559359
 20
-1.9437181894
 10
8.2766867858
 20
-1.9454224767
 10
8.2766867858
 20
-1.9454224767
 10
8.27603408
 20
-1.9457850911
 10
8.2750187599
 20
-1.9459301368
 10
8.2750187599
 20
-1.9459301368
 10
8.2735320411
 20
-1.9456400453
 10
8.2724441981
 20
-1.944769771
 10
8.2720453224
 20
-1.9440445423
 10
8.2717552309
 20
-1.9430654836
 10
8.2716101852
 20
-1.9417963335
 10
8.2715376623
 20
-1.9402733533
 10
8.2715376623
 20
-1.9402733533
 10
8.2715376623
 20
-1.8195953045
 10
8.2715376623
 20
-1.8195953045
 10
8.2719002766
 20
-1.8181811086
 10
8.2725529824
 20
-1.8171295271
 10
8.2733869954
 20
-1.816368037
 10
8.2745110998
 20
-1.8159691612
 10
8.2745110998
 20
-1.8159691612
 10
8.2760703414
 20
-1.8162955141
 10
8.2773394916
 20
-1.8173108342
 10
8.2778471516
 20
-1.8181811086
 10
8.278209766
 20
-1.8195227816
 10
8.2784273346
 20
-1.8213358533
 10
8.2784998574
 20
-1.8236203235
 10
8.2784998574
 20
-1.8236203235
 10
8.2784998574
 20
-1.8685119775
 10
8.2784998574
 20
-1.8685119775
 10
8.3178797736
 20
-1.8159691612
 10
8.3178797736
 20
-1.8159691612
 10
8.3418848422
 20
-1.8162229912
 10
8.3418848422
 20
-1.8162229912
 10
8.3431902538
 20
-1.8172745728
  0
LWPOLYLINE
  5
C6
330
1F
100
AcDbEntity
  8
0
  6
Continuous
 62
     7
100
AcDbPolyline
 90
       63
 70
   128
 43
0.0
 10
8.5801918676
 20
-1.7558477054
 10
8.5812102995
 20
-1.7562465812
 10
8.582008051
 20
-1.7569355484
 10
8.5825519725
 20
-1.7580233914
 10
8.582842064
 20
-1.7594013258
 10
8.582842064
 20
-1.7594013258
 10
8.5826244954
 20
-1.7616132732
 10
8.582008051
 20
-1.763353822
 10
8.582008051
 20
-1.763353822
 10
8.5811377766
 20
-1.7640427892
 10
8.5799774108
 20
-1.7645141879
 10
8.578490692
 20
-1.7648042793
 10
8.5767138818
 20
-1.7649130636
 10
8.5767138818
 20
-1.7649130636
 10
8.559308394
 20
-1.7649130636
 10
8.559308394
 20
-1.7649130636
 10
8.559308394
 20
-1.93664721
 10
8.559308394
 20
-1.93664721
 10
8.5799774108
 20
-1.93664721
 10
8.5799774108
 20
-1.93664721
 10
8.5810652538
 20
-1.9372273929
 10
8.5819355282
 20
-1.9380614059
 10
8.5825157111
 20
-1.9391492488
 10
8.582842064
 20
-1.9404909219
 10
8.582842064
 20
-1.9404909219
 10
8.5826244954
 20
-1.9427391307
 10
8.5819717896
 20
-1.9444796795
 10
8.5814278681
 20
-1.9450961238
 10
8.5807026395
 20
-1.9455675225
 10
8.5797235808
 20
-1.9458213525
 10
8.5785269535
 20
-1.9459301368
 10
8.5785269535
 20
-1.9459301368
 10
8.5341066981
 20
-1.9459301368
 10
8.5341066981
 20
-1.9459301368
 10
8.533091378
 20
-1.9453499539
 10
8.5322936265
 20
-1.9445522024
 10
8.531749705
 20
-1.9434643594
 10
8.5314596135
 20
-1.9421589478
 10
8.5314596135
 20
-1.9421589478
 10
8.5317134436
 20
-1.9398019546
 10
8.5324386722
 20
-1.9380976673
 10
8.533091378
 20
-1.9374449615
 10
8.5340704367
 20
-1.9370098243
 10
8.5353395869
 20
-1.9367197328
 10
8.5368988285
 20
-1.93664721
 10
8.5368988285
 20
-1.93664721
 10
8.5523461989
 20
-1.93664721
 10
8.5523461989
 20
-1.93664721
 10
8.5523461989
 20
-1.7649130636
 10
8.5523461989
 20
-1.7649130636
 10
8.5341429596
 20
-1.7649130636
 10
8.5341429596
 20
-1.7649130636
 10
8.533091378
 20
-1.7644054036
 10
8.5323298879
 20
-1.7636076521
 10
8.531749705
 20
-1.7624835476
 10
8.5314596135
 20
-1.7610693517
 10
8.5314596135
 20
-1.7610693517
 10
8.5317134436
 20
-1.75874862
 10
8.5324024108
 20
-1.7572256399
 10
8.5334539923
 20
-1.7562465812
 10
8.5346506196
 20
-1.7556301368
 10
8.5346506196
 20
-1.7556301368
 10
8.5801949794
 20
-1.7558477054
  0
LWPOLYLINE
  5
C7
330
1F
100
AcDbEntity
  8
0
  6
Continuous
 62
     7
100
AcDbPolyline
 90
       61
 70
   128
 43
0.0
 10
8.6913709565
 20
-1.8172383113
 10
8.7143985427
 20
-1.8488945423
 10
8.7143985427
 20
-1.8488945423
 10
8.7147974184
 20
-1.851215274
 10
8.7147974184
 20
-1.851215274
 10
8.7147974184
 20
-1.9417963335
 10
8.7147974184
 20
-1.9417963335
 10
8.7143985427
 20
-1.9436094051
 10
8.713673314
 20
-1.9448785553
 10
8.7126579939
 20
-1.9456763068
 10
8.7113163209
 20
-1.9459301368
 10
8.7113163209
 20
-1.9459301368
 10
8.7099383864
 20
-1.9456037839
 10
8.708814282
 20
-1.9446247252
 10
8.7080890533
 20
-1.942847915
 10
8.7078352233
 20
-1.9402008304
 10
8.7078352233
 20
-1.9402008304
 10
8.7078352233
 20
-1.8523756399
 10
8.7078352233
 20
-1.8523756399
 10
8.6879639581
 20
-1.825252088
 10
8.6879639581
 20
-1.825252088
 10
8.6688541829
 20
-1.825252088
 10
8.6688541829
 20
-1.825252088
 10
8.6266096135
 20
-1.8823275835
 10
8.6266096135
 20
-1.8823275835
 10
8.6266096135
 20
-1.941760072
 10
8.6266096135
 20
-1.941760072
 10
8.626065692
 20
-1.9437181894
 10
8.6247965419
 20
-1.9454224767
 10
8.6247965419
 20
-1.9454224767
 10
8.6241438361
 20
-1.9457850911
 10
8.623128516
 20
-1.9459301368
 10
8.623128516
 20
-1.9459301368
 10
8.6216417972
 20
-1.9456400453
 10
8.6205539542
 20
-1.944769771
 10
8.6201550785
 20
-1.9440445423
 10
8.619864987
 20
-1.9430654836
 10
8.6197199413
 20
-1.9417963335
 10
8.6196474184
 20
-1.9402733533
 10
8.6196474184
 20
-1.9402733533
 10
8.6196474184
 20
-1.8195953045
 10
8.6196474184
 20
-1.8195953045
 10
8.6200100327
 20
-1.8181811086
 10
8.6206627385
 20
-1.8171295271
 10
8.6214967515
 20
-1.816368037
 10
8.6226208559
 20
-1.8159691612
 10
8.6226208559
 20
-1.8159691612
 10
8.6241800975
 20
-1.8162955141
 10
8.6254492477
 20
-1.8173108342
 10
8.6259569077
 20
-1.8181811086
 10
8.6263195221
 20
-1.8195227816
 10
8.6265370907
 20
-1.8213358533
 10
8.6266096135
 20
-1.8236203235
 10
8.6266096135
 20
-1.8236203235
 10
8.6266096135
 20
-1.8685119775
 10
8.6266096135
 20
-1.8685119775
 10
8.6660257911
 20
-1.8159691612
 10
8.6660257911
 20
-1.8159691612
 10
8.6900308597
 20
-1.8162229912
 10
8.6900308597
 20
-1.8162229912
 10
8.6913725327
 20
-1.8172383113
  0
LWPOLYLINE
  5
C8
330
1F
100
AcDbEntity
  8
0
  6
Continuous
 62
     7
100
AcDbPolyline
 90
       80
 70
   128
 43
0.0
 10
8.8404060349
 20
-1.8161867298
 10
8.8415673879
 20
-1.8171657885
 10
8.8424376623
 20
-1.8188338144
 10
8.8424376623
 20
-1.8188338144
 10
8.8424014009
 20
-1.8204655789
 10
8.8422926166
 20
-1.8217709905
 10
8.8421475709
 20
-1.8227863106
 10
8.8418937408
 20
-1.8234752778
 10
8.8418937408
 20
-1.8234752778
 10
8.8413135579
 20
-1.8242367679
 10
8.8405158064
 20
-1.8248169508
 10
8.8394642248
 20
-1.8251433037
 10
8.8381950747
 20
-1.825252088
 10
8.8381950747
 20
-1.825252088
 10
8.7765143773
 20
-1.825252088
 10
8.7765143773
 20
-1.825252088
 10
8.7592176738
 20
-1.8519405027
 10
8.7592176738
 20
-1.8519405027
 10
8.7766231616
 20
-1.8786289173
 10
8.7766231616
 20
-1.8786289173
 10
8.8186139009
 20
-1.8786289173
 10
8.8186139009
 20
-1.8786289173
 10
8.819883051
 20
-1.879607976
 10
8.819883051
 20
-1.879607976
 10
8.842075048
 20
-1.9099225339
 10
8.842075048
 20
-1.9099225339
 10
8.8423651395
 20
-1.9112642069
 10
8.8424376623
 20
-1.9123883113
 10
8.8424376623
 20
-1.9123883113
 10
8.8423651395
 20
-1.9131498014
 10
8.842075048
 20
-1.9143826902
 10
8.842075048
 20
-1.9143826902
 10
8.8411322507
 20
-1.9160869775
 10
8.8411322507
 20
-1.9160869775
 10
8.8190490381
 20
-1.9456763068
 10
8.8190490381
 20
-1.9456763068
 10
8.817199705
 20
-1.9459301368
 10
8.817199705
 20
-1.9459301368
 10
8.7518203414
 20
-1.9459301368
 10
8.7518203414
 20
-1.9459301368
 10
8.7505149298
 20
-1.9448785553
 10
8.749608394
 20
-1.9430654836
 10
8.749608394
 20
-1.9430654836
 10
8.7500797927
 20
-1.9426303464
 10
8.7502610998
 20
-1.9421589478
 10
8.7500797927
 20
-1.9417238106
 10
8.749608394
 20
-1.9412886734
 10
8.749608394
 20
-1.9412886734
 10
8.7498984855
 20
-1.9391855103
 10
8.7507324984
 20
-1.9377713144
 10
8.7514214657
 20
-1.9372636543
 10
8.7524367858
 20
-1.9369373014
 10
8.7537059359
 20
-1.9367197328
 10
8.7552651776
 20
-1.93664721
 10
8.7552651776
 20
-1.93664721
 10
8.8173447507
 20
-1.93664721
 10
8.8173447507
 20
-1.93664721
 10
8.8350765914
 20
-1.9121344813
 10
8.8350765914
 20
-1.9121344813
 10
8.8173810122
 20
-1.8879118441
 10
8.8173810122
 20
-1.8879118441
 10
8.7742661684
 20
-1.8879118441
 10
8.7742661684
 20
-1.8879118441
 10
8.7729607568
 20
-1.8868602626
 10
8.7729607568
 20
-1.8868602626
 10
8.7499710084
 20
-1.8542974958
 10
8.7499710084
 20
-1.8542974958
 10
8.7497171783
 20
-1.8532459142
 10
8.749608394
 20
-1.8516866726
 10
8.749608394
 20
-1.8516866726
 10
8.7496446555
 20
-1.8505625682
 10
8.7497897012
 20
-1.8498373396
 10
8.7497897012
 20
-1.8498373396
 10
8.7509138056
 20
-1.8479880065
 10
8.7509138056
 20
-1.8479880065
 10
8.7730332797
 20
-1.8164768213
 10
8.7730332797
 20
-1.8164768213
 10
8.7741573841
 20
-1.8159691612
 10
8.7741573841
 20
-1.8159691612
 10
8.8404070221
 20
-1.8161867298
  0
LWPOLYLINE
  5
C9
330
1F
100
AcDbEntity
  8
0
  6
Continuous
 62
     7
100
AcDbPolyline
 90
       83
 70
   128
 43
0.0
 10
8.9296064978
 20
-1.7571168556
 10
8.9300452843
 20
-1.7580959142
 10
8.9303716372
 20
-1.7595101101
 10
8.9305529443
 20
-1.7613957046
 10
8.9306254672
 20
-1.7637526978
 10
8.9306254672
 20
-1.7637526978
 10
8.9306254672
 20
-1.8182898929
 10
8.9306254672
 20
-1.8182898929
 10
8.9719997622
 20
-1.8182898929
 10
8.9719997622
 20
-1.8182898929
 10
8.9730150823
 20
-1.8188700758
 10
8.9738128338
 20
-1.8197040888
 10
8.9743567553
 20
-1.8207919318
 10
8.9746468468
 20
-1.8221336048
 10
8.9746468468
 20
-1.8221336048
 10
8.9743567553
 20
-1.8240917222
 10
8.9734864809
 20
-1.8258685324
 10
8.9727612523
 20
-1.8266300225
 10
8.9717459321
 20
-1.8271376825
 10
8.9704042591
 20
-1.8274640354
 10
8.9687362332
 20
-1.8275728197
 10
8.9687362332
 20
-1.8275728197
 10
8.9306254672
 20
-1.8275728197
 10
8.9306254672
 20
-1.8275728197
 10
8.9306254672
 20
-1.9110103769
 10
8.9306254672
 20
-1.9110103769
 10
8.9486473994
 20
-1.9359582428
 10
8.9486473994
 20
-1.9359582428
 10
8.9687724946
 20
-1.9081819851
 10
8.9687724946
 20
-1.9081819851
 10
8.969642769
 20
-1.9075655408
 10
8.9706580891
 20
-1.9073842336
 10
8.9706580891
 20
-1.9073842336
 10
8.9719997622
 20
-1.9077468479
 10
8.9733051738
 20
-1.9088709524
 10
8.9743204939
 20
-1.9105752397
 10
8.9746468468
 20
-1.9127509257
 10
8.9746468468
 20
-1.9127509257
 10
8.9742842324
 20
-1.9151804417
 10
8.9742842324
 20
-1.9151804417
 10
8.9511131768
 20
-1.9454587382
 10
8.9511131768
 20
-1.9454587382
 10
8.9503154253
 20
-1.9458213525
 10
8.9490462751
 20
-1.9459301368
 10
8.9490462751
 20
-1.9459301368
 10
8.9475595564
 20
-1.9459301368
 10
8.9475595564
 20
-1.9459301368
 10
8.9462541448
 20
-1.9444071566
 10
8.9462541448
 20
-1.9444071566
 10
8.9238445792
 20
-1.9134761543
 10
8.9238445792
 20
-1.9134761543
 10
8.9236632721
 20
-1.9109015926
 10
8.9236632721
 20
-1.9109015926
 10
8.9236632721
 20
-1.8275728197
 10
8.9236632721
 20
-1.8275728197
 10
8.8827966372
 20
-1.8275728197
 10
8.8827966372
 20
-1.8275728197
 10
8.8819988856
 20
-1.8273915126
 10
8.881273657
 20
-1.8268838525
 10
8.8806572126
 20
-1.8260135781
 10
8.8801495526
 20
-1.8248169508
 10
8.8801495526
 20
-1.8248169508
 10
8.8797144154
 20
-1.8232214478
 10
8.8795693696
 20
-1.8217709905
 10
8.8795693696
 20
-1.8217709905
 10
8.8798231997
 20
-1.8196678274
 10
8.8806209512
 20
-1.8177822328
 10
8.8813461798
 20
-1.8169844813
 10
8.8825065457
 20
-1.8164042984
 10
8.8840657873
 20
-1.8160779455
 10
8.8860239047
 20
-1.8159691612
 10
8.8860239047
 20
-1.8159691612
 10
8.9236632721
 20
-1.8159691612
 10
8.9236632721
 20
-1.8159691612
 10
8.9236632721
 20
-1.7592925415
 10
8.9236632721
 20
-1.7592925415
 10
8.9240258864
 20
-1.7578783456
 10
8.9246060693
 20
-1.7567905027
 10
8.9253675594
 20
-1.756065274
 10
8.9263828795
 20
-1.7556301368
 10
8.9263828795
 20
-1.7556301368
 10
8.9283047355
 20
-1.7559927511
 10
8.9296101471
 20
-1.7571168556
  0
LWPOLYLINE
  5
CA
330
1F
100
AcDbEntity
  8
0
  6
Continuous
 62
     7
100
AcDbPolyline
 90
       59
 70
   128
 43
0.0
 10
9.0811806401
 20
-1.8172745728
 10
9.1042452081
 20
-1.8495472481
 10
9.1042452081
 20
-1.8495472481
 10
9.1045352995
 20
-1.8509251825
 10
9.1046078224
 20
-1.8519042412
 10
9.1046078224
 20
-1.8519042412
 10
9.1045715609
 20
-1.8530283456
 10
9.1044265152
 20
-1.8537535743
 10
9.1044265152
 20
-1.8537535743
 10
9.1038463323
 20
-1.8551677702
 10
9.1030485808
 20
-1.8562556132
 10
9.1020332606
 20
-1.8569808418
 10
9.1008003719
 20
-1.857415979
 10
9.1008003719
 20
-1.857415979
 10
9.0990598231
 20
-1.856908319
 10
9.0975731044
 20
-1.8554578617
 10
9.0975731044
 20
-1.8554578617
 10
9.0770128719
 20
-1.825252088
 10
9.0770128719
 20
-1.825252088
 10
9.0581569268
 20
-1.825252088
 10
9.0581569268
 20
-1.825252088
 10
9.0164925404
 20
-1.8823275835
 10
9.0164925404
 20
-1.8823275835
 10
9.0164925404
 20
-1.941760072
 10
9.0164925404
 20
-1.941760072
 10
9.0159486189
 20
-1.9437181894
 10
9.0146794687
 20
-1.9454224767
 10
9.0146794687
 20
-1.9454224767
 10
9.0140267629
 20
-1.9457850911
 10
9.0130114428
 20
-1.9459301368
 10
9.0130114428
 20
-1.9459301368
 10
9.0115247241
 20
-1.9456400453
 10
9.0104368811
 20
-1.944769771
 10
9.0100380053
 20
-1.9440445423
 10
9.0097479138
 20
-1.9430654836
 10
9.0096028681
 20
-1.9417963335
 10
9.0095303452
 20
-1.9402733533
 10
9.0095303452
 20
-1.9402733533
 10
9.0095303452
 20
-1.8195953045
 10
9.0095303452
 20
-1.8195953045
 10
9.0098929596
 20
-1.8181811086
 10
9.0105456654
 20
-1.8171295271
 10
9.0113796783
 20
-1.816368037
 10
9.0125037827
 20
-1.8159691612
 10
9.0125037827
 20
-1.8159691612
 10
9.0140630244
 20
-1.8162955141
 10
9.0153321745
 20
-1.8173108342
 10
9.0158398346
 20
-1.8181811086
 10
9.0162024489
 20
-1.8195227816
 10
9.0164200175
 20
-1.8213358533
 10
9.0164925404
 20
-1.8236203235
 10
9.0164925404
 20
-1.8236203235
 10
9.0164925404
 20
-1.8685119775
 10
9.0164925404
 20
-1.8685119775
 10
9.0558724565
 20
-1.8159691612
 10
9.0558724565
 20
-1.8159691612
 10
9.0798775251
 20
-1.8162229912
 10
9.0798775251
 20
-1.8162229912
 10
9.0811829367
 20
-1.8172745728
  0
LWPOLYLINE
  5
CB
330
1F
100
AcDbEntity
  8
0
  6
Continuous
 62
     7
100
AcDbPolyline
 90
       64
 70
   128
 43
0.0
 10
9.1453283791
 20
-1.8174196185
 10
9.1458370716
 20
-1.8183624158
 10
9.1461634245
 20
-1.8197040888
 10
9.1463809931
 20
-1.8215534219
 10
9.146453516
 20
-1.8238016307
 10
9.146453516
 20
-1.8238016307
 10
9.146453516
 20
-1.9098137496
 10
9.146453516
 20
-1.9098137496
 10
9.1663247812
 20
-1.93664721
 10
9.1663247812
 20
-1.93664721
 10
9.1854345564
 20
-1.93664721
 10
9.1854345564
 20
-1.93664721
 10
9.2276791257
 20
-1.8793178845
 10
9.2276791257
 20
-1.8793178845
 10
9.2276791257
 20
-1.819885396
 10
9.2276791257
 20
-1.819885396
 10
9.2280417401
 20
-1.8185799844
 10
9.2286581844
 20
-1.8174558799
 10
9.2294559359
 20
-1.816621867
 10
9.2305075175
 20
-1.8159691612
 10
9.2305075175
 20
-1.8159691612
 10
9.2320304977
 20
-1.8162955141
 10
9.2336622622
 20
-1.8172383113
 10
9.2336622622
 20
-1.8172383113
 10
9.2340973994
 20
-1.81821737
 10
9.2343874908
 20
-1.8196315659
 10
9.234568798
 20
-1.8214446376
 10
9.2346413209
 20
-1.8236928464
 10
9.2346413209
 20
-1.8236928464
 10
9.2346413209
 20
-1.9417963335
 10
9.2346413209
 20
-1.9417963335
 10
9.2342424451
 20
-1.9436094051
 10
9.2335172164
 20
-1.9448785553
 10
9.2325018963
 20
-1.9456763068
 10
9.2311602233
 20
-1.9459301368
 10
9.2311602233
 20
-1.9459301368
 10
9.2297822888
 20
-1.9456037839
 10
9.2286581844
 20
-1.9446972481
 10
9.2279329558
 20
-1.9430292222
 10
9.2276791257
 20
-1.9404546604
 10
9.2276791257
 20
-1.9404546604
 10
9.2276791257
 20
-1.8960344051
 10
9.2276791257
 20
-1.8960344051
 10
9.1893870526
 20
-1.9456763068
 10
9.1893870526
 20
-1.9456763068
 10
9.1880453795
 20
-1.9459301368
 10
9.1880453795
 20
-1.9459301368
 10
9.1640765724
 20
-1.9459301368
 10
9.1640765724
 20
-1.9459301368
 10
9.1629162065
 20
-1.9449148167
 10
9.1629162065
 20
-1.9449148167
 10
9.1398901966
 20
-1.9132585857
 10
9.1398901966
 20
-1.9132585857
 10
9.1394913209
 20
-1.910684024
 10
9.1394913209
 20
-1.910684024
 10
9.1394913209
 20
-1.819305213
 10
9.1394913209
 20
-1.819305213
 10
9.1398539352
 20
-1.81821737
 10
9.1404341181
 20
-1.8173108342
 10
9.1411956082
 20
-1.8165493441
 10
9.1422109283
 20
-1.8159691612
 10
9.1422109283
 20
-1.8159691612
 10
9.144024
 20
-1.8163317755
 10
9.1453294116
 20
-1.8174196185
  0
LWPOLYLINE
  5
CC
330
1F
100
AcDbEntity
  8
0
  6
Continuous
 62
     7
100
AcDbPolyline
 90
       54
 70
   128
 43
0.0
 10
9.3620593154
 20
-1.8161867298
 10
9.363478192
 20
-1.8171657885
 10
9.364312205
 20
-1.8188338144
 10
9.364312205
 20
-1.8188338144
 10
9.3641671593
 20
-1.8215534219
 10
9.3637320221
 20
-1.8234752778
 10
9.3637320221
 20
-1.8234752778
 10
9.3630067934
 20
-1.8242367679
 10
9.3621002576
 20
-1.8248169508
 10
9.3610124146
 20
-1.8251433037
 10
9.3597432645
 20
-1.825252088
 10
9.3597432645
 20
-1.825252088
 10
9.2959956654
 20
-1.825252088
 10
9.2959956654
 20
-1.825252088
 10
9.2764144916
 20
-1.8525206856
 10
9.2764144916
 20
-1.8525206856
 10
9.2764144916
 20
-1.9093786124
 10
9.2764144916
 20
-1.9093786124
 10
9.2960319268
 20
-1.93664721
 10
9.2960319268
 20
-1.93664721
 10
9.3613025061
 20
-1.93664721
 10
9.3613025061
 20
-1.93664721
 10
9.3621727805
 20
-1.9368647786
 10
9.3628980091
 20
-1.9373724386
 10
9.3635144535
 20
-1.9380976673
 10
9.3639495907
 20
-1.939076726
 10
9.3639495907
 20
-1.939076726
 10
9.3643847279
 20
-1.9402008304
 10
9.3645297736
 20
-1.9412886734
 10
9.3645297736
 20
-1.9412886734
 10
9.364312205
 20
-1.942847915
 10
9.3636594992
 20
-1.9444071566
 10
9.3631155777
 20
-1.9450598624
 10
9.3623903491
 20
-1.945531261
 10
9.3613750289
 20
-1.9458213525
 10
9.3601784016
 20
-1.9459301368
 10
9.3601784016
 20
-1.9459301368
 10
9.2936024108
 20
-1.9459301368
 10
9.2936024108
 20
-1.9459301368
 10
9.2924783064
 20
-1.9449148167
 10
9.2924783064
 20
-1.9449148167
 10
9.2694522965
 20
-1.9132585857
 10
9.2694522965
 20
-1.9132585857
 10
9.2694522965
 20
-1.910684024
 10
9.2694522965
 20
-1.910684024
 10
9.2696336036
 20
-1.8494384638
 10
9.2696336036
 20
-1.8494384638
 10
9.2703950937
 20
-1.8476253921
 10
9.2703950937
 20
-1.8476253921
 10
9.2933485808
 20
-1.8164768213
 10
9.2933485808
 20
-1.8164768213
 10
9.2944726852
 20
-1.8159691612
 10
9.2944726852
 20
-1.8159691612
 10
9.3620639962
 20
-1.8161867298
  0
LWPOLYLINE
  5
CD
330
1F
100
AcDbEntity
  8
0
  6
Continuous
 62
     7
100
AcDbPolyline
 90
       83
 70
   128
 43
0.0
 10
9.4494528658
 20
-1.7571168556
 10
9.4498891867
 20
-1.7580959142
 10
9.4502155396
 20
-1.7595101101
 10
9.4503968468
 20
-1.7613957046
 10
9.4504693696
 20
-1.7637526978
 10
9.4504693696
 20
-1.7637526978
 10
9.4504693696
 20
-1.8182898929
 10
9.4504693696
 20
-1.8182898929
 10
9.4918436646
 20
-1.8182898929
 10
9.4918436646
 20
-1.8182898929
 10
9.4928589847
 20
-1.8188700758
 10
9.4936567363
 20
-1.8197040888
 10
9.4942006577
 20
-1.8207919318
 10
9.4944907492
 20
-1.8221336048
 10
9.4944907492
 20
-1.8221336048
 10
9.4942006577
 20
-1.8240917222
 10
9.4933303834
 20
-1.8258685324
 10
9.4926051547
 20
-1.8266300225
 10
9.4915898346
 20
-1.8271376825
 10
9.4902481616
 20
-1.8274640354
 10
9.4885801356
 20
-1.8275728197
 10
9.4885801356
 20
-1.8275728197
 10
9.4504693696
 20
-1.8275728197
 10
9.4504693696
 20
-1.8275728197
 10
9.4504693696
 20
-1.9110103769
 10
9.4504693696
 20
-1.9110103769
 10
9.4684913018
 20
-1.9359582428
 10
9.4684913018
 20
-1.9359582428
 10
9.4886163971
 20
-1.9081819851
 10
9.4886163971
 20
-1.9081819851
 10
9.4894866715
 20
-1.9075655408
 10
9.4905019916
 20
-1.9073842336
 10
9.4905019916
 20
-1.9073842336
 10
9.4918436646
 20
-1.9077468479
 10
9.4931490762
 20
-1.9088709524
 10
9.4941643963
 20
-1.9105752397
 10
9.4944907492
 20
-1.9127509257
 10
9.4944907492
 20
-1.9127509257
 10
9.4941281349
 20
-1.9151804417
 10
9.4941281349
 20
-1.9151804417
 10
9.4709570792
 20
-1.9454587382
 10
9.4709570792
 20
-1.9454587382
 10
9.4701593277
 20
-1.9458213525
 10
9.4688901776
 20
-1.9459301368
 10
9.4688901776
 20
-1.9459301368
 10
9.4674034588
 20
-1.9459301368
 10
9.4674034588
 20
-1.9459301368
 10
9.4660980472
 20
-1.9444071566
 10
9.4660980472
 20
-1.9444071566
 10
9.4436884817
 20
-1.9134761543
 10
9.4436884817
 20
-1.9134761543
 10
9.4435071745
 20
-1.9109015926
 10
9.4435071745
 20
-1.9109015926
 10
9.4435071745
 20
-1.8275728197
 10
9.4435071745
 20
-1.8275728197
 10
9.4026405396
 20
-1.8275728197
 10
9.4026405396
 20
-1.8275728197
 10
9.4018427881
 20
-1.8273915126
 10
9.4011175594
 20
-1.8268838525
 10
9.4005011151
 20
-1.8260135781
 10
9.399993455
 20
-1.8248169508
 10
9.399993455
 20
-1.8248169508
 10
9.3995583178
 20
-1.8232214478
 10
9.3994132721
 20
-1.8217709905
 10
9.3994132721
 20
-1.8217709905
 10
9.3996671021
 20
-1.8196678274
 10
9.4004648536
 20
-1.8177822328
 10
9.4011900823
 20
-1.8169844813
 10
9.4023504481
 20
-1.8164042984
 10
9.4039096898
 20
-1.8160779455
 10
9.4058678071
 20
-1.8159691612
 10
9.4058678071
 20
-1.8159691612
 10
9.4435071745
 20
-1.8159691612
 10
9.4435071745
 20
-1.8159691612
 10
9.4435071745
 20
-1.7592925415
 10
9.4435071745
 20
-1.7592925415
 10
9.4438697888
 20
-1.7578783456
 10
9.4444499718
 20
-1.7567905027
 10
9.4452114619
 20
-1.756065274
 10
9.446226782
 20
-1.7556301368
 10
9.446226782
 20
-1.7556301368
 10
9.4481486379
 20
-1.7559927511
 10
9.4494540495
 20
-1.7571168556
  0
LWPOLYLINE
  5
CE
330
1F
100
AcDbEntity
  8
0
  6
Continuous
 62
     7
100
AcDbPolyline
 90
       27
 70
   128
 43
0.0
 10
9.5353211005
 20
-1.7570443327
 10
9.5357562599
 20
-1.7579508685
 10
9.5360826128
 20
-1.759328803
 10
9.5362639199
 20
-1.7611056132
 10
9.5363364428
 20
-1.763353822
 10
9.5363364428
 20
-1.763353822
 10
9.5363364428
 20
-1.7919640926
 10
9.5363364428
 20
-1.7919640926
 10
9.535683737
 20
-1.7941035171
 10
9.5346684169
 20
-1.7953364059
 10
9.5336530968
 20
-1.7959165888
 10
9.5328553452
 20
-1.796097896
 10
9.5328553452
 20
-1.796097896
 10
9.5313323651
 20
-1.7958078045
 10
9.5302445221
 20
-1.795010053
 10
9.5295918163
 20
-1.7936321185
 10
9.5293742477
 20
-1.7917102626
 10
9.5293742477
 20
-1.7917102626
 10
9.5293742477
 20
-1.7592562801
 10
9.5293742477
 20
-1.7592562801
 10
9.5298093849
 20
-1.7578420842
 10
9.5304258292
 20
-1.7567905027
 10
9.5312235808
 20
-1.7560290126
 10
9.5322026395
 20
-1.7556301368
 10
9.5322026395
 20
-1.7556301368
 10
9.5340519725
 20
-1.7559927511
 10
9.5353211227
 20
-1.7570443327
  0
LWPOLYLINE
  5
CF
330
1F
100
AcDbEntity
  8
0
  6
Continuous
 62
     7
100
AcDbPolyline
 90
       30
 70
   128
 43
0.0
 10
9.535246008
 20
-1.8173833571
 10
9.5357199984
 20
-1.8182898929
 10
9.5360826128
 20
-1.8196678274
 10
9.5362639199
 20
-1.8214446376
 10
9.5363364428
 20
-1.8236928464
 10
9.5363364428
 20
-1.8236928464
 10
9.5363364428
 20
-1.9417963335
 10
9.5363364428
 20
-1.9417963335
 10
9.5357925213
 20
-1.9437181894
 10
9.5345233712
 20
-1.9454224767
 10
9.5345233712
 20
-1.9454224767
 10
9.5338706654
 20
-1.9457850911
 10
9.5328553452
 20
-1.9459301368
 10
9.5328553452
 20
-1.9459301368
 10
9.5313686265
 20
-1.9456400453
 10
9.5302807835
 20
-1.944769771
 10
9.5298819077
 20
-1.9440445423
 10
9.5295918163
 20
-1.9430654836
 10
9.5294467706
 20
-1.9417963335
 10
9.5293742477
 20
-1.9402733533
 10
9.5293742477
 20
-1.9402733533
 10
9.5293742477
 20
-1.8198128731
 10
9.5293742477
 20
-1.8198128731
 10
9.529736862
 20
-1.8185074615
 10
9.5303533064
 20
-1.8174196185
 10
9.5311510579
 20
-1.8165856056
 10
9.5322026395
 20
-1.8159691612
 10
9.5322026395
 20
-1.8159691612
 10
9.5339794497
 20
-1.8163317755
 10
9.5352485998
 20
-1.8173833571
  0
LWPOLYLINE
  5
D0
330
1F
100
AcDbEntity
  8
0
  6
Continuous
 62
     7
100
AcDbPolyline
 90
       32
 70
   128
 43
0.0
 10
9.6454442017
 20
-1.8172383113
 10
9.6682555358
 20
-1.8488945423
 10
9.6682555358
 20
-1.8488945423
 10
9.6686181501
 20
-1.851215274
 10
9.6686181501
 20
-1.851215274
 10
9.6686181501
 20
-1.9122070042
 10
9.6686181501
 20
-1.9122070042
 10
9.66785666
 20
-1.9142739059
 10
9.66785666
 20
-1.9142739059
 10
9.6446856044
 20
-1.9456763068
 10
9.6446856044
 20
-1.9456763068
 10
9.6428000099
 20
-1.9459301368
 10
9.6428000099
 20
-1.9459301368
 10
9.5977633102
 20
-1.9459301368
 10
9.5977633102
 20
-1.9459301368
 10
9.5966392058
 20
-1.9449148167
 10
9.5966392058
 20
-1.9449148167
 10
9.5736494573
 20
-1.9132585857
 10
9.5736494573
 20
-1.9132585857
 10
9.5734681501
 20
-1.910684024
 10
9.5734681501
 20
-1.910684024
 10
9.5734681501
 20
-1.8494384638
 10
9.5734681501
 20
-1.8494384638
 10
9.5742296402
 20
-1.8476253921
 10
9.5742296402
 20
-1.8476253921
 10
9.5974006959
 20
-1.8164768213
 10
9.5974006959
 20
-1.8164768213
 10
9.5985248003
 20
-1.8159691612
 10
9.5985248003
 20
-1.8159691612
 10
9.6441416829
 20
-1.8162229912
 10
9.6441416829
 20
-1.8162229912
 10
9.6454470945
 20
-1.8172383113
  0
LWPOLYLINE
  5
D1
330
1F
100
AcDbEntity
  8
0
  6
Continuous
 62
     7
100
AcDbPolyline
 90
       16
 70
   128
 43
0.0
 10
9.6616547877
 20
-1.852556947
 10
9.6417846898
 20
-1.825252088
 10
9.6417846898
 20
-1.825252088
 10
9.6003016105
 20
-1.825252088
 10
9.6003016105
 20
-1.825252088
 10
9.5804303452
 20
-1.852303117
 10
9.5804303452
 20
-1.852303117
 10
9.5804303452
 20
-1.909342351
 10
9.5804303452
 20
-1.909342351
 10
9.6003016105
 20
-1.93664721
 10
9.6003016105
 20
-1.93664721
 10
9.6417846898
 20
-1.93664721
 10
9.6417846898
 20
-1.93664721
 10
9.661655955
 20
-1.9090522595
 10
9.661655955
 20
-1.9090522595
 10
9.661655955
 20
-1.852556947
  0
LWPOLYLINE
  5
D2
330
1F
100
AcDbEntity
  8
0
  6
Continuous
 62
     7
100
AcDbPolyline
 90
       61
 70
   128
 43
0.0
 10
9.7751523566
 20
-1.8172383113
 10
9.79818025
 20
-1.8488945423
 10
9.79818025
 20
-1.8488945423
 10
9.7985791257
 20
-1.851215274
 10
9.7985791257
 20
-1.851215274
 10
9.7985791257
 20
-1.9417963335
 10
9.7985791257
 20
-1.9417963335
 10
9.79818025
 20
-1.9436094051
 10
9.7974550213
 20
-1.9448785553
 10
9.7964397012
 20
-1.9456763068
 10
9.7950980282
 20
-1.9459301368
 10
9.7950980282
 20
-1.9459301368
 10
9.7937200937
 20
-1.9456037839
 10
9.7925959893
 20
-1.9446247252
 10
9.7918707606
 20
-1.942847915
 10
9.7916169306
 20
-1.9402008304
 10
9.7916169306
 20
-1.9402008304
 10
9.7916169306
 20
-1.8523756399
 10
9.7916169306
 20
-1.8523756399
 10
9.7717456654
 20
-1.825252088
 10
9.7717456654
 20
-1.825252088
 10
9.7526358902
 20
-1.825252088
 10
9.7526358902
 20
-1.825252088
 10
9.7103913209
 20
-1.8823275835
 10
9.7103913209
 20
-1.8823275835
 10
9.7103913209
 20
-1.941760072
 10
9.7103913209
 20
-1.941760072
 10
9.7098473994
 20
-1.9437181894
 10
9.7085782492
 20
-1.9454224767
 10
9.7085782492
 20
-1.9454224767
 10
9.7079255434
 20
-1.9457850911
 10
9.7069102233
 20
-1.9459301368
 10
9.7069102233
 20
-1.9459301368
 10
9.7054235045
 20
-1.9456400453
 10
9.7043356616
 20
-1.944769771
 10
9.7039367858
 20
-1.9440445423
 10
9.7036466943
 20
-1.9430654836
 10
9.7035016486
 20
-1.9417963335
 10
9.7034291257
 20
-1.9402733533
 10
9.7034291257
 20
-1.9402733533
 10
9.7034291257
 20
-1.8195953045
 10
9.7034291257
 20
-1.8195953045
 10
9.7037917401
 20
-1.8181811086
 10
9.7044444459
 20
-1.8171295271
 10
9.7052784588
 20
-1.816368037
 10
9.7064025632
 20
-1.8159691612
 10
9.7064025632
 20
-1.8159691612
 10
9.7079618048
 20
-1.8162955141
 10
9.709230955
 20
-1.8173108342
 10
9.7097386151
 20
-1.8181811086
 10
9.7101012294
 20
-1.8195227816
 10
9.710318798
 20
-1.8213358533
 10
9.7103913209
 20
-1.8236203235
 10
9.7103913209
 20
-1.8236203235
 10
9.7103913209
 20
-1.8685119775
 10
9.7103913209
 20
-1.8685119775
 10
9.7498074984
 20
-1.8159691612
 10
9.7498074984
 20
-1.8159691612
 10
9.773812567
 20
-1.8162229912
 10
9.773812567
 20
-1.8162229912
 10
9.7751542401
 20
-1.8172383113
  0
LWPOLYLINE
  5
D3
330
1F
100
AcDbEntity
  8
0
  6
Continuous
 62
     7
100
AcDbPolyline
 90
       50
 70
   128
 43
0.0
 10
9.8824125575
 20
-1.8169844813
 10
9.9049701699
 20
-1.8486407123
 10
9.9049701699
 20
-1.8486407123
 10
9.9053327843
 20
-1.8501999539
 10
9.9053327843
 20
-1.8501999539
 10
9.9053327843
 20
-1.9083632923
 10
9.9053327843
 20
-1.9083632923
 10
9.9278873956
 20
-1.9379526216
 10
9.9278873956
 20
-1.9379526216
 10
9.9283225327
 20
-1.9398019546
 10
9.9284675785
 20
-1.9407810133
 10
9.9284675785
 20
-1.9407810133
 10
9.928431317
 20
-1.9416875492
 10
9.9282862713
 20
-1.9423402549
 10
9.9282862713
 20
-1.9423402549
 10
9.9278511341
 20
-1.9436094051
 10
9.9273072126
 20
-1.9446609867
 10
9.9266182454
 20
-1.9454224767
 10
9.9258204939
 20
-1.9459301368
 10
9.9258204939
 20
-1.9459301368
 10
9.9245513437
 20
-1.9458938754
 10
9.9235360236
 20
-1.9458213525
 10
9.9227745335
 20
-1.9456763068
 10
9.9222668734
 20
-1.9454587382
 10
9.9222668734
 20
-1.9454587382
 10
9.9026856997
 20
-1.9211273167
 10
9.9026856997
 20
-1.9211273167
 10
9.8827056501
 20
-1.9457125682
 10
9.8827056501
 20
-1.9457125682
 10
9.8814002385
 20
-1.9459301368
 10
9.8814002385
 20
-1.9459301368
 10
9.8576852614
 20
-1.9459301368
 10
9.8576852614
 20
-1.9459301368
 10
9.856561157
 20
-1.9449148167
 10
9.856561157
 20
-1.9449148167
 10
9.8335714085
 20
-1.9132585857
 10
9.8335714085
 20
-1.9132585857
 10
9.8333901013
 20
-1.910684024
 10
9.8333901013
 20
-1.910684024
 10
9.8333901013
 20
-1.8494384638
 10
9.8333901013
 20
-1.8494384638
 10
9.83411533
 20
-1.8476253921
 10
9.83411533
 20
-1.8476253921
 10
9.8568875099
 20
-1.8164768213
 10
9.8568875099
 20
-1.8164768213
 10
9.8579753529
 20
-1.8159691612
 10
9.8579753529
 20
-1.8159691612
 10
9.8809288399
 20
-1.8162229912
 10
9.8809288399
 20
-1.8162229912
 10
9.8824155587
 20
-1.8169844813
  0
LWPOLYLINE
  5
D4
330
1F
100
AcDbEntity
  8
0
  6
Continuous
 62
     7
100
AcDbPolyline
 90
       16
 70
   128
 43
0.0
 10
9.8983697065
 20
-1.852556947
 10
9.8787894154
 20
-1.825252088
 10
9.8787894154
 20
-1.825252088
 10
9.8599334702
 20
-1.825252088
 10
9.8599334702
 20
-1.825252088
 10
9.8403522965
 20
-1.852303117
 10
9.8403522965
 20
-1.852303117
 10
9.8403522965
 20
-1.909342351
 10
9.8403522965
 20
-1.909342351
 10
9.8599334702
 20
-1.93664721
 10
9.8599334702
 20
-1.93664721
 10
9.8787894154
 20
-1.93664721
 10
9.8787894154
 20
-1.93664721
 10
9.8983705891
 20
-1.9090522595
 10
9.8983705891
 20
-1.9090522595
 10
9.8983705891
 20
-1.852556947
  0
LWPOLYLINE
  5
D5
330
1F
100
AcDbEntity
  8
0
  6
Continuous
 62
     7
100
AcDbPolyline
 90
       33
 70
   128
 43
0.0
 10
9.9692945405
 20
-1.7570443327
 10
9.9697330891
 20
-1.7579871299
 10
9.970059442
 20
-1.759328803
 10
9.9702407492
 20
-1.7611418746
 10
9.9703132721
 20
-1.7633900835
 10
9.9703132721
 20
-1.7633900835
 10
9.9703132721
 20
-1.9084358152
 10
9.9703132721
 20
-1.9084358152
 10
9.992505269
 20
-1.9379163601
 10
9.992505269
 20
-1.9379163601
 10
9.9929404062
 20
-1.9392217717
 10
9.993085452
 20
-1.9404909219
 10
9.993085452
 20
-1.9404909219
 10
9.9928316219
 20
-1.9424490392
 10
9.9920338704
 20
-1.9442621109
 10
9.9907647202
 20
-1.9454949996
 10
9.9889516486
 20
-1.9459301368
 10
9.9889516486
 20
-1.9459301368
 10
9.9872473613
 20
-1.9456763068
 10
9.9872473613
 20
-1.9456763068
 10
9.9639312599
 20
-1.9136212001
 10
9.9639312599
 20
-1.9136212001
 10
9.963351077
 20
-1.9115542984
 10
9.963351077
 20
-1.9115542984
 10
9.963351077
 20
-1.7592562801
 10
9.963351077
 20
-1.7592562801
 10
9.9637862141
 20
-1.7578420842
 10
9.9644026585
 20
-1.7567905027
 10
9.96520041
 20
-1.7560290126
 10
9.9661794687
 20
-1.7556301368
 10
9.9661794687
 20
-1.7556301368
 10
9.9680288018
 20
-1.7559927511
 10
9.969297952
 20
-1.7570443327
  0
LWPOLYLINE
  5
D6
330
1F
100
AcDbEntity
  8
0
  6
Continuous
 62
     7
100
AcDbPolyline
 90
       51
 70
   128
 43
0.0
 10
10.1642345819
 20
-1.7570805941
 10
10.1646745526
 20
-1.7580233914
 10
10.1650009055
 20
-1.7593650644
 10
10.1651822126
 20
-1.7612143975
 10
10.1652547355
 20
-1.7634626063
 10
10.1652547355
 20
-1.7634626063
 10
10.1652547355
 20
-1.9097774882
 10
10.1652547355
 20
-1.9097774882
 10
10.1851260007
 20
-1.93664721
 10
10.1851260007
 20
-1.93664721
 10
10.22660908
 20
-1.93664721
 10
10.22660908
 20
-1.93664721
 10
10.2464803452
 20
-1.9095236581
 10
10.2464803452
 20
-1.9095236581
 10
10.2464803452
 20
-1.7592925415
 10
10.2464803452
 20
-1.7592925415
 10
10.2469880053
 20
-1.7578783456
 10
10.2476044497
 20
-1.7567905027
 10
10.2484022012
 20
-1.756065274
 10
10.249308737
 20
-1.7556301368
 10
10.249308737
 20
-1.7556301368
 10
10.2509767629
 20
-1.7559927511
 10
10.2522821745
 20
-1.7570443327
 10
10.2527898346
 20
-1.7579871299
 10
10.2531524489
 20
-1.759328803
 10
10.2533700175
 20
-1.7611418746
 10
10.2534425404
 20
-1.7633900835
 10
10.2534425404
 20
-1.7633900835
 10
10.2526810503
 20
-1.9141288601
 10
10.2526810503
 20
-1.9141288601
 10
10.2295099946
 20
-1.9456763068
 10
10.2295099946
 20
-1.9456763068
 10
10.2276244001
 20
-1.9459301368
 10
10.2276244001
 20
-1.9459301368
 10
10.1825877004
 20
-1.9459301368
 10
10.1825877004
 20
-1.9459301368
 10
10.181463596
 20
-1.9448785553
 10
10.181463596
 20
-1.9448785553
 10
10.1586551547
 20
-1.9130772786
 10
10.1586551547
 20
-1.9130772786
 10
10.1582925404
 20
-1.9105027168
 10
10.1582925404
 20
-1.9105027168
 10
10.1582925404
 20
-1.7592562801
 10
10.1582925404
 20
-1.7592562801
 10
10.1587276776
 20
-1.7578420842
 10
10.1593441219
 20
-1.7567905027
 10
10.1601418734
 20
-1.7560290126
 10
10.1611209321
 20
-1.7556301368
 10
10.1611209321
 20
-1.7556301368
 10
10.1629702652
 20
-1.7559927511
 10
10.1642394154
 20
-1.7570805941
  0
LWPOLYLINE
  5
D7
330
1F
100
AcDbEntity
  8
0
  6
Continuous
 62
     7
100
AcDbPolyline
 90
       80
 70
   128
 43
0.0
 10
10.379045967
 20
-1.8161867298
 10
10.3802125099
 20
-1.8171657885
 10
10.3810827843
 20
-1.8188338144
 10
10.3810827843
 20
-1.8188338144
 10
10.3810465228
 20
-1.8204655789
 10
10.3809377385
 20
-1.8217709905
 10
10.3807926928
 20
-1.8227863106
 10
10.3805388628
 20
-1.8234752778
 10
10.3805388628
 20
-1.8234752778
 10
10.3799586798
 20
-1.8242367679
 10
10.3791609283
 20
-1.8248169508
 10
10.3781093468
 20
-1.8251433037
 10
10.3768401966
 20
-1.825252088
 10
10.3768401966
 20
-1.825252088
 10
10.3151594992
 20
-1.825252088
 10
10.3151594992
 20
-1.825252088
 10
10.2978627957
 20
-1.8519405027
 10
10.2978627957
 20
-1.8519405027
 10
10.3152682835
 20
-1.8786289173
 10
10.3152682835
 20
-1.8786289173
 10
10.3572590228
 20
-1.8786289173
 10
10.3572590228
 20
-1.8786289173
 10
10.358528173
 20
-1.879607976
 10
10.358528173
 20
-1.879607976
 10
10.3807201699
 20
-1.9099225339
 10
10.3807201699
 20
-1.9099225339
 10
10.3810102614
 20
-1.9112642069
 10
10.3810827843
 20
-1.9123883113
 10
10.3810827843
 20
-1.9123883113
 10
10.3810102614
 20
-1.9131498014
 10
10.3807201699
 20
-1.9143826902
 10
10.3807201699
 20
-1.9143826902
 10
10.3797773727
 20
-1.9160869775
 10
10.3797773727
 20
-1.9160869775
 10
10.35769416
 20
-1.9456763068
 10
10.35769416
 20
-1.9456763068
 10
10.355844827
 20
-1.9459301368
 10
10.355844827
 20
-1.9459301368
 10
10.2904654634
 20
-1.9459301368
 10
10.2904654634
 20
-1.9459301368
 10
10.2891600518
 20
-1.9448785553
 10
10.288253516
 20
-1.9430654836
 10
10.288253516
 20
-1.9430654836
 10
10.2887249146
 20
-1.9426303464
 10
10.2889062218
 20
-1.9421589478
 10
10.2887249146
 20
-1.9417238106
 10
10.288253516
 20
-1.9412886734
 10
10.288253516
 20
-1.9412886734
 10
10.2885436074
 20
-1.9391855103
 10
10.2893776204
 20
-1.9377713144
 10
10.2900665876
 20
-1.9372636543
 10
10.2910819077
 20
-1.9369373014
 10
10.2923510579
 20
-1.9367197328
 10
10.2939102995
 20
-1.93664721
 10
10.2939102995
 20
-1.93664721
 10
10.3559898727
 20
-1.93664721
 10
10.3559898727
 20
-1.93664721
 10
10.3737217134
 20
-1.9121344813
 10
10.3737217134
 20
-1.9121344813
 10
10.3560261341
 20
-1.8879118441
 10
10.3560261341
 20
-1.8879118441
 10
10.3129112904
 20
-1.8879118441
 10
10.3129112904
 20
-1.8879118441
 10
10.3116058788
 20
-1.8868602626
 10
10.3116058788
 20
-1.8868602626
 10
10.2886161303
 20
-1.8542974958
 10
10.2886161303
 20
-1.8542974958
 10
10.2883623003
 20
-1.8532459142
 10
10.288253516
 20
-1.8516866726
 10
10.288253516
 20
-1.8516866726
 10
10.2882897774
 20
-1.8505625682
 10
10.2884348231
 20
-1.8498373396
 10
10.2884348231
 20
-1.8498373396
 10
10.2895589276
 20
-1.8479880065
 10
10.2895589276
 20
-1.8479880065
 10
10.3116784016
 20
-1.8164768213
 10
10.3116784016
 20
-1.8164768213
 10
10.3128025061
 20
-1.8159691612
 10
10.3128025061
 20
-1.8159691612
 10
10.379052144
 20
-1.8161867298
  0
LWPOLYLINE
  5
D8
330
1F
100
AcDbEntity
  8
0
  6
Continuous
 62
     7
100
AcDbPolyline
 90
       52
 70
   128
 43
0.0
 10
10.4901171106
 20
-1.8172745728
 10
10.5129293544
 20
-1.8495835095
 10
10.5129293544
 20
-1.8495835095
 10
10.5132194459
 20
-1.8504175225
 10
10.5132919687
 20
-1.8519405027
 10
10.5132919687
 20
-1.8519405027
 10
10.5132557073
 20
-1.8532459142
 10
10.5131106616
 20
-1.8540436658
 10
10.5131106616
 20
-1.8540436658
 10
10.5121678643
 20
-1.8558929988
 10
10.5121678643
 20
-1.8558929988
 10
10.4889242858
 20
-1.8874041841
 10
10.4889242858
 20
-1.8874041841
 10
10.4870386913
 20
-1.8879118441
 10
10.4870386913
 20
-1.8879118441
 10
10.4251766867
 20
-1.8879118441
 10
10.4251766867
 20
-1.8879118441
 10
10.4251766867
 20
-1.9101038411
 10
10.4251766867
 20
-1.9101038411
 10
10.4448303834
 20
-1.93664721
 10
10.4448303834
 20
-1.93664721
 10
10.4883803643
 20
-1.93664721
 10
10.4883803643
 20
-1.93664721
 10
10.4900846516
 20
-1.9376625301
 10
10.490954926
 20
-1.9389679417
 10
10.4913175404
 20
-1.9402733533
 10
10.4914263247
 20
-1.9412886734
 10
10.4914263247
 20
-1.9412886734
 10
10.4912450175
 20
-1.9433193136
 10
10.4906648346
 20
-1.944769771
 10
10.4897220373
 20
-1.9456400453
 10
10.4884166257
 20
-1.9459301368
 10
10.4884166257
 20
-1.9459301368
 10
10.4425096516
 20
-1.9459301368
 10
10.4425096516
 20
-1.9459301368
 10
10.4413492858
 20
-1.9449148167
 10
10.4413492858
 20
-1.9449148167
 10
10.4183957988
 20
-1.9132585857
 10
10.4183957988
 20
-1.9132585857
 10
10.4182144916
 20
-1.910684024
 10
10.4182144916
 20
-1.910684024
 10
10.4182144916
 20
-1.8494384638
 10
10.4182144916
 20
-1.8494384638
 10
10.4189759817
 20
-1.8476253921
 10
10.4189759817
 20
-1.8476253921
 10
10.4421107759
 20
-1.8164768213
 10
10.4421107759
 20
-1.8164768213
 10
10.4432711417
 20
-1.8159691612
 10
10.4432711417
 20
-1.8159691612
 10
10.4888155015
 20
-1.8162229912
 10
10.4888155015
 20
-1.8162229912
 10
10.4901209131
 20
-1.8172745728
  0
LWPOLYLINE
  5
D9
330
1F
100
AcDbEntity
  8
0
  6
Continuous
 62
     7
100
AcDbPolyline
 90
       12
 70
   128
 43
0.0
 10
10.5036806873
 20
-1.8517954569
 10
10.4857695411
 20
-1.825252088
 10
10.4857695411
 20
-1.825252088
 10
10.4447941219
 20
-1.825252088
 10
10.4447941219
 20
-1.825252088
 10
10.4251766867
 20
-1.8540436658
 10
10.4251766867
 20
-1.8540436658
 10
10.4251766867
 20
-1.8786289173
 10
10.4251766867
 20
-1.8786289173
 10
10.485588234
 20
-1.8786289173
 10
10.485588234
 20
-1.8786289173
 10
10.503682689
 20
-1.8517954569
  0
LWPOLYLINE
  5
DA
330
1F
100
AcDbEntity
  8
0
  6
Continuous
 62
     7
100
AcDbPolyline
 90
       30
 70
   128
 43
0.0
 10
10.770812748
 20
-1.7558839668
 10
10.7716909398
 20
-1.7562828426
 10
10.772379907
 20
-1.756899287
 10
10.7729238285
 20
-1.7578420842
 10
10.7732864428
 20
-1.7590024501
 10
10.7732864428
 20
-1.7590024501
 10
10.7732864428
 20
-1.7633900835
 10
10.7732864428
 20
-1.7633900835
 10
10.7732864428
 20
-1.9417963335
 10
10.7732864428
 20
-1.9417963335
 10
10.7725974756
 20
-1.9440445423
 10
10.7712195411
 20
-1.9456763068
 10
10.7712195411
 20
-1.9456763068
 10
10.7698778681
 20
-1.9459301368
 10
10.7698778681
 20
-1.9459301368
 10
10.6806022202
 20
-1.9459301368
 10
10.6806022202
 20
-1.9459301368
 10
10.6790429786
 20
-1.9445522024
 10
10.6781364428
 20
-1.9425578235
 10
10.6781364428
 20
-1.9425578235
 10
10.6781364428
 20
-1.9374087001
 10
10.6781364428
 20
-1.9374087001
 10
10.6781364428
 20
-1.7592562801
 10
10.6781364428
 20
-1.7592562801
 10
10.67857158
 20
-1.7580596528
 10
10.6792242858
 20
-1.7570443327
 10
10.6801670831
 20
-1.7562465812
 10
10.6813637103
 20
-1.7556301368
 10
10.6813637103
 20
-1.7556301368
 10
10.7708206654
 20
-1.7558839668
  0
LWPOLYLINE
  5
DB
330
1F
100
AcDbEntity
  8
0
  6
Continuous
 62
     7
100
AcDbPolyline
 90
        8
 70
   128
 43
0.0
 10
10.7663165866
 20
-1.93664721
 10
10.7663242477
 20
-1.7649130636
 10
10.7663242477
 20
-1.7649130636
 10
10.6850986379
 20
-1.7649130636
 10
10.6850986379
 20
-1.7649130636
 10
10.6850986379
 20
-1.93664721
 10
10.6850986379
 20
-1.93664721
 10
10.7663242477
 20
-1.93664721
  0
LWPOLYLINE
  5
DC
330
1F
100
AcDbEntity
  8
0
  6
Continuous
 62
     7
100
AcDbPolyline
 90
       61
 70
   128
 43
0.0
 10
10.8798188487
 20
-1.8172383113
 10
10.9028485427
 20
-1.8488945423
 10
10.9028485427
 20
-1.8488945423
 10
10.9032474184
 20
-1.851215274
 10
10.9032474184
 20
-1.851215274
 10
10.9032474184
 20
-1.9417963335
 10
10.9032474184
 20
-1.9417963335
 10
10.9028485427
 20
-1.9436094051
 10
10.902123314
 20
-1.9448785553
 10
10.9011079939
 20
-1.9456763068
 10
10.8997663209
 20
-1.9459301368
 10
10.8997663209
 20
-1.9459301368
 10
10.8983883864
 20
-1.9456037839
 10
10.897264282
 20
-1.9446247252
 10
10.8965390533
 20
-1.942847915
 10
10.8962852233
 20
-1.9402008304
 10
10.8962852233
 20
-1.9402008304
 10
10.8962852233
 20
-1.8523756399
 10
10.8962852233
 20
-1.8523756399
 10
10.8764139581
 20
-1.825252088
 10
10.8764139581
 20
-1.825252088
 10
10.8573041829
 20
-1.825252088
 10
10.8573041829
 20
-1.825252088
 10
10.8150596135
 20
-1.8823275835
 10
10.8150596135
 20
-1.8823275835
 10
10.8150596135
 20
-1.941760072
 10
10.8150596135
 20
-1.941760072
 10
10.814515692
 20
-1.9437181894
 10
10.8132465419
 20
-1.9454224767
 10
10.8132465419
 20
-1.9454224767
 10
10.8125938361
 20
-1.9457850911
 10
10.811578516
 20
-1.9459301368
 10
10.811578516
 20
-1.9459301368
 10
10.8100917972
 20
-1.9456400453
 10
10.8090039542
 20
-1.944769771
 10
10.8086050785
 20
-1.9440445423
 10
10.808314987
 20
-1.9430654836
 10
10.8081699413
 20
-1.9417963335
 10
10.8080974184
 20
-1.9402733533
 10
10.8080974184
 20
-1.9402733533
 10
10.8080974184
 20
-1.8195953045
 10
10.8080974184
 20
-1.8195953045
 10
10.8084600327
 20
-1.8181811086
 10
10.8091127385
 20
-1.8171295271
 10
10.8099467515
 20
-1.816368037
 10
10.8110708559
 20
-1.8159691612
 10
10.8110708559
 20
-1.8159691612
 10
10.8126300975
 20
-1.8162955141
 10
10.8138992477
 20
-1.8173108342
 10
10.8144069077
 20
-1.8181811086
 10
10.8147695221
 20
-1.8195227816
 10
10.8149870907
 20
-1.8213358533
 10
10.8150596135
 20
-1.8236203235
 10
10.8150596135
 20
-1.8236203235
 10
10.8150596135
 20
-1.8685119775
 10
10.8150596135
 20
-1.8685119775
 10
10.8544757911
 20
-1.8159691612
 10
10.8544757911
 20
-1.8159691612
 10
10.8784808597
 20
-1.8162229912
 10
10.8784808597
 20
-1.8162229912
 10
10.8798225327
 20
-1.8172383113
  0
LWPOLYLINE
  5
DD
330
1F
100
AcDbEntity
  8
0
  6
Continuous
 62
     7
100
AcDbPolyline
 90
       33
 70
   128
 43
0.0
 10
10.9440041339
 20
-1.7570443327
 10
10.9444404062
 20
-1.7579871299
 10
10.9447667591
 20
-1.759328803
 10
10.9449480663
 20
-1.7611418746
 10
10.9450205891
 20
-1.7633900835
 10
10.9450205891
 20
-1.7633900835
 10
10.9450205891
 20
-1.9084358152
 10
10.9450205891
 20
-1.9084358152
 10
10.9672125861
 20
-1.9379163601
 10
10.9672125861
 20
-1.9379163601
 10
10.9676477233
 20
-1.9392217717
 10
10.967792769
 20
-1.9404909219
 10
10.967792769
 20
-1.9404909219
 10
10.967538939
 20
-1.9424490392
 10
10.9667411875
 20
-1.9442621109
 10
10.9654720373
 20
-1.9454949996
 10
10.9636589657
 20
-1.9459301368
 10
10.9636589657
 20
-1.9459301368
 10
10.9619546783
 20
-1.9456763068
 10
10.9619546783
 20
-1.9456763068
 10
10.938638577
 20
-1.9136212001
 10
10.938638577
 20
-1.9136212001
 10
10.938058394
 20
-1.9115542984
 10
10.938058394
 20
-1.9115542984
 10
10.938058394
 20
-1.7592562801
 10
10.938058394
 20
-1.7592562801
 10
10.9384935312
 20
-1.7578420842
 10
10.9391099756
 20
-1.7567905027
 10
10.9399077271
 20
-1.7560290126
 10
10.9408867858
 20
-1.7556301368
 10
10.9408867858
 20
-1.7556301368
 10
10.9427361189
 20
-1.7559927511
 10
10.944005269
 20
-1.7570443327
  0
LWPOLYLINE
  5
DE
330
1F
100
AcDbEntity
  8
0
  6
Continuous
 62
     7
100
AcDbPolyline
 90
       61
 70
   128
 43
0.0
 10
11.0094847642
 20
-1.8172745728
 10
11.0105812599
 20
-1.8196678274
 10
11.0105812599
 20
-1.8196678274
 10
11.0496348231
 20
-1.9311717336
 10
11.0496348231
 20
-1.9311717336
 10
11.0890510007
 20
-1.8183261543
 10
11.0890510007
 20
-1.8183261543
 10
11.0902113666
 20
-1.8168394356
 10
11.0918068696
 20
-1.8159691612
 10
11.0918068696
 20
-1.8159691612
 10
11.093257327
 20
-1.8161867298
 10
11.0944176928
 20
-1.8169119585
 10
11.0952879672
 20
-1.8180723243
 10
11.0958681501
 20
-1.8197040888
 10
11.0958681501
 20
-1.8197040888
 10
11.0964845945
 20
-1.819885396
 10
11.0967021631
 20
-1.8201029646
 10
11.0964845945
 20
-1.8204293174
 10
11.0958681501
 20
-1.8207919318
 10
11.0958681501
 20
-1.8207919318
 10
11.0958681501
 20
-1.8212633304
 10
11.0958681501
 20
-1.8215896833
 10
11.0958681501
 20
-1.8215896833
 10
11.0957956273
 20
-1.8223874348
 10
11.0956143201
 20
-1.8234027549
 10
11.0952517058
 20
-1.8246356437
 10
11.0947803071
 20
-1.8261223624
 10
11.0947803071
 20
-1.8261223624
 10
11.0311777538
 20
-2.0113457618
 10
11.0311777538
 20
-2.0113457618
 10
11.0300173879
 20
-2.0124698662
 10
11.0284218849
 20
-2.0132313563
 10
11.0284218849
 20
-2.0132313563
 10
11.0054321364
 20
-2.0109106246
 10
11.0054321364
 20
-2.0109106246
 10
11.004054202
 20
-2.0098227816
 10
11.003220189
 20
-2.00826354
 10
11.003220189
 20
-2.00826354
 10
11.0030751433
 20
-2.0075020499
 10
11.0030388818
 20
-2.0064867298
 10
11.0030388818
 20
-2.0064867298
 10
11.0033289733
 20
-2.0043473053
 10
11.0042355091
 20
-2.0028605865
 10
11.0049607378
 20
-2.002316665
 10
11.0059760579
 20
-2.0019177892
 10
11.0072089466
 20
-2.0017002206
 10
11.0086956654
 20
-2.0016276978
 10
11.0086956654
 20
-2.0016276978
 10
11.0263912446
 20
-2.0016276978
 10
11.0263912446
 20
-2.0016276978
 10
11.0461537256
 20
-1.9454587382
 10
11.0461537256
 20
-1.9454587382
 10
11.0030388818
 20
-1.8229313563
 10
11.0030388818
 20
-1.8229313563
 10
11.0033289733
 20
-1.8200304417
 10
11.0041267248
 20
-1.8178547557
 10
11.0054321364
 20
-1.8164405598
 10
11.0071001623
 20
-1.8159691612
 10
11.0071001623
 20
-1.8159691612
 10
11.0082605282
 20
-1.8162955141
 10
11.0094934169
 20
-1.8172745728
  0
LWPOLYLINE
  5
DF
330
1F
100
AcDbEntity
  8
0
  6
Continuous
 62
     7
100
AcDbPolyline
 90
       30
 70
   128
 43
0.0
 10
11.1389441753
 20
-1.9078556322
 10
11.1393818696
 20
-1.9087621681
 10
11.1397082225
 20
-1.9100675796
 10
11.1398895297
 20
-1.9118443899
 10
11.1399620526
 20
-1.9140200758
 10
11.1399620526
 20
-1.9140200758
 10
11.1399620526
 20
-1.9419051178
 10
11.1399620526
 20
-1.9419051178
 10
11.1394181311
 20
-1.9437907123
 10
11.1381489809
 20
-1.9454224767
 10
11.1381489809
 20
-1.9454224767
 10
11.1374962751
 20
-1.9457850911
 10
11.136480955
 20
-1.9459301368
 10
11.136480955
 20
-1.9459301368
 10
11.1349942363
 20
-1.9456400453
 10
11.1339063933
 20
-1.9448060324
 10
11.1335075175
 20
-1.9441170652
 10
11.133217426
 20
-1.9431380065
 10
11.1330723803
 20
-1.9419051178
 10
11.1329998574
 20
-1.940418399
 10
11.1329998574
 20
-1.940418399
 10
11.1329998574
 20
-1.9099950568
 10
11.1329998574
 20
-1.9099950568
 10
11.1334349946
 20
-1.9084720766
 10
11.1340877004
 20
-1.9073479722
 10
11.1349217134
 20
-1.9066952664
 10
11.1359732949
 20
-1.9064776978
 10
11.1359732949
 20
-1.9064776978
 10
11.1377138437
 20
-1.9068040507
 10
11.1389467324
 20
-1.9078556322
  0
MTEXT
  5
E1
330
1F
100
AcDbEntity
  8
0
  6
Continuous
 62
     7
100
AcDbMText
 10
8.0116157111
 20
-2.0533717654
 30
0.0
 40
0.1903
 41
0.0
 71
     1
 72
     1
  1
SOLIDWORKS Educational Product.
  7
SLDTEXTSTYLE0
 73
     1
 44
1.0
  0
MTEXT
  5
E2
330
1F
100
AcDbEntity
  8
0
  6
Continuous
 62
     7
100
AcDbMText
 10
8.0116157111
 20
-2.3388217654
 30
0.0
 40
0.1903
 41
0.0
 71
     1
 72
     1
  1
For Instructional Use Only.
  7
SLDTEXTSTYLE0
 73
     1
 44
1.0
  0
ENDSEC
  0
SECTION
  2
OBJECTS
  0
DICTIONARY
  5
C
330
0
100
AcDbDictionary
281
     1
  3
ACAD_GROUP
350
D
  3
ACAD_LAYOUT
350
1A
  3
ACAD_MLINESTYLE
350
17
  3
ACAD_PLOTSETTINGS
350
19
  3
ACAD_PLOTSTYLENAME
350
E
  3
ACAD_SCALELIST
350
47
  0
DICTIONARY
  5
D
102
{ACAD_REACTORS
330
C
102
}
330
C
100
AcDbDictionary
281
     1
  0
DICTIONARY
  5
1A
102
{ACAD_REACTORS
330
C
102
}
330
C
100
AcDbDictionary
281
     1
  3
Layout1
350
1E
  3
Layout2
350
26
  3
Model
350
22
  0
DICTIONARY
  5
17
102
{ACAD_REACTORS
330
C
102
}
330
C
100
AcDbDictionary
281
     1
  3
Standard
350
18
  0
DICTIONARY
  5
19
102
{ACAD_REACTORS
330
C
102
}
330
C
100
AcDbDictionary
281
     1
  0
ACDBDICTIONARYWDFLT
  5
E
102
{ACAD_REACTORS
330
C
102
}
330
C
100
AcDbDictionary
281
     1
  3
Normal
350
F
100
AcDbDictionaryWithDefault
340
F
  0
DICTIONARY
  5
47
102
{ACAD_REACTORS
330
C
102
}
330
C
100
AcDbDictionary
281
     1
  3
A0
350
48
  3
A1
350
49
  3
A2
350
4A
  3
A3
350
4B
  3
A4
350
4C
  3
A5
350
4D
  3
A6
350
4E
  3
A7
350
4F
  3
A8
350
50
  3
A9
350
51
  3
B0
350
52
  3
B1
350
53
  3
B2
350
54
  3
B3
350
55
  3
B4
350
56
  3
B5
350
57
  3
B6
350
58
  3
B7
350
59
  3
B8
350
5A
  3
B9
350
5B
  3
C0
350
5C
  3
C1
350
5D
  3
C2
350
5E
  3
C3
350
5F
  3
C4
350
60
  3
C5
350
61
  3
C6
350
62
  3
C7
350
63
  3
C8
350
64
  3
C9
350
65
  3
D0
350
66
  3
D1
350
67
  3
D2
350
68
  0
LAYOUT
  5
1E
102
{ACAD_REACTORS
330
1A
102
}
330
1A
100
AcDbPlotSettings
  1

  2
none_device
  4

  6

 40
0.0
 41
0.0
 42
0.0
 43
0.0
 44
0.0
 45
0.0
 46
0.0
 47
0.0
 48
0.0
 49
0.0
140
0.0
141
0.0
142
1.0
143
1.0
 70
   688
 72
     0
 73
     0
 74
     5
  7

 75
    16
147
1.0
148
0.0
149
0.0
100
AcDbLayout
  1
Layout1
 70
     1
 71
     1
 10
0.0
 20
0.0
 11
12.0
 21
9.0
 12
0.0
 22
0.0
 32
0.0
 14
1.0000000000E+20
 24
1.0000000000E+20
 34
1.0000000000E+20
 15
-1.0000000000E+20
 25
-1.0000000000E+20
 35
-1.0000000000E+20
146
0.0
 13
0.0
 23
0.0
 33
0.0
 16
1.0
 26
0.0
 36
0.0
 17
0.0
 27
1.0
 37
0.0
 76
     0
330
1B
  0
LAYOUT
  5
26
102
{ACAD_REACTORS
330
1A
102
}
330
1A
100
AcDbPlotSettings
  1

  2
none_device
  4

  6

 40
0.0
 41
0.0
 42
0.0
 43
0.0
 44
0.0
 45
0.0
 46
0.0
 47
0.0
 48
0.0
 49
0.0
140
0.0
141
0.0
142
1.0
143
1.0
 70
   688
 72
     0
 73
     0
 74
     5
  7

 75
    16
147
1.0
148
0.0
149
0.0
100
AcDbLayout
  1
Layout2
 70
     1
 71
     2
 10
0.0
 20
0.0
 11
0.0
 21
0.0
 12
0.0
 22
0.0
 32
0.0
 14
0.0
 24
0.0
 34
0.0
 15
0.0
 25
0.0
 35
0.0
146
0.0
 13
0.0
 23
0.0
 33
0.0
 16
1.0
 26
0.0
 36
0.0
 17
0.0
 27
1.0
 37
0.0
 76
     0
330
23
  0
LAYOUT
  5
22
102
{ACAD_REACTORS
330
1A
102
}
330
1A
100
AcDbPlotSettings
  1

  2
none_device
  4
ANSI_A_(11.00_x_8.50_Inches)
  6

 40
6.35
 41
19.05
 42
6.35000508
 43
19.05000254
 44
279.4
 45
215.9
 46
-352.4243000202
 47
80.0735578109
 48
0.0
 49
0.0
140
0.0
141
0.0
142
1.9173168121
143
1.0
 70
  1696
 72
     0
 73
     0
 74
     0
  7

 75
     0
147
0.5913241897
148
-39.4088153714
149
0.0
100
AcDbLayout
  1
Model
 70
     1
 71
     0
 10
0.0
 20
0.0
 11
12.0
 21
9.0
 12
0.0
 22
0.0
 32
0.0
 14
8.0116157111
 24
-2.0132313563
 34
0.0
 15
11.9381100948
 25
2.3757146682
 35
0.0
146
0.0
 13
0.0
 23
0.0
 33
0.0
 16
1.0
 26
0.0
 36
0.0
 17
0.0
 27
1.0
 37
0.0
 76
     0
330
1F
331
29
  0
MLINESTYLE
  5
18
102
{ACAD_REACTORS
330
17
102
}
330
17
100
AcDbMlineStyle
  2
Standard
 70
     0
  3

 62
   256
 51
90.0
 52
90.0
 71
     2
 49
0.5
 62
   256
  6
BYLAYER
 49
-0.5
 62
   256
  6
BYLAYER
  0
ACDBPLACEHOLDER
  5
F
102
{ACAD_REACTORS
330
E
102
}
330
E
  0
SCALE
  5
48
102
{ACAD_REACTORS
330
47
102
}
330
47
100
AcDbScale
 70
     0
300
1:1
140
1.0
141
1.0
290
     1
  0
SCALE
  5
49
102
{ACAD_REACTORS
330
47
102
}
330
47
100
AcDbScale
 70
     0
300
1:2
140
1.0
141
2.0
290
     0
  0
SCALE
  5
4A
102
{ACAD_REACTORS
330
47
102
}
330
47
100
AcDbScale
 70
     0
300
1:4
140
1.0
141
4.0
290
     0
  0
SCALE
  5
4B
102
{ACAD_REACTORS
330
47
102
}
330
47
100
AcDbScale
 70
     0
300
1:5
140
1.0
141
5.0
290
     0
  0
SCALE
  5
4C
102
{ACAD_REACTORS
330
47
102
}
330
47
100
AcDbScale
 70
     0
300
1:8
140
1.0
141
8.0
290
     0
  0
SCALE
  5
4D
102
{ACAD_REACTORS
330
47
102
}
330
47
100
AcDbScale
 70
     0
300
1:10
140
1.0
141
10.0
290
     0
  0
SCALE
  5
4E
102
{ACAD_REACTORS
330
47
102
}
330
47
100
AcDbScale
 70
     0
300
1:16
140
1.0
141
16.0
290
     0
  0
SCALE
  5
4F
102
{ACAD_REACTORS
330
47
102
}
330
47
100
AcDbScale
 70
     0
300
1:20
140
1.0
141
20.0
290
     0
  0
SCALE
  5
50
102
{ACAD_REACTORS
330
47
102
}
330
47
100
AcDbScale
 70
     0
300
1:30
140
1.0
141
30.0
290
     0
  0
SCALE
  5
51
102
{ACAD_REACTORS
330
47
102
}
330
47
100
AcDbScale
 70
     0
300
1:40
140
1.0
141
40.0
290
     0
  0
SCALE
  5
52
102
{ACAD_REACTORS
330
47
102
}
330
47
100
AcDbScale
 70
     0
300
1:50
140
1.0
141
50.0
290
     0
  0
SCALE
  5
53
102
{ACAD_REACTORS
330
47
102
}
330
47
100
AcDbScale
 70
     0
300
1:100
140
1.0
141
100.0
290
     0
  0
SCALE
  5
54
102
{ACAD_REACTORS
330
47
102
}
330
47
100
AcDbScale
 70
     0
300
2:1
140
2.0
141
1.0
290
     0
  0
SCALE
  5
55
102
{ACAD_REACTORS
330
47
102
}
330
47
100
AcDbScale
 70
     0
300
4:1
140
4.0
141
1.0
290
     0
  0
SCALE
  5
56
102
{ACAD_REACTORS
330
47
102
}
330
47
100
AcDbScale
 70
     0
300
8:1
140
8.0
141
1.0
290
     0
  0
SCALE
  5
57
102
{ACAD_REACTORS
330
47
102
}
330
47
100
AcDbScale
 70
     0
300
10:1
140
10.0
141
1.0
290
     0
  0
SCALE
  5
58
102
{ACAD_REACTORS
330
47
102
}
330
47
100
AcDbScale
 70
     0
300
100:1
140
100.0
141
1.0
290
     0
  0
SCALE
  5
59
102
{ACAD_REACTORS
330
47
102
}
330
47
100
AcDbScale
 70
     0
300
1/128" = 1'-0"
140
0.0078125
141
12.0
290
     0
  0
SCALE
  5
5A
102
{ACAD_REACTORS
330
47
102
}
330
47
100
AcDbScale
 70
     0
300
1/64" = 1'-0"
140
0.015625
141
12.0
290
     0
  0
SCALE
  5
5B
102
{ACAD_REACTORS
330
47
102
}
330
47
100
AcDbScale
 70
     0
300
1/32" = 1'-0"
140
0.03125
141
12.0
290
     0
  0
SCALE
  5
5C
102
{ACAD_REACTORS
330
47
102
}
330
47
100
AcDbScale
 70
     0
300
1/16" = 1'-0"
140
0.0625
141
12.0
290
     0
  0
SCALE
  5
5D
102
{ACAD_REACTORS
330
47
102
}
330
47
100
AcDbScale
 70
     0
300
3/32" = 1'-0"
140
0.09375
141
12.0
290
     0
  0
SCALE
  5
5E
102
{ACAD_REACTORS
330
47
102
}
330
47
100
AcDbScale
 70
     0
300
1/8" = 1'-0"
140
0.125
141
12.0
290
     0
  0
SCALE
  5
5F
102
{ACAD_REACTORS
330
47
102
}
330
47
100
AcDbScale
 70
     0
300
3/16" = 1'-0"
140
0.1875
141
12.0
290
     0
  0
SCALE
  5
60
102
{ACAD_REACTORS
330
47
102
}
330
47
100
AcDbScale
 70
     0
300
1/4" = 1'-0"
140
0.25
141
12.0
290
     0
  0
SCALE
  5
61
102
{ACAD_REACTORS
330
47
102
}
330
47
100
AcDbScale
 70
     0
300
3/8" = 1'-0"
140
0.375
141
12.0
290
     0
  0
SCALE
  5
62
102
{ACAD_REACTORS
330
47
102
}
330
47
100
AcDbScale
 70
     0
300
1/2" = 1'-0"
140
0.5
141
12.0
290
     0
  0
SCALE
  5
63
102
{ACAD_REACTORS
330
47
102
}
330
47
100
AcDbScale
 70
     0
300
3/4" = 1'-0"
140
0.75
141
12.0
290
     0
  0
SCALE
  5
64
102
{ACAD_REACTORS
330
47
102
}
330
47
100
AcDbScale
 70
     0
300
1" = 1'-0"
140
1.0
141
12.0
290
     0
  0
SCALE
  5
65
102
{ACAD_REACTORS
330
47
102
}
330
47
100
AcDbScale
 70
     0
300
1-1/2" = 1'-0"
140
1.5
141
12.0
290
     0
  0
SCALE
  5
66
102
{ACAD_REACTORS
330
47
102
}
330
47
100
AcDbScale
 70
     0
300
3" = 1'-0"
140
3.0
141
12.0
290
     0
  0
SCALE
  5
67
102
{ACAD_REACTORS
330
47
102
}
330
47
100
AcDbScale
 70
     0
300
6" = 1'-0"
140
6.0
141
12.0
290
     0
  0
SCALE
  5
68
102
{ACAD_REACTORS
330
47
102
}
330
47
100
AcDbScale
 70
     0
300
1'-0" = 1'-0"
140
12.0
141
12.0
290
     0
  0
ENDSEC
  0
EOF
