  0
SECTION
  2
HEADER
  9
$ACADVER
  1
AC1015
  9
$ACADMAINTVER
 70
     6
  9
$DWGCODEPAGE
  3
ANSI_1252
  9
$INSBASE
 10
0.0
 20
0.0
 30
0.0
  9
$EXTMIN
 10
-3.1799032507
 20
3.6858162869
 30
0.0
  9
$EXTMAX
 10
0.5773613835
 20
6.1358217777
 30
0.0
  9
$LIMMIN
 10
0.0
 20
0.0
  9
$LIMMAX
 10
12.0
 20
9.0
  9
$ORTHOMODE
 70
     0
  9
$REGENMODE
 70
     1
  9
$FILLMODE
 70
     1
  9
$QTEXTMODE
 70
     0
  9
$MIRRTEXT
 70
     1
  9
$LTSCALE
 40
1.0
  9
$ATTMODE
 70
     1
  9
$TEXTSIZE
 40
0.125
  9
$TRACEWID
 40
0.05
  9
$TEXTSTYLE
  7
Standard
  9
$CLAYER
  8
0
  9
$CELTYPE
  6
ByLayer
  9
$CECOLOR
 62
   256
  9
$CELTSCALE
 40
1.0
  9
$DISPSILH
 70
     0
  9
$DIMSCALE
 40
1.0
  9
$DIMASZ
 40
0.13
  9
$DIMEXO
 40
0.05
  9
$DIMDLI
 40
0.38
  9
$DIMRND
 40
0.0
  9
$DIMDLE
 40
0.0
  9
$DIMEXE
 40
0.125
  9
$DIMTP
 40
0.0
  9
$DIMTM
 40
0.0
  9
$DIMTXT
 40
0.125
  9
$DIMCEN
 40
0.09
  9
$DIMTSZ
 40
0.0
  9
$DIMTOL
 70
     0
  9
$DIMLIM
 70
     0
  9
$DIMTIH
 70
     1
  9
$DIMTOH
 70
     1
  9
$DIMSE1
 70
     0
  9
$DIMSE2
 70
     0
  9
$DIMTAD
 70
     0
  9
$DIMZIN
 70
     1
  9
$DIMBLK
  1

  9
$DIMASO
 70
     1
  9
$DIMSHO
 70
     1
  9
$DIMPOST
  1

  9
$DIMAPOST
  1

  9
$DIMALT
 70
     0
  9
$DIMALTD
 70
     2
  9
$DIMALTF
 40
25.4
  9
$DIMLFAC
 40
1.0
  9
$DIMTOFL
 70
     0
  9
$DIMTVP
 40
0.0
  9
$DIMTIX
 70
     0
  9
$DIMSOXD
 70
     0
  9
$DIMSAH
 70
     0
  9
$DIMBLK1
  1

  9
$DIMBLK2
  1

  9
$DIMSTYLE
  2
Standard
  9
$DIMCLRD
 70
     0
  9
$DIMCLRE
 70
     0
  9
$DIMCLRT
 70
     0
  9
$DIMTFAC
 40
1.0
  9
$DIMGAP
 40
0.06
  9
$DIMJUST
 70
     0
  9
$DIMSD1
 70
     0
  9
$DIMSD2
 70
     0
  9
$DIMTOLJ
 70
     1
  9
$DIMTZIN
 70
     1
  9
$DIMALTZ
 70
     0
  9
$DIMALTTZ
 70
     0
  9
$DIMUPT
 70
     0
  9
$DIMDEC
 70
     2
  9
$DIMTDEC
 70
     2
  9
$DIMALTU
 70
     2
  9
$DIMALTTD
 70
     2
  9
$DIMTXSTY
  7
Standard
  9
$DIMAUNIT
 70
     0
  9
$DIMADEC
 70
     2
  9
$DIMALTRND
 40
0.0
  9
$DIMAZIN
 70
     0
  9
$DIMDSEP
 70
    46
  9
$DIMATFIT
 70
     3
  9
$DIMFRAC
 70
     0
  9
$DIMLDRBLK
  1

  9
$DIMLUNIT
 70
     2
  9
$DIMLWD
 70
    -2
  9
$DIMLWE
 70
    -2
  9
$DIMTMOVE
 70
     0
  9
$LUNITS
 70
     2
  9
$LUPREC
 70
     2
  9
$SKETCHINC
 40
0.1
  9
$FILLETRAD
 40
0.5
  9
$AUNITS
 70
     0
  9
$AUPREC
 70
     2
  9
$MENU
  1
.
  9
$ELEVATION
 40
0.0
  9
$PELEVATION
 40
0.0
  9
$THICKNESS
 40
0.0
  9
$LIMCHECK
 70
     0
  9
$CHAMFERA
 40
0.0
  9
$CHAMFERB
 40
0.0
  9
$CHAMFERC
 40
0.0
  9
$CHAMFERD
 40
0.0
  9
$SKPOLY
 70
     0
  9
$TDCREATE
 40
2458543.17527875
  9
$TDUCREATE
 40
2458543.508612083
  9
$TDUPDATE
 40
2458543.175304468
  9
$TDUUPDATE
 40
2458543.508637801
  9
$TDINDWG
 40
0.0000000116
  9
$TDUSRTIMER
 40
0.0000000116
  9
$USRTIMER
 70
     1
  9
$ANGBASE
 50
0.0
  9
$ANGDIR
 70
     0
  9
$PDMODE
 70
     0
  9
$PDSIZE
 40
-1.0
  9
$PLINEWID
 40
0.0
  9
$SPLFRAME
 70
     0
  9
$SPLINETYPE
 70
     6
  9
$SPLINESEGS
 70
     8
  9
$HANDSEED
  5
E3
  9
$SURFTAB1
 70
     6
  9
$SURFTAB2
 70
     6
  9
$SURFTYPE
 70
     6
  9
$SURFU
 70
     6
  9
$SURFV
 70
     6
  9
$UCSBASE
  2

  9
$UCSNAME
  2

  9
$UCSORG
 10
0.0
 20
0.0
 30
0.0
  9
$UCSXDIR
 10
1.0
 20
0.0
 30
0.0
  9
$UCSYDIR
 10
0.0
 20
1.0
 30
0.0
  9
$UCSORTHOREF
  2

  9
$UCSORTHOVIEW
 70
     0
  9
$UCSORGTOP
 10
0.0
 20
0.0
 30
0.0
  9
$UCSORGBOTTOM
 10
0.0
 20
0.0
 30
0.0
  9
$UCSORGLEFT
 10
0.0
 20
0.0
 30
0.0
  9
$UCSORGRIGHT
 10
0.0
 20
0.0
 30
0.0
  9
$UCSORGFRONT
 10
0.0
 20
0.0
 30
0.0
  9
$UCSORGBACK
 10
0.0
 20
0.0
 30
0.0
  9
$PUCSBASE
  2

  9
$PUCSNAME
  2

  9
$PUCSORG
 10
0.0
 20
0.0
 30
0.0
  9
$PUCSXDIR
 10
1.0
 20
0.0
 30
0.0
  9
$PUCSYDIR
 10
0.0
 20
1.0
 30
0.0
  9
$PUCSORTHOREF
  2

  9
$PUCSORTHOVIEW
 70
     0
  9
$PUCSORGTOP
 10
0.0
 20
0.0
 30
0.0
  9
$PUCSORGBOTTOM
 10
0.0
 20
0.0
 30
0.0
  9
$PUCSORGLEFT
 10
0.0
 20
0.0
 30
0.0
  9
$PUCSORGRIGHT
 10
0.0
 20
0.0
 30
0.0
  9
$PUCSORGFRONT
 10
0.0
 20
0.0
 30
0.0
  9
$PUCSORGBACK
 10
0.0
 20
0.0
 30
0.0
  9
$USERI1
 70
     0
  9
$USERI2
 70
     0
  9
$USERI3
 70
     0
  9
$USERI4
 70
     0
  9
$USERI5
 70
     0
  9
$USERR1
 40
0.0
  9
$USERR2
 40
0.0
  9
$USERR3
 40
0.0
  9
$USERR4
 40
0.0
  9
$USERR5
 40
0.0
  9
$WORLDVIEW
 70
     1
  9
$SHADEDGE
 70
     3
  9
$SHADEDIF
 70
    70
  9
$TILEMODE
 70
     1
  9
$MAXACTVP
 70
    64
  9
$PINSBASE
 10
0.0
 20
0.0
 30
0.0
  9
$PLIMCHECK
 70
     0
  9
$PEXTMIN
 10
1.0000000000E+20
 20
1.0000000000E+20
 30
1.0000000000E+20
  9
$PEXTMAX
 10
-1.0000000000E+20
 20
-1.0000000000E+20
 30
-1.0000000000E+20
  9
$PLIMMIN
 10
0.0
 20
0.0
  9
$PLIMMAX
 10
12.0
 20
9.0
  9
$UNITMODE
 70
     0
  9
$VISRETAIN
 70
     1
  9
$PLINEGEN
 70
     0
  9
$PSLTSCALE
 70
     1
  9
$TREEDEPTH
 70
  3020
  9
$CMLSTYLE
  2
Standard
  9
$CMLJUST
 70
     0
  9
$CMLSCALE
 40
1.0
  9
$PROXYGRAPHICS
 70
     1
  9
$MEASUREMENT
 70
     0
  9
$CELWEIGHT
370
    -1
  9
$ENDCAPS
280
     0
  9
$JOINSTYLE
280
     0
  9
$LWDISPLAY
290
     1
  9
$INSUNITS
 70
     1
  9
$HYPERLINKBASE
  1

  9
$STYLESHEET
  1

  9
$XEDIT
290
     1
  9
$CEPSNTYPE
380
     0
  9
$PSTYLEMODE
290
     1
  9
$FINGERPRINTGUID
  2
{FD17BD4C-482F-4930-BAA9-955B5F18DD48}
  9
$VERSIONGUID
  2
{FAEB1C32-E019-11D5-929B-00C0DF256EC4}
  9
$EXTNAMES
290
     1
  9
$PSVPSCALE
 40
0.0
  9
$OLESTARTUP
290
     0
  0
ENDSEC
  0
SECTION
  2
CLASSES
  0
CLASS
  1
ACDBDICTIONARYWDFLT
  2
AcDbDictionaryWithDefault
  3
ObjectDBX Classes
 90
        0
280
     0
281
     0
  0
CLASS
  1
VISUALSTYLE
  2
AcDbVisualStyle
  3
ObjectDBX Classes
 90
     4095
280
     0
281
     0
  0
CLASS
  1
MATERIAL
  2
AcDbMaterial
  3
ObjectDBX Classes
 90
     1153
280
     0
281
     0
  0
CLASS
  1
SCALE
  2
AcDbScale
  3
ObjectDBX Classes
 90
     1153
280
     0
281
     0
  0
CLASS
  1
TABLESTYLE
  2
AcDbTableStyle
  3
ObjectDBX Classes
 90
     4095
280
     0
281
     0
  0
CLASS
  1
MLEADERSTYLE
  2
AcDbMLeaderStyle
  3
ACDB_MLEADERSTYLE_CLASS
 90
     4095
280
     0
281
     0
  0
CLASS
  1
SUN
  2
AcDbSun
  3
SCENEOE
 90
     1153
280
     0
281
     0
  0
CLASS
  1
ACDBPLACEHOLDER
  2
AcDbPlaceHolder
  3
ObjectDBX Classes
 90
        0
280
     0
281
     0
  0
CLASS
  1
LAYOUT
  2
AcDbLayout
  3
ObjectDBX Classes
 90
        0
280
     0
281
     0
  0
ENDSEC
  0
SECTION
  2
TABLES
  0
TABLE
  2
VPORT
  5
8
330
0
100
AcDbSymbolTable
 70
     1
  0
VPORT
  5
29
330
8
100
AcDbSymbolTableRecord
100
AcDbViewportTableRecord
  2
*Active
 70
     0
 10
0.0
 20
0.0
 11
1.0
 21
1.0
 12
-1.3012709336
 22
4.9108190323
 13
0.0
 23
0.0
 14
0.5
 24
0.5
 15
0.5
 25
0.5
 16
0.0
 26
0.0
 36
1.0
 17
0.0
 27
0.0
 37
0.0
 40
2.4990056006
 41
1.5335739647
 42
50.0
 43
0.0
 44
0.0
 50
0.0
 51
0.0
 71
     0
 72
   100
 73
     1
 74
     3
 75
     0
 76
     0
 77
     0
 78
     0
281
     0
 65
     1
110
0.0
120
0.0
130
0.0
111
1.0
121
0.0
131
0.0
112
0.0
122
1.0
132
0.0
 79
     0
146
0.0
  0
ENDTAB
  0
TABLE
  2
LTYPE
  5
5
330
0
100
AcDbSymbolTable
 70
     6
  0
LTYPE
  5
14
330
5
100
AcDbSymbolTableRecord
100
AcDbLinetypeTableRecord
  2
ByBlock
 70
     0
  3

 72
    65
 73
     0
 40
0.0
  0
LTYPE
  5
15
330
5
100
AcDbSymbolTableRecord
100
AcDbLinetypeTableRecord
  2
ByLayer
 70
     0
  3

 72
    65
 73
     0
 40
0.0
  0
LTYPE
  5
16
330
5
100
AcDbSymbolTableRecord
100
AcDbLinetypeTableRecord
  2
Continuous
 70
     0
  3
Solid line
 72
    65
 73
     0
 40
0.0
  0
LTYPE
  5
6E
330
5
100
AcDbSymbolTableRecord
100
AcDbLinetypeTableRecord
  2
HIDDEN
 70
     0
  3
Hidden __ __ __ __ __ __ __ __ __ __ __ __ __ __
 72
    65
 73
     2
 40
0.075
 49
0.05
 74
     0
 49
-0.025
 74
     0
  0
LTYPE
  5
6F
330
5
100
AcDbSymbolTableRecord
100
AcDbLinetypeTableRecord
  2
PHANTOM
 70
     0
  3
Phantom ______  __  __  ______  __  __  ______
 72
    65
 73
     6
 40
0.5
 49
0.25
 74
     0
 49
-0.05
 74
     0
 49
0.05
 74
     0
 49
-0.05
 74
     0
 49
0.05
 74
     0
 49
-0.05
 74
     0
  0
LTYPE
  5
70
330
5
100
AcDbSymbolTableRecord
100
AcDbLinetypeTableRecord
  2
CENTER
 70
     0
  3
Center ____ _ ____ _ ____ _ ____ _ ____ _ ____
 72
    65
 73
     4
 40
0.4
 49
0.25
 74
     0
 49
-0.05
 74
     0
 49
0.05
 74
     0
 49
-0.05
 74
     0
  0
LTYPE
  5
71
330
5
100
AcDbSymbolTableRecord
100
AcDbLinetypeTableRecord
  2
CENTERX2
 70
     0
  3
Center (2x) ________  __  ________  __  _____
 72
    65
 73
     4
 40
0.8
 49
0.5
 74
     0
 49
-0.1
 74
     0
 49
0.1
 74
     0
 49
-0.1
 74
     0
  0
LTYPE
  5
72
330
5
100
AcDbSymbolTableRecord
100
AcDbLinetypeTableRecord
  2
DOT2
 70
     0
  3
Dot (.5x) ........................................
 72
    65
 73
     2
 40
0.025
 49
0.0
 74
     0
 49
-0.025
 74
     0
  0
ENDTAB
  0
TABLE
  2
LAYER
  5
2
330
0
100
AcDbSymbolTable
 70
     1
  0
LAYER
  5
10
330
2
100
AcDbSymbolTableRecord
100
AcDbLayerTableRecord
  2
0
 70
     0
 62
     7
  6
Continuous
370
    -3
390
F
  0
ENDTAB
  0
TABLE
  2
STYLE
  5
3
330
0
100
AcDbSymbolTable
 70
     2
  0
STYLE
  5
11
330
3
100
AcDbSymbolTableRecord
100
AcDbTextStyleTableRecord
  2
Standard
 70
     0
 40
0.0
 41
1.0
 50
0.0
 71
     0
 42
0.125
  3
txt
  4

  0
STYLE
  5
E0
330
3
100
AcDbSymbolTableRecord
100
AcDbTextStyleTableRecord
  2
SLDTEXTSTYLE0
 70
     0
 40
0.0
 41
0.7
 50
0.0
 71
     0
 42
0.125
  3
TXT
  4

  0
ENDTAB
  0
TABLE
  2
VIEW
  5
6
330
0
100
AcDbSymbolTable
 70
     0
  0
ENDTAB
  0
TABLE
  2
UCS
  5
7
330
0
100
AcDbSymbolTable
 70
     0
  0
ENDTAB
  0
TABLE
  2
APPID
  5
9
330
0
100
AcDbSymbolTable
 70
     1
  0
APPID
  5
12
330
9
100
AcDbSymbolTableRecord
100
AcDbRegAppTableRecord
  2
ACAD
 70
     0
  0
ENDTAB
  0
TABLE
  2
DIMSTYLE
  5
A
330
0
100
AcDbSymbolTable
 70
     1
100
AcDbDimStyleTable
  0
DIMSTYLE
105
27
330
A
100
AcDbSymbolTableRecord
100
AcDbDimStyleTableRecord
  2
Standard
 70
     0
178
     0
340
11
  0
ENDTAB
  0
TABLE
  2
BLOCK_RECORD
  5
1
330
0
100
AcDbSymbolTable
 70
     1
  0
BLOCK_RECORD
  5
1F
330
1
100
AcDbSymbolTableRecord
100
AcDbBlockTableRecord
  2
*Model_Space
340
22
  0
BLOCK_RECORD
  5
1B
330
1
100
AcDbSymbolTableRecord
100
AcDbBlockTableRecord
  2
*Paper_Space
340
1E
  0
BLOCK_RECORD
  5
23
330
1
100
AcDbSymbolTableRecord
100
AcDbBlockTableRecord
  2
*Paper_Space0
340
26
  0
ENDTAB
  0
ENDSEC
  0
SECTION
  2
BLOCKS
  0
BLOCK
  5
20
330
1F
100
AcDbEntity
  8
0
100
AcDbBlockBegin
  2
*Model_Space
 70
     0
 10
0.0
 20
0.0
 30
0.0
  3
*Model_Space
  1

  0
ENDBLK
  5
21
330
1F
100
AcDbEntity
  8
0
100
AcDbBlockEnd
  0
BLOCK
  5
1C
330
1B
100
AcDbEntity
 67
     1
  8
0
100
AcDbBlockBegin
  2
*Paper_Space
 70
     0
 10
0.0
 20
0.0
 30
0.0
  3
*Paper_Space
  1

  0
ENDBLK
  5
1D
330
1B
100
AcDbEntity
 67
     1
  8
0
100
AcDbBlockEnd
  0
BLOCK
  5
24
330
23
100
AcDbEntity
  8
0
100
AcDbBlockBegin
  2
*Paper_Space0
 70
     0
 10
0.0
 20
0.0
 30
0.0
  3
*Paper_Space0
  1

  0
ENDBLK
  5
25
330
23
100
AcDbEntity
  8
0
100
AcDbBlockEnd
  0
ENDSEC
  0
SECTION
  2
ENTITIES
  0
LINE
  5
73
330
1F
100
AcDbEntity
  8
0
  6
Continuous
 62
     7
100
AcDbLine
 10
-1.3371460078
 20
4.8773111726
 30
0.0
 11
-1.4195355828
 21
4.7476623858
 31
0.0
  0
LINE
  5
74
330
1F
100
AcDbEntity
  8
0
  6
Continuous
 62
     7
100
AcDbLine
 10
-1.3371460078
 20
4.8773111726
 30
0.0
 11
-1.2766793531
 21
4.8388856531
 31
0.0
  0
LINE
  5
75
330
1F
100
AcDbEntity
  8
0
  6
Continuous
 62
     7
100
AcDbLine
 10
-1.2766793531
 20
4.8388856531
 30
0.0
 11
-1.1942897781
 21
4.9685344399
 31
0.0
  0
LINE
  5
76
330
1F
100
AcDbEntity
  8
0
  6
Continuous
 62
     7
100
AcDbLine
 10
-1.2547564329
 20
5.0069599594
 30
0.0
 11
-1.1942897781
 21
4.9685344399
 31
0.0
  0
LINE
  5
77
330
1F
100
AcDbEntity
  8
0
  6
Continuous
 62
     7
100
AcDbLine
 10
-1.1723668579
 20
5.1366087462
 30
0.0
 11
-1.2547564329
 21
5.0069599594
 31
0.0
  0
LINE
  5
78
330
1F
100
AcDbEntity
  8
0
  6
Continuous
 62
     7
100
AcDbLine
 10
-1.1723668579
 20
5.1366087462
 30
0.0
 11
-1.1119002032
 21
5.0981832267
 31
0.0
  0
LINE
  5
79
330
1F
100
AcDbEntity
  8
0
  6
Continuous
 62
     7
100
AcDbLine
 10
-1.1119002032
 20
5.0981832267
 30
0.0
 11
-1.0160085207
 21
5.2490790203
 31
0.0
  0
LINE
  5
7A
330
1F
100
AcDbEntity
  8
0
  6
Continuous
 62
     7
100
AcDbLine
 10
-1.0160085207
 20
5.2490790203
 30
0.0
 11
-1.1710512251
 21
5.3476059933
 31
0.0
  0
LINE
  5
7B
330
1F
100
AcDbEntity
  8
0
  6
Continuous
 62
     7
100
AcDbLine
 10
-1.1710512251
 20
5.3476059933
 30
0.0
 11
-1.2426943468
 21
5.2348678974
 31
0.0
  0
LINE
  5
7C
330
1F
100
AcDbEntity
  8
0
  6
Continuous
 62
     7
100
AcDbLine
 10
-1.3977370513
 20
5.3333948704
 30
0.0
 11
-1.2426943468
 21
5.2348678974
 31
0.0
  0
LINE
  5
7D
330
1F
100
AcDbEntity
  8
0
  6
Continuous
 62
     7
100
AcDbLine
 10
-1.3260939296
 20
5.4461329664
 30
0.0
 11
-1.3977370513
 21
5.3333948704
 31
0.0
  0
LINE
  5
7E
330
1F
100
AcDbEntity
  8
0
  6
Continuous
 62
     7
100
AcDbLine
 10
-1.3260939296
 20
5.4461329664
 30
0.0
 11
-1.4811366341
 21
5.5446599394
 31
0.0
  0
LINE
  5
7F
330
1F
100
AcDbEntity
  8
0
  6
Continuous
 62
     7
100
AcDbLine
 10
-1.4811366341
 20
5.5446599394
 30
0.0
 11
-1.5527797557
 21
5.4319218435
 31
0.0
  0
LINE
  5
80
330
1F
100
AcDbEntity
  8
0
  6
Continuous
 62
     7
100
AcDbLine
 10
-1.7078224602
 20
5.5304488166
 30
0.0
 11
-1.5527797557
 21
5.4319218435
 31
0.0
  0
LINE
  5
81
330
1F
100
AcDbEntity
  8
0
  6
Continuous
 62
     7
100
AcDbLine
 10
-1.6361793385
 20
5.6431869125
 30
0.0
 11
-1.7078224602
 21
5.5304488166
 31
0.0
  0
LINE
  5
82
330
1F
100
AcDbEntity
  8
0
  6
Continuous
 62
     7
100
AcDbLine
 10
-1.6361793385
 20
5.6431869125
 30
0.0
 11
-1.791222043
 21
5.7417138856
 31
0.0
  0
LINE
  5
83
330
1F
100
AcDbEntity
  8
0
  6
Continuous
 62
     7
100
AcDbLine
 10
-1.791222043
 20
5.7417138856
 30
0.0
 11
-1.8628651647
 21
5.6289757896
 31
0.0
  0
LINE
  5
84
330
1F
100
AcDbEntity
  8
0
  6
Continuous
 62
     7
100
AcDbLine
 10
-2.0179078691
 20
5.7275027627
 30
0.0
 11
-1.8628651647
 21
5.6289757896
 31
0.0
  0
LINE
  5
85
330
1F
100
AcDbEntity
  8
0
  6
Continuous
 62
     7
100
AcDbLine
 10
-1.9462647475
 20
5.8402408586
 30
0.0
 11
-2.0179078691
 21
5.7275027627
 31
0.0
  0
LINE
  5
86
330
1F
100
AcDbEntity
  8
0
  6
Continuous
 62
     7
100
AcDbLine
 10
-1.9462647475
 20
5.8402408586
 30
0.0
 11
-2.1013074519
 21
5.9387678317
 31
0.0
  0
LINE
  5
87
330
1F
100
AcDbEntity
  8
0
  6
Continuous
 62
     7
100
AcDbLine
 10
-2.1013074519
 20
5.9387678317
 30
0.0
 11
-2.1729505736
 21
5.8260297357
 31
0.0
  0
LINE
  5
88
330
1F
100
AcDbEntity
  8
0
  6
Continuous
 62
     7
100
AcDbLine
 10
-2.3279932781
 20
5.9245567088
 30
0.0
 11
-2.1729505736
 21
5.8260297357
 31
0.0
  0
LINE
  5
89
330
1F
100
AcDbEntity
  8
0
  6
Continuous
 62
     7
100
AcDbLine
 10
-2.2563501564
 20
6.0372948047
 30
0.0
 11
-2.3279932781
 21
5.9245567088
 31
0.0
  0
LINE
  5
8A
330
1F
100
AcDbEntity
  8
0
  6
Continuous
 62
     7
100
AcDbLine
 10
-2.2563501564
 20
6.0372948047
 30
0.0
 11
-2.4113928608
 21
6.1358217777
 31
0.0
  0
LINE
  5
8B
330
1F
100
AcDbEntity
  8
0
  6
Continuous
 62
     7
100
AcDbLine
 10
-2.4113928608
 20
6.1358217777
 30
0.0
 11
-2.5340466835
 21
5.9428129012
 31
0.0
  0
LINE
  5
8C
330
1F
100
AcDbEntity
  8
0
  6
Continuous
 62
     7
100
AcDbLine
 10
-3.0744034948
 20
4.8594454019
 30
0.0
 11
-1.7845189105
 21
4.0397459254
 31
0.0
  0
LINE
  5
8D
330
1F
100
AcDbEntity
  8
0
  6
Continuous
 62
     7
100
AcDbLine
 10
-1.7845189105
 20
4.0397459254
 30
0.0
 11
-1.688627228
 21
4.190641719
 31
0.0
  0
LINE
  5
8E
330
1F
100
AcDbEntity
  8
0
  6
Continuous
 62
     7
100
AcDbLine
 10
-1.7490938827
 20
4.2290672385
 30
0.0
 11
-1.688627228
 21
4.190641719
 31
0.0
  0
LINE
  5
8F
330
1F
100
AcDbEntity
  8
0
  6
Continuous
 62
     7
100
AcDbLine
 10
-1.6667043077
 20
4.3587160253
 30
0.0
 11
-1.7490938827
 21
4.2290672385
 31
0.0
  0
LINE
  5
90
330
1F
100
AcDbEntity
  8
0
  6
Continuous
 62
     7
100
AcDbLine
 10
-1.6667043077
 20
4.3587160253
 30
0.0
 11
-1.606237653
 21
4.3202905058
 31
0.0
  0
LINE
  5
91
330
1F
100
AcDbEntity
  8
0
  6
Continuous
 62
     7
100
AcDbLine
 10
-1.606237653
 20
4.3202905058
 30
0.0
 11
-1.523848078
 21
4.4499392927
 31
0.0
  0
LINE
  5
92
330
1F
100
AcDbEntity
  8
0
  6
Continuous
 62
     7
100
AcDbLine
 10
-1.5843147327
 20
4.4883648121
 30
0.0
 11
-1.523848078
 21
4.4499392927
 31
0.0
  0
LINE
  5
93
330
1F
100
AcDbEntity
  8
0
  6
Continuous
 62
     7
100
AcDbLine
 10
-1.5019251578
 20
4.618013599
 30
0.0
 11
-1.5843147327
 21
4.4883648121
 31
0.0
  0
LINE
  5
94
330
1F
100
AcDbEntity
  8
0
  6
Continuous
 62
     7
100
AcDbLine
 10
-1.5019251578
 20
4.618013599
 30
0.0
 11
-1.441458503
 21
4.5795880795
 31
0.0
  0
LINE
  5
95
330
1F
100
AcDbEntity
  8
0
  6
Continuous
 62
     7
100
AcDbLine
 10
-1.441458503
 20
4.5795880795
 30
0.0
 11
-1.3590689281
 21
4.7092368663
 31
0.0
  0
LINE
  5
96
330
1F
100
AcDbEntity
  8
0
  6
Continuous
 62
     7
100
AcDbLine
 10
-1.4195355828
 20
4.7476623858
 30
0.0
 11
-1.3590689281
 21
4.7092368663
 31
0.0
  0
LINE
  5
97
330
1F
100
AcDbEntity
  8
0
  6
Continuous
 62
     7
100
AcDbLine
 10
-3.0744034948
 20
4.8594454019
 30
0.0
 11
-2.4285469277
 21
5.8757696203
 31
0.0
  0
LINE
  5
98
330
1F
100
AcDbEntity
  8
0
  6
Continuous
 62
     7
100
AcDbLine
 10
-2.4285469277
 20
5.8757696203
 30
0.0
 11
-2.5340466835
 21
5.9428129012
 31
0.0
  0
LWPOLYLINE
  5
99
330
1F
100
AcDbEntity
  8
0
  6
Continuous
 62
     7
100
AcDbPolyline
 90
       85
 70
   128
 43
0.0
 10
-3.1097010365
 20
4.0992062884
 10
-3.0874365967
 20
4.0676951032
 10
-3.0874365967
 20
4.0676951032
 10
-3.0871465052
 20
4.0666072602
 10
-3.0870739824
 20
4.0653743715
 10
-3.0870739824
 20
4.0653743715
 10
-3.0871465052
 20
4.0645403585
 10
-3.0874365967
 20
4.0635975613
 10
-3.0874365967
 20
4.0635975613
 10
-3.0878354725
 20
4.0622196268
 10
-3.0885244397
 20
4.0611680453
 10
-3.0895034984
 20
4.0604065552
 10
-3.0907363871
 20
4.0600076794
 10
-3.0907363871
 20
4.0600076794
 10
-3.0925131973
 20
4.0608054309
 10
-3.0938548703
 20
4.062147104
 10
-3.0938548703
 20
4.062147104
 10
-3.1136536127
 20
4.0914463418
 10
-3.1136536127
 20
4.0914463418
 10
-3.1530697903
 20
4.0914463418
 10
-3.1530697903
 20
4.0914463418
 10
-3.1702939709
 20
4.0667160445
 10
-3.1702939709
 20
4.0667160445
 10
-3.0876179039
 20
3.9484675117
 10
-3.0876179039
 20
3.9484675117
 10
-3.0872190281
 20
3.947488453
 10
-3.0870739824
 20
3.9461105186
 10
-3.0870739824
 20
3.9461105186
 10
-3.0870739824
 20
3.9456028585
 10
-3.0870739824
 20
3.945058937
 10
-3.0870739824
 20
3.945058937
 10
-3.086457538
 20
3.9446963227
 10
-3.0862399694
 20
3.9444424927
 10
-3.086457538
 20
3.9441886626
 10
-3.0870739824
 20
3.9440436169
 10
-3.0870739824
 20
3.9440436169
 10
-3.0879805182
 20
3.9424481139
 10
-3.0879805182
 20
3.9424481139
 10
-3.1102812994
 20
3.9106830986
 10
-3.1102812994
 20
3.9106830986
 10
-3.1121306325
 20
3.9104292686
 10
-3.1121306325
 20
3.9104292686
 10
-3.1561520121
 20
3.9104292686
 10
-3.1561520121
 20
3.9104292686
 10
-3.1572398551
 20
3.9114083273
 10
-3.1572398551
 20
3.9114083273
 10
-3.1795406363
 20
3.9413965323
 10
-3.1795406363
 20
3.9413965323
 10
-3.1797944664
 20
3.9427744668
 10
-3.1799032507
 20
3.9438623097
 10
-3.1799032507
 20
3.9438623097
 10
-3.1798669892
 20
3.9448776299
 10
-3.1797219435
 20
3.9455665971
 10
-3.1797219435
 20
3.9455665971
 10
-3.1791417606
 20
3.9468720087
 10
-3.178344009
 20
3.9478873288
 10
-3.1773649504
 20
3.948576296
 10
-3.1761320616
 20
3.9489751718
 10
-3.1761320616
 20
3.9489751718
 10
-3.1743915129
 20
3.9484675117
 10
-3.1729410555
 20
3.9469445315
 10
-3.1729410555
 20
3.9469445315
 10
-3.1525983917
 20
3.9197121954
 10
-3.1525983917
 20
3.9197121954
 10
-3.1121306325
 20
3.9197121954
 10
-3.1121306325
 20
3.9197121954
 10
-3.0944350532
 20
3.9444424927
 10
-3.0944350532
 20
3.9444424927
 10
-3.1795406363
 20
4.0624371954
 10
-3.1795406363
 20
4.0624371954
 10
-3.1797944664
 20
4.063488777
 10
-3.1799032507
 20
4.0650480186
 10
-3.1799032507
 20
4.0650480186
 10
-3.1798669892
 20
4.0660270773
 10
-3.1797219435
 20
4.0668610902
 10
-3.1797219435
 20
4.0668610902
 10
-3.1789967148
 20
4.0687104233
 10
-3.1789967148
 20
4.0687104233
 10
-3.1565508879
 20
4.1002216085
 10
-3.1565508879
 20
4.1002216085
 10
-3.1554630449
 20
4.1007292686
 10
-3.1554630449
 20
4.1007292686
 10
-3.1109702667
 20
4.1004754386
 10
-3.1109702667
 20
4.1004754386
 10
-3.1097011165
 20
4.0992062884
  0
LWPOLYLINE
  5
9A
330
1F
100
AcDbEntity
  8
0
  6
Continuous
 62
     7
100
AcDbPolyline
 90
       30
 70
   128
 43
0.0
 10
-2.9572562909
 20
4.1004754386
 10
-2.9563877781
 20
4.1000765628
 10
-2.9556988109
 20
4.0994601184
 10
-2.9551548894
 20
4.0985173212
 10
-2.954792275
 20
4.0973569553
 10
-2.954792275
 20
4.0973569553
 10
-2.954792275
 20
4.0929693219
 10
-2.954792275
 20
4.0929693219
 10
-2.954792275
 20
3.9145630719
 10
-2.954792275
 20
3.9145630719
 10
-2.9554812423
 20
3.9123148631
 10
-2.9568591767
 20
3.9106830986
 10
-2.9568591767
 20
3.9106830986
 10
-2.9582008497
 20
3.9104292686
 10
-2.9582008497
 20
3.9104292686
 10
-3.0474764976
 20
3.9104292686
 10
-3.0474764976
 20
3.9104292686
 10
-3.0490357392
 20
3.911807203
 10
-3.049942275
 20
3.9138015819
 10
-3.049942275
 20
3.9138015819
 10
-3.049942275
 20
3.9189507053
 10
-3.049942275
 20
3.9189507053
 10
-3.049942275
 20
4.0971031253
 10
-3.049942275
 20
4.0971031253
 10
-3.0495071379
 20
4.0982997526
 10
-3.0488544321
 20
4.0993150727
 10
-3.0479116348
 20
4.1001128242
 10
-3.0467150075
 20
4.1007292686
 10
-3.0467150075
 20
4.1007292686
 10
-2.9572580525
 20
4.1004754386
  0
LWPOLYLINE
  5
9B
330
1F
100
AcDbEntity
  8
0
  6
Continuous
 62
     7
100
AcDbPolyline
 90
        8
 70
   128
 43
0.0
 10
-2.9617524522
 20
3.9197121954
 10
-2.9617544702
 20
4.0914463418
 10
-2.9617544702
 20
4.0914463418
 10
-3.0429800799
 20
4.0914463418
 10
-3.0429800799
 20
4.0914463418
 10
-3.0429800799
 20
3.9197121954
 10
-3.0429800799
 20
3.9197121954
 10
-2.9617544702
 20
3.9197121954
  0
LWPOLYLINE
  5
9C
330
1F
100
AcDbEntity
  8
0
  6
Continuous
 62
     7
100
AcDbPolyline
 90
       41
 70
   128
 43
0.0
 10
-2.9141062827
 20
4.0992788113
 10
-2.9136355487
 20
4.098336014
 10
-2.9132729343
 20
4.096994341
 10
-2.9130916272
 20
4.0951450079
 10
-2.9130191043
 20
4.0928967991
 10
-2.9130191043
 20
4.0928967991
 10
-2.9130191043
 20
3.9197121954
 10
-2.9130191043
 20
3.9197121954
 10
-2.8281310898
 20
3.9197121954
 10
-2.8281310898
 20
3.9197121954
 10
-2.8272608154
 20
3.9194946268
 10
-2.8265355868
 20
3.9189869668
 10
-2.8259191424
 20
3.9182617381
 10
-2.8254840052
 20
3.9172826794
 10
-2.8254840052
 20
3.9172826794
 10
-2.825048868
 20
3.916158575
 10
-2.8249038223
 20
3.915070732
 10
-2.8249038223
 20
3.915070732
 10
-2.8251213909
 20
3.9135114904
 10
-2.8257740967
 20
3.9119522488
 10
-2.8263180182
 20
3.911299543
 10
-2.8270432468
 20
3.9108281444
 10
-2.828058567
 20
3.9105380529
 10
-2.8292551943
 20
3.9104292686
 10
-2.8292551943
 20
3.9104292686
 10
-2.917515522
 20
3.9104292686
 10
-2.917515522
 20
3.9104292686
 10
-2.9190747636
 20
3.911807203
 10
-2.9199812994
 20
3.9138015819
 10
-2.9199812994
 20
3.9138015819
 10
-2.9199812994
 20
3.9189507053
 10
-2.9199812994
 20
3.9189507053
 10
-2.9199812994
 20
4.0971031253
 10
-2.9199812994
 20
4.0971031253
 10
-2.9195461622
 20
4.0985173212
 10
-2.9189297179
 20
4.0995689027
 10
-2.9181319664
 20
4.1003303928
 10
-2.9171529077
 20
4.1007292686
 10
-2.9171529077
 20
4.1007292686
 10
-2.9153760975
 20
4.1003666543
 10
-2.9141069473
 20
4.0992788113
  0
LWPOLYLINE
  5
9D
330
1F
100
AcDbEntity
  8
0
  6
Continuous
 62
     7
100
AcDbPolyline
 90
       63
 70
   128
 43
0.0
 10
-2.7412833191
 20
4.1005117
 10
-2.7402696379
 20
4.1001128242
 10
-2.7394718863
 20
4.099423857
 10
-2.7389279648
 20
4.098336014
 10
-2.7386378734
 20
4.0969580796
 10
-2.7386378734
 20
4.0969580796
 10
-2.738855442
 20
4.0947461322
 10
-2.7394718863
 20
4.0930055834
 10
-2.7394718863
 20
4.0930055834
 10
-2.7403421607
 20
4.0923166162
 10
-2.7415025266
 20
4.0918452175
 10
-2.7429892453
 20
4.0915551261
 10
-2.7447660555
 20
4.0914463418
 10
-2.7447660555
 20
4.0914463418
 10
-2.7621715433
 20
4.0914463418
 10
-2.7621715433
 20
4.0914463418
 10
-2.7621715433
 20
3.9197121954
 10
-2.7621715433
 20
3.9197121954
 10
-2.7415025266
 20
3.9197121954
 10
-2.7415025266
 20
3.9197121954
 10
-2.7404146836
 20
3.9191320125
 10
-2.7395444092
 20
3.9182979995
 10
-2.7389642263
 20
3.9172101565
 10
-2.7386378734
 20
3.9158684835
 10
-2.7386378734
 20
3.9158684835
 10
-2.738855442
 20
3.9136202747
 10
-2.7395081478
 20
3.9118797259
 10
-2.7400520693
 20
3.9112632815
 10
-2.7407772979
 20
3.9107918829
 10
-2.7417563566
 20
3.9105380529
 10
-2.7429529839
 20
3.9104292686
 10
-2.7429529839
 20
3.9104292686
 10
-2.7873732392
 20
3.9104292686
 10
-2.7873732392
 20
3.9104292686
 10
-2.7883885593
 20
3.9110094515
 10
-2.7891863109
 20
3.911807203
 10
-2.7897302324
 20
3.912895046
 10
-2.7900203238
 20
3.9142004576
 10
-2.7900203238
 20
3.9142004576
 10
-2.7897664938
 20
3.9165574508
 10
-2.7890412651
 20
3.9182617381
 10
-2.7883885593
 20
3.9189144439
 10
-2.7874095007
 20
3.9193495811
 10
-2.7861403505
 20
3.9196396726
 10
-2.7845811089
 20
3.9197121954
 10
-2.7845811089
 20
3.9197121954
 10
-2.7691337385
 20
3.9197121954
 10
-2.7691337385
 20
3.9197121954
 10
-2.7691337385
 20
4.0914463418
 10
-2.7691337385
 20
4.0914463418
 10
-2.7873369778
 20
4.0914463418
 10
-2.7873369778
 20
4.0914463418
 10
-2.7883885593
 20
4.0919540018
 10
-2.7891500494
 20
4.0927517533
 10
-2.7897302324
 20
4.0938758578
 10
-2.7900203238
 20
4.0952900537
 10
-2.7900203238
 20
4.0952900537
 10
-2.7897664938
 20
4.0976107854
 10
-2.7890775266
 20
4.0991337655
 10
-2.788025945
 20
4.1001128242
 10
-2.7868293177
 20
4.1007292686
 10
-2.7868293177
 20
4.1007292686
 10
-2.741284958
 20
4.1005117
  0
LWPOLYLINE
  5
9E
330
1F
100
AcDbEntity
  8
0
  6
Continuous
 62
     7
100
AcDbPolyline
 90
       49
 70
   128
 43
0.0
 10
-2.6298531397
 20
4.099170027
 10
-2.6070451333
 20
4.0676951032
 10
-2.6070451333
 20
4.0676951032
 10
-2.6066825189
 20
4.0653381101
 10
-2.6066825189
 20
4.0653381101
 10
-2.607444009
 20
3.9421942838
 10
-2.607444009
 20
3.9421942838
 10
-2.6306150647
 20
3.9106830986
 10
-2.6306150647
 20
3.9106830986
 10
-2.6325006592
 20
3.9104292686
 10
-2.6325006592
 20
3.9104292686
 10
-2.6993667415
 20
3.9104292686
 10
-2.6993667415
 20
3.9104292686
 10
-2.7004545845
 20
3.9111182358
 10
-2.7012160746
 20
3.9121335559
 10
-2.7016874732
 20
3.9134389675
 10
-2.7018325189
 20
3.915070732
 10
-2.7018325189
 20
3.915070732
 10
-2.7015424275
 20
3.9170288494
 10
-2.7006721531
 20
3.9184793067
 10
-2.6999469244
 20
3.9190232282
 10
-2.6990041272
 20
3.919422104
 10
-2.6978074999
 20
3.9196396726
 10
-2.696393304
 20
3.9197121954
 10
-2.696393304
 20
3.9197121954
 10
-2.6809459336
 20
3.9197121954
 10
-2.6809459336
 20
3.9197121954
 10
-2.6809459336
 20
4.0914463418
 10
-2.6809459336
 20
4.0914463418
 10
-2.6991491729
 20
4.0914463418
 10
-2.6991491729
 20
4.0914463418
 10
-2.7002007545
 20
4.0919540018
 10
-2.7009622446
 20
4.0927517533
 10
-2.7015424275
 20
4.0938758578
 10
-2.7018325189
 20
4.0952900537
 10
-2.7018325189
 20
4.0952900537
 10
-2.7016149504
 20
4.0975382625
 10
-2.700998506
 20
4.0992425498
 10
-2.7004545845
 20
4.0998952556
 10
-2.6996930944
 20
4.1003666543
 10
-2.6986777743
 20
4.1006204843
 10
-2.697481147
 20
4.1007292686
 10
-2.697481147
 20
4.1007292686
 10
-2.6954142453
 20
4.1007292686
 10
-2.6954142453
 20
4.1007292686
 10
-2.6328632735
 20
4.1007292686
 10
-2.6328632735
 20
4.1007292686
 10
-2.6310864633
 20
4.1003303928
 10
-2.6298535746
 20
4.099170027
  0
LWPOLYLINE
  5
9F
330
1F
100
AcDbEntity
  8
0
  6
Continuous
 62
     7
100
AcDbPolyline
 90
       12
 70
   128
 43
0.0
 10
-2.6136425536
 20
4.0643227899
 10
-2.6340236394
 20
4.0914463418
 10
-2.6340236394
 20
4.0914463418
 10
-2.6739837385
 20
4.0914463418
 10
-2.6739837385
 20
4.0914463418
 10
-2.6739837385
 20
3.9197121954
 10
-2.6739837385
 20
3.9197121954
 10
-2.6340236394
 20
3.9197121954
 10
-2.6340236394
 20
3.9197121954
 10
-2.6136447141
 20
3.9470895773
 10
-2.6136447141
 20
3.9470895773
 10
-2.6136447141
 20
4.0643227899
  0
LWPOLYLINE
  5
A0
330
1F
100
AcDbEntity
  8
0
  6
Continuous
 62
     7
100
AcDbPolyline
 90
       69
 70
   128
 43
0.0
 10
-2.5645086146
 20
4.0983722755
 10
-2.5242602819
 20
3.930481841
 10
-2.5242602819
 20
3.930481841
 10
-2.5057306897
 20
4.0073923402
 10
-2.5057306897
 20
4.0073923402
 10
-2.5051142453
 20
4.0085527061
 10
-2.5043164938
 20
4.009386719
 10
-2.503409958
 20
4.0098581177
 10
-2.5023583764
 20
4.0100394248
 10
-2.5023583764
 20
4.0100394248
 10
-2.5011980106
 20
4.0098581177
 10
-2.5002189519
 20
4.0093141962
 10
-2.4994212004
 20
4.0084076604
 10
-2.4987684946
 20
4.0071385102
 10
-2.4987684946
 20
4.0071385102
 10
-2.4804202095
 20
3.930481841
 10
-2.4804202095
 20
3.930481841
 10
-2.4707746683
 20
3.9701518486
 10
-2.4707746683
 20
3.9701518486
 10
-2.4399887118
 20
4.0986261055
 10
-2.4399887118
 20
4.0986261055
 10
-2.4389008688
 20
4.0999677785
 10
-2.4375229343
 20
4.1007292686
 10
-2.4375229343
 20
4.1007292686
 10
-2.4356010784
 20
4.1004391771
 10
-2.4341506211
 20
4.0994963799
 10
-2.433135301
 20
4.0979733997
 10
-2.4326276409
 20
4.0958339751
 10
-2.4326276409
 20
4.0958339751
 10
-2.433389131
 20
4.0924616619
 10
-2.433389131
 20
4.0924616619
 10
-2.4768303276
 20
3.9132576604
 10
-2.4768303276
 20
3.9132576604
 10
-2.4779906935
 20
3.9114083273
 10
-2.4796587194
 20
3.9104292686
 10
-2.4796587194
 20
3.9104292686
 10
-2.4813630068
 20
3.9106105758
 10
-2.4827046798
 20
3.9111907587
 10
-2.4827046798
 20
3.9111907587
 10
-2.4841913985
 20
3.913475229
 10
-2.4841913985
 20
3.913475229
 10
-2.5021408078
 20
3.9867958463
 10
-2.5021408078
 20
3.9867958463
 10
-2.5025396836
 20
3.9862881863
 10
-2.5025396836
 20
3.9862881863
 10
-2.5206704
 20
3.9132213989
 10
-2.5206704
 20
3.9132213989
 10
-2.5217945045
 20
3.9113720658
 10
-2.5233174846
 20
3.9104292686
 10
-2.5233174846
 20
3.9104292686
 10
-2.5251668177
 20
3.9106105758
 10
-2.5265447522
 20
3.9111907587
 10
-2.5265447522
 20
3.9111907587
 10
-2.5278501638
 20
3.9135477518
 10
-2.5278501638
 20
3.9135477518
 10
-2.5718715433
 20
4.0952900537
 10
-2.5718715433
 20
4.0952900537
 10
-2.571762759
 20
4.0968492953
 10
-2.5714001447
 20
4.0981547069
 10
-2.5708199618
 20
4.099170027
 10
-2.5699859488
 20
4.0999677785
 10
-2.5699859488
 20
4.0999677785
 10
-2.5688981058
 20
4.1005479614
 10
-2.5679190471
 20
4.1007292686
 10
-2.5679190471
 20
4.1007292686
 10
-2.5668312042
 20
4.1005842229
 10
-2.5659246683
 20
4.1001490857
 10
-2.5651269168
 20
4.0993875956
 10
-2.5645104725
 20
4.0983722755
  0
LWPOLYLINE
  5
A1
330
1F
100
AcDbEntity
  8
0
  6
Continuous
 62
     7
100
AcDbPolyline
 90
       30
 70
   128
 43
0.0
 10
-2.3051321976
 20
4.1004754386
 10
-2.3042621683
 20
4.1000765628
 10
-2.3035732011
 20
4.0994601184
 10
-2.3030292796
 20
4.0985173212
 10
-2.3026666653
 20
4.0973569553
 10
-2.3026666653
 20
4.0973569553
 10
-2.3026666653
 20
4.0929693219
 10
-2.3026666653
 20
4.0929693219
 10
-2.3026666653
 20
3.9145630719
 10
-2.3026666653
 20
3.9145630719
 10
-2.3033556325
 20
3.9123148631
 10
-2.304733567
 20
3.9106830986
 10
-2.304733567
 20
3.9106830986
 10
-2.30607524
 20
3.9104292686
 10
-2.30607524
 20
3.9104292686
 10
-2.3953508879
 20
3.9104292686
 10
-2.3953508879
 20
3.9104292686
 10
-2.3969101295
 20
3.911807203
 10
-2.3978166653
 20
3.9138015819
 10
-2.3978166653
 20
3.9138015819
 10
-2.3978166653
 20
3.9189507053
 10
-2.3978166653
 20
3.9189507053
 10
-2.3978166653
 20
4.0971031253
 10
-2.3978166653
 20
4.0971031253
 10
-2.3973815281
 20
4.0982997526
 10
-2.3967288223
 20
4.0993150727
 10
-2.395786025
 20
4.1001128242
 10
-2.3945893978
 20
4.1007292686
 10
-2.3945893978
 20
4.1007292686
 10
-2.3051324427
 20
4.1004754386
  0
LWPOLYLINE
  5
A2
330
1F
100
AcDbEntity
  8
0
  6
Continuous
 62
     7
100
AcDbPolyline
 90
        8
 70
   128
 43
0.0
 10
-2.309628359
 20
3.9197121954
 10
-2.3096288604
 20
4.0914463418
 10
-2.3096288604
 20
4.0914463418
 10
-2.3908544702
 20
4.0914463418
 10
-2.3908544702
 20
4.0914463418
 10
-2.3908544702
 20
3.9197121954
 10
-2.3908544702
 20
3.9197121954
 10
-2.3096288604
 20
3.9197121954
  0
LWPOLYLINE
  5
A3
330
1F
100
AcDbEntity
  8
0
  6
Continuous
 62
     7
100
AcDbPolyline
 90
       70
 70
   128
 43
0.0
 10
-2.1958761797
 20
4.099170027
 10
-2.173068304
 20
4.0672237046
 10
-2.173068304
 20
4.0672237046
 10
-2.1727056897
 20
4.0648667114
 10
-2.1727056897
 20
4.0648667114
 10
-2.1727056897
 20
4.033174219
 10
-2.1727056897
 20
4.033174219
 10
-2.173068304
 20
4.0313611474
 10
-2.173068304
 20
4.0313611474
 10
-2.1965294511
 20
3.999414825
 10
-2.1965294511
 20
3.999414825
 10
-2.1982337385
 20
3.9986170735
 10
-2.1982337385
 20
3.9986170735
 10
-2.2324645311
 20
3.9986170735
 10
-2.2324645311
 20
3.9986170735
 10
-2.1732858726
 20
3.9178991238
 10
-2.1732858726
 20
3.9178991238
 10
-2.1728507354
 20
3.9160497907
 10
-2.1727056897
 20
3.915070732
 10
-2.1727056897
 20
3.915070732
 10
-2.1727056897
 20
3.9147806405
 10
-2.1727056897
 20
3.9143817648
 10
-2.1727056897
 20
3.9143817648
 10
-2.1720892453
 20
3.9141641962
 10
-2.1718716767
 20
3.913982889
 10
-2.1720892453
 20
3.9138015819
 10
-2.1727056897
 20
3.9136927976
 10
-2.1727056897
 20
3.9136927976
 10
-2.1731408269
 20
3.9125324317
 10
-2.1736847484
 20
3.9115896344
 10
-2.1743737156
 20
3.9109006672
 10
-2.1751714671
 20
3.9104292686
 10
-2.1751714671
 20
3.9104292686
 10
-2.1764768787
 20
3.91046553
 10
-2.1774921988
 20
3.9106105758
 10
-2.1782899504
 20
3.9108644058
 10
-2.1787976104
 20
3.9111907587
 10
-2.1787976104
 20
3.9111907587
 10
-2.2444670654
 20
3.9986170735
 10
-2.2444670654
 20
3.9986170735
 10
-2.2608934946
 20
3.9986170735
 10
-2.2608934946
 20
3.9986170735
 10
-2.2608934946
 20
3.9144905491
 10
-2.2608934946
 20
3.9144905491
 10
-2.2614374161
 20
3.9126049546
 10
-2.2627065662
 20
3.9109369287
 10
-2.2627065662
 20
3.9109369287
 10
-2.263359272
 20
3.9105743143
 10
-2.2643745921
 20
3.9104292686
 10
-2.2643745921
 20
3.9104292686
 10
-2.2658613109
 20
3.9107193601
 10
-2.2669491539
 20
3.9115896344
 10
-2.2673480296
 20
3.9123148631
 10
-2.2676381211
 20
3.9132939218
 10
-2.2677831668
 20
3.9145630719
 10
-2.2678556897
 20
3.9161223136
 10
-2.2678556897
 20
3.9161223136
 10
-2.2678556897
 20
4.0968492953
 10
-2.2678556897
 20
4.0968492953
 10
-2.2674930754
 20
4.0980096611
 10
-2.2669491539
 20
4.0989887198
 10
-2.2662601866
 20
4.0997139485
 10
-2.2653899122
 20
4.1002216085
 10
-2.2653899122
 20
4.1002216085
 10
-2.2614374161
 20
4.1004754386
 10
-2.2614374161
 20
4.1004754386
 10
-2.1988864443
 20
4.1007292686
 10
-2.1988864443
 20
4.1007292686
 10
-2.197109634
 20
4.1003303928
 10
-2.1958767453
 20
4.099170027
  0
LWPOLYLINE
  5
A4
330
1F
100
AcDbEntity
  8
0
  6
Continuous
 62
     7
100
AcDbPolyline
 90
       12
 70
   128
 43
0.0
 10
-2.179666767
 20
4.0632349469
 10
-2.19953915
 20
4.0914463418
 10
-2.19953915
 20
4.0914463418
 10
-2.2608934946
 20
4.0914463418
 10
-2.2608934946
 20
4.0914463418
 10
-2.2608934946
 20
4.0079000003
 10
-2.2608934946
 20
4.0079000003
 10
-2.1997204572
 20
4.0079000003
 10
-2.1997204572
 20
4.0079000003
 10
-2.1796678848
 20
4.0364014866
 10
-2.1796678848
 20
4.0364014866
 10
-2.1796678848
 20
4.0632349469
  0
LWPOLYLINE
  5
A5
330
1F
100
AcDbEntity
  8
0
  6
Continuous
 62
     7
100
AcDbPolyline
 90
       72
 70
   128
 43
0.0
 10
-2.0441588924
 20
4.099170027
 10
-2.043578727
 20
4.0982634912
 10
-2.0431435898
 20
4.0971756482
 10
-2.0428897598
 20
4.0957977137
 10
-2.0428172369
 20
4.0942384721
 10
-2.0428172369
 20
4.0942384721
 10
-2.0433974199
 20
4.0921715704
 10
-2.0433974199
 20
4.0921715704
 10
-2.1064560517
 20
4.0051803928
 10
-2.1064560517
 20
4.0051803928
 10
-2.0433974199
 20
3.9179353852
 10
-2.0433974199
 20
3.9179353852
 10
-2.0429622827
 20
3.9160497907
 10
-2.0428172369
 20
3.915070732
 10
-2.0428172369
 20
3.915070732
 10
-2.0428534984
 20
3.9142729805
 10
-2.0429985441
 20
3.9136927976
 10
-2.0429985441
 20
3.9136927976
 10
-2.0434336813
 20
3.9125324317
 10
-2.0439776028
 20
3.9115896344
 10
-2.04466657
 20
3.9109006672
 10
-2.0454643215
 20
3.9104292686
 10
-2.0454643215
 20
3.9104292686
 10
-2.0467697331
 20
3.91046553
 10
-2.0477850532
 20
3.9106105758
 10
-2.0485828048
 20
3.9108644058
 10
-2.0490904648
 20
3.9111907587
 10
-2.0490904648
 20
3.9111907587
 10
-2.1145786127
 20
3.9986170735
 10
-2.1145786127
 20
3.9986170735
 10
-2.1309325189
 20
3.9986170735
 10
-2.1309325189
 20
3.9986170735
 10
-2.1309325189
 20
3.9144905491
 10
-2.1309325189
 20
3.9144905491
 10
-2.1314764404
 20
3.9126049546
 10
-2.1327455906
 20
3.9109369287
 10
-2.1327455906
 20
3.9109369287
 10
-2.1333982964
 20
3.9105743143
 10
-2.1344136165
 20
3.9104292686
 10
-2.1344136165
 20
3.9104292686
 10
-2.1359003353
 20
3.9107193601
 10
-2.1369881782
 20
3.9115896344
 10
-2.137387054
 20
3.9123148631
 10
-2.1376771455
 20
3.9132939218
 10
-2.1378221912
 20
3.9145630719
 10
-2.1378947141
 20
3.9161223136
 10
-2.1378947141
 20
3.9161223136
 10
-2.1378947141
 20
4.0971031253
 10
-2.1378947141
 20
4.0971031253
 10
-2.1375320997
 20
4.0985173212
 10
-2.1368793939
 20
4.0995689027
 10
-2.136045381
 20
4.1003303928
 10
-2.1349212766
 20
4.1007292686
 10
-2.1349212766
 20
4.1007292686
 10
-2.1332532507
 20
4.1003666543
 10
-2.1320203619
 20
4.0992425498
 10
-2.1315489633
 20
4.0982997526
 10
-2.131186349
 20
4.0968855567
 10
-2.1310050418
 20
4.0950362236
 10
-2.1309325189
 20
4.0927154919
 10
-2.1309325189
 20
4.0927154919
 10
-2.1309325189
 20
4.0079000003
 10
-2.1309325189
 20
4.0079000003
 10
-2.1145786127
 20
4.0079000003
 10
-2.1145786127
 20
4.0079000003
 10
-2.0487278505
 20
4.0999315171
 10
-2.0487278505
 20
4.0999315171
 10
-2.0478938375
 20
4.1005479614
 10
-2.0469873017
 20
4.1007292686
 10
-2.0469873017
 20
4.1007292686
 10
-2.045500583
 20
4.1003303928
 10
-2.04415891
 20
4.099170027
  0
LWPOLYLINE
  5
A6
330
1F
100
AcDbEntity
  8
0
  6
Continuous
 62
     7
100
AcDbPolyline
 90
       85
 70
   128
 43
0.0
 10
-1.9377305752
 20
4.0992062884
 10
-1.9154670845
 20
4.0676951032
 10
-1.9154670845
 20
4.0676951032
 10
-1.915176993
 20
4.0666072602
 10
-1.9151044702
 20
4.0653743715
 10
-1.9151044702
 20
4.0653743715
 10
-1.915176993
 20
4.0645403585
 10
-1.9154670845
 20
4.0635975613
 10
-1.9154670845
 20
4.0635975613
 10
-1.9158659603
 20
4.0622196268
 10
-1.9165549275
 20
4.0611680453
 10
-1.9175339862
 20
4.0604065552
 10
-1.9187668749
 20
4.0600076794
 10
-1.9187668749
 20
4.0600076794
 10
-1.9205436851
 20
4.0608054309
 10
-1.9218853581
 20
4.062147104
 10
-1.9218853581
 20
4.062147104
 10
-1.9416841005
 20
4.0914463418
 10
-1.9416841005
 20
4.0914463418
 10
-1.9811002781
 20
4.0914463418
 10
-1.9811002781
 20
4.0914463418
 10
-1.9983244587
 20
4.0667160445
 10
-1.9983244587
 20
4.0667160445
 10
-1.9156483917
 20
3.9484675117
 10
-1.9156483917
 20
3.9484675117
 10
-1.9152495159
 20
3.947488453
 10
-1.9151044702
 20
3.9461105186
 10
-1.9151044702
 20
3.9461105186
 10
-1.9151044702
 20
3.9456028585
 10
-1.9151044702
 20
3.945058937
 10
-1.9151044702
 20
3.945058937
 10
-1.9144880258
 20
3.9446963227
 10
-1.9142704572
 20
3.9444424927
 10
-1.9144880258
 20
3.9441886626
 10
-1.9151044702
 20
3.9440436169
 10
-1.9151044702
 20
3.9440436169
 10
-1.916011006
 20
3.9424481139
 10
-1.916011006
 20
3.9424481139
 10
-1.9383117872
 20
3.9106830986
 10
-1.9383117872
 20
3.9106830986
 10
-1.9401611203
 20
3.9104292686
 10
-1.9401611203
 20
3.9104292686
 10
-1.9841824999
 20
3.9104292686
 10
-1.9841824999
 20
3.9104292686
 10
-1.9852703429
 20
3.9114083273
 10
-1.9852703429
 20
3.9114083273
 10
-2.0075711241
 20
3.9413965323
 10
-2.0075711241
 20
3.9413965323
 10
-2.0078249542
 20
3.9427744668
 10
-2.0079337385
 20
3.9438623097
 10
-2.0079337385
 20
3.9438623097
 10
-2.007897477
 20
3.9448776299
 10
-2.0077524313
 20
3.9455665971
 10
-2.0077524313
 20
3.9455665971
 10
-2.0071722484
 20
3.9468720087
 10
-2.0063744968
 20
3.9478873288
 10
-2.0053954382
 20
3.948576296
 10
-2.0041625494
 20
3.9489751718
 10
-2.0041625494
 20
3.9489751718
 10
-2.0024220007
 20
3.9484675117
 10
-2.0009715433
 20
3.9469445315
 10
-2.0009715433
 20
3.9469445315
 10
-1.9806288795
 20
3.9197121954
 10
-1.9806288795
 20
3.9197121954
 10
-1.9401611203
 20
3.9197121954
 10
-1.9401611203
 20
3.9197121954
 10
-1.9224655411
 20
3.9444424927
 10
-1.9224655411
 20
3.9444424927
 10
-2.0075711241
 20
4.0624371954
 10
-2.0075711241
 20
4.0624371954
 10
-2.0078249542
 20
4.063488777
 10
-2.0079337385
 20
4.0650480186
 10
-2.0079337385
 20
4.0650480186
 10
-2.007897477
 20
4.0660270773
 10
-2.0077524313
 20
4.0668610902
 10
-2.0077524313
 20
4.0668610902
 10
-2.0070272026
 20
4.0687104233
 10
-2.0070272026
 20
4.0687104233
 10
-1.9845813757
 20
4.1002216085
 10
-1.9845813757
 20
4.1002216085
 10
-1.9834935327
 20
4.1007292686
 10
-1.9834935327
 20
4.1007292686
 10
-1.9390007545
 20
4.1004754386
 10
-1.9390007545
 20
4.1004754386
 10
-1.9377316043
 20
4.0992062884
  0
LWPOLYLINE
  5
A7
330
1F
100
AcDbEntity
  8
0
  6
Continuous
 62
     7
100
AcDbPolyline
 90
       64
 70
   128
 43
0.0
 10
-1.6555811946
 20
4.1005117
 10
-1.6545660746
 20
4.1001128242
 10
-1.6537683231
 20
4.099423857
 10
-1.6532244016
 20
4.098336014
 10
-1.6529343101
 20
4.0969580796
 10
-1.6529343101
 20
4.0969580796
 10
-1.6531881401
 20
4.0946010864
 10
-1.6539858917
 20
4.0928605376
 10
-1.6546748589
 20
4.0922440933
 10
-1.6556539176
 20
4.0918089561
 10
-1.6569955906
 20
4.0915188646
 10
-1.6586273551
 20
4.0914463418
 10
-1.6586273551
 20
4.0914463418
 10
-1.7410495921
 20
4.0914463418
 10
-1.7410495921
 20
4.0914463418
 10
-1.7410495921
 20
4.0079000003
 10
-1.7410495921
 20
4.0079000003
 10
-1.6997115586
 20
4.0079000003
 10
-1.6997115586
 20
4.0079000003
 10
-1.6983698856
 20
4.0072110331
 10
-1.6973908269
 20
4.0062682358
 10
-1.6968106439
 20
4.0049990857
 10
-1.6966293368
 20
4.0034761055
 10
-1.6966293368
 20
4.0034761055
 10
-1.6968106439
 20
4.0018080796
 10
-1.697318304
 20
4.0003576222
 10
-1.6977897026
 20
3.9997774393
 10
-1.6985149313
 20
3.9992697793
 10
-1.6995665129
 20
3.9989071649
 10
-1.7008719244
 20
3.9986170735
 10
-1.7008719244
 20
3.9986170735
 10
-1.7410495921
 20
3.9986170735
 10
-1.7410495921
 20
3.9986170735
 10
-1.7410495921
 20
3.9197121954
 10
-1.7410495921
 20
3.9197121954
 10
-1.6561615776
 20
3.9197121954
 10
-1.6561615776
 20
3.9197121954
 10
-1.6547473818
 20
3.9191682739
 10
-1.6537320616
 20
3.9182254767
 10
-1.6531518787
 20
3.9168475422
 10
-1.6529343101
 20
3.915070732
 10
-1.6529343101
 20
3.915070732
 10
-1.6531518787
 20
3.9135114904
 10
-1.6538045845
 20
3.9119522488
 10
-1.654348506
 20
3.911299543
 10
-1.6550737346
 20
3.9108281444
 10
-1.6560890548
 20
3.9105380529
 10
-1.6572856821
 20
3.9104292686
 10
-1.6572856821
 20
3.9104292686
 10
-1.7455460098
 20
3.9104292686
 10
-1.7455460098
 20
3.9104292686
 10
-1.7471052514
 20
3.911807203
 10
-1.7480117872
 20
3.9138015819
 10
-1.7480117872
 20
3.9138015819
 10
-1.7480117872
 20
3.9189507053
 10
-1.7480117872
 20
3.9189507053
 10
-1.7480117872
 20
4.0971031253
 10
-1.7480117872
 20
4.0971031253
 10
-1.74757665
 20
4.0982997526
 10
-1.7469239443
 20
4.0993150727
 10
-1.745981147
 20
4.1001128242
 10
-1.7448207811
 20
4.1007292686
 10
-1.7448207811
 20
4.1007292686
 10
-1.6555813947
 20
4.1005117
  0
LWPOLYLINE
  5
A8
330
1F
100
AcDbEntity
  8
0
  6
Continuous
 62
     7
100
AcDbPolyline
 90
       55
 70
   128
 43
0.0
 10
-1.5239159423
 20
4.0993150727
 10
-1.5234809946
 20
4.0983722755
 10
-1.5231546417
 20
4.0970306024
 10
-1.5229733345
 20
4.0952175308
 10
-1.5229008116
 20
4.0929693219
 10
-1.5229008116
 20
4.0929693219
 10
-1.5229008116
 20
3.9145630719
 10
-1.5229008116
 20
3.9145630719
 10
-1.5232996874
 20
3.9127500003
 10
-1.5240249161
 20
3.9114808501
 10
-1.5250402362
 20
3.9106830986
 10
-1.5263819092
 20
3.9104292686
 10
-1.5263819092
 20
3.9104292686
 10
-1.5277598436
 20
3.9107556215
 10
-1.5288839481
 20
3.9116621573
 10
-1.5296091767
 20
3.9133301832
 10
-1.5298630068
 20
3.915904745
 10
-1.5298630068
 20
3.915904745
 10
-1.5298630068
 20
3.9603250003
 10
-1.5298630068
 20
3.9603250003
 10
-1.5681550799
 20
3.9106830986
 10
-1.5681550799
 20
3.9106830986
 10
-1.5694967529
 20
3.9104292686
 10
-1.5694967529
 20
3.9104292686
 10
-1.5934655601
 20
3.9104292686
 10
-1.5934655601
 20
3.9104292686
 10
-1.594625926
 20
3.9114445887
 10
-1.594625926
 20
3.9114445887
 10
-1.6178695045
 20
3.9431008197
 10
-1.6178695045
 20
3.9431008197
 10
-1.6180508116
 20
3.9456753814
 10
-1.6180508116
 20
3.9456753814
 10
-1.6180508116
 20
4.0069209416
 10
-1.6180508116
 20
4.0069209416
 10
-1.6172893215
 20
4.0087340133
 10
-1.6172893215
 20
4.0087340133
 10
-1.5938644359
 20
4.0398825841
 10
-1.5938644359
 20
4.0398825841
 10
-1.5919425799
 20
4.0403902442
 10
-1.5919425799
 20
4.0403902442
 10
-1.5690978772
 20
4.0401364142
 10
-1.5690978772
 20
4.0401364142
 10
-1.567574897
 20
4.0393386626
 10
-1.567574897
 20
4.0393386626
 10
-1.5298630068
 20
3.9875573364
 10
-1.5298630068
 20
3.9875573364
 10
-1.5298630068
 20
4.0973206939
 10
-1.5298630068
 20
4.0973206939
 10
-1.5293916081
 20
4.0986261055
 10
-1.5288114252
 20
4.0996414256
 10
-1.528122458
 20
4.1003303928
 10
-1.5273247064
 20
4.1007292686
 10
-1.5273247064
 20
4.1007292686
 10
-1.5252578048
 20
4.1003666543
 10
-1.5239161318
 20
4.0993150727
  0
LWPOLYLINE
  5
A9
330
1F
100
AcDbEntity
  8
0
  6
Continuous
 62
     7
100
AcDbPolyline
 90
       14
 70
   128
 43
0.0
 10
-1.5327627734
 20
3.9754097564
 10
-1.5725789747
 20
4.0311073174
 10
-1.5725789747
 20
4.0311073174
 10
-1.5914711813
 20
4.0311073174
 10
-1.5914711813
 20
4.0311073174
 10
-1.6110886165
 20
4.0040562884
 10
-1.6110886165
 20
4.0040562884
 10
-1.6110886165
 20
3.9470170544
 10
-1.6110886165
 20
3.9470170544
 10
-1.5914711813
 20
3.9197121954
 10
-1.5914711813
 20
3.9197121954
 10
-1.5727965433
 20
3.9197121954
 10
-1.5727965433
 20
3.9197121954
 10
-1.5327639214
 20
3.9754097564
  0
LWPOLYLINE
  5
AA
330
1F
100
AcDbEntity
  8
0
  6
Continuous
 62
     7
100
AcDbPolyline
 90
       64
 70
   128
 43
0.0
 10
-1.4822513569
 20
4.0389397869
 10
-1.4817440853
 20
4.0379969896
 10
-1.4814177324
 20
4.0366553166
 10
-1.4812001638
 20
4.0348059835
 10
-1.4811276409
 20
4.0325577747
 10
-1.4811276409
 20
4.0325577747
 10
-1.4811276409
 20
3.9465456558
 10
-1.4811276409
 20
3.9465456558
 10
-1.4612563757
 20
3.9197121954
 10
-1.4612563757
 20
3.9197121954
 10
-1.4421466005
 20
3.9197121954
 10
-1.4421466005
 20
3.9197121954
 10
-1.3999020311
 20
3.9770415209
 10
-1.3999020311
 20
3.9770415209
 10
-1.3999020311
 20
4.0364740094
 10
-1.3999020311
 20
4.0364740094
 10
-1.3995394168
 20
4.037779421
 10
-1.3989229725
 20
4.0389035255
 10
-1.3981252209
 20
4.0397375384
 10
-1.3970736394
 20
4.0403902442
 10
-1.3970736394
 20
4.0403902442
 10
-1.3955506592
 20
4.0400638913
 10
-1.3939188947
 20
4.039121094
 10
-1.3939188947
 20
4.039121094
 10
-1.3934837575
 20
4.0381420354
 10
-1.3931936661
 20
4.0367278395
 10
-1.3930123589
 20
4.0349147678
 10
-1.392939836
 20
4.032666559
 10
-1.392939836
 20
4.032666559
 10
-1.392939836
 20
3.9145630719
 10
-1.392939836
 20
3.9145630719
 10
-1.3933387118
 20
3.9127500003
 10
-1.3940639404
 20
3.9114808501
 10
-1.3950792606
 20
3.9106830986
 10
-1.3964209336
 20
3.9104292686
 10
-1.3964209336
 20
3.9104292686
 10
-1.397798868
 20
3.9107556215
 10
-1.3989229725
 20
3.9116621573
 10
-1.3996482011
 20
3.9133301832
 10
-1.3999020311
 20
3.915904745
 10
-1.3999020311
 20
3.915904745
 10
-1.3999020311
 20
3.9603250003
 10
-1.3999020311
 20
3.9603250003
 10
-1.4381941043
 20
3.9106830986
 10
-1.4381941043
 20
3.9106830986
 10
-1.4395357773
 20
3.9104292686
 10
-1.4395357773
 20
3.9104292686
 10
-1.4635045845
 20
3.9104292686
 10
-1.4635045845
 20
3.9104292686
 10
-1.4646649504
 20
3.9114445887
 10
-1.4646649504
 20
3.9114445887
 10
-1.4876909603
 20
3.9431008197
 10
-1.4876909603
 20
3.9431008197
 10
-1.488089836
 20
3.9456753814
 10
-1.488089836
 20
3.9456753814
 10
-1.488089836
 20
4.0370541924
 10
-1.488089836
 20
4.0370541924
 10
-1.4877272217
 20
4.0381420354
 10
-1.4871470388
 20
4.0390485712
 10
-1.4863855487
 20
4.0398100613
 10
-1.4853702286
 20
4.0403902442
 10
-1.4853702286
 20
4.0403902442
 10
-1.4835571569
 20
4.0400276299
 10
-1.4822517453
 20
4.0389397869
  0
LWPOLYLINE
  5
AB
330
1F
100
AcDbEntity
  8
0
  6
Continuous
 62
     7
100
AcDbPolyline
 90
       54
 70
   128
 43
0.0
 10
-1.2655169006
 20
4.0401726756
 10
-1.2641029648
 20
4.0391936169
 10
-1.2632689519
 20
4.037525591
 10
-1.2632689519
 20
4.037525591
 10
-1.2634139976
 20
4.0348059835
 10
-1.2638491348
 20
4.0328841276
 10
-1.2638491348
 20
4.0328841276
 10
-1.2645743635
 20
4.0321226375
 10
-1.2654808993
 20
4.0315424546
 10
-1.2665687423
 20
4.0312161017
 10
-1.2678378924
 20
4.0311073174
 10
-1.2678378924
 20
4.0311073174
 10
-1.3315854915
 20
4.0311073174
 10
-1.3315854915
 20
4.0311073174
 10
-1.3511666653
 20
4.0038387198
 10
-1.3511666653
 20
4.0038387198
 10
-1.3511666653
 20
3.946980793
 10
-1.3511666653
 20
3.946980793
 10
-1.3315492301
 20
3.9197121954
 10
-1.3315492301
 20
3.9197121954
 10
-1.2662786508
 20
3.9197121954
 10
-1.2662786508
 20
3.9197121954
 10
-1.2654083764
 20
3.9194946268
 10
-1.2646831478
 20
3.9189869668
 10
-1.2640667034
 20
3.9182617381
 10
-1.2636315662
 20
3.9172826794
 10
-1.2636315662
 20
3.9172826794
 10
-1.263196429
 20
3.916158575
 10
-1.2630513833
 20
3.915070732
 10
-1.2630513833
 20
3.915070732
 10
-1.2632689519
 20
3.9135114904
 10
-1.2639216577
 20
3.9119522488
 10
-1.2644655792
 20
3.911299543
 10
-1.2651908078
 20
3.9108281444
 10
-1.2662061279
 20
3.9105380529
 10
-1.2674027552
 20
3.9104292686
 10
-1.2674027552
 20
3.9104292686
 10
-1.3339787461
 20
3.9104292686
 10
-1.3339787461
 20
3.9104292686
 10
-1.3351028505
 20
3.9114445887
 10
-1.3351028505
 20
3.9114445887
 10
-1.3581288604
 20
3.9431008197
 10
-1.3581288604
 20
3.9431008197
 10
-1.3581288604
 20
3.9456753814
 10
-1.3581288604
 20
3.9456753814
 10
-1.3579475532
 20
4.0069209416
 10
-1.3579475532
 20
4.0069209416
 10
-1.3571860632
 20
4.0087340133
 10
-1.3571860632
 20
4.0087340133
 10
-1.3342325761
 20
4.0398825841
 10
-1.3342325761
 20
4.0398825841
 10
-1.3331084717
 20
4.0403902442
 10
-1.3331084717
 20
4.0403902442
 10
-1.2655171607
 20
4.0401726756
  0
LWPOLYLINE
  5
AC
330
1F
100
AcDbEntity
  8
0
  6
Continuous
 62
     7
100
AcDbPolyline
 90
       50
 70
   128
 43
0.0
 10
-1.1791423784
 20
4.0393749241
 10
-1.1565878162
 20
4.0077186931
 10
-1.1565878162
 20
4.0077186931
 10
-1.1562252019
 20
4.0061594515
 10
-1.1562252019
 20
4.0061594515
 10
-1.1562252019
 20
3.9479961131
 10
-1.1562252019
 20
3.9479961131
 10
-1.1336705906
 20
3.9184067838
 10
-1.1336705906
 20
3.9184067838
 10
-1.1332354534
 20
3.9165574508
 10
-1.1330904077
 20
3.9155783921
 10
-1.1330904077
 20
3.9155783921
 10
-1.1331266691
 20
3.9146718562
 10
-1.1332717148
 20
3.9140191505
 10
-1.1332717148
 20
3.9140191505
 10
-1.133706852
 20
3.9127500003
 10
-1.1342507735
 20
3.9116984187
 10
-1.1349397407
 20
3.9109369287
 10
-1.1357374923
 20
3.9104292686
 10
-1.1357374923
 20
3.9104292686
 10
-1.1370066424
 20
3.91046553
 10
-1.1380219625
 20
3.9105380529
 10
-1.1387834526
 20
3.9106830986
 10
-1.1392911127
 20
3.9109006672
 10
-1.1392911127
 20
3.9109006672
 10
-1.1588722865
 20
3.9352320887
 10
-1.1588722865
 20
3.9352320887
 10
-1.178852336
 20
3.9106468372
 10
-1.178852336
 20
3.9106468372
 10
-1.1801577476
 20
3.9104292686
 10
-1.1801577476
 20
3.9104292686
 10
-1.2038727247
 20
3.9104292686
 10
-1.2038727247
 20
3.9104292686
 10
-1.2049968292
 20
3.9114445887
 10
-1.2049968292
 20
3.9114445887
 10
-1.2279865776
 20
3.9431008197
 10
-1.2279865776
 20
3.9431008197
 10
-1.2281678848
 20
3.9456753814
 10
-1.2281678848
 20
3.9456753814
 10
-1.2281678848
 20
4.0069209416
 10
-1.2281678848
 20
4.0069209416
 10
-1.2274426561
 20
4.0087340133
 10
-1.2274426561
 20
4.0087340133
 10
-1.2046704763
 20
4.0398825841
 10
-1.2046704763
 20
4.0398825841
 10
-1.2035826333
 20
4.0403902442
 10
-1.2035826333
 20
4.0403902442
 10
-1.1806291462
 20
4.0401364142
 10
-1.1806291462
 20
4.0401364142
 10
-1.1791424275
 20
4.0393749241
  0
LWPOLYLINE
  5
AD
330
1F
100
AcDbEntity
  8
0
  6
Continuous
 62
     7
100
AcDbPolyline
 90
       16
 70
   128
 43
0.0
 10
-1.1631869894
 20
4.0038024584
 10
-1.1827685708
 20
4.0311073174
 10
-1.1827685708
 20
4.0311073174
 10
-1.2016245159
 20
4.0311073174
 10
-1.2016245159
 20
4.0311073174
 10
-1.2212056897
 20
4.0040562884
 10
-1.2212056897
 20
4.0040562884
 10
-1.2212056897
 20
3.9470170544
 10
-1.2212056897
 20
3.9470170544
 10
-1.2016245159
 20
3.9197121954
 10
-1.2016245159
 20
3.9197121954
 10
-1.1827685708
 20
3.9197121954
 10
-1.1827685708
 20
3.9197121954
 10
-1.163187397
 20
3.9473071459
 10
-1.163187397
 20
3.9473071459
 10
-1.163187397
 20
4.0038024584
  0
LWPOLYLINE
  5
AE
330
1F
100
AcDbEntity
  8
0
  6
Continuous
 62
     7
100
AcDbPolyline
 90
       83
 70
   128
 43
0.0
 10
-1.0481658648
 20
4.0992425498
 10
-1.0477309946
 20
4.0982634912
 10
-1.0474046417
 20
4.0968492953
 10
-1.0472233345
 20
4.0949637008
 10
-1.0471508116
 20
4.0926067076
 10
-1.0471508116
 20
4.0926067076
 10
-1.0471508116
 20
4.0380695125
 10
-1.0471508116
 20
4.0380695125
 10
-1.0057765167
 20
4.0380695125
 10
-1.0057765167
 20
4.0380695125
 10
-1.0047611965
 20
4.0374893296
 10
-1.003963445
 20
4.0366553166
 10
-1.0034195235
 20
4.0355674736
 10
-1.0031294321
 20
4.0342258006
 10
-1.0031294321
 20
4.0342258006
 10
-1.0034195235
 20
4.0322676832
 10
-1.0042897979
 20
4.030490873
 10
-1.0050150266
 20
4.0297293829
 10
-1.0060303467
 20
4.0292217229
 10
-1.0073720197
 20
4.02889537
 10
-1.0090400456
 20
4.0287865857
 10
-1.0090400456
 20
4.0287865857
 10
-1.0471508116
 20
4.0287865857
 10
-1.0471508116
 20
4.0287865857
 10
-1.0471508116
 20
3.9453490285
 10
-1.0471508116
 20
3.9453490285
 10
-1.0291288795
 20
3.9204011626
 10
-1.0291288795
 20
3.9204011626
 10
-1.0090037842
 20
3.9481774203
 10
-1.0090037842
 20
3.9481774203
 10
-1.0081335098
 20
3.9487938646
 10
-1.0071181897
 20
3.9489751718
 10
-1.0071181897
 20
3.9489751718
 10
-1.0057765167
 20
3.9486125575
 10
-1.0044711051
 20
3.947488453
 10
-1.003455785
 20
3.9457841657
 10
-1.0031294321
 20
3.9436084797
 10
-1.0031294321
 20
3.9436084797
 10
-1.0034920464
 20
3.9411789637
 10
-1.0034920464
 20
3.9411789637
 10
-1.026663102
 20
3.9109006672
 10
-1.026663102
 20
3.9109006672
 10
-1.0274608536
 20
3.9105380529
 10
-1.0287300037
 20
3.9104292686
 10
-1.0287300037
 20
3.9104292686
 10
-1.0302167225
 20
3.9104292686
 10
-1.0302167225
 20
3.9104292686
 10
-1.031522134
 20
3.9119522488
 10
-1.031522134
 20
3.9119522488
 10
-1.0539316996
 20
3.9428832511
 10
-1.0539316996
 20
3.9428832511
 10
-1.0541130068
 20
3.9454578128
 10
-1.0541130068
 20
3.9454578128
 10
-1.0541130068
 20
4.0287865857
 10
-1.0541130068
 20
4.0287865857
 10
-1.0949796417
 20
4.0287865857
 10
-1.0949796417
 20
4.0287865857
 10
-1.0957773932
 20
4.0289678928
 10
-1.0965026218
 20
4.0294755529
 10
-1.0971190662
 20
4.0303458273
 10
-1.0976267263
 20
4.0315424546
 10
-1.0976267263
 20
4.0315424546
 10
-1.0980618635
 20
4.0331379576
 10
-1.0982069092
 20
4.0345884149
 10
-1.0982069092
 20
4.0345884149
 10
-1.0979530792
 20
4.036691578
 10
-1.0971553276
 20
4.0385771726
 10
-1.096430099
 20
4.0393749241
 10
-1.0952697331
 20
4.039955107
 10
-1.0937104915
 20
4.0402814599
 10
-1.0917523741
 20
4.0403902442
 10
-1.0917523741
 20
4.0403902442
 10
-1.0541130068
 20
4.0403902442
 10
-1.0541130068
 20
4.0403902442
 10
-1.0541130068
 20
4.0970668639
 10
-1.0541130068
 20
4.0970668639
 10
-1.0537503924
 20
4.0984810597
 10
-1.0531702095
 20
4.0995689027
 10
-1.0524087194
 20
4.1002941314
 10
-1.0513933993
 20
4.1007292686
 10
-1.0513933993
 20
4.1007292686
 10
-1.0494715433
 20
4.1003666543
 10
-1.0481661318
 20
4.0992425498
  0
LWPOLYLINE
  5
AF
330
1F
100
AcDbEntity
  8
0
  6
Continuous
 62
     7
100
AcDbPolyline
 90
       27
 70
   128
 43
0.0
 10
-0.9622988034
 20
4.0993150727
 10
-0.9618639214
 20
4.0984085369
 10
-0.9615375685
 20
4.0970306024
 10
-0.9613562613
 20
4.0952537922
 10
-0.9612837385
 20
4.0930055834
 10
-0.9612837385
 20
4.0930055834
 10
-0.9612837385
 20
4.0643953128
 10
-0.9612837385
 20
4.0643953128
 10
-0.9619364443
 20
4.0622558883
 10
-0.9629517644
 20
4.0610229995
 10
-0.9639670845
 20
4.0604428166
 10
-0.964764836
 20
4.0602615094
 10
-0.964764836
 20
4.0602615094
 10
-0.9662878162
 20
4.0605516009
 10
-0.9673756592
 20
4.0613493524
 10
-0.968028365
 20
4.0627272869
 10
-0.9682459336
 20
4.0646491428
 10
-0.9682459336
 20
4.0646491428
 10
-0.9682459336
 20
4.0971031253
 10
-0.9682459336
 20
4.0971031253
 10
-0.9678107964
 20
4.0985173212
 10
-0.967194352
 20
4.0995689027
 10
-0.9663966005
 20
4.1003303928
 10
-0.9654175418
 20
4.1007292686
 10
-0.9654175418
 20
4.1007292686
 10
-0.9635682087
 20
4.1003666543
 10
-0.9622990586
 20
4.0993150727
  0
LWPOLYLINE
  5
B0
330
1F
100
AcDbEntity
  8
0
  6
Continuous
 62
     7
100
AcDbPolyline
 90
       30
 70
   128
 43
0.0
 10
-0.9623715493
 20
4.0389760483
 10
-0.9619001828
 20
4.0380695125
 10
-0.9615375685
 20
4.036691578
 10
-0.9613562613
 20
4.0349147678
 10
-0.9612837385
 20
4.032666559
 10
-0.9612837385
 20
4.032666559
 10
-0.9612837385
 20
3.9145630719
 10
-0.9612837385
 20
3.9145630719
 10
-0.96182766
 20
3.912641216
 10
-0.9630968101
 20
3.9109369287
 10
-0.9630968101
 20
3.9109369287
 10
-0.9637495159
 20
3.9105743143
 10
-0.964764836
 20
3.9104292686
 10
-0.964764836
 20
3.9104292686
 10
-0.9662515548
 20
3.9107193601
 10
-0.9673393978
 20
3.9115896344
 10
-0.9677382735
 20
3.9123148631
 10
-0.968028365
 20
3.9132939218
 10
-0.9681734107
 20
3.9145630719
 10
-0.9682459336
 20
3.9160860521
 10
-0.9682459336
 20
3.9160860521
 10
-0.9682459336
 20
4.0365465323
 10
-0.9682459336
 20
4.0365465323
 10
-0.9678833193
 20
4.0378519439
 10
-0.9672668749
 20
4.0389397869
 10
-0.9664691234
 20
4.0397737998
 10
-0.9654175418
 20
4.0403902442
 10
-0.9654175418
 20
4.0403902442
 10
-0.9636407316
 20
4.0400276299
 10
-0.9623715814
 20
4.0389760483
  0
LWPOLYLINE
  5
B1
330
1F
100
AcDbEntity
  8
0
  6
Continuous
 62
     7
100
AcDbPolyline
 90
       32
 70
   128
 43
0.0
 10
-0.852172769
 20
4.039121094
 10
-0.8293646455
 20
4.0074648631
 10
-0.8293646455
 20
4.0074648631
 10
-0.8290020311
 20
4.0051441314
 10
-0.8290020311
 20
4.0051441314
 10
-0.8290020311
 20
3.9441524012
 10
-0.8290020311
 20
3.9441524012
 10
-0.8297635212
 20
3.9420854995
 10
-0.8297635212
 20
3.9420854995
 10
-0.8529345769
 20
3.9106830986
 10
-0.8529345769
 20
3.9106830986
 10
-0.8548201714
 20
3.9104292686
 10
-0.8548201714
 20
3.9104292686
 10
-0.8998568711
 20
3.9104292686
 10
-0.8998568711
 20
3.9104292686
 10
-0.9009809755
 20
3.9114445887
 10
-0.9009809755
 20
3.9114445887
 10
-0.923970724
 20
3.9431008197
 10
-0.923970724
 20
3.9431008197
 10
-0.9241520311
 20
3.9456753814
 10
-0.9241520311
 20
3.9456753814
 10
-0.9241520311
 20
4.0069209416
 10
-0.9241520311
 20
4.0069209416
 10
-0.9233905411
 20
4.0087340133
 10
-0.9233905411
 20
4.0087340133
 10
-0.9002194854
 20
4.0398825841
 10
-0.9002194854
 20
4.0398825841
 10
-0.899095381
 20
4.0403902442
 10
-0.899095381
 20
4.0403902442
 10
-0.8534784984
 20
4.0401364142
 10
-0.8534784984
 20
4.0401364142
 10
-0.8521730868
 20
4.039121094
  0
LWPOLYLINE
  5
B2
330
1F
100
AcDbEntity
  8
0
  6
Continuous
 62
     7
100
AcDbPolyline
 90
       16
 70
   128
 43
0.0
 10
-0.8359639429
 20
4.0038024584
 10
-0.8558354915
 20
4.0311073174
 10
-0.8558354915
 20
4.0311073174
 10
-0.8973185708
 20
4.0311073174
 10
-0.8973185708
 20
4.0311073174
 10
-0.917189836
 20
4.0040562884
 10
-0.917189836
 20
4.0040562884
 10
-0.917189836
 20
3.9470170544
 10
-0.917189836
 20
3.9470170544
 10
-0.8973185708
 20
3.9197121954
 10
-0.8973185708
 20
3.9197121954
 10
-0.8558354915
 20
3.9197121954
 10
-0.8558354915
 20
3.9197121954
 10
-0.8359642263
 20
3.9473071459
 10
-0.8359642263
 20
3.9473071459
 10
-0.8359642263
 20
4.0038024584
  0
LWPOLYLINE
  5
B3
330
1F
100
AcDbEntity
  8
0
  6
Continuous
 62
     7
100
AcDbPolyline
 90
       61
 70
   128
 43
0.0
 10
-0.7224657873
 20
4.039121094
 10
-0.6994399313
 20
4.0074648631
 10
-0.6994399313
 20
4.0074648631
 10
-0.6990410555
 20
4.0051441314
 10
-0.6990410555
 20
4.0051441314
 10
-0.6990410555
 20
3.9145630719
 10
-0.6990410555
 20
3.9145630719
 10
-0.6994399313
 20
3.9127500003
 10
-0.70016516
 20
3.9114808501
 10
-0.7011804801
 20
3.9106830986
 10
-0.7025221531
 20
3.9104292686
 10
-0.7025221531
 20
3.9104292686
 10
-0.7039000875
 20
3.9107556215
 10
-0.705024192
 20
3.9117346802
 10
-0.7057494206
 20
3.9135114904
 10
-0.7060032507
 20
3.916158575
 10
-0.7060032507
 20
3.916158575
 10
-0.7060032507
 20
4.0039837655
 10
-0.7060032507
 20
4.0039837655
 10
-0.7258745159
 20
4.0311073174
 10
-0.7258745159
 20
4.0311073174
 10
-0.7449842911
 20
4.0311073174
 10
-0.7449842911
 20
4.0311073174
 10
-0.7872288604
 20
3.9740318219
 10
-0.7872288604
 20
3.9740318219
 10
-0.7872288604
 20
3.9145993334
 10
-0.7872288604
 20
3.9145993334
 10
-0.7877727819
 20
3.912641216
 10
-0.7890419321
 20
3.9109369287
 10
-0.7890419321
 20
3.9109369287
 10
-0.7896946379
 20
3.9105743143
 10
-0.790709958
 20
3.9104292686
 10
-0.790709958
 20
3.9104292686
 10
-0.7921966767
 20
3.9107193601
 10
-0.7932845197
 20
3.9115896344
 10
-0.7936833955
 20
3.9123148631
 10
-0.7939734869
 20
3.9132939218
 10
-0.7941185327
 20
3.9145630719
 10
-0.7941910555
 20
3.9160860521
 10
-0.7941910555
 20
3.9160860521
 10
-0.7941910555
 20
4.0367641009
 10
-0.7941910555
 20
4.0367641009
 10
-0.7938284412
 20
4.0381782968
 10
-0.7931757354
 20
4.0392298783
 10
-0.7923417225
 20
4.0399913684
 10
-0.791217618
 20
4.0403902442
 10
-0.791217618
 20
4.0403902442
 10
-0.7896583764
 20
4.0400638913
 10
-0.7883892263
 20
4.0390485712
 10
-0.7878815662
 20
4.0381782968
 10
-0.7875189519
 20
4.0368366238
 10
-0.7873013833
 20
4.0350235521
 10
-0.7872288604
 20
4.0327390819
 10
-0.7872288604
 20
4.0327390819
 10
-0.7872288604
 20
3.9878474279
 10
-0.7872288604
 20
3.9878474279
 10
-0.7478126828
 20
4.0403902442
 10
-0.7478126828
 20
4.0403902442
 10
-0.7238076142
 20
4.0401364142
 10
-0.7238076142
 20
4.0401364142
 10
-0.7224659412
 20
4.039121094
  0
LWPOLYLINE
  5
B4
330
1F
100
AcDbEntity
  8
0
  6
Continuous
 62
     7
100
AcDbPolyline
 90
       50
 70
   128
 43
0.0
 10
-0.6152044131
 20
4.0393749241
 10
-0.5926500113
 20
4.0077186931
 10
-0.5926500113
 20
4.0077186931
 10
-0.592287397
 20
4.0061594515
 10
-0.592287397
 20
4.0061594515
 10
-0.592287397
 20
3.9479961131
 10
-0.592287397
 20
3.9479961131
 10
-0.5697327857
 20
3.9184067838
 10
-0.5697327857
 20
3.9184067838
 10
-0.5692976485
 20
3.9165574508
 10
-0.5691526028
 20
3.9155783921
 10
-0.5691526028
 20
3.9155783921
 10
-0.5691888642
 20
3.9146718562
 10
-0.56933391
 20
3.9140191505
 10
-0.56933391
 20
3.9140191505
 10
-0.5697690471
 20
3.9127500003
 10
-0.5703129686
 20
3.9116984187
 10
-0.5710019359
 20
3.9109369287
 10
-0.5717996874
 20
3.9104292686
 10
-0.5717996874
 20
3.9104292686
 10
-0.5730688375
 20
3.91046553
 10
-0.5740841577
 20
3.9105380529
 10
-0.5748456478
 20
3.9106830986
 10
-0.5753533078
 20
3.9109006672
 10
-0.5753533078
 20
3.9109006672
 10
-0.5949344816
 20
3.9352320887
 10
-0.5949344816
 20
3.9352320887
 10
-0.6149145311
 20
3.9106468372
 10
-0.6149145311
 20
3.9106468372
 10
-0.6162199427
 20
3.9104292686
 10
-0.6162199427
 20
3.9104292686
 10
-0.6399349199
 20
3.9104292686
 10
-0.6399349199
 20
3.9104292686
 10
-0.6410590243
 20
3.9114445887
 10
-0.6410590243
 20
3.9114445887
 10
-0.6640487728
 20
3.9431008197
 10
-0.6640487728
 20
3.9431008197
 10
-0.6642300799
 20
3.9456753814
 10
-0.6642300799
 20
3.9456753814
 10
-0.6642300799
 20
4.0069209416
 10
-0.6642300799
 20
4.0069209416
 10
-0.6635048513
 20
4.0087340133
 10
-0.6635048513
 20
4.0087340133
 10
-0.6407326714
 20
4.0398825841
 10
-0.6407326714
 20
4.0398825841
 10
-0.6396448284
 20
4.0403902442
 10
-0.6396448284
 20
4.0403902442
 10
-0.6166913414
 20
4.0401364142
 10
-0.6166913414
 20
4.0401364142
 10
-0.6152046226
 20
4.0393749241
  0
LWPOLYLINE
  5
B5
330
1F
100
AcDbEntity
  8
0
  6
Continuous
 62
     7
100
AcDbPolyline
 90
       16
 70
   128
 43
0.0
 10
-0.5992493174
 20
4.0038024584
 10
-0.6188307659
 20
4.0311073174
 10
-0.6188307659
 20
4.0311073174
 10
-0.637686711
 20
4.0311073174
 10
-0.637686711
 20
4.0311073174
 10
-0.6572678848
 20
4.0040562884
 10
-0.6572678848
 20
4.0040562884
 10
-0.6572678848
 20
3.9470170544
 10
-0.6572678848
 20
3.9470170544
 10
-0.637686711
 20
3.9197121954
 10
-0.637686711
 20
3.9197121954
 10
-0.6188307659
 20
3.9197121954
 10
-0.6188307659
 20
3.9197121954
 10
-0.5992495921
 20
3.9473071459
 10
-0.5992495921
 20
3.9473071459
 10
-0.5992495921
 20
4.0038024584
  0
LWPOLYLINE
  5
B6
330
1F
100
AcDbEntity
  8
0
  6
Continuous
 62
     7
100
AcDbPolyline
 90
       33
 70
   128
 43
0.0
 10
-0.5283221368
 20
4.0993150727
 10
-0.5278870921
 20
4.0983722755
 10
-0.5275607392
 20
4.0970306024
 10
-0.5273794321
 20
4.0952175308
 10
-0.5273069092
 20
4.0929693219
 10
-0.5273069092
 20
4.0929693219
 10
-0.5273069092
 20
3.9479235902
 10
-0.5273069092
 20
3.9479235902
 10
-0.5051149122
 20
3.9184430453
 10
-0.5051149122
 20
3.9184430453
 10
-0.504679775
 20
3.9171376337
 10
-0.5045347293
 20
3.9158684835
 10
-0.5045347293
 20
3.9158684835
 10
-0.5047885593
 20
3.9139103662
 10
-0.5055863109
 20
3.9120972945
 10
-0.506855461
 20
3.9108644058
 10
-0.5086685327
 20
3.9104292686
 10
-0.5086685327
 20
3.9104292686
 10
-0.51037282
 20
3.9106830986
 10
-0.51037282
 20
3.9106830986
 10
-0.5336889214
 20
3.9427382053
 10
-0.5336889214
 20
3.9427382053
 10
-0.5342691043
 20
3.944805107
 10
-0.5342691043
 20
3.944805107
 10
-0.5342691043
 20
4.0971031253
 10
-0.5342691043
 20
4.0971031253
 10
-0.5338339671
 20
4.0985173212
 10
-0.5332175228
 20
4.0995689027
 10
-0.5324197712
 20
4.1003303928
 10
-0.5314407125
 20
4.1007292686
 10
-0.5314407125
 20
4.1007292686
 10
-0.5295913795
 20
4.1003666543
 10
-0.5283222293
 20
4.0993150727
  0
LWPOLYLINE
  5
B7
330
1F
100
AcDbEntity
  8
0
  6
Continuous
 62
     7
100
AcDbPolyline
 90
       43
 70
   128
 43
0.0
 10
-0.2673486849
 20
4.099170027
 10
-0.2445402552
 20
4.0672237046
 10
-0.2445402552
 20
4.0672237046
 10
-0.2441776409
 20
4.0648667114
 10
-0.2441776409
 20
4.0648667114
 10
-0.2441776409
 20
4.033174219
 10
-0.2441776409
 20
4.033174219
 10
-0.2445765167
 20
4.0313611474
 10
-0.2445765167
 20
4.0313611474
 10
-0.2682189709
 20
3.999414825
 10
-0.2682189709
 20
3.999414825
 10
-0.2699595197
 20
3.9986170735
 10
-0.2699595197
 20
3.9986170735
 10
-0.3323654458
 20
3.9986170735
 10
-0.3323654458
 20
3.9986170735
 10
-0.3323654458
 20
3.9147443791
 10
-0.3323654458
 20
3.9147443791
 10
-0.3329818901
 20
3.912641216
 10
-0.3341785174
 20
3.9109369287
 10
-0.3341785174
 20
3.9109369287
 10
-0.3348312232
 20
3.9105743143
 10
-0.3358465433
 20
3.9104292686
 10
-0.3358465433
 20
3.9104292686
 10
-0.3373332621
 20
3.9107193601
 10
-0.3384211051
 20
3.9115896344
 10
-0.3388199808
 20
3.9123148631
 10
-0.3391100723
 20
3.9132939218
 10
-0.339255118
 20
3.9145630719
 10
-0.3393276409
 20
3.9161223136
 10
-0.3393276409
 20
3.9161223136
 10
-0.3393276409
 20
4.0968492953
 10
-0.3393276409
 20
4.0968492953
 10
-0.3389650266
 20
4.0980096611
 10
-0.3384211051
 20
4.0989887198
 10
-0.3377321379
 20
4.0997139485
 10
-0.3368618635
 20
4.1002216085
 10
-0.3368618635
 20
4.1002216085
 10
-0.3329093673
 20
4.1004754386
 10
-0.3329093673
 20
4.1004754386
 10
-0.2703583955
 20
4.1007292686
 10
-0.2703583955
 20
4.1007292686
 10
-0.2685815853
 20
4.1003303928
 10
-0.2673486965
 20
4.099170027
  0
LWPOLYLINE
  5
B8
330
1F
100
AcDbEntity
  8
0
  6
Continuous
 62
     7
100
AcDbPolyline
 90
       12
 70
   128
 43
0.0
 10
-0.2511397121
 20
4.0631261626
 10
-0.2710111013
 20
4.0914463418
 10
-0.2710111013
 20
4.0914463418
 10
-0.3323654458
 20
4.0914463418
 10
-0.3323654458
 20
4.0914463418
 10
-0.3323654458
 20
4.0079000003
 10
-0.3323654458
 20
4.0079000003
 10
-0.2711924084
 20
4.0079000003
 10
-0.2711924084
 20
4.0079000003
 10
-0.251139836
 20
4.0362201794
 10
-0.251139836
 20
4.0362201794
 10
-0.251139836
 20
4.0631261626
  0
LWPOLYLINE
  5
B9
330
1F
100
AcDbEntity
  8
0
  6
Continuous
 62
     7
100
AcDbPolyline
 90
       59
 70
   128
 43
0.0
 10
-0.1377140091
 20
4.0390848326
 10
-0.1146518025
 20
4.0068121573
 10
-0.1146518025
 20
4.0068121573
 10
-0.114361711
 20
4.0054342229
 10
-0.1142891882
 20
4.0044551642
 10
-0.1142891882
 20
4.0044551642
 10
-0.1143254496
 20
4.0033310597
 10
-0.1144704953
 20
4.0026058311
 10
-0.1144704953
 20
4.0026058311
 10
-0.1150506782
 20
4.0011916352
 10
-0.1158484298
 20
4.0001037922
 10
-0.1168637499
 20
3.9993785636
 10
-0.1180966386
 20
3.9989434264
 10
-0.1180966386
 20
3.9989434264
 10
-0.1198371874
 20
3.9994510864
 10
-0.1213239061
 20
4.0009015437
 10
-0.1213239061
 20
4.0009015437
 10
-0.1418841386
 20
4.0311073174
 10
-0.1418841386
 20
4.0311073174
 10
-0.1607400837
 20
4.0311073174
 10
-0.1607400837
 20
4.0311073174
 10
-0.2024044702
 20
3.9740318219
 10
-0.2024044702
 20
3.9740318219
 10
-0.2024044702
 20
3.9145993334
 10
-0.2024044702
 20
3.9145993334
 10
-0.2029483917
 20
3.912641216
 10
-0.2042175418
 20
3.9109369287
 10
-0.2042175418
 20
3.9109369287
 10
-0.2048702476
 20
3.9105743143
 10
-0.2058855677
 20
3.9104292686
 10
-0.2058855677
 20
3.9104292686
 10
-0.2073722865
 20
3.9107193601
 10
-0.2084601295
 20
3.9115896344
 10
-0.2088590052
 20
3.9123148631
 10
-0.2091490967
 20
3.9132939218
 10
-0.2092941424
 20
3.9145630719
 10
-0.2093666653
 20
3.9160860521
 10
-0.2093666653
 20
3.9160860521
 10
-0.2093666653
 20
4.0367641009
 10
-0.2093666653
 20
4.0367641009
 10
-0.209004051
 20
4.0381782968
 10
-0.2083513452
 20
4.0392298783
 10
-0.2075173322
 20
4.0399913684
 10
-0.2063932278
 20
4.0403902442
 10
-0.2063932278
 20
4.0403902442
 10
-0.2048339862
 20
4.0400638913
 10
-0.203564836
 20
4.0390485712
 10
-0.203057176
 20
4.0381782968
 10
-0.2026945616
 20
4.0368366238
 10
-0.202476993
 20
4.0350235521
 10
-0.2024044702
 20
4.0327390819
 10
-0.2024044702
 20
4.0327390819
 10
-0.2024044702
 20
3.9878474279
 10
-0.2024044702
 20
3.9878474279
 10
-0.163024554
 20
4.0403902442
 10
-0.163024554
 20
4.0403902442
 10
-0.1390194854
 20
4.0401364142
 10
-0.1390194854
 20
4.0401364142
 10
-0.1377140738
 20
4.0390848326
  0
LWPOLYLINE
  5
BA
330
1F
100
AcDbEntity
  8
0
  6
Continuous
 62
     7
100
AcDbPolyline
 90
       32
 70
   128
 43
0.0
 10
-0.007426743
 20
4.039121094
 10
0.015381696
 20
4.0074648631
 10
0.015381696
 20
4.0074648631
 10
0.0157443103
 20
4.0051441314
 10
0.0157443103
 20
4.0051441314
 10
0.0157443103
 20
3.9441524012
 10
0.0157443103
 20
3.9441524012
 10
0.0149828202
 20
3.9420854995
 10
0.0149828202
 20
3.9420854995
 10
-0.0081882354
 20
3.9106830986
 10
-0.0081882354
 20
3.9106830986
 10
-0.0100738299
 20
3.9104292686
 10
-0.0100738299
 20
3.9104292686
 10
-0.0551105296
 20
3.9104292686
 10
-0.0551105296
 20
3.9104292686
 10
-0.056234634
 20
3.9114445887
 10
-0.056234634
 20
3.9114445887
 10
-0.0792243825
 20
3.9431008197
 10
-0.0792243825
 20
3.9431008197
 10
-0.0794056897
 20
3.9456753814
 10
-0.0794056897
 20
3.9456753814
 10
-0.0794056897
 20
4.0069209416
 10
-0.0794056897
 20
4.0069209416
 10
-0.0786441996
 20
4.0087340133
 10
-0.0786441996
 20
4.0087340133
 10
-0.0554731439
 20
4.0398825841
 10
-0.0554731439
 20
4.0398825841
 10
-0.0543490395
 20
4.0403902442
 10
-0.0543490395
 20
4.0403902442
 10
-0.0087321569
 20
4.0401364142
 10
-0.0087321569
 20
4.0401364142
 10
-0.0074267453
 20
4.039121094
  0
LWPOLYLINE
  5
BB
330
1F
100
AcDbEntity
  8
0
  6
Continuous
 62
     7
100
AcDbPolyline
 90
       16
 70
   128
 43
0.0
 10
0.0087821106
 20
4.0038024584
 10
-0.01108915
 20
4.0311073174
 10
-0.01108915
 20
4.0311073174
 10
-0.0525722293
 20
4.0311073174
 10
-0.0525722293
 20
4.0311073174
 10
-0.0724434946
 20
4.0040562884
 10
-0.0724434946
 20
4.0040562884
 10
-0.0724434946
 20
3.9470170544
 10
-0.0724434946
 20
3.9470170544
 10
-0.0525722293
 20
3.9197121954
 10
-0.0525722293
 20
3.9197121954
 10
-0.01108915
 20
3.9197121954
 10
-0.01108915
 20
3.9197121954
 10
0.0087821152
 20
3.9473071459
 10
0.0087821152
 20
3.9473071459
 10
0.0087821152
 20
4.0038024584
  0
LWPOLYLINE
  5
BC
330
1F
100
AcDbEntity
  8
0
  6
Continuous
 62
     7
100
AcDbPolyline
 90
       55
 70
   128
 43
0.0
 10
0.1446899085
 20
4.0993150727
 10
0.145125103
 20
4.0983722755
 10
0.1454514559
 20
4.0970306024
 10
0.1456327631
 20
4.0952175308
 10
0.1457052859
 20
4.0929693219
 10
0.1457052859
 20
4.0929693219
 10
0.1457052859
 20
3.9145630719
 10
0.1457052859
 20
3.9145630719
 10
0.1453064102
 20
3.9127500003
 10
0.1445811815
 20
3.9114808501
 10
0.1435658614
 20
3.9106830986
 10
0.1422241884
 20
3.9104292686
 10
0.1422241884
 20
3.9104292686
 10
0.1408462539
 20
3.9107556215
 10
0.1397221495
 20
3.9116621573
 10
0.1389969208
 20
3.9133301832
 10
0.1387430908
 20
3.915904745
 10
0.1387430908
 20
3.915904745
 10
0.1387430908
 20
3.9603250003
 10
0.1387430908
 20
3.9603250003
 10
0.1004510176
 20
3.9106830986
 10
0.1004510176
 20
3.9106830986
 10
0.0991093446
 20
3.9104292686
 10
0.0991093446
 20
3.9104292686
 10
0.0751405375
 20
3.9104292686
 10
0.0751405375
 20
3.9104292686
 10
0.0739801716
 20
3.9114445887
 10
0.0739801716
 20
3.9114445887
 10
0.0507365931
 20
3.9431008197
 10
0.0507365931
 20
3.9431008197
 10
0.0505552859
 20
3.9456753814
 10
0.0505552859
 20
3.9456753814
 10
0.0505552859
 20
4.0069209416
 10
0.0505552859
 20
4.0069209416
 10
0.051316776
 20
4.0087340133
 10
0.051316776
 20
4.0087340133
 10
0.0747416617
 20
4.0398825841
 10
0.0747416617
 20
4.0398825841
 10
0.0766635176
 20
4.0403902442
 10
0.0766635176
 20
4.0403902442
 10
0.0995082204
 20
4.0401364142
 10
0.0995082204
 20
4.0401364142
 10
0.1010312006
 20
4.0393386626
 10
0.1010312006
 20
4.0393386626
 10
0.1387430908
 20
3.9875573364
 10
0.1387430908
 20
3.9875573364
 10
0.1387430908
 20
4.0973206939
 10
0.1387430908
 20
4.0973206939
 10
0.1392144894
 20
4.0986261055
 10
0.1397946724
 20
4.0996414256
 10
0.1404836396
 20
4.1003303928
 10
0.1412813911
 20
4.1007292686
 10
0.1412813911
 20
4.1007292686
 10
0.1433482928
 20
4.1003666543
 10
0.1446899658
 20
4.0993150727
  0
LWPOLYLINE
  5
BD
330
1F
100
AcDbEntity
  8
0
  6
Continuous
 62
     7
100
AcDbPolyline
 90
       14
 70
   128
 43
0.0
 10
0.1358421241
 20
3.9754097564
 10
0.0960271228
 20
4.0311073174
 10
0.0960271228
 20
4.0311073174
 10
0.0771349163
 20
4.0311073174
 10
0.0771349163
 20
4.0311073174
 10
0.0575174811
 20
4.0040562884
 10
0.0575174811
 20
4.0040562884
 10
0.0575174811
 20
3.9470170544
 10
0.0575174811
 20
3.9470170544
 10
0.0771349163
 20
3.9197121954
 10
0.0771349163
 20
3.9197121954
 10
0.0958095542
 20
3.9197121954
 10
0.0958095542
 20
3.9197121954
 10
0.1358421762
 20
3.9754097564
  0
LWPOLYLINE
  5
BE
330
1F
100
AcDbEntity
  8
0
  6
Continuous
 62
     7
100
AcDbPolyline
 90
       64
 70
   128
 43
0.0
 10
0.1863542739
 20
4.0389397869
 10
0.1868620123
 20
4.0379969896
 10
0.1871883652
 20
4.0366553166
 10
0.1874059338
 20
4.0348059835
 10
0.1874784567
 20
4.0325577747
 10
0.1874784567
 20
4.0325577747
 10
0.1874784567
 20
3.9465456558
 10
0.1874784567
 20
3.9465456558
 10
0.2073497219
 20
3.9197121954
 10
0.2073497219
 20
3.9197121954
 10
0.2264594971
 20
3.9197121954
 10
0.2264594971
 20
3.9197121954
 10
0.2687040664
 20
3.9770415209
 10
0.2687040664
 20
3.9770415209
 10
0.2687040664
 20
4.0364740094
 10
0.2687040664
 20
4.0364740094
 10
0.2690666807
 20
4.037779421
 10
0.2696831251
 20
4.0389035255
 10
0.2704808766
 20
4.0397375384
 10
0.2715324582
 20
4.0403902442
 10
0.2715324582
 20
4.0403902442
 10
0.2730554384
 20
4.0400638913
 10
0.2746872029
 20
4.039121094
 10
0.2746872029
 20
4.039121094
 10
0.27512234
 20
4.0381420354
 10
0.2754124315
 20
4.0367278395
 10
0.2755937387
 20
4.0349147678
 10
0.2756662615
 20
4.032666559
 10
0.2756662615
 20
4.032666559
 10
0.2756662615
 20
3.9145630719
 10
0.2756662615
 20
3.9145630719
 10
0.2752673858
 20
3.9127500003
 10
0.2745421571
 20
3.9114808501
 10
0.273526837
 20
3.9106830986
 10
0.272185164
 20
3.9104292686
 10
0.272185164
 20
3.9104292686
 10
0.2708072295
 20
3.9107556215
 10
0.2696831251
 20
3.9116621573
 10
0.2689578964
 20
3.9133301832
 10
0.2687040664
 20
3.915904745
 10
0.2687040664
 20
3.915904745
 10
0.2687040664
 20
3.9603250003
 10
0.2687040664
 20
3.9603250003
 10
0.2304119932
 20
3.9106830986
 10
0.2304119932
 20
3.9106830986
 10
0.2290703202
 20
3.9104292686
 10
0.2290703202
 20
3.9104292686
 10
0.2051015131
 20
3.9104292686
 10
0.2051015131
 20
3.9104292686
 10
0.2039411472
 20
3.9114445887
 10
0.2039411472
 20
3.9114445887
 10
0.1809151373
 20
3.9431008197
 10
0.1809151373
 20
3.9431008197
 10
0.1805162615
 20
3.9456753814
 10
0.1805162615
 20
3.9456753814
 10
0.1805162615
 20
4.0370541924
 10
0.1805162615
 20
4.0370541924
 10
0.1808788759
 20
4.0381420354
 10
0.1814590588
 20
4.0390485712
 10
0.1822205489
 20
4.0398100613
 10
0.183235869
 20
4.0403902442
 10
0.183235869
 20
4.0403902442
 10
0.1850489407
 20
4.0400276299
 10
0.1863543522
 20
4.0389397869
  0
LWPOLYLINE
  5
BF
330
1F
100
AcDbEntity
  8
0
  6
Continuous
 62
     7
100
AcDbPolyline
 90
       54
 70
   128
 43
0.0
 10
0.4030887302
 20
4.0401726756
 10
0.4045031327
 20
4.0391936169
 10
0.4053371457
 20
4.037525591
 10
0.4053371457
 20
4.037525591
 10
0.4051921
 20
4.0348059835
 10
0.4047569628
 20
4.0328841276
 10
0.4047569628
 20
4.0328841276
 10
0.4040317341
 20
4.0321226375
 10
0.4031251983
 20
4.0315424546
 10
0.4020373553
 20
4.0312161017
 10
0.4007682051
 20
4.0311073174
 10
0.4007682051
 20
4.0311073174
 10
0.3370206061
 20
4.0311073174
 10
0.3370206061
 20
4.0311073174
 10
0.3174394323
 20
4.0038387198
 10
0.3174394323
 20
4.0038387198
 10
0.3174394323
 20
3.946980793
 10
0.3174394323
 20
3.946980793
 10
0.3370568675
 20
3.9197121954
 10
0.3370568675
 20
3.9197121954
 10
0.4023274468
 20
3.9197121954
 10
0.4023274468
 20
3.9197121954
 10
0.4031977211
 20
3.9194946268
 10
0.4039229498
 20
3.9189869668
 10
0.4045393942
 20
3.9182617381
 10
0.4049745314
 20
3.9172826794
 10
0.4049745314
 20
3.9172826794
 10
0.4054096686
 20
3.916158575
 10
0.4055547143
 20
3.915070732
 10
0.4055547143
 20
3.915070732
 10
0.4053371457
 20
3.9135114904
 10
0.4046844399
 20
3.9119522488
 10
0.4041405184
 20
3.911299543
 10
0.4034152897
 20
3.9108281444
 10
0.4023999696
 20
3.9105380529
 10
0.4012033423
 20
3.9104292686
 10
0.4012033423
 20
3.9104292686
 10
0.3346273515
 20
3.9104292686
 10
0.3346273515
 20
3.9104292686
 10
0.3335032471
 20
3.9114445887
 10
0.3335032471
 20
3.9114445887
 10
0.3104772371
 20
3.9431008197
 10
0.3104772371
 20
3.9431008197
 10
0.3104772371
 20
3.9456753814
 10
0.3104772371
 20
3.9456753814
 10
0.3106585443
 20
4.0069209416
 10
0.3106585443
 20
4.0069209416
 10
0.3114200344
 20
4.0087340133
 10
0.3114200344
 20
4.0087340133
 10
0.3343735214
 20
4.0398825841
 10
0.3343735214
 20
4.0398825841
 10
0.3354976259
 20
4.0403902442
 10
0.3354976259
 20
4.0403902442
 10
0.4030889368
 20
4.0401726756
  0
LWPOLYLINE
  5
C0
330
1F
100
AcDbEntity
  8
0
  6
Continuous
 62
     7
100
AcDbPolyline
 90
       83
 70
   128
 43
0.0
 10
0.4904787606
 20
4.0992425498
 10
0.4909141274
 20
4.0982634912
 10
0.4912404803
 20
4.0968492953
 10
0.4914217875
 20
4.0949637008
 10
0.4914943103
 20
4.0926067076
 10
0.4914943103
 20
4.0926067076
 10
0.4914943103
 20
4.0380695125
 10
0.4914943103
 20
4.0380695125
 10
0.5328686053
 20
4.0380695125
 10
0.5328686053
 20
4.0380695125
 10
0.5338839254
 20
4.0374893296
 10
0.5346816769
 20
4.0366553166
 10
0.5352255984
 20
4.0355674736
 10
0.5355156899
 20
4.0342258006
 10
0.5355156899
 20
4.0342258006
 10
0.5352255984
 20
4.0322676832
 10
0.534355324
 20
4.030490873
 10
0.5336300954
 20
4.0297293829
 10
0.5326147753
 20
4.0292217229
 10
0.5312731022
 20
4.02889537
 10
0.5296050763
 20
4.0287865857
 10
0.5296050763
 20
4.0287865857
 10
0.4914943103
 20
4.0287865857
 10
0.4914943103
 20
4.0287865857
 10
0.4914943103
 20
3.9453490285
 10
0.4914943103
 20
3.9453490285
 10
0.5095162425
 20
3.9204011626
 10
0.5095162425
 20
3.9204011626
 10
0.5296413378
 20
3.9481774203
 10
0.5296413378
 20
3.9481774203
 10
0.5305116121
 20
3.9487938646
 10
0.5315269323
 20
3.9489751718
 10
0.5315269323
 20
3.9489751718
 10
0.5328686053
 20
3.9486125575
 10
0.5341740169
 20
3.947488453
 10
0.535189337
 20
3.9457841657
 10
0.5355156899
 20
3.9436084797
 10
0.5355156899
 20
3.9436084797
 10
0.5351530756
 20
3.9411789637
 10
0.5351530756
 20
3.9411789637
 10
0.5119820199
 20
3.9109006672
 10
0.5119820199
 20
3.9109006672
 10
0.5111842684
 20
3.9105380529
 10
0.5099151182
 20
3.9104292686
 10
0.5099151182
 20
3.9104292686
 10
0.5084283995
 20
3.9104292686
 10
0.5084283995
 20
3.9104292686
 10
0.5071229879
 20
3.9119522488
 10
0.5071229879
 20
3.9119522488
 10
0.4847134224
 20
3.9428832511
 10
0.4847134224
 20
3.9428832511
 10
0.4845321152
 20
3.9454578128
 10
0.4845321152
 20
3.9454578128
 10
0.4845321152
 20
4.0287865857
 10
0.4845321152
 20
4.0287865857
 10
0.4436654803
 20
4.0287865857
 10
0.4436654803
 20
4.0287865857
 10
0.4428677288
 20
4.0289678928
 10
0.4421425001
 20
4.0294755529
 10
0.4415260557
 20
4.0303458273
 10
0.4410183957
 20
4.0315424546
 10
0.4410183957
 20
4.0315424546
 10
0.4405832585
 20
4.0331379576
 10
0.4404382128
 20
4.0345884149
 10
0.4404382128
 20
4.0345884149
 10
0.4406920428
 20
4.036691578
 10
0.4414897943
 20
4.0385771726
 10
0.442215023
 20
4.0393749241
 10
0.4433753888
 20
4.039955107
 10
0.4449346304
 20
4.0402814599
 10
0.4468927478
 20
4.0403902442
 10
0.4468927478
 20
4.0403902442
 10
0.4845321152
 20
4.0403902442
 10
0.4845321152
 20
4.0403902442
 10
0.4845321152
 20
4.0970668639
 10
0.4845321152
 20
4.0970668639
 10
0.4848947295
 20
4.0984810597
 10
0.4854749125
 20
4.0995689027
 10
0.4862364025
 20
4.1002941314
 10
0.4872517227
 20
4.1007292686
 10
0.4872517227
 20
4.1007292686
 10
0.4891735786
 20
4.1003666543
 10
0.4904789902
 20
4.0992425498
  0
LWPOLYLINE
  5
C1
330
1F
100
AcDbEntity
  8
0
  6
Continuous
 62
     7
100
AcDbPolyline
 90
       30
 70
   128
 43
0.0
 10
0.576345822
 20
3.9485037732
 10
0.5767812006
 20
3.9475972373
 10
0.5771075535
 20
3.9462918258
 10
0.5772888606
 20
3.9445150155
 10
0.5773613835
 20
3.9423393296
 10
0.5773613835
 20
3.9423393296
 10
0.5773613835
 20
3.9144542876
 10
0.5773613835
 20
3.9144542876
 10
0.576817462
 20
3.9125686931
 10
0.5755483118
 20
3.9109369287
 10
0.5755483118
 20
3.9109369287
 10
0.5748956061
 20
3.9105743143
 10
0.5738802859
 20
3.9104292686
 10
0.5738802859
 20
3.9104292686
 10
0.5723935672
 20
3.9107193601
 10
0.5713057242
 20
3.911553373
 10
0.5709068484
 20
3.9122423402
 10
0.570616757
 20
3.9132213989
 10
0.5704717112
 20
3.9144542876
 10
0.5703991884
 20
3.9159410064
 10
0.5703991884
 20
3.9159410064
 10
0.5703991884
 20
3.9463643486
 10
0.5703991884
 20
3.9463643486
 10
0.5708343256
 20
3.9478873288
 10
0.5714870314
 20
3.9490114332
 10
0.5723210443
 20
3.949664139
 10
0.5733726259
 20
3.9498817076
 10
0.5733726259
 20
3.9498817076
 10
0.5751131746
 20
3.9495553547
 10
0.5763460634
 20
3.9485037732
  0
LWPOLYLINE
  5
C2
330
1F
100
AcDbEntity
  8
0
  6
Continuous
 62
     7
100
AcDbPolyline
 90
       56
 70
   128
 43
0.0
 10
-3.0874713199
 20
3.9431999378
 10
-3.086457538
 20
3.9428010621
 10
-3.0856597865
 20
3.9421120948
 10
-3.085115865
 20
3.9410242518
 10
-3.0848257735
 20
3.9396463174
 10
-3.0848257735
 20
3.9396463174
 10
-3.0850796036
 20
3.9372893243
 10
-3.0858773551
 20
3.9355487755
 10
-3.0865663223
 20
3.9349323311
 10
-3.087545381
 20
3.9344971939
 10
-3.088887054
 20
3.9342071025
 10
-3.0905188185
 20
3.9341345796
 10
-3.0905188185
 20
3.9341345796
 10
-3.1729410555
 20
3.9341345796
 10
-3.1729410555
 20
3.9341345796
 10
-3.1729410555
 20
3.8505882381
 10
-3.1729410555
 20
3.8505882381
 10
-3.131603022
 20
3.8505882381
 10
-3.131603022
 20
3.8505882381
 10
-3.130261349
 20
3.8498992709
 10
-3.1292822903
 20
3.8489564736
 10
-3.1287021074
 20
3.8476873235
 10
-3.1285208002
 20
3.8461643433
 10
-3.1285208002
 20
3.8461643433
 10
-3.1287021074
 20
3.8444963174
 10
-3.1292097674
 20
3.8430458601
 10
-3.1296811661
 20
3.8424656771
 10
-3.1304063947
 20
3.8419580171
 10
-3.1314579763
 20
3.8415954028
 10
-3.1327633879
 20
3.8413053113
 10
-3.1327633879
 20
3.8413053113
 10
-3.1729410555
 20
3.8413053113
 10
-3.1729410555
 20
3.8413053113
 10
-3.1729410555
 20
3.7571787869
 10
-3.1729410555
 20
3.7571787869
 10
-3.173484977
 20
3.7552931924
 10
-3.1747541272
 20
3.7536251665
 10
-3.1747541272
 20
3.7536251665
 10
-3.175406833
 20
3.7532625521
 10
-3.1764221531
 20
3.7531175064
 10
-3.1764221531
 20
3.7531175064
 10
-3.1779088718
 20
3.7534075979
 10
-3.1789967148
 20
3.7542778723
 10
-3.1793955906
 20
3.7550031009
 10
-3.1796856821
 20
3.7559821596
 10
-3.1798307278
 20
3.7572513098
 10
-3.1799032507
 20
3.7588105514
 10
-3.1799032507
 20
3.7588105514
 10
-3.1799032507
 20
3.9397913631
 10
-3.1799032507
 20
3.9397913631
 10
-3.1794681135
 20
3.9409879904
 10
-3.1788154077
 20
3.9420033105
 10
-3.1778726104
 20
3.9428010621
 10
-3.1767122446
 20
3.9434175064
 10
-3.1767122446
 20
3.9434175064
 10
-3.0874728581
 20
3.9431999378
  0
LWPOLYLINE
  5
C3
330
1F
100
AcDbEntity
  8
0
  6
Continuous
 62
     7
100
AcDbPolyline
 90
       32
 70
   128
 43
0.0
 10
-2.9779630383
 20
3.8818093319
 10
-2.9551548894
 20
3.8501531009
 10
-2.9551548894
 20
3.8501531009
 10
-2.954792275
 20
3.8478323692
 10
-2.954792275
 20
3.8478323692
 10
-2.954792275
 20
3.786840639
 10
-2.954792275
 20
3.786840639
 10
-2.9555537651
 20
3.7847737374
 10
-2.9555537651
 20
3.7847737374
 10
-2.9787248208
 20
3.7533713364
 10
-2.9787248208
 20
3.7533713364
 10
-2.9806104153
 20
3.7531175064
 10
-2.9806104153
 20
3.7531175064
 10
-3.025647115
 20
3.7531175064
 10
-3.025647115
 20
3.7531175064
 10
-3.0267712194
 20
3.7541328265
 10
-3.0267712194
 20
3.7541328265
 10
-3.0497609679
 20
3.7857890575
 10
-3.0497609679
 20
3.7857890575
 10
-3.049942275
 20
3.7883636192
 10
-3.049942275
 20
3.7883636192
 10
-3.049942275
 20
3.8496091794
 10
-3.049942275
 20
3.8496091794
 10
-3.049180785
 20
3.8514222511
 10
-3.049180785
 20
3.8514222511
 10
-3.0260097293
 20
3.882570822
 10
-3.0260097293
 20
3.882570822
 10
-3.0248856249
 20
3.883078482
 10
-3.0248856249
 20
3.883078482
 10
-2.9792687423
 20
3.882824652
 10
-2.9792687423
 20
3.882824652
 10
-2.9779633307
 20
3.8818093319
  0
LWPOLYLINE
  5
C4
330
1F
100
AcDbEntity
  8
0
  6
Continuous
 62
     7
100
AcDbPolyline
 90
       16
 70
   128
 43
0.0
 10
-2.9617524522
 20
3.8464906962
 10
-2.9816257354
 20
3.8737955552
 10
-2.9816257354
 20
3.8737955552
 10
-3.0231088147
 20
3.8737955552
 10
-3.0231088147
 20
3.8737955552
 10
-3.0429800799
 20
3.8467445262
 10
-3.0429800799
 20
3.8467445262
 10
-3.0429800799
 20
3.7897052922
 10
-3.0429800799
 20
3.7897052922
 10
-3.0231088147
 20
3.7624004332
 10
-3.0231088147
 20
3.7624004332
 10
-2.9816257354
 20
3.7624004332
 10
-2.9816257354
 20
3.7624004332
 10
-2.9617544702
 20
3.7899953837
 10
-2.9617544702
 20
3.7899953837
 10
-2.9617544702
 20
3.8464906962
  0
LWPOLYLINE
  5
C5
330
1F
100
AcDbEntity
  8
0
  6
Continuous
 62
     7
100
AcDbPolyline
 90
       59
 70
   128
 43
0.0
 10
-2.8483276292
 20
3.8817730704
 10
-2.8252664366
 20
3.8495003951
 10
-2.8252664366
 20
3.8495003951
 10
-2.8249763452
 20
3.8481224607
 10
-2.8249038223
 20
3.847143402
 10
-2.8249038223
 20
3.847143402
 10
-2.8249400837
 20
3.8460192976
 10
-2.8250851295
 20
3.8452940689
 10
-2.8250851295
 20
3.8452940689
 10
-2.8256653124
 20
3.843879873
 10
-2.8264630639
 20
3.84279203
 10
-2.827478384
 20
3.8420668014
 10
-2.8287112728
 20
3.8416316642
 10
-2.8287112728
 20
3.8416316642
 10
-2.8304518215
 20
3.8421393243
 10
-2.8319385403
 20
3.8435897816
 10
-2.8319385403
 20
3.8435897816
 10
-2.8524987728
 20
3.8737955552
 10
-2.8524987728
 20
3.8737955552
 10
-2.8713547179
 20
3.8737955552
 10
-2.8713547179
 20
3.8737955552
 10
-2.9130191043
 20
3.8167200598
 10
-2.9130191043
 20
3.8167200598
 10
-2.9130191043
 20
3.7572875712
 10
-2.9130191043
 20
3.7572875712
 10
-2.9135630258
 20
3.7553294538
 10
-2.914832176
 20
3.7536251665
 10
-2.914832176
 20
3.7536251665
 10
-2.9154848818
 20
3.7532625521
 10
-2.9165002019
 20
3.7531175064
 10
-2.9165002019
 20
3.7531175064
 10
-2.9179869206
 20
3.7534075979
 10
-2.9190747636
 20
3.7542778723
 10
-2.9194736394
 20
3.7550031009
 10
-2.9197637308
 20
3.7559821596
 10
-2.9199087766
 20
3.7572513098
 10
-2.9199812994
 20
3.75877429
 10
-2.9199812994
 20
3.75877429
 10
-2.9199812994
 20
3.8794523387
 10
-2.9199812994
 20
3.8794523387
 10
-2.9196186851
 20
3.8808665346
 10
-2.9189659793
 20
3.8819181162
 10
-2.9181319664
 20
3.8826796063
 10
-2.9170078619
 20
3.883078482
 10
-2.9170078619
 20
3.883078482
 10
-2.9154486203
 20
3.8827521291
 10
-2.9141794702
 20
3.881736809
 10
-2.9136718101
 20
3.8808665346
 10
-2.9133091958
 20
3.8795248616
 10
-2.9130916272
 20
3.87771179
 10
-2.9130191043
 20
3.8754273197
 10
-2.9130191043
 20
3.8754273197
 10
-2.9130191043
 20
3.8305356657
 10
-2.9130191043
 20
3.8305356657
 10
-2.8736391882
 20
3.883078482
 10
-2.8736391882
 20
3.883078482
 10
-2.8496341196
 20
3.882824652
 10
-2.8496341196
 20
3.882824652
 10
-2.848328708
 20
3.8817730704
  0
LWPOLYLINE
  5
C6
330
1F
100
AcDbEntity
  8
0
  6
Continuous
 62
     7
100
AcDbPolyline
 90
       63
 70
   128
 43
0.0
 10
-2.6113217271
 20
3.9431999378
 10
-2.6103086622
 20
3.9428010621
 10
-2.6095109107
 20
3.9421120948
 10
-2.6089669892
 20
3.9410242518
 10
-2.6086768978
 20
3.9396463174
 10
-2.6086768978
 20
3.9396463174
 10
-2.6088944664
 20
3.93743437
 10
-2.6095109107
 20
3.9356938212
 10
-2.6095109107
 20
3.9356938212
 10
-2.6103811851
 20
3.935004854
 10
-2.611541551
 20
3.9345334553
 10
-2.6130282697
 20
3.9342433639
 10
-2.6148050799
 20
3.9341345796
 10
-2.6148050799
 20
3.9341345796
 10
-2.6322105677
 20
3.9341345796
 10
-2.6322105677
 20
3.9341345796
 10
-2.6322105677
 20
3.7624004332
 10
-2.6322105677
 20
3.7624004332
 10
-2.611541551
 20
3.7624004332
 10
-2.611541551
 20
3.7624004332
 10
-2.610453708
 20
3.7618202503
 10
-2.6095834336
 20
3.7609862374
 10
-2.6090032507
 20
3.7598983944
 10
-2.6086768978
 20
3.7585567214
 10
-2.6086768978
 20
3.7585567214
 10
-2.6088944664
 20
3.7563085125
 10
-2.6095471721
 20
3.7545679637
 10
-2.6100910936
 20
3.7539515194
 10
-2.6108163223
 20
3.7534801207
 10
-2.611795381
 20
3.7532262907
 10
-2.6129920083
 20
3.7531175064
 10
-2.6129920083
 20
3.7531175064
 10
-2.6574122636
 20
3.7531175064
 10
-2.6574122636
 20
3.7531175064
 10
-2.6584275837
 20
3.7536976893
 10
-2.6592253353
 20
3.7544954409
 10
-2.6597692568
 20
3.7555832839
 10
-2.6600593482
 20
3.7568886954
 10
-2.6600593482
 20
3.7568886954
 10
-2.6598055182
 20
3.7592456886
 10
-2.6590802895
 20
3.7609499759
 10
-2.6584275837
 20
3.7616026817
 10
-2.657448525
 20
3.7620378189
 10
-2.6561793749
 20
3.7623279104
 10
-2.6546201333
 20
3.7624004332
 10
-2.6546201333
 20
3.7624004332
 10
-2.6391727629
 20
3.7624004332
 10
-2.6391727629
 20
3.7624004332
 10
-2.6391727629
 20
3.9341345796
 10
-2.6391727629
 20
3.9341345796
 10
-2.6573760022
 20
3.9341345796
 10
-2.6573760022
 20
3.9341345796
 10
-2.6584275837
 20
3.9346422396
 10
-2.6591890738
 20
3.9354399912
 10
-2.6597692568
 20
3.9365640956
 10
-2.6600593482
 20
3.9379782915
 10
-2.6600593482
 20
3.9379782915
 10
-2.6598055182
 20
3.9402990232
 10
-2.659116551
 20
3.9418220034
 10
-2.6580649694
 20
3.9428010621
 10
-2.6568683421
 20
3.9434175064
 10
-2.6568683421
 20
3.9434175064
 10
-2.6113239824
 20
3.9431999378
  0
LWPOLYLINE
  5
C7
330
1F
100
AcDbEntity
  8
0
  6
Continuous
 62
     7
100
AcDbPolyline
 90
       61
 70
   128
 43
0.0
 10
-2.5001449848
 20
3.8818093319
 10
-2.4771204191
 20
3.8501531009
 10
-2.4771204191
 20
3.8501531009
 10
-2.4767215433
 20
3.8478323692
 10
-2.4767215433
 20
3.8478323692
 10
-2.4767215433
 20
3.7572513098
 10
-2.4767215433
 20
3.7572513098
 10
-2.4771204191
 20
3.7554382381
 10
-2.4778456478
 20
3.754169088
 10
-2.4788609679
 20
3.7533713364
 10
-2.4802026409
 20
3.7531175064
 10
-2.4802026409
 20
3.7531175064
 10
-2.4815805754
 20
3.7534438593
 10
-2.4827046798
 20
3.754422918
 10
-2.4834299084
 20
3.7561997282
 10
-2.4836837385
 20
3.7588468128
 10
-2.4836837385
 20
3.7588468128
 10
-2.4836837385
 20
3.8466720034
 10
-2.4836837385
 20
3.8466720034
 10
-2.5035550037
 20
3.8737955552
 10
-2.5035550037
 20
3.8737955552
 10
-2.5226647789
 20
3.8737955552
 10
-2.5226647789
 20
3.8737955552
 10
-2.5649093482
 20
3.8167200598
 10
-2.5649093482
 20
3.8167200598
 10
-2.5649093482
 20
3.7572875712
 10
-2.5649093482
 20
3.7572875712
 10
-2.5654532697
 20
3.7553294538
 10
-2.5667224199
 20
3.7536251665
 10
-2.5667224199
 20
3.7536251665
 10
-2.5673751257
 20
3.7532625521
 10
-2.5683904458
 20
3.7531175064
 10
-2.5683904458
 20
3.7531175064
 10
-2.5698771645
 20
3.7534075979
 10
-2.5709650075
 20
3.7542778723
 10
-2.5713638833
 20
3.7550031009
 10
-2.5716539747
 20
3.7559821596
 10
-2.5717990205
 20
3.7572513098
 10
-2.5718715433
 20
3.75877429
 10
-2.5718715433
 20
3.75877429
 10
-2.5718715433
 20
3.8794523387
 10
-2.5718715433
 20
3.8794523387
 10
-2.571508929
 20
3.8808665346
 10
-2.5708562232
 20
3.8819181162
 10
-2.5700222103
 20
3.8826796063
 10
-2.5688981058
 20
3.883078482
 10
-2.5688981058
 20
3.883078482
 10
-2.5673388642
 20
3.8827521291
 10
-2.5660697141
 20
3.881736809
 10
-2.565562054
 20
3.8808665346
 10
-2.5651994397
 20
3.8795248616
 10
-2.5649818711
 20
3.87771179
 10
-2.5649093482
 20
3.8754273197
 10
-2.5649093482
 20
3.8754273197
 10
-2.5649093482
 20
3.8305356657
 10
-2.5649093482
 20
3.8305356657
 10
-2.5254931706
 20
3.883078482
 10
-2.5254931706
 20
3.883078482
 10
-2.501488102
 20
3.882824652
 10
-2.501488102
 20
3.882824652
 10
-2.500146429
 20
3.8818093319
  0
LWPOLYLINE
  5
C8
330
1F
100
AcDbEntity
  8
0
  6
Continuous
 62
     7
100
AcDbPolyline
 90
       80
 70
   128
 43
0.0
 10
-2.3511110798
 20
3.8828609134
 10
-2.3499515738
 20
3.8818818547
 10
-2.3490812994
 20
3.8802138288
 10
-2.3490812994
 20
3.8802138288
 10
-2.3491175609
 20
3.8785820643
 10
-2.3492263452
 20
3.8772766528
 10
-2.3493713909
 20
3.8762613326
 10
-2.3496252209
 20
3.8755723654
 10
-2.3496252209
 20
3.8755723654
 10
-2.3502054039
 20
3.8748108753
 10
-2.3510031554
 20
3.8742306924
 10
-2.3520547369
 20
3.8739043395
 10
-2.3533238871
 20
3.8737955552
 10
-2.3533238871
 20
3.8737955552
 10
-2.4150045845
 20
3.8737955552
 10
-2.4150045845
 20
3.8737955552
 10
-2.432301288
 20
3.8471071406
 10
-2.432301288
 20
3.8471071406
 10
-2.4148958002
 20
3.8204187259
 10
-2.4148958002
 20
3.8204187259
 10
-2.3729050609
 20
3.8204187259
 10
-2.3729050609
 20
3.8204187259
 10
-2.3716359107
 20
3.8194396672
 10
-2.3716359107
 20
3.8194396672
 10
-2.3494439138
 20
3.7891251093
 10
-2.3494439138
 20
3.7891251093
 10
-2.3491538223
 20
3.7877834363
 10
-2.3490812994
 20
3.7866593319
 10
-2.3490812994
 20
3.7866593319
 10
-2.3491538223
 20
3.7858978418
 10
-2.3494439138
 20
3.7846649531
 10
-2.3494439138
 20
3.7846649531
 10
-2.350386711
 20
3.7829606657
 10
-2.350386711
 20
3.7829606657
 10
-2.3724699237
 20
3.7533713364
 10
-2.3724699237
 20
3.7533713364
 10
-2.3743192568
 20
3.7531175064
 10
-2.3743192568
 20
3.7531175064
 10
-2.4396986203
 20
3.7531175064
 10
-2.4396986203
 20
3.7531175064
 10
-2.4410040319
 20
3.754169088
 10
-2.4419105677
 20
3.7559821596
 10
-2.4419105677
 20
3.7559821596
 10
-2.4414391691
 20
3.7564172968
 10
-2.4412578619
 20
3.7568886954
 10
-2.4414391691
 20
3.7573238326
 10
-2.4419105677
 20
3.7577589698
 10
-2.4419105677
 20
3.7577589698
 10
-2.4416204763
 20
3.7598621329
 10
-2.4407864633
 20
3.7612763288
 10
-2.4400974961
 20
3.7617839889
 10
-2.439082176
 20
3.7621103418
 10
-2.4378130258
 20
3.7623279104
 10
-2.4362537842
 20
3.7624004332
 10
-2.4362537842
 20
3.7624004332
 10
-2.374174211
 20
3.7624004332
 10
-2.374174211
 20
3.7624004332
 10
-2.3564423703
 20
3.7869131619
 10
-2.3564423703
 20
3.7869131619
 10
-2.3741379496
 20
3.8111357991
 10
-2.3741379496
 20
3.8111357991
 10
-2.4172527933
 20
3.8111357991
 10
-2.4172527933
 20
3.8111357991
 10
-2.4185582049
 20
3.8121873807
 10
-2.4185582049
 20
3.8121873807
 10
-2.4415479534
 20
3.8447501474
 10
-2.4415479534
 20
3.8447501474
 10
-2.4418017834
 20
3.845801729
 10
-2.4419105677
 20
3.8473609706
 10
-2.4419105677
 20
3.8473609706
 10
-2.4418743063
 20
3.848485075
 10
-2.4417292606
 20
3.8492103037
 10
-2.4417292606
 20
3.8492103037
 10
-2.4406051561
 20
3.8510596368
 10
-2.4406051561
 20
3.8510596368
 10
-2.4184856821
 20
3.882570822
 10
-2.4184856821
 20
3.882570822
 10
-2.4173615776
 20
3.883078482
 10
-2.4173615776
 20
3.883078482
 10
-2.3511119397
 20
3.8828609134
  0
LWPOLYLINE
  5
C9
330
1F
100
AcDbEntity
  8
0
  6
Continuous
 62
     7
100
AcDbPolyline
 90
       83
 70
   128
 43
0.0
 10
-2.2619082702
 20
3.9419307877
 10
-2.2614736775
 20
3.940951729
 10
-2.2611473246
 20
3.9395375331
 10
-2.2609660174
 20
3.9376519386
 10
-2.2608934946
 20
3.9352949454
 10
-2.2608934946
 20
3.9352949454
 10
-2.2608934946
 20
3.8807577503
 10
-2.2608934946
 20
3.8807577503
 10
-2.2195191996
 20
3.8807577503
 10
-2.2195191996
 20
3.8807577503
 10
-2.2185038795
 20
3.8801775674
 10
-2.2177061279
 20
3.8793435544
 10
-2.2171622064
 20
3.8782557114
 10
-2.216872115
 20
3.8769140384
 10
-2.216872115
 20
3.8769140384
 10
-2.2171622064
 20
3.874955921
 10
-2.2180324808
 20
3.8731791108
 10
-2.2187577095
 20
3.8724176207
 10
-2.2197730296
 20
3.8719099607
 10
-2.2211147026
 20
3.8715836078
 10
-2.2227827286
 20
3.8714748235
 10
-2.2227827286
 20
3.8714748235
 10
-2.2608934946
 20
3.8714748235
 10
-2.2608934946
 20
3.8714748235
 10
-2.2608934946
 20
3.7880372663
 10
-2.2608934946
 20
3.7880372663
 10
-2.2428715624
 20
3.7630894005
 10
-2.2428715624
 20
3.7630894005
 10
-2.2227464671
 20
3.7908656581
 10
-2.2227464671
 20
3.7908656581
 10
-2.2218761927
 20
3.7914821025
 10
-2.2208608726
 20
3.7916634096
 10
-2.2208608726
 20
3.7916634096
 10
-2.2195191996
 20
3.7913007953
 10
-2.218213788
 20
3.7901766909
 10
-2.2171984679
 20
3.7884724035
 10
-2.216872115
 20
3.7862967175
 10
-2.216872115
 20
3.7862967175
 10
-2.2172347293
 20
3.7838672015
 10
-2.2172347293
 20
3.7838672015
 10
-2.240405785
 20
3.753588905
 10
-2.240405785
 20
3.753588905
 10
-2.2412035365
 20
3.7532262907
 10
-2.2424726866
 20
3.7531175064
 10
-2.2424726866
 20
3.7531175064
 10
-2.2439594054
 20
3.7531175064
 10
-2.2439594054
 20
3.7531175064
 10
-2.245264817
 20
3.7546404866
 10
-2.245264817
 20
3.7546404866
 10
-2.2676743825
 20
3.7855714889
 10
-2.2676743825
 20
3.7855714889
 10
-2.2678556897
 20
3.7881460506
 10
-2.2678556897
 20
3.7881460506
 10
-2.2678556897
 20
3.8714748235
 10
-2.2678556897
 20
3.8714748235
 10
-2.3087223246
 20
3.8714748235
 10
-2.3087223246
 20
3.8714748235
 10
-2.3095200761
 20
3.8716561307
 10
-2.3102453048
 20
3.8721637907
 10
-2.3108617491
 20
3.8730340651
 10
-2.3113694092
 20
3.8742306924
 10
-2.3113694092
 20
3.8742306924
 10
-2.3118045464
 20
3.8758261954
 10
-2.3119495921
 20
3.8772766528
 10
-2.3119495921
 20
3.8772766528
 10
-2.3116957621
 20
3.8793798159
 10
-2.3108980106
 20
3.8812654104
 10
-2.3101727819
 20
3.8820631619
 10
-2.3090124161
 20
3.8826433448
 10
-2.3074531744
 20
3.8829696977
 10
-2.3054950571
 20
3.883078482
 10
-2.3054950571
 20
3.883078482
 10
-2.2678556897
 20
3.883078482
 10
-2.2678556897
 20
3.883078482
 10
-2.2678556897
 20
3.9397551017
 10
-2.2678556897
 20
3.9397551017
 10
-2.2674930754
 20
3.9411692976
 10
-2.2669128924
 20
3.9422571406
 10
-2.2661514023
 20
3.9429823692
 10
-2.2651360822
 20
3.9434175064
 10
-2.2651360822
 20
3.9434175064
 10
-2.2632142263
 20
3.9430548921
 10
-2.2619088147
 20
3.9419307877
  0
LWPOLYLINE
  5
CA
330
1F
100
AcDbEntity
  8
0
  6
Continuous
 62
     7
100
AcDbPolyline
 90
       59
 70
   128
 43
0.0
 10
-2.1103353012
 20
3.8817730704
 10
-2.0872737537
 20
3.8495003951
 10
-2.0872737537
 20
3.8495003951
 10
-2.0869836622
 20
3.8481224607
 10
-2.0869111394
 20
3.847143402
 10
-2.0869111394
 20
3.847143402
 10
-2.0869474008
 20
3.8460192976
 10
-2.0870924465
 20
3.8452940689
 10
-2.0870924465
 20
3.8452940689
 10
-2.0876726295
 20
3.843879873
 10
-2.088470381
 20
3.84279203
 10
-2.0894857011
 20
3.8420668014
 10
-2.0907185898
 20
3.8416316642
 10
-2.0907185898
 20
3.8416316642
 10
-2.0924591386
 20
3.8421393243
 10
-2.0939458574
 20
3.8435897816
 10
-2.0939458574
 20
3.8435897816
 10
-2.1145060898
 20
3.8737955552
 10
-2.1145060898
 20
3.8737955552
 10
-2.133362035
 20
3.8737955552
 10
-2.133362035
 20
3.8737955552
 10
-2.1750264214
 20
3.8167200598
 10
-2.1750264214
 20
3.8167200598
 10
-2.1750264214
 20
3.7572875712
 10
-2.1750264214
 20
3.7572875712
 10
-2.1755703429
 20
3.7553294538
 10
-2.176839493
 20
3.7536251665
 10
-2.176839493
 20
3.7536251665
 10
-2.1774921988
 20
3.7532625521
 10
-2.1785075189
 20
3.7531175064
 10
-2.1785075189
 20
3.7531175064
 10
-2.1799942377
 20
3.7534075979
 10
-2.1810820807
 20
3.7542778723
 10
-2.1814809564
 20
3.7550031009
 10
-2.1817710479
 20
3.7559821596
 10
-2.1819160936
 20
3.7572513098
 10
-2.1819886165
 20
3.75877429
 10
-2.1819886165
 20
3.75877429
 10
-2.1819886165
 20
3.8794523387
 10
-2.1819886165
 20
3.8794523387
 10
-2.1816260022
 20
3.8808665346
 10
-2.1809732964
 20
3.8819181162
 10
-2.1801392834
 20
3.8826796063
 10
-2.179015179
 20
3.883078482
 10
-2.179015179
 20
3.883078482
 10
-2.1774559374
 20
3.8827521291
 10
-2.1761867872
 20
3.881736809
 10
-2.1756791272
 20
3.8808665346
 10
-2.1753165129
 20
3.8795248616
 10
-2.1750989443
 20
3.87771179
 10
-2.1750264214
 20
3.8754273197
 10
-2.1750264214
 20
3.8754273197
 10
-2.1750264214
 20
3.8305356657
 10
-2.1750264214
 20
3.8305356657
 10
-2.1356465052
 20
3.883078482
 10
-2.1356465052
 20
3.883078482
 10
-2.1116414366
 20
3.882824652
 10
-2.1116414366
 20
3.882824652
 10
-2.110336025
 20
3.8817730704
  0
LWPOLYLINE
  5
CB
330
1F
100
AcDbEntity
  8
0
  6
Continuous
 62
     7
100
AcDbPolyline
 90
       64
 70
   128
 43
0.0
 10
-2.0461887356
 20
3.8816280247
 10
-2.0456818901
 20
3.8806852275
 10
-2.0453555372
 20
3.8793435544
 10
-2.0451379686
 20
3.8774942214
 10
-2.0450654458
 20
3.8752460125
 10
-2.0450654458
 20
3.8752460125
 10
-2.0450654458
 20
3.7892338936
 10
-2.0450654458
 20
3.7892338936
 10
-2.0251941805
 20
3.7624004332
 10
-2.0251941805
 20
3.7624004332
 10
-2.0060844054
 20
3.7624004332
 10
-2.0060844054
 20
3.7624004332
 10
-1.963839836
 20
3.8197297587
 10
-1.963839836
 20
3.8197297587
 10
-1.963839836
 20
3.8791622473
 10
-1.963839836
 20
3.8791622473
 10
-1.9634772217
 20
3.8804676589
 10
-1.9628607773
 20
3.8815917633
 10
-1.9620630258
 20
3.8824257762
 10
-1.9610114443
 20
3.883078482
 10
-1.9610114443
 20
3.883078482
 10
-1.9594884641
 20
3.8827521291
 10
-1.9578566996
 20
3.8818093319
 10
-1.9578566996
 20
3.8818093319
 10
-1.9574215624
 20
3.8808302732
 10
-1.9571314709
 20
3.8794160773
 10
-1.9569501638
 20
3.8776030057
 10
-1.9568776409
 20
3.8753547968
 10
-1.9568776409
 20
3.8753547968
 10
-1.9568776409
 20
3.7572513098
 10
-1.9568776409
 20
3.7572513098
 10
-1.9572765167
 20
3.7554382381
 10
-1.9580017453
 20
3.754169088
 10
-1.9590170654
 20
3.7533713364
 10
-1.9603587385
 20
3.7531175064
 10
-1.9603587385
 20
3.7531175064
 10
-1.9617366729
 20
3.7534438593
 10
-1.9628607773
 20
3.7543503951
 10
-1.963586006
 20
3.756018421
 10
-1.963839836
 20
3.7585929828
 10
-1.963839836
 20
3.7585929828
 10
-1.963839836
 20
3.8030132381
 10
-1.963839836
 20
3.8030132381
 10
-2.0021319092
 20
3.7533713364
 10
-2.0021319092
 20
3.7533713364
 10
-2.0034735822
 20
3.7531175064
 10
-2.0034735822
 20
3.7531175064
 10
-2.0274423894
 20
3.7531175064
 10
-2.0274423894
 20
3.7531175064
 10
-2.0286027552
 20
3.7541328265
 10
-2.0286027552
 20
3.7541328265
 10
-2.0516287651
 20
3.7857890575
 10
-2.0516287651
 20
3.7857890575
 10
-2.0520276409
 20
3.7883636192
 10
-2.0520276409
 20
3.7883636192
 10
-2.0520276409
 20
3.8797424302
 10
-2.0520276409
 20
3.8797424302
 10
-2.0516650266
 20
3.8808302732
 10
-2.0510848436
 20
3.881736809
 10
-2.0503233536
 20
3.8824982991
 10
-2.0493080334
 20
3.883078482
 10
-2.0493080334
 20
3.883078482
 10
-2.0474949618
 20
3.8827158677
 10
-2.0461895502
 20
3.8816280247
  0
LWPOLYLINE
  5
CC
330
1F
100
AcDbEntity
  8
0
  6
Continuous
 62
     7
100
AcDbPolyline
 90
       54
 70
   128
 43
0.0
 10
-1.8294542793
 20
3.8828609134
 10
-1.8280407697
 20
3.8818818547
 10
-1.8272067568
 20
3.8802138288
 10
-1.8272067568
 20
3.8802138288
 10
-1.8273518025
 20
3.8774942214
 10
-1.8277869397
 20
3.8755723654
 10
-1.8277869397
 20
3.8755723654
 10
-1.8285121683
 20
3.8748108753
 10
-1.8294187042
 20
3.8742306924
 10
-1.8305065471
 20
3.8739043395
 10
-1.8317756973
 20
3.8737955552
 10
-1.8317756973
 20
3.8737955552
 10
-1.8955232964
 20
3.8737955552
 10
-1.8955232964
 20
3.8737955552
 10
-1.9151044702
 20
3.8465269576
 10
-1.9151044702
 20
3.8465269576
 10
-1.9151044702
 20
3.7896690308
 10
-1.9151044702
 20
3.7896690308
 10
-1.895487035
 20
3.7624004332
 10
-1.895487035
 20
3.7624004332
 10
-1.8302164557
 20
3.7624004332
 10
-1.8302164557
 20
3.7624004332
 10
-1.8293461813
 20
3.7621828646
 10
-1.8286209526
 20
3.7616752046
 10
-1.8280045083
 20
3.7609499759
 10
-1.8275693711
 20
3.7599709172
 10
-1.8275693711
 20
3.7599709172
 10
-1.8271342339
 20
3.7588468128
 10
-1.8269891882
 20
3.7577589698
 10
-1.8269891882
 20
3.7577589698
 10
-1.8272067568
 20
3.7561997282
 10
-1.8278594625
 20
3.7546404866
 10
-1.828403384
 20
3.7539877808
 10
-1.8291286127
 20
3.7535163822
 10
-1.8301439328
 20
3.7532262907
 10
-1.8313405601
 20
3.7531175064
 10
-1.8313405601
 20
3.7531175064
 10
-1.897916551
 20
3.7531175064
 10
-1.897916551
 20
3.7531175064
 10
-1.8990406554
 20
3.7541328265
 10
-1.8990406554
 20
3.7541328265
 10
-1.9220666653
 20
3.7857890575
 10
-1.9220666653
 20
3.7857890575
 10
-1.9220666653
 20
3.7883636192
 10
-1.9220666653
 20
3.7883636192
 10
-1.9218853581
 20
3.8496091794
 10
-1.9218853581
 20
3.8496091794
 10
-1.921123868
 20
3.8514222511
 10
-1.921123868
 20
3.8514222511
 10
-1.898170381
 20
3.882570822
 10
-1.898170381
 20
3.882570822
 10
-1.8970462766
 20
3.883078482
 10
-1.8970462766
 20
3.883078482
 10
-1.8294549656
 20
3.8828609134
  0
LWPOLYLINE
  5
CD
330
1F
100
AcDbEntity
  8
0
  6
Continuous
 62
     7
100
AcDbPolyline
 90
       83
 70
   128
 43
0.0
 10
-1.7420642489
 20
3.9419307877
 10
-1.741629775
 20
3.940951729
 10
-1.7413034221
 20
3.9395375331
 10
-1.741122115
 20
3.9376519386
 10
-1.7410495921
 20
3.9352949454
 10
-1.7410495921
 20
3.9352949454
 10
-1.7410495921
 20
3.8807577503
 10
-1.7410495921
 20
3.8807577503
 10
-1.6996752971
 20
3.8807577503
 10
-1.6996752971
 20
3.8807577503
 10
-1.698659977
 20
3.8801775674
 10
-1.6978622255
 20
3.8793435544
 10
-1.697318304
 20
3.8782557114
 10
-1.6970282125
 20
3.8769140384
 10
-1.6970282125
 20
3.8769140384
 10
-1.697318304
 20
3.874955921
 10
-1.6981885784
 20
3.8731791108
 10
-1.6989138071
 20
3.8724176207
 10
-1.6999291272
 20
3.8719099607
 10
-1.7012708002
 20
3.8715836078
 10
-1.7029388261
 20
3.8714748235
 10
-1.7029388261
 20
3.8714748235
 10
-1.7410495921
 20
3.8714748235
 10
-1.7410495921
 20
3.8714748235
 10
-1.7410495921
 20
3.7880372663
 10
-1.7410495921
 20
3.7880372663
 10
-1.72302766
 20
3.7630894005
 10
-1.72302766
 20
3.7630894005
 10
-1.7029025647
 20
3.7908656581
 10
-1.7029025647
 20
3.7908656581
 10
-1.7020322903
 20
3.7914821025
 10
-1.7010169702
 20
3.7916634096
 10
-1.7010169702
 20
3.7916634096
 10
-1.6996752971
 20
3.7913007953
 10
-1.6983698856
 20
3.7901766909
 10
-1.6973545654
 20
3.7884724035
 10
-1.6970282125
 20
3.7862967175
 10
-1.6970282125
 20
3.7862967175
 10
-1.6973908269
 20
3.7838672015
 10
-1.6973908269
 20
3.7838672015
 10
-1.7205618825
 20
3.753588905
 10
-1.7205618825
 20
3.753588905
 10
-1.721359634
 20
3.7532262907
 10
-1.7226287842
 20
3.7531175064
 10
-1.7226287842
 20
3.7531175064
 10
-1.7241155029
 20
3.7531175064
 10
-1.7241155029
 20
3.7531175064
 10
-1.7254209145
 20
3.7546404866
 10
-1.7254209145
 20
3.7546404866
 10
-1.7478304801
 20
3.7855714889
 10
-1.7478304801
 20
3.7855714889
 10
-1.7480117872
 20
3.7881460506
 10
-1.7480117872
 20
3.7881460506
 10
-1.7480117872
 20
3.8714748235
 10
-1.7480117872
 20
3.8714748235
 10
-1.7888784221
 20
3.8714748235
 10
-1.7888784221
 20
3.8714748235
 10
-1.7896761737
 20
3.8716561307
 10
-1.7904014023
 20
3.8721637907
 10
-1.7910178467
 20
3.8730340651
 10
-1.7915255068
 20
3.8742306924
 10
-1.7915255068
 20
3.8742306924
 10
-1.7919606439
 20
3.8758261954
 10
-1.7921056897
 20
3.8772766528
 10
-1.7921056897
 20
3.8772766528
 10
-1.7918518596
 20
3.8793798159
 10
-1.7910541081
 20
3.8812654104
 10
-1.7903288795
 20
3.8820631619
 10
-1.7891685136
 20
3.8826433448
 10
-1.787609272
 20
3.8829696977
 10
-1.7856511546
 20
3.883078482
 10
-1.7856511546
 20
3.883078482
 10
-1.7480117872
 20
3.883078482
 10
-1.7480117872
 20
3.883078482
 10
-1.7480117872
 20
3.9397551017
 10
-1.7480117872
 20
3.9397551017
 10
-1.7476491729
 20
3.9411692976
 10
-1.74706899
 20
3.9422571406
 10
-1.7463074999
 20
3.9429823692
 10
-1.7452921798
 20
3.9434175064
 10
-1.7452921798
 20
3.9434175064
 10
-1.7433703238
 20
3.9430548921
 10
-1.7420649122
 20
3.9419307877
  0
LWPOLYLINE
  5
CE
330
1F
100
AcDbEntity
  8
0
  6
Continuous
 62
     7
100
AcDbPolyline
 90
       27
 70
   128
 43
0.0
 10
-1.6561971875
 20
3.9420033105
 10
-1.6557627019
 20
3.9410967747
 10
-1.655436349
 20
3.9397188403
 10
-1.6552550418
 20
3.93794203
 10
-1.6551825189
 20
3.9356938212
 10
-1.6551825189
 20
3.9356938212
 10
-1.6551825189
 20
3.9070835506
 10
-1.6551825189
 20
3.9070835506
 10
-1.6558352247
 20
3.9049441261
 10
-1.6568505449
 20
3.9037112374
 10
-1.657865865
 20
3.9031310544
 10
-1.6586636165
 20
3.9029497473
 10
-1.6586636165
 20
3.9029497473
 10
-1.6601865967
 20
3.9032398387
 10
-1.6612744397
 20
3.9040375903
 10
-1.6619271455
 20
3.9054155247
 10
-1.6621447141
 20
3.9073373807
 10
-1.6621447141
 20
3.9073373807
 10
-1.6621447141
 20
3.9397913631
 10
-1.6621447141
 20
3.9397913631
 10
-1.6617095769
 20
3.941205559
 10
-1.6610931325
 20
3.9422571406
 10
-1.660295381
 20
3.9430186307
 10
-1.6593163223
 20
3.9434175064
 10
-1.6593163223
 20
3.9434175064
 10
-1.6574669892
 20
3.9430548921
 10
-1.6561978391
 20
3.9420033105
  0
LWPOLYLINE
  5
CF
330
1F
100
AcDbEntity
  8
0
  6
Continuous
 62
     7
100
AcDbPolyline
 90
       30
 70
   128
 43
0.0
 10
-1.6562699333
 20
3.8816642861
 10
-1.6557989633
 20
3.8807577503
 10
-1.655436349
 20
3.8793798159
 10
-1.6552550418
 20
3.8776030057
 10
-1.6551825189
 20
3.8753547968
 10
-1.6551825189
 20
3.8753547968
 10
-1.6551825189
 20
3.7572513098
 10
-1.6551825189
 20
3.7572513098
 10
-1.6557264404
 20
3.7553294538
 10
-1.6569955906
 20
3.7536251665
 10
-1.6569955906
 20
3.7536251665
 10
-1.6576482964
 20
3.7532625521
 10
-1.6586636165
 20
3.7531175064
 10
-1.6586636165
 20
3.7531175064
 10
-1.6601503353
 20
3.7534075979
 10
-1.6612381782
 20
3.7542778723
 10
-1.661637054
 20
3.7550031009
 10
-1.6619271455
 20
3.7559821596
 10
-1.6620721912
 20
3.7572513098
 10
-1.6621447141
 20
3.75877429
 10
-1.6621447141
 20
3.75877429
 10
-1.6621447141
 20
3.8792347701
 10
-1.6621447141
 20
3.8792347701
 10
-1.6617820997
 20
3.8805401817
 10
-1.6611656554
 20
3.8816280247
 10
-1.6603679039
 20
3.8824620377
 10
-1.6593163223
 20
3.883078482
 10
-1.6593163223
 20
3.883078482
 10
-1.6575395121
 20
3.8827158677
 10
-1.6562703619
 20
3.8816642861
  0
LWPOLYLINE
  5
D0
330
1F
100
AcDbEntity
  8
0
  6
Continuous
 62
     7
100
AcDbPolyline
 90
       32
 70
   128
 43
0.0
 10
-1.5460717396
 20
3.8818093319
 10
-1.523263426
 20
3.8501531009
 10
-1.523263426
 20
3.8501531009
 10
-1.5229008116
 20
3.8478323692
 10
-1.5229008116
 20
3.8478323692
 10
-1.5229008116
 20
3.786840639
 10
-1.5229008116
 20
3.786840639
 10
-1.5236623017
 20
3.7847737374
 10
-1.5236623017
 20
3.7847737374
 10
-1.5468333574
 20
3.7533713364
 10
-1.5468333574
 20
3.7533713364
 10
-1.5487189519
 20
3.7531175064
 10
-1.5487189519
 20
3.7531175064
 10
-1.5937556516
 20
3.7531175064
 10
-1.5937556516
 20
3.7531175064
 10
-1.594879756
 20
3.7541328265
 10
-1.594879756
 20
3.7541328265
 10
-1.6178695045
 20
3.7857890575
 10
-1.6178695045
 20
3.7857890575
 10
-1.6180508116
 20
3.7883636192
 10
-1.6180508116
 20
3.7883636192
 10
-1.6180508116
 20
3.8496091794
 10
-1.6180508116
 20
3.8496091794
 10
-1.6172893215
 20
3.8514222511
 10
-1.6172893215
 20
3.8514222511
 10
-1.5941182659
 20
3.882570822
 10
-1.5941182659
 20
3.882570822
 10
-1.5929941615
 20
3.883078482
 10
-1.5929941615
 20
3.883078482
 10
-1.5473772789
 20
3.882824652
 10
-1.5473772789
 20
3.882824652
 10
-1.5460718673
 20
3.8818093319
  0
LWPOLYLINE
  5
D1
330
1F
100
AcDbEntity
  8
0
  6
Continuous
 62
     7
100
AcDbPolyline
 90
       16
 70
   128
 43
0.0
 10
-1.5298623269
 20
3.8464906962
 10
-1.549734272
 20
3.8737955552
 10
-1.549734272
 20
3.8737955552
 10
-1.5912173513
 20
3.8737955552
 10
-1.5912173513
 20
3.8737955552
 10
-1.6110886165
 20
3.8467445262
 10
-1.6110886165
 20
3.8467445262
 10
-1.6110886165
 20
3.7897052922
 10
-1.6110886165
 20
3.7897052922
 10
-1.5912173513
 20
3.7624004332
 10
-1.5912173513
 20
3.7624004332
 10
-1.549734272
 20
3.7624004332
 10
-1.549734272
 20
3.7624004332
 10
-1.5298630068
 20
3.7899953837
 10
-1.5298630068
 20
3.7899953837
 10
-1.5298630068
 20
3.8464906962
  0
LWPOLYLINE
  5
D2
330
1F
100
AcDbEntity
  8
0
  6
Continuous
 62
     7
100
AcDbPolyline
 90
       61
 70
   128
 43
0.0
 10
-1.4163635847
 20
3.8818093319
 10
-1.3933387118
 20
3.8501531009
 10
-1.3933387118
 20
3.8501531009
 10
-1.392939836
 20
3.8478323692
 10
-1.392939836
 20
3.8478323692
 10
-1.392939836
 20
3.7572513098
 10
-1.392939836
 20
3.7572513098
 10
-1.3933387118
 20
3.7554382381
 10
-1.3940639404
 20
3.754169088
 10
-1.3950792606
 20
3.7533713364
 10
-1.3964209336
 20
3.7531175064
 10
-1.3964209336
 20
3.7531175064
 10
-1.397798868
 20
3.7534438593
 10
-1.3989229725
 20
3.754422918
 10
-1.3996482011
 20
3.7561997282
 10
-1.3999020311
 20
3.7588468128
 10
-1.3999020311
 20
3.7588468128
 10
-1.3999020311
 20
3.8466720034
 10
-1.3999020311
 20
3.8466720034
 10
-1.4197732964
 20
3.8737955552
 10
-1.4197732964
 20
3.8737955552
 10
-1.4388830715
 20
3.8737955552
 10
-1.4388830715
 20
3.8737955552
 10
-1.4811276409
 20
3.8167200598
 10
-1.4811276409
 20
3.8167200598
 10
-1.4811276409
 20
3.7572875712
 10
-1.4811276409
 20
3.7572875712
 10
-1.4816715624
 20
3.7553294538
 10
-1.4829407125
 20
3.7536251665
 10
-1.4829407125
 20
3.7536251665
 10
-1.4835934183
 20
3.7532625521
 10
-1.4846087385
 20
3.7531175064
 10
-1.4846087385
 20
3.7531175064
 10
-1.4860954572
 20
3.7534075979
 10
-1.4871833002
 20
3.7542778723
 10
-1.487582176
 20
3.7550031009
 10
-1.4878722674
 20
3.7559821596
 10
-1.4880173132
 20
3.7572513098
 10
-1.488089836
 20
3.75877429
 10
-1.488089836
 20
3.75877429
 10
-1.488089836
 20
3.8794523387
 10
-1.488089836
 20
3.8794523387
 10
-1.4877272217
 20
3.8808665346
 10
-1.4870745159
 20
3.8819181162
 10
-1.4862405029
 20
3.8826796063
 10
-1.4851163985
 20
3.883078482
 10
-1.4851163985
 20
3.883078482
 10
-1.4835571569
 20
3.8827521291
 10
-1.4822880068
 20
3.881736809
 10
-1.4817803467
 20
3.8808665346
 10
-1.4814177324
 20
3.8795248616
 10
-1.4812001638
 20
3.87771179
 10
-1.4811276409
 20
3.8754273197
 10
-1.4811276409
 20
3.8754273197
 10
-1.4811276409
 20
3.8305356657
 10
-1.4811276409
 20
3.8305356657
 10
-1.4417114633
 20
3.883078482
 10
-1.4417114633
 20
3.883078482
 10
-1.4177063947
 20
3.882824652
 10
-1.4177063947
 20
3.882824652
 10
-1.4163647217
 20
3.8818093319
  0
LWPOLYLINE
  5
D3
330
1F
100
AcDbEntity
  8
0
  6
Continuous
 62
     7
100
AcDbPolyline
 90
       50
 70
   128
 43
0.0
 10
-1.3091033838
 20
3.8820631619
 10
-1.2865487918
 20
3.850406931
 10
-1.2865487918
 20
3.850406931
 10
-1.2861861775
 20
3.8488476893
 10
-1.2861861775
 20
3.8488476893
 10
-1.2861861775
 20
3.7906843509
 10
-1.2861861775
 20
3.7906843509
 10
-1.2636315662
 20
3.7610950217
 10
-1.2636315662
 20
3.7610950217
 10
-1.263196429
 20
3.7592456886
 10
-1.2630513833
 20
3.7582666299
 10
-1.2630513833
 20
3.7582666299
 10
-1.2630876447
 20
3.7573600941
 10
-1.2632326904
 20
3.7567073883
 10
-1.2632326904
 20
3.7567073883
 10
-1.2636678276
 20
3.7554382381
 10
-1.2642117491
 20
3.7543866566
 10
-1.2649007164
 20
3.7536251665
 10
-1.2656984679
 20
3.7531175064
 10
-1.2656984679
 20
3.7531175064
 10
-1.266967618
 20
3.7531537678
 10
-1.2679829382
 20
3.7532262907
 10
-1.2687444282
 20
3.7533713364
 10
-1.2692520883
 20
3.753588905
 10
-1.2692520883
 20
3.753588905
 10
-1.2888332621
 20
3.7779203265
 10
-1.2888332621
 20
3.7779203265
 10
-1.3088133116
 20
3.753335075
 10
-1.3088133116
 20
3.753335075
 10
-1.3101187232
 20
3.7531175064
 10
-1.3101187232
 20
3.7531175064
 10
-1.3338337004
 20
3.7531175064
 10
-1.3338337004
 20
3.7531175064
 10
-1.3349578048
 20
3.7541328265
 10
-1.3349578048
 20
3.7541328265
 10
-1.3579475532
 20
3.7857890575
 10
-1.3579475532
 20
3.7857890575
 10
-1.3581288604
 20
3.7883636192
 10
-1.3581288604
 20
3.7883636192
 10
-1.3581288604
 20
3.8496091794
 10
-1.3581288604
 20
3.8496091794
 10
-1.3574036318
 20
3.8514222511
 10
-1.3574036318
 20
3.8514222511
 10
-1.3346314519
 20
3.882570822
 10
-1.3346314519
 20
3.882570822
 10
-1.3335436089
 20
3.883078482
 10
-1.3335436089
 20
3.883078482
 10
-1.3105901218
 20
3.882824652
 10
-1.3105901218
 20
3.882824652
 10
-1.3091034031
 20
3.8820631619
  0
LWPOLYLINE
  5
D4
330
1F
100
AcDbEntity
  8
0
  6
Continuous
 62
     7
100
AcDbPolyline
 90
       16
 70
   128
 43
0.0
 10
-1.2931474081
 20
3.8464906962
 10
-1.3127295464
 20
3.8737955552
 10
-1.3127295464
 20
3.8737955552
 10
-1.3315854915
 20
3.8737955552
 10
-1.3315854915
 20
3.8737955552
 10
-1.3511666653
 20
3.8467445262
 10
-1.3511666653
 20
3.8467445262
 10
-1.3511666653
 20
3.7897052922
 10
-1.3511666653
 20
3.7897052922
 10
-1.3315854915
 20
3.7624004332
 10
-1.3315854915
 20
3.7624004332
 10
-1.3127295464
 20
3.7624004332
 10
-1.3127295464
 20
3.7624004332
 10
-1.2931483726
 20
3.7899953837
 10
-1.2931483726
 20
3.7899953837
 10
-1.2931483726
 20
3.8464906962
  0
LWPOLYLINE
  5
D5
330
1F
100
AcDbEntity
  8
0
  6
Continuous
 62
     7
100
AcDbPolyline
 90
       33
 70
   128
 43
0.0
 10
-1.2222208141
 20
3.9420033105
 10
-1.2217858726
 20
3.9410605133
 10
-1.2214595197
 20
3.9397188403
 10
-1.2212782125
 20
3.9379057686
 10
-1.2212056897
 20
3.9356575598
 10
-1.2212056897
 20
3.9356575598
 10
-1.2212056897
 20
3.7906118281
 10
-1.2212056897
 20
3.7906118281
 10
-1.1990136927
 20
3.7611312831
 10
-1.1990136927
 20
3.7611312831
 10
-1.1985785555
 20
3.7598258715
 10
-1.1984335098
 20
3.7585567214
 10
-1.1984335098
 20
3.7585567214
 10
-1.1986873398
 20
3.756598604
 10
-1.1994850914
 20
3.7547855323
 10
-1.2007542415
 20
3.7535526436
 10
-1.2025673132
 20
3.7531175064
 10
-1.2025673132
 20
3.7531175064
 10
-1.2042716005
 20
3.7533713364
 10
-1.2042716005
 20
3.7533713364
 10
-1.2275877019
 20
3.7854264432
 10
-1.2275877019
 20
3.7854264432
 10
-1.2281678848
 20
3.7874933448
 10
-1.2281678848
 20
3.7874933448
 10
-1.2281678848
 20
3.9397913631
 10
-1.2281678848
 20
3.9397913631
 10
-1.2277327476
 20
3.941205559
 10
-1.2271163032
 20
3.9422571406
 10
-1.2263185517
 20
3.9430186307
 10
-1.225339493
 20
3.9434175064
 10
-1.225339493
 20
3.9434175064
 10
-1.22349016
 20
3.9430548921
 10
-1.2222210098
 20
3.9420033105
  0
LWPOLYLINE
  5
D6
330
1F
100
AcDbEntity
  8
0
  6
Continuous
 62
     7
100
AcDbPolyline
 90
       51
 70
   128
 43
0.0
 10
-1.0272790128
 20
3.9419670491
 10
-1.0268444092
 20
3.9410242518
 10
-1.0265180563
 20
3.9396825788
 10
-1.0263367491
 20
3.9378332457
 10
-1.0262642263
 20
3.9355850369
 10
-1.0262642263
 20
3.9355850369
 10
-1.0262642263
 20
3.789270155
 10
-1.0262642263
 20
3.789270155
 10
-1.006392961
 20
3.7624004332
 10
-1.006392961
 20
3.7624004332
 10
-0.9649098818
 20
3.7624004332
 10
-0.9649098818
 20
3.7624004332
 10
-0.9450386165
 20
3.7895239851
 10
-0.9450386165
 20
3.7895239851
 10
-0.9450386165
 20
3.9397551017
 10
-0.9450386165
 20
3.9397551017
 10
-0.9445309564
 20
3.9411692976
 10
-0.9439145121
 20
3.9422571406
 10
-0.9431167606
 20
3.9429823692
 10
-0.9422102247
 20
3.9434175064
 10
-0.9422102247
 20
3.9434175064
 10
-0.9405421988
 20
3.9430548921
 10
-0.9392367872
 20
3.9420033105
 10
-0.9387291272
 20
3.9410605133
 10
-0.9383665129
 20
3.9397188403
 10
-0.9381489443
 20
3.9379057686
 10
-0.9380764214
 20
3.9356575598
 10
-0.9380764214
 20
3.9356575598
 10
-0.9388379115
 20
3.7849187831
 10
-0.9388379115
 20
3.7849187831
 10
-0.9620089671
 20
3.7533713364
 10
-0.9620089671
 20
3.7533713364
 10
-0.9638945616
 20
3.7531175064
 10
-0.9638945616
 20
3.7531175064
 10
-1.0089312613
 20
3.7531175064
 10
-1.0089312613
 20
3.7531175064
 10
-1.0100553657
 20
3.754169088
 10
-1.0100553657
 20
3.754169088
 10
-1.0328638071
 20
3.7859703646
 10
-1.0328638071
 20
3.7859703646
 10
-1.0332264214
 20
3.7885449264
 10
-1.0332264214
 20
3.7885449264
 10
-1.0332264214
 20
3.9397913631
 10
-1.0332264214
 20
3.9397913631
 10
-1.0327912842
 20
3.941205559
 10
-1.0321748398
 20
3.9422571406
 10
-1.0313770883
 20
3.9430186307
 10
-1.0303980296
 20
3.9434175064
 10
-1.0303980296
 20
3.9434175064
 10
-1.0285486965
 20
3.9430548921
 10
-1.0272795464
 20
3.9419670491
  0
LWPOLYLINE
  5
D7
330
1F
100
AcDbEntity
  8
0
  6
Continuous
 62
     7
100
AcDbPolyline
 90
       80
 70
   128
 43
0.0
 10
-0.8124664543
 20
3.8828609134
 10
-0.8113064519
 20
3.8818818547
 10
-0.8104361775
 20
3.8802138288
 10
-0.8104361775
 20
3.8802138288
 10
-0.8104724389
 20
3.8785820643
 10
-0.8105812232
 20
3.8772766528
 10
-0.8107262689
 20
3.8762613326
 10
-0.810980099
 20
3.8755723654
 10
-0.810980099
 20
3.8755723654
 10
-0.8115602819
 20
3.8748108753
 10
-0.8123580334
 20
3.8742306924
 10
-0.813409615
 20
3.8739043395
 10
-0.8146787651
 20
3.8737955552
 10
-0.8146787651
 20
3.8737955552
 10
-0.8763594625
 20
3.8737955552
 10
-0.8763594625
 20
3.8737955552
 10
-0.8936561661
 20
3.8471071406
 10
-0.8936561661
 20
3.8471071406
 10
-0.8762506782
 20
3.8204187259
 10
-0.8762506782
 20
3.8204187259
 10
-0.8342599389
 20
3.8204187259
 10
-0.8342599389
 20
3.8204187259
 10
-0.8329907888
 20
3.8194396672
 10
-0.8329907888
 20
3.8194396672
 10
-0.8107987918
 20
3.7891251093
 10
-0.8107987918
 20
3.7891251093
 10
-0.8105087004
 20
3.7877834363
 10
-0.8104361775
 20
3.7866593319
 10
-0.8104361775
 20
3.7866593319
 10
-0.8105087004
 20
3.7858978418
 10
-0.8107987918
 20
3.7846649531
 10
-0.8107987918
 20
3.7846649531
 10
-0.8117415891
 20
3.7829606657
 10
-0.8117415891
 20
3.7829606657
 10
-0.8338248017
 20
3.7533713364
 10
-0.8338248017
 20
3.7533713364
 10
-0.8356741348
 20
3.7531175064
 10
-0.8356741348
 20
3.7531175064
 10
-0.9010534984
 20
3.7531175064
 10
-0.9010534984
 20
3.7531175064
 10
-0.90235891
 20
3.754169088
 10
-0.9032654458
 20
3.7559821596
 10
-0.9032654458
 20
3.7559821596
 10
-0.9027940471
 20
3.7564172968
 10
-0.90261274
 20
3.7568886954
 10
-0.9027940471
 20
3.7573238326
 10
-0.9032654458
 20
3.7577589698
 10
-0.9032654458
 20
3.7577589698
 10
-0.9029753543
 20
3.7598621329
 10
-0.9021413414
 20
3.7612763288
 10
-0.9014523741
 20
3.7617839889
 10
-0.900437054
 20
3.7621103418
 10
-0.8991679039
 20
3.7623279104
 10
-0.8976086622
 20
3.7624004332
 10
-0.8976086622
 20
3.7624004332
 10
-0.8355290891
 20
3.7624004332
 10
-0.8355290891
 20
3.7624004332
 10
-0.8177972484
 20
3.7869131619
 10
-0.8177972484
 20
3.7869131619
 10
-0.8354928276
 20
3.8111357991
 10
-0.8354928276
 20
3.8111357991
 10
-0.8786076714
 20
3.8111357991
 10
-0.8786076714
 20
3.8111357991
 10
-0.879913083
 20
3.8121873807
 10
-0.879913083
 20
3.8121873807
 10
-0.9029028314
 20
3.8447501474
 10
-0.9029028314
 20
3.8447501474
 10
-0.9031566615
 20
3.845801729
 10
-0.9032654458
 20
3.8473609706
 10
-0.9032654458
 20
3.8473609706
 10
-0.9032291843
 20
3.848485075
 10
-0.9030841386
 20
3.8492103037
 10
-0.9030841386
 20
3.8492103037
 10
-0.9019600342
 20
3.8510596368
 10
-0.9019600342
 20
3.8510596368
 10
-0.8798405601
 20
3.882570822
 10
-0.8798405601
 20
3.882570822
 10
-0.8787164557
 20
3.883078482
 10
-0.8787164557
 20
3.883078482
 10
-0.8124668177
 20
3.8828609134
  0
LWPOLYLINE
  5
D8
330
1F
100
AcDbEntity
  8
0
  6
Continuous
 62
     7
100
AcDbPolyline
 90
       52
 70
   128
 43
0.0
 10
-0.7013976574
 20
3.8817730704
 10
-0.6785896074
 20
3.8494641337
 10
-0.6785896074
 20
3.8494641337
 10
-0.6782995159
 20
3.8486301207
 10
-0.678226993
 20
3.8471071406
 10
-0.678226993
 20
3.8471071406
 10
-0.6782632545
 20
3.845801729
 10
-0.6784083002
 20
3.8450039775
 10
-0.6784083002
 20
3.8450039775
 10
-0.6793510975
 20
3.8431546444
 10
-0.6793510975
 20
3.8431546444
 10
-0.702594676
 20
3.8116434592
 10
-0.702594676
 20
3.8116434592
 10
-0.7044802705
 20
3.8111357991
 10
-0.7044802705
 20
3.8111357991
 10
-0.766342275
 20
3.8111357991
 10
-0.766342275
 20
3.8111357991
 10
-0.766342275
 20
3.7889438021
 10
-0.766342275
 20
3.7889438021
 10
-0.7466885784
 20
3.7624004332
 10
-0.7466885784
 20
3.7624004332
 10
-0.7031385975
 20
3.7624004332
 10
-0.7031385975
 20
3.7624004332
 10
-0.7014343101
 20
3.7613851131
 10
-0.7005640357
 20
3.7600797015
 10
-0.7002014214
 20
3.75877429
 10
-0.7000926371
 20
3.7577589698
 10
-0.7000926371
 20
3.7577589698
 10
-0.7002739443
 20
3.7557283296
 10
-0.7008541272
 20
3.7542778723
 10
-0.7017969244
 20
3.7534075979
 10
-0.703102336
 20
3.7531175064
 10
-0.703102336
 20
3.7531175064
 10
-0.7490093101
 20
3.7531175064
 10
-0.7490093101
 20
3.7531175064
 10
-0.750169676
 20
3.7541328265
 10
-0.750169676
 20
3.7541328265
 10
-0.773123163
 20
3.7857890575
 10
-0.773123163
 20
3.7857890575
 10
-0.7733044702
 20
3.7883636192
 10
-0.7733044702
 20
3.7883636192
 10
-0.7733044702
 20
3.8496091794
 10
-0.7733044702
 20
3.8496091794
 10
-0.7725429801
 20
3.8514222511
 10
-0.7725429801
 20
3.8514222511
 10
-0.7494081859
 20
3.882570822
 10
-0.7494081859
 20
3.882570822
 10
-0.74824782
 20
3.883078482
 10
-0.74824782
 20
3.883078482
 10
-0.7027034603
 20
3.882824652
 10
-0.7027034603
 20
3.882824652
 10
-0.7013980487
 20
3.8817730704
  0
LWPOLYLINE
  5
D9
330
1F
100
AcDbEntity
  8
0
  6
Continuous
 62
     7
100
AcDbPolyline
 90
       12
 70
   128
 43
0.0
 10
-0.6878358407
 20
3.8472521863
 10
-0.7057494206
 20
3.8737955552
 10
-0.7057494206
 20
3.8737955552
 10
-0.7467248398
 20
3.8737955552
 10
-0.7467248398
 20
3.8737955552
 10
-0.766342275
 20
3.8450039775
 10
-0.766342275
 20
3.8450039775
 10
-0.766342275
 20
3.8204187259
 10
-0.766342275
 20
3.8204187259
 10
-0.7059307278
 20
3.8204187259
 10
-0.7059307278
 20
3.8204187259
 10
-0.6878362728
 20
3.8472521863
  0
LWPOLYLINE
  5
DA
330
1F
100
AcDbEntity
  8
0
  6
Continuous
 62
     7
100
AcDbPolyline
 90
       30
 70
   128
 43
0.0
 10
-0.4206982067
 20
3.9431636764
 10
-0.419828022
 20
3.9427648006
 10
-0.4191390548
 20
3.9421483563
 10
-0.4185951333
 20
3.941205559
 10
-0.4182325189
 20
3.9400451932
 10
-0.4182325189
 20
3.9400451932
 10
-0.4182325189
 20
3.9356575598
 10
-0.4182325189
 20
3.9356575598
 10
-0.4182325189
 20
3.7572513098
 10
-0.4182325189
 20
3.7572513098
 10
-0.4189214862
 20
3.7550031009
 10
-0.4202994206
 20
3.7533713364
 10
-0.4202994206
 20
3.7533713364
 10
-0.4216410936
 20
3.7531175064
 10
-0.4216410936
 20
3.7531175064
 10
-0.5109167415
 20
3.7531175064
 10
-0.5109167415
 20
3.7531175064
 10
-0.5124759831
 20
3.7544954409
 10
-0.5133825189
 20
3.7564898197
 10
-0.5133825189
 20
3.7564898197
 10
-0.5133825189
 20
3.7616389432
 10
-0.5133825189
 20
3.7616389432
 10
-0.5133825189
 20
3.9397913631
 10
-0.5133825189
 20
3.9397913631
 10
-0.5129473818
 20
3.9409879904
 10
-0.512294676
 20
3.9420033105
 10
-0.5113518787
 20
3.9428010621
 10
-0.5101552514
 20
3.9434175064
 10
-0.5101552514
 20
3.9434175064
 10
-0.4206982964
 20
3.9431636764
  0
LWPOLYLINE
  5
DB
330
1F
100
AcDbEntity
  8
0
  6
Continuous
 62
     7
100
AcDbPolyline
 90
        8
 70
   128
 43
0.0
 10
-0.4251946614
 20
3.7624004332
 10
-0.4251947141
 20
3.9341345796
 10
-0.4251947141
 20
3.9341345796
 10
-0.5064203238
 20
3.9341345796
 10
-0.5064203238
 20
3.9341345796
 10
-0.5064203238
 20
3.7624004332
 10
-0.5064203238
 20
3.7624004332
 10
-0.4251947141
 20
3.7624004332
  0
LWPOLYLINE
  5
DC
330
1F
100
AcDbEntity
  8
0
  6
Continuous
 62
     7
100
AcDbPolyline
 90
       61
 70
   128
 43
0.0
 10
-0.3116962126
 20
3.8818093319
 10
-0.2886704191
 20
3.8501531009
 10
-0.2886704191
 20
3.8501531009
 10
-0.2882715433
 20
3.8478323692
 10
-0.2882715433
 20
3.8478323692
 10
-0.2882715433
 20
3.7572513098
 10
-0.2882715433
 20
3.7572513098
 10
-0.2886704191
 20
3.7554382381
 10
-0.2893956478
 20
3.754169088
 10
-0.2904109679
 20
3.7533713364
 10
-0.2917526409
 20
3.7531175064
 10
-0.2917526409
 20
3.7531175064
 10
-0.2931305754
 20
3.7534438593
 10
-0.2942546798
 20
3.754422918
 10
-0.2949799084
 20
3.7561997282
 10
-0.2952337385
 20
3.7588468128
 10
-0.2952337385
 20
3.7588468128
 10
-0.2952337385
 20
3.8466720034
 10
-0.2952337385
 20
3.8466720034
 10
-0.3151050037
 20
3.8737955552
 10
-0.3151050037
 20
3.8737955552
 10
-0.3342147789
 20
3.8737955552
 10
-0.3342147789
 20
3.8737955552
 10
-0.3764593482
 20
3.8167200598
 10
-0.3764593482
 20
3.8167200598
 10
-0.3764593482
 20
3.7572875712
 10
-0.3764593482
 20
3.7572875712
 10
-0.3770032697
 20
3.7553294538
 10
-0.3782724199
 20
3.7536251665
 10
-0.3782724199
 20
3.7536251665
 10
-0.3789251257
 20
3.7532625521
 10
-0.3799404458
 20
3.7531175064
 10
-0.3799404458
 20
3.7531175064
 10
-0.3814271645
 20
3.7534075979
 10
-0.3825150075
 20
3.7542778723
 10
-0.3829138833
 20
3.7550031009
 10
-0.3832039747
 20
3.7559821596
 10
-0.3833490205
 20
3.7572513098
 10
-0.3834215433
 20
3.75877429
 10
-0.3834215433
 20
3.75877429
 10
-0.3834215433
 20
3.8794523387
 10
-0.3834215433
 20
3.8794523387
 10
-0.383058929
 20
3.8808665346
 10
-0.3824062232
 20
3.8819181162
 10
-0.3815722103
 20
3.8826796063
 10
-0.3804481058
 20
3.883078482
 10
-0.3804481058
 20
3.883078482
 10
-0.3788888642
 20
3.8827521291
 10
-0.3776197141
 20
3.881736809
 10
-0.377112054
 20
3.8808665346
 10
-0.3767494397
 20
3.8795248616
 10
-0.3765318711
 20
3.87771179
 10
-0.3764593482
 20
3.8754273197
 10
-0.3764593482
 20
3.8754273197
 10
-0.3764593482
 20
3.8305356657
 10
-0.3764593482
 20
3.8305356657
 10
-0.3370431706
 20
3.883078482
 10
-0.3370431706
 20
3.883078482
 10
-0.313038102
 20
3.882824652
 10
-0.313038102
 20
3.882824652
 10
-0.311696429
 20
3.8818093319
  0
LWPOLYLINE
  5
DD
330
1F
100
AcDbEntity
  8
0
  6
Continuous
 62
     7
100
AcDbPolyline
 90
       33
 70
   128
 43
0.0
 10
-0.2475135674
 20
3.9420033105
 10
-0.2470785555
 20
3.9410605133
 10
-0.2467522026
 20
3.9397188403
 10
-0.2465708955
 20
3.9379057686
 10
-0.2464983726
 20
3.9356575598
 10
-0.2464983726
 20
3.9356575598
 10
-0.2464983726
 20
3.7906118281
 10
-0.2464983726
 20
3.7906118281
 10
-0.2243063757
 20
3.7611312831
 10
-0.2243063757
 20
3.7611312831
 10
-0.2238712385
 20
3.7598258715
 10
-0.2237261927
 20
3.7585567214
 10
-0.2237261927
 20
3.7585567214
 10
-0.2239800228
 20
3.756598604
 10
-0.2247777743
 20
3.7547855323
 10
-0.2260469244
 20
3.7535526436
 10
-0.2278599961
 20
3.7531175064
 10
-0.2278599961
 20
3.7531175064
 10
-0.2295642834
 20
3.7533713364
 10
-0.2295642834
 20
3.7533713364
 10
-0.2528803848
 20
3.7854264432
 10
-0.2528803848
 20
3.7854264432
 10
-0.2534605677
 20
3.7874933448
 10
-0.2534605677
 20
3.7874933448
 10
-0.2534605677
 20
3.9397913631
 10
-0.2534605677
 20
3.9397913631
 10
-0.2530254305
 20
3.941205559
 10
-0.2524089862
 20
3.9422571406
 10
-0.2516112346
 20
3.9430186307
 10
-0.250632176
 20
3.9434175064
 10
-0.250632176
 20
3.9434175064
 10
-0.2487828429
 20
3.9430548921
 10
-0.2475136927
 20
3.9420033105
  0
LWPOLYLINE
  5
DE
330
1F
100
AcDbEntity
  8
0
  6
Continuous
 62
     7
100
AcDbPolyline
 90
       61
 70
   128
 43
0.0
 10
-0.1820254572
 20
3.8817730704
 10
-0.1809377019
 20
3.8793798159
 10
-0.1809377019
 20
3.8793798159
 10
-0.1418841386
 20
3.7678759096
 10
-0.1418841386
 20
3.7678759096
 10
-0.102467961
 20
3.8807214889
 10
-0.102467961
 20
3.8807214889
 10
-0.1013075952
 20
3.8822082076
 10
-0.0997120921
 20
3.883078482
 10
-0.0997120921
 20
3.883078482
 10
-0.0982616348
 20
3.8828609134
 10
-0.0971012689
 20
3.8821356848
 10
-0.0962309946
 20
3.8809753189
 10
-0.0956508116
 20
3.8793435544
 10
-0.0956508116
 20
3.8793435544
 10
-0.0950343673
 20
3.8791622473
 10
-0.0948167987
 20
3.8789446787
 10
-0.0950343673
 20
3.8786183258
 10
-0.0956508116
 20
3.8782557114
 10
-0.0956508116
 20
3.8782557114
 10
-0.0956508116
 20
3.8777843128
 10
-0.0956508116
 20
3.8774579599
 10
-0.0956508116
 20
3.8774579599
 10
-0.0957233345
 20
3.8766602084
 10
-0.0959046417
 20
3.8756448883
 10
-0.096267256
 20
3.8744119996
 10
-0.0967386546
 20
3.8729252808
 10
-0.0967386546
 20
3.8729252808
 10
-0.160341208
 20
3.6877018814
 10
-0.160341208
 20
3.6877018814
 10
-0.1615015738
 20
3.686577777
 10
-0.1630970769
 20
3.6858162869
 10
-0.1630970769
 20
3.6858162869
 10
-0.1860868254
 20
3.6881370186
 10
-0.1860868254
 20
3.6881370186
 10
-0.1874647598
 20
3.6892248616
 10
-0.1882987728
 20
3.6907841032
 10
-0.1882987728
 20
3.6907841032
 10
-0.1884438185
 20
3.6915455933
 10
-0.1884800799
 20
3.6925609134
 10
-0.1884800799
 20
3.6925609134
 10
-0.1881899885
 20
3.694700338
 10
-0.1872834526
 20
3.6961870567
 10
-0.186558224
 20
3.6967309782
 10
-0.1855429039
 20
3.697129854
 10
-0.1843100151
 20
3.6973474226
 10
-0.1828232964
 20
3.6974199454
 10
-0.1828232964
 20
3.6974199454
 10
-0.1651277171
 20
3.6974199454
 10
-0.1651277171
 20
3.6974199454
 10
-0.1453652362
 20
3.753588905
 10
-0.1453652362
 20
3.753588905
 10
-0.1884800799
 20
3.8761162869
 10
-0.1884800799
 20
3.8761162869
 10
-0.1881899885
 20
3.8790172015
 10
-0.1873922369
 20
3.8811928875
 10
-0.1860868254
 20
3.8826070834
 10
-0.1844187994
 20
3.883078482
 10
-0.1844187994
 20
3.883078482
 10
-0.1832584336
 20
3.8827521291
 10
-0.1820255449
 20
3.8817730704
  0
LWPOLYLINE
  5
DF
330
1F
100
AcDbEntity
  8
0
  6
Continuous
 62
     7
100
AcDbPolyline
 90
       30
 70
   128
 43
0.0
 10
-0.052572206
 20
3.791192011
 10
-0.0521370921
 20
3.7902854752
 10
-0.0518107392
 20
3.7889800636
 10
-0.0516294321
 20
3.7872032534
 10
-0.0515569092
 20
3.7850275674
 10
-0.0515569092
 20
3.7850275674
 10
-0.0515569092
 20
3.7571425255
 10
-0.0515569092
 20
3.7571425255
 10
-0.0521008307
 20
3.755256931
 10
-0.0533699808
 20
3.7536251665
 10
-0.0533699808
 20
3.7536251665
 10
-0.0540226866
 20
3.7532625521
 10
-0.0550380068
 20
3.7531175064
 10
-0.0550380068
 20
3.7531175064
 10
-0.0565247255
 20
3.7534075979
 10
-0.0576125685
 20
3.7542416108
 10
-0.0580114443
 20
3.7549305781
 10
-0.0583015357
 20
3.7559096368
 10
-0.0584465814
 20
3.7571425255
 10
-0.0585191043
 20
3.7586292442
 10
-0.0585191043
 20
3.7586292442
 10
-0.0585191043
 20
3.7890525864
 10
-0.0585191043
 20
3.7890525864
 10
-0.0580839671
 20
3.7905755666
 10
-0.0574312613
 20
3.791699671
 10
-0.0565972484
 20
3.7923523768
 10
-0.0555456668
 20
3.7925699454
 10
-0.0555456668
 20
3.7925699454
 10
-0.053805118
 20
3.7922435925
 10
-0.0525722293
 20
3.791192011
  0
MTEXT
  5
E1
330
1F
100
AcDbEntity
  8
0
  6
Continuous
 62
     7
100
AcDbMText
 10
-3.1799032507
 20
3.6456758778
 30
0.0
 40
0.1903
 41
0.0
 71
     1
 72
     1
  1
SOLIDWORKS Educational Product.
  7
SLDTEXTSTYLE0
 73
     1
 44
1.0
  0
MTEXT
  5
E2
330
1F
100
AcDbEntity
  8
0
  6
Continuous
 62
     7
100
AcDbMText
 10
-3.1799032507
 20
3.3602258778
 30
0.0
 40
0.1903
 41
0.0
 71
     1
 72
     1
  1
For Instructional Use Only.
  7
SLDTEXTSTYLE0
 73
     1
 44
1.0
  0
ENDSEC
  0
SECTION
  2
OBJECTS
  0
DICTIONARY
  5
C
330
0
100
AcDbDictionary
281
     1
  3
ACAD_GROUP
350
D
  3
ACAD_LAYOUT
350
1A
  3
ACAD_MLINESTYLE
350
17
  3
ACAD_PLOTSETTINGS
350
19
  3
ACAD_PLOTSTYLENAME
350
E
  3
ACAD_SCALELIST
350
47
  0
DICTIONARY
  5
D
102
{ACAD_REACTORS
330
C
102
}
330
C
100
AcDbDictionary
281
     1
  0
DICTIONARY
  5
1A
102
{ACAD_REACTORS
330
C
102
}
330
C
100
AcDbDictionary
281
     1
  3
Layout1
350
1E
  3
Layout2
350
26
  3
Model
350
22
  0
DICTIONARY
  5
17
102
{ACAD_REACTORS
330
C
102
}
330
C
100
AcDbDictionary
281
     1
  3
Standard
350
18
  0
DICTIONARY
  5
19
102
{ACAD_REACTORS
330
C
102
}
330
C
100
AcDbDictionary
281
     1
  0
ACDBDICTIONARYWDFLT
  5
E
102
{ACAD_REACTORS
330
C
102
}
330
C
100
AcDbDictionary
281
     1
  3
Normal
350
F
100
AcDbDictionaryWithDefault
340
F
  0
DICTIONARY
  5
47
102
{ACAD_REACTORS
330
C
102
}
330
C
100
AcDbDictionary
281
     1
  3
A0
350
48
  3
A1
350
49
  3
A2
350
4A
  3
A3
350
4B
  3
A4
350
4C
  3
A5
350
4D
  3
A6
350
4E
  3
A7
350
4F
  3
A8
350
50
  3
A9
350
51
  3
B0
350
52
  3
B1
350
53
  3
B2
350
54
  3
B3
350
55
  3
B4
350
56
  3
B5
350
57
  3
B6
350
58
  3
B7
350
59
  3
B8
350
5A
  3
B9
350
5B
  3
C0
350
5C
  3
C1
350
5D
  3
C2
350
5E
  3
C3
350
5F
  3
C4
350
60
  3
C5
350
61
  3
C6
350
62
  3
C7
350
63
  3
C8
350
64
  3
C9
350
65
  3
D0
350
66
  3
D1
350
67
  3
D2
350
68
  0
LAYOUT
  5
1E
102
{ACAD_REACTORS
330
1A
102
}
330
1A
100
AcDbPlotSettings
  1

  2
none_device
  4

  6

 40
0.0
 41
0.0
 42
0.0
 43
0.0
 44
0.0
 45
0.0
 46
0.0
 47
0.0
 48
0.0
 49
0.0
140
0.0
141
0.0
142
1.0
143
1.0
 70
   688
 72
     0
 73
     0
 74
     5
  7

 75
    16
147
1.0
148
0.0
149
0.0
100
AcDbLayout
  1
Layout1
 70
     1
 71
     1
 10
0.0
 20
0.0
 11
12.0
 21
9.0
 12
0.0
 22
0.0
 32
0.0
 14
1.0000000000E+20
 24
1.0000000000E+20
 34
1.0000000000E+20
 15
-1.0000000000E+20
 25
-1.0000000000E+20
 35
-1.0000000000E+20
146
0.0
 13
0.0
 23
0.0
 33
0.0
 16
1.0
 26
0.0
 36
0.0
 17
0.0
 27
1.0
 37
0.0
 76
     0
330
1B
  0
LAYOUT
  5
26
102
{ACAD_REACTORS
330
1A
102
}
330
1A
100
AcDbPlotSettings
  1

  2
none_device
  4

  6

 40
0.0
 41
0.0
 42
0.0
 43
0.0
 44
0.0
 45
0.0
 46
0.0
 47
0.0
 48
0.0
 49
0.0
140
0.0
141
0.0
142
1.0
143
1.0
 70
   688
 72
     0
 73
     0
 74
     5
  7

 75
    16
147
1.0
148
0.0
149
0.0
100
AcDbLayout
  1
Layout2
 70
     1
 71
     2
 10
0.0
 20
0.0
 11
0.0
 21
0.0
 12
0.0
 22
0.0
 32
0.0
 14
0.0
 24
0.0
 34
0.0
 15
0.0
 25
0.0
 35
0.0
146
0.0
 13
0.0
 23
0.0
 33
0.0
 16
1.0
 26
0.0
 36
0.0
 17
0.0
 27
1.0
 37
0.0
 76
     0
330
23
  0
LAYOUT
  5
22
102
{ACAD_REACTORS
330
1A
102
}
330
1A
100
AcDbPlotSettings
  1

  2
none_device
  4
ANSI_A_(11.00_x_8.50_Inches)
  6

 40
6.35
 41
19.05
 42
6.35000508
 43
19.05000254
 44
279.4
 45
215.9
 46
229.1482397726
 47
-272.6295025217
 48
0.0
 49
0.0
140
0.0
141
0.0
142
2.8983851446
143
1.0
 70
  1696
 72
     0
 73
     0
 74
     0
  7

 75
     0
147
0.5913241897
148
-39.4088153714
149
0.0
100
AcDbLayout
  1
Model
 70
     1
 71
     0
 10
0.0
 20
0.0
 11
12.0
 21
9.0
 12
0.0
 22
0.0
 32
0.0
 14
-3.1799032507
 24
3.6858162869
 34
0.0
 15
0.5773613835
 25
6.1358217777
 35
0.0
146
0.0
 13
0.0
 23
0.0
 33
0.0
 16
1.0
 26
0.0
 36
0.0
 17
0.0
 27
1.0
 37
0.0
 76
     0
330
1F
331
29
  0
MLINESTYLE
  5
18
102
{ACAD_REACTORS
330
17
102
}
330
17
100
AcDbMlineStyle
  2
Standard
 70
     0
  3

 62
   256
 51
90.0
 52
90.0
 71
     2
 49
0.5
 62
   256
  6
BYLAYER
 49
-0.5
 62
   256
  6
BYLAYER
  0
ACDBPLACEHOLDER
  5
F
102
{ACAD_REACTORS
330
E
102
}
330
E
  0
SCALE
  5
48
102
{ACAD_REACTORS
330
47
102
}
330
47
100
AcDbScale
 70
     0
300
1:1
140
1.0
141
1.0
290
     1
  0
SCALE
  5
49
102
{ACAD_REACTORS
330
47
102
}
330
47
100
AcDbScale
 70
     0
300
1:2
140
1.0
141
2.0
290
     0
  0
SCALE
  5
4A
102
{ACAD_REACTORS
330
47
102
}
330
47
100
AcDbScale
 70
     0
300
1:4
140
1.0
141
4.0
290
     0
  0
SCALE
  5
4B
102
{ACAD_REACTORS
330
47
102
}
330
47
100
AcDbScale
 70
     0
300
1:5
140
1.0
141
5.0
290
     0
  0
SCALE
  5
4C
102
{ACAD_REACTORS
330
47
102
}
330
47
100
AcDbScale
 70
     0
300
1:8
140
1.0
141
8.0
290
     0
  0
SCALE
  5
4D
102
{ACAD_REACTORS
330
47
102
}
330
47
100
AcDbScale
 70
     0
300
1:10
140
1.0
141
10.0
290
     0
  0
SCALE
  5
4E
102
{ACAD_REACTORS
330
47
102
}
330
47
100
AcDbScale
 70
     0
300
1:16
140
1.0
141
16.0
290
     0
  0
SCALE
  5
4F
102
{ACAD_REACTORS
330
47
102
}
330
47
100
AcDbScale
 70
     0
300
1:20
140
1.0
141
20.0
290
     0
  0
SCALE
  5
50
102
{ACAD_REACTORS
330
47
102
}
330
47
100
AcDbScale
 70
     0
300
1:30
140
1.0
141
30.0
290
     0
  0
SCALE
  5
51
102
{ACAD_REACTORS
330
47
102
}
330
47
100
AcDbScale
 70
     0
300
1:40
140
1.0
141
40.0
290
     0
  0
SCALE
  5
52
102
{ACAD_REACTORS
330
47
102
}
330
47
100
AcDbScale
 70
     0
300
1:50
140
1.0
141
50.0
290
     0
  0
SCALE
  5
53
102
{ACAD_REACTORS
330
47
102
}
330
47
100
AcDbScale
 70
     0
300
1:100
140
1.0
141
100.0
290
     0
  0
SCALE
  5
54
102
{ACAD_REACTORS
330
47
102
}
330
47
100
AcDbScale
 70
     0
300
2:1
140
2.0
141
1.0
290
     0
  0
SCALE
  5
55
102
{ACAD_REACTORS
330
47
102
}
330
47
100
AcDbScale
 70
     0
300
4:1
140
4.0
141
1.0
290
     0
  0
SCALE
  5
56
102
{ACAD_REACTORS
330
47
102
}
330
47
100
AcDbScale
 70
     0
300
8:1
140
8.0
141
1.0
290
     0
  0
SCALE
  5
57
102
{ACAD_REACTORS
330
47
102
}
330
47
100
AcDbScale
 70
     0
300
10:1
140
10.0
141
1.0
290
     0
  0
SCALE
  5
58
102
{ACAD_REACTORS
330
47
102
}
330
47
100
AcDbScale
 70
     0
300
100:1
140
100.0
141
1.0
290
     0
  0
SCALE
  5
59
102
{ACAD_REACTORS
330
47
102
}
330
47
100
AcDbScale
 70
     0
300
1/128" = 1'-0"
140
0.0078125
141
12.0
290
     0
  0
SCALE
  5
5A
102
{ACAD_REACTORS
330
47
102
}
330
47
100
AcDbScale
 70
     0
300
1/64" = 1'-0"
140
0.015625
141
12.0
290
     0
  0
SCALE
  5
5B
102
{ACAD_REACTORS
330
47
102
}
330
47
100
AcDbScale
 70
     0
300
1/32" = 1'-0"
140
0.03125
141
12.0
290
     0
  0
SCALE
  5
5C
102
{ACAD_REACTORS
330
47
102
}
330
47
100
AcDbScale
 70
     0
300
1/16" = 1'-0"
140
0.0625
141
12.0
290
     0
  0
SCALE
  5
5D
102
{ACAD_REACTORS
330
47
102
}
330
47
100
AcDbScale
 70
     0
300
3/32" = 1'-0"
140
0.09375
141
12.0
290
     0
  0
SCALE
  5
5E
102
{ACAD_REACTORS
330
47
102
}
330
47
100
AcDbScale
 70
     0
300
1/8" = 1'-0"
140
0.125
141
12.0
290
     0
  0
SCALE
  5
5F
102
{ACAD_REACTORS
330
47
102
}
330
47
100
AcDbScale
 70
     0
300
3/16" = 1'-0"
140
0.1875
141
12.0
290
     0
  0
SCALE
  5
60
102
{ACAD_REACTORS
330
47
102
}
330
47
100
AcDbScale
 70
     0
300
1/4" = 1'-0"
140
0.25
141
12.0
290
     0
  0
SCALE
  5
61
102
{ACAD_REACTORS
330
47
102
}
330
47
100
AcDbScale
 70
     0
300
3/8" = 1'-0"
140
0.375
141
12.0
290
     0
  0
SCALE
  5
62
102
{ACAD_REACTORS
330
47
102
}
330
47
100
AcDbScale
 70
     0
300
1/2" = 1'-0"
140
0.5
141
12.0
290
     0
  0
SCALE
  5
63
102
{ACAD_REACTORS
330
47
102
}
330
47
100
AcDbScale
 70
     0
300
3/4" = 1'-0"
140
0.75
141
12.0
290
     0
  0
SCALE
  5
64
102
{ACAD_REACTORS
330
47
102
}
330
47
100
AcDbScale
 70
     0
300
1" = 1'-0"
140
1.0
141
12.0
290
     0
  0
SCALE
  5
65
102
{ACAD_REACTORS
330
47
102
}
330
47
100
AcDbScale
 70
     0
300
1-1/2" = 1'-0"
140
1.5
141
12.0
290
     0
  0
SCALE
  5
66
102
{ACAD_REACTORS
330
47
102
}
330
47
100
AcDbScale
 70
     0
300
3" = 1'-0"
140
3.0
141
12.0
290
     0
  0
SCALE
  5
67
102
{ACAD_REACTORS
330
47
102
}
330
47
100
AcDbScale
 70
     0
300
6" = 1'-0"
140
6.0
141
12.0
290
     0
  0
SCALE
  5
68
102
{ACAD_REACTORS
330
47
102
}
330
47
100
AcDbScale
 70
     0
300
1'-0" = 1'-0"
140
12.0
141
12.0
290
     0
  0
ENDSEC
  0
EOF
